<?xml version="1.0" standalone="no"?>
<!DOCTYPE svg PUBLIC "-//W3C//DTD SVG 1.1//EN" "http://www.w3.org/Graphics/SVG/1.1/DTD/svg11.dtd" >
<svg xmlns="http://www.w3.org/2000/svg" xmlns:xlink="http://www.w3.org/1999/xlink" version="1.1">
<metadata>
Created by FontForge 20230101 at Fri Sep 11 22:38:58 2015
 By Unknown
Copyright (c) 2015 by Kostas Bartsokas. All rights reserved.
</metadata>
<defs>
<font id="AvertaStd-Extrathin" horiz-adv-x="532" >
  <font-face 
    font-family="AvertaStd-Extrathin"
    font-weight="400"
    font-stretch="normal"
    units-per-em="1000"
    panose-1="0 0 3 0 0 0 0 0 0 0"
    ascent="786"
    descent="-214"
    x-height="484"
    cap-height="710"
    bbox="-129 -256 1337 969"
    underline-thickness="18"
    underline-position="-78"
    unicode-range="U+0020-2715"
  />
<missing-glyph horiz-adv-x="439" 
 />
    <glyph glyph-name=".notdef" horiz-adv-x="439" 
 />
    <glyph glyph-name=".null" horiz-adv-x="0" 
 />
    <glyph glyph-name="nonmarkingreturn" horiz-adv-x="333" 
 />
    <glyph glyph-name="space" unicode=" " horiz-adv-x="280" 
 />
    <glyph glyph-name="exclam" unicode="!" horiz-adv-x="190" 
d="M85 180l-4 556h26l-4 -556h-18zM95 -10q-13 0 -21 8t-8 21t8 20.5t21 7.5t21 -7.5t8 -20.5t-8 -21t-21 -8z" />
    <glyph glyph-name="quotedbl" unicode="&#x22;" horiz-adv-x="245" 
d="M50 493l35 217h26l-42 -217h-19zM133 493l35 217h27l-42 -217h-20z" />
    <glyph glyph-name="numbersign" unicode="#" horiz-adv-x="613" 
d="M145 -25l34 224h-134v22h136l29 187h-146v21h149l35 227h22l-35 -227h194l34 227h22l-35 -227h138v-21h-141l-28 -187h150v-22h-154l-34 -224h-21l34 224h-194l-34 -224h-21zM203 221h194l28 187h-194z" />
    <glyph glyph-name="dollar" unicode="$" horiz-adv-x="542" 
d="M493 165q0 -73 -53 -119.5t-148 -47.5v-123h-23v124q-119 6 -210 93l19 19q92 -90 210 -90q79 0 130.5 38.5t51.5 105.5q0 31 -11.5 55.5t-25.5 39.5t-44.5 30.5t-51 23t-61.5 20.5q-105 36 -139 58q-65 43 -65 118q0 68 49 111.5t138 43.5h10v127h23v-129
q98 -14 169 -65l-17 -19q-35 27 -89 45t-96 18q-71 0 -117 -35t-46 -97q0 -73 84 -114q27 -14 104 -40q35 -12 47 -16t41.5 -16t41 -20t31 -23t27 -30.5t14.5 -37.5t7 -48z" />
    <glyph glyph-name="percent" unicode="%" horiz-adv-x="938" 
d="M326 -7l-21 7l305 717l20 -8zM233 328q-83 0 -139 54t-56 140q0 81 54.5 136.5t140.5 55.5q82 0 139 -54t57 -138q0 -82 -54.5 -138t-141.5 -56zM233 350q77 0 125.5 49.5t48.5 122.5q0 76 -50 123t-124 47q-77 0 -125 -48.5t-48 -121.5q0 -77 49.5 -124.5t123.5 -47.5z
M695 -3q-82 0 -138.5 54t-56.5 139q0 81 54.5 136.5t140.5 55.5q83 0 139.5 -53.5t56.5 -138.5q0 -82 -54.5 -137.5t-141.5 -55.5zM695 18q77 0 125.5 49.5t48.5 122.5q0 76 -50 123t-124 47q-77 0 -125.5 -48.5t-48.5 -121.5q0 -76 50.5 -124t123.5 -48z" />
    <glyph glyph-name="ampersand" unicode="&#x26;" horiz-adv-x="619" 
d="M559 0l-82 91h-1q-79 -94 -214 -94q-93 0 -155 54.5t-62 142.5q0 63 40 123t105 91l-99 109q0 90 52 143.5t142 53.5q66 0 114 -33.5t67 -89.5l-22 -9q-16 50 -57.5 79.5t-101.5 29.5q-81 0 -125 -44.5t-44 -122.5l357 -396h3q53 80 53 186h23q0 -114 -61 -203v-2
l98 -109h-30zM262 19q125 0 199 89l-255 282q-60 -28 -99 -82t-39 -114q0 -74 53.5 -124.5t140.5 -50.5z" />
    <glyph glyph-name="quotesingle" unicode="'" horiz-adv-x="161" 
d="M50 493l35 217h26l-42 -217h-19z" />
    <glyph glyph-name="parenleft" unicode="(" horiz-adv-x="231" 
d="M169 -136q-101 213 -101 434q0 244 107 434l18 -11q-103 -186 -103 -423q0 -215 99 -425z" />
    <glyph glyph-name="parenright" unicode=")" horiz-adv-x="231" 
d="M72 -136l-20 9q99 210 99 425q0 237 -103 423l18 11q107 -190 107 -434q0 -221 -101 -434z" />
    <glyph glyph-name="asterisk" unicode="*" horiz-adv-x="403" 
d="M190 406l4 139l-119 -74l-11 21l124 66l-125 66l12 20l119 -73l-4 139h23l-4 -139l119 74l11 -21l-124 -66l124 -66l-11 -19l-119 72l4 -139h-23z" />
    <glyph glyph-name="plus" unicode="+" horiz-adv-x="583" 
d="M280 46v219h-219v22h219v220h22v-220h219v-22h-219v-219h-22z" />
    <glyph glyph-name="comma" unicode="," horiz-adv-x="157" 
d="M36 -128l35 218h27l-42 -218h-20z" />
    <glyph glyph-name="hyphen" unicode="-" horiz-adv-x="403" 
d="M58 296v23h288v-23h-288z" />
    <glyph glyph-name="period" unicode="." horiz-adv-x="172" 
d="M86 -10q-13 0 -21 8t-8 21t8 20.5t21 7.5t21 -7.5t8 -20.5t-8 -21t-21 -8z" />
    <glyph glyph-name="slash" unicode="/" horiz-adv-x="373" 
d="M6 -115l-19 10l389 851l19 -11z" />
    <glyph glyph-name="zero" unicode="0" horiz-adv-x="608" 
d="M304 -3q-108 0 -177 90.5t-69 254.5q0 153 65 250.5t181 97.5q108 0 177 -91t69 -257q0 -151 -64.5 -248t-181.5 -97zM304 20q106 0 164.5 89.5t58.5 232.5q0 157 -62.5 241t-160.5 84q-106 0 -164.5 -90t-58.5 -235q0 -155 62.5 -238.5t160.5 -83.5z" />
    <glyph glyph-name="one" unicode="1" horiz-adv-x="320" 
d="M200 0v657l-162 -123l-14 18l176 135h23v-687h-23z" />
    <glyph glyph-name="two" unicode="2" horiz-adv-x="485" 
d="M69 23h375v-23h-413v22l261 253q57 55 88 104.5t31 108.5q0 78 -49 128.5t-126 50.5q-127 0 -178 -119l-22 12q57 130 200 130q81 0 139.5 -54.5t58.5 -146.5q0 -59 -30.5 -113t-93.5 -116l-241 -233v-4z" />
    <glyph glyph-name="three" unicode="3" horiz-adv-x="500" 
d="M318 359q65 -19 100.5 -66.5t35.5 -111.5q0 -80 -60 -132t-151 -52q-80 0 -137.5 32t-84.5 87l22 11q25 -50 76 -78.5t124 -28.5q82 0 135 45.5t53 120.5q0 69 -50 115.5t-144 46.5h-66v23h75q83 0 126 41.5t43 103.5q0 69 -50 110t-127 41q-115 0 -175 -84l-21 14
q68 93 196 93q86 0 143 -47t57 -127q0 -55 -30.5 -96.5t-89.5 -58.5v-2z" />
    <glyph glyph-name="four" unicode="4" horiz-adv-x="535" 
d="M379 0v131h-357v23l358 533h22v-533h108v-23h-108v-131h-23zM50 154h329v490z" />
    <glyph glyph-name="five" unicode="5" horiz-adv-x="529" 
d="M257 427q100 0 166 -57.5t66 -158.5q0 -94 -67 -154t-165 -60q-71 0 -130.5 33.5t-86.5 87.5l22 9q27 -49 78.5 -78t116.5 -29q89 0 148.5 53.5t59.5 137.5q0 90 -58 141t-150 51q-96 0 -138 -41l-22 2l19 323h345v-23h-324l-15 -274q54 37 135 37z" />
    <glyph glyph-name="six" unicode="6" horiz-adv-x="560" 
d="M300 424q98 0 157 -57.5t59 -155.5q0 -90 -63 -152t-163 -62q-102 0 -168 70.5t-66 183.5q0 98 32 183t83 141t107.5 90.5t111.5 43.5l4 -23q-48 -9 -98 -38.5t-96 -76.5t-78.5 -119t-39.5 -155q33 56 89.5 91.5t128.5 35.5zM290 21q90 0 146 54.5t56 135.5q0 87 -52 138
t-140 51q-83 0 -139.5 -46.5t-80.5 -112.5q3 -98 62 -159t148 -61z" />
    <glyph glyph-name="seven" unicode="7" horiz-adv-x="481" 
d="M30 687h422v-24l-309 -671l-22 8l306 664h-397v23z" />
    <glyph glyph-name="eight" unicode="8" horiz-adv-x="563" 
d="M354 372q72 -14 115 -64.5t43 -119.5q0 -84 -67 -137.5t-166 -53.5q-103 0 -168 55.5t-65 135.5q0 69 43 119.5t115 64.5q-51 11 -87 50.5t-36 98.5q0 76 56 122.5t142 46.5q90 0 145 -48t55 -121q0 -59 -36.5 -98t-88.5 -51zM104 521q0 -63 48.5 -100.5t126.5 -37.5
q79 0 127.5 37.5t48.5 100.5q0 66 -49.5 106t-126.5 40q-79 0 -127 -41.5t-48 -104.5zM279 21q94 0 152 48t58 119q0 77 -57.5 124t-152.5 47t-152.5 -47t-57.5 -124q0 -74 60.5 -120.5t149.5 -46.5z" />
    <glyph glyph-name="nine" unicode="9" horiz-adv-x="566" 
d="M279 690q101 0 167.5 -72.5t65.5 -193.5q-1 -79 -25 -149.5t-62 -120.5t-85 -89t-92.5 -60t-86.5 -29l-3 23q46 9 98 38t102.5 76t86 120t42.5 157l-1 1q-33 -57 -93 -93.5t-139 -36.5q-91 0 -149 57t-58 149q0 93 65.5 158t166.5 65zM254 285q75 0 139.5 39.5
t94.5 119.5q-5 102 -63.5 162.5t-145.5 60.5q-94 0 -151 -57.5t-57 -141.5q0 -83 50.5 -133t132.5 -50z" />
    <glyph glyph-name="colon" unicode=":" horiz-adv-x="163" 
d="M82 437q-13 0 -21 8t-8 21t8 20.5t21 7.5t21 -7.5t8 -20.5t-8 -21t-21 -8zM82 -10q-13 0 -21 8t-8 21t8 20.5t21 7.5t21 -7.5t8 -20.5t-8 -21t-21 -8z" />
    <glyph glyph-name="semicolon" unicode=";" horiz-adv-x="174" 
d="M93 437q-13 0 -21 8t-8 21t8 20.5t21 7.5t21 -7.5t8 -20.5t-8 -21t-21 -8zM40 -128l35 218h27l-42 -218h-20z" />
    <glyph glyph-name="less" unicode="&#x3c;" horiz-adv-x="552" 
d="M489 65l-429 210v16l429 210v-24l-394 -194l394 -193v-25z" />
    <glyph glyph-name="equal" unicode="=" horiz-adv-x="556" 
d="M50 377v22h460v-22h-460zM50 153v22h460v-22h-460z" />
    <glyph glyph-name="greater" unicode="&#x3e;" horiz-adv-x="549" 
d="M73 65v25l394 193l-394 194v24l429 -210v-16z" />
    <glyph glyph-name="question" unicode="?" horiz-adv-x="417" 
d="M179 176v60q0 12 2.5 24t9 24.5t11.5 21.5t16.5 22.5t17.5 20.5t20.5 22.5t19.5 21.5q41 44 63.5 83.5t22.5 88.5q0 69 -45.5 110t-109.5 41q-49 0 -92 -22.5t-70 -65.5l-16 18q64 94 178 94q80 0 129.5 -51t49.5 -124q0 -38 -15 -75t-32.5 -59.5t-46.5 -53.5
q-4 -5 -19.5 -21t-20 -21.5t-16 -19t-15.5 -20.5t-10.5 -18.5t-8.5 -21t-2 -19.5v-60h-21zM192 -10q-13 0 -21 8t-8 21t8 20.5t21 7.5t21 -7.5t8 -20.5t-8 -21t-21 -8z" />
    <glyph glyph-name="at" unicode="@" horiz-adv-x="896" 
d="M482 650q159 0 261 -96t102 -255q0 -37 -10.5 -79t-30.5 -82t-56.5 -66.5t-82.5 -26.5q-77 0 -77 90q0 2 2 28h-3q-24 -50 -72 -78.5t-106 -28.5q-75 0 -128 53.5t-53 138.5q0 82 55.5 150t159.5 68q56 0 99.5 -30.5t62.5 -83.5h1l11 111h22l-26 -286q-2 -13 -2 -35
q0 -46 13.5 -60t40.5 -14q52 0 90 41.5t52.5 91.5t14.5 97q0 150 -95 240t-245 90q-85 0 -155 -25t-115.5 -66t-77.5 -94t-45.5 -107t-13.5 -107q0 -146 94.5 -241t236.5 -95q129 0 223 53l14 -19q-102 -57 -237 -57q-151 0 -252.5 101.5t-101.5 257.5q0 53 13.5 108t46 112
t80 101t123 72t167.5 28zM411 79q48 0 86 20t59 50.5t32 63.5t11 64q0 72 -42.5 119t-111.5 47q-93 0 -143.5 -58t-50.5 -133t45 -124t115 -49z" />
    <glyph glyph-name="A" unicode="A" horiz-adv-x="640" 
d="M586 0l-82 211h-368l-82 -211h-25l275 710h29l278 -710h-25zM144 233h351l-175 449h-2z" />
    <glyph glyph-name="B" unicode="B" horiz-adv-x="610" 
d="M389 370q69 -10 116 -56t47 -126q0 -87 -61.5 -137.5t-183.5 -50.5h-218v710h204q102 0 163.5 -40.5t61.5 -131.5q0 -59 -33.5 -104t-95.5 -62v-2zM112 688v-306h200q34 0 64 8t57.5 25t44 48.5t16.5 74.5q0 150 -209 150h-173zM304 23q104 0 164 41t60 121
q0 83 -56.5 128.5t-160.5 45.5h-199v-336h192z" />
    <glyph glyph-name="C" unicode="C" horiz-adv-x="714" 
d="M408 -3q-149 0 -247.5 94.5t-98.5 260.5q0 157 91.5 259.5t254.5 102.5t271 -134l-19 -16q-99 126 -252 126t-238 -95t-85 -243q0 -156 91.5 -244t231.5 -88q152 0 252 125l19 -15q-107 -133 -271 -133z" />
    <glyph glyph-name="D" unicode="D" horiz-adv-x="706" 
d="M89 0v710h187q167 0 268 -98.5t101 -257.5t-100 -256.5t-266 -97.5h-190zM112 23h165q156 0 250 92t94 239q0 149 -94 241.5t-251 92.5h-164v-665z" />
    <glyph glyph-name="E" unicode="E" horiz-adv-x="565" 
d="M89 0v710h412v-22h-389v-321h327v-23h-327v-321h410v-23h-433z" />
    <glyph glyph-name="F" unicode="F" horiz-adv-x="548" 
d="M89 0v710h432v-22h-409v-323h353v-23h-353v-342h-23z" />
    <glyph glyph-name="G" unicode="G" horiz-adv-x="760" 
d="M409 -3q-153 0 -250 99.5t-97 257.5q0 160 97 260t250 100q156 0 258 -99l-16 -16q-95 91 -242 91q-144 0 -234 -93t-90 -243q0 -148 90.5 -241t233.5 -93q155 0 250 81v217h-269v23h292v-251q-104 -93 -273 -93z" />
    <glyph glyph-name="H" unicode="H" horiz-adv-x="692" 
d="M89 0v710h23v-364h468v364h23v-710h-23v323h-468v-323h-23z" />
    <glyph glyph-name="I" unicode="I" horiz-adv-x="215" 
d="M96 0v710h23v-710h-23z" />
    <glyph glyph-name="J" unicode="J" horiz-adv-x="467" 
d="M212 -3q-45 0 -95.5 24.5t-90.5 69.5l14 18q83 -89 172 -89q154 0 154 193v497h23v-502q0 -211 -177 -211z" />
    <glyph glyph-name="K" unicode="K" horiz-adv-x="612" 
d="M257 356h-1l-144 -167v-189h-23v710h23v-483h2l418 483h31l-291 -336l296 -374h-30z" />
    <glyph glyph-name="L" unicode="L" horiz-adv-x="528" 
d="M89 0v710h23v-687h394v-23h-417z" />
    <glyph glyph-name="M" unicode="M" horiz-adv-x="853" 
d="M740 710h23v-710h-23v665h-1l-302 -510h-21l-303 510h-1v-665h-23v710h24l313 -525h2z" />
    <glyph glyph-name="N" unicode="N" horiz-adv-x="728" 
d="M615 710h23v-710h-23l-502 669h-1v-669h-23v710h22l503 -670h1v670z" />
    <glyph glyph-name="O" unicode="O" horiz-adv-x="822" 
d="M412 -3q-155 0 -252.5 103.5t-97.5 255.5q0 151 98 254.5t252 103.5q146 0 247 -100t101 -258q0 -159 -100.5 -259t-247.5 -100zM412 20q137 0 231 94t94 242t-94 241t-231 93q-144 0 -235.5 -96.5t-91.5 -237.5q0 -142 91.5 -239t235.5 -97z" />
    <glyph glyph-name="P" unicode="P" horiz-adv-x="582" 
d="M89 0v710h233q112 0 165.5 -54.5t53.5 -145.5q0 -104 -63.5 -154.5t-173.5 -50.5h-192v-305h-23zM112 328h191q111 0 163 49.5t52 132.5q0 88 -52 133t-138 45h-216v-360z" />
    <glyph glyph-name="Q" unicode="Q" horiz-adv-x="830" 
d="M771 14l-15 -17l-104 93q-98 -93 -240 -93q-155 0 -252.5 103.5t-97.5 255.5q0 151 98 254.5t252 103.5q146 0 247 -100t101 -258q0 -150 -92 -250zM412 20q131 0 223 86l-103 92l14 18l105 -94q86 94 86 234q0 148 -94 241t-231 93q-144 0 -235.5 -96.5t-91.5 -237.5
q0 -142 91.5 -239t235.5 -97z" />
    <glyph glyph-name="R" unicode="R" horiz-adv-x="612" 
d="M549 0h-28l-220 305h-189v-305h-23v710h233q110 0 165 -55t55 -145q0 -97 -57 -147.5t-155 -56.5v-3zM112 688v-360h192q111 0 162.5 49.5t51.5 132.5q0 89 -52 133.5t-143 44.5h-211z" />
    <glyph glyph-name="S" unicode="S" horiz-adv-x="558" 
d="M282 -3q-149 0 -239 107l18 18q37 -50 96.5 -76t126.5 -26q83 0 140.5 40.5t57.5 113.5q0 20 -5 37.5t-11 30t-20.5 25.5t-24.5 20t-32 18t-32.5 15.5t-38 15.5t-38.5 15q-36 14 -51 21t-45.5 21.5t-45 27.5t-32 32.5t-25 42.5t-7.5 51q0 73 56.5 120t145.5 47
q113 0 203 -74l-16 -19q-84 69 -186 69q-72 0 -125.5 -38t-53.5 -105q0 -36 14.5 -63t47 -48.5t56.5 -32.5t71 -30q8 -3 33 -13t33.5 -13.5t30 -13t29.5 -14.5t25 -15.5t23.5 -19t17 -21t15 -25.5t8 -29.5t3.5 -34.5q0 -77 -59.5 -127t-163.5 -50z" />
    <glyph glyph-name="T" unicode="T" horiz-adv-x="542" 
d="M258 0v688h-233v22h492v-22h-236v-688h-23z" />
    <glyph glyph-name="U" unicode="U" horiz-adv-x="682" 
d="M341 -3q-117 0 -188.5 77t-71.5 209v427h23v-427q0 -123 65 -193t172 -70t172.5 70t65.5 193v427h23v-427q0 -132 -72 -209t-189 -77z" />
    <glyph glyph-name="V" unicode="V" horiz-adv-x="630" 
d="M575 710h25l-273 -710h-24l-273 710h25l259 -675h2z" />
    <glyph glyph-name="W" unicode="W" horiz-adv-x="991" 
d="M932 710h25l-230 -710h-30l-201 677h-1l-202 -677h-29l-230 710h25l219 -676h1l201 676h31l200 -675h2z" />
    <glyph glyph-name="X" unicode="X" horiz-adv-x="604" 
d="M572 710l-255 -356l254 -354h-29l-238 330h-1v1l-241 -331h-28l254 354l-255 356h27l242 -335h1l240 335h29z" />
    <glyph glyph-name="Y" unicode="Y" horiz-adv-x="556" 
d="M510 710h28l-249 -387v-323h-23v323l-248 387h28l230 -360h2z" />
    <glyph glyph-name="Z" unicode="Z" horiz-adv-x="588" 
d="M87 23h438v-23h-469v21l434 664v3h-407v22h437v-23l-433 -662v-2z" />
    <glyph glyph-name="bracketleft" unicode="[" horiz-adv-x="259" 
d="M82 -140v864h141v-21h-120v-823h120v-20h-141z" />
    <glyph glyph-name="backslash" unicode="\" horiz-adv-x="373" 
d="M377 -115l-389 850l19 11l389 -851z" />
    <glyph glyph-name="bracketright" unicode="]" horiz-adv-x="259" 
d="M187 -140h-141v20h120v823h-120v21h141v-864z" />
    <glyph glyph-name="asciicircum" unicode="^" horiz-adv-x="453" 
d="M68 500l146 210h25l146 -210h-28l-131 188l-130 -188h-28z" />
    <glyph glyph-name="underscore" unicode="_" horiz-adv-x="509" 
d="M-7 -50v22h524v-22h-524z" />
    <glyph glyph-name="grave" unicode="`" horiz-adv-x="508" 
d="M285 548l-124 135h30l123 -135h-29z" />
    <glyph glyph-name="a" unicode="a" horiz-adv-x="591" 
d="M495 484h22v-484h-22v133h-1q-27 -62 -82 -99t-127 -37q-101 0 -170.5 67t-69.5 173t67.5 178.5t173.5 72.5q68 0 123.5 -37.5t83.5 -101.5h2v135zM285 19q89 0 149.5 61t60.5 157t-58.5 162t-150.5 66t-155 -63.5t-63 -164.5q0 -92 60.5 -155t156.5 -63z" />
    <glyph glyph-name="b" unicode="b" horiz-adv-x="600" 
d="M312 488q106 0 173 -72.5t67 -178.5t-69 -173t-170 -67q-72 0 -127 36.5t-82 98.5h-1v-132h-22v736h22v-387h2q27 64 82.5 101.5t124.5 37.5zM313 19q96 0 156.5 63t60.5 155q0 101 -63 164.5t-155 63.5q-93 0 -151 -65.5t-58 -162.5q0 -96 60.5 -157t149.5 -61z" />
    <glyph glyph-name="c" unicode="c" horiz-adv-x="499" 
d="M278 -3q-103 0 -167 68.5t-64 176.5t64.5 177t167.5 69q111 0 180 -77l-17 -17q-59 71 -163 71q-93 0 -151.5 -62.5t-58.5 -160.5q0 -99 58 -161t151 -62q48 0 93.5 18.5t74.5 51.5l15 -17q-32 -34 -80.5 -54.5t-102.5 -20.5z" />
    <glyph glyph-name="d" unicode="d" horiz-adv-x="600" 
d="M498 736h22v-736h-22v133h-2q-26 -62 -81 -99t-127 -37q-102 0 -171.5 67t-69.5 173t67.5 178.5t173.5 72.5q68 0 123.5 -37.5t83.5 -101.5h3v387zM288 19q88 0 149 61t61 157t-59 162t-151 66q-93 0 -156 -63.5t-63 -164.5q0 -92 61 -155t158 -63z" />
    <glyph glyph-name="e" unicode="e" 
d="M488 243h-418v-1q0 -97 58 -160t149 -63q111 0 174 81l17 -13q-68 -90 -189 -90q-102 0 -167 69.5t-65 175.5q0 105 66 175.5t164 70.5q94 0 153 -65.5t59 -165.5zM277 465q-82 0 -140 -56.5t-66 -143.5h395q-5 91 -56.5 145.5t-132.5 54.5z" />
    <glyph glyph-name="f" unicode="f" horiz-adv-x="311" 
d="M105 0v462h-68v22h68v118q0 69 31.5 103.5t85.5 34.5q48 0 95 -26l-4 -22q-44 25 -92 25q-42 0 -68 -27.5t-26 -87.5v-118h173v-22h-173v-462h-22z" />
    <glyph glyph-name="g" unicode="g" horiz-adv-x="586" 
d="M491 484h22v-474q0 -97 -57 -154t-164 -57q-106 0 -198 56l7 23q90 -57 192 -57q98 0 148 52.5t50 141.5v131h-1q-26 -62 -80.5 -98t-128.5 -36q-99 0 -166.5 66.5t-67.5 174.5q0 99 65.5 167t169.5 68q70 0 125.5 -35t82.5 -95h1v126zM281 34q96 0 153 62t57 157
q0 94 -59.5 153t-149.5 59q-94 0 -153 -61t-59 -151q0 -98 60.5 -158.5t150.5 -60.5z" />
    <glyph glyph-name="h" unicode="h" horiz-adv-x="548" 
d="M311 488q77 0 122 -51.5t45 -144.5v-292h-22v281q0 95 -40 139.5t-105 44.5q-95 0 -151.5 -62t-56.5 -164v-239h-22v736h22v-381h1q26 63 79.5 98t127.5 35z" />
    <glyph glyph-name="i" unicode="i" horiz-adv-x="195" 
d="M98 606q-12 0 -20 8t-8 19q0 12 8 19.5t20 7.5q27 0 27 -27q0 -11 -7.5 -19t-19.5 -8zM86 0v484h22v-484h-22z" />
    <glyph glyph-name="j" unicode="j" horiz-adv-x="176" 
d="M94 606q-12 0 -20 8t-8 19q0 12 8 19.5t20 7.5q27 0 27 -27q0 -11 -7.5 -19t-19.5 -8zM4 -201q-35 0 -63 14l3 24q27 -16 62 -16q77 0 77 94v569h22v-569q0 -116 -101 -116z" />
    <glyph glyph-name="k" unicode="k" horiz-adv-x="483" 
d="M452 484l-193 -210l191 -274h-28l-178 256h-1l-140 -152v-104h-22v736h22v-597h1l316 345h32z" />
    <glyph glyph-name="l" unicode="l" horiz-adv-x="194" 
d="M86 0v736h22v-736h-22z" />
    <glyph glyph-name="m" unicode="m" horiz-adv-x="862" 
d="M634 488q81 0 121.5 -56.5t40.5 -154.5v-277h-22v266q0 99 -36.5 149t-103.5 50q-77 0 -129 -63t-52 -163v-239h-22v266q0 99 -38 149t-105 50q-79 0 -132 -63t-53 -163v-239h-22v484h22v-128h1q25 62 74 97t110 35q65 0 106 -39t54 -108h1q22 68 72 107.5t113 39.5z" />
    <glyph glyph-name="n" unicode="n" horiz-adv-x="543" 
d="M306 488q77 0 122 -51.5t45 -144.5v-292h-22v281q0 95 -40 139.5t-105 44.5q-92 0 -147.5 -62t-55.5 -164v-239h-22v484h22v-129h1q26 63 78.5 98t123.5 35z" />
    <glyph glyph-name="o" unicode="o" horiz-adv-x="579" 
d="M290 -3q-107 0 -175 71t-68 174q0 102 68.5 174t174.5 72q102 0 172 -69t70 -177t-70 -176.5t-172 -68.5zM290 19q93 0 156 62.5t63 160.5t-63.5 160.5t-155.5 62.5q-98 0 -159.5 -64.5t-61.5 -158.5t61.5 -158.5t159.5 -64.5z" />
    <glyph glyph-name="p" unicode="p" horiz-adv-x="600" 
d="M312 488q106 0 173 -72.5t67 -178.5t-69 -173t-170 -67q-72 0 -127 36.5t-82 98.5h-1v-330h-22v682h22v-136h1q28 65 83.5 102.5t124.5 37.5zM313 19q96 0 156.5 63t60.5 155q0 101 -63 164.5t-155 63.5q-93 0 -151 -65.5t-58 -162.5q0 -96 60.5 -157t149.5 -61z" />
    <glyph glyph-name="q" unicode="q" horiz-adv-x="601" 
d="M499 484h22v-682h-22v330h-1q-28 -62 -82.5 -98.5t-126.5 -36.5q-101 0 -170.5 67t-69.5 173t67 178.5t174 72.5q68 0 123.5 -37.5t83.5 -101.5h2v135zM289 19q88 0 149 61t61 157t-58.5 162t-150.5 66q-93 0 -156 -63.5t-63 -164.5q0 -92 61 -155t157 -63z" />
    <glyph glyph-name="r" unicode="r" horiz-adv-x="317" 
d="M277 488q22 0 32 -1v-24q-20 2 -29 2q-80 0 -128.5 -61.5t-48.5 -161.5v-242h-22v484h22v-119h1q22 58 66.5 90.5t106.5 32.5z" />
    <glyph glyph-name="s" unicode="s" horiz-adv-x="415" 
d="M211 -3q-102 0 -177 67l13 18q71 -63 164 -63q64 0 102 30t38 73q0 16 -3 28.5t-13 23t-16.5 17t-25.5 15t-26.5 12t-34 12.5t-34.5 12q-36 13 -56 22t-42.5 24.5t-32.5 36t-10 47.5q0 49 40 82.5t99 33.5q91 0 158 -58l-15 -16q-60 51 -142 51q-50 0 -83.5 -27
t-33.5 -64q0 -23 9 -40.5t29 -30.5t36 -20.5t47 -18.5q8 -3 29 -10.5l28 -10t24.5 -9t23.5 -10.5t19 -11.5t18 -13t13 -14.5t10.5 -18.5t5 -21.5t2.5 -25q-1 -52 -44.5 -87.5t-118.5 -35.5z" />
    <glyph glyph-name="t" unicode="t" horiz-adv-x="354" 
d="M204 -3q-63 0 -85.5 33t-22.5 98v334h-67v22h67v175l22 3v-178h195v-22h-195v-319q0 -64 16 -94t67 -30q54 0 102 32l6 -22q-48 -32 -105 -32z" />
    <glyph glyph-name="u" unicode="u" 
d="M436 484h22v-484h-22v128h-1q-25 -61 -73.5 -96t-109.5 -35q-88 0 -135.5 57t-47.5 154v276h22v-265q0 -99 43 -149.5t118 -50.5q79 0 131.5 63t52.5 163v239z" />
    <glyph glyph-name="v" unicode="v" horiz-adv-x="494" 
d="M439 484h25l-205 -484h-22l-208 484h26l192 -449h2z" />
    <glyph glyph-name="w" unicode="w" horiz-adv-x="752" 
d="M694 484h24l-172 -484h-24l-145 451h-1l-147 -451h-23l-172 484h24l159 -445h2l143 445h26l145 -445h2z" />
    <glyph glyph-name="x" unicode="x" horiz-adv-x="466" 
d="M436 484l-187 -241l187 -243h-30l-172 223l-172 -223h-29l186 242l-188 242h30l172 -224l173 224h30z" />
    <glyph glyph-name="y" unicode="y" horiz-adv-x="506" 
d="M450 484h27l-290 -682h-25l86 203l-221 479h27l204 -449h2z" />
    <glyph glyph-name="z" unicode="z" horiz-adv-x="437" 
d="M60 22h348v-22h-379v22l342 439v1h-330v22h361v-20l-342 -440v-2z" />
    <glyph glyph-name="braceleft" unicode="{" horiz-adv-x="288" 
d="M131 376q0 -42 -12 -63t-49 -27v-2q37 -6 49 -27t12 -63v-226q0 -48 18.5 -68t55.5 -20h28v-20h-27q-41 0 -68 24t-27 65v252q0 16 -1.5 25t-8 21t-23 18.5t-42.5 8.5v22q26 3 42 9.5t23 18t8.5 20.5t1.5 26v263q0 39 25.5 65t69.5 26h27v-21h-28q-32 0 -53 -19t-21 -52
v-256z" />
    <glyph glyph-name="bar" unicode="|" horiz-adv-x="241" 
d="M109 -115v852h22v-852h-22z" />
    <glyph glyph-name="braceright" unicode="}" horiz-adv-x="288" 
d="M186 370q0 -17 1.5 -26t8.5 -20.5t23 -18t42 -9.5v-22q-26 -2 -42.5 -8.5t-23 -18.5t-8 -21t-1.5 -25v-252q0 -41 -27 -65t-68 -24h-27v20h28q38 0 56 20t18 68v226q0 42 12 63t49 27v2q-37 6 -49 27t-12 63v256q0 33 -21 52t-53 19h-28v21h27q44 0 69.5 -26t25.5 -65
v-263z" />
    <glyph glyph-name="asciitilde" unicode="~" horiz-adv-x="540" 
d="M372 231q-12 0 -23 2t-26 8t-20 8.5l-25 12.5t-21 11q-49 26 -86 26q-58 0 -87 -61l-16 7q32 77 103 77q37 0 101 -31q5 -2 16.5 -8.5t17 -9.5t16 -7.5t18 -6.5t16.5 -4t18 -2q57 0 81 61l16 -7q-15 -38 -42 -57t-57 -19z" />
    <glyph glyph-name="exclamdown" unicode="&#xa1;" horiz-adv-x="190" 
d="M95 494q13 0 21 -8t8 -21t-8 -20.5t-21 -7.5t-21 7.5t-8 20.5t8 21t21 8zM85 304h18l4 -556h-26z" />
    <glyph glyph-name="cent" unicode="&#xa2;" horiz-adv-x="528" 
d="M496 127q-31 -32 -78.5 -52.5t-99.5 -23.5v-114h-21v114q-107 2 -172.5 70.5t-65.5 174.5q0 107 66 175.5t172 70.5v125h21v-125q108 -5 176 -77l-17 -16q-66 71 -173 71q-99 0 -160.5 -62.5t-61.5 -161.5t61 -160.5t160 -61.5q51 0 98.5 18.5t78.5 51.5z" />
    <glyph glyph-name="sterling" unicode="&#xa3;" horiz-adv-x="548" 
d="M45 0v23h94v352h-72v23h72v76q0 107 52.5 161t131.5 54q113 0 171 -99l-18 -15q-52 91 -153 91q-74 0 -117.5 -51t-43.5 -144v-73h179v-23h-179v-352h363v-23h-480z" />
    <glyph glyph-name="currency" unicode="&#xa4;" horiz-adv-x="487" 
d="M424 384q0 -69 -47 -121l78 -77l-16 -16l-77 78q-51 -46 -121 -46q-68 0 -122 46l-77 -77l-15 16l77 77q-46 51 -46 120q0 70 46 121l-77 78l15 15l77 -77q52 47 122 47t121 -46l77 77l16 -15l-77 -78q46 -51 46 -122zM241 226q66 0 113 46.5t46 112.5q0 65 -46.5 112
t-112.5 47q-65 0 -112 -47t-47 -112q1 -66 47.5 -112.5t111.5 -46.5z" />
    <glyph glyph-name="yen" unicode="&#xa5;" horiz-adv-x="516" 
d="M500 686l-170 -287h128v-23h-142l-45 -76v-18h187v-23h-187v-259h-22v259h-191v23h191v18l-45 76h-146v23h132l-170 287h27l212 -359h2l213 359h26z" />
    <glyph glyph-name="brokenbar" unicode="&#xa6;" horiz-adv-x="241" 
d="M109 386v351h23v-351h-23zM109 -114v354h23v-354h-23z" />
    <glyph glyph-name="section" unicode="&#xa7;" horiz-adv-x="504" 
d="M354 115q82 -43 82 -119q0 -64 -49 -106t-132 -42q-122 0 -196 87l16 17q31 -39 79 -59.5t99 -20.5q68 0 114 32.5t46 90.5q0 20 -5 36t-19.5 29.5t-24 21.5t-36 19.5t-36.5 15.5t-44 16q-106 38 -139 61q-55 39 -55 100q0 46 28.5 81t78.5 48q-79 46 -79 120
q0 60 45 100t118 40q44 0 91 -16.5t81 -43.5l-16 -18q-32 26 -74.5 40.5t-79.5 14.5q-57 0 -99.5 -31t-42.5 -85q0 -29 12 -51t39.5 -39t47 -25.5t60.5 -23.5q98 -35 125 -52q61 -38 61 -107q0 -95 -96 -131zM78 295q0 -23 10.5 -42t22.5 -30.5t40.5 -26t45.5 -21t57 -20.5
q62 -22 71 -26q46 12 74 41.5t28 73.5q0 14 -2.5 26t-9 22.5t-11.5 18t-18 15.5t-19.5 13t-24.5 12t-25.5 10t-29.5 10.5t-29 10.5q-44 16 -66 26q-50 -8 -82 -37.5t-32 -75.5z" />
    <glyph glyph-name="dieresis" unicode="&#xa8;" horiz-adv-x="497" 
d="M175 593q-12 0 -20 8t-8 19q0 12 8 19.5t20 7.5q27 0 27 -27q0 -11 -7.5 -19t-19.5 -8zM322 593q-12 0 -20 8t-8 19q0 12 8 19.5t20 7.5q27 0 27 -27q0 -11 -7.5 -19t-19.5 -8z" />
    <glyph glyph-name="copyright" unicode="&#xa9;" horiz-adv-x="661" 
d="M331 30q-119 0 -202.5 85t-83.5 203t83.5 203t203.5 85q119 0 201.5 -84.5t82.5 -203.5q0 -117 -83 -202.5t-202 -85.5zM331 52q109 0 186 78.5t77 187.5t-76.5 187.5t-185.5 78.5q-110 0 -187.5 -78.5t-77.5 -187.5t77 -187.5t187 -78.5zM339 154q-69 0 -114 43t-45 118
q0 72 42 118.5t117 46.5t125 -61l-18 -14q-42 53 -107 53t-101 -39.5t-36 -103.5q0 -66 38.5 -102.5t98.5 -36.5q67 0 107 53l18 -15q-48 -60 -125 -60z" />
    <glyph glyph-name="ordfeminine" unicode="&#xaa;" horiz-adv-x="409" 
d="M328 687h23v-291h-23v67h-1q-39 -69 -124 -69q-63 0 -105 40.5t-42 104.5q0 63 41 106.5t106 43.5q39 0 72 -19t52 -53h1v70zM206 416q52 0 87.5 34.5t35.5 88.5t-34.5 91t-87.5 37q-55 0 -91.5 -35.5t-36.5 -92.5q0 -52 35 -87.5t92 -35.5z" />
    <glyph glyph-name="guillemotleft" unicode="&#xab;" horiz-adv-x="394" 
d="M199 13h-22l-130 231l130 229h22l-128 -229zM350 13h-22l-131 231l130 229h23l-129 -229z" />
    <glyph glyph-name="logicalnot" unicode="&#xac;" horiz-adv-x="571" 
d="M481 187v153h-413v22h435v-175h-22z" />
    <glyph glyph-name="registered" unicode="&#xae;" horiz-adv-x="661" 
d="M332 606q119 0 201.5 -84.5t82.5 -203.5q0 -117 -83 -202.5t-202 -85.5t-202.5 85t-83.5 203t83.5 203t203.5 85zM331 52q109 0 186 78.5t77 187.5t-76.5 187.5t-185.5 78.5q-110 0 -187.5 -78.5t-77.5 -187.5t77 -187.5t187 -78.5zM443 391q0 -83 -87 -93l101 -140h-27
l-100 139h-70v-139h-22v324h105q51 0 75.5 -25t24.5 -66zM260 460v-142h77q84 0 84 73q0 33 -20 51t-55 18h-86z" />
    <glyph glyph-name="macron" unicode="&#xaf;" horiz-adv-x="481" 
d="M107 606v23h267v-23h-267z" />
    <glyph glyph-name="degree" unicode="&#xb0;" horiz-adv-x="385" 
d="M192 452q-54 0 -93.5 38.5t-39.5 92.5q0 53 40 92t93 39q54 0 94 -39.5t40 -93.5q0 -53 -39.5 -91t-94.5 -38zM192 474q46 0 79.5 32t33.5 75q0 45 -34 78t-79 33q-44 0 -77.5 -32.5t-33.5 -76.5q0 -46 32.5 -77.5t78.5 -31.5z" />
    <glyph glyph-name="plusminus" unicode="&#xb1;" horiz-adv-x="569" 
d="M273 140v219h-219v22h219v220h22v-220h219v-22h-219v-219h-22zM54 0v22h460v-22h-460z" />
    <glyph glyph-name="uni00B2" unicode="&#xb2;" horiz-adv-x="324" 
 />
    <glyph glyph-name="uni00B3" unicode="&#xb3;" horiz-adv-x="327" 
 />
    <glyph glyph-name="acute" unicode="&#xb4;" horiz-adv-x="508" 
d="M193 548l123 135h31l-124 -135h-30z" />
    <glyph glyph-name="uni00B5" unicode="&#xb5;" horiz-adv-x="549" 
d="M447 484h22v-484h-20l-3 125h-2q-25 -60 -73 -94t-108 -34q-116 0 -160 100l-1 -1q0 -19 0.5 -57t0.5 -57v-180h-22v682h22v-265q0 -99 43 -149.5t117 -50.5q79 0 131.5 63t52.5 163v239z" />
    <glyph glyph-name="paragraph" unicode="&#xb6;" horiz-adv-x="356" 
d="M243 -148v754h-60v-606h-22v417q-52 0 -84 27.5t-32 77.5q0 51 30.5 79t83.5 28h106v-777h-22z" />
    <glyph glyph-name="periodcentered" unicode="&#xb7;" horiz-adv-x="153" 
d="M80 206q-13 0 -21 8t-8 21t8 20.5t21 7.5t21 -7.5t8 -20.5t-8 -21t-21 -8z" />
    <glyph glyph-name="cedilla" unicode="&#xb8;" horiz-adv-x="397" 
d="M187 -35q31 -2 55 -23t24 -54q0 -30 -22.5 -51t-62.5 -21q-27 0 -49 6v23q23 -7 45 -7q28 0 47 13t19 38q0 23 -21.5 40t-60.5 17l1 19l19 41h22l-17 -40z" />
    <glyph glyph-name="uni00B9" unicode="&#xb9;" horiz-adv-x="217" 
 />
    <glyph glyph-name="ordmasculine" unicode="&#xba;" horiz-adv-x="411" 
d="M206 393q-66 0 -108 42.5t-42 105.5t42 105.5t108 42.5q63 0 106 -41.5t43 -106.5t-43 -106.5t-106 -41.5zM206 416q54 0 90.5 35t36.5 90t-37 90.5t-90 35.5q-56 0 -91.5 -36.5t-35.5 -89.5q0 -52 35.5 -88.5t91.5 -36.5z" />
    <glyph glyph-name="guillemotright" unicode="&#xbb;" horiz-adv-x="394" 
d="M54 13l129 231l-129 229h23l130 -229l-131 -231h-22zM205 13l128 231l-128 229h22l130 -229l-130 -231h-22z" />
    <glyph glyph-name="onequarter" unicode="&#xbc;" horiz-adv-x="690" 
d="M173 -7l-21 7l305 717l20 -8zM129 299v381l-102 -69l-11 18l116 81h18v-411h-21zM576 0v77h-218v20l221 314h18v-313h69v-21h-69v-77h-21zM385 98h191v272z" />
    <glyph glyph-name="onehalf" unicode="&#xbd;" horiz-adv-x="716" 
d="M457 717l20 -8l-304 -716l-21 7zM16 629l116 81h18v-411h-21v381l-102 -69zM456 21h227v-21h-269l1 18l165 149q38 34 56.5 61.5t18.5 61.5q0 43 -30 73t-77 30q-34 0 -65.5 -18t-47.5 -50l-18 12q17 35 53.5 56.5t77.5 21.5q52 0 90.5 -34.5t38.5 -88.5q0 -37 -19 -69
t-60 -70l-142 -128v-4z" />
    <glyph glyph-name="threequarters" unicode="&#xbe;" horiz-adv-x="786" 
d="M553 717l20 -8l-304 -716l-21 7zM300 407q0 -49 -37.5 -80t-98.5 -31q-106 0 -145 74l20 10q33 -62 124 -62q54 0 84.5 24t30.5 70q0 38 -32.5 64t-87.5 26h-41v22h48q48 0 76 23.5t28 57.5q0 41 -29.5 64t-80.5 23q-73 0 -107 -49l-19 12q42 59 126 59q57 0 94 -28.5
t37 -78.5q0 -70 -70 -93v-2q39 -12 59.5 -39.5t20.5 -65.5zM693 98h69v-21h-69v-77h-21v77h-218v20l221 314h18v-313zM672 98v272l-191 -272h191z" />
    <glyph glyph-name="questiondown" unicode="&#xbf;" horiz-adv-x="383" 
d="M235 494q13 0 21 -8t8 -21t-8 -20.5t-21 -7.5t-21 7.5t-8 20.5t8 21t21 8zM248 308v-60q0 -12 -2.5 -24t-9 -24.5t-11.5 -21.5t-16.5 -22.5t-17.5 -20.5t-20.5 -22.5t-19.5 -21.5q-41 -44 -63.5 -83.5t-22.5 -88.5q0 -69 45.5 -110t109.5 -41q49 0 92 22.5t70 65.5
l16 -18q-64 -94 -178 -94q-80 0 -129.5 51t-49.5 124q0 38 15 75t32.5 59.5t46.5 53.5q4 5 19.5 21t20 21.5t16 19t15.5 20.5t10.5 18.5t8.5 21t2 19.5v60h21z" />
    <glyph glyph-name="Agrave" unicode="&#xc0;" horiz-adv-x="640" 
d="M331 801h-29l-124 135h30zM586 0l-82 211h-368l-82 -211h-25l275 710h29l278 -710h-25zM144 233h351l-175 449h-2z" />
    <glyph glyph-name="Aacute" unicode="&#xc1;" horiz-adv-x="640" 
d="M470 936l-124 -135h-30l123 135h31zM586 0l-82 211h-368l-82 -211h-25l275 710h29l278 -710h-25zM144 233h351l-175 449h-2z" />
    <glyph glyph-name="Acircumflex" unicode="&#xc2;" horiz-adv-x="640" 
d="M319 919l-106 -119h-29l122 136h25l125 -136h-29l-106 119h-2zM586 0l-82 211h-368l-82 -211h-25l275 710h29l278 -710h-25zM144 233h351l-175 449h-2z" />
    <glyph glyph-name="Atilde" unicode="&#xc3;" horiz-adv-x="640" 
d="M246 890q-42 0 -64 -61l-21 6q26 77 84 77q32 0 77 -31q4 -3 17 -12l19.5 -13.5t17.5 -8.5t20 -4q19 0 35 15.5t25 46.5l21 -7q-11 -38 -33 -57.5t-47 -19.5q-6 0 -12 1t-11 2.5t-12 5t-10.5 5.5t-11.5 7t-10.5 6.5t-10.5 7.5t-10 7q-38 27 -63 27zM586 0l-82 211h-368
l-82 -211h-25l275 710h29l278 -710h-25zM144 233h351l-175 449h-2z" />
    <glyph glyph-name="Adieresis" unicode="&#xc4;" horiz-adv-x="640" 
d="M246 846q-12 0 -20 8t-8 19q0 12 8 19.5t20 7.5q27 0 27 -27q0 -11 -7.5 -19t-19.5 -8zM393 846q-12 0 -20 8t-8 19q0 12 8 19.5t20 7.5q27 0 27 -27q0 -11 -7.5 -19t-19.5 -8zM586 0l-82 211h-368l-82 -211h-25l275 710h29l278 -710h-25zM144 233h351l-175 449h-2z" />
    <glyph glyph-name="Aring" unicode="&#xc5;" horiz-adv-x="640" 
d="M320 795q-29 0 -51 22t-22 51q0 30 22 51.5t51 21.5q30 0 52 -21.5t22 -51.5q0 -29 -22 -51t-52 -22zM320 919q-21 0 -36 -15t-15 -36q0 -20 15 -35t36 -15t36.5 15t15.5 35q0 21 -15.5 36t-36.5 15zM586 0l-82 211h-368l-82 -211h-25l275 710h29l278 -710h-25zM144 233
h351l-175 449h-2z" />
    <glyph glyph-name="AE" unicode="&#xc6;" horiz-adv-x="907" 
d="M456 23h409v-23h-432v211h-277l-123 -211h-28l413 710h427v-22h-389v-322h330v-23h-330v-320zM168 233h265v453h-1z" />
    <glyph glyph-name="Ccedilla" unicode="&#xc7;" horiz-adv-x="714" 
d="M408 20q152 0 252 125l19 -15q-107 -133 -271 -133h-6l-13 -31l1 -1q31 -2 55 -23t24 -54q0 -30 -22.5 -51t-62.5 -21q-26 0 -49 6v23q23 -7 45 -7q28 0 47 13t19 38q0 23 -21.5 40t-60.5 17l1 19l15 33q-139 9 -228.5 102.5t-89.5 251.5q0 157 91.5 259.5t254.5 102.5
t271 -134l-19 -16q-99 126 -252 126t-238 -95t-85 -243q0 -156 91.5 -244t231.5 -88z" />
    <glyph glyph-name="Egrave" unicode="&#xc8;" horiz-adv-x="565" 
d="M323 801l-124 135h30l123 -135h-29zM89 0v710h412v-22h-389v-321h327v-23h-327v-321h410v-23h-433z" />
    <glyph glyph-name="Eacute" unicode="&#xc9;" horiz-adv-x="565" 
d="M216 801l123 135h31l-124 -135h-30zM89 0v710h412v-22h-389v-321h327v-23h-327v-321h410v-23h-433z" />
    <glyph glyph-name="Ecircumflex" unicode="&#xca;" horiz-adv-x="565" 
d="M285 919l-106 -119h-29l122 136h25l125 -136h-29l-106 119h-2zM112 23h410v-23h-433v710h412v-22h-389v-321h327v-23h-327v-321z" />
    <glyph glyph-name="Edieresis" unicode="&#xcb;" horiz-adv-x="565" 
d="M212 846q-12 0 -20 8t-8 19q0 12 8 19.5t20 7.5q27 0 27 -27q0 -11 -7.5 -19t-19.5 -8zM359 846q-12 0 -20 8t-8 19q0 12 8 19.5t20 7.5q27 0 27 -27q0 -11 -7.5 -19t-19.5 -8zM89 0v710h412v-22h-389v-321h327v-23h-327v-321h410v-23h-433z" />
    <glyph glyph-name="Igrave" unicode="&#xcc;" horiz-adv-x="215" 
d="M90 801l-124 135h30l123 -135h-29zM96 0v710h23v-710h-23z" />
    <glyph glyph-name="Iacute" unicode="&#xcd;" horiz-adv-x="215" 
d="M103 801l123 135h31l-124 -135h-30zM96 0v710h23v-710h-23z" />
    <glyph glyph-name="Icircumflex" unicode="&#xce;" horiz-adv-x="215" 
d="M119 936l125 -136h-29l-106 119h-2l-106 -119h-29l122 136h25zM96 0v710h23v-710h-23z" />
    <glyph glyph-name="Idieresis" unicode="&#xcf;" horiz-adv-x="215" 
d="M34 846q-12 0 -20 8t-8 19q0 12 8 19.5t20 7.5q27 0 27 -27q0 -11 -7.5 -19t-19.5 -8zM181 846q-12 0 -20 8t-8 19q0 12 8 19.5t20 7.5q27 0 27 -27q0 -11 -7.5 -19t-19.5 -8zM96 0v710h23v-710h-23z" />
    <glyph glyph-name="Eth" unicode="&#xd0;" horiz-adv-x="706" 
d="M276 710q167 0 268 -98.5t101 -257.5t-100 -256.5t-266 -97.5h-190v439h-86v23h86v248h187zM277 23q156 0 250 92t94 239q0 149 -94 241.5t-251 92.5h-164v-226h179v-23h-179v-416h165z" />
    <glyph glyph-name="Ntilde" unicode="&#xd1;" horiz-adv-x="728" 
d="M290 890q-42 0 -64 -61l-21 6q26 77 84 77q32 0 77 -31q4 -3 17 -12l19.5 -13.5t17.5 -8.5t20 -4q19 0 35 15.5t25 46.5l21 -7q-11 -38 -33 -57.5t-47 -19.5q-6 0 -12 1t-11 2.5t-12 5t-10.5 5.5t-11.5 7t-10.5 6.5t-10.5 7.5t-10 7q-38 27 -63 27zM615 710h23v-710h-23
l-502 669h-1v-669h-23v710h22l503 -670h1v670z" />
    <glyph glyph-name="Ograve" unicode="&#xd2;" horiz-adv-x="822" 
d="M413 801l-124 135h30l123 -135h-29zM412 -3q-155 0 -252.5 103.5t-97.5 255.5q0 151 98 254.5t252 103.5q146 0 247 -100t101 -258q0 -159 -100.5 -259t-247.5 -100zM412 20q137 0 231 94t94 242t-94 241t-231 93q-144 0 -235.5 -96.5t-91.5 -237.5q0 -142 91.5 -239
t235.5 -97z" />
    <glyph glyph-name="Oacute" unicode="&#xd3;" horiz-adv-x="822" 
d="M405 801l123 135h31l-124 -135h-30zM412 -3q-155 0 -252.5 103.5t-97.5 255.5q0 151 98 254.5t252 103.5q146 0 247 -100t101 -258q0 -159 -100.5 -259t-247.5 -100zM412 20q137 0 231 94t94 242t-94 241t-231 93q-144 0 -235.5 -96.5t-91.5 -237.5q0 -142 91.5 -239
t235.5 -97z" />
    <glyph glyph-name="Ocircumflex" unicode="&#xd4;" horiz-adv-x="822" 
d="M411 919l-106 -119h-29l122 136h25l125 -136h-29l-106 119h-2zM412 714q146 0 247 -100t101 -258q0 -159 -100.5 -259t-247.5 -100q-155 0 -252.5 103.5t-97.5 255.5q0 151 98 254.5t252 103.5zM412 20q137 0 231 94t94 242t-94 241t-231 93q-144 0 -235.5 -96.5
t-91.5 -237.5q0 -142 91.5 -239t235.5 -97z" />
    <glyph glyph-name="Otilde" unicode="&#xd5;" horiz-adv-x="822" 
d="M489 821q-6 0 -12 1t-11 2.5t-12 5t-10.5 5.5t-11.5 7t-10.5 6.5t-10.5 7.5t-10 7q-38 27 -63 27q-42 0 -64 -61l-21 6q26 77 84 77q32 0 77 -31q4 -3 17 -12l19.5 -13.5t17.5 -8.5t20 -4q19 0 35 15.5t25 46.5l21 -7q-11 -38 -33 -57.5t-47 -19.5zM412 -3
q-155 0 -252.5 103.5t-97.5 255.5q0 151 98 254.5t252 103.5q146 0 247 -100t101 -258q0 -159 -100.5 -259t-247.5 -100zM412 20q137 0 231 94t94 242t-94 241t-231 93q-144 0 -235.5 -96.5t-91.5 -237.5q0 -142 91.5 -239t235.5 -97z" />
    <glyph glyph-name="Odieresis" unicode="&#xd6;" horiz-adv-x="822" 
d="M338 846q-12 0 -20 8t-8 19q0 12 8 19.5t20 7.5q27 0 27 -27q0 -11 -7.5 -19t-19.5 -8zM485 846q-12 0 -20 8t-8 19q0 12 8 19.5t20 7.5q27 0 27 -27q0 -11 -7.5 -19t-19.5 -8zM412 -3q-155 0 -252.5 103.5t-97.5 255.5q0 151 98 254.5t252 103.5q146 0 247 -100
t101 -258q0 -159 -100.5 -259t-247.5 -100zM412 20q137 0 231 94t94 242t-94 241t-231 93q-144 0 -235.5 -96.5t-91.5 -237.5q0 -142 91.5 -239t235.5 -97z" />
    <glyph glyph-name="multiply" unicode="&#xd7;" horiz-adv-x="479" 
d="M75 97l-16 15l164 164l-164 164l16 16l163 -164l165 164l16 -15l-165 -165l164 -164l-16 -15l-164 163z" />
    <glyph glyph-name="Oslash" unicode="&#xd8;" horiz-adv-x="822" 
d="M664 609q96 -101 96 -253q0 -159 -100.5 -259t-247.5 -100q-141 0 -237 88l-89 -95l-19 16l91 97q-96 101 -96 253q0 151 98 254.5t252 103.5q139 0 236 -89l81 86l17 -15zM85 356q0 -142 89 -236l458 487q-91 83 -220 83q-144 0 -235.5 -96.5t-91.5 -237.5zM412 20
q137 0 231 94t94 242q0 141 -89 235l-457 -488q89 -83 221 -83z" />
    <glyph glyph-name="Ugrave" unicode="&#xd9;" horiz-adv-x="682" 
d="M357 801l-124 135h30l123 -135h-29zM341 -3q-117 0 -188.5 77t-71.5 209v427h23v-427q0 -123 65 -193t172 -70t172.5 70t65.5 193v427h23v-427q0 -132 -72 -209t-189 -77z" />
    <glyph glyph-name="Uacute" unicode="&#xda;" horiz-adv-x="682" 
d="M308 801l123 135h31l-124 -135h-30zM341 -3q-117 0 -188.5 77t-71.5 209v427h23v-427q0 -123 65 -193t172 -70t172.5 70t65.5 193v427h23v-427q0 -132 -72 -209t-189 -77z" />
    <glyph glyph-name="Ucircumflex" unicode="&#xdb;" horiz-adv-x="682" 
d="M341 919l-106 -119h-29l122 136h25l125 -136h-29l-106 119h-2zM579 710h23v-427q0 -132 -72 -209t-189 -77t-188.5 77t-71.5 209v427h23v-427q0 -123 65 -193t172 -70t172.5 70t65.5 193v427z" />
    <glyph glyph-name="Udieresis" unicode="&#xdc;" horiz-adv-x="682" 
d="M268 846q-12 0 -20 8t-8 19q0 12 8 19.5t20 7.5q27 0 27 -27q0 -11 -7.5 -19t-19.5 -8zM415 846q-12 0 -20 8t-8 19q0 12 8 19.5t20 7.5q27 0 27 -27q0 -11 -7.5 -19t-19.5 -8zM341 -3q-117 0 -188.5 77t-71.5 209v427h23v-427q0 -123 65 -193t172 -70t172.5 70t65.5 193
v427h23v-427q0 -132 -72 -209t-189 -77z" />
    <glyph glyph-name="Yacute" unicode="&#xdd;" horiz-adv-x="556" 
d="M427 936l-124 -135h-30l123 135h31zM510 710h28l-249 -387v-323h-23v323l-248 387h28l230 -360h2z" />
    <glyph glyph-name="Thorn" unicode="&#xde;" horiz-adv-x="599" 
d="M89 0v710h23v-158h227q114 0 167 -54t53 -146q0 -104 -64 -154.5t-174 -50.5h-209v-147h-23zM112 170h214q107 0 158 50t51 133q0 88 -51 132t-139 44h-233v-359z" />
    <glyph glyph-name="germandbls" unicode="&#xdf;" horiz-adv-x="586" 
d="M389 434q73 -23 115.5 -83t42.5 -132q0 -100 -64.5 -161t-161.5 -61h-116v22h116q89 0 146.5 54.5t57.5 145.5q0 83 -58.5 143.5t-155.5 60.5h-68v23h66q51 1 86.5 14.5t51.5 35t22.5 41t6.5 40.5q0 68 -47 104.5t-133 36.5q-90 0 -141.5 -53.5t-51.5 -161.5v-503h-22
v503q0 118 57.5 177.5t157.5 59.5q95 0 149 -43t54 -120q0 -18 -4.5 -36.5t-15.5 -39.5t-34.5 -39t-55.5 -27v-1z" />
    <glyph glyph-name="agrave" unicode="&#xe0;" horiz-adv-x="591" 
d="M340 561h-29l-124 135h30zM495 484h22v-484h-22v133h-1q-27 -62 -82 -99t-127 -37q-101 0 -170.5 67t-69.5 173t67.5 178.5t173.5 72.5q68 0 123.5 -37.5t83.5 -101.5h2v135zM285 19q89 0 149.5 61t60.5 157t-58.5 162t-150.5 66t-155 -63.5t-63 -164.5q0 -92 60.5 -155
t156.5 -63z" />
    <glyph glyph-name="aacute" unicode="&#xe1;" horiz-adv-x="591" 
d="M443 696l-124 -135h-30l123 135h31zM495 484h22v-484h-22v133h-1q-27 -62 -82 -99t-127 -37q-101 0 -170.5 67t-69.5 173t67.5 178.5t173.5 72.5q68 0 123.5 -37.5t83.5 -101.5h2v135zM285 19q89 0 149.5 61t60.5 157t-58.5 162t-150.5 66t-155 -63.5t-63 -164.5
q0 -92 60.5 -155t156.5 -63z" />
    <glyph glyph-name="acircumflex" unicode="&#xe2;" horiz-adv-x="591" 
d="M286 679l-106 -119h-29l122 136h25l125 -136h-29l-106 119h-2zM495 484h22v-484h-22v133h-1q-27 -62 -82 -99t-127 -37q-101 0 -170.5 67t-69.5 173t67.5 178.5t173.5 72.5q68 0 123.5 -37.5t83.5 -101.5h2v135zM285 19q89 0 149.5 61t60.5 157t-58.5 162t-150.5 66
t-155 -63.5t-63 -164.5q0 -92 60.5 -155t156.5 -63z" />
    <glyph glyph-name="atilde" unicode="&#xe3;" horiz-adv-x="591" 
d="M213 650q-42 0 -64 -61l-21 6q26 77 84 77q32 0 77 -31q4 -3 17 -12l19.5 -13.5t17.5 -8.5t20 -4q19 0 35 15.5t25 46.5l21 -7q-11 -38 -33 -57.5t-47 -19.5q-6 0 -12 1t-11 2.5t-12 5t-10.5 5.5t-11.5 7t-10.5 6.5t-10.5 7.5t-10 7q-38 27 -63 27zM495 484h22v-484h-22
v133h-1q-27 -62 -82 -99t-127 -37q-101 0 -170.5 67t-69.5 173t67.5 178.5t173.5 72.5q68 0 123.5 -37.5t83.5 -101.5h2v135zM285 19q89 0 149.5 61t60.5 157t-58.5 162t-150.5 66t-155 -63.5t-63 -164.5q0 -92 60.5 -155t156.5 -63z" />
    <glyph glyph-name="adieresis" unicode="&#xe4;" horiz-adv-x="591" 
d="M213 606q-12 0 -20 8t-8 19q0 12 8 19.5t20 7.5q27 0 27 -27q0 -11 -7.5 -19t-19.5 -8zM360 606q-12 0 -20 8t-8 19q0 12 8 19.5t20 7.5q27 0 27 -27q0 -11 -7.5 -19t-19.5 -8zM495 484h22v-484h-22v133h-1q-27 -62 -82 -99t-127 -37q-101 0 -170.5 67t-69.5 173
t67.5 178.5t173.5 72.5q68 0 123.5 -37.5t83.5 -101.5h2v135zM285 19q89 0 149.5 61t60.5 157t-58.5 162t-150.5 66t-155 -63.5t-63 -164.5q0 -92 60.5 -155t156.5 -63z" />
    <glyph glyph-name="aring" unicode="&#xe5;" horiz-adv-x="591" 
d="M287 555q-29 0 -51 22t-22 51q0 30 22 51.5t51 21.5q30 0 52 -21.5t22 -51.5q0 -29 -22 -51t-52 -22zM287 679q-21 0 -36 -15t-15 -36q0 -20 15 -35t36 -15t36.5 15t15.5 35q0 21 -15.5 36t-36.5 15zM495 484h22v-484h-22v133h-1q-27 -62 -82 -99t-127 -37
q-101 0 -170.5 67t-69.5 173t67.5 178.5t173.5 72.5q68 0 123.5 -37.5t83.5 -101.5h2v135zM285 19q89 0 149.5 61t60.5 157t-58.5 162t-150.5 66t-155 -63.5t-63 -164.5q0 -92 60.5 -155t156.5 -63z" />
    <glyph glyph-name="ae" unicode="&#xe6;" horiz-adv-x="792" 
d="M758 243h-376l-1 -18q5 -90 56 -148t124 -58q95 0 158 81l17 -13q-68 -90 -173 -90q-62 0 -112.5 39t-73.5 104h-1q-15 -66 -67.5 -104.5t-123.5 -38.5t-109.5 39.5t-38.5 97.5q0 57 42 93.5t121 36.5l160 1v24q0 97 -25.5 136.5t-91.5 39.5q-80 0 -153 -42l-11 19
q77 46 164 46q66 0 97.5 -33.5t38.5 -102.5h1q24 63 73.5 99.5t112.5 36.5q82 0 137 -66.5t55 -167.5v-11zM566 465q-75 0 -126 -56.5t-58 -143.5h353q-6 91 -52.5 145.5t-116.5 54.5zM185 19q74 0 124.5 46t50.5 129v49l-160 -1q-59 0 -99.5 -28t-40.5 -80
q0 -48 32.5 -81.5t92.5 -33.5z" />
    <glyph glyph-name="ccedilla" unicode="&#xe7;" horiz-adv-x="499" 
d="M275 -3l-13 -31l1 -1q31 -2 55 -23t24 -54q0 -30 -22.5 -51t-62.5 -21q-27 0 -49 6v23q23 -7 45 -7q28 0 47 13t19 38q0 23 -21.5 40t-60.5 17l1 19l15 33q-93 8 -149.5 75.5t-56.5 168.5q0 108 64.5 177t167.5 69q111 0 180 -77l-17 -17q-59 71 -163 71
q-93 0 -151.5 -62.5t-58.5 -160.5q0 -99 58 -161t151 -62q48 0 93.5 18.5t74.5 51.5l15 -17q-32 -34 -80.5 -54.5t-102.5 -20.5h-3z" />
    <glyph glyph-name="egrave" unicode="&#xe8;" 
d="M326 561h-29l-124 135h30zM488 243h-418v-1q0 -97 58 -160t149 -63q111 0 174 81l17 -13q-68 -90 -189 -90q-102 0 -167 69.5t-65 175.5q0 105 66 175.5t164 70.5q94 0 153 -65.5t59 -165.5zM277 465q-82 0 -140 -56.5t-66 -143.5h395q-5 91 -56.5 145.5t-132.5 54.5z
" />
    <glyph glyph-name="eacute" unicode="&#xe9;" 
d="M415 696l-124 -135h-30l123 135h31zM488 243h-418v-1q0 -97 58 -160t149 -63q111 0 174 81l17 -13q-68 -90 -189 -90q-102 0 -167 69.5t-65 175.5q0 105 66 175.5t164 70.5q94 0 153 -65.5t59 -165.5zM277 465q-82 0 -140 -56.5t-66 -143.5h395q-5 91 -56.5 145.5
t-132.5 54.5z" />
    <glyph glyph-name="ecircumflex" unicode="&#xea;" 
d="M277 679l-106 -119h-29l122 136h25l125 -136h-29l-106 119h-2zM488 243h-418v-1q0 -97 58 -160t149 -63q111 0 174 81l17 -13q-68 -90 -189 -90q-102 0 -167 69.5t-65 175.5q0 105 66 175.5t164 70.5q94 0 153 -65.5t59 -165.5zM277 465q-82 0 -140 -56.5t-66 -143.5h395
q-5 91 -56.5 145.5t-132.5 54.5z" />
    <glyph glyph-name="edieresis" unicode="&#xeb;" 
d="M204 606q-12 0 -20 8t-8 19q0 12 8 19.5t20 7.5q27 0 27 -27q0 -11 -7.5 -19t-19.5 -8zM351 606q-12 0 -20 8t-8 19q0 12 8 19.5t20 7.5q27 0 27 -27q0 -11 -7.5 -19t-19.5 -8zM488 243h-418v-1q0 -97 58 -160t149 -63q111 0 174 81l17 -13q-68 -90 -189 -90
q-102 0 -167 69.5t-65 175.5q0 105 66 175.5t164 70.5q94 0 153 -65.5t59 -165.5zM277 465q-82 0 -140 -56.5t-66 -143.5h395q-5 91 -56.5 145.5t-132.5 54.5z" />
    <glyph glyph-name="igrave" unicode="&#xec;" horiz-adv-x="195" 
d="M81 561l-90 135h29l88 -135h-27zM86 0v484h22v-484h-22z" />
    <glyph glyph-name="iacute" unicode="&#xed;" horiz-adv-x="195" 
d="M88 561l123 135h31l-124 -135h-30zM86 0v484h22v-484h-22z" />
    <glyph glyph-name="icircumflex" unicode="&#xee;" horiz-adv-x="195" 
d="M109 696l125 -136h-29l-106 119h-2l-106 -119h-29l122 136h25zM86 0v484h22v-484h-22z" />
    <glyph glyph-name="idieresis" unicode="&#xef;" horiz-adv-x="195" 
d="M24 606q-12 0 -20 8t-8 19q0 12 8 19.5t20 7.5q27 0 27 -27q0 -11 -7.5 -19t-19.5 -8zM171 606q-12 0 -20 8t-8 19q0 12 8 19.5t20 7.5q27 0 27 -27q0 -11 -7.5 -19t-19.5 -8zM86 0v484h22v-484h-22z" />
    <glyph glyph-name="eth" unicode="&#xf0;" horiz-adv-x="580" 
d="M532 245v-3q0 -103 -67.5 -174t-174.5 -71q-103 0 -173 68.5t-70 176.5q0 102 68.5 174t174.5 72q120 0 190 -91q1 -1 2.5 -3t3 -4.5t2.5 -3.5l1 1q-52 168 -202 271l-87 -67l-15 16l81 63v2q-51 30 -100 47l6 20q53 -17 113 -54l71 56l15 -17l-67 -52q104 -72 166 -184
t62 -243zM290 19q96 0 157.5 64.5t61.5 158.5q0 98 -63.5 160.5t-155.5 62.5q-97 0 -158.5 -64.5t-61.5 -158.5q0 -99 63.5 -161t156.5 -62z" />
    <glyph glyph-name="ntilde" unicode="&#xf1;" horiz-adv-x="543" 
d="M208 650q-42 0 -64 -61l-21 6q26 77 84 77q32 0 77 -31q4 -3 17 -12l19.5 -13.5t17.5 -8.5t20 -4q19 0 35 15.5t25 46.5l21 -7q-11 -38 -33 -57.5t-47 -19.5q-6 0 -12 1t-11 2.5t-12 5t-10.5 5.5t-11.5 7t-10.5 6.5t-10.5 7.5t-10 7q-38 27 -63 27zM306 488
q77 0 122 -51.5t45 -144.5v-292h-22v281q0 95 -40 139.5t-105 44.5q-92 0 -147.5 -62t-55.5 -164v-239h-22v484h22v-129h1q26 63 78.5 98t123.5 35z" />
    <glyph glyph-name="ograve" unicode="&#xf2;" horiz-adv-x="579" 
d="M304 561l-124 135h30l123 -135h-29zM290 -3q-107 0 -175 71t-68 174q0 102 68.5 174t174.5 72q102 0 172 -69t70 -177t-70 -176.5t-172 -68.5zM290 19q93 0 156 62.5t63 160.5t-63.5 160.5t-155.5 62.5q-98 0 -159.5 -64.5t-61.5 -158.5t61.5 -158.5t159.5 -64.5z" />
    <glyph glyph-name="oacute" unicode="&#xf3;" horiz-adv-x="579" 
d="M274 561l123 135h31l-124 -135h-30zM290 -3q-107 0 -175 71t-68 174q0 102 68.5 174t174.5 72q102 0 172 -69t70 -177t-70 -176.5t-172 -68.5zM290 19q93 0 156 62.5t63 160.5t-63.5 160.5t-155.5 62.5q-98 0 -159.5 -64.5t-61.5 -158.5t61.5 -158.5t159.5 -64.5z" />
    <glyph glyph-name="ocircumflex" unicode="&#xf4;" horiz-adv-x="579" 
d="M290 679l-106 -119h-29l122 136h25l125 -136h-29l-106 119h-2zM290 488q102 0 172 -69t70 -177t-70 -176.5t-172 -68.5q-107 0 -175 71t-68 174q0 102 68.5 174t174.5 72zM290 19q93 0 156 62.5t63 160.5t-63.5 160.5t-155.5 62.5q-98 0 -159.5 -64.5t-61.5 -158.5
t61.5 -158.5t159.5 -64.5z" />
    <glyph glyph-name="otilde" unicode="&#xf5;" horiz-adv-x="579" 
d="M368 581q-6 0 -12 1t-11 2.5t-12 5t-10.5 5.5t-11.5 7t-10.5 6.5t-10.5 7.5t-10 7q-38 27 -63 27q-42 0 -64 -61l-21 6q26 77 84 77q32 0 77 -31q4 -3 17 -12l19.5 -13.5t17.5 -8.5t20 -4q19 0 35 15.5t25 46.5l21 -7q-11 -38 -33 -57.5t-47 -19.5zM290 -3
q-107 0 -175 71t-68 174q0 102 68.5 174t174.5 72q102 0 172 -69t70 -177t-70 -176.5t-172 -68.5zM290 19q93 0 156 62.5t63 160.5t-63.5 160.5t-155.5 62.5q-98 0 -159.5 -64.5t-61.5 -158.5t61.5 -158.5t159.5 -64.5z" />
    <glyph glyph-name="odieresis" unicode="&#xf6;" horiz-adv-x="579" 
d="M217 606q-12 0 -20 8t-8 19q0 12 8 19.5t20 7.5q27 0 27 -27q0 -11 -7.5 -19t-19.5 -8zM364 606q-12 0 -20 8t-8 19q0 12 8 19.5t20 7.5q27 0 27 -27q0 -11 -7.5 -19t-19.5 -8zM290 -3q-107 0 -175 71t-68 174q0 102 68.5 174t174.5 72q102 0 172 -69t70 -177t-70 -176.5
t-172 -68.5zM290 19q93 0 156 62.5t63 160.5t-63.5 160.5t-155.5 62.5q-98 0 -159.5 -64.5t-61.5 -158.5t61.5 -158.5t159.5 -64.5z" />
    <glyph glyph-name="divide" unicode="&#xf7;" horiz-adv-x="587" 
d="M286 441q-12 0 -20 8t-8 19q0 12 8 19.5t20 7.5q27 0 27 -27q0 -11 -7.5 -19t-19.5 -8zM64 265v22h460v-22h-460zM286 57q-12 0 -20 8t-8 19q0 12 8 19.5t20 7.5q27 0 27 -27q0 -11 -7.5 -19t-19.5 -8z" />
    <glyph glyph-name="oslash" unicode="&#xf8;" horiz-adv-x="579" 
d="M532 477l-63 -66q63 -69 63 -169q0 -108 -70 -176.5t-172 -68.5q-93 0 -160 57l-61 -64l-19 16l62 65q-65 71 -65 171q0 102 68.5 174t174.5 72q94 0 163 -60l61 64zM69 242q0 -92 58 -155l310 324q-62 54 -147 54q-98 0 -159.5 -64.5t-61.5 -158.5zM509 242
q0 91 -56 152l-308 -324q59 -51 145 -51q93 0 156 62.5t63 160.5z" />
    <glyph glyph-name="ugrave" unicode="&#xf9;" 
d="M313 561h-29l-124 135h30zM436 484h22v-484h-22v128h-1q-25 -61 -73.5 -96t-109.5 -35q-88 0 -135.5 57t-47.5 154v276h22v-265q0 -99 43 -149.5t118 -50.5q79 0 131.5 63t52.5 163v239z" />
    <glyph glyph-name="uacute" unicode="&#xfa;" 
d="M395 696l-124 -135h-30l123 135h31zM436 484h22v-484h-22v128h-1q-25 -61 -73.5 -96t-109.5 -35q-88 0 -135.5 57t-47.5 154v276h22v-265q0 -99 43 -149.5t118 -50.5q79 0 131.5 63t52.5 163v239z" />
    <glyph glyph-name="ucircumflex" unicode="&#xfb;" 
d="M262 679l-106 -119h-29l122 136h25l125 -136h-29l-106 119h-2zM436 484h22v-484h-22v128h-1q-25 -61 -73.5 -96t-109.5 -35q-88 0 -135.5 57t-47.5 154v276h22v-265q0 -99 43 -149.5t118 -50.5q79 0 131.5 63t52.5 163v239z" />
    <glyph glyph-name="udieresis" unicode="&#xfc;" 
d="M189 606q-12 0 -20 8t-8 19q0 12 8 19.5t20 7.5q27 0 27 -27q0 -11 -7.5 -19t-19.5 -8zM336 606q-12 0 -20 8t-8 19q0 12 8 19.5t20 7.5q27 0 27 -27q0 -11 -7.5 -19t-19.5 -8zM436 484h22v-484h-22v128h-1q-25 -61 -73.5 -96t-109.5 -35q-88 0 -135.5 57t-47.5 154v276
h22v-265q0 -99 43 -149.5t118 -50.5q79 0 131.5 63t52.5 163v239z" />
    <glyph glyph-name="yacute" unicode="&#xfd;" horiz-adv-x="506" 
d="M383 696l-124 -135h-30l123 135h31zM450 484h27l-290 -682h-25l86 203l-221 479h27l204 -449h2z" />
    <glyph glyph-name="thorn" unicode="&#xfe;" horiz-adv-x="600" 
d="M312 488q106 0 173 -72.5t67 -178.5t-69 -173t-170 -67q-72 0 -127 36.5t-82 98.5h-1v-330h-22v934h22v-387h2q27 64 82.5 101.5t124.5 37.5zM313 19q96 0 156.5 63t60.5 155q0 101 -63 164.5t-155 63.5q-93 0 -151 -65.5t-58 -162.5q0 -96 60.5 -157t149.5 -61z" />
    <glyph glyph-name="ydieresis" unicode="&#xff;" horiz-adv-x="506" 
d="M181 606q-12 0 -20 8t-8 19q0 12 8 19.5t20 7.5q27 0 27 -27q0 -11 -7.5 -19t-19.5 -8zM328 606q-12 0 -20 8t-8 19q0 12 8 19.5t20 7.5q27 0 27 -27q0 -11 -7.5 -19t-19.5 -8zM450 484h27l-290 -682h-25l86 203l-221 479h27l204 -449h2z" />
    <glyph glyph-name="Amacron" unicode="&#x100;" horiz-adv-x="640" 
d="M454 882v-23h-267v23h267zM586 0l-82 211h-368l-82 -211h-25l275 710h29l278 -710h-25zM144 233h351l-175 449h-2z" />
    <glyph glyph-name="amacron" unicode="&#x101;" horiz-adv-x="591" 
d="M421 642v-23h-267v23h267zM495 484h22v-484h-22v133h-1q-27 -62 -82 -99t-127 -37q-101 0 -170.5 67t-69.5 173t67.5 178.5t173.5 72.5q68 0 123.5 -37.5t83.5 -101.5h2v135zM285 19q89 0 149.5 61t60.5 157t-58.5 162t-150.5 66t-155 -63.5t-63 -164.5q0 -92 60.5 -155
t156.5 -63z" />
    <glyph glyph-name="Abreve" unicode="&#x102;" horiz-adv-x="640" 
d="M320 801q-49 0 -83.5 33.5t-38.5 93.5h21q3 -47 30 -76t71 -29q45 0 71.5 29.5t28.5 75.5h22q-4 -60 -38.5 -93.5t-83.5 -33.5zM586 0l-82 211h-368l-82 -211h-25l275 710h29l278 -710h-25zM144 233h351l-175 449h-2z" />
    <glyph glyph-name="abreve" unicode="&#x103;" horiz-adv-x="591" 
d="M287 561q-49 0 -83.5 33.5t-38.5 93.5h21q3 -47 30 -76t71 -29q45 0 71.5 29.5t28.5 75.5h22q-4 -60 -38.5 -93.5t-83.5 -33.5zM495 484h22v-484h-22v133h-1q-27 -62 -82 -99t-127 -37q-101 0 -170.5 67t-69.5 173t67.5 178.5t173.5 72.5q68 0 123.5 -37.5t83.5 -101.5h2
v135zM285 19q89 0 149.5 61t60.5 157t-58.5 162t-150.5 66t-155 -63.5t-63 -164.5q0 -92 60.5 -155t156.5 -63z" />
    <glyph glyph-name="Aogonek" unicode="&#x104;" horiz-adv-x="640" 
d="M652 -145l4 -23q-26 -13 -63 -13q-39 0 -61.5 19.5t-22.5 56.5q0 63 75 111l-80 205h-368l-82 -211h-25l275 710h29l278 -710q-36 -19 -57.5 -47t-21.5 -57q0 -54 61 -54q33 0 59 13zM144 233h351l-175 449h-2z" />
    <glyph glyph-name="aogonek" unicode="&#x105;" horiz-adv-x="591" 
d="M558 -145l4 -23q-26 -13 -63 -13q-39 0 -61.5 19.5t-22.5 56.5q0 29 21 60t59 55v123h-1q-27 -62 -82 -99t-127 -37q-101 0 -170.5 67t-69.5 173t67.5 178.5t173.5 72.5q68 0 123.5 -37.5t83.5 -101.5h2v135h22v-484q-36 -19 -57.5 -47t-21.5 -57q0 -54 61 -54
q33 0 59 13zM285 19q89 0 149.5 61t60.5 157t-58.5 162t-150.5 66t-155 -63.5t-63 -164.5q0 -92 60.5 -155t156.5 -63z" />
    <glyph glyph-name="Cacute" unicode="&#x106;" horiz-adv-x="714" 
d="M380 801l123 135h31l-124 -135h-30zM408 -3q-149 0 -247.5 94.5t-98.5 260.5q0 157 91.5 259.5t254.5 102.5t271 -134l-19 -16q-99 126 -252 126t-238 -95t-85 -243q0 -156 91.5 -244t231.5 -88q152 0 252 125l19 -15q-107 -133 -271 -133z" />
    <glyph glyph-name="cacute" unicode="&#x107;" horiz-adv-x="499" 
d="M261 561l123 135h31l-124 -135h-30zM278 -3q-103 0 -167 68.5t-64 176.5t64.5 177t167.5 69q111 0 180 -77l-17 -17q-59 71 -163 71q-93 0 -151.5 -62.5t-58.5 -160.5q0 -99 58 -161t151 -62q48 0 93.5 18.5t74.5 51.5l15 -17q-32 -34 -80.5 -54.5t-102.5 -20.5z" />
    <glyph glyph-name="Ccircumflex" unicode="&#x108;" horiz-adv-x="714" 
d="M407 919l-106 -119h-29l122 136h25l125 -136h-29l-106 119h-2zM408 20q152 0 252 125l19 -15q-107 -133 -271 -133q-149 0 -247.5 94.5t-98.5 260.5q0 157 91.5 259.5t254.5 102.5t271 -134l-19 -16q-99 126 -252 126t-238 -95t-85 -243q0 -156 91.5 -244t231.5 -88z" />
    <glyph glyph-name="ccircumflex" unicode="&#x109;" horiz-adv-x="499" 
d="M272 679l-106 -119h-29l122 136h25l125 -136h-29l-106 119h-2zM446 89l15 -17q-32 -34 -80.5 -54.5t-102.5 -20.5q-103 0 -167 68.5t-64 176.5t64.5 177t167.5 69q111 0 180 -77l-17 -17q-59 71 -163 71q-93 0 -151.5 -62.5t-58.5 -160.5q0 -99 58 -161t151 -62
q48 0 93.5 18.5t74.5 51.5z" />
    <glyph glyph-name="Cdotaccent" unicode="&#x10a;" horiz-adv-x="714" 
d="M408 846q-12 0 -20 8t-8 19q0 12 8 19.5t20 7.5q27 0 27 -27q0 -11 -7.5 -19t-19.5 -8zM408 -3q-149 0 -247.5 94.5t-98.5 260.5q0 157 91.5 259.5t254.5 102.5t271 -134l-19 -16q-99 126 -252 126t-238 -95t-85 -243q0 -156 91.5 -244t231.5 -88q152 0 252 125l19 -15
q-107 -133 -271 -133z" />
    <glyph glyph-name="cdotaccent" unicode="&#x10b;" horiz-adv-x="499" 
d="M273 606q-12 0 -20 8t-8 19q0 12 8 19.5t20 7.5q27 0 27 -27q0 -11 -7.5 -19t-19.5 -8zM278 -3q-103 0 -167 68.5t-64 176.5t64.5 177t167.5 69q111 0 180 -77l-17 -17q-59 71 -163 71q-93 0 -151.5 -62.5t-58.5 -160.5q0 -99 58 -161t151 -62q48 0 93.5 18.5t74.5 51.5
l15 -17q-32 -34 -80.5 -54.5t-102.5 -20.5z" />
    <glyph glyph-name="Ccaron" unicode="&#x10c;" horiz-adv-x="714" 
d="M419 800h-25l-122 136h29l105 -118h4l105 118h29zM408 20q152 0 252 125l19 -15q-107 -133 -271 -133q-149 0 -247.5 94.5t-98.5 260.5q0 157 91.5 259.5t254.5 102.5t271 -134l-19 -16q-99 126 -252 126t-238 -95t-85 -243q0 -156 91.5 -244t231.5 -88z" />
    <glyph glyph-name="ccaron" unicode="&#x10d;" horiz-adv-x="499" 
d="M284 560h-25l-122 136h29l105 -118h4l105 118h29zM446 89l15 -17q-32 -34 -80.5 -54.5t-102.5 -20.5q-103 0 -167 68.5t-64 176.5t64.5 177t167.5 69q111 0 180 -77l-17 -17q-59 71 -163 71q-93 0 -151.5 -62.5t-58.5 -160.5q0 -99 58 -161t151 -62q48 0 93.5 18.5
t74.5 51.5z" />
    <glyph glyph-name="Dcaron" unicode="&#x10e;" horiz-adv-x="706" 
d="M333 800h-25l-122 136h29l105 -118h4l105 118h29zM276 710q167 0 268 -98.5t101 -257.5t-100 -256.5t-266 -97.5h-190v710h187zM277 23q156 0 250 92t94 239q0 149 -94 241.5t-251 92.5h-164v-665h165z" />
    <glyph glyph-name="dcaron" unicode="&#x10f;" horiz-adv-x="653" 
d="M637 755h27l-32 -158h-20zM498 349v387h22v-736h-22v133h-2q-26 -62 -81 -99t-127 -37q-102 0 -171.5 67t-69.5 173t67.5 178.5t173.5 72.5q68 0 123.5 -37.5t83.5 -101.5h3zM288 19q88 0 149 61t61 157t-59 162t-151 66q-93 0 -156 -63.5t-63 -164.5q0 -92 61 -155
t158 -63z" />
    <glyph glyph-name="Dcroat" unicode="&#x110;" horiz-adv-x="706" 
d="M276 710q167 0 268 -98.5t101 -257.5t-100 -256.5t-266 -97.5h-190v439h-86v23h86v248h187zM277 23q156 0 250 92t94 239q0 149 -94 241.5t-251 92.5h-164v-226h179v-23h-179v-416h165z" />
    <glyph glyph-name="dcroat" unicode="&#x111;" horiz-adv-x="598" 
d="M582 610v-22h-62v-588h-22v133h-2q-26 -62 -81 -99t-127 -37q-102 0 -171.5 67t-69.5 173t67.5 178.5t173.5 72.5q68 0 123.5 -37.5t83.5 -101.5h3v239h-164v22h164v126h22v-126h62zM288 19q88 0 149 61t61 157t-59 162t-151 66q-93 0 -156 -63.5t-63 -164.5
q0 -92 61 -155t158 -63z" />
    <glyph glyph-name="Emacron" unicode="&#x112;" horiz-adv-x="565" 
d="M153 859v23h267v-23h-267zM89 0v710h412v-22h-389v-321h327v-23h-327v-321h410v-23h-433z" />
    <glyph glyph-name="emacron" unicode="&#x113;" 
d="M412 642v-23h-267v23h267zM488 243h-418v-1q0 -97 58 -160t149 -63q111 0 174 81l17 -13q-68 -90 -189 -90q-102 0 -167 69.5t-65 175.5q0 105 66 175.5t164 70.5q94 0 153 -65.5t59 -165.5zM277 465q-82 0 -140 -56.5t-66 -143.5h395q-5 91 -56.5 145.5t-132.5 54.5z
" />
    <glyph glyph-name="Ebreve" unicode="&#x114;" horiz-adv-x="565" 
d="M286 801q-49 0 -83.5 33.5t-38.5 93.5h21q3 -47 30 -76t71 -29q45 0 71.5 29.5t28.5 75.5h22q-4 -60 -38.5 -93.5t-83.5 -33.5zM89 0v710h412v-22h-389v-321h327v-23h-327v-321h410v-23h-433z" />
    <glyph glyph-name="ebreve" unicode="&#x115;" 
d="M278 561q-49 0 -83.5 33.5t-38.5 93.5h21q3 -47 30 -76t71 -29q45 0 71.5 29.5t28.5 75.5h22q-4 -60 -38.5 -93.5t-83.5 -33.5zM488 243h-418v-1q0 -97 58 -160t149 -63q111 0 174 81l17 -13q-68 -90 -189 -90q-102 0 -167 69.5t-65 175.5q0 105 66 175.5t164 70.5
q94 0 153 -65.5t59 -165.5zM277 465q-82 0 -140 -56.5t-66 -143.5h395q-5 91 -56.5 145.5t-132.5 54.5z" />
    <glyph glyph-name="Edotaccent" unicode="&#x116;" horiz-adv-x="565" 
d="M286 846q-12 0 -20 8t-8 19q0 12 8 19.5t20 7.5q27 0 27 -27q0 -11 -7.5 -19t-19.5 -8zM89 0v710h412v-22h-389v-321h327v-23h-327v-321h410v-23h-433z" />
    <glyph glyph-name="edotaccent" unicode="&#x117;" 
d="M278 606q-12 0 -20 8t-8 19q0 12 8 19.5t20 7.5q27 0 27 -27q0 -11 -7.5 -19t-19.5 -8zM488 243h-418v-1q0 -97 58 -160t149 -63q111 0 174 81l17 -13q-68 -90 -189 -90q-102 0 -167 69.5t-65 175.5q0 105 66 175.5t164 70.5q94 0 153 -65.5t59 -165.5zM277 465
q-82 0 -140 -56.5t-66 -143.5h395q-5 91 -56.5 145.5t-132.5 54.5z" />
    <glyph glyph-name="Eogonek" unicode="&#x118;" horiz-adv-x="565" 
d="M563 -145l4 -23q-26 -13 -63 -13q-39 0 -61.5 19.5t-22.5 56.5q0 58 64 104v1h-395v710h412v-22h-389v-321h327v-23h-327v-321h410v-23q-36 -19 -57.5 -47t-21.5 -57q0 -54 61 -54q33 0 59 13z" />
    <glyph glyph-name="eogonek" unicode="&#x119;" 
d="M488 243h-418v-1q0 -97 58 -160t149 -63q111 0 174 81l17 -13q-53 -72 -145 -87q-36 -19 -58 -47.5t-22 -56.5q0 -54 62 -54q33 0 58 13l4 -23q-24 -13 -62 -13q-39 0 -61.5 19.5t-22.5 56.5q0 54 59 101v1h-1q-102 0 -167 69.5t-65 175.5q0 105 66 175.5t164 70.5
q94 0 153 -65.5t59 -165.5zM277 465q-82 0 -140 -56.5t-66 -143.5h395q-5 91 -56.5 145.5t-132.5 54.5z" />
    <glyph glyph-name="Ecaron" unicode="&#x11a;" horiz-adv-x="565" 
d="M297 800h-25l-122 136h29l105 -118h4l105 118h29zM112 23h410v-23h-433v710h412v-22h-389v-321h327v-23h-327v-321z" />
    <glyph glyph-name="ecaron" unicode="&#x11b;" 
d="M289 560h-25l-122 136h29l105 -118h4l105 118h29zM488 243h-418v-1q0 -97 58 -160t149 -63q111 0 174 81l17 -13q-68 -90 -189 -90q-102 0 -167 69.5t-65 175.5q0 105 66 175.5t164 70.5q94 0 153 -65.5t59 -165.5zM277 465q-82 0 -140 -56.5t-66 -143.5h395
q-5 91 -56.5 145.5t-132.5 54.5z" />
    <glyph glyph-name="Gcircumflex" unicode="&#x11c;" horiz-adv-x="760" 
d="M403 919l-106 -119h-29l122 136h25l125 -136h-29l-106 119h-2zM390 341h292v-251q-104 -93 -273 -93q-153 0 -250 99.5t-97 257.5q0 160 97 260t250 100q156 0 258 -99l-16 -16q-95 91 -242 91q-144 0 -234 -93t-90 -243q0 -148 90.5 -241t233.5 -93q155 0 250 81v217
h-269v23z" />
    <glyph glyph-name="gcircumflex" unicode="&#x11d;" horiz-adv-x="586" 
d="M281 679l-106 -119h-29l122 136h25l125 -136h-29l-106 119h-2zM491 484h22v-474q0 -97 -57 -154t-164 -57q-106 0 -198 56l7 23q90 -57 192 -57q98 0 148 52.5t50 141.5v131h-1q-26 -62 -80.5 -98t-128.5 -36q-99 0 -166.5 66.5t-67.5 174.5q0 99 65.5 167t169.5 68
q70 0 125.5 -35t82.5 -95h1v126zM281 34q96 0 153 62t57 157q0 94 -59.5 153t-149.5 59q-94 0 -153 -61t-59 -151q0 -98 60.5 -158.5t150.5 -60.5z" />
    <glyph glyph-name="Gbreve" unicode="&#x11e;" horiz-adv-x="760" 
d="M404 801q-49 0 -83.5 33.5t-38.5 93.5h21q3 -47 30 -76t71 -29q45 0 71.5 29.5t28.5 75.5h22q-4 -60 -38.5 -93.5t-83.5 -33.5zM409 -3q-153 0 -250 99.5t-97 257.5q0 160 97 260t250 100q156 0 258 -99l-16 -16q-95 91 -242 91q-144 0 -234 -93t-90 -243
q0 -148 90.5 -241t233.5 -93q155 0 250 81v217h-269v23h292v-251q-104 -93 -273 -93z" />
    <glyph glyph-name="gbreve" unicode="&#x11f;" horiz-adv-x="586" 
d="M282 561q-49 0 -83.5 33.5t-38.5 93.5h21q3 -47 30 -76t71 -29q45 0 71.5 29.5t28.5 75.5h22q-4 -60 -38.5 -93.5t-83.5 -33.5zM491 484h22v-474q0 -97 -57 -154t-164 -57q-106 0 -198 56l7 23q90 -57 192 -57q98 0 148 52.5t50 141.5v131h-1q-26 -62 -80.5 -98
t-128.5 -36q-99 0 -166.5 66.5t-67.5 174.5q0 99 65.5 167t169.5 68q70 0 125.5 -35t82.5 -95h1v126zM281 34q96 0 153 62t57 157q0 94 -59.5 153t-149.5 59q-94 0 -153 -61t-59 -151q0 -98 60.5 -158.5t150.5 -60.5z" />
    <glyph glyph-name="Gdotaccent" unicode="&#x120;" horiz-adv-x="760" 
d="M404 846q-12 0 -20 8t-8 19q0 12 8 19.5t20 7.5q27 0 27 -27q0 -11 -7.5 -19t-19.5 -8zM409 -3q-153 0 -250 99.5t-97 257.5q0 160 97 260t250 100q156 0 258 -99l-16 -16q-95 91 -242 91q-144 0 -234 -93t-90 -243q0 -148 90.5 -241t233.5 -93q155 0 250 81v217h-269v23
h292v-251q-104 -93 -273 -93z" />
    <glyph glyph-name="gdotaccent" unicode="&#x121;" horiz-adv-x="586" 
d="M282 606q-12 0 -20 8t-8 19q0 12 8 19.5t20 7.5q27 0 27 -27q0 -11 -7.5 -19t-19.5 -8zM491 484h22v-474q0 -97 -57 -154t-164 -57q-106 0 -198 56l7 23q90 -57 192 -57q98 0 148 52.5t50 141.5v131h-1q-26 -62 -80.5 -98t-128.5 -36q-99 0 -166.5 66.5t-67.5 174.5
q0 99 65.5 167t169.5 68q70 0 125.5 -35t82.5 -95h1v126zM281 34q96 0 153 62t57 157q0 94 -59.5 153t-149.5 59q-94 0 -153 -61t-59 -151q0 -98 60.5 -158.5t150.5 -60.5z" />
    <glyph glyph-name="Gcommaaccent" unicode="&#x122;" horiz-adv-x="760" 
d="M409 -3q-153 0 -250 99.5t-97 257.5q0 160 97 260t250 100q156 0 258 -99l-16 -16q-95 91 -242 91q-144 0 -234 -93t-90 -243q0 -148 90.5 -241t233.5 -93q155 0 250 81v217h-269v23h292v-251q-104 -93 -273 -93zM328 -199l-8 18q40 2 54 20.5t14 49.5q0 26 -5 56h22
q5 -28 5 -55q0 -84 -82 -89z" />
    <glyph glyph-name="gcommaaccent" unicode="&#x123;" horiz-adv-x="586" 
d="M305 552h-22q-5 28 -5 55q0 84 82 89l8 -18q-40 -2 -54 -20.5t-14 -49.5q0 -26 5 -56zM491 484h22v-474q0 -97 -57 -154t-164 -57q-106 0 -198 56l7 23q90 -57 192 -57q98 0 148 52.5t50 141.5v131h-1q-26 -62 -80.5 -98t-128.5 -36q-99 0 -166.5 66.5t-67.5 174.5
q0 99 65.5 167t169.5 68q70 0 125.5 -35t82.5 -95h1v126zM281 34q96 0 153 62t57 157q0 94 -59.5 153t-149.5 59q-94 0 -153 -61t-59 -151q0 -98 60.5 -158.5t150.5 -60.5z" />
    <glyph glyph-name="Hcircumflex" unicode="&#x124;" horiz-adv-x="692" 
d="M344 919l-106 -119h-29l122 136h25l125 -136h-29l-106 119h-2zM580 710h23v-710h-23v323h-468v-323h-23v710h23v-364h468v364z" />
    <glyph glyph-name="hcircumflex" unicode="&#x125;" horiz-adv-x="548" 
d="M216 932l-106 -119h-29l122 136h25l125 -136h-29l-106 119h-2zM311 488q77 0 122 -51.5t45 -144.5v-292h-22v281q0 95 -40 139.5t-105 44.5q-95 0 -151.5 -62t-56.5 -164v-239h-22v736h22v-381h1q26 63 79.5 98t127.5 35z" />
    <glyph glyph-name="Hbar" unicode="&#x126;" horiz-adv-x="692" 
d="M672 565v-22h-69v-543h-23v323h-468v-323h-23v543h-78v22h78v145h23v-145h468v145h23v-145h69zM580 346v197h-468v-197h468z" />
    <glyph glyph-name="hbar" unicode="&#x127;" horiz-adv-x="548" 
d="M311 488q77 0 122 -51.5t45 -144.5v-292h-22v281q0 95 -40 139.5t-105 44.5q-95 0 -151.5 -62t-56.5 -164v-239h-22v588h-77v22h77v126h22v-126h149v-22h-149v-233h1q26 63 79.5 98t127.5 35z" />
    <glyph glyph-name="Itilde" unicode="&#x128;" horiz-adv-x="215" 
d="M185 821q-6 0 -12 1t-11 2.5t-12 5t-10.5 5.5t-11.5 7t-10.5 6.5t-10.5 7.5t-10 7q-38 27 -63 27q-42 0 -64 -61l-21 6q26 77 84 77q32 0 77 -31q4 -3 17 -12l19.5 -13.5t17.5 -8.5t20 -4q19 0 35 15.5t25 46.5l21 -7q-11 -38 -33 -57.5t-47 -19.5zM96 0v710h23v-710h-23
z" />
    <glyph glyph-name="itilde" unicode="&#x129;" horiz-adv-x="195" 
d="M175 581q-6 0 -12 1t-11 2.5t-12 5t-10.5 5.5t-11.5 7t-10.5 6.5t-10.5 7.5t-10 7q-38 27 -63 27q-42 0 -64 -61l-21 6q26 77 84 77q32 0 77 -31q4 -3 17 -12l19.5 -13.5t17.5 -8.5t20 -4q19 0 35 15.5t25 46.5l21 -7q-11 -38 -33 -57.5t-47 -19.5zM86 0v484h22v-484h-22
z" />
    <glyph glyph-name="Imacron" unicode="&#x12a;" horiz-adv-x="215" 
d="M-25 859v23h267v-23h-267zM96 0v710h23v-710h-23z" />
    <glyph glyph-name="imacron" unicode="&#x12b;" horiz-adv-x="195" 
d="M-35 619v23h267v-23h-267zM86 0v484h22v-484h-22z" />
    <glyph glyph-name="Ibreve" unicode="&#x12c;" horiz-adv-x="215" 
d="M108 801q-49 0 -83.5 33.5t-38.5 93.5h21q3 -47 30 -76t71 -29q45 0 71.5 29.5t28.5 75.5h22q-4 -60 -38.5 -93.5t-83.5 -33.5zM96 0v710h23v-710h-23z" />
    <glyph glyph-name="ibreve" unicode="&#x12d;" horiz-adv-x="195" 
d="M98 561q-48 0 -79 33t-34 94h22q2 -48 24.5 -76.5t66.5 -28.5t66.5 29t23.5 76h22q-3 -61 -33.5 -94t-78.5 -33zM86 0v484h22v-484h-22z" />
    <glyph glyph-name="Iogonek" unicode="&#x12e;" horiz-adv-x="215" 
d="M160 -145l4 -23q-26 -13 -63 -13q-39 0 -61.5 19.5t-22.5 56.5q0 29 20.5 60t58.5 54v701h23v-710q-36 -19 -57.5 -47t-21.5 -57q0 -54 61 -54q33 0 59 13z" />
    <glyph glyph-name="iogonek" unicode="&#x12f;" horiz-adv-x="195" 
d="M98 606q-12 0 -20 8t-8 19q0 12 8 19.5t20 7.5q27 0 27 -27q0 -11 -7.5 -19t-19.5 -8zM149 -145l4 -23q-26 -13 -63 -13q-39 0 -61.5 19.5t-22.5 56.5q0 29 21 60t59 55v474h22v-484q-36 -19 -57.5 -47t-21.5 -57q0 -54 61 -54q33 0 59 13z" />
    <glyph glyph-name="Idotaccent" unicode="&#x130;" horiz-adv-x="215" 
d="M108 846q-12 0 -20 8t-8 19q0 12 8 19.5t20 7.5q27 0 27 -27q0 -11 -7.5 -19t-19.5 -8zM96 0v710h23v-710h-23z" />
    <glyph glyph-name="dotlessi" unicode="&#x131;" horiz-adv-x="195" 
d="M86 0v484h22v-484h-22z" />
    <glyph glyph-name="IJ" unicode="&#x132;" horiz-adv-x="682" 
d="M96 0v710h23v-710h-23zM427 -3q-45 0 -95.5 24.5t-90.5 69.5l14 18q83 -89 172 -89q154 0 154 193v497h23v-502q0 -211 -177 -211z" />
    <glyph glyph-name="ij" unicode="&#x133;" horiz-adv-x="371" 
d="M98 606q-12 0 -20 8t-8 19q0 12 8 19.5t20 7.5q27 0 27 -27q0 -11 -7.5 -19t-19.5 -8zM289 606q-12 0 -20 8t-8 19q0 12 8 19.5t20 7.5q27 0 27 -27q0 -11 -7.5 -19t-19.5 -8zM86 0v484h22v-484h-22zM199 -201q-35 0 -63 14l3 24q27 -16 62 -16q77 0 77 94v569h22v-569
q0 -116 -101 -116z" />
    <glyph glyph-name="Jcircumflex" unicode="&#x134;" horiz-adv-x="467" 
d="M390 936l125 -136h-29l-106 119h-2l-106 -119h-29l122 136h25zM366 213v497h23v-502q0 -211 -177 -211q-45 0 -95.5 24.5t-90.5 69.5l14 18q83 -89 172 -89q154 0 154 193z" />
    <glyph glyph-name="jcircumflex" unicode="&#x135;" horiz-adv-x="176" 
d="M105 696l125 -136h-29l-106 119h-2l-106 -119h-29l122 136h25zM83 -85v569h22v-569q0 -116 -101 -116q-35 0 -63 14l3 24q27 -16 62 -16q77 0 77 94z" />
    <glyph glyph-name="Kcommaaccent" unicode="&#x136;" horiz-adv-x="612" 
d="M272 374l296 -374h-30l-281 356h-1l-144 -167v-189h-23v710h23v-483h2l418 483h31zM298 -55h22q5 -28 5 -55q0 -84 -82 -89l-8 18q40 2 54 20.5t14 49.5q0 26 -5 56z" />
    <glyph glyph-name="kcommaaccent" unicode="&#x137;" horiz-adv-x="483" 
d="M452 484l-193 -210l191 -274h-28l-178 256h-1l-140 -152v-104h-22v736h22v-597h1l316 345h32zM237 -55h22q5 -28 5 -55q0 -84 -82 -89l-8 18q40 2 54 20.5t14 49.5q0 26 -5 56z" />
    <glyph glyph-name="kgreenlandic" unicode="&#x138;" horiz-adv-x="484" 
d="M453 484l-193 -210l192 -274h-30l-178 256h-1l-140 -152v-104h-22v484h22v-346l318 346h32z" />
    <glyph glyph-name="Lacute" unicode="&#x139;" horiz-adv-x="528" 
d="M185 801l123 135h31l-124 -135h-30zM89 0v710h23v-687h394v-23h-417z" />
    <glyph glyph-name="lacute" unicode="&#x13a;" horiz-adv-x="194" 
d="M82 814l123 135h31l-124 -135h-30zM86 0v736h22v-736h-22z" />
    <glyph glyph-name="Lcommaaccent" unicode="&#x13b;" horiz-adv-x="528" 
d="M89 0v710h23v-687h394v-23h-417zM230 -199l-8 18q40 2 54 20.5t14 49.5q0 26 -5 56h22q5 -28 5 -55q0 -84 -82 -89z" />
    <glyph glyph-name="lcommaaccent" unicode="&#x13c;" horiz-adv-x="194" 
d="M86 0v736h22v-736h-22zM33 -199l-8 18q40 2 54 20.5t14 49.5q0 26 -5 56h22q5 -28 5 -55q0 -84 -82 -89z" />
    <glyph glyph-name="Lcaron" unicode="&#x13d;" horiz-adv-x="528" 
d="M275 597l24 158h27l-31 -158h-20zM89 0v710h23v-687h394v-23h-417z" />
    <glyph glyph-name="lcaron" unicode="&#x13e;" horiz-adv-x="241" 
d="M201 597l24 158h26l-31 -158h-19zM86 0v736h22v-736h-22z" />
    <glyph glyph-name="Ldot" unicode="&#x13f;" horiz-adv-x="528" 
d="M89 0v710h23v-687h394v-23h-417zM372 305q-13 0 -21 8t-8 21t8 20.5t21 7.5t21 -7.5t8 -20.5t-8 -21t-21 -8z" />
    <glyph glyph-name="ldot" unicode="&#x140;" horiz-adv-x="211" 
d="M86 0v736h22v-736h-22zM204 242q-13 0 -21 8t-8 21t8 20.5t21 7.5t21 -7.5t8 -20.5t-8 -21t-21 -8z" />
    <glyph glyph-name="Lslash" unicode="&#x141;" horiz-adv-x="558" 
d="M142 23h394v-23h-417v308l-96 -45v26l96 45v376h23v-365l97 45v-25l-97 -46v-296z" />
    <glyph glyph-name="lslash" unicode="&#x142;" horiz-adv-x="202" 
d="M180 377v-25l-66 -31v-321h-22v311l-74 -35v25l74 35v400h22v-390z" />
    <glyph glyph-name="Nacute" unicode="&#x143;" horiz-adv-x="728" 
d="M448 936l-124 -135h-30l123 135h31zM615 710h23v-710h-23l-502 669h-1v-669h-23v710h22l503 -670h1v670z" />
    <glyph glyph-name="nacute" unicode="&#x144;" horiz-adv-x="543" 
d="M414 696l-124 -135h-30l123 135h31zM306 488q77 0 122 -51.5t45 -144.5v-292h-22v281q0 95 -40 139.5t-105 44.5q-92 0 -147.5 -62t-55.5 -164v-239h-22v484h22v-129h1q26 63 78.5 98t123.5 35z" />
    <glyph glyph-name="Ncommaaccent" unicode="&#x145;" horiz-adv-x="728" 
d="M615 710h23v-710h-23l-502 669h-1v-669h-23v710h22l503 -670h1v670zM354 -55h22q5 -28 5 -55q0 -84 -82 -89l-8 18q40 2 54 20.5t14 49.5q0 26 -5 56z" />
    <glyph glyph-name="ncommaaccent" unicode="&#x146;" horiz-adv-x="543" 
d="M306 488q77 0 122 -51.5t45 -144.5v-292h-22v281q0 95 -40 139.5t-105 44.5q-92 0 -147.5 -62t-55.5 -164v-239h-22v484h22v-129h1q26 63 78.5 98t123.5 35zM275 -55h22q5 -28 5 -55q0 -84 -82 -89l-8 18q40 2 54 20.5t14 49.5q0 26 -5 56z" />
    <glyph glyph-name="Ncaron" unicode="&#x147;" horiz-adv-x="728" 
d="M375 800h-25l-122 136h29l105 -118h4l105 118h29zM615 710h23v-710h-23l-502 669h-1v-669h-23v710h22l503 -670h1v670z" />
    <glyph glyph-name="ncaron" unicode="&#x148;" horiz-adv-x="543" 
d="M293 560h-25l-122 136h29l105 -118h4l105 118h29zM306 488q77 0 122 -51.5t45 -144.5v-292h-22v281q0 95 -40 139.5t-105 44.5q-92 0 -147.5 -62t-55.5 -164v-239h-22v484h22v-129h1q26 63 78.5 98t123.5 35z" />
    <glyph glyph-name="napostrophe" unicode="&#x149;" horiz-adv-x="592" 
d="M27 542l25 168h26l-31 -168h-20zM355 488q77 0 122 -51.5t45 -144.5v-292h-22v281q0 95 -40 139.5t-105 44.5q-92 0 -147.5 -62t-55.5 -164v-239h-22v484h22v-129h1q26 63 78.5 98t123.5 35z" />
    <glyph glyph-name="Eng" unicode="&#x14a;" horiz-adv-x="727" 
d="M614 710h23v-795q0 -116 -102 -116q-35 0 -63 14l3 24q27 -16 62 -16q77 0 77 94v86l-501 668h-1v-669h-23v710h22l501 -669h2v669z" />
    <glyph glyph-name="eng" unicode="&#x14b;" horiz-adv-x="539" 
d="M296 488q88 0 130 -55t42 -151v-367q0 -116 -101 -116q-35 0 -63 14l3 24q27 -16 62 -16q77 0 77 94v356q0 194 -150 194q-79 0 -136 -63.5t-57 -162.5v-239h-22v484h22v-130q26 61 80 97.5t113 36.5z" />
    <glyph glyph-name="Omacron" unicode="&#x14c;" horiz-adv-x="822" 
d="M279 859v23h267v-23h-267zM412 -3q-155 0 -252.5 103.5t-97.5 255.5q0 151 98 254.5t252 103.5q146 0 247 -100t101 -258q0 -159 -100.5 -259t-247.5 -100zM412 20q137 0 231 94t94 242t-94 241t-231 93q-144 0 -235.5 -96.5t-91.5 -237.5q0 -142 91.5 -239t235.5 -97z
" />
    <glyph glyph-name="omacron" unicode="&#x14d;" horiz-adv-x="579" 
d="M158 619v23h267v-23h-267zM290 -3q-107 0 -175 71t-68 174q0 102 68.5 174t174.5 72q102 0 172 -69t70 -177t-70 -176.5t-172 -68.5zM290 19q93 0 156 62.5t63 160.5t-63.5 160.5t-155.5 62.5q-98 0 -159.5 -64.5t-61.5 -158.5t61.5 -158.5t159.5 -64.5z" />
    <glyph glyph-name="Obreve" unicode="&#x14e;" horiz-adv-x="822" 
d="M412 801q-49 0 -83.5 33.5t-38.5 93.5h21q3 -47 30 -76t71 -29q45 0 71.5 29.5t28.5 75.5h22q-4 -60 -38.5 -93.5t-83.5 -33.5zM412 -3q-155 0 -252.5 103.5t-97.5 255.5q0 151 98 254.5t252 103.5q146 0 247 -100t101 -258q0 -159 -100.5 -259t-247.5 -100zM412 20
q137 0 231 94t94 242t-94 241t-231 93q-144 0 -235.5 -96.5t-91.5 -237.5q0 -142 91.5 -239t235.5 -97z" />
    <glyph glyph-name="obreve" unicode="&#x14f;" horiz-adv-x="579" 
d="M291 561q-49 0 -83.5 33.5t-38.5 93.5h21q3 -47 30 -76t71 -29q45 0 71.5 29.5t28.5 75.5h22q-4 -60 -38.5 -93.5t-83.5 -33.5zM290 -3q-107 0 -175 71t-68 174q0 102 68.5 174t174.5 72q102 0 172 -69t70 -177t-70 -176.5t-172 -68.5zM290 19q93 0 156 62.5t63 160.5
t-63.5 160.5t-155.5 62.5q-98 0 -159.5 -64.5t-61.5 -158.5t61.5 -158.5t159.5 -64.5z" />
    <glyph glyph-name="Ohungarumlaut" unicode="&#x150;" horiz-adv-x="822" 
d="M337 801l122 135h31l-124 -135h-29zM461 801l122 135h31l-125 -135h-28zM412 -3q-155 0 -252.5 103.5t-97.5 255.5q0 151 98 254.5t252 103.5q146 0 247 -100t101 -258q0 -159 -100.5 -259t-247.5 -100zM412 20q137 0 231 94t94 242t-94 241t-231 93q-144 0 -235.5 -96.5
t-91.5 -237.5q0 -142 91.5 -239t235.5 -97z" />
    <glyph glyph-name="ohungarumlaut" unicode="&#x151;" horiz-adv-x="579" 
d="M209 561l122 135h31l-124 -135h-29zM333 561l122 135h31l-125 -135h-28zM290 -3q-107 0 -175 71t-68 174q0 102 68.5 174t174.5 72q102 0 172 -69t70 -177t-70 -176.5t-172 -68.5zM290 19q93 0 156 62.5t63 160.5t-63.5 160.5t-155.5 62.5q-98 0 -159.5 -64.5
t-61.5 -158.5t61.5 -158.5t159.5 -64.5z" />
    <glyph glyph-name="OE" unicode="&#x152;" horiz-adv-x="932" 
d="M479 23h410v-23h-473q-156 0 -255 104t-99 253t99 251.5t255 101.5h453v-22h-390v-321h332v-23h-332v-321zM416 23h41v664h-41q-139 2 -235 -91.5t-96 -238.5q0 -146 96 -240t235 -94z" />
    <glyph glyph-name="oe" unicode="&#x153;" horiz-adv-x="824" 
d="M790 243h-361v-1q0 -100 44.5 -161.5t124.5 -61.5q97 0 154 81l17 -13q-28 -42 -73.5 -66t-95.5 -24q-77 0 -120.5 42.5t-59.5 109.5h-4q-20 -70 -69 -111t-111 -41q-89 0 -144 70t-55 175q0 104 56.5 175t142.5 71q60 0 110 -43t71 -114h2q18 73 64 115t115 42
q82 0 137.5 -66.5t55.5 -167.5zM236 19q72 0 121.5 62.5t49.5 160.5q0 97 -50.5 160t-120.5 63q-77 0 -126.5 -63.5t-49.5 -159.5t49.5 -159.5t126.5 -63.5zM598 465q-75 0 -119 -55t-49 -145h338q-6 91 -52 145.5t-118 54.5z" />
    <glyph glyph-name="Racute" unicode="&#x154;" horiz-adv-x="612" 
d="M382 936l-124 -135h-30l123 135h31zM549 0h-28l-220 305h-189v-305h-23v710h233q110 0 165 -55t55 -145q0 -97 -57 -147.5t-155 -56.5v-3zM112 688v-360h192q111 0 162.5 49.5t51.5 132.5q0 89 -52 133.5t-143 44.5h-211z" />
    <glyph glyph-name="racute" unicode="&#x155;" horiz-adv-x="317" 
d="M261 696l-124 -135h-30l123 135h31zM277 488q22 0 32 -1v-24q-20 2 -29 2q-80 0 -128.5 -61.5t-48.5 -161.5v-242h-22v484h22v-119h1q22 58 66.5 90.5t106.5 32.5z" />
    <glyph glyph-name="Rcommaaccent" unicode="&#x156;" horiz-adv-x="612" 
d="M330 303l219 -303h-28l-220 305h-189v-305h-23v710h233q110 0 165 -55t55 -145q0 -97 -57 -147.5t-155 -56.5v-3zM112 688v-360h192q111 0 162.5 49.5t51.5 132.5q0 89 -52 133.5t-143 44.5h-211zM284 -55h22q5 -28 5 -55q0 -84 -82 -89l-8 18q40 2 54 20.5t14 49.5
q0 26 -5 56z" />
    <glyph glyph-name="rcommaaccent" unicode="&#x157;" horiz-adv-x="317" 
d="M277 488q22 0 32 -1v-24q-20 2 -29 2q-80 0 -128.5 -61.5t-48.5 -161.5v-242h-22v484h22v-119h1q22 58 66.5 90.5t106.5 32.5zM84 -55h22q5 -28 5 -55q0 -84 -82 -89l-8 18q40 2 54 20.5t14 49.5q0 26 -5 56z" />
    <glyph glyph-name="Rcaron" unicode="&#x158;" horiz-adv-x="612" 
d="M309 800h-25l-122 136h29l105 -118h4l105 118h29zM549 0h-28l-220 305h-189v-305h-23v710h233q110 0 165 -55t55 -145q0 -97 -57 -147.5t-155 -56.5v-3zM112 688v-360h192q111 0 162.5 49.5t51.5 132.5q0 89 -52 133.5t-143 44.5h-211z" />
    <glyph glyph-name="rcaron" unicode="&#x159;" horiz-adv-x="317" 
d="M205 560h-25l-122 136h29l105 -118h4l105 118h29zM104 365q22 58 66.5 90.5t106.5 32.5q22 0 32 -1v-24q-20 2 -29 2q-80 0 -128.5 -61.5t-48.5 -161.5v-242h-22v484h22v-119h1z" />
    <glyph glyph-name="Sacute" unicode="&#x15a;" horiz-adv-x="558" 
d="M254 801l123 135h31l-124 -135h-30zM282 -3q-149 0 -239 107l18 18q37 -50 96.5 -76t126.5 -26q83 0 140.5 40.5t57.5 113.5q0 20 -5 37.5t-11 30t-20.5 25.5t-24.5 20t-32 18t-32.5 15.5t-38 15.5t-38.5 15q-36 14 -51 21t-45.5 21.5t-45 27.5t-32 32.5t-25 42.5
t-7.5 51q0 73 56.5 120t145.5 47q113 0 203 -74l-16 -19q-84 69 -186 69q-72 0 -125.5 -38t-53.5 -105q0 -36 14.5 -63t47 -48.5t56.5 -32.5t71 -30q8 -3 33 -13t33.5 -13.5t30 -13t29.5 -14.5t25 -15.5t23.5 -19t17 -21t15 -25.5t8 -29.5t3.5 -34.5q0 -77 -59.5 -127
t-163.5 -50z" />
    <glyph glyph-name="sacute" unicode="&#x15b;" horiz-adv-x="415" 
d="M197 561l123 135h31l-124 -135h-30zM211 -3q-102 0 -177 67l13 18q71 -63 164 -63q64 0 102 30t38 73q0 16 -3 28.5t-13 23t-16.5 17t-25.5 15t-26.5 12t-34 12.5t-34.5 12q-36 13 -56 22t-42.5 24.5t-32.5 36t-10 47.5q0 49 40 82.5t99 33.5q91 0 158 -58l-15 -16
q-60 51 -142 51q-50 0 -83.5 -27t-33.5 -64q0 -23 9 -40.5t29 -30.5t36 -20.5t47 -18.5q8 -3 29 -10.5l28 -10t24.5 -9t23.5 -10.5t19 -11.5t18 -13t13 -14.5t10.5 -18.5t5 -21.5t2.5 -25q-1 -52 -44.5 -87.5t-118.5 -35.5z" />
    <glyph glyph-name="Scircumflex" unicode="&#x15c;" horiz-adv-x="558" 
d="M278 919l-106 -119h-29l122 136h25l125 -136h-29l-106 119h-2zM287 373q8 -3 33 -13t33.5 -13.5t30 -13t29.5 -14.5t25 -15.5t23.5 -19t17 -21t15 -25.5t8 -29.5t3.5 -34.5q0 -77 -59.5 -127t-163.5 -50q-149 0 -239 107l18 18q37 -50 96.5 -76t126.5 -26
q83 0 140.5 40.5t57.5 113.5q0 20 -5 37.5t-11 30t-20.5 25.5t-24.5 20t-32 18t-32.5 15.5t-38 15.5t-38.5 15q-36 14 -51 21t-45.5 21.5t-45 27.5t-32 32.5t-25 42.5t-7.5 51q0 73 56.5 120t145.5 47q113 0 203 -74l-16 -19q-84 69 -186 69q-72 0 -125.5 -38t-53.5 -105
q0 -36 14.5 -63t47 -48.5t56.5 -32.5t71 -30z" />
    <glyph glyph-name="scircumflex" unicode="&#x15d;" horiz-adv-x="415" 
d="M210 679l-106 -119h-29l122 136h25l125 -136h-29l-106 119h-2zM201 264q8 -3 29 -10.5l28 -10t24.5 -9t23.5 -10.5t19 -11.5t18 -13t13 -14.5t10.5 -18.5t5 -21.5t2.5 -25q-1 -52 -44.5 -87.5t-118.5 -35.5q-102 0 -177 67l13 18q71 -63 164 -63q64 0 102 30t38 73
q0 16 -3 28.5t-13 23t-16.5 17t-25.5 15t-26.5 12t-34 12.5t-34.5 12q-36 13 -56 22t-42.5 24.5t-32.5 36t-10 47.5q0 49 40 82.5t99 33.5q91 0 158 -58l-15 -16q-60 51 -142 51q-50 0 -83.5 -27t-33.5 -64q0 -23 9 -40.5t29 -30.5t36 -20.5t47 -18.5z" />
    <glyph glyph-name="Scedilla" unicode="&#x15e;" horiz-adv-x="558" 
d="M286 -3l-13 -31l1 -1q31 -2 55 -23t24 -54q0 -30 -22.5 -51t-62.5 -21q-26 0 -49 6v23q23 -7 45 -7q28 0 47 13t19 38q0 23 -21.5 40t-60.5 17l1 19l15 32q-138 9 -221 107l18 18q37 -50 96.5 -76t126.5 -26q83 0 140.5 40.5t57.5 113.5q0 20 -5 37.5t-11 30t-20.5 25.5
t-24.5 20t-32 18t-32.5 15.5t-38 15.5t-38.5 15q-36 14 -51 21t-45.5 21.5t-45 27.5t-32 32.5t-25 42.5t-7.5 51q0 73 56.5 120t145.5 47q113 0 203 -74l-16 -19q-84 69 -186 69q-72 0 -125.5 -38t-53.5 -105q0 -36 14.5 -63t47 -48.5t56.5 -32.5t71 -30q8 -3 33 -13
t33.5 -13.5t30 -13t29.5 -14.5t25 -15.5t23.5 -19t17 -21t15 -25.5t8 -29.5t3.5 -34.5q0 -77 -58.5 -126.5t-160.5 -50.5z" />
    <glyph glyph-name="scedilla" unicode="&#x15f;" horiz-adv-x="415" 
d="M201 264q8 -3 29 -10.5l28 -10t24.5 -9t23.5 -10.5t19 -11.5t18 -13t13 -14.5t10.5 -18.5t5 -21.5t2.5 -25q-1 -52 -44.5 -87.5t-118.5 -35.5h-10l-13 -31l1 -1q31 -2 55 -23t24 -54q0 -30 -22.5 -51t-62.5 -21q-27 0 -49 6v23q23 -7 45 -7q28 0 47 13t19 38
q0 23 -21.5 40t-60.5 17l1 19l16 34q-81 7 -146 65l13 18q71 -63 164 -63q64 0 102 30t38 73q0 16 -3 28.5t-13 23t-16.5 17t-25.5 15t-26.5 12t-34 12.5t-34.5 12q-36 13 -56 22t-42.5 24.5t-32.5 36t-10 47.5q0 49 40 82.5t99 33.5q91 0 158 -58l-15 -16q-60 51 -142 51
q-50 0 -83.5 -27t-33.5 -64q0 -23 9 -40.5t29 -30.5t36 -20.5t47 -18.5z" />
    <glyph glyph-name="Scaron" unicode="&#x160;" horiz-adv-x="558" 
d="M290 800h-25l-122 136h29l105 -118h4l105 118h29zM287 373q8 -3 33 -13t33.5 -13.5t30 -13t29.5 -14.5t25 -15.5t23.5 -19t17 -21t15 -25.5t8 -29.5t3.5 -34.5q0 -77 -59.5 -127t-163.5 -50q-149 0 -239 107l18 18q37 -50 96.5 -76t126.5 -26q83 0 140.5 40.5t57.5 113.5
q0 20 -5 37.5t-11 30t-20.5 25.5t-24.5 20t-32 18t-32.5 15.5t-38 15.5t-38.5 15q-36 14 -51 21t-45.5 21.5t-45 27.5t-32 32.5t-25 42.5t-7.5 51q0 73 56.5 120t145.5 47q113 0 203 -74l-16 -19q-84 69 -186 69q-72 0 -125.5 -38t-53.5 -105q0 -36 14.5 -63t47 -48.5
t56.5 -32.5t71 -30z" />
    <glyph glyph-name="scaron" unicode="&#x161;" horiz-adv-x="415" 
d="M222 560h-25l-122 136h29l105 -118h4l105 118h29zM201 264q8 -3 29 -10.5l28 -10t24.5 -9t23.5 -10.5t19 -11.5t18 -13t13 -14.5t10.5 -18.5t5 -21.5t2.5 -25q-1 -52 -44.5 -87.5t-118.5 -35.5q-102 0 -177 67l13 18q71 -63 164 -63q64 0 102 30t38 73q0 16 -3 28.5
t-13 23t-16.5 17t-25.5 15t-26.5 12t-34 12.5t-34.5 12q-36 13 -56 22t-42.5 24.5t-32.5 36t-10 47.5q0 49 40 82.5t99 33.5q91 0 158 -58l-15 -16q-60 51 -142 51q-50 0 -83.5 -27t-33.5 -64q0 -23 9 -40.5t29 -30.5t36 -20.5t47 -18.5z" />
    <glyph glyph-name="uni0162" unicode="&#x162;" horiz-adv-x="542" 
d="M278 0l-14 -34l1 -1q31 -2 55 -23t24 -54q0 -30 -22.5 -51t-62.5 -21q-27 0 -49 6v23q23 -7 45 -7q28 0 47 13t19 38q0 23 -21.5 40t-60.5 17l1 19l18 39v684h-233v22h492v-22h-236v-688h-3z" />
    <glyph glyph-name="uni0163" unicode="&#x163;" horiz-adv-x="354" 
d="M313 462h-195v-319q0 -64 16 -94t67 -30q54 0 102 32l6 -22q-48 -32 -105 -32h-9l-13 -31l1 -1q31 -2 55 -23t24 -54q0 -30 -22.5 -51t-62.5 -21q-27 0 -49 6v23q23 -7 45 -7q28 0 47 13t19 38q0 23 -21.5 40t-60.5 17l1 19l16 34q-45 8 -61.5 40t-16.5 89v334h-67v22h67
v175l22 3v-178h195v-22z" />
    <glyph glyph-name="Tcaron" unicode="&#x164;" horiz-adv-x="542" 
d="M281 800h-25l-122 136h29l105 -118h4l105 118h29zM25 710h492v-22h-236v-688h-23v688h-233v22z" />
    <glyph glyph-name="tcaron" unicode="&#x165;" horiz-adv-x="354" 
d="M209 597l25 158h27l-32 -158h-20zM204 -3q-63 0 -85.5 33t-22.5 98v334h-67v22h67v175l22 3v-178h195v-22h-195v-319q0 -64 16 -94t67 -30q54 0 102 32l6 -22q-48 -32 -105 -32z" />
    <glyph glyph-name="Tbar" unicode="&#x166;" horiz-adv-x="542" 
d="M517 688h-236v-299h129v-23h-129v-366h-23v366h-115v23h115v299h-233v22h492v-22z" />
    <glyph glyph-name="tbar" unicode="&#x167;" horiz-adv-x="354" 
d="M313 462h-195v-164h175v-22h-175v-133q0 -64 16 -94t67 -30q54 0 102 32l6 -22q-48 -32 -105 -32q-63 0 -85.5 33t-22.5 98v148h-51v22h51v164h-67v22h67v175l22 3v-178h195v-22z" />
    <glyph glyph-name="Utilde" unicode="&#x168;" horiz-adv-x="682" 
d="M419 821q-6 0 -12 1t-11 2.5t-12 5t-10.5 5.5t-11.5 7t-10.5 6.5t-10.5 7.5t-10 7q-38 27 -63 27q-42 0 -64 -61l-21 6q26 77 84 77q32 0 77 -31q4 -3 17 -12l19.5 -13.5t17.5 -8.5t20 -4q19 0 35 15.5t25 46.5l21 -7q-11 -38 -33 -57.5t-47 -19.5zM341 -3
q-117 0 -188.5 77t-71.5 209v427h23v-427q0 -123 65 -193t172 -70t172.5 70t65.5 193v427h23v-427q0 -132 -72 -209t-189 -77z" />
    <glyph glyph-name="utilde" unicode="&#x169;" 
d="M189 650q-42 0 -64 -61l-21 6q26 77 84 77q32 0 77 -31q4 -3 17 -12l19.5 -13.5t17.5 -8.5t20 -4q19 0 35 15.5t25 46.5l21 -7q-11 -38 -33 -57.5t-47 -19.5q-6 0 -12 1t-11 2.5t-12 5t-10.5 5.5t-11.5 7t-10.5 6.5t-10.5 7.5t-10 7q-38 27 -63 27zM436 484h22v-484h-22
v128h-1q-25 -61 -73.5 -96t-109.5 -35q-88 0 -135.5 57t-47.5 154v276h22v-265q0 -99 43 -149.5t118 -50.5q79 0 131.5 63t52.5 163v239z" />
    <glyph glyph-name="Umacron" unicode="&#x16a;" horiz-adv-x="682" 
d="M209 859v23h267v-23h-267zM341 -3q-117 0 -188.5 77t-71.5 209v427h23v-427q0 -123 65 -193t172 -70t172.5 70t65.5 193v427h23v-427q0 -132 -72 -209t-189 -77z" />
    <glyph glyph-name="umacron" unicode="&#x16b;" 
d="M397 642v-23h-267v23h267zM436 484h22v-484h-22v128h-1q-25 -61 -73.5 -96t-109.5 -35q-88 0 -135.5 57t-47.5 154v276h22v-265q0 -99 43 -149.5t118 -50.5q79 0 131.5 63t52.5 163v239z" />
    <glyph glyph-name="Ubreve" unicode="&#x16c;" horiz-adv-x="682" 
d="M342 801q-49 0 -83.5 33.5t-38.5 93.5h21q3 -47 30 -76t71 -29q45 0 71.5 29.5t28.5 75.5h22q-4 -60 -38.5 -93.5t-83.5 -33.5zM341 -3q-117 0 -188.5 77t-71.5 209v427h23v-427q0 -123 65 -193t172 -70t172.5 70t65.5 193v427h23v-427q0 -132 -72 -209t-189 -77z" />
    <glyph glyph-name="ubreve" unicode="&#x16d;" 
d="M263 561q-49 0 -83.5 33.5t-38.5 93.5h21q3 -47 30 -76t71 -29q45 0 71.5 29.5t28.5 75.5h22q-4 -60 -38.5 -93.5t-83.5 -33.5zM436 484h22v-484h-22v128h-1q-25 -61 -73.5 -96t-109.5 -35q-88 0 -135.5 57t-47.5 154v276h22v-265q0 -99 43 -149.5t118 -50.5
q79 0 131.5 63t52.5 163v239z" />
    <glyph glyph-name="Uring" unicode="&#x16e;" horiz-adv-x="682" 
d="M342 795q-29 0 -51 22t-22 51q0 30 22 51.5t51 21.5q30 0 52 -21.5t22 -51.5q0 -29 -22 -51t-52 -22zM342 818q21 0 36.5 15t15.5 35q0 21 -15.5 36t-36.5 15t-36 -15t-15 -36q0 -20 15 -35t36 -15zM341 -3q-117 0 -188.5 77t-71.5 209v427h23v-427q0 -123 65 -193
t172 -70t172.5 70t65.5 193v427h23v-427q0 -132 -72 -209t-189 -77z" />
    <glyph glyph-name="uring" unicode="&#x16f;" 
d="M263 555q-29 0 -51 22t-22 51q0 30 22 51.5t51 21.5q30 0 52 -21.5t22 -51.5q0 -29 -22 -51t-52 -22zM263 679q-21 0 -36 -15t-15 -36q0 -20 15 -35t36 -15t36.5 15t15.5 35q0 21 -15.5 36t-36.5 15zM436 484h22v-484h-22v128h-1q-25 -61 -73.5 -96t-109.5 -35
q-88 0 -135.5 57t-47.5 154v276h22v-265q0 -99 43 -149.5t118 -50.5q79 0 131.5 63t52.5 163v239z" />
    <glyph glyph-name="Uhungarumlaut" unicode="&#x170;" horiz-adv-x="682" 
d="M240 801l122 135h31l-124 -135h-29zM364 801l122 135h31l-125 -135h-28zM341 -3q-117 0 -188.5 77t-71.5 209v427h23v-427q0 -123 65 -193t172 -70t172.5 70t65.5 193v427h23v-427q0 -132 -72 -209t-189 -77z" />
    <glyph glyph-name="uhungarumlaut" unicode="&#x171;" 
d="M330 696l-124 -135h-29l122 135h31zM329 561h-28l122 135h31zM436 484h22v-484h-22v128h-1q-25 -61 -73.5 -96t-109.5 -35q-88 0 -135.5 57t-47.5 154v276h22v-265q0 -99 43 -149.5t118 -50.5q79 0 131.5 63t52.5 163v239z" />
    <glyph glyph-name="Uogonek" unicode="&#x172;" horiz-adv-x="682" 
d="M579 710h23v-427q0 -119 -58.5 -193.5t-156.5 -89.5q-36 -19 -57.5 -47t-21.5 -57q0 -54 61 -54q33 0 59 13l4 -23q-26 -13 -63 -13q-39 0 -61.5 19.5t-22.5 56.5q0 55 59 100v2h-3q-117 0 -188.5 77t-71.5 209v427h23v-427q0 -123 65 -193t172 -70t172.5 70t65.5 193
v427z" />
    <glyph glyph-name="uogonek" unicode="&#x173;" 
d="M499 -145l4 -23q-26 -13 -63 -13q-39 0 -61.5 19.5t-22.5 56.5q0 29 21 60t59 55v118h-1q-25 -61 -73.5 -96t-109.5 -35q-88 0 -135.5 57t-47.5 154v276h22v-265q0 -99 43 -149.5t118 -50.5q79 0 131.5 63t52.5 163v239h22v-484q-36 -19 -57.5 -47t-21.5 -57
q0 -54 61 -54q33 0 59 13z" />
    <glyph glyph-name="Wcircumflex" unicode="&#x174;" horiz-adv-x="991" 
d="M494 919l-106 -119h-29l122 136h25l125 -136h-29l-106 119h-2zM932 710h25l-230 -710h-30l-201 677h-1l-202 -677h-29l-230 710h25l219 -676h1l201 676h31l200 -675h2z" />
    <glyph glyph-name="wcircumflex" unicode="&#x175;" horiz-adv-x="752" 
d="M375 679l-106 -119h-29l122 136h25l125 -136h-29l-106 119h-2zM694 484h24l-172 -484h-24l-145 451h-1l-147 -451h-23l-172 484h24l159 -445h2l143 445h26l145 -445h2z" />
    <glyph glyph-name="Ycircumflex" unicode="&#x176;" horiz-adv-x="556" 
d="M277 919l-106 -119h-29l122 136h25l125 -136h-29l-106 119h-2zM510 710h28l-249 -387v-323h-23v323l-248 387h28l230 -360h2z" />
    <glyph glyph-name="ycircumflex" unicode="&#x177;" horiz-adv-x="506" 
d="M254 679l-106 -119h-29l122 136h25l125 -136h-29l-106 119h-2zM450 484h27l-290 -682h-25l86 203l-221 479h27l204 -449h2z" />
    <glyph glyph-name="Ydieresis" unicode="&#x178;" horiz-adv-x="556" 
d="M204 846q-12 0 -20 8t-8 19q0 12 8 19.5t20 7.5q27 0 27 -27q0 -11 -7.5 -19t-19.5 -8zM351 846q-12 0 -20 8t-8 19q0 12 8 19.5t20 7.5q27 0 27 -27q0 -11 -7.5 -19t-19.5 -8zM510 710h28l-249 -387v-323h-23v323l-248 387h28l230 -360h2z" />
    <glyph glyph-name="Zacute" unicode="&#x179;" horiz-adv-x="588" 
d="M372 936l-124 -135h-30l123 135h31zM87 23h438v-23h-469v21l434 664v3h-407v22h437v-23l-433 -662v-2z" />
    <glyph glyph-name="zacute" unicode="&#x17a;" horiz-adv-x="437" 
d="M362 696l-124 -135h-30l123 135h31zM60 22h348v-22h-379v22l342 439v1h-330v22h361v-20l-342 -440v-2z" />
    <glyph glyph-name="Zdotaccent" unicode="&#x17b;" horiz-adv-x="588" 
d="M288 846q-12 0 -20 8t-8 19q0 12 8 19.5t20 7.5q27 0 27 -27q0 -11 -7.5 -19t-19.5 -8zM87 23h438v-23h-469v21l434 664v3h-407v22h437v-23l-433 -662v-2z" />
    <glyph glyph-name="zdotaccent" unicode="&#x17c;" horiz-adv-x="437" 
d="M215 606q-12 0 -20 8t-8 19q0 12 8 19.5t20 7.5q27 0 27 -27q0 -11 -7.5 -19t-19.5 -8zM60 22h348v-22h-379v22l342 439v1h-330v22h361v-20l-342 -440v-2z" />
    <glyph glyph-name="Zcaron" unicode="&#x17d;" horiz-adv-x="588" 
d="M299 800h-25l-122 136h29l105 -118h4l105 118h29zM87 23h438v-23h-469v21l434 664v3h-407v22h437v-23l-433 -662v-2z" />
    <glyph glyph-name="zcaron" unicode="&#x17e;" horiz-adv-x="437" 
d="M226 560h-25l-122 136h29l105 -118h4l105 118h29zM60 22h348v-22h-379v22l342 439v1h-330v22h361v-20l-342 -440v-2z" />
    <glyph glyph-name="longs" unicode="&#x17f;" horiz-adv-x="285" 
d="M105 0v462h-68v22h68v118q0 69 31.5 103.5t85.5 34.5q48 0 95 -26l-4 -22q-44 25 -92 25q-42 0 -68 -27.5t-26 -87.5v-602h-22z" />
    <glyph glyph-name="uni018F" unicode="&#x18f;" horiz-adv-x="693" 
d="M324 714q134 0 221 -101t87 -258q0 -158 -84 -258t-218 -100q-115 0 -198 88.5t-83 244.5v13h559v12q0 148 -79.5 241.5t-204.5 93.5q-44 0 -82.5 -8.5t-55 -15t-46.5 -21.5l-11 21q90 48 195 48zM330 20q117 0 192 84t85 216h-535q3 -133 75.5 -216.5t182.5 -83.5z" />
    <glyph glyph-name="florin" unicode="&#x192;" horiz-adv-x="505" 
d="M79 -91q-67 0 -111 39l15 18q35 -34 97 -34q94 0 108 121l53 390h-79l3 23h79l18 132q19 142 133 142q65 0 110 -39l-14 -17q-40 33 -97 33q-94 0 -110 -121l-16 -130h168l-3 -23h-169l-53 -391q-18 -143 -132 -143z" />
    <glyph glyph-name="uni019D" unicode="&#x19d;" horiz-adv-x="728" 
d="M615 710h23v-710h-23l-502 669h-1v-754q0 -116 -101 -116q-35 0 -63 14l2 24q27 -16 62 -16q77 0 77 94v795h22l503 -670h1v670z" />
    <glyph glyph-name="Ohorn" unicode="&#x1a0;" horiz-adv-x="861" 
d="M788 774h22v-77q0 -76 -24.5 -110t-73.5 -39l-1 -2q49 -85 49 -190q0 -159 -100.5 -259t-247.5 -100q-155 0 -252.5 103.5t-97.5 255.5q0 151 98 254.5t252 103.5q87 0 162 -38t123 -107q46 2 68.5 29t22.5 98v78zM412 20q137 0 231 94t94 242t-94 241t-231 93
q-144 0 -235.5 -96.5t-91.5 -237.5q0 -142 91.5 -239t235.5 -97z" />
    <glyph glyph-name="ohorn" unicode="&#x1a1;" horiz-adv-x="646" 
d="M593 565h22v-77q0 -77 -25 -111t-75 -38v-1q17 -45 17 -96q0 -108 -70 -176.5t-172 -68.5q-107 0 -175 71t-68 174q0 102 68.5 174t174.5 72q70 0 127 -34.5t88 -93.5q44 2 66 29.5t22 97.5v78zM290 19q93 0 156 62.5t63 160.5t-63.5 160.5t-155.5 62.5
q-98 0 -159.5 -64.5t-61.5 -158.5t61.5 -158.5t159.5 -64.5z" />
    <glyph glyph-name="Uhorn" unicode="&#x1af;" horiz-adv-x="738" 
d="M691 774h22v-77q0 -82 -27.5 -115t-83.5 -35v-264q0 -132 -72 -209t-189 -77t-188.5 77t-71.5 209v427h23v-427q0 -123 65 -193t172 -70t172.5 70t65.5 193v427h23v-141q45 2 67 29.5t22 97.5v78z" />
    <glyph glyph-name="uhorn" unicode="&#x1b0;" horiz-adv-x="599" 
d="M546 565h22v-77q0 -81 -27 -114.5t-83 -35.5v-338h-22v128h-1q-25 -61 -73.5 -96t-109.5 -35q-88 0 -135.5 57t-47.5 154v276h22v-265q0 -99 43 -149.5t118 -50.5q79 0 131.5 63t52.5 163v239h22v-124q45 2 66.5 29.5t21.5 97.5v78z" />
    <glyph glyph-name="Gcaron" unicode="&#x1e6;" horiz-adv-x="760" 
d="M415 800h-25l-122 136h29l105 -118h4l105 118h29zM390 341h292v-251q-104 -93 -273 -93q-153 0 -250 99.5t-97 257.5q0 160 97 260t250 100q156 0 258 -99l-16 -16q-95 91 -242 91q-144 0 -234 -93t-90 -243q0 -148 90.5 -241t233.5 -93q155 0 250 81v217h-269v23z" />
    <glyph glyph-name="gcaron" unicode="&#x1e7;" horiz-adv-x="586" 
d="M293 560h-25l-122 136h29l105 -118h4l105 118h29zM491 484h22v-474q0 -97 -57 -154t-164 -57q-106 0 -198 56l7 23q90 -57 192 -57q98 0 148 52.5t50 141.5v131h-1q-26 -62 -80.5 -98t-128.5 -36q-99 0 -166.5 66.5t-67.5 174.5q0 99 65.5 167t169.5 68q70 0 125.5 -35
t82.5 -95h1v126zM281 34q96 0 153 62t57 157q0 94 -59.5 153t-149.5 59q-94 0 -153 -61t-59 -151q0 -98 60.5 -158.5t150.5 -60.5z" />
    <glyph glyph-name="uni01EA" unicode="&#x1ea;" horiz-adv-x="822" 
d="M443 -2q-35 -19 -55.5 -46.5t-20.5 -55.5q0 -54 61 -54q33 0 59 13l4 -23q-26 -13 -63 -13q-39 0 -61.5 19.5t-22.5 56.5q0 55 59 100v2q-151 4 -246 106.5t-95 252.5q0 151 98 254.5t252 103.5q146 0 247 -100t101 -258q0 -150 -90.5 -248t-226.5 -110zM85 356
q0 -142 91.5 -239t235.5 -97q137 0 231 94t94 242t-94 241t-231 93q-144 0 -235.5 -96.5t-91.5 -237.5z" />
    <glyph glyph-name="uni01EB" unicode="&#x1eb;" horiz-adv-x="579" 
d="M315 -2q-35 -19 -55.5 -46.5t-20.5 -55.5q0 -54 61 -54q33 0 59 13l4 -23q-26 -13 -63 -13q-39 0 -61.5 19.5t-22.5 56.5q0 55 60 101v1q-101 5 -165 75.5t-64 169.5q0 102 68.5 174t174.5 72q102 0 172 -69t70 -177q0 -101 -62 -168.5t-155 -75.5zM69 242
q0 -94 61.5 -158.5t159.5 -64.5q93 0 156 62.5t63 160.5t-63.5 160.5t-155.5 62.5q-98 0 -159.5 -64.5t-61.5 -158.5z" />
    <glyph glyph-name="Aringacute" unicode="&#x1fa;" horiz-adv-x="640" 
d="M319 795q-29 0 -51 22t-22 51q0 30 22 51.5t51 21.5q40 0 62 -34l97 62h39l-126 -81l-1 1q3 -9 3 -21q0 -29 -22 -51t-52 -22zM319 919q-21 0 -36 -15t-15 -36q0 -20 15 -35t36 -15t36.5 15t15.5 35q0 21 -15.5 36t-36.5 15zM586 0l-82 211h-368l-82 -211h-25l275 710h29
l278 -710h-25zM144 233h351l-175 449h-2z" />
    <glyph glyph-name="aringacute" unicode="&#x1fb;" horiz-adv-x="591" 
d="M288 555q-29 0 -51 22t-22 51q0 30 22 51.5t51 21.5q37 0 60 -30l90 57h39l-119 -76q4 -11 4 -24q0 -29 -22 -51t-52 -22zM288 679q-21 0 -36 -15t-15 -36q0 -20 15 -35t36 -15t36.5 15t15.5 35q0 21 -15.5 36t-36.5 15zM495 484h22v-484h-22v133h-1q-27 -62 -82 -99
t-127 -37q-101 0 -170.5 67t-69.5 173t67.5 178.5t173.5 72.5q68 0 123.5 -37.5t83.5 -101.5h2v135zM285 19q89 0 149.5 61t60.5 157t-58.5 162t-150.5 66t-155 -63.5t-63 -164.5q0 -92 60.5 -155t156.5 -63z" />
    <glyph glyph-name="AEacute" unicode="&#x1fc;" horiz-adv-x="907" 
d="M586 936l-124 -135h-30l123 135h31zM456 23h409v-23h-432v211h-277l-123 -211h-28l413 710h427v-22h-389v-322h330v-23h-330v-320zM168 233h265v453h-1z" />
    <glyph glyph-name="aeacute" unicode="&#x1fd;" horiz-adv-x="792" 
d="M512 696l-124 -135h-30l123 135h31zM758 243h-376l-1 -18q5 -90 56 -148t124 -58q95 0 158 81l17 -13q-68 -90 -173 -90q-62 0 -112.5 39t-73.5 104h-1q-15 -66 -67.5 -104.5t-123.5 -38.5t-109.5 39.5t-38.5 97.5q0 57 42 93.5t121 36.5l160 1v24q0 97 -25.5 136.5
t-91.5 39.5q-80 0 -153 -42l-11 19q77 46 164 46q66 0 97.5 -33.5t38.5 -102.5h1q24 63 73.5 99.5t112.5 36.5q82 0 137 -66.5t55 -167.5v-11zM566 465q-75 0 -126 -56.5t-58 -143.5h353q-6 91 -52.5 145.5t-116.5 54.5zM185 19q74 0 124.5 46t50.5 129v49l-160 -1
q-59 0 -99.5 -28t-40.5 -80q0 -48 32.5 -81.5t92.5 -33.5z" />
    <glyph glyph-name="Oslashacute" unicode="&#x1fe;" horiz-adv-x="822" 
d="M533 936l-124 -135h-30l123 135h31zM664 609q96 -101 96 -253q0 -159 -100.5 -259t-247.5 -100q-141 0 -237 88l-89 -95l-19 16l91 97q-96 101 -96 253q0 151 98 254.5t252 103.5q139 0 236 -89l81 86l17 -15zM85 356q0 -142 89 -236l458 487q-91 83 -220 83
q-144 0 -235.5 -96.5t-91.5 -237.5zM412 20q137 0 231 94t94 242q0 141 -89 235l-457 -488q89 -83 221 -83z" />
    <glyph glyph-name="oslashacute" unicode="&#x1ff;" horiz-adv-x="579" 
d="M428 696l-124 -135h-30l123 135h31zM532 477l-63 -66q63 -69 63 -169q0 -108 -70 -176.5t-172 -68.5q-93 0 -160 57l-61 -64l-19 16l62 65q-65 71 -65 171q0 102 68.5 174t174.5 72q94 0 163 -60l61 64zM69 242q0 -92 58 -155l310 324q-62 54 -147 54q-98 0 -159.5 -64.5
t-61.5 -158.5zM509 242q0 91 -56 152l-308 -324q59 -51 145 -51q93 0 156 62.5t63 160.5z" />
    <glyph glyph-name="Scommaaccent" unicode="&#x218;" horiz-adv-x="558" 
d="M282 -3q-149 0 -239 107l18 18q37 -50 96.5 -76t126.5 -26q83 0 140.5 40.5t57.5 113.5q0 20 -5 37.5t-11 30t-20.5 25.5t-24.5 20t-32 18t-32.5 15.5t-38 15.5t-38.5 15q-36 14 -51 21t-45.5 21.5t-45 27.5t-32 32.5t-25 42.5t-7.5 51q0 73 56.5 120t145.5 47
q113 0 203 -74l-16 -19q-84 69 -186 69q-72 0 -125.5 -38t-53.5 -105q0 -36 14.5 -63t47 -48.5t56.5 -32.5t71 -30q8 -3 33 -13t33.5 -13.5t30 -13t29.5 -14.5t25 -15.5t23.5 -19t17 -21t15 -25.5t8 -29.5t3.5 -34.5q0 -77 -59.5 -127t-163.5 -50zM214 -199l-8 18
q40 2 54 20.5t14 49.5q0 26 -5 56h22q5 -28 5 -55q0 -84 -82 -89z" />
    <glyph glyph-name="scommaaccent" unicode="&#x219;" horiz-adv-x="415" 
d="M211 -3q-102 0 -177 67l13 18q71 -63 164 -63q64 0 102 30t38 73q0 16 -3 28.5t-13 23t-16.5 17t-25.5 15t-26.5 12t-34 12.5t-34.5 12q-36 13 -56 22t-42.5 24.5t-32.5 36t-10 47.5q0 49 40 82.5t99 33.5q91 0 158 -58l-15 -16q-60 51 -142 51q-50 0 -83.5 -27
t-33.5 -64q0 -23 9 -40.5t29 -30.5t36 -20.5t47 -18.5q8 -3 29 -10.5l28 -10t24.5 -9t23.5 -10.5t19 -11.5t18 -13t13 -14.5t10.5 -18.5t5 -21.5t2.5 -25q-1 -52 -44.5 -87.5t-118.5 -35.5zM129 -199l-8 18q40 2 54 20.5t14 49.5q0 26 -5 56h22q5 -28 5 -55q0 -84 -82 -89z
" />
    <glyph glyph-name="uni021A" unicode="&#x21a;" horiz-adv-x="542" 
d="M258 0v688h-233v22h492v-22h-236v-688h-23zM205 -199l-8 18q40 2 54 20.5t14 49.5q0 26 -5 56h22q5 -28 5 -55q0 -84 -82 -89z" />
    <glyph glyph-name="uni021B" unicode="&#x21b;" horiz-adv-x="354" 
d="M204 -3q-63 0 -85.5 33t-22.5 98v334h-67v22h67v175l22 3v-178h195v-22h-195v-319q0 -64 16 -94t67 -30q54 0 102 32l6 -22q-48 -32 -105 -32zM123 -199l-8 18q40 2 54 20.5t14 49.5q0 26 -5 56h22q5 -28 5 -55q0 -84 -82 -89z" />
    <glyph glyph-name="uni0232" unicode="&#x232;" horiz-adv-x="556" 
d="M412 882v-23h-267v23h267zM510 710h28l-249 -387v-323h-23v323l-248 387h28l230 -360h2z" />
    <glyph glyph-name="uni0233" unicode="&#x233;" horiz-adv-x="506" 
d="M389 642v-23h-267v23h267zM450 484h27l-290 -682h-25l86 203l-221 479h27l204 -449h2z" />
    <glyph glyph-name="uni0237" unicode="&#x237;" horiz-adv-x="176" 
d="M4 -201q-35 0 -63 14l3 24q27 -16 62 -16q77 0 77 94v569h22v-569q0 -116 -101 -116z" />
    <glyph glyph-name="uni0259" unicode="&#x259;" horiz-adv-x="537" 
d="M255 488q103 0 169 -69.5t66 -175.5t-67 -176t-166 -70q-94 0 -153.5 65t-59.5 164q0 12 1 16h422v1q0 96 -59 159t-151 63q-68 0 -152 -42l-11 19q86 46 161 46zM257 19q84 0 142.5 57t66.5 144h-400q5 -91 57 -146t134 -55z" />
    <glyph glyph-name="uni0272" unicode="&#x272;" horiz-adv-x="543" 
d="M306 488q77 0 122 -51.5t45 -144.5v-292h-22v281q0 95 -40 139.5t-105 44.5q-92 0 -147.5 -62t-55.5 -164v-324q0 -116 -101 -116q-35 0 -63 14l2 24q27 -16 62 -16q78 0 78 94v569h22v-129h1q26 63 78.5 98t123.5 35z" />
    <glyph glyph-name="circumflex" unicode="&#x2c6;" horiz-adv-x="530" 
d="M372 547l-106 119h-2l-106 -119h-29l122 136h25l125 -136h-29z" />
    <glyph glyph-name="caron" unicode="&#x2c7;" horiz-adv-x="530" 
d="M372 683h29l-125 -136h-25l-122 136h29l105 -118h4z" />
    <glyph glyph-name="breve" unicode="&#x2d8;" horiz-adv-x="478" 
d="M239 548q-49 0 -83.5 33.5t-38.5 93.5h21q3 -47 30 -76t71 -29q45 0 71.5 29.5t28.5 75.5h22q-4 -60 -38.5 -93.5t-83.5 -33.5z" />
    <glyph glyph-name="dotaccent" unicode="&#x2d9;" horiz-adv-x="481" 
d="M241 593q-12 0 -20 8t-8 19q0 12 8 19.5t20 7.5q27 0 27 -27q0 -11 -7.5 -19t-19.5 -8z" />
    <glyph glyph-name="ring" unicode="&#x2da;" horiz-adv-x="433" 
d="M216 542q-29 0 -51 22t-22 51q0 30 22 51.5t51 21.5q30 0 52 -21.5t22 -51.5q0 -29 -22 -51t-52 -22zM216 565q21 0 36.5 15t15.5 35q0 21 -15.5 36t-36.5 15t-36 -15t-15 -36q0 -20 15 -35t36 -15z" />
    <glyph glyph-name="ogonek" unicode="&#x2db;" horiz-adv-x="467" 
d="M270 -181q-39 0 -61.5 19.5t-22.5 56.5q0 31 22.5 63t64.5 56l15 -14q-36 -19 -57.5 -47t-21.5 -57q0 -54 61 -54q33 0 59 13l4 -23q-26 -13 -63 -13z" />
    <glyph glyph-name="tilde" unicode="&#x2dc;" horiz-adv-x="528" 
d="M342 568q-6 0 -12 1t-11 2.5t-12 5t-10.5 5.5t-11.5 7t-10.5 6.5t-10.5 7.5t-10 7q-38 27 -63 27q-42 0 -64 -61l-21 6q26 77 84 77q32 0 77 -31q4 -3 17 -12l19.5 -13.5t17.5 -8.5t20 -4q19 0 35 15.5t25 46.5l21 -7q-11 -38 -33 -57.5t-47 -19.5z" />
    <glyph glyph-name="hungarumlaut" unicode="&#x2dd;" horiz-adv-x="519" 
d="M120 548l122 135h31l-124 -135h-29zM244 548l122 135h31l-125 -135h-28z" />
    <glyph glyph-name="uni0374" unicode="&#x374;" horiz-adv-x="233" 
d="M49 490l54 230h25l-56 -230h-23z" />
    <glyph glyph-name="uni0375" unicode="&#x375;" horiz-adv-x="210" 
d="M79 -136l54 230h25l-56 -230h-23z" />
    <glyph glyph-name="uni037E" unicode="&#x37e;" horiz-adv-x="174" 
d="M93 437q-13 0 -21 8t-8 21t8 20.5t21 7.5t21 -7.5t8 -20.5t-8 -21t-21 -8zM40 -128l35 218h27l-42 -218h-20z" />
    <glyph glyph-name="tonos" unicode="&#x384;" horiz-adv-x="458" 
d="M195 548l60 153h27l-62 -153h-25z" />
    <glyph glyph-name="dieresistonos" unicode="&#x385;" horiz-adv-x="603" 
d="M282 548l60 153h27l-62 -153h-25zM176 593q-12 0 -19.5 8t-7.5 19q0 27 27 27q12 0 20 -7.5t8 -19.5q0 -11 -8 -19t-20 -8zM429 593q-12 0 -19.5 8t-7.5 19q0 27 27 27q12 0 20 -7.5t8 -19.5q0 -11 -8 -19t-20 -8z" />
    <glyph glyph-name="Alphatonos" unicode="&#x386;" horiz-adv-x="640" 
d="M586 0l-82 211h-368l-82 -211h-25l275 710h29l278 -710h-25zM159 701l-79 -153h-25l77 153h27zM144 233h351l-175 449h-2z" />
    <glyph glyph-name="anoteleia" unicode="&#x387;" horiz-adv-x="172" 
d="M86 437q-13 0 -21 8t-8 21t8 20.5t21 7.5t21 -7.5t8 -20.5t-8 -21t-21 -8z" />
    <glyph glyph-name="Epsilontonos" unicode="&#x388;" horiz-adv-x="565" 
d="M89 0v710h412v-22h-389v-321h327v-23h-327v-321h410v-23h-433zM-111 548l77 153h27l-79 -153h-25z" />
    <glyph glyph-name="Etatonos" unicode="&#x389;" horiz-adv-x="692" 
d="M89 0v710h23v-364h468v364h23v-710h-23v323h-468v-323h-23zM-111 548l77 153h27l-79 -153h-25z" />
    <glyph glyph-name="Iotatonos" unicode="&#x38a;" horiz-adv-x="215" 
d="M96 0v710h23v-710h-23zM-111 548l77 153h27l-79 -153h-25z" />
    <glyph glyph-name="Omicrontonos" unicode="&#x38c;" horiz-adv-x="822" 
d="M412 -3q-155 0 -252.5 103.5t-97.5 255.5q0 151 98 254.5t252 103.5q146 0 247 -100t101 -258q0 -159 -100.5 -259t-247.5 -100zM-32 548l77 153h27l-79 -153h-25zM412 20q137 0 231 94t94 242t-94 241t-231 93q-144 0 -235.5 -96.5t-91.5 -237.5q0 -142 91.5 -239
t235.5 -97z" />
    <glyph glyph-name="Upsilontonos" unicode="&#x38e;" horiz-adv-x="556" 
d="M510 710h28l-249 -387v-323h-23v323l-248 387h28l230 -360h2zM-129 548l77 153h27l-79 -153h-25z" />
    <glyph glyph-name="Omegatonos" unicode="&#x38f;" horiz-adv-x="782" 
d="M508 24v-1h201v-23h-252v23q112 48 176 136t64 205q0 140 -85.5 233t-220.5 93t-220.5 -93t-85.5 -233q0 -117 64.5 -205.5t176.5 -135.5v-23h-253v23h203v1q-100 51 -157 139.5t-57 200.5q0 150 92 249.5t237 99.5t237.5 -100t92.5 -249q0 -112 -56.5 -200.5
t-156.5 -139.5zM-55 548l77 153h27l-79 -153h-25z" />
    <glyph glyph-name="iotadieresistonos" unicode="&#x390;" horiz-adv-x="231" 
d="M87 561l60 153h27l-62 -153h-25zM-19 606q-12 0 -19.5 8t-7.5 19q0 27 27 27q12 0 20 -7.5t8 -19.5q0 -11 -8 -19t-20 -8zM234 606q-12 0 -19.5 8t-7.5 19q0 27 27 27q12 0 20 -7.5t8 -19.5q0 -11 -8 -19t-20 -8zM165 -3q-47 0 -63 28.5t-16 78.5v380h22v-370
q0 -32 2.5 -49t16 -31.5t40.5 -14.5q24 0 51 9l3 -22q-30 -9 -56 -9z" />
    <glyph glyph-name="Alpha" unicode="&#x391;" horiz-adv-x="640" 
d="M586 0l-82 211h-368l-82 -211h-25l275 710h29l278 -710h-25zM144 233h351l-175 449h-2z" />
    <glyph glyph-name="Beta" unicode="&#x392;" horiz-adv-x="610" 
d="M389 370q69 -10 116 -56t47 -126q0 -87 -61.5 -137.5t-183.5 -50.5h-218v710h204q102 0 163.5 -40.5t61.5 -131.5q0 -59 -33.5 -104t-95.5 -62v-2zM112 688v-306h200q34 0 64 8t57.5 25t44 48.5t16.5 74.5q0 150 -209 150h-173zM304 23q104 0 164 41t60 121
q0 83 -56.5 128.5t-160.5 45.5h-199v-336h192z" />
    <glyph glyph-name="Gamma" unicode="&#x393;" horiz-adv-x="530" 
d="M89 0v710h422v-22h-399v-688h-23z" />
    <glyph glyph-name="uni0394" unicode="&#x394;" horiz-adv-x="624" 
d="M325 710l270 -689v-21h-566v21l267 689h29zM55 23h514l-257 659h-2z" />
    <glyph glyph-name="Epsilon" unicode="&#x395;" horiz-adv-x="565" 
d="M89 0v710h412v-22h-389v-321h327v-23h-327v-321h410v-23h-433z" />
    <glyph glyph-name="Zeta" unicode="&#x396;" horiz-adv-x="588" 
d="M87 23h438v-23h-469v21l434 664v3h-407v22h437v-23l-433 -662v-2z" />
    <glyph glyph-name="Eta" unicode="&#x397;" horiz-adv-x="692" 
d="M89 0v710h23v-364h468v364h23v-710h-23v323h-468v-323h-23z" />
    <glyph glyph-name="Theta" unicode="&#x398;" horiz-adv-x="830" 
d="M412 -3q-155 0 -252.5 103.5t-97.5 255.5q0 151 98 254.5t252 103.5q146 0 247 -100t101 -258q0 -159 -100.5 -259t-247.5 -100zM412 20q137 0 231 94t94 242t-94 241t-231 93q-144 0 -235.5 -96.5t-91.5 -237.5q0 -142 91.5 -239t235.5 -97zM197 341v23h431v-23h-431z
" />
    <glyph glyph-name="Iota" unicode="&#x399;" horiz-adv-x="215" 
d="M96 0v710h23v-710h-23z" />
    <glyph glyph-name="Kappa" unicode="&#x39a;" horiz-adv-x="612" 
d="M257 356h-1l-144 -167v-189h-23v710h23v-483h2l418 483h31l-291 -336l296 -374h-30z" />
    <glyph glyph-name="Lambda" unicode="&#x39b;" horiz-adv-x="643" 
d="M587 0l-266 682h-2l-264 -682h-25l275 710h29l279 -710h-26z" />
    <glyph glyph-name="Mu" unicode="&#x39c;" horiz-adv-x="853" 
d="M740 710h23v-710h-23v665h-1l-302 -510h-21l-303 510h-1v-665h-23v710h24l313 -525h2z" />
    <glyph glyph-name="Nu" unicode="&#x39d;" horiz-adv-x="728" 
d="M615 710h23v-710h-23l-502 669h-1v-669h-23v710h22l503 -670h1v670z" />
    <glyph glyph-name="Xi" unicode="&#x39e;" horiz-adv-x="594" 
d="M70 687v23h454v-23h-454zM105 341v23h383v-23h-383zM63 0v24h468v-24h-468z" />
    <glyph glyph-name="Omicron" unicode="&#x39f;" horiz-adv-x="822" 
d="M412 -3q-155 0 -252.5 103.5t-97.5 255.5q0 151 98 254.5t252 103.5q146 0 247 -100t101 -258q0 -159 -100.5 -259t-247.5 -100zM412 20q137 0 231 94t94 242t-94 241t-231 93q-144 0 -235.5 -96.5t-91.5 -237.5q0 -142 91.5 -239t235.5 -97z" />
    <glyph glyph-name="Pi" unicode="&#x3a0;" horiz-adv-x="672" 
d="M89 0v710h494v-710h-23v688h-448v-688h-23z" />
    <glyph glyph-name="Rho" unicode="&#x3a1;" horiz-adv-x="582" 
d="M89 0v710h233q112 0 165.5 -54.5t53.5 -145.5q0 -104 -63.5 -154.5t-173.5 -50.5h-192v-305h-23zM112 328h191q111 0 163 49.5t52 132.5q0 88 -52 133t-138 45h-216v-360z" />
    <glyph glyph-name="Sigma" unicode="&#x3a3;" horiz-adv-x="554" 
d="M508 688h-421v-4l214 -327l-215 -332v-2h422v-23h-452v21l216 336l-216 332v21h452v-22z" />
    <glyph glyph-name="Tau" unicode="&#x3a4;" horiz-adv-x="542" 
d="M258 0v688h-233v22h492v-22h-236v-688h-23z" />
    <glyph glyph-name="Upsilon" unicode="&#x3a5;" horiz-adv-x="556" 
d="M510 710h28l-249 -387v-323h-23v323l-248 387h28l230 -360h2z" />
    <glyph glyph-name="Phi" unicode="&#x3a6;" horiz-adv-x="806" 
d="M749 358q0 -133 -92 -213.5t-243 -83.5v-61h-23v61q-151 3 -242.5 83.5t-91.5 213.5q0 144 90.5 227.5t243.5 86.5v46h23v-46q152 -4 243.5 -87.5t91.5 -226.5zM81 358q0 -121 83.5 -195.5t226.5 -78.5v564q-146 -3 -228 -80.5t-82 -209.5zM414 84q143 3 227 77.5
t84 196.5q0 131 -83 209t-228 81v-564z" />
    <glyph glyph-name="Chi" unicode="&#x3a7;" horiz-adv-x="604" 
d="M572 710l-255 -356l254 -354h-29l-238 330h-1v1l-241 -331h-28l254 354l-255 356h27l242 -335h1l240 335h29z" />
    <glyph glyph-name="Psi" unicode="&#x3a8;" horiz-adv-x="770" 
d="M669 710h23l-1 -252q0 -135 -68.5 -205t-226.5 -71v-182h-23v182q-152 1 -223.5 69.5t-71.5 206.5l1 252h23l-1 -252q0 -122 62.5 -187t209.5 -66v505h23v-505q142 1 207 63t65 190z" />
    <glyph glyph-name="uni03A9" unicode="&#x3a9;" horiz-adv-x="782" 
d="M508 24v-1h201v-23h-252v23q112 48 176 136t64 205q0 140 -85.5 233t-220.5 93t-220.5 -93t-85.5 -233q0 -117 64.5 -205.5t176.5 -135.5v-23h-253v23h203v1q-100 51 -157 139.5t-57 200.5q0 150 92 249.5t237 99.5t237.5 -100t92.5 -249q0 -112 -56.5 -200.5
t-156.5 -139.5z" />
    <glyph glyph-name="Iotadieresis" unicode="&#x3aa;" horiz-adv-x="215" 
d="M-4 846q-12 0 -19.5 8t-7.5 19q0 27 27 27q12 0 20 -7.5t8 -19.5q0 -11 -8 -19t-20 -8zM220 846q-12 0 -19.5 8t-7.5 19q0 27 27 27q28 0 28 -27q0 -11 -8 -19t-20 -8zM96 0v710h23v-710h-23z" />
    <glyph glyph-name="Upsilondieresis" unicode="&#x3ab;" horiz-adv-x="556" 
d="M161 846q-12 0 -19.5 8t-7.5 19q0 27 27 27q12 0 20 -7.5t8 -19.5q0 -11 -8 -19t-20 -8zM385 846q-12 0 -19.5 8t-7.5 19q0 27 27 27q28 0 28 -27q0 -11 -7.5 -19t-20.5 -8zM510 710h28l-249 -387v-323h-23v323l-248 387h28l230 -360h2z" />
    <glyph glyph-name="alphatonos" unicode="&#x3ac;" horiz-adv-x="612" 
d="M372 715l-62 -153h-25l60 153h27zM600 28l3 -22q-20 -9 -47 -9q-73 0 -73 116v33h-1q-28 -67 -83 -108t-126 -41q-95 0 -161.5 67t-66.5 173t65 178.5t169 72.5q74 0 130.5 -42.5t79.5 -115.5h1l11 154h24l-20 -225v-135q0 -23 1.5 -39t6.5 -32.5t16.5 -25t28.5 -8.5
q24 0 42 9zM273 19q81 0 142 61t68 157q0 97 -56 162.5t-148 65.5q-90 0 -151 -63.5t-61 -164.5q0 -92 58 -155t148 -63z" />
    <glyph glyph-name="epsilontonos" unicode="&#x3ad;" horiz-adv-x="448" 
d="M311 715l-62 -153h-25l60 153h27zM226 19q90 0 177 45l10 -20q-97 -47 -188 -47q-81 0 -128.5 32.5t-47.5 97.5q0 42 25 76t71 48q-40 16 -61.5 45t-21.5 60q0 62 44 97t124 35q93 0 184 -50l-8 -20q-91 47 -175 47q-70 0 -108.5 -30t-38.5 -79q0 -36 35 -66.5t100 -30.5
h88v-22h-105q-67 0 -99 -34t-32 -76q0 -53 42 -80.5t113 -27.5z" />
    <glyph glyph-name="etatonos" unicode="&#x3ae;" horiz-adv-x="544" 
d="M355 715l-62 -153h-25l60 153h27zM306 488q77 0 122 -51.5t45 -144.5v-490h-22v479q0 95 -40 139.5t-105 44.5q-92 0 -147.5 -62t-55.5 -164v-239h-22v484h22v-128h1q26 62 78.5 97t123.5 35z" />
    <glyph glyph-name="iotatonos" unicode="&#x3af;" horiz-adv-x="231" 
d="M88 561l60 153h27l-62 -153h-25zM165 -3q-47 0 -63 28.5t-16 78.5v380h22v-370q0 -32 2.5 -49t16 -31.5t40.5 -14.5q24 0 51 9l3 -22q-30 -9 -56 -9z" />
    <glyph glyph-name="upsilondieresistonos" unicode="&#x3b0;" horiz-adv-x="539" 
d="M252 562l60 153h27l-62 -153h-25zM146 607q-12 0 -19.5 8t-7.5 19q0 27 27 27q12 0 20 -7.5t8 -19.5q0 -11 -8 -19t-20 -8zM399 607q-12 0 -19.5 8t-7.5 19q0 27 27 27q12 0 20 -7.5t8 -19.5q0 -11 -8 -19t-20 -8zM270 -3q-90 0 -144.5 60t-54.5 169v258h22v-248
q0 -111 50 -164t127 -53q82 0 129 52t47 165v248h22v-258q0 -111 -52 -170t-146 -59z" />
    <glyph glyph-name="alpha" unicode="&#x3b1;" horiz-adv-x="612" 
d="M600 28l3 -22q-20 -9 -47 -9q-73 0 -73 116v33h-1q-28 -67 -83 -108t-126 -41q-95 0 -161.5 67t-66.5 173t65 178.5t169 72.5q74 0 130.5 -42.5t79.5 -115.5h1l11 154h24l-20 -225v-135q0 -23 1.5 -39t6.5 -32.5t16.5 -25t28.5 -8.5q24 0 42 9zM273 19q81 0 142 61
t68 157q0 97 -56 162.5t-148 65.5q-90 0 -151 -63.5t-61 -164.5q0 -92 58 -155t148 -63z" />
    <glyph glyph-name="beta" unicode="&#x3b2;" horiz-adv-x="560" 
d="M364 396q73 -20 112.5 -71.5t39.5 -120.5q0 -90 -59.5 -148.5t-157.5 -58.5q-68 0 -119 33.5t-76 90.5h-1v-319h-22v701q0 118 56.5 177.5t152.5 59.5q82 0 134.5 -49t52.5 -124q0 -53 -25 -101.5t-88 -68.5v-1zM299 19q89 0 141.5 52.5t52.5 132.5q0 79 -53.5 129.5
t-154.5 50.5h-44v23h42q43 1 75 12t50 27t29 38.5t14.5 42t3.5 40.5q0 65 -45.5 107.5t-119.5 42.5q-87 0 -137 -53t-50 -161v-279q0 -88 53.5 -146.5t142.5 -58.5z" />
    <glyph glyph-name="gamma" unicode="&#x3b3;" horiz-adv-x="496" 
d="M465 484l-205 -502q3 -12 4.5 -23t1.5 -28v-30v-44v-55h-23v44.5v41.5t-0.5 32.5t-2 31.5t-4.5 25t-8 25l-198 482h26l191 -468h2l191 468h25z" />
    <glyph glyph-name="delta" unicode="&#x3b4;" horiz-adv-x="565" 
d="M325 482q84 -28 138.5 -87.5t54.5 -157.5q0 -106 -69 -173t-168 -67q-101 0 -167.5 69.5t-66.5 170.5q0 93 53 156t140 96q-119 43 -119 128q0 54 43 88.5t118 34.5q100 0 188 -50l-7 -20q-89 47 -180 47q-66 0 -103 -27.5t-37 -70.5q0 -69 99 -109q9 -4 83 -28zM281 19
q90 0 152.5 60.5t62.5 157.5q0 180 -218 238l-8 2q-93 -29 -146.5 -91.5t-53.5 -148.5q0 -93 59.5 -155.5t151.5 -62.5z" />
    <glyph glyph-name="epsilon" unicode="&#x3b5;" horiz-adv-x="448" 
d="M226 19q90 0 177 45l10 -20q-97 -47 -188 -47q-81 0 -128.5 32.5t-47.5 97.5q0 42 25 76t71 48q-40 16 -61.5 45t-21.5 60q0 62 44 97t124 35q93 0 184 -50l-8 -20q-91 47 -175 47q-70 0 -108.5 -30t-38.5 -79q0 -36 35 -66.5t100 -30.5h88v-22h-105q-67 0 -99 -34
t-32 -76q0 -53 42 -80.5t113 -27.5z" />
    <glyph glyph-name="zeta" unicode="&#x3b6;" horiz-adv-x="434" 
d="M442 716q-164 -118 -266.5 -243.5t-103.5 -235.5q0 -27 6 -49.5t13.5 -38.5t26 -31.5t31.5 -25t43 -22t47 -19t55 -20.5q6 -2 22.5 -8t21.5 -8t18.5 -7t18 -8.5t14 -9.5t12.5 -11.5t8 -13t6.5 -16t1.5 -19.5q0 -58 -57 -128l-22 10q57 72 57 116q0 30 -18.5 43t-71.5 32
q-13 4 -20 7q-54 20 -80.5 31t-62.5 31t-52.5 40.5t-28.5 52t-12 72.5q1 111 97 234.5t254 241.5v1h-327v22h369v-20z" />
    <glyph glyph-name="eta" unicode="&#x3b7;" horiz-adv-x="544" 
d="M306 488q77 0 122 -51.5t45 -144.5v-490h-22v479q0 95 -40 139.5t-105 44.5q-92 0 -147.5 -62t-55.5 -164v-239h-22v484h22v-128h1q26 62 78.5 97t123.5 35z" />
    <glyph glyph-name="theta" unicode="&#x3b8;" horiz-adv-x="562" 
d="M281 740q106 0 169.5 -91.5t63.5 -279.5q0 -168 -57 -270t-176 -102q-106 0 -170 92t-64 280q0 81 13 146.5t40.5 117t73.5 79.5t107 28zM281 717q-104 0 -155.5 -87t-55.5 -239h422q-4 167 -61 246.5t-150 79.5zM281 19q108 0 159.5 95t51.5 255h-422q0 -178 57.5 -264
t153.5 -86z" />
    <glyph glyph-name="iota" unicode="&#x3b9;" horiz-adv-x="231" 
d="M165 -3q-47 0 -63 28.5t-16 78.5v380h22v-370q0 -32 2.5 -49t16 -31.5t40.5 -14.5q24 0 51 9l3 -22q-30 -9 -56 -9z" />
    <glyph glyph-name="kappa" unicode="&#x3ba;" horiz-adv-x="526" 
d="M481 0l-214 267l-164 -151v-116h-22v484h22v-335h2l367 335h32l-220 -201l227 -283h-30z" />
    <glyph glyph-name="lambda" unicode="&#x3bb;" horiz-adv-x="526" 
d="M464 0l-173 456h-1l-229 -456h-25l243 487l-41 104q-26 64 -52 95t-72 31q-20 0 -44 -7l-2 22q20 8 45 8q53 0 86 -36.5t60 -104.5q161 -411 229 -599h-24z" />
    <glyph glyph-name="uni03BC" unicode="&#x3bc;" horiz-adv-x="549" 
d="M447 484h22v-484h-20l-3 125h-2q-25 -60 -73 -94t-108 -34q-116 0 -160 100l-1 -1q0 -19 0.5 -57t0.5 -57v-180h-22v682h22v-265q0 -99 43 -149.5t117 -50.5q79 0 131.5 63t52.5 163v239z" />
    <glyph glyph-name="nu" unicode="&#x3bd;" horiz-adv-x="494" 
d="M439 484h25l-205 -484h-22l-208 484h26l192 -449h2z" />
    <glyph glyph-name="xi" unicode="&#x3be;" horiz-adv-x="445" 
d="M271 717q-67 1 -114 -42.5t-47 -108.5q0 -78 54 -114t134 -36h82v-22h-99q-95 0 -153 -52t-58 -121q0 -65 45 -105t125 -68q116 -40 142 -57q37 -25 36 -66q-1 -51 -58 -123l-22 10q57 71 57 112q1 32 -25.5 48t-118.5 48q-3 1 -5 1.5t-5 1.5t-5.5 2t-5.5 2
q-86 30 -134.5 75.5t-48.5 118.5q0 64 43.5 115.5t117.5 69.5v1q-121 37 -121 157q0 77 52.5 126.5t132.5 49.5q81 0 169 -50l-7 -20q-89 47 -163 47z" />
    <glyph glyph-name="omicron" unicode="&#x3bf;" horiz-adv-x="565" 
d="M283 -3q-106 0 -172 71t-66 174t66 174.5t172 71.5q102 0 169.5 -69t67.5 -177t-67.5 -176.5t-169.5 -68.5zM283 19q93 0 154 62t61 161q0 98 -61.5 160.5t-153.5 62.5q-97 0 -156.5 -64.5t-59.5 -158.5t59.5 -158.5t156.5 -64.5z" />
    <glyph glyph-name="pi" unicode="&#x3c0;" horiz-adv-x="590" 
d="M574 484v-22h-114v-463h-22v463h-300v-462h-22v462h-96v22h554z" />
    <glyph glyph-name="rho" unicode="&#x3c1;" horiz-adv-x="579" 
d="M295 488q106 0 172 -72.5t66 -178.5t-68 -173t-169 -67q-72 0 -125.5 36.5t-79.5 97.5h-1v-329h-22v435q0 111 65.5 181t161.5 70zM296 19q96 0 155 63t59 155q0 101 -61.5 164.5t-153.5 63.5q-91 0 -148 -65.5t-57 -162.5t59 -157.5t147 -60.5z" />
    <glyph glyph-name="uni03C2" unicode="&#x3c2;" horiz-adv-x="483" 
d="M355 -198l-22 9q59 67 59 107q0 33 -22.5 49.5t-88.5 43.5q-60 24 -96 42.5t-71 47.5t-51 68t-16 91q0 99 62.5 163.5t163.5 64.5q47 0 95 -20t83 -57l-17 -17q-28 32 -71.5 51.5t-89.5 19.5q-91 0 -147 -58t-56 -147q0 -38 11.5 -69t28 -52t48 -41.5t59 -33.5t73.5 -32
q76 -32 95 -48q30 -25 30 -64q0 -52 -60 -118z" />
    <glyph glyph-name="sigma" unicode="&#x3c3;" horiz-adv-x="562" 
d="M546 462h-171v-1q135 -78 135 -224q0 -101 -65.5 -170.5t-168.5 -69.5q-98 0 -164.5 66.5t-66.5 173.5q0 104 66 175.5t172 71.5h263v-22zM488 237q0 76 -42.5 134t-118.5 91h-44q-97 0 -156.5 -65t-59.5 -160q0 -97 60.5 -157.5t148.5 -60.5q93 0 152.5 62.5t59.5 155.5
z" />
    <glyph glyph-name="tau" unicode="&#x3c4;" horiz-adv-x="438" 
d="M267 -3q-63 0 -83 30t-20 96v339h-159v22h398v-22h-217v-324q0 -64 14 -91.5t64 -27.5q61 0 115 34l6 -22q-54 -34 -118 -34z" />
    <glyph glyph-name="upsilon" unicode="&#x3c5;" horiz-adv-x="539" 
d="M270 -3q-90 0 -144.5 60t-54.5 169v258h22v-248q0 -111 50 -164t127 -53q82 0 129 52t47 165v248h22v-258q0 -111 -52 -170t-146 -59z" />
    <glyph glyph-name="phi" unicode="&#x3c6;" horiz-adv-x="667" 
d="M442 488q77 0 127 -65t50 -162q0 -112 -76.5 -188t-204.5 -76v-195h-22v195q-116 0 -192 66t-76 179q0 136 107 250l18 -11q-102 -112 -102 -239q0 -103 68.5 -163t176.5 -60v286q0 94 37.5 138.5t88.5 44.5zM338 19q120 0 189.5 69t69.5 173q0 84 -41 144t-112 60
q-43 0 -74.5 -38t-31.5 -121v-287z" />
    <glyph glyph-name="chi" unicode="&#x3c7;" horiz-adv-x="494" 
d="M478 -176l2 -22q-11 -3 -21 -3q-30 0 -50 18t-38 56l-125 258h-1l-194 -329h-27l210 355l-117 244q-31 64 -71 64q-5 0 -17 -2l-3 22q12 3 21 3q30 0 50.5 -18t38.5 -56l111 -233h1l180 303h27l-195 -328l130 -271q30 -64 70 -64q8 0 18 3z" />
    <glyph glyph-name="psi" unicode="&#x3c8;" horiz-adv-x="661" 
d="M571 484h22v-258q0 -110 -66.5 -169t-189.5 -60v-195h-22v195q-116 0 -181.5 59.5t-65.5 169.5v258h22v-247q0 -113 61.5 -165.5t163.5 -52.5v606h22v-606q108 1 171 53t63 165v247z" />
    <glyph glyph-name="omega" unicode="&#x3c9;" horiz-adv-x="731" 
d="M579 492q106 -113 106 -254q0 -106 -46 -173.5t-123 -67.5q-118 0 -149 140h-1q-31 -140 -149 -140q-76 0 -122.5 67.5t-46.5 173.5q0 140 107 254l18 -11q-102 -112 -102 -243q0 -100 41.5 -159.5t104.5 -59.5q139 0 139 226v118h21v-118q0 -226 139 -226
q64 0 105.5 59.5t41.5 159.5q0 130 -103 243z" />
    <glyph glyph-name="iotadieresis" unicode="&#x3ca;" horiz-adv-x="231" 
d="M-19 606q-12 0 -19.5 8t-7.5 19q0 27 27 27q12 0 20 -7.5t8 -19.5q0 -11 -8 -19t-20 -8zM205 606q-12 0 -19.5 8t-7.5 19q0 27 27 27q28 0 28 -27q0 -11 -7.5 -19t-20.5 -8zM165 -3q-47 0 -63 28.5t-16 78.5v380h22v-370q0 -32 2.5 -49t16 -31.5t40.5 -14.5q24 0 51 9
l3 -22q-30 -9 -56 -9z" />
    <glyph glyph-name="upsilondieresis" unicode="&#x3cb;" horiz-adv-x="539" 
d="M155 607q-12 0 -19.5 8t-7.5 19q0 27 27 27q12 0 20 -7.5t8 -19.5q0 -11 -8 -19t-20 -8zM379 607q-12 0 -19.5 8t-7.5 19q0 27 27 27q28 0 28 -27q0 -12 -7.5 -19.5t-20.5 -7.5zM270 -3q-90 0 -144.5 60t-54.5 169v258h22v-248q0 -111 50 -164t127 -53q82 0 129 52
t47 165v248h22v-258q0 -111 -52 -170t-146 -59z" />
    <glyph glyph-name="omicrontonos" unicode="&#x3cc;" horiz-adv-x="565" 
d="M272 562l60 153h27l-62 -153h-25zM283 -3q-106 0 -172 71t-66 174t66 174.5t172 71.5q102 0 169.5 -69t67.5 -177t-67.5 -176.5t-169.5 -68.5zM283 19q93 0 154 62t61 161q0 98 -61.5 160.5t-153.5 62.5q-97 0 -156.5 -64.5t-59.5 -158.5t59.5 -158.5t156.5 -64.5z" />
    <glyph glyph-name="upsilontonos" unicode="&#x3cd;" horiz-adv-x="539" 
d="M262 562l60 153h27l-62 -153h-25zM270 -3q-90 0 -144.5 60t-54.5 169v258h22v-248q0 -111 50 -164t127 -53q82 0 129 52t47 165v248h22v-258q0 -111 -52 -170t-146 -59z" />
    <glyph glyph-name="omegatonos" unicode="&#x3ce;" horiz-adv-x="731" 
d="M443 715l-62 -153h-25l60 153h27zM579 492q106 -113 106 -254q0 -106 -46 -173.5t-123 -67.5q-118 0 -149 140h-1q-31 -140 -149 -140q-76 0 -122.5 67.5t-46.5 173.5q0 140 107 254l18 -11q-102 -112 -102 -243q0 -100 41.5 -159.5t104.5 -59.5q139 0 139 226v118h21
v-118q0 -226 139 -226q64 0 105.5 59.5t41.5 159.5q0 130 -103 243z" />
    <glyph glyph-name="uni03D7" unicode="&#x3d7;" horiz-adv-x="551" 
d="M362 104q70 -73 155 -91v-10q-73 -114 -150 -166.5t-174 -52.5q-106 0 -184 48l4 24q76 -49 180 -49q87 0 156.5 45.5t136.5 145.5v1q-82 29 -138 87q-64 66 -99 170h-2l-144 -148v-108h-22v484h22v-341h2l333 341h32l-205 -210q33 -101 97 -170z" />
    <glyph glyph-name="Wgrave" unicode="&#x1e80;" horiz-adv-x="991" 
d="M508 801h-29l-124 135h30zM932 710h25l-230 -710h-30l-201 677h-1l-202 -677h-29l-230 710h25l219 -676h1l201 676h31l200 -675h2z" />
    <glyph glyph-name="wgrave" unicode="&#x1e81;" horiz-adv-x="752" 
d="M388 561h-29l-124 135h30zM694 484h24l-172 -484h-24l-145 451h-1l-147 -451h-23l-172 484h24l159 -445h2l143 445h26l145 -445h2z" />
    <glyph glyph-name="Wacute" unicode="&#x1e82;" horiz-adv-x="991" 
d="M639 936l-124 -135h-30l123 135h31zM932 710h25l-230 -710h-30l-201 677h-1l-202 -677h-29l-230 710h25l219 -676h1l201 676h31l200 -675h2z" />
    <glyph glyph-name="wacute" unicode="&#x1e83;" horiz-adv-x="752" 
d="M514 696l-124 -135h-30l123 135h31zM694 484h24l-172 -484h-24l-145 451h-1l-147 -451h-23l-172 484h24l159 -445h2l143 445h26l145 -445h2z" />
    <glyph glyph-name="Wdieresis" unicode="&#x1e84;" horiz-adv-x="991" 
d="M421 846q-12 0 -20 8t-8 19q0 12 8 19.5t20 7.5q27 0 27 -27q0 -11 -7.5 -19t-19.5 -8zM568 846q-12 0 -20 8t-8 19q0 12 8 19.5t20 7.5q27 0 27 -27q0 -11 -7.5 -19t-19.5 -8zM932 710h25l-230 -710h-30l-201 677h-1l-202 -677h-29l-230 710h25l219 -676h1l201 676h31
l200 -675h2z" />
    <glyph glyph-name="wdieresis" unicode="&#x1e85;" horiz-adv-x="752" 
d="M302 606q-12 0 -20 8t-8 19q0 12 8 19.5t20 7.5q27 0 27 -27q0 -11 -7.5 -19t-19.5 -8zM449 606q-12 0 -20 8t-8 19q0 12 8 19.5t20 7.5q27 0 27 -27q0 -11 -7.5 -19t-19.5 -8zM694 484h24l-172 -484h-24l-145 451h-1l-147 -451h-23l-172 484h24l159 -445h2l143 445h26
l145 -445h2z" />
    <glyph glyph-name="uni1E9E" unicode="&#x1e9e;" horiz-adv-x="695" 
d="M435 373q8 -3 33 -13t33.5 -13.5t30 -13t30 -14.5t25 -15.5t23.5 -19t17.5 -21t15 -25.5t8 -29.5t3.5 -34.5q0 -77 -60 -127t-163 -50q-143 0 -233 100l13 23q38 -49 97 -74.5t125 -25.5q82 0 139.5 40.5t57.5 113.5q0 20 -5 37.5t-11 30t-20.5 25.5t-24.5 20.5t-31.5 18
t-32.5 15t-38 15t-38 15.5q-59 24 -85 37l154 279q-97 23 -214 23q-105 0 -153 -42.5t-48 -133.5v-514h-23v517q0 100 54 148.5t167 48.5q120 0 251 -32l-9 -17v-2l-2 -1l-144 -264v-1z" />
    <glyph glyph-name="uni1EA0" unicode="&#x1ea0;" horiz-adv-x="640" 
d="M611 0h-25l-82 211h-368l-82 -211h-25l275 710h29zM144 233h351l-175 449h-2zM319 -134q12 0 20 -8t8 -19q0 -12 -8 -19.5t-20 -7.5q-27 0 -27 27q0 11 7.5 19t19.5 8z" />
    <glyph glyph-name="uni1EA1" unicode="&#x1ea1;" horiz-adv-x="591" 
d="M495 484h22v-484h-22v133h-1q-27 -62 -82 -99t-127 -37q-101 0 -170.5 67t-69.5 173t67.5 178.5t173.5 72.5q68 0 123.5 -37.5t83.5 -101.5h2v135zM285 19q89 0 149.5 61t60.5 157t-58.5 162t-150.5 66t-155 -63.5t-63 -164.5q0 -92 60.5 -155t156.5 -63zM289 -134
q12 0 20 -8t8 -19q0 -12 -8 -19.5t-20 -7.5q-27 0 -27 27q0 11 7.5 19t19.5 8z" />
    <glyph glyph-name="uni1EA2" unicode="&#x1ea2;" horiz-adv-x="640" 
d="M323 927q-44 0 -67 -32l-16 13q37 41 87 41q34 0 54.5 -19t20.5 -48q0 -18 -13 -34t-27.5 -25t-38.5 -21l-2 -29h-16q-6 11 -6 22t12.5 21t28 17.5t28 20.5t12.5 27q0 23 -17.5 34.5t-39.5 11.5zM586 0l-82 211h-368l-82 -211h-25l275 710h29l278 -710h-25zM144 233h351
l-175 449h-2z" />
    <glyph glyph-name="uni1EA3" unicode="&#x1ea3;" horiz-adv-x="591" 
d="M290 687q-44 0 -67 -32l-16 13q37 41 87 41q34 0 54.5 -19t20.5 -48q0 -18 -13 -34t-27.5 -25t-38.5 -21l-2 -29h-16q-6 11 -6 22q0 13 20 25.5t40.5 27.5t20.5 33q0 23 -17.5 34.5t-39.5 11.5zM495 484h22v-484h-22v133h-1q-27 -62 -82 -99t-127 -37q-101 0 -170.5 67
t-69.5 173t67.5 178.5t173.5 72.5q68 0 123.5 -37.5t83.5 -101.5h2v135zM285 19q89 0 149.5 61t60.5 157t-58.5 162t-150.5 66t-155 -63.5t-63 -164.5q0 -92 60.5 -155t156.5 -63z" />
    <glyph glyph-name="uni1EA4" unicode="&#x1ea4;" horiz-adv-x="640" 
d="M592 943l-125 -135h-29l123 135h31zM320 885l-106 -119h-29l122 136h25l125 -136h-29l-106 119h-2zM586 0l-82 211h-368l-82 -211h-25l275 710h29l278 -710h-25zM144 233h351l-175 449h-2z" />
    <glyph glyph-name="uni1EA5" unicode="&#x1ea5;" horiz-adv-x="591" 
d="M534 775l-124 -135h-30l123 135h31zM288 680l-106 -119h-29l122 136h25l125 -136h-29l-106 119h-2zM495 349v135h22v-484h-22v133h-1q-27 -62 -82 -99t-127 -37q-101 0 -170.5 67t-69.5 173t67.5 178.5t173.5 72.5q68 0 123.5 -37.5t83.5 -101.5h2zM285 19q89 0 149.5 61
t60.5 157t-58.5 162t-150.5 66t-155 -63.5t-63 -164.5q0 -92 60.5 -155t156.5 -63z" />
    <glyph glyph-name="uni1EA6" unicode="&#x1ea6;" horiz-adv-x="640" 
d="M517 809h-29l-125 134h31zM319 885l-106 -119h-29l122 136h25l125 -136h-29l-106 119h-2zM586 0l-82 211h-368l-82 -211h-25l275 710h29l278 -710h-25zM144 233h351l-175 449h-2z" />
    <glyph glyph-name="uni1EA7" unicode="&#x1ea7;" horiz-adv-x="591" 
d="M460 640h-29l-125 135h31zM284 681l-106 -119h-29l122 136h25l125 -136h-29l-106 119h-2zM495 484h22v-484h-22v133h-1q-27 -62 -82 -99t-127 -37q-101 0 -170.5 67t-69.5 173t67.5 178.5t173.5 72.5q68 0 123.5 -37.5t83.5 -101.5h2v135zM285 19q89 0 149.5 61t60.5 157
t-58.5 162t-150.5 66t-155 -63.5t-63 -164.5q0 -92 60.5 -155t156.5 -63z" />
    <glyph glyph-name="uni1EA8" unicode="&#x1ea8;" horiz-adv-x="640" 
d="M483 927q-44 0 -67 -32l-15 13q37 41 86 41q34 0 54.5 -19t20.5 -48q0 -18 -13 -34t-27.5 -25t-38.5 -21l-2 -29h-15q-7 13 -7 22q0 11 12.5 21t28 17.5t28 20.5t12.5 27q0 23 -17.5 34.5t-39.5 11.5zM319 885l-106 -119h-29l122 136h25l125 -136h-29l-106 119h-2zM586 0
l-82 211h-368l-82 -211h-25l275 710h29l278 -710h-25zM144 233h351l-175 449h-2z" />
    <glyph glyph-name="uni1EA9" unicode="&#x1ea9;" horiz-adv-x="591" 
d="M418 769q-43 0 -68 -32l-15 13q36 41 87 41q34 0 54.5 -19t20.5 -48q0 -18 -13 -34t-27.5 -25t-38.5 -21l-2 -28h-16q-7 11 -7 21q0 14 20.5 26.5t41 27t20.5 32.5q0 24 -17.5 35t-39.5 11zM285 679l-106 -119h-29l122 136h25l125 -136h-29l-106 119h-2zM495 484h22v-484
h-22v133h-1q-27 -62 -82 -99t-127 -37q-101 0 -170.5 67t-69.5 173t67.5 178.5t173.5 72.5q68 0 123.5 -37.5t83.5 -101.5h2v135zM285 19q89 0 149.5 61t60.5 157t-58.5 162t-150.5 66t-155 -63.5t-63 -164.5q0 -92 60.5 -155t156.5 -63z" />
    <glyph glyph-name="uni1EAA" unicode="&#x1eaa;" horiz-adv-x="640" 
d="M250 933q-40 0 -57 -51l-19 6q20 65 75 65q29 0 74 -31q38 -25 62 -25q41 0 55 50l19 -7q-18 -64 -73 -64q-30 0 -73 29q-44 28 -63 28zM305 853h25l125 -121h-30l-105 104h-2l-106 -104h-29zM586 0l-82 211h-368l-82 -211h-25l275 710h29l278 -710h-25zM144 233h351
l-175 449h-2z" />
    <glyph glyph-name="uni1EAB" unicode="&#x1eab;" horiz-adv-x="591" 
d="M212 791q-42 0 -64 -61l-21 6q26 77 84 77q32 0 77 -31q4 -3 17 -12l19.5 -13.5t17.5 -8.5t20 -4q19 0 35 15.5t25 46.5l21 -7q-11 -38 -33 -57.5t-47 -19.5q-6 0 -12 1t-11 2.5t-12 5t-10.5 5.5t-11.5 7t-10.5 6.5t-10.5 7.5t-10 7q-38 27 -63 27zM274 696h25l125 -136
h-29l-106 119h-2l-106 -119h-29zM495 484h22v-484h-22v133h-1q-27 -62 -82 -99t-127 -37q-101 0 -170.5 67t-69.5 173t67.5 178.5t173.5 72.5q68 0 123.5 -37.5t83.5 -101.5h2v135zM285 19q89 0 149.5 61t60.5 157t-58.5 162t-150.5 66t-155 -63.5t-63 -164.5
q0 -92 60.5 -155t156.5 -63z" />
    <glyph glyph-name="uni1EAC" unicode="&#x1eac;" horiz-adv-x="640" 
d="M319 919l-106 -119h-29l122 136h25l125 -136h-29l-106 119h-2zM611 0h-25l-82 211h-368l-82 -211h-25l275 710h29zM144 233h351l-175 449h-2zM319 -134q12 0 20 -8t8 -19q0 -12 -8 -19.5t-20 -7.5q-27 0 -27 27q0 11 7.5 19t19.5 8z" />
    <glyph glyph-name="uni1EAD" unicode="&#x1ead;" horiz-adv-x="591" 
d="M286 679l-106 -119h-29l122 136h25l125 -136h-29l-106 119h-2zM495 484h22v-484h-22v133h-1q-27 -62 -82 -99t-127 -37q-101 0 -170.5 67t-69.5 173t67.5 178.5t173.5 72.5q68 0 123.5 -37.5t83.5 -101.5h2v135zM285 19q89 0 149.5 61t60.5 157t-58.5 162t-150.5 66
t-155 -63.5t-63 -164.5q0 -92 60.5 -155t156.5 -63zM289 -134q12 0 20 -8t8 -19q0 -12 -8 -19.5t-20 -7.5q-27 0 -27 27q0 11 7.5 19t19.5 8z" />
    <glyph glyph-name="uni1EAE" unicode="&#x1eae;" horiz-adv-x="640" 
d="M488 942l-154 -107h-37l153 108zM320 757q-89 0 -127 93h22q38 -71 105 -71t105 71h22q-38 -93 -127 -93zM586 0l-82 211h-368l-82 -211h-25l275 710h29l278 -710h-25zM144 233h351l-175 449h-2z" />
    <glyph glyph-name="uni1EAF" unicode="&#x1eaf;" horiz-adv-x="591" 
d="M397 832l-124 -135h-30l123 135h31zM287 561q-49 0 -83.5 33.5t-38.5 93.5h21q3 -47 30 -76t71 -29q45 0 71.5 29.5t28.5 75.5h22q-4 -60 -38.5 -93.5t-83.5 -33.5zM495 484h22v-484h-22v133h-1q-27 -62 -82 -99t-127 -37q-101 0 -170.5 67t-69.5 173t67.5 178.5
t173.5 72.5q68 0 123.5 -37.5t83.5 -101.5h2v135zM285 19q89 0 149.5 61t60.5 157t-58.5 162t-150.5 66t-155 -63.5t-63 -164.5q0 -92 60.5 -155t156.5 -63z" />
    <glyph glyph-name="uni1EB0" unicode="&#x1eb0;" horiz-adv-x="640" 
d="M346 835h-36l-155 107l38 1zM215 850q36 -71 105 -71q66 0 104 71h22q-37 -93 -126 -93q-90 0 -127 93h22zM586 0l-82 211h-368l-82 -211h-25l275 710h29l278 -710h-25zM144 233h351l-175 449h-2z" />
    <glyph glyph-name="uni1EB1" unicode="&#x1eb1;" horiz-adv-x="591" 
d="M299 697h-29l-124 135h30zM185 688q3 -47 30 -76t71 -29q45 0 71.5 29.5t28.5 75.5h22q-4 -60 -38.5 -93.5t-83.5 -33.5t-83.5 33.5t-38.5 93.5h21zM495 484h22v-484h-22v133h-1q-27 -62 -82 -99t-127 -37q-101 0 -170.5 67t-69.5 173t67.5 178.5t173.5 72.5
q68 0 123.5 -37.5t83.5 -101.5h2v135zM285 19q89 0 149.5 61t60.5 157t-58.5 162t-150.5 66t-155 -63.5t-63 -164.5q0 -92 60.5 -155t156.5 -63z" />
    <glyph glyph-name="uni1EB2" unicode="&#x1eb2;" horiz-adv-x="640" 
d="M327 937q-43 0 -67 -33l-15 14q37 41 86 41q25 0 43 -14.5t18 -38.5q0 -13 -7.5 -25.5t-15 -19t-23 -16.5t-19.5 -14l-2 -29h-15q-7 13 -7 22q0 14 16.5 25.5t33 24.5t16.5 31q0 32 -42 32zM319 757q-89 0 -127 93h22q38 -71 105 -71t105 71h22q-38 -93 -127 -93zM586 0
l-82 211h-368l-82 -211h-25l275 710h29l278 -710h-25zM144 233h351l-175 449h-2z" />
    <glyph glyph-name="uni1EB3" unicode="&#x1eb3;" horiz-adv-x="591" 
d="M289 823q-44 0 -67 -32l-16 13q37 41 87 41q34 0 54.5 -19t20.5 -48q0 -18 -13 -34t-27.5 -25t-38.5 -21l-2 -29h-16q-6 11 -6 22t12.5 21t28 17.5t28 20.5t12.5 27q0 23 -17.5 34.5t-39.5 11.5zM286 561q-49 0 -83.5 33.5t-38.5 93.5h21q3 -47 30 -76t71 -29
q45 0 71.5 29.5t28.5 75.5h22q-4 -60 -38.5 -93.5t-83.5 -33.5zM495 484h22v-484h-22v133h-1q-27 -62 -82 -99t-127 -37q-101 0 -170.5 67t-69.5 173t67.5 178.5t173.5 72.5q68 0 123.5 -37.5t83.5 -101.5h2v135zM285 19q89 0 149.5 61t60.5 157t-58.5 162t-150.5 66
t-155 -63.5t-63 -164.5q0 -92 60.5 -155t156.5 -63z" />
    <glyph glyph-name="uni1EB4" unicode="&#x1eb4;" horiz-adv-x="640" 
d="M250 933q-41 0 -57 -51l-20 6q20 65 75 65q30 0 75 -31q37 -25 62 -25q40 0 54 50l19 -7q-18 -64 -72 -64q-31 0 -74 29q-42 28 -62 28zM320 779q67 0 105 71h22q-38 -93 -127 -93q-90 0 -127 93h22q38 -71 105 -71zM586 0l-82 211h-368l-82 -211h-25l275 710h29
l278 -710h-25zM144 233h351l-175 449h-2z" />
    <glyph glyph-name="uni1EB5" unicode="&#x1eb5;" horiz-adv-x="591" 
d="M213 786q-42 0 -64 -61l-21 6q26 77 84 77q32 0 77 -31q4 -3 17 -12l19.5 -13.5t17.5 -8.5t20 -4q19 0 35 15.5t25 46.5l21 -7q-11 -38 -33 -57.5t-47 -19.5q-6 0 -12 1t-11 2.5t-12 5t-10.5 5.5t-11.5 7t-10.5 6.5t-10.5 7.5t-10 7q-38 27 -63 27zM287 583
q45 0 71.5 29.5t28.5 75.5h22q-4 -60 -38.5 -93.5t-83.5 -33.5t-83.5 33.5t-38.5 93.5h21q3 -47 30 -76t71 -29zM495 484h22v-484h-22v133h-1q-27 -62 -82 -99t-127 -37q-101 0 -170.5 67t-69.5 173t67.5 178.5t173.5 72.5q68 0 123.5 -37.5t83.5 -101.5h2v135zM285 19
q89 0 149.5 61t60.5 157t-58.5 162t-150.5 66t-155 -63.5t-63 -164.5q0 -92 60.5 -155t156.5 -63z" />
    <glyph glyph-name="uni1EB6" unicode="&#x1eb6;" horiz-adv-x="640" 
d="M320 801q-49 0 -83.5 33.5t-38.5 93.5h21q3 -47 30 -76t71 -29q45 0 71.5 29.5t28.5 75.5h22q-4 -60 -38.5 -93.5t-83.5 -33.5zM611 0h-25l-82 211h-368l-82 -211h-25l275 710h29zM144 233h351l-175 449h-2zM319 -134q12 0 20 -8t8 -19q0 -12 -8 -19.5t-20 -7.5
q-27 0 -27 27q0 11 7.5 19t19.5 8z" />
    <glyph glyph-name="uni1EB7" unicode="&#x1eb7;" horiz-adv-x="591" 
d="M287 561q-49 0 -83.5 33.5t-38.5 93.5h21q3 -47 30 -76t71 -29q45 0 71.5 29.5t28.5 75.5h22q-4 -60 -38.5 -93.5t-83.5 -33.5zM495 484h22v-484h-22v133h-1q-27 -62 -82 -99t-127 -37q-101 0 -170.5 67t-69.5 173t67.5 178.5t173.5 72.5q68 0 123.5 -37.5t83.5 -101.5h2
v135zM285 19q89 0 149.5 61t60.5 157t-58.5 162t-150.5 66t-155 -63.5t-63 -164.5q0 -92 60.5 -155t156.5 -63zM289 -134q12 0 20 -8t8 -19q0 -12 -8 -19.5t-20 -7.5q-27 0 -27 27q0 11 7.5 19t19.5 8z" />
    <glyph glyph-name="uni1EB8" unicode="&#x1eb8;" horiz-adv-x="565" 
d="M89 0v710h412v-22h-389v-321h327v-23h-327v-321h410v-23h-433zM300 -134q12 0 20 -8t8 -19q0 -12 -8 -19.5t-20 -7.5q-27 0 -27 27q0 11 7.5 19t19.5 8z" />
    <glyph glyph-name="uni1EB9" unicode="&#x1eb9;" 
d="M488 243h-418v-1q0 -97 58 -160t149 -63q111 0 174 81l17 -13q-68 -90 -189 -90q-102 0 -167 69.5t-65 175.5q0 105 66 175.5t164 70.5q94 0 153 -65.5t59 -165.5zM277 465q-82 0 -140 -56.5t-66 -143.5h395q-5 91 -56.5 145.5t-132.5 54.5zM283 -134q12 0 20 -8t8 -19
q0 -12 -8 -19.5t-20 -7.5q-27 0 -27 27q0 11 7.5 19t19.5 8z" />
    <glyph glyph-name="uni1EBA" unicode="&#x1eba;" horiz-adv-x="565" 
d="M271 773q-6 11 -6 22t12.5 21t28 17.5t28 20.5t12.5 27q0 23 -17.5 34.5t-39.5 11.5q-44 0 -67 -32l-16 13q37 41 87 41q34 0 54.5 -19t20.5 -48q0 -18 -13 -34t-27.5 -25t-38.5 -21l-2 -29h-16zM89 0v710h412v-22h-389v-321h327v-23h-327v-321h410v-23h-433z" />
    <glyph glyph-name="uni1EBB" unicode="&#x1ebb;" 
d="M281 687q-44 0 -67 -32l-16 13q37 41 87 41q34 0 54.5 -19t20.5 -48q0 -18 -13 -34t-27.5 -25t-38.5 -21l-2 -29h-16q-6 11 -6 22t12.5 21t28 17.5t28 20.5t12.5 27q0 23 -17.5 34.5t-39.5 11.5zM488 243h-418v-1q0 -97 58 -160t149 -63q111 0 174 81l17 -13
q-68 -90 -189 -90q-102 0 -167 69.5t-65 175.5q0 105 66 175.5t164 70.5q94 0 153 -65.5t59 -165.5zM277 465q-82 0 -140 -56.5t-66 -143.5h395q-5 91 -56.5 145.5t-132.5 54.5z" />
    <glyph glyph-name="uni1EBC" unicode="&#x1ebc;" horiz-adv-x="565" 
d="M364 821q-6 0 -12 1t-11 2.5t-12 5t-10.5 5.5t-11.5 7t-10.5 6.5t-10.5 7.5t-10 7q-38 27 -63 27q-42 0 -64 -61l-21 6q26 77 84 77q32 0 77 -31q4 -3 17 -12l19.5 -13.5t17.5 -8.5t20 -4q19 0 35 15.5t25 46.5l21 -7q-11 -38 -33 -57.5t-47 -19.5zM89 0v710h412v-22
h-389v-321h327v-23h-327v-321h410v-23h-433z" />
    <glyph glyph-name="uni1EBD" unicode="&#x1ebd;" 
d="M205 650q-42 0 -64 -61l-21 6q26 77 84 77q32 0 77 -31q4 -3 17 -12l19.5 -13.5t17.5 -8.5t20 -4q19 0 35 15.5t25 46.5l21 -7q-11 -38 -33 -57.5t-47 -19.5q-6 0 -12 1t-11 2.5t-12 5t-10.5 5.5t-11.5 7t-10.5 6.5t-10.5 7.5t-10 7q-38 27 -63 27zM488 243h-418v-1
q0 -97 58 -160t149 -63q111 0 174 81l17 -13q-68 -90 -189 -90q-102 0 -167 69.5t-65 175.5q0 105 66 175.5t164 70.5q94 0 153 -65.5t59 -165.5zM277 465q-82 0 -140 -56.5t-66 -143.5h395q-5 91 -56.5 145.5t-132.5 54.5z" />
    <glyph glyph-name="uni1EBE" unicode="&#x1ebe;" horiz-adv-x="565" 
d="M558 943l-125 -135h-29l123 135h31zM286 885l-106 -119h-29l122 136h25l125 -136h-29l-106 119h-2zM112 344v-321h410v-23h-433v710h412v-22h-389v-321h327v-23h-327z" />
    <glyph glyph-name="uni1EBF" unicode="&#x1ebf;" 
d="M525 775l-124 -135h-30l123 135h31zM279 680l-106 -119h-29l122 136h25l125 -136h-29l-106 119h-2zM277 488q94 0 153 -65.5t59 -165.5l-1 -14h-418v-1q0 -97 58 -160t149 -63q111 0 174 81l17 -13q-68 -90 -189 -90q-102 0 -167 69.5t-65 175.5q0 105 66 175.5t164 70.5
zM277 465q-82 0 -140 -56.5t-66 -143.5h395q-5 91 -56.5 145.5t-132.5 54.5z" />
    <glyph glyph-name="uni1EC0" unicode="&#x1ec0;" horiz-adv-x="565" 
d="M483 809h-29l-125 134h31zM285 885l-106 -119h-29l122 136h25l125 -136h-29l-106 119h-2zM112 23h410v-23h-433v710h412v-22h-389v-321h327v-23h-327v-321z" />
    <glyph glyph-name="uni1EC1" unicode="&#x1ec1;" 
d="M451 640h-29l-125 135h31zM275 681l-106 -119h-29l122 136h25l125 -136h-29l-106 119h-2zM488 243h-418v-1q0 -97 58 -160t149 -63q111 0 174 81l17 -13q-68 -90 -189 -90q-102 0 -167 69.5t-65 175.5q0 105 66 175.5t164 70.5q94 0 153 -65.5t59 -165.5zM277 465
q-82 0 -140 -56.5t-66 -143.5h395q-5 91 -56.5 145.5t-132.5 54.5z" />
    <glyph glyph-name="uni1EC2" unicode="&#x1ec2;" horiz-adv-x="565" 
d="M449 927q-44 0 -67 -32l-15 13q37 41 86 41q34 0 54.5 -19t20.5 -48q0 -18 -13 -34t-27.5 -25t-38.5 -21l-2 -29h-15q-7 13 -7 22q0 11 12.5 21t28 17.5t28 20.5t12.5 27q0 23 -17.5 34.5t-39.5 11.5zM285 885l-106 -119h-29l122 136h25l125 -136h-29l-106 119h-2z
M112 344v-321h410v-23h-433v710h412v-22h-389v-321h327v-23h-327z" />
    <glyph glyph-name="uni1EC3" unicode="&#x1ec3;" 
d="M409 769q-43 0 -68 -32l-15 13q36 41 87 41q34 0 54.5 -19t20.5 -48q0 -18 -13 -34t-27.5 -25t-38.5 -21l-2 -28h-16q-7 11 -7 21q0 14 20.5 26.5t41 27t20.5 32.5q0 24 -17.5 35t-39.5 11zM276 679l-106 -119h-29l122 136h25l125 -136h-29l-106 119h-2zM488 243h-418v-1
q0 -97 58 -160t149 -63q111 0 174 81l17 -13q-68 -90 -189 -90q-102 0 -167 69.5t-65 175.5q0 105 66 175.5t164 70.5q94 0 153 -65.5t59 -165.5zM277 465q-82 0 -140 -56.5t-66 -143.5h395q-5 91 -56.5 145.5t-132.5 54.5z" />
    <glyph glyph-name="uni1EC4" unicode="&#x1ec4;" horiz-adv-x="565" 
d="M216 933q-40 0 -57 -51l-19 6q20 65 75 65q29 0 74 -31q38 -25 62 -25q41 0 55 50l19 -7q-18 -64 -73 -64q-30 0 -73 29q-44 28 -63 28zM271 853h25l125 -121h-30l-105 104h-2l-106 -104h-29zM112 23h410v-23h-433v710h412v-22h-389v-321h327v-23h-327v-321z" />
    <glyph glyph-name="uni1EC5" unicode="&#x1ec5;" 
d="M203 791q-42 0 -64 -61l-21 6q26 77 84 77q32 0 77 -31q4 -3 17 -12l19.5 -13.5t17.5 -8.5t20 -4q19 0 35 15.5t25 46.5l21 -7q-11 -38 -33 -57.5t-47 -19.5q-6 0 -12 1t-11 2.5t-12 5t-10.5 5.5t-11.5 7t-10.5 6.5t-10.5 7.5t-10 7q-38 27 -63 27zM265 696h25l125 -136
h-29l-106 119h-2l-106 -119h-29zM488 243h-418v-1q0 -97 58 -160t149 -63q111 0 174 81l17 -13q-68 -90 -189 -90q-102 0 -167 69.5t-65 175.5q0 105 66 175.5t164 70.5q94 0 153 -65.5t59 -165.5zM277 465q-82 0 -140 -56.5t-66 -143.5h395q-5 91 -56.5 145.5t-132.5 54.5z
" />
    <glyph glyph-name="uni1EC6" unicode="&#x1ec6;" horiz-adv-x="565" 
d="M285 919l-106 -119h-29l122 136h25l125 -136h-29l-106 119h-2zM112 23h410v-23h-433v710h412v-22h-389v-321h327v-23h-327v-321zM300 -134q12 0 20 -8t8 -19q0 -12 -8 -19.5t-20 -7.5q-27 0 -27 27q0 11 7.5 19t19.5 8z" />
    <glyph glyph-name="uni1EC7" unicode="&#x1ec7;" 
d="M277 679l-106 -119h-29l122 136h25l125 -136h-29l-106 119h-2zM488 243h-418v-1q0 -97 58 -160t149 -63q111 0 174 81l17 -13q-68 -90 -189 -90q-102 0 -167 69.5t-65 175.5q0 105 66 175.5t164 70.5q94 0 153 -65.5t59 -165.5zM277 465q-82 0 -140 -56.5t-66 -143.5h395
q-5 91 -56.5 145.5t-132.5 54.5zM283 -134q12 0 20 -8t8 -19q0 -12 -8 -19.5t-20 -7.5q-27 0 -27 27q0 11 7.5 19t19.5 8z" />
    <glyph glyph-name="uni1EC8" unicode="&#x1ec8;" horiz-adv-x="215" 
d="M93 773q-6 11 -6 22t12.5 21t28 17.5t28 20.5t12.5 27q0 23 -17.5 34.5t-39.5 11.5q-44 0 -67 -32l-16 13q37 41 87 41q34 0 54.5 -19t20.5 -48q0 -18 -13 -34t-27.5 -25t-38.5 -21l-2 -29h-16zM96 0v710h23v-710h-23z" />
    <glyph glyph-name="uni1EC9" unicode="&#x1ec9;" horiz-adv-x="195" 
d="M83 533q-6 11 -6 22t12.5 21t28 17.5t28 20.5t12.5 27q0 23 -17.5 34.5t-39.5 11.5q-44 0 -67 -32l-16 13q37 41 87 41q34 0 54.5 -19t20.5 -48q0 -18 -13 -34t-27.5 -25t-38.5 -21l-2 -29h-16zM86 0v484h22v-484h-22z" />
    <glyph glyph-name="uni1ECA" unicode="&#x1eca;" horiz-adv-x="215" 
d="M96 0v710h23v-710h-23zM108 -134q12 0 20 -8t8 -19q0 -12 -8 -19.5t-20 -7.5q-27 0 -27 27q0 11 7.5 19t19.5 8z" />
    <glyph glyph-name="uni1ECB" unicode="&#x1ecb;" horiz-adv-x="195" 
d="M98 606q-12 0 -20 8t-8 19q0 12 8 19.5t20 7.5q27 0 27 -27q0 -11 -7.5 -19t-19.5 -8zM86 0v484h22v-484h-22zM103 -134q12 0 20 -8t8 -19q0 -12 -8 -19.5t-20 -7.5q-27 0 -27 27q0 11 7.5 19t19.5 8z" />
    <glyph glyph-name="uni1ECC" unicode="&#x1ecc;" horiz-adv-x="822" 
d="M412 -3q-155 0 -252.5 103.5t-97.5 255.5q0 151 98 254.5t252 103.5q146 0 247 -100t101 -258q0 -159 -100.5 -259t-247.5 -100zM412 20q137 0 231 94t94 242t-94 241t-231 93q-144 0 -235.5 -96.5t-91.5 -237.5q0 -142 91.5 -239t235.5 -97zM412 -134q12 0 20 -8t8 -19
q0 -12 -8 -19.5t-20 -7.5q-27 0 -27 27q0 11 7.5 19t19.5 8z" />
    <glyph glyph-name="uni1ECD" unicode="&#x1ecd;" horiz-adv-x="579" 
d="M290 -3q-107 0 -175 71t-68 174q0 102 68.5 174t174.5 72q102 0 172 -69t70 -177t-70 -176.5t-172 -68.5zM290 19q93 0 156 62.5t63 160.5t-63.5 160.5t-155.5 62.5q-98 0 -159.5 -64.5t-61.5 -158.5t61.5 -158.5t159.5 -64.5zM290 -134q12 0 20 -8t8 -19q0 -12 -8 -19.5
t-20 -7.5q-27 0 -27 27q0 11 7.5 19t19.5 8z" />
    <glyph glyph-name="uni1ECE" unicode="&#x1ece;" horiz-adv-x="822" 
d="M397 773q-6 11 -6 22t12.5 21t28 17.5t28 20.5t12.5 27q0 23 -17.5 34.5t-39.5 11.5q-44 0 -67 -32l-16 13q37 41 87 41q34 0 54.5 -19t20.5 -48q0 -18 -13 -34t-27.5 -25t-38.5 -21l-2 -29h-16zM412 -3q-155 0 -252.5 103.5t-97.5 255.5q0 151 98 254.5t252 103.5
q146 0 247 -100t101 -258q0 -159 -100.5 -259t-247.5 -100zM412 20q137 0 231 94t94 242t-94 241t-231 93q-144 0 -235.5 -96.5t-91.5 -237.5q0 -142 91.5 -239t235.5 -97z" />
    <glyph glyph-name="uni1ECF" unicode="&#x1ecf;" horiz-adv-x="579" 
d="M276 533q-6 11 -6 22q0 13 20 25.5t40.5 27.5t20.5 33q0 23 -17.5 34.5t-39.5 11.5q-44 0 -67 -32l-16 13q37 41 87 41q34 0 54.5 -19t20.5 -48q0 -18 -13 -34t-27.5 -25t-38.5 -21l-2 -29h-16zM290 -3q-107 0 -175 71t-68 174q0 102 68.5 174t174.5 72q102 0 172 -69
t70 -177t-70 -176.5t-172 -68.5zM290 19q93 0 156 62.5t63 160.5t-63.5 160.5t-155.5 62.5q-98 0 -159.5 -64.5t-61.5 -158.5t61.5 -158.5t159.5 -64.5z" />
    <glyph glyph-name="uni1ED0" unicode="&#x1ed0;" horiz-adv-x="822" 
d="M684 943l-125 -135h-29l123 135h31zM412 885l-106 -119h-29l122 136h25l125 -136h-29l-106 119h-2zM412 714q146 0 247 -100t101 -258q0 -159 -100.5 -259t-247.5 -100q-155 0 -252.5 103.5t-97.5 255.5q0 151 98 254.5t252 103.5zM412 20q137 0 231 94t94 242t-94 241
t-231 93q-144 0 -235.5 -96.5t-91.5 -237.5q0 -142 91.5 -239t235.5 -97z" />
    <glyph glyph-name="uni1ED1" unicode="&#x1ed1;" horiz-adv-x="579" 
d="M538 775l-124 -135h-30l123 135h31zM292 680l-106 -119h-29l122 136h25l125 -136h-29l-106 119h-2zM290 488q102 0 172 -69t70 -177t-70 -176.5t-172 -68.5q-107 0 -175 71t-68 174q0 102 68.5 174t174.5 72zM290 19q93 0 156 62.5t63 160.5t-63.5 160.5t-155.5 62.5
q-98 0 -159.5 -64.5t-61.5 -158.5t61.5 -158.5t159.5 -64.5z" />
    <glyph glyph-name="uni1ED2" unicode="&#x1ed2;" horiz-adv-x="822" 
d="M609 809h-29l-125 134h31zM411 885l-106 -119h-29l122 136h25l125 -136h-29l-106 119h-2zM412 714q146 0 247 -100t101 -258q0 -159 -100.5 -259t-247.5 -100q-155 0 -252.5 103.5t-97.5 255.5q0 151 98 254.5t252 103.5zM412 20q137 0 231 94t94 242t-94 241t-231 93
q-144 0 -235.5 -96.5t-91.5 -237.5q0 -142 91.5 -239t235.5 -97z" />
    <glyph glyph-name="uni1ED3" unicode="&#x1ed3;" horiz-adv-x="579" 
d="M464 640h-29l-125 135h31zM288 681l-106 -119h-29l122 136h25l125 -136h-29l-106 119h-2zM290 488q102 0 172 -69t70 -177t-70 -176.5t-172 -68.5q-107 0 -175 71t-68 174q0 102 68.5 174t174.5 72zM290 19q93 0 156 62.5t63 160.5t-63.5 160.5t-155.5 62.5
q-98 0 -159.5 -64.5t-61.5 -158.5t61.5 -158.5t159.5 -64.5z" />
    <glyph glyph-name="uni1ED4" unicode="&#x1ed4;" horiz-adv-x="822" 
d="M575 927q-44 0 -67 -32l-15 13q37 41 86 41q34 0 54.5 -19t20.5 -48q0 -18 -13 -34t-27.5 -25t-38.5 -21l-2 -29h-15q-7 13 -7 22q0 11 12.5 21t28 17.5t28 20.5t12.5 27q0 23 -17.5 34.5t-39.5 11.5zM411 885l-106 -119h-29l122 136h25l125 -136h-29l-106 119h-2z
M412 714q146 0 247 -100t101 -258q0 -159 -100.5 -259t-247.5 -100q-155 0 -252.5 103.5t-97.5 255.5q0 151 98 254.5t252 103.5zM412 20q137 0 231 94t94 242t-94 241t-231 93q-144 0 -235.5 -96.5t-91.5 -237.5q0 -142 91.5 -239t235.5 -97z" />
    <glyph glyph-name="uni1ED5" unicode="&#x1ed5;" horiz-adv-x="579" 
d="M422 769q-43 0 -68 -32l-15 13q36 41 87 41q34 0 54.5 -19t20.5 -48q0 -18 -13 -34t-27.5 -25t-38.5 -21l-2 -28h-16q-7 11 -7 21q0 14 20.5 26.5t41 27t20.5 32.5q0 24 -17.5 35t-39.5 11zM289 679l-106 -119h-29l122 136h25l125 -136h-29l-106 119h-2zM290 488
q102 0 172 -69t70 -177t-70 -176.5t-172 -68.5q-107 0 -175 71t-68 174q0 102 68.5 174t174.5 72zM290 19q93 0 156 62.5t63 160.5t-63.5 160.5t-155.5 62.5q-98 0 -159.5 -64.5t-61.5 -158.5t61.5 -158.5t159.5 -64.5z" />
    <glyph glyph-name="uni1ED6" unicode="&#x1ed6;" horiz-adv-x="822" 
d="M342 933q-40 0 -57 -51l-19 6q20 65 75 65q29 0 74 -31q38 -25 62 -25q41 0 55 50l19 -7q-18 -64 -73 -64q-30 0 -73 29q-44 28 -63 28zM397 853h25l125 -121h-30l-105 104h-2l-106 -104h-29zM412 714q146 0 247 -100t101 -258q0 -159 -100.5 -259t-247.5 -100
q-155 0 -252.5 103.5t-97.5 255.5q0 151 98 254.5t252 103.5zM412 20q137 0 231 94t94 242t-94 241t-231 93q-144 0 -235.5 -96.5t-91.5 -237.5q0 -142 91.5 -239t235.5 -97z" />
    <glyph glyph-name="uni1ED7" unicode="&#x1ed7;" horiz-adv-x="579" 
d="M216 791q-42 0 -64 -61l-21 6q26 77 84 77q32 0 77 -31q4 -3 17 -12l19.5 -13.5t17.5 -8.5t20 -4q19 0 35 15.5t25 46.5l21 -7q-11 -38 -33 -57.5t-47 -19.5q-6 0 -12 1t-11 2.5t-12 5t-10.5 5.5t-11.5 7t-10.5 6.5t-10.5 7.5t-10 7q-38 27 -63 27zM278 696h25l125 -136
h-29l-106 119h-2l-106 -119h-29zM290 488q102 0 172 -69t70 -177t-70 -176.5t-172 -68.5q-107 0 -175 71t-68 174q0 102 68.5 174t174.5 72zM290 19q93 0 156 62.5t63 160.5t-63.5 160.5t-155.5 62.5q-98 0 -159.5 -64.5t-61.5 -158.5t61.5 -158.5t159.5 -64.5z" />
    <glyph glyph-name="uni1ED8" unicode="&#x1ed8;" horiz-adv-x="822" 
d="M411 919l-106 -119h-29l122 136h25l125 -136h-29l-106 119h-2zM412 714q146 0 247 -100t101 -258q0 -159 -100.5 -259t-247.5 -100q-155 0 -252.5 103.5t-97.5 255.5q0 151 98 254.5t252 103.5zM412 20q137 0 231 94t94 242t-94 241t-231 93q-144 0 -235.5 -96.5
t-91.5 -237.5q0 -142 91.5 -239t235.5 -97zM412 -134q12 0 20 -8t8 -19q0 -12 -8 -19.5t-20 -7.5q-27 0 -27 27q0 11 7.5 19t19.5 8z" />
    <glyph glyph-name="uni1ED9" unicode="&#x1ed9;" horiz-adv-x="579" 
d="M290 679l-106 -119h-29l122 136h25l125 -136h-29l-106 119h-2zM290 488q102 0 172 -69t70 -177t-70 -176.5t-172 -68.5q-107 0 -175 71t-68 174q0 102 68.5 174t174.5 72zM290 19q93 0 156 62.5t63 160.5t-63.5 160.5t-155.5 62.5q-98 0 -159.5 -64.5t-61.5 -158.5
t61.5 -158.5t159.5 -64.5zM290 -134q12 0 20 -8t8 -19q0 -12 -8 -19.5t-20 -7.5q-27 0 -27 27q0 11 7.5 19t19.5 8z" />
    <glyph glyph-name="uni1EDA" unicode="&#x1eda;" horiz-adv-x="861" 
d="M281 936l-124 -135h-30l123 135h31zM788 774h22v-77q0 -76 -24.5 -110t-73.5 -39l-1 -2q49 -85 49 -190q0 -159 -100.5 -259t-247.5 -100q-155 0 -252.5 103.5t-97.5 255.5q0 151 98 254.5t252 103.5q87 0 162 -38t123 -107q46 2 68.5 29t22.5 98v78zM412 20
q137 0 231 94t94 242t-94 241t-231 93q-144 0 -235.5 -96.5t-91.5 -237.5q0 -142 91.5 -239t235.5 -97z" />
    <glyph glyph-name="uni1EDB" unicode="&#x1edb;" horiz-adv-x="646" 
d="M432 696l-124 -135h-30l123 135h31zM593 565h22v-77q0 -77 -25 -111t-75 -38v-1q17 -45 17 -96q0 -108 -70 -176.5t-172 -68.5q-107 0 -175 71t-68 174q0 102 68.5 174t174.5 72q70 0 127 -34.5t88 -93.5q44 2 66 29.5t22 97.5v78zM290 19q93 0 156 62.5t63 160.5
t-63.5 160.5t-155.5 62.5q-98 0 -159.5 -64.5t-61.5 -158.5t61.5 -158.5t159.5 -64.5z" />
    <glyph glyph-name="uni1EDC" unicode="&#x1edc;" horiz-adv-x="861" 
d="M201 801h-29l-124 135h30zM788 774h22v-77q0 -76 -24.5 -110t-73.5 -39l-1 -2q49 -85 49 -190q0 -159 -100.5 -259t-247.5 -100q-155 0 -252.5 103.5t-97.5 255.5q0 151 98 254.5t252 103.5q87 0 162 -38t123 -107q46 2 68.5 29t22.5 98v78zM412 20q137 0 231 94t94 242
t-94 241t-231 93q-144 0 -235.5 -96.5t-91.5 -237.5q0 -142 91.5 -239t235.5 -97z" />
    <glyph glyph-name="uni1EDD" unicode="&#x1edd;" horiz-adv-x="646" 
d="M305 561h-29l-124 135h30zM593 565h22v-77q0 -77 -25 -111t-75 -38v-1q17 -45 17 -96q0 -108 -70 -176.5t-172 -68.5q-107 0 -175 71t-68 174q0 102 68.5 174t174.5 72q70 0 127 -34.5t88 -93.5q44 2 66 29.5t22 97.5v78zM290 19q93 0 156 62.5t63 160.5t-63.5 160.5
t-155.5 62.5q-98 0 -159.5 -64.5t-61.5 -158.5t61.5 -158.5t159.5 -64.5z" />
    <glyph glyph-name="uni1EDE" unicode="&#x1ede;" horiz-adv-x="861" 
d="M415 927q-44 0 -67 -32l-16 13q37 41 87 41q34 0 54.5 -19t20.5 -48q0 -18 -13 -34t-27.5 -25t-38.5 -21l-2 -29h-16q-6 11 -6 22t12.5 21t28 17.5t28 20.5t12.5 27q0 23 -17.5 34.5t-39.5 11.5zM788 774h22v-77q0 -76 -24.5 -110t-73.5 -39l-1 -2q49 -85 49 -190
q0 -159 -100.5 -259t-247.5 -100q-155 0 -252.5 103.5t-97.5 255.5q0 151 98 254.5t252 103.5q87 0 162 -38t123 -107q46 2 68.5 29t22.5 98v78zM412 20q137 0 231 94t94 242t-94 241t-231 93q-144 0 -235.5 -96.5t-91.5 -237.5q0 -142 91.5 -239t235.5 -97z" />
    <glyph glyph-name="uni1EDF" unicode="&#x1edf;" horiz-adv-x="646" 
d="M294 687q-44 0 -67 -32l-16 13q37 41 87 41q34 0 54.5 -19t20.5 -48q0 -18 -13 -34t-27.5 -25t-38.5 -21l-2 -29h-16q-6 11 -6 22q0 13 20 25.5t40.5 27.5t20.5 33q0 23 -17.5 34.5t-39.5 11.5zM593 565h22v-77q0 -77 -25 -111t-75 -38v-1q17 -45 17 -96
q0 -108 -70 -176.5t-172 -68.5q-107 0 -175 71t-68 174q0 102 68.5 174t174.5 72q70 0 127 -34.5t88 -93.5q44 2 66 29.5t22 97.5v78zM290 19q93 0 156 62.5t63 160.5t-63.5 160.5t-155.5 62.5q-98 0 -159.5 -64.5t-61.5 -158.5t61.5 -158.5t159.5 -64.5z" />
    <glyph glyph-name="uni1EE0" unicode="&#x1ee0;" horiz-adv-x="861" 
d="M339 890q-42 0 -64 -61l-21 6q26 77 84 77q32 0 77 -31q4 -3 17 -12l19.5 -13.5t17.5 -8.5t20 -4q19 0 35 15.5t25 46.5l21 -7q-11 -38 -33 -57.5t-47 -19.5q-6 0 -12 1t-11 2.5t-12 5t-10.5 5.5t-11.5 7t-10.5 6.5t-10.5 7.5t-10 7q-38 27 -63 27zM788 774h22v-77
q0 -76 -24.5 -110t-73.5 -39l-1 -2q49 -85 49 -190q0 -159 -100.5 -259t-247.5 -100q-155 0 -252.5 103.5t-97.5 255.5q0 151 98 254.5t252 103.5q87 0 162 -38t123 -107q46 2 68.5 29t22.5 98v78zM412 20q137 0 231 94t94 242t-94 241t-231 93q-144 0 -235.5 -96.5
t-91.5 -237.5q0 -142 91.5 -239t235.5 -97z" />
    <glyph glyph-name="uni1EE1" unicode="&#x1ee1;" horiz-adv-x="646" 
d="M218 650q-42 0 -64 -61l-21 6q26 77 84 77q32 0 77 -31q4 -3 17 -12l19.5 -13.5t17.5 -8.5t20 -4q19 0 35 15.5t25 46.5l21 -7q-11 -38 -33 -57.5t-47 -19.5q-6 0 -12 1t-11 2.5t-12 5t-10.5 5.5t-11.5 7t-10.5 6.5t-10.5 7.5t-10 7q-38 27 -63 27zM593 565h22v-77
q0 -77 -25 -111t-75 -38v-1q17 -45 17 -96q0 -108 -70 -176.5t-172 -68.5q-107 0 -175 71t-68 174q0 102 68.5 174t174.5 72q70 0 127 -34.5t88 -93.5q44 2 66 29.5t22 97.5v78zM290 19q93 0 156 62.5t63 160.5t-63.5 160.5t-155.5 62.5q-98 0 -159.5 -64.5t-61.5 -158.5
t61.5 -158.5t159.5 -64.5z" />
    <glyph glyph-name="uni1EE2" unicode="&#x1ee2;" horiz-adv-x="861" 
d="M788 774h22v-77q0 -76 -24.5 -110t-73.5 -39l-1 -2q49 -85 49 -190q0 -159 -100.5 -259t-247.5 -100q-155 0 -252.5 103.5t-97.5 255.5q0 151 98 254.5t252 103.5q87 0 162 -38t123 -107q46 2 68.5 29t22.5 98v78zM412 20q137 0 231 94t94 242t-94 241t-231 93
q-144 0 -235.5 -96.5t-91.5 -237.5q0 -142 91.5 -239t235.5 -97zM412 -134q12 0 20 -8t8 -19q0 -12 -8 -19.5t-20 -7.5q-27 0 -27 27q0 11 7.5 19t19.5 8z" />
    <glyph glyph-name="uni1EE3" unicode="&#x1ee3;" horiz-adv-x="646" 
d="M593 565h22v-77q0 -77 -25 -111t-75 -38v-1q17 -45 17 -96q0 -108 -70 -176.5t-172 -68.5q-107 0 -175 71t-68 174q0 102 68.5 174t174.5 72q70 0 127 -34.5t88 -93.5q44 2 66 29.5t22 97.5v78zM290 19q93 0 156 62.5t63 160.5t-63.5 160.5t-155.5 62.5
q-98 0 -159.5 -64.5t-61.5 -158.5t61.5 -158.5t159.5 -64.5zM290 -134q12 0 20 -8t8 -19q0 -12 -8 -19.5t-20 -7.5q-27 0 -27 27q0 11 7.5 19t19.5 8z" />
    <glyph glyph-name="uni1EE4" unicode="&#x1ee4;" horiz-adv-x="682" 
d="M341 -3q-117 0 -188.5 77t-71.5 209v427h23v-427q0 -123 65 -193t172 -70t172.5 70t65.5 193v427h23v-427q0 -132 -72 -209t-189 -77zM341 -134q12 0 20 -8t8 -19q0 -12 -8 -19.5t-20 -7.5q-27 0 -27 27q0 11 7.5 19t19.5 8z" />
    <glyph glyph-name="uni1EE5" unicode="&#x1ee5;" 
d="M436 484h22v-484h-22v128h-1q-25 -61 -73.5 -96t-109.5 -35q-88 0 -135.5 57t-47.5 154v276h22v-265q0 -99 43 -149.5t118 -50.5q79 0 131.5 63t52.5 163v239zM265 -134q12 0 20 -8t8 -19q0 -12 -8 -19.5t-20 -7.5q-27 0 -27 27q0 11 7.5 19t19.5 8z" />
    <glyph glyph-name="uni1EE6" unicode="&#x1ee6;" horiz-adv-x="682" 
d="M327 773q-6 11 -6 22t12.5 21t28 17.5t28 20.5t12.5 27q0 23 -17.5 34.5t-39.5 11.5q-44 0 -67 -32l-16 13q37 41 87 41q34 0 54.5 -19t20.5 -48q0 -18 -13 -34t-27.5 -25t-38.5 -21l-2 -29h-16zM341 -3q-117 0 -188.5 77t-71.5 209v427h23v-427q0 -123 65 -193t172 -70
t172.5 70t65.5 193v427h23v-427q0 -132 -72 -209t-189 -77z" />
    <glyph glyph-name="uni1EE7" unicode="&#x1ee7;" 
d="M266 687q-44 0 -67 -32l-16 13q37 41 87 41q34 0 54.5 -19t20.5 -48q0 -18 -13 -34t-27.5 -25t-38.5 -21l-2 -29h-16q-6 11 -6 22q0 13 20 25.5t40.5 27.5t20.5 33q0 23 -17.5 34.5t-39.5 11.5zM436 484h22v-484h-22v128h-1q-25 -61 -73.5 -96t-109.5 -35
q-88 0 -135.5 57t-47.5 154v276h22v-265q0 -99 43 -149.5t118 -50.5q79 0 131.5 63t52.5 163v239z" />
    <glyph glyph-name="uni1EE8" unicode="&#x1ee8;" horiz-adv-x="738" 
d="M208 936l-124 -135h-30l123 135h31zM691 774h22v-77q0 -82 -27.5 -115t-83.5 -35v-264q0 -132 -72 -209t-189 -77t-188.5 77t-71.5 209v427h23v-427q0 -123 65 -193t172 -70t172.5 70t65.5 193v427h23v-141q45 2 67 29.5t22 97.5v78z" />
    <glyph glyph-name="uni1EE9" unicode="&#x1ee9;" horiz-adv-x="599" 
d="M392 696l-124 -135h-30l123 135h31zM546 565h22v-77q0 -81 -27 -114.5t-83 -35.5v-338h-22v128h-1q-25 -61 -73.5 -96t-109.5 -35q-88 0 -135.5 57t-47.5 154v276h22v-265q0 -99 43 -149.5t118 -50.5q79 0 131.5 63t52.5 163v239h22v-124q45 2 66.5 29.5t21.5 97.5v78z
" />
    <glyph glyph-name="uni1EEA" unicode="&#x1eea;" horiz-adv-x="738" 
d="M145 801h-29l-124 135h30zM691 774h22v-77q0 -82 -27.5 -115t-83.5 -35v-264q0 -132 -72 -209t-189 -77t-188.5 77t-71.5 209v427h23v-427q0 -123 65 -193t172 -70t172.5 70t65.5 193v427h23v-141q45 2 67 29.5t22 97.5v78z" />
    <glyph glyph-name="uni1EEB" unicode="&#x1eeb;" horiz-adv-x="599" 
d="M294 561h-29l-124 135h30zM546 565h22v-77q0 -81 -27 -114.5t-83 -35.5v-338h-22v128h-1q-25 -61 -73.5 -96t-109.5 -35q-88 0 -135.5 57t-47.5 154v276h22v-265q0 -99 43 -149.5t118 -50.5q79 0 131.5 63t52.5 163v239h22v-124q45 2 66.5 29.5t21.5 97.5v78z" />
    <glyph glyph-name="uni1EEC" unicode="&#x1eec;" horiz-adv-x="738" 
d="M345 927q-44 0 -67 -32l-16 13q37 41 87 41q34 0 54.5 -19t20.5 -48q0 -18 -13 -34t-27.5 -25t-38.5 -21l-2 -29h-16q-6 11 -6 22t12.5 21t28 17.5t28 20.5t12.5 27q0 23 -17.5 34.5t-39.5 11.5zM691 774h22v-77q0 -82 -27.5 -115t-83.5 -35v-264q0 -132 -72 -209
t-189 -77t-188.5 77t-71.5 209v427h23v-427q0 -123 65 -193t172 -70t172.5 70t65.5 193v427h23v-141q45 2 67 29.5t22 97.5v78z" />
    <glyph glyph-name="uni1EED" unicode="&#x1eed;" horiz-adv-x="599" 
d="M266 687q-44 0 -67 -32l-16 13q37 41 87 41q34 0 54.5 -19t20.5 -48q0 -18 -13 -34t-27.5 -25t-38.5 -21l-2 -29h-16q-6 11 -6 22q0 13 20 25.5t40.5 27.5t20.5 33q0 23 -17.5 34.5t-39.5 11.5zM546 565h22v-77q0 -81 -27 -114.5t-83 -35.5v-338h-22v128h-1
q-25 -61 -73.5 -96t-109.5 -35q-88 0 -135.5 57t-47.5 154v276h22v-265q0 -99 43 -149.5t118 -50.5q79 0 131.5 63t52.5 163v239h22v-124q45 2 66.5 29.5t21.5 97.5v78z" />
    <glyph glyph-name="uni1EEE" unicode="&#x1eee;" horiz-adv-x="738" 
d="M269 890q-42 0 -64 -61l-21 6q26 77 84 77q32 0 77 -31q4 -3 17 -12l19.5 -13.5t17.5 -8.5t20 -4q19 0 35 15.5t25 46.5l21 -7q-11 -38 -33 -57.5t-47 -19.5q-6 0 -12 1t-11 2.5t-12 5t-10.5 5.5t-11.5 7t-10.5 6.5t-10.5 7.5t-10 7q-38 27 -63 27zM691 774h22v-77
q0 -82 -27.5 -115t-83.5 -35v-264q0 -132 -72 -209t-189 -77t-188.5 77t-71.5 209v427h23v-427q0 -123 65 -193t172 -70t172.5 70t65.5 193v427h23v-141q45 2 67 29.5t22 97.5v78z" />
    <glyph glyph-name="uni1EEF" unicode="&#x1eef;" horiz-adv-x="599" 
d="M190 650q-42 0 -64 -61l-21 6q26 77 84 77q32 0 77 -31q4 -3 17 -12l19.5 -13.5t17.5 -8.5t20 -4q19 0 35 15.5t25 46.5l21 -7q-11 -38 -33 -57.5t-47 -19.5q-6 0 -12 1t-11 2.5t-12 5t-10.5 5.5t-11.5 7t-10.5 6.5t-10.5 7.5t-10 7q-38 27 -63 27zM546 565h22v-77
q0 -81 -27 -114.5t-83 -35.5v-338h-22v128h-1q-25 -61 -73.5 -96t-109.5 -35q-88 0 -135.5 57t-47.5 154v276h22v-265q0 -99 43 -149.5t118 -50.5q79 0 131.5 63t52.5 163v239h22v-124q45 2 66.5 29.5t21.5 97.5v78z" />
    <glyph glyph-name="uni1EF0" unicode="&#x1ef0;" horiz-adv-x="738" 
d="M691 774h22v-77q0 -82 -27.5 -115t-83.5 -35v-264q0 -132 -72 -209t-189 -77t-188.5 77t-71.5 209v427h23v-427q0 -123 65 -193t172 -70t172.5 70t65.5 193v427h23v-141q45 2 67 29.5t22 97.5v78zM341 -134q12 0 20 -8t8 -19q0 -12 -8 -19.5t-20 -7.5q-27 0 -27 27
q0 11 7.5 19t19.5 8z" />
    <glyph glyph-name="uni1EF1" unicode="&#x1ef1;" horiz-adv-x="599" 
d="M546 565h22v-77q0 -81 -27 -114.5t-83 -35.5v-338h-22v128h-1q-25 -61 -73.5 -96t-109.5 -35q-88 0 -135.5 57t-47.5 154v276h22v-265q0 -99 43 -149.5t118 -50.5q79 0 131.5 63t52.5 163v239h22v-124q45 2 66.5 29.5t21.5 97.5v78zM265 -134q12 0 20 -8t8 -19
q0 -12 -8 -19.5t-20 -7.5q-27 0 -27 27q0 11 7.5 19t19.5 8z" />
    <glyph glyph-name="Ygrave" unicode="&#x1ef2;" horiz-adv-x="556" 
d="M319 801h-29l-124 135h30zM510 710h28l-249 -387v-323h-23v323l-248 387h28l230 -360h2z" />
    <glyph glyph-name="ygrave" unicode="&#x1ef3;" horiz-adv-x="506" 
d="M297 561h-29l-124 135h30zM450 484h27l-290 -682h-25l86 203l-221 479h27l204 -449h2z" />
    <glyph glyph-name="uni1EF4" unicode="&#x1ef4;" horiz-adv-x="556" 
d="M266 0v323l-248 387h28l230 -360h2l232 360h28l-249 -387v-323h-23zM277 -134q12 0 20 -8t8 -19q0 -12 -8 -19.5t-20 -7.5q-27 0 -27 27q0 11 7.5 19t19.5 8z" />
    <glyph glyph-name="uni1EF5" unicode="&#x1ef5;" horiz-adv-x="506" 
d="M450 484h27l-290 -682h-25l86 203l-221 479h27l204 -449h2zM369 -134q12 0 20 -8t8 -19q0 -12 -8 -19.5t-20 -7.5q-27 0 -27 27q0 11 7.5 19t19.5 8z" />
    <glyph glyph-name="uni1EF6" unicode="&#x1ef6;" horiz-adv-x="556" 
d="M281 927q-44 0 -67 -32l-16 13q37 41 87 41q34 0 54.5 -19t20.5 -48q0 -18 -13 -34t-27.5 -25t-38.5 -21l-2 -29h-16q-6 11 -6 22t12.5 21t28 17.5t28 20.5t12.5 27q0 23 -17.5 34.5t-39.5 11.5zM510 710h28l-249 -387v-323h-23v323l-248 387h28l230 -360h2z" />
    <glyph glyph-name="uni1EF7" unicode="&#x1ef7;" horiz-adv-x="506" 
d="M258 687q-44 0 -67 -32l-16 13q37 41 87 41q34 0 54.5 -19t20.5 -48q0 -18 -13 -34t-27.5 -25t-38.5 -21l-2 -29h-16q-6 11 -6 22q0 13 20 25.5t40.5 27.5t20.5 33q0 23 -17.5 34.5t-39.5 11.5zM450 484h27l-290 -682h-25l86 203l-221 479h27l204 -449h2z" />
    <glyph glyph-name="uni1EF8" unicode="&#x1ef8;" horiz-adv-x="556" 
d="M205 890q-42 0 -64 -61l-21 6q26 77 84 77q32 0 77 -31q4 -3 17 -12l19.5 -13.5t17.5 -8.5t20 -4q19 0 35 15.5t25 46.5l21 -7q-11 -38 -33 -57.5t-47 -19.5q-6 0 -12 1t-11 2.5t-12 5t-10.5 5.5t-11.5 7t-10.5 6.5t-10.5 7.5t-10 7q-38 27 -63 27zM510 710h28l-249 -387
v-323h-23v323l-248 387h28l230 -360h2z" />
    <glyph glyph-name="uni1EF9" unicode="&#x1ef9;" horiz-adv-x="506" 
d="M182 650q-42 0 -64 -61l-21 6q26 77 84 77q32 0 77 -31q4 -3 17 -12l19.5 -13.5t17.5 -8.5t20 -4q19 0 35 15.5t25 46.5l21 -7q-11 -38 -33 -57.5t-47 -19.5q-6 0 -12 1t-11 2.5t-12 5t-10.5 5.5t-11.5 7t-10.5 6.5t-10.5 7.5t-10 7q-38 27 -63 27zM450 484h27l-290 -682
h-25l86 203l-221 479h27l204 -449h2z" />
    <glyph glyph-name="uni2002" unicode="&#x2002;" horiz-adv-x="467" 
 />
    <glyph glyph-name="uni2003" unicode="&#x2003;" horiz-adv-x="934" 
 />
    <glyph glyph-name="uni2009" unicode="&#x2009;" horiz-adv-x="23" 
 />
    <glyph glyph-name="endash" unicode="&#x2013;" horiz-adv-x="582" 
d="M58 286v21h466v-21h-466z" />
    <glyph glyph-name="emdash" unicode="&#x2014;" horiz-adv-x="1049" 
d="M58 286v21h933v-21h-933z" />
    <glyph glyph-name="uni2015" unicode="&#x2015;" horiz-adv-x="1198" 
d="M63 286v21h1072v-21h-1072z" />
    <glyph glyph-name="quoteleft" unicode="&#x2018;" horiz-adv-x="161" 
d="M121 710l-35 -217h-26l42 217h19z" />
    <glyph glyph-name="quoteright" unicode="&#x2019;" horiz-adv-x="161" 
d="M50 493l35 217h26l-42 -217h-19z" />
    <glyph glyph-name="quotesinglbase" unicode="&#x201a;" horiz-adv-x="157" 
d="M36 -128l35 218h27l-42 -218h-20z" />
    <glyph glyph-name="quotedblleft" unicode="&#x201c;" horiz-adv-x="245" 
d="M122 710l-35 -217h-27l42 217h20zM205 710l-35 -217h-26l42 217h19z" />
    <glyph glyph-name="quotedblright" unicode="&#x201d;" horiz-adv-x="245" 
d="M50 493l35 217h26l-42 -217h-19zM133 493l35 217h27l-42 -217h-20z" />
    <glyph glyph-name="quotedblbase" unicode="&#x201e;" horiz-adv-x="241" 
d="M36 -73l35 217h26l-42 -217h-19zM119 -73l35 217h27l-42 -217h-20z" />
    <glyph glyph-name="dagger" unicode="&#x2020;" horiz-adv-x="392" 
d="M197 275l-12 27l2 143v114h-22l-108 -3v27l108 -2h21v103h25l-3 -103l127 1v-26l-108 3h-20v-114l4 -143z" />
    <glyph glyph-name="daggerdbl" unicode="&#x2021;" horiz-adv-x="392" 
d="M186 63v102l-129 -1v26l108 -2h22v131l-2 63l2 63v114h-22l-108 -3v27l108 -2h21v103h25l-3 -103l127 1v-26l-108 3h-20v-114l4 -63l-4 -63v-131h20l108 3v-26h-127l3 -102h-25z" />
    <glyph glyph-name="bullet" unicode="&#x2022;" horiz-adv-x="371" 
d="M185 231q-35 0 -60 24.5t-25 60.5q0 35 25 59.5t60 24.5t60.5 -24.5t25.5 -59.5q0 -36 -25 -60.5t-61 -24.5z" />
    <glyph glyph-name="ellipsis" unicode="&#x2026;" horiz-adv-x="1000" 
d="M162 -10q-13 0 -21 8t-8 21t8 20.5t21 7.5t21 -7.5t8 -20.5t-8 -21t-21 -8zM495 -10q-13 0 -21 8t-8 21t8 20.5t21 7.5t21 -7.5t8 -20.5t-8 -21t-21 -8zM829 -10q-13 0 -21 8t-8 21t8 20.5t21 7.5t21 -7.5t8 -20.5t-8 -21t-21 -8z" />
    <glyph glyph-name="perthousand" unicode="&#x2030;" horiz-adv-x="1383" 
d="M326 -7l-21 7l305 717l20 -8zM233 328q-83 0 -139 54t-56 140q0 81 54.5 136.5t140.5 55.5q82 0 139 -54t57 -138q0 -82 -54.5 -138t-141.5 -56zM233 350q77 0 125.5 49.5t48.5 122.5q0 76 -50 123t-124 47q-77 0 -125 -48.5t-48 -121.5q0 -77 49.5 -124.5t123.5 -47.5z
M695 -3q-82 0 -138.5 54t-56.5 139q0 81 54.5 136.5t140.5 55.5q83 0 139.5 -53.5t56.5 -138.5q0 -82 -54.5 -137.5t-141.5 -55.5zM1141 -3q-83 0 -139.5 54t-56.5 139q0 81 54.5 136.5t141.5 55.5q83 0 139.5 -53.5t56.5 -138.5q0 -82 -55 -137.5t-141 -55.5zM695 18
q77 0 125.5 49.5t48.5 122.5q0 76 -50 123t-124 47q-77 0 -125.5 -48.5t-48.5 -121.5q0 -76 50.5 -124t123.5 -48zM1141 18q77 0 125.5 49.5t48.5 122.5q0 76 -50 123t-124 47q-77 0 -125.5 -48.5t-48.5 -121.5q0 -76 50 -124t124 -48z" />
    <glyph glyph-name="guilsinglleft" unicode="&#x2039;" horiz-adv-x="244" 
d="M199 13h-22l-131 231l130 229h23l-129 -229z" />
    <glyph glyph-name="guilsinglright" unicode="&#x203a;" horiz-adv-x="244" 
d="M54 13l129 231l-129 229h23l130 -229l-131 -231h-22z" />
    <glyph glyph-name="fraction" unicode="&#x2044;" horiz-adv-x="230" 
d="M-26 -7l-21 7l305 717l20 -8z" />
    <glyph glyph-name="uni2070" unicode="&#x2070;" horiz-adv-x="378" 
 />
    <glyph glyph-name="dong" unicode="&#x20ab;" horiz-adv-x="598" 
d="M520 610h62v-22h-62v-588h-22v133h-2q-26 -62 -81 -99t-127 -37q-102 0 -171.5 67t-69.5 173t67.5 178.5t173.5 72.5q68 0 123.5 -37.5t83.5 -101.5h3v239h-164v22h164v126h22v-126zM288 19q88 0 149 61t61 157t-59 162t-151 66q-93 0 -156 -63.5t-63 -164.5
q0 -92 61 -155t158 -63zM64 -121v22h460v-22h-460z" />
    <glyph glyph-name="Euro" unicode="&#x20ac;" horiz-adv-x="583" 
d="M542 76l14 -19q-83 -60 -193 -60q-101 0 -184.5 71.5t-104.5 197.5h-61v23h58q-2 30 -2 47q0 24 3 47h-59v23h62q19 119 97.5 195.5t190.5 76.5q106 0 188 -57l-14 -20q-76 54 -174 54q-102 0 -173.5 -69.5t-90.5 -179.5h337v-23h-340q-3 -23 -3 -47t3 -47h340v-23h-337
q19 -115 95 -180.5t169 -65.5q104 0 179 56z" />
    <glyph glyph-name="uni20BA" unicode="&#x20ba;" horiz-adv-x="490" 
d="M441 156l22 -10q-53 -146 -231 -146h-154v266l-62 -31l-9 22l71 35v80l-62 -31l-10 22l72 36v288h23v-277l180 89l10 -22l-190 -94v-79l180 89l10 -22l-190 -94v-254h128q166 0 212 133z" />
    <glyph glyph-name="uni2113" unicode="&#x2113;" horiz-adv-x="428" 
d="M394 97l16 -14q-63 -86 -166 -86q-68 0 -106.5 45t-38.5 118q-9 -7 -28 -21.5t-28 -21.5l-11 16q59 46 67 54l2 276q1 114 42.5 165t105.5 51q104 0 104 -146q0 -144 -204 -330v-25q0 -83 31 -121.5t77 -38.5q40 0 77 24t60 55zM249 656q-100 0 -100 -184v-240
q90 86 135 159t45 144q0 62 -18 91.5t-62 29.5z" />
    <glyph glyph-name="uni2116" unicode="&#x2116;" horiz-adv-x="1146" 
d="M919 415q-66 0 -108 42.5t-42 105.5t42 105.5t108 42.5q63 0 106 -41.5t43 -106.5t-43 -106.5t-106 -41.5zM615 40v670h23v-710h-23l-502 669h-1v-669h-23v710h22l503 -670h1zM919 689q-56 0 -91.5 -36.5t-35.5 -89.5q0 -52 35.5 -88.5t91.5 -36.5q54 0 90.5 35t36.5 90
t-37 90.5t-90 35.5zM776 322v21h289v-21h-289z" />
    <glyph glyph-name="trademark" unicode="&#x2122;" horiz-adv-x="658" 
d="M121 387v302h-103v21h228v-21h-103v-302h-22zM301 387v323h24l132 -227l132 227h24v-323h-23v281l-124 -213h-18l-125 213v-281h-22z" />
    <glyph glyph-name="uni2126" unicode="&#x2126;" horiz-adv-x="782" 
d="M508 24v-1h201v-23h-252v23q112 48 176 136t64 205q0 140 -85.5 233t-220.5 93t-220.5 -93t-85.5 -233q0 -117 64.5 -205.5t176.5 -135.5v-23h-253v23h203v1q-100 51 -157 139.5t-57 200.5q0 150 92 249.5t237 99.5t237.5 -100t92.5 -249q0 -112 -56.5 -200.5
t-156.5 -139.5z" />
    <glyph glyph-name="estimated" unicode="&#x212e;" horiz-adv-x="772" 
d="M386 -10q-143 0 -233.5 92.5t-90.5 228.5q0 141 93.5 231t230.5 90q143 0 233.5 -93t90.5 -228v-9h-570v-165q43 -65 111 -95t136 -30q58 0 114.5 23.5t90.5 63.5h34q-39 -51 -105.5 -80t-134.5 -29zM140 325h485l1 170q-40 55 -106.5 84.5t-132.5 29.5
q-72 0 -139.5 -31.5t-105.5 -92.5z" />
    <glyph glyph-name="partialdiff" unicode="&#x2202;" horiz-adv-x="546" 
d="M269 690q63 0 111 -39.5t73.5 -103t38 -129.5t12.5 -131q0 -143 -64 -216.5t-170 -73.5q-102 0 -165 60.5t-63 152.5q0 99 59.5 159t158.5 60q73 0 130 -37t90 -95q-2 63 -13 123t-34 118.5t-66.5 94t-102.5 35.5q-28 0 -57.5 -8t-49 -16.5t-54.5 -26.5l-8 23
q95 50 174 50zM270 21q88 0 145 59t64 169q-23 65 -80 111t-139 46q-89 0 -142 -54t-53 -143q0 -82 56.5 -135t148.5 -53z" />
    <glyph glyph-name="emptyset" unicode="&#x2205;" horiz-adv-x="670" 
d="M546 512q75 -81 75 -194q0 -117 -83.5 -202.5t-202.5 -85.5q-113 0 -193 77l-40 -40l-17 17l40 40q-75 81 -75 194q0 118 83.5 203t202.5 85q112 0 194 -76l33 33l17 -17zM72 318q0 -101 68 -179l374 375q-75 70 -178 70q-110 0 -187 -78.5t-77 -187.5zM335 52
q110 0 187 78.5t77 187.5q0 101 -68 179l-374 -375q75 -70 178 -70z" />
    <glyph glyph-name="uni2206" unicode="&#x2206;" horiz-adv-x="624" 
d="M325 710l270 -689v-21h-566v21l267 689h29zM55 23h514l-257 659h-2z" />
    <glyph glyph-name="product" unicode="&#x220f;" horiz-adv-x="653" 
d="M81 -99v809h492v-809h-23v787h-446v-787h-23z" />
    <glyph glyph-name="summation" unicode="&#x2211;" horiz-adv-x="569" 
d="M540 710v-22h-456l230 -379l-229 -381h455v-23h-484v21l230 383l-230 380v21h484z" />
    <glyph glyph-name="minus" unicode="&#x2212;" horiz-adv-x="596" 
d="M68 265v22h460v-22h-460z" />
    <glyph glyph-name="radical" unicode="&#x221a;" horiz-adv-x="646" 
d="M658 822h24l-357 -822h-22l-167 499h-105v23h122l162 -486h2z" />
    <glyph glyph-name="infinity" unicode="&#x221e;" horiz-adv-x="758" 
d="M555 422q63 0 108 -44t45 -107t-45 -106.5t-108 -43.5q-98 0 -177 128q-75 -128 -175 -128q-63 0 -108 43.5t-45 106.5q0 64 45 107.5t108 43.5q97 0 175 -128q80 128 177 128zM204 143q86 0 162 128q-76 128 -162 128q-54 0 -92.5 -37t-38.5 -91t38.5 -91t92.5 -37z
M554 143q54 0 92.5 37t38.5 91t-38.5 91t-92.5 37q-87 0 -162 -128q36 -61 74 -94.5t88 -33.5z" />
    <glyph glyph-name="integral" unicode="&#x222b;" horiz-adv-x="274" 
d="M-31 -168v20h8q46 0 59 19.5t24 89.5l91 606q9 58 21 85.5t35 33.5q20 5 57 5v-19h-9q-47 0 -59 -18t-23 -91l-91 -609q-10 -56 -21.5 -82.5t-34.5 -34.5q-19 -5 -57 -5z" />
    <glyph glyph-name="uni2236" unicode="&#x2236;" horiz-adv-x="172" 
d="M82 500q-13 0 -21 8t-8 21t8 20.5t21 7.5t21 -7.5t8 -20.5t-8 -21t-21 -8zM82 53q-13 0 -21 8t-8 21t8 20.5t21 7.5t21 -7.5t8 -20.5t-8 -21t-21 -8z" />
    <glyph glyph-name="approxequal" unicode="&#x2248;" horiz-adv-x="590" 
d="M407 341q-37 0 -105 24t-106 24q-70 0 -121 -38l-7 17q57 44 132 44q47 0 110 -24.5t100 -24.5q50 0 105 51l7 -19q-56 -54 -115 -54zM407 127q-37 0 -105 24t-106 24q-73 0 -121 -39l-7 18q61 44 132 44q46 -1 109.5 -25t100.5 -24q22 0 43.5 8.5t32.5 17t29 24.5l7 -18
q-56 -54 -115 -54z" />
    <glyph glyph-name="notequal" unicode="&#x2260;" horiz-adv-x="556" 
d="M510 377h-169l-94 -202h263v-22h-273l-67 -143l-19 9l63 134h-164v22h174l94 202h-268v22h278l67 143l19 -9l-63 -134h159v-22z" />
    <glyph glyph-name="lessequal" unicode="&#x2264;" horiz-adv-x="557" 
d="M493 133l-429 210v16l429 210v-24l-394 -194l394 -193v-25zM492 -1h-433v22h433v-22z" />
    <glyph glyph-name="greaterequal" unicode="&#x2265;" horiz-adv-x="559" 
d="M73 133v25l394 193l-394 194v24l429 -210v-16zM74 -1v22h433v-22h-433z" />
    <glyph glyph-name="uni2713" unicode="&#x2713;" horiz-adv-x="589" 
d="M211 115l-193 200l16 15l173 -180l368 602l19 -12z" />
    <glyph glyph-name="uni2715" unicode="&#x2715;" horiz-adv-x="387" 
d="M29 97l-16 15l165 164l-165 164l16 16l164 -164l165 164l16 -15l-166 -165l165 -164l-16 -15l-164 163z" />
    <glyph glyph-name="Q.alt" horiz-adv-x="821" 
d="M760 356q0 -116 -56.5 -203t-149.5 -127l161 -136l-13 -18l-171 145q-57 -20 -119 -20q-155 0 -252.5 103.5t-97.5 255.5q0 151 98 254.5t252 103.5q146 0 247 -100t101 -258zM85 356q0 -142 91.5 -239t235.5 -97q137 0 231 94t94 242t-94 241t-231 93
q-144 0 -235.5 -96.5t-91.5 -237.5z" />
    <glyph glyph-name="i.loclTRK" horiz-adv-x="195" 
d="M98 606q-12 0 -20 8t-8 19q0 12 8 19.5t20 7.5q27 0 27 -27q0 -11 -7.5 -19t-19.5 -8zM86 0v484h22v-484h-22z" />
    <glyph glyph-name="a.alt" horiz-adv-x="481" 
d="M245 488q164 0 164 -214v-274h-22v91h-3q-26 -41 -74.5 -67.5t-107.5 -26.5q-80 0 -121 39.5t-41 98.5q0 60 44 97.5t133 37.5h170v4q0 191 -142 191q-82 0 -153 -43l-10 20q75 46 163 46zM202 19q75 0 130 45t55 101v83h-170q-69 0 -112 -29t-43 -84q0 -49 35 -82.5
t105 -33.5z" />
    <glyph glyph-name="aacute.alt" horiz-adv-x="481" 
d="M369 696l-124 -135h-30l123 135h31zM245 488q164 0 164 -214v-274h-22v91h-3q-26 -41 -74.5 -67.5t-107.5 -26.5q-80 0 -121 39.5t-41 98.5q0 60 44 97.5t133 37.5h170v4q0 191 -142 191q-82 0 -153 -43l-10 20q75 46 163 46zM202 19q75 0 130 45t55 101v83h-170
q-69 0 -112 -29t-43 -84q0 -49 35 -82.5t105 -33.5z" />
    <glyph glyph-name="abreve.alt" horiz-adv-x="481" 
d="M258 561q-49 0 -83.5 33.5t-38.5 93.5h21q3 -47 30 -76t71 -29q45 0 71.5 29.5t28.5 75.5h22q-4 -60 -38.5 -93.5t-83.5 -33.5zM245 488q164 0 164 -214v-274h-22v91h-3q-26 -41 -74.5 -67.5t-107.5 -26.5q-80 0 -121 39.5t-41 98.5q0 60 44 97.5t133 37.5h170v4
q0 191 -142 191q-82 0 -153 -43l-10 20q75 46 163 46zM202 19q75 0 130 45t55 101v83h-170q-69 0 -112 -29t-43 -84q0 -49 35 -82.5t105 -33.5z" />
    <glyph glyph-name="uni1EAF.alt" horiz-adv-x="481" 
d="M368 832l-124 -135h-30l123 135h31zM258 561q-49 0 -83.5 33.5t-38.5 93.5h21q3 -47 30 -76t71 -29q45 0 71.5 29.5t28.5 75.5h22q-4 -60 -38.5 -93.5t-83.5 -33.5zM245 488q164 0 164 -214v-274h-22v91h-3q-26 -41 -74.5 -67.5t-107.5 -26.5q-80 0 -121 39.5t-41 98.5
q0 60 44 97.5t133 37.5h170v4q0 191 -142 191q-82 0 -153 -43l-10 20q75 46 163 46zM202 19q75 0 130 45t55 101v83h-170q-69 0 -112 -29t-43 -84q0 -49 35 -82.5t105 -33.5z" />
    <glyph glyph-name="uni1EB7.alt" horiz-adv-x="481" 
d="M258 561q-49 0 -83.5 33.5t-38.5 93.5h21q3 -47 30 -76t71 -29q45 0 71.5 29.5t28.5 75.5h22q-4 -60 -38.5 -93.5t-83.5 -33.5zM245 488q164 0 164 -214v-274h-22v91h-3q-26 -41 -74.5 -67.5t-107.5 -26.5q-80 0 -121 39.5t-41 98.5q0 60 44 97.5t133 37.5h170v4
q0 191 -142 191q-82 0 -153 -43l-10 20q75 46 163 46zM202 19q75 0 130 45t55 101v83h-170q-69 0 -112 -29t-43 -84q0 -49 35 -82.5t105 -33.5zM254 -134q12 0 20 -8t8 -19q0 -12 -8 -19.5t-20 -7.5q-27 0 -27 27q0 11 7.5 19t19.5 8z" />
    <glyph glyph-name="uni1EB1.alt" horiz-adv-x="481" 
d="M270 697h-29l-124 135h30zM156 688q3 -47 30 -76t71 -29q45 0 71.5 29.5t28.5 75.5h22q-4 -60 -38.5 -93.5t-83.5 -33.5t-83.5 33.5t-38.5 93.5h21zM245 488q164 0 164 -214v-274h-22v91h-3q-26 -41 -74.5 -67.5t-107.5 -26.5q-80 0 -121 39.5t-41 98.5q0 60 44 97.5
t133 37.5h170v4q0 191 -142 191q-82 0 -153 -43l-10 20q75 46 163 46zM202 19q75 0 130 45t55 101v83h-170q-69 0 -112 -29t-43 -84q0 -49 35 -82.5t105 -33.5z" />
    <glyph glyph-name="uni1EB3.alt" horiz-adv-x="481" 
d="M260 823q-44 0 -67 -32l-16 13q37 41 87 41q34 0 54.5 -19t20.5 -48q0 -18 -13 -34t-27.5 -25t-38.5 -21l-2 -29h-16q-6 11 -6 22q0 13 20 25.5t40.5 27.5t20.5 33q0 23 -17.5 34.5t-39.5 11.5zM257 561q-49 0 -83.5 33.5t-38.5 93.5h21q3 -47 30 -76t71 -29
q45 0 71.5 29.5t28.5 75.5h22q-4 -60 -38.5 -93.5t-83.5 -33.5zM245 488q164 0 164 -214v-274h-22v91h-3q-26 -41 -74.5 -67.5t-107.5 -26.5q-80 0 -121 39.5t-41 98.5q0 60 44 97.5t133 37.5h170v4q0 191 -142 191q-82 0 -153 -43l-10 20q75 46 163 46zM202 19q75 0 130 45
t55 101v83h-170q-69 0 -112 -29t-43 -84q0 -49 35 -82.5t105 -33.5z" />
    <glyph glyph-name="uni1EB5.alt" horiz-adv-x="481" 
d="M184 786q-42 0 -64 -61l-21 6q26 77 84 77q32 0 77 -31q4 -3 17 -12l19.5 -13.5t17.5 -8.5t20 -4q19 0 35 15.5t25 46.5l21 -7q-11 -38 -33 -57.5t-47 -19.5q-6 0 -12 1t-11 2.5t-12 5t-10.5 5.5t-11.5 7t-10.5 6.5t-10.5 7.5t-10 7q-38 27 -63 27zM258 583
q45 0 71.5 29.5t28.5 75.5h22q-4 -60 -38.5 -93.5t-83.5 -33.5t-83.5 33.5t-38.5 93.5h21q3 -47 30 -76t71 -29zM245 488q164 0 164 -214v-274h-22v91h-3q-26 -41 -74.5 -67.5t-107.5 -26.5q-80 0 -121 39.5t-41 98.5q0 60 44 97.5t133 37.5h170v4q0 191 -142 191
q-82 0 -153 -43l-10 20q75 46 163 46zM202 19q75 0 130 45t55 101v83h-170q-69 0 -112 -29t-43 -84q0 -49 35 -82.5t105 -33.5z" />
    <glyph glyph-name="acircumflex.alt" horiz-adv-x="481" 
d="M257 679l-106 -119h-29l122 136h25l125 -136h-29l-106 119h-2zM245 488q164 0 164 -214v-274h-22v91h-3q-26 -41 -74.5 -67.5t-107.5 -26.5q-80 0 -121 39.5t-41 98.5q0 60 44 97.5t133 37.5h170v4q0 191 -142 191q-82 0 -153 -43l-10 20q75 46 163 46zM202 19
q75 0 130 45t55 101v83h-170q-69 0 -112 -29t-43 -84q0 -49 35 -82.5t105 -33.5z" />
    <glyph glyph-name="uni1EA5.alt" horiz-adv-x="481" 
d="M505 775l-124 -135h-30l123 135h31zM259 680l-106 -119h-29l122 136h25l125 -136h-29l-106 119h-2zM245 488q164 0 164 -214v-274h-22v91h-3q-26 -41 -74.5 -67.5t-107.5 -26.5q-80 0 -121 39.5t-41 98.5q0 60 44 97.5t133 37.5h170v4q0 191 -142 191q-82 0 -153 -43
l-10 20q75 46 163 46zM202 19q75 0 130 45t55 101v83h-170q-69 0 -112 -29t-43 -84q0 -49 35 -82.5t105 -33.5z" />
    <glyph glyph-name="uni1EAD.alt" horiz-adv-x="481" 
d="M257 679l-106 -119h-29l122 136h25l125 -136h-29l-106 119h-2zM245 488q164 0 164 -214v-274h-22v91h-3q-26 -41 -74.5 -67.5t-107.5 -26.5q-80 0 -121 39.5t-41 98.5q0 60 44 97.5t133 37.5h170v4q0 191 -142 191q-82 0 -153 -43l-10 20q75 46 163 46zM202 19
q75 0 130 45t55 101v83h-170q-69 0 -112 -29t-43 -84q0 -49 35 -82.5t105 -33.5zM254 -134q12 0 20 -8t8 -19q0 -12 -8 -19.5t-20 -7.5q-27 0 -27 27q0 11 7.5 19t19.5 8z" />
    <glyph glyph-name="uni1EA7.alt" horiz-adv-x="481" 
d="M431 640h-29l-125 135h31zM255 681l-106 -119h-29l122 136h25l125 -136h-29l-106 119h-2zM245 488q164 0 164 -214v-274h-22v91h-3q-26 -41 -74.5 -67.5t-107.5 -26.5q-80 0 -121 39.5t-41 98.5q0 60 44 97.5t133 37.5h170v4q0 191 -142 191q-82 0 -153 -43l-10 20
q75 46 163 46zM202 19q75 0 130 45t55 101v83h-170q-69 0 -112 -29t-43 -84q0 -49 35 -82.5t105 -33.5z" />
    <glyph glyph-name="uni1EA9.alt" horiz-adv-x="481" 
d="M393 791q34 0 54.5 -19t20.5 -48q0 -18 -13 -34t-27.5 -25t-38.5 -21l-2 -28h-16q-7 11 -7 21q0 14 20.5 26.5t41 27t20.5 32.5q0 24 -17.5 35t-39.5 11q-43 0 -68 -32l-15 13q36 41 87 41zM256 679l-106 -119h-29l122 136h25l125 -136h-29l-106 119h-2zM245 488
q164 0 164 -214v-274h-22v91h-3q-26 -41 -74.5 -67.5t-107.5 -26.5q-80 0 -121 39.5t-41 98.5q0 60 44 97.5t133 37.5h170v4q0 191 -142 191q-82 0 -153 -43l-10 20q75 46 163 46zM202 19q75 0 130 45t55 101v83h-170q-69 0 -112 -29t-43 -84q0 -49 35 -82.5t105 -33.5z" />
    <glyph glyph-name="uni1EAB.alt" horiz-adv-x="481" 
d="M183 791q-42 0 -64 -61l-21 6q26 77 84 77q32 0 77 -31q4 -3 17 -12l19.5 -13.5t17.5 -8.5t20 -4q19 0 35 15.5t25 46.5l21 -7q-11 -38 -33 -57.5t-47 -19.5q-6 0 -12 1t-11 2.5t-12 5t-10.5 5.5t-11.5 7t-10.5 6.5t-10.5 7.5t-10 7q-38 27 -63 27zM245 696h25l125 -136
h-29l-106 119h-2l-106 -119h-29zM245 488q164 0 164 -214v-274h-22v91h-3q-26 -41 -74.5 -67.5t-107.5 -26.5q-80 0 -121 39.5t-41 98.5q0 60 44 97.5t133 37.5h170v4q0 191 -142 191q-82 0 -153 -43l-10 20q75 46 163 46zM202 19q75 0 130 45t55 101v83h-170
q-69 0 -112 -29t-43 -84q0 -49 35 -82.5t105 -33.5z" />
    <glyph glyph-name="adieresis.alt" horiz-adv-x="481" 
d="M184 606q-12 0 -20 8t-8 19q0 12 8 19.5t20 7.5q27 0 27 -27q0 -11 -7.5 -19t-19.5 -8zM331 606q-12 0 -20 8t-8 19q0 12 8 19.5t20 7.5q27 0 27 -27q0 -11 -7.5 -19t-19.5 -8zM245 488q164 0 164 -214v-274h-22v91h-3q-26 -41 -74.5 -67.5t-107.5 -26.5q-80 0 -121 39.5
t-41 98.5q0 60 44 97.5t133 37.5h170v4q0 191 -142 191q-82 0 -153 -43l-10 20q75 46 163 46zM202 19q75 0 130 45t55 101v83h-170q-69 0 -112 -29t-43 -84q0 -49 35 -82.5t105 -33.5z" />
    <glyph glyph-name="uni1EA1.alt" horiz-adv-x="481" 
d="M245 488q164 0 164 -214v-274h-22v91h-3q-26 -41 -74.5 -67.5t-107.5 -26.5q-80 0 -121 39.5t-41 98.5q0 60 44 97.5t133 37.5h170v4q0 191 -142 191q-82 0 -153 -43l-10 20q75 46 163 46zM202 19q75 0 130 45t55 101v83h-170q-69 0 -112 -29t-43 -84q0 -49 35 -82.5
t105 -33.5zM254 -134q12 0 20 -8t8 -19q0 -12 -8 -19.5t-20 -7.5q-27 0 -27 27q0 11 7.5 19t19.5 8z" />
    <glyph glyph-name="agrave.alt" horiz-adv-x="481" 
d="M287 561h-29l-124 135h30zM245 488q164 0 164 -214v-274h-22v91h-3q-26 -41 -74.5 -67.5t-107.5 -26.5q-80 0 -121 39.5t-41 98.5q0 60 44 97.5t133 37.5h170v4q0 191 -142 191q-82 0 -153 -43l-10 20q75 46 163 46zM202 19q75 0 130 45t55 101v83h-170q-69 0 -112 -29
t-43 -84q0 -49 35 -82.5t105 -33.5z" />
    <glyph glyph-name="uni1EA3.alt" horiz-adv-x="481" 
d="M261 687q-44 0 -67 -32l-16 13q37 41 87 41q34 0 54.5 -19t20.5 -48q0 -18 -13 -34t-27.5 -25t-38.5 -21l-2 -29h-16q-6 11 -6 22t12.5 21t28 17.5t28 20.5t12.5 27q0 23 -17.5 34.5t-39.5 11.5zM245 488q164 0 164 -214v-274h-22v91h-3q-26 -41 -74.5 -67.5
t-107.5 -26.5q-80 0 -121 39.5t-41 98.5q0 60 44 97.5t133 37.5h170v4q0 191 -142 191q-82 0 -153 -43l-10 20q75 46 163 46zM202 19q75 0 130 45t55 101v83h-170q-69 0 -112 -29t-43 -84q0 -49 35 -82.5t105 -33.5z" />
    <glyph glyph-name="amacron.alt" horiz-adv-x="481" 
d="M392 642v-23h-267v23h267zM245 488q164 0 164 -214v-274h-22v91h-3q-26 -41 -74.5 -67.5t-107.5 -26.5q-80 0 -121 39.5t-41 98.5q0 60 44 97.5t133 37.5h170v4q0 191 -142 191q-82 0 -153 -43l-10 20q75 46 163 46zM202 19q75 0 130 45t55 101v83h-170q-69 0 -112 -29
t-43 -84q0 -49 35 -82.5t105 -33.5z" />
    <glyph glyph-name="aogonek.alt" horiz-adv-x="481" 
d="M450 -145l4 -23q-26 -13 -63 -13q-39 0 -61.5 19.5t-22.5 56.5q0 29 21 60t59 55v81h-3q-26 -41 -74.5 -67.5t-107.5 -26.5q-80 0 -121 39.5t-41 98.5q0 60 44 97.5t133 37.5h170v4q0 191 -142 191q-82 0 -153 -43l-10 20q75 46 163 46q164 0 164 -214v-274
q-36 -19 -57.5 -47t-21.5 -57q0 -54 61 -54q33 0 59 13zM202 19q75 0 130 45t55 101v83h-170q-69 0 -112 -29t-43 -84q0 -49 35 -82.5t105 -33.5z" />
    <glyph glyph-name="aring.alt" horiz-adv-x="481" 
d="M258 555q-29 0 -51 22t-22 51q0 30 22 51.5t51 21.5q30 0 52 -21.5t22 -51.5q0 -29 -22 -51t-52 -22zM258 679q-21 0 -36 -15t-15 -36q0 -20 15 -35t36 -15t36.5 15t15.5 35q0 21 -15.5 36t-36.5 15zM245 488q164 0 164 -214v-274h-22v91h-3q-26 -41 -74.5 -67.5
t-107.5 -26.5q-80 0 -121 39.5t-41 98.5q0 60 44 97.5t133 37.5h170v4q0 191 -142 191q-82 0 -153 -43l-10 20q75 46 163 46zM202 19q75 0 130 45t55 101v83h-170q-69 0 -112 -29t-43 -84q0 -49 35 -82.5t105 -33.5z" />
    <glyph glyph-name="aringacute.alt" horiz-adv-x="481" 
d="M258 555q-29 0 -51 22t-22 51q0 30 22 51.5t51 21.5q40 0 61 -33l95 60h39l-124 -79q3 -11 3 -21q0 -29 -22 -51t-52 -22zM258 679q-21 0 -36 -15t-15 -36q0 -20 15 -35t36 -15t36.5 15t15.5 35q0 21 -15.5 36t-36.5 15zM245 488q164 0 164 -214v-274h-22v91h-3
q-26 -41 -74.5 -67.5t-107.5 -26.5q-80 0 -121 39.5t-41 98.5q0 60 44 97.5t133 37.5h170v4q0 191 -142 191q-82 0 -153 -43l-10 20q75 46 163 46zM202 19q75 0 130 45t55 101v83h-170q-69 0 -112 -29t-43 -84q0 -49 35 -82.5t105 -33.5z" />
    <glyph glyph-name="atilde.alt" horiz-adv-x="481" 
d="M184 650q-42 0 -64 -61l-21 6q26 77 84 77q32 0 77 -31q4 -3 17 -12l19.5 -13.5t17.5 -8.5t20 -4q19 0 35 15.5t25 46.5l21 -7q-11 -38 -33 -57.5t-47 -19.5q-6 0 -12 1t-11 2.5t-12 5t-10.5 5.5t-11.5 7t-10.5 6.5t-10.5 7.5t-10 7q-38 27 -63 27zM245 488
q164 0 164 -214v-274h-22v91h-3q-26 -41 -74.5 -67.5t-107.5 -26.5q-80 0 -121 39.5t-41 98.5q0 60 44 97.5t133 37.5h170v4q0 191 -142 191q-82 0 -153 -43l-10 20q75 46 163 46zM202 19q75 0 130 45t55 101v83h-170q-69 0 -112 -29t-43 -84q0 -49 35 -82.5t105 -33.5z" />
    <glyph glyph-name="g.alt" horiz-adv-x="550" 
d="M278 49q50 0 87 -4.5t70 -16.5t50.5 -36.5t17.5 -60.5q0 -61 -59 -103.5t-177 -42.5q-104 0 -163.5 35.5t-59.5 103.5q0 64 66 114v2q-40 18 -40 59q1 23 16 44.5t50 54.5v2q-41 46 -41 113q0 74 50 124.5t129 50.5q71 0 121 -44h2l105 100l17 -17l-107 -98v-3
q40 -46 40 -113q0 -72 -50 -122.5t-128 -50.5q-70 0 -121 43h-1q-34 -30 -46.5 -46t-12.5 -36q-2 -52 96 -52h89zM274 465q-68 0 -112 -43t-44 -109q0 -64 44.5 -107t111.5 -43q66 0 111 43t45 107q0 66 -44 109t-112 43zM268 -193q94 0 153 32t59 92q0 56 -51.5 76
t-150.5 20h-89q-37 0 -54 4q-25 -16 -47 -45t-22 -62q0 -49 48 -83t154 -34z" />
    <glyph glyph-name="gbreve.alt" horiz-adv-x="550" 
d="M274 561q-49 0 -83.5 33.5t-38.5 93.5h21q3 -47 30 -76t71 -29q45 0 71.5 29.5t28.5 75.5h22q-4 -60 -38.5 -93.5t-83.5 -33.5zM278 49q50 0 87 -4.5t70 -16.5t50.5 -36.5t17.5 -60.5q0 -61 -59 -103.5t-177 -42.5q-104 0 -163.5 35.5t-59.5 103.5q0 64 66 114v2
q-40 18 -40 59q1 23 16 44.5t50 54.5v2q-41 46 -41 113q0 74 50 124.5t129 50.5q71 0 121 -44h2l105 100l17 -17l-107 -98v-3q40 -46 40 -113q0 -72 -50 -122.5t-128 -50.5q-70 0 -121 43h-1q-34 -30 -46.5 -46t-12.5 -36q-2 -52 96 -52h89zM274 465q-68 0 -112 -43
t-44 -109q0 -64 44.5 -107t111.5 -43q66 0 111 43t45 107q0 66 -44 109t-112 43zM268 -193q94 0 153 32t59 92q0 56 -51.5 76t-150.5 20h-89q-37 0 -54 4q-25 -16 -47 -45t-22 -62q0 -49 48 -83t154 -34z" />
    <glyph glyph-name="gcaron.alt" horiz-adv-x="550" 
d="M285 560h-25l-122 136h29l105 -118h4l105 118h29zM278 49q50 0 87 -4.5t70 -16.5t50.5 -36.5t17.5 -60.5q0 -61 -59 -103.5t-177 -42.5q-104 0 -163.5 35.5t-59.5 103.5q0 64 66 114v2q-40 18 -40 59q1 23 16 44.5t50 54.5v2q-41 46 -41 113q0 74 50 124.5t129 50.5
q71 0 121 -44h2l105 100l17 -17l-107 -98v-3q40 -46 40 -113q0 -72 -50 -122.5t-128 -50.5q-70 0 -121 43h-1q-34 -30 -46.5 -46t-12.5 -36q-2 -52 96 -52h89zM274 465q-68 0 -112 -43t-44 -109q0 -64 44.5 -107t111.5 -43q66 0 111 43t45 107q0 66 -44 109t-112 43z
M268 -193q94 0 153 32t59 92q0 56 -51.5 76t-150.5 20h-89q-37 0 -54 4q-25 -16 -47 -45t-22 -62q0 -49 48 -83t154 -34z" />
    <glyph glyph-name="gcircumflex.alt" horiz-adv-x="550" 
d="M273 680l-106 -120h-29l122 136h25l125 -136h-29zM278 49q50 0 87 -4.5t70 -16.5t50.5 -36.5t17.5 -60.5q0 -61 -59 -103.5t-177 -42.5q-104 0 -163.5 35.5t-59.5 103.5q0 64 66 114v2q-40 18 -40 59q1 23 16 44.5t50 54.5v2q-41 46 -41 113q0 74 50 124.5t129 50.5
q71 0 121 -44h2l105 100l17 -17l-107 -98v-3q40 -46 40 -113q0 -72 -50 -122.5t-128 -50.5q-70 0 -121 43h-1q-34 -30 -46.5 -46t-12.5 -36q-2 -52 96 -52h89zM274 465q-68 0 -112 -43t-44 -109q0 -64 44.5 -107t111.5 -43q66 0 111 43t45 107q0 66 -44 109t-112 43z
M268 -193q94 0 153 32t59 92q0 56 -51.5 76t-150.5 20h-89q-37 0 -54 4q-25 -16 -47 -45t-22 -62q0 -49 48 -83t154 -34z" />
    <glyph glyph-name="gcommaaccent.alt" horiz-adv-x="550" 
d="M297 552h-22q-5 28 -5 55q0 84 82 89l8 -18q-40 -2 -54 -20.5t-14 -49.5q0 -26 5 -56zM278 49q50 0 87 -4.5t70 -16.5t50.5 -36.5t17.5 -60.5q0 -61 -59 -103.5t-177 -42.5q-104 0 -163.5 35.5t-59.5 103.5q0 64 66 114v2q-40 18 -40 59q1 23 16 44.5t50 54.5v2
q-41 46 -41 113q0 74 50 124.5t129 50.5q71 0 121 -44h2l105 100l17 -17l-107 -98v-3q40 -46 40 -113q0 -72 -50 -122.5t-128 -50.5q-70 0 -121 43h-1q-34 -30 -46.5 -46t-12.5 -36q-2 -52 96 -52h89zM274 465q-68 0 -112 -43t-44 -109q0 -64 44.5 -107t111.5 -43
q66 0 111 43t45 107q0 66 -44 109t-112 43zM268 -193q94 0 153 32t59 92q0 56 -51.5 76t-150.5 20h-89q-37 0 -54 4q-25 -16 -47 -45t-22 -62q0 -49 48 -83t154 -34z" />
    <glyph glyph-name="gdotaccent.alt" horiz-adv-x="550" 
d="M274 606q-12 0 -20 8t-8 19q0 12 8 19.5t20 7.5q27 0 27 -27q0 -11 -7.5 -19t-19.5 -8zM278 49q50 0 87 -4.5t70 -16.5t50.5 -36.5t17.5 -60.5q0 -61 -59 -103.5t-177 -42.5q-104 0 -163.5 35.5t-59.5 103.5q0 64 66 114v2q-40 18 -40 59q1 23 16 44.5t50 54.5v2
q-41 46 -41 113q0 74 50 124.5t129 50.5q71 0 121 -44h2l105 100l17 -17l-107 -98v-3q40 -46 40 -113q0 -72 -50 -122.5t-128 -50.5q-70 0 -121 43h-1q-34 -30 -46.5 -46t-12.5 -36q-2 -52 96 -52h89zM274 465q-68 0 -112 -43t-44 -109q0 -64 44.5 -107t111.5 -43
q66 0 111 43t45 107q0 66 -44 109t-112 43zM268 -193q94 0 153 32t59 92q0 56 -51.5 76t-150.5 20h-89q-37 0 -54 4q-25 -16 -47 -45t-22 -62q0 -49 48 -83t154 -34z" />
    <glyph glyph-name="f.calt" horiz-adv-x="311" 
d="M105 0v462h-68v22h68v118q0 69 31.5 103.5t85.5 34.5q35 0 65 -11l-5 -22q-26 10 -61 10q-42 0 -68 -27.5t-26 -87.5v-118h173v-22h-173v-462h-22z" />
    <glyph glyph-name="j.calt" horiz-adv-x="176" 
d="M94 606q-12 0 -20 8t-8 19q0 12 8 19.5t20 7.5q27 0 27 -27q0 -11 -7.5 -19t-19.5 -8zM-31 -173q19 -6 42 -6q36 0 54 20t18 69v574h22v-574q0 -51 -20.5 -81t-75.5 -30q-25 0 -43 5z" />
    <glyph glyph-name="uni0237.calt" horiz-adv-x="176" 
d="M-31 -173q19 -6 42 -6q36 0 54 20t18 69v574h22v-574q0 -51 -20.5 -81t-75.5 -30q-25 0 -43 5z" />
    <glyph glyph-name="jcircumflex.calt" horiz-adv-x="176" 
d="M105 696l125 -136h-29l-106 119h-2l-106 -119h-29l122 136h25zM83 -90v574h22v-574q0 -51 -20.5 -81t-75.5 -30q-25 0 -43 5l3 23q19 -6 42 -6q36 0 54 20t18 69z" />
    <glyph glyph-name="germandbls.calt" horiz-adv-x="695" 
d="M435 373q8 -3 33 -13t33.5 -13.5t30 -13t30 -14.5t25 -15.5t23.5 -19t17.5 -21t15 -25.5t8 -29.5t3.5 -34.5q0 -77 -60 -127t-163 -50q-143 0 -233 100l13 23q38 -49 97 -74.5t125 -25.5q82 0 139.5 40.5t57.5 113.5q0 20 -5 37.5t-11 30t-20.5 25.5t-24.5 20.5t-31.5 18
t-32.5 15t-38 15t-38 15.5q-59 24 -85 37l154 279q-97 23 -214 23q-105 0 -153 -42.5t-48 -133.5v-514h-23v517q0 100 54 148.5t167 48.5q120 0 251 -32l-9 -17v-2l-2 -1l-144 -264v-1z" />
    <glyph glyph-name="gamma.alt" horiz-adv-x="514" 
d="M467 484q-7 -77 -29 -151t-58.5 -143t-64 -111.5t-69.5 -102.5q12 -72 20 -174h-22q-13 175 -61 352q-84 311 -163 311q-4 0 -18 -2l-2 22q18 3 20 3q51 0 94.5 -79t89.5 -249q24 -90 35 -149h2q185 259 202 473h24z" />
    <glyph glyph-name="eta.alt" horiz-adv-x="577" 
d="M330 488q82 0 128.5 -57.5t46.5 -153.5v-475h-22v464q0 98 -42 148.5t-111 50.5q-87 0 -142.5 -69.5t-55.5 -175.5v-220h-22v375q0 90 -52 90q-5 0 -17 -2l-2 22q11 3 21 3q34 0 53 -28.5t19 -73.5v-45h1q26 67 78.5 107t118.5 40z" />
    <glyph glyph-name="uni03BC.alt" horiz-adv-x="570" 
d="M559 28l3 -22q-20 -9 -47 -9q-73 0 -73 116v29h-1q-26 -66 -75.5 -105.5t-107.5 -39.5q-112 0 -156 97q0 -18 0.5 -55.5t0.5 -56.5v-180h-22v682h22v-265q0 -100 40.5 -150t114.5 -50q75 0 129.5 70t54.5 171v224h22v-360q0 -23 1.5 -39t6.5 -32.5t16.5 -25t28.5 -8.5
q24 0 42 9z" />
    <glyph glyph-name="nu.alt" horiz-adv-x="494" 
d="M436 484h23q0 -247 -205 -484h-22l-203 484h26l190 -455h2q194 226 189 455z" />
    <glyph glyph-name="xi.alt" horiz-adv-x="445" 
d="M433 715q-59 -7 -108.5 -20t-97 -33.5t-75 -54t-27.5 -75.5q0 -60 48.5 -93t119.5 -33h87v-22h-104q-96 0 -151 -41t-55 -117q0 -67 42.5 -107.5t127.5 -70.5q115 -41 139 -56q40 -25 39 -67q-1 -51 -58 -123l-22 10q57 71 57 112q1 31 -23.5 46t-110.5 46q-20 7 -31 11
q-91 32 -137 78t-46 121q0 70 41 114t115 58v1q-47 17 -74 50.5t-27 80.5q0 51 33.5 90t77 59.5t99.5 33.5v1h-233v22h354v-21z" />
    <glyph glyph-name="pi.alt" horiz-adv-x="596" 
d="M574 462h-114v-348q0 -24 1.5 -37t6.5 -28.5t18 -22.5t34 -7q26 0 50 9l3 -22q-30 -9 -56 -9q-47 0 -63 28.5t-16 78.5v358h-300v-462h-22v462h-96v19l96 3h458v-22z" />
    <glyph glyph-name="upsilon.alt" horiz-adv-x="525" 
d="M269 -3q-94 0 -147.5 58.5t-53.5 174.5v254h22v-243q0 -222 179 -222q78 0 132 68.5t54 183.5q0 107 -37 211l21 8q38 -110 38 -220q0 -119 -58.5 -196t-149.5 -77z" />
    <glyph glyph-name="psi.alt" horiz-adv-x="652" 
d="M610 263q0 -130 -66.5 -197.5t-197.5 -68.5v-195h-22v195q-123 1 -189.5 60t-66.5 169v258h22v-247q0 -113 63 -165t171 -53v606l22 1v-607q241 2 241 244q0 111 -39 219l22 8q40 -118 40 -227z" />
    <glyph glyph-name="upsilontonos.alt" horiz-adv-x="525" 
d="M250 562l60 153h27l-62 -153h-25zM269 -3q-94 0 -147.5 58.5t-53.5 174.5v254h22v-243q0 -222 179 -222q78 0 132 68.5t54 183.5q0 107 -37 211l21 8q38 -110 38 -220q0 -119 -58.5 -196t-149.5 -77z" />
    <glyph glyph-name="upsilondieresis.alt" horiz-adv-x="525" 
d="M143 607q-12 0 -19.5 8t-7.5 19q0 27 27 27q12 0 20 -7.5t8 -19.5q0 -11 -8 -19t-20 -8zM367 607q-12 0 -19.5 8t-7.5 19q0 27 27 27q28 0 28 -27q0 -12 -7.5 -19.5t-20.5 -7.5zM269 -3q-94 0 -147.5 58.5t-53.5 174.5v254h22v-243q0 -222 179 -222q78 0 132 68.5
t54 183.5q0 107 -37 211l21 8q38 -110 38 -220q0 -119 -58.5 -196t-149.5 -77z" />
    <glyph glyph-name="upsilondieresistonos.alt" horiz-adv-x="525" 
d="M239 562l60 153h27l-62 -153h-25zM133 607q-12 0 -19.5 8t-7.5 19q0 27 27 27q12 0 20 -7.5t8 -19.5q0 -11 -8 -19t-20 -8zM386 607q-12 0 -19.5 8t-7.5 19q0 27 27 27q12 0 20 -7.5t8 -19.5q0 -11 -8 -19t-20 -8zM269 -3q-94 0 -147.5 58.5t-53.5 174.5v254h22v-243
q0 -222 179 -222q78 0 132 68.5t54 183.5q0 107 -37 211l21 8q38 -110 38 -220q0 -119 -58.5 -196t-149.5 -77z" />
    <glyph glyph-name="etatonos.alt" horiz-adv-x="577" 
d="M384 715l-62 -153h-25l60 153h27zM330 488q82 0 128.5 -57.5t46.5 -153.5v-475h-22v464q0 98 -42 148.5t-111 50.5q-87 0 -142.5 -69.5t-55.5 -175.5v-220h-22v375q0 90 -52 90q-5 0 -17 -2l-2 22q11 3 21 3q34 0 53 -28.5t19 -73.5v-45h1q26 67 78.5 107t118.5 40z" />
    <glyph glyph-name="bullet.case" horiz-adv-x="416" 
d="M185 258q-35 0 -60 24.5t-25 60.5q0 35 25 59.5t60 24.5t60.5 -24.5t25.5 -59.5q0 -36 -25 -60.5t-61 -24.5z" />
    <glyph glyph-name="exclamdown.case" horiz-adv-x="190" 
d="M95 535q13 0 21 -8t8 -21t-8 -20.5t-21 -7.5t-21 7.5t-8 20.5t8 21t21 8zM85 345h18l4 -556h-26z" />
    <glyph glyph-name="questiondown.case" horiz-adv-x="417" 
d="M235 534q13 0 21 -8t8 -21t-8 -20.5t-21 -7.5t-21 7.5t-8 20.5t8 21t21 8zM248 348v-60q0 -12 -2.5 -24t-9 -24.5t-11.5 -21.5t-16.5 -22.5t-17.5 -20.5t-20.5 -22.5t-19.5 -21.5q-41 -44 -63.5 -83.5t-22.5 -88.5q0 -69 45.5 -110t109.5 -41q49 0 92 22.5t70 65.5
l16 -18q-64 -94 -178 -94q-80 0 -129.5 51t-49.5 124q0 38 15 75t32.5 59.5t46.5 53.5q4 5 19.5 21t20 21.5t16 19t15.5 20.5t10.5 18.5t8.5 21t2 19.5v60h21z" />
    <glyph glyph-name="braceleft.case" horiz-adv-x="242" 
d="M131 422q0 -42 -12 -63t-49 -27v-2q37 -6 49 -27t12 -63v-226q0 -48 18.5 -68t55.5 -20h28v-20h-27q-41 0 -68 24t-27 65v252q0 16 -1.5 25t-8 21t-23 18.5t-42.5 8.5v22q26 3 42 9.5t23 18t8.5 20.5t1.5 26v263q0 39 25.5 65t69.5 26h27v-21h-28q-32 0 -53 -19t-21 -52
v-256z" />
    <glyph glyph-name="braceright.case" horiz-adv-x="242" 
d="M141 416q0 -17 1.5 -26t8.5 -20.5t23 -18t42 -9.5v-22q-26 -2 -42.5 -8.5t-23 -18.5t-8 -21t-1.5 -25v-252q0 -41 -27 -65t-68 -24h-27v20h28q37 0 55.5 20t18.5 68v226q0 42 12 63t49 27v2q-37 6 -49 27t-12 63v256q0 33 -21 52t-53 19h-28v21h27q44 0 69.5 -26
t25.5 -65v-263z" />
    <glyph glyph-name="bracketleft.case" horiz-adv-x="218" 
d="M82 -96v864h141v-21h-120v-823h120v-20h-141z" />
    <glyph glyph-name="bracketright.case" horiz-adv-x="218" 
d="M146 -95h-141v20h120v823h-120v21h141v-864z" />
    <glyph glyph-name="parenleft.case" horiz-adv-x="207" 
d="M169 -91q-101 213 -101 434q0 244 107 434l18 -11q-103 -186 -103 -423q0 -215 99 -425z" />
    <glyph glyph-name="parenright.case" horiz-adv-x="240" 
d="M91 -91l-20 9q99 210 99 425q0 237 -103 423l18 11q107 -190 107 -434q0 -221 -101 -434z" />
    <glyph glyph-name="emdash.case" horiz-adv-x="1031" 
d="M49 306v21h933v-21h-933z" />
    <glyph glyph-name="endash.case" horiz-adv-x="564" 
d="M49 306v21h466v-21h-466z" />
    <glyph glyph-name="uni2015.case" horiz-adv-x="1180" 
d="M53 305v22h1073v-22h-1073z" />
    <glyph glyph-name="hyphen.case" horiz-adv-x="374" 
d="M48 309v23h277v-23h-277z" />
    <glyph glyph-name="guillemotleft.case" horiz-adv-x="394" 
d="M199 58h-22l-130 231l130 229h22l-128 -229zM350 58h-22l-131 231l130 229h23l-129 -229z" />
    <glyph glyph-name="guillemotright.case" horiz-adv-x="394" 
d="M54 57l129 231l-129 229h23l130 -229l-131 -231h-22zM205 57l128 231l-128 229h22l130 -229l-130 -231h-22z" />
    <glyph glyph-name="CR" horiz-adv-x="239" 
 />
    <glyph glyph-name="plus.case" horiz-adv-x="583" 
d="M280 90v219h-219v22h219v220h22v-220h219v-22h-219v-219h-22z" />
    <glyph glyph-name="at.case" horiz-adv-x="886" 
d="M482 719q159 0 261 -96t102 -255q0 -37 -10.5 -79t-30.5 -82t-56.5 -66.5t-82.5 -26.5q-77 0 -77 90q0 2 2 28h-3q-24 -50 -72 -78.5t-106 -28.5q-75 0 -128 53.5t-53 138.5q0 82 55.5 150t159.5 68q56 0 99.5 -30.5t62.5 -83.5h1l11 111h22l-26 -286q-2 -13 -2 -35
q0 -46 13.5 -60t40.5 -14q52 0 90 41.5t52.5 91.5t14.5 97q0 150 -95 240t-245 90q-85 0 -155 -25t-115.5 -66t-77.5 -94t-45.5 -107t-13.5 -107q0 -146 94.5 -241t236.5 -95q129 0 223 53l14 -19q-102 -57 -237 -57q-151 0 -252.5 101.5t-101.5 257.5q0 53 13.5 108t46 112
t80 101t123 72t167.5 28zM411 148q48 0 86 20t59 50.5t32 63.5t11 64q0 72 -42.5 119t-111.5 47q-93 0 -143.5 -58t-50.5 -133t45 -124t115 -49z" />
    <glyph glyph-name="dieresis.short" horiz-adv-x="497" 
d="M175 593q-12 0 -20 8t-8 19q0 12 8 19.5t20 7.5q27 0 27 -27q0 -11 -7.5 -19t-19.5 -8zM322 593q-12 0 -19.5 8t-7.5 19q0 27 27 27q12 0 20 -7.5t8 -19.5q0 -11 -8 -19t-20 -8z" />
    <glyph glyph-name="tilde.short" horiz-adv-x="528" 
d="M342 568q-6 0 -12 1t-11 2.5t-12 5t-10.5 5.5t-11.5 7t-10.5 6.5t-10.5 7.5t-10 7q-38 27 -63 27q-42 0 -64 -61l-21 6q26 77 84 77q32 0 77 -31q4 -3 17 -12l19.5 -13.5t17.5 -8.5t20 -4q19 0 35 15.5t25 46.5l21 -7q-11 -38 -33 -57.5t-47 -19.5z" />
    <glyph glyph-name="NULL" horiz-adv-x="0" 
 />
    <glyph glyph-name="KB" horiz-adv-x="914" 
d="M468 -1q-94 0 -160 36.5t-94 94.5l21 9q71 -94 201 -94q53 0 87 25t34 76q0 43 -43 86t-118 71q-14 -51 -19 -74q42 -7 71 -17l-5 -36h-248l-1 34q49 34 98 50l73 382l-65 19l-2 30q47 29 118 29l69 -35l-63 -194l-66 -189l10 -2q36 132 91 188t130 56q56 0 89 -24
t33 -74q0 -60 -49 -98t-146 -38q-37 0 -69 4v-9q51 -6 86.5 -13.5t79.5 -24t67.5 -45.5t23.5 -69q0 -67 -61.5 -110.5t-172.5 -43.5zM405 330q90 3 131.5 40.5t41.5 83.5q0 21 -11 35.5t-30 14.5q-26 0 -63.5 -42.5t-68.5 -131.5zM44 -146l-12 39h7l8 -28l8 28h7l7 -28l9 28
h6l-12 -39h-6l-8 29l-8 -29h-6zM100 -146l-12 39h7l9 -28l7 28h7l7 -28l9 28h7l-12 -39h-6l-8 29l-9 -29h-6zM157 -146l-12 39h6l9 -28l7 28h7l8 -28l8 28h7l-12 -39h-6l-8 29l-8 -29h-6zM213 -146v39h7v-19l15 19h8l-14 -18l15 -21h-9l-11 16l-4 -5v-11h-7zM265 -146
q-20 0 -20 20q0 19 20 19q19 0 19 -19q0 -20 -19 -20zM304 -146q-10 0 -14 6l3 5q4 -5 11 -5q6 0 6 4t-7 7q-12 4 -12 11q0 11 12 11q8 0 13 -5l-4 -5q-4 4 -9 4t-5 -4q0 -3 7 -6q12 -3 12 -12q0 -11 -13 -11zM332 -146v33h-12v6h29v-6h-11v-33h-6zM348 -146l15 39h6l15 -39
h-7l-3 8h-16l-3 -8h-7zM401 -146q-9 0 -14 6l4 5q4 -5 10 -5t6 4t-7 7q-12 4 -12 11q0 11 12 11q8 0 13 -5l-4 -5q-4 4 -9 4t-5 -4q0 -3 7 -6q12 -3 12 -12q0 -11 -13 -11zM421 -146v39h14q13 0 13 -10q0 -7 -6 -8q8 -2 8 -10q0 -11 -13 -11h-16zM453 -146l14 39h7l14 -39
h-7l-2 8h-16l-3 -8h-7zM494 -146v39h15q13 0 13 -13q0 -10 -9 -11l10 -15h-8l-9 14h-5v-14h-7zM537 -146v33h-11v6h29v-6h-12v-33h-6zM573 -146q-9 0 -14 6l4 5q3 -5 10 -5q6 0 6 4t-7 7q-12 4 -12 11q0 11 12 11q8 0 13 -5l-4 -5q-4 4 -9 4t-5 -4q0 -3 7 -6q12 -3 12 -12
q0 -11 -13 -11zM611 -146q-19 0 -19 20q0 19 19 19q20 0 20 -19q0 -20 -20 -20zM638 -146v39h7v-19l15 19h8l-14 -18l15 -21h-8l-12 16l-4 -5v-11h-7zM671 -146l15 39h6l15 -39h-7l-3 8h-16l-3 -8h-7zM724 -146q-9 0 -14 6l4 5q4 -5 10 -5t6 4t-7 7q-12 4 -12 11q0 11 12 11
q8 0 13 -5l-4 -5q-4 4 -9 4t-5 -4q0 -3 7 -6q12 -3 12 -12q0 -11 -13 -11zM774 -146q-20 0 -20 19q0 20 20 20q9 0 15 -7l-5 -4q-3 5 -10 5q-13 0 -13 -14q0 -13 13 -13q7 0 10 5l5 -4q-5 -7 -15 -7zM813 -146q-19 0 -19 20q0 19 19 19q20 0 20 -19q0 -20 -20 -20zM841 -146
v39h6l13 -23l13 23h6v-39h-6v26l-11 -19h-4l-11 19v-26h-6zM265 -140q12 0 12 14q0 13 -12 13q-13 0 -13 -13q0 -14 13 -14zM428 -124h7q6 0 6 6q0 5 -7 5h-6v-11zM501 -126h6q8 0 8 6q0 7 -7 7h-7v-13zM611 -140q13 0 13 14q0 13 -13 13q-12 0 -12 -13q0 -14 12 -14z
M813 -140q13 0 13 14q0 13 -13 13q-12 0 -12 -13q0 -14 12 -14zM360 -132h12l-6 17zM465 -132h12l-6 17zM683 -132h12l-6 17zM428 -140h7q8 0 8 5q0 6 -8 6h-7v-11zM202 -146q-4 0 -4 3q0 5 4 5t4 -5q0 -3 -4 -3zM747 -146q-5 0 -5 3q0 5 5 5q3 0 3 -5q0 -3 -3 -3z" />
    <glyph glyph-name="jacute" horiz-adv-x="176" 
d="M83 575l123 135h31l-124 -135h-30zM4 -201q-35 0 -63 14l3 24q27 -16 62 -16q77 0 77 94v569h22v-569q0 -116 -101 -116z" />
    <glyph glyph-name="Jacute" horiz-adv-x="467" 
d="M365 795l123 135h31l-124 -135h-30zM212 -3q-45 0 -95.5 24.5t-90.5 69.5l14 18q83 -89 172 -89q154 0 154 193v497h23v-502q0 -211 -177 -211z" />
    </font>
</defs>
</svg>
