<?xml version="1.0" standalone="no"?>
<!DOCTYPE svg PUBLIC "-//W3C//DTD SVG 1.1//EN" "http://www.w3.org/Graphics/SVG/1.1/DTD/svg11.dtd" >
<svg xmlns="http://www.w3.org/2000/svg" xmlns:xlink="http://www.w3.org/1999/xlink" version="1.1">
<metadata>
Created by FontForge 20201107 at Tue Mar 19 00:42:44 2019
 By 
Copyright (c) 2015 by Colophon Foundry. All rights reserved.
</metadata>
<defs>
<font id="BasisGrotesqueArabicPro-Bold" horiz-adv-x="0" >
  <font-face 
    font-family="Basis Grotesque Arabic Pro"
    font-weight="700"
    font-stretch="normal"
    units-per-em="1000"
    panose-1="2 11 8 3 3 6 4 4 1 3"
    ascent="782"
    descent="-218"
    x-height="496"
    cap-height="700"
    bbox="-742 -444 1192 938"
    underline-thickness="50"
    underline-position="-200"
    unicode-range="U+000D-FEFC"
  />
<missing-glyph horiz-adv-x="586" 
d="M60 0v700h466v-700h-466zM293 384l171 280h-342zM96 62l176 288l-176 288v-576zM490 62v576l-176 -288zM122 36h342l-171 280z" />
    <glyph glyph-name="uniFC03" unicode="&#xfe8b;&#xfef0;" horiz-adv-x="641" arabic-form="isolated" 
d="M597 17q3 -83 -88 -152.5t-201 -67.5q-128 0 -199.5 67t-71.5 188q0 115 65 243l86 -29q-39 -94 -39 -172q0 -147 165 -147q76 0 132 26t56 63q0 43 -158 43h-27v123q89 0 123.5 22t34.5 83q0 41 -18 107l93 21q23 -75 23 -128q0 -68 -33 -105t-103 -52
q77 -14 118.5 -48.5t41.5 -84.5zM507 561q31 0 61 6v-58l-151 -27l-18 51l38 6q-26 18 -26 53q0 32 23.5 54t54.5 22q54 0 69 -57l-33 -22q-6 24 -32 24q-15 0 -25.5 -7.5t-10.5 -19.5q0 -25 50 -25z" />
    <glyph glyph-name="uniFC04" unicode="&#xfe8b;&#xfef2;" horiz-adv-x="641" arabic-form="isolated" 
d="M597 17q3 -83 -88 -152.5t-201 -67.5q-128 0 -199.5 67t-71.5 188q0 115 65 243l86 -29q-39 -94 -39 -172q0 -147 165 -147q76 0 132 26t56 63q0 43 -158 43h-27v123q89 0 123.5 22t34.5 83q0 41 -18 107l93 21q23 -75 23 -128q0 -68 -33 -105t-103 -52
q77 -14 118.5 -48.5t41.5 -84.5zM507 561q31 0 61 6v-58l-151 -27l-18 51l38 6q-26 18 -26 53q0 32 23.5 54t54.5 22q54 0 69 -57l-33 -22q-6 24 -32 24q-15 0 -25.5 -7.5t-10.5 -19.5q0 -25 50 -25zM440 -332l-75 -76l-59 60l-60 -60l-75 76l76 76l59 -60l60 60z" />
    <glyph glyph-name="uniFC09" unicode="&#xfe91;&#xfef0;" horiz-adv-x="641" arabic-form="isolated" 
d="M597 17q3 -83 -88 -152.5t-201 -67.5q-128 0 -199.5 67t-71.5 188q0 115 65 243l86 -29q-39 -94 -39 -172q0 -147 165 -147q76 0 132 26t56 63q0 43 -158 43h-27v123q89 0 123.5 22t34.5 83q0 41 -18 107l93 21q23 -75 23 -128q0 -68 -33 -105t-103 -52
q77 -14 118.5 -48.5t41.5 -84.5zM626 84l-74 74l74 75l74 -75z" />
    <glyph glyph-name="uniFC0A" unicode="&#xfe91;&#xfef2;" horiz-adv-x="641" arabic-form="isolated" 
d="M597 17q3 -83 -88 -152.5t-201 -67.5q-128 0 -199.5 67t-71.5 188q0 115 65 243l86 -29q-39 -94 -39 -172q0 -147 165 -147q76 0 132 26t56 63q0 43 -158 43h-27v123q89 0 123.5 22t34.5 83q0 41 -18 107l93 21q23 -75 23 -128q0 -68 -33 -105t-103 -52
q77 -14 118.5 -48.5t41.5 -84.5zM626 84l-74 74l74 75l74 -75zM440 -332l-75 -76l-59 60l-60 -60l-75 76l76 76l59 -60l60 60z" />
    <glyph glyph-name="uniFC0F" unicode="&#xfe97;&#xfef0;" horiz-adv-x="641" arabic-form="isolated" 
d="M597 17q3 -83 -88 -152.5t-201 -67.5q-128 0 -199.5 67t-71.5 188q0 115 65 243l86 -29q-39 -94 -39 -172q0 -147 165 -147q76 0 132 26t56 63q0 43 -158 43h-27v123q89 0 123.5 22t34.5 83q0 41 -18 107l93 21q23 -75 23 -128q0 -68 -33 -105t-103 -52
q77 -14 118.5 -48.5t41.5 -84.5zM619 564l-74 -74l-58 59l-59 -59l-74 74l74 75l59 -59l58 59z" />
    <glyph glyph-name="uniFC10" unicode="&#xfe97;&#xfef2;" horiz-adv-x="641" arabic-form="isolated" 
d="M597 17q3 -83 -88 -152.5t-201 -67.5q-128 0 -199.5 67t-71.5 188q0 115 65 243l86 -29q-39 -94 -39 -172q0 -147 165 -147q76 0 132 26t56 63q0 43 -158 43h-27v123q89 0 123.5 22t34.5 83q0 41 -18 107l93 21q23 -75 23 -128q0 -68 -33 -105t-103 -52
q77 -14 118.5 -48.5t41.5 -84.5zM619 564l-74 -74l-58 59l-59 -59l-74 74l74 75l59 -59l58 59zM440 -332l-75 -76l-59 60l-60 -60l-75 76l76 76l59 -60l60 60z" />
    <glyph glyph-name="uniFC13" unicode="&#xfe9b;&#xfef0;" horiz-adv-x="641" arabic-form="isolated" 
d="M597 17q3 -83 -88 -152.5t-201 -67.5q-128 0 -199.5 67t-71.5 188q0 115 65 243l86 -29q-39 -94 -39 -172q0 -147 165 -147q76 0 132 26t56 63q0 43 -158 43h-27v123q89 0 123.5 22t34.5 83q0 41 -18 107l93 21q23 -75 23 -128q0 -68 -33 -105t-103 -52
q77 -14 118.5 -48.5t41.5 -84.5zM560 699l-73 -74l-75 74l74 76zM619 557l-74 -75l-58 59l-59 -59l-74 75l74 75l59 -59l58 59z" />
    <glyph glyph-name="uniFC14" unicode="&#xfe9b;&#xfef2;" horiz-adv-x="641" arabic-form="isolated" 
d="M597 17q3 -83 -88 -152.5t-201 -67.5q-128 0 -199.5 67t-71.5 188q0 115 65 243l86 -29q-39 -94 -39 -172q0 -147 165 -147q76 0 132 26t56 63q0 43 -158 43h-27v123q89 0 123.5 22t34.5 83q0 41 -18 107l93 21q23 -75 23 -128q0 -68 -33 -105t-103 -52
q77 -14 118.5 -48.5t41.5 -84.5zM560 699l-73 -74l-75 74l74 76zM619 557l-74 -75l-58 59l-59 -59l-74 75l74 75l59 -59l58 59zM440 -332l-75 -76l-59 60l-60 -60l-75 76l76 76l59 -60l60 60z" />
    <glyph glyph-name="uniFC31" unicode="&#xfed3;&#xfef0;" horiz-adv-x="630" arabic-form="isolated" 
d="M597 17q3 -82 -87.5 -152t-201.5 -68q-128 0 -199.5 67t-71.5 188q0 115 65 243l86 -29q-39 -98 -39 -172q0 -147 165 -147q76 0 132 26t56 63q0 25 -43 39t-115 14h-27v123q42 1 63 2.5t42 7.5t29 13.5t15 25.5t9 37.5t3 56.5q0 26 -1 33q-13 -105 -100 -105
q-58 0 -94 42.5t-36 110.5q0 79 44.5 131.5t109.5 52.5q173 0 173 -258q0 -103 -27 -147t-95 -56q74 -17 109.5 -54t35.5 -88zM474 424q-13 83 -76 83q-29 0 -47 -17t-18 -46q0 -26 18 -41t50 -15q51 0 73 36zM401 673l-74 75l74 74l74 -74z" />
    <glyph glyph-name="uniFC32" unicode="&#xfed3;&#xfef2;" horiz-adv-x="630" arabic-form="isolated" 
d="M597 17q3 -82 -87.5 -152t-201.5 -68q-128 0 -199.5 67t-71.5 188q0 115 65 243l86 -29q-39 -98 -39 -172q0 -147 165 -147q76 0 132 26t56 63q0 25 -43 39t-115 14h-27v123q42 1 63 2.5t42 7.5t29 13.5t15 25.5t9 37.5t3 56.5q0 26 -1 33q-13 -105 -100 -105
q-58 0 -94 42.5t-36 110.5q0 79 44.5 131.5t109.5 52.5q173 0 173 -258q0 -103 -27 -147t-95 -56q74 -17 109.5 -54t35.5 -88zM474 424q-13 83 -76 83q-29 0 -47 -17t-18 -46q0 -26 18 -41t50 -15q51 0 73 36zM401 673l-74 75l74 74l74 -74zM440 -332l-75 -76l-59 60
l-60 -60l-75 76l76 76l59 -60l60 60z" />
    <glyph glyph-name="uniFC35" unicode="&#xfed7;&#xfef0;" horiz-adv-x="630" arabic-form="isolated" 
d="M597 17q3 -82 -87.5 -152t-201.5 -68q-128 0 -199.5 67t-71.5 188q0 115 65 243l86 -29q-39 -98 -39 -172q0 -147 165 -147q76 0 132 26t56 63q0 25 -43 39t-115 14h-27v123q42 1 63 2.5t42 7.5t29 13.5t15 25.5t9 37.5t3 56.5q0 26 -1 33q-13 -105 -100 -105
q-58 0 -94 42.5t-36 110.5q0 79 44.5 131.5t109.5 52.5q173 0 173 -258q0 -103 -27 -147t-95 -56q74 -17 109.5 -54t35.5 -88zM474 424q-13 83 -76 83q-29 0 -47 -17t-18 -46q0 -26 18 -41t50 -15q51 0 73 36zM535 750l-74 -74l-58 59l-59 -59l-74 74l74 75l59 -59l58 59z
" />
    <glyph glyph-name="uniFC36" unicode="&#xfed7;&#xfef2;" horiz-adv-x="630" arabic-form="isolated" 
d="M597 17q3 -82 -87.5 -152t-201.5 -68q-128 0 -199.5 67t-71.5 188q0 115 65 243l86 -29q-39 -98 -39 -172q0 -147 165 -147q76 0 132 26t56 63q0 25 -43 39t-115 14h-27v123q42 1 63 2.5t42 7.5t29 13.5t15 25.5t9 37.5t3 56.5q0 26 -1 33q-13 -105 -100 -105
q-58 0 -94 42.5t-36 110.5q0 79 44.5 131.5t109.5 52.5q173 0 173 -258q0 -103 -27 -147t-95 -56q74 -17 109.5 -54t35.5 -88zM474 424q-13 83 -76 83q-29 0 -47 -17t-18 -46q0 -26 18 -41t50 -15q51 0 73 36zM440 -332l-75 -76l-59 60l-60 -60l-75 76l76 76l59 -60l60 60z
M535 750l-74 -74l-58 59l-59 -59l-74 74l74 75l59 -59l58 59z" />
    <glyph glyph-name="uniFC4F" unicode="&#xfee7;&#xfef0;" horiz-adv-x="641" arabic-form="isolated" 
d="M597 17q3 -83 -88 -152.5t-201 -67.5q-128 0 -199.5 67t-71.5 188q0 115 65 243l86 -29q-39 -94 -39 -172q0 -147 165 -147q76 0 132 26t56 63q0 43 -158 43h-27v123q89 0 123.5 22t34.5 83q0 41 -18 107l93 21q23 -75 23 -128q0 -68 -33 -105t-103 -52
q77 -14 118.5 -48.5t41.5 -84.5zM485 487l-74 75l74 74l74 -74z" />
    <glyph glyph-name="uniFC50" unicode="&#xfee7;&#xfef2;" horiz-adv-x="641" arabic-form="isolated" 
d="M597 17q3 -83 -88 -152.5t-201 -67.5q-128 0 -199.5 67t-71.5 188q0 115 65 243l86 -29q-39 -94 -39 -172q0 -147 165 -147q76 0 132 26t56 63q0 43 -158 43h-27v123q89 0 123.5 22t34.5 83q0 41 -18 107l93 21q23 -75 23 -128q0 -68 -33 -105t-103 -52
q77 -14 118.5 -48.5t41.5 -84.5zM485 487l-74 75l74 74l74 -74zM440 -332l-75 -76l-59 60l-60 -60l-75 76l76 76l59 -60l60 60z" />
    <glyph glyph-name="uniFEF5" unicode="&#xfedf;&#xfe82;" horiz-adv-x="489" arabic-form="isolated" 
d="M334 682h102v-508q0 -174 -249 -174h-136l-9 150h114l-58 352l96 13l56 -361q84 14 84 77v451zM60 574l-44 18q20 83 74 83q12 0 42 -13q30 -15 47 -15q13 0 20 7t16 28l45 -17q-20 -83 -75 -83q-13 0 -44 14q-30 14 -44 14q-22 0 -37 -36z" />
    <glyph glyph-name="uniFEF6" unicode="&#xfee0;&#xfe82;" horiz-adv-x="527" arabic-form="final" 
d="M527 150l16 -11v-129l-16 -10q-79 0 -115 82q-51 -82 -225 -82h-136l-9 150h114l-58 352l96 13l56 -361q84 14 84 77v451h102v-471q0 -33 21.5 -47t69.5 -14zM60 574l-44 18q20 83 74 83q12 0 42 -13q30 -15 47 -15q13 0 20 7t16 28l45 -17q-20 -83 -75 -83q-13 0 -44 14
q-30 14 -44 14q-22 0 -37 -36z" />
    <glyph glyph-name="uniFEF7" unicode="&#xfedf;&#xfe84;" horiz-adv-x="489" arabic-form="isolated" 
d="M334 682h102v-508q0 -174 -249 -174h-136l-9 150h114l-58 352l96 13l56 -361q84 14 84 77v451zM161 649q31 0 61 6v-58l-151 -27l-18 51l38 6q-26 18 -26 53q0 32 23.5 54t54.5 22q54 0 69 -57l-33 -22q-6 24 -32 24q-15 0 -25.5 -7.5t-10.5 -19.5q0 -25 50 -25z" />
    <glyph glyph-name="uniFEF8" unicode="&#xfee0;&#xfe84;" horiz-adv-x="527" arabic-form="final" 
d="M527 150l16 -11v-129l-16 -10q-79 0 -115 82q-51 -82 -225 -82h-136l-9 150h114l-58 352l96 13l56 -361q84 14 84 77v451h102v-471q0 -33 21.5 -47t69.5 -14zM161 649q31 0 61 6v-58l-151 -27l-18 51l38 6q-26 18 -26 53q0 32 23.5 54t54.5 22q54 0 69 -57l-33 -22
q-6 24 -32 24q-15 0 -25.5 -7.5t-10.5 -19.5q0 -25 50 -25z" />
    <glyph glyph-name="uniFEF9" unicode="&#xfedf;&#xfe88;" horiz-adv-x="489" arabic-form="isolated" 
d="M334 682h102v-508q0 -174 -249 -174h-136l-9 150h114l-58 352l96 13l56 -361q84 14 84 77v451zM260 -168q31 0 61 6v-58l-151 -27l-18 51l38 6q-26 18 -26 53q0 32 23.5 54t54.5 22q54 0 69 -57l-33 -22q-6 24 -32 24q-15 0 -25.5 -7.5t-10.5 -19.5q0 -25 50 -25z" />
    <glyph glyph-name="uniFEFA" unicode="&#xfee0;&#xfe88;" horiz-adv-x="527" arabic-form="final" 
d="M527 150l16 -11v-129l-16 -10q-79 0 -115 82q-51 -82 -225 -82h-136l-9 150h114l-58 352l96 13l56 -361q84 14 84 77v451h102v-471q0 -33 21.5 -47t69.5 -14zM260 -168q31 0 61 6v-58l-151 -27l-18 51l38 6q-26 18 -26 53q0 32 23.5 54t54.5 22q54 0 69 -57l-33 -22
q-6 24 -32 24q-15 0 -25.5 -7.5t-10.5 -19.5q0 -25 50 -25z" />
    <glyph glyph-name="uniFEFB" unicode="&#xfedf;&#xfe8e;" horiz-adv-x="489" arabic-form="isolated" 
d="M334 682h102v-508q0 -174 -249 -174h-136l-9 150h114l-58 352l96 13l56 -361q84 14 84 77v451z" />
    <glyph glyph-name="uniFEFC" unicode="&#xfee0;&#xfe8e;" horiz-adv-x="527" arabic-form="final" 
d="M527 150l16 -11v-129l-16 -10q-79 0 -115 82q-51 -82 -225 -82h-136l-9 150h114l-58 352l96 13l56 -361q84 14 84 77v451h102v-471q0 -33 21.5 -47t69.5 -14z" />
    <glyph glyph-name="f_f" unicode="ff" horiz-adv-x="627" 
d="M91 0v394h-72v102h72v70q0 88 47.5 136t127.5 48q33 0 63 -11l-22 -111q-18 6 -35 6q-55 0 -55 -65v-73h157v70q0 88 48 136t128 48q33 0 63 -11l-22 -111q-18 6 -35 6q-56 0 -56 -65v-73h108v-102h-108v-394h-126v394h-157v-394h-126z" />
    <glyph glyph-name="f_f_i" unicode="ffi" horiz-adv-x="877" 
d="M91 0v394h-72v102h72v70q0 88 48 136t128 48q33 0 63 -11l-22 -111q-18 6 -35 6q-56 0 -56 -65v-73h158v70q0 88 48 136t128 48q33 0 63 -11l-22 -111q-18 6 -35 6q-56 0 -56 -65v-73h313v-496h-126v394h-187v-394h-126v394h-158v-394h-126zM682 568v132h138v-132h-138z
" />
    <glyph glyph-name="f_f_l" unicode="ffl" horiz-adv-x="877" 
d="M91 0v394h-72v102h72v70q0 88 48 136t128 48q33 0 63 -11l-22 -111q-18 6 -35 6q-56 0 -56 -65v-73h158v70q0 88 48 136t128 48q33 0 63 -11l-22 -111q-18 6 -35 6q-56 0 -56 -65v-73h108v-102h-108v-394h-126v394h-158v-394h-126zM688 0v700h126v-700h-126z" />
    <glyph glyph-name="f_i" unicode="fi" horiz-adv-x="592" 
d="M91 0v394h-72v102h72v70q0 88 48 136t128 48q33 0 63 -11l-22 -111q-18 6 -35 6q-56 0 -56 -65v-73h313v-496h-126v394h-187v-394h-126zM398 568v132h138v-132h-138z" />
    <glyph glyph-name="f_l" unicode="fl" horiz-adv-x="594" 
d="M91 0v394h-72v102h72v70q0 88 48 136t128 48q33 0 63 -11l-22 -111q-18 6 -35 6q-56 0 -56 -65v-73h108v-102h-108v-394h-126zM405 0v700h126v-700h-126z" />
    <glyph glyph-name="uni06440671" unicode="&#xfedf;&#xfb51;" horiz-adv-x="489" 
d="M334 682h102v-508q0 -174 -249 -174h-136l-9 150h114l-58 352l96 13l56 -361q84 14 84 77v451zM258 667q0 -89 -135 -89q-32 0 -77 5l-6 58l41 -4q51 107 109 107q29 0 48.5 -21.5t19.5 -55.5zM208 665q0 19 -18 19q-29 0 -57 -49q75 0 75 30z" />
    <glyph glyph-name="uni06440671.fina" unicode="&#xfee0;&#xfb51;" horiz-adv-x="527" 
d="M527 150l16 -11v-129l-16 -10q-79 0 -115 82q-51 -82 -225 -82h-136l-9 150h114l-58 352l96 13l56 -361q84 14 84 77v451h102v-471q0 -33 21.5 -47t69.5 -14zM258 667q0 -89 -135 -89q-32 0 -77 5l-6 58l41 -4q51 107 109 107q29 0 48.5 -21.5t19.5 -55.5zM208 665
q0 19 -18 19q-29 0 -57 -49q75 0 75 30z" />
    <glyph glyph-name="uni06410626" unicode="&#xfed3;&#xfe8a;" horiz-adv-x="630" 
d="M597 17q3 -82 -87.5 -152t-201.5 -68q-128 0 -199.5 67t-71.5 188q0 115 65 243l86 -29q-39 -98 -39 -172q0 -147 165 -147q76 0 132 26t56 63q0 25 -43 39t-115 14h-27v123q42 1 63 2.5t42 7.5t29 13.5t15 25.5t9 37.5t3 56.5q0 26 -1 33q-13 -105 -100 -105
q-58 0 -94 42.5t-36 110.5q0 79 44.5 131.5t109.5 52.5q173 0 173 -258q0 -103 -27 -147t-95 -56q74 -17 109.5 -54t35.5 -88zM474 424q-13 83 -76 83q-29 0 -47 -17t-18 -46q0 -26 18 -41t50 -15q51 0 73 36zM401 673l-74 75l74 74l74 -74zM154 417q31 0 61 6v-58l-151 -27
l-18 51l38 6q-26 18 -26 53q0 32 23.5 54t54.5 22q54 0 69 -57l-33 -22q-6 24 -32 24q-15 0 -25.5 -7.5t-10.5 -19.5q0 -25 50 -25z" />
    <glyph glyph-name="uni06420626" unicode="&#xfed7;&#xfe8a;" horiz-adv-x="630" 
d="M597 17q3 -82 -87.5 -152t-201.5 -68q-128 0 -199.5 67t-71.5 188q0 115 65 243l86 -29q-39 -98 -39 -172q0 -147 165 -147q76 0 132 26t56 63q0 25 -43 39t-115 14h-27v123q42 1 63 2.5t42 7.5t29 13.5t15 25.5t9 37.5t3 56.5q0 26 -1 33q-13 -105 -100 -105
q-58 0 -94 42.5t-36 110.5q0 79 44.5 131.5t109.5 52.5q173 0 173 -258q0 -103 -27 -147t-95 -56q74 -17 109.5 -54t35.5 -88zM474 424q-13 83 -76 83q-29 0 -47 -17t-18 -46q0 -26 18 -41t50 -15q51 0 73 36zM154 417q31 0 61 6v-58l-151 -27l-18 51l38 6q-26 18 -26 53
q0 32 23.5 54t54.5 22q54 0 69 -57l-33 -22q-6 24 -32 24q-15 0 -25.5 -7.5t-10.5 -19.5q0 -25 50 -25zM535 750l-74 -74l-58 59l-59 -59l-74 74l74 75l59 -59l58 59z" />
    <glyph glyph-name="uni066E.init" unicode="&#x66e;" horiz-adv-x="237" 
d="M0 0l-16 10v129l12 11q50 0 72 22t22 69q0 53 -27 148l93 21q37 -117 37 -206q0 -99 -48 -151.5t-145 -52.5z" />
    <glyph glyph-name="uni066E.medi" unicode="&#x66e;" horiz-adv-x="278" 
d="M278 150l16 -11v-129l-16 -10q-56 0 -91.5 29.5t-47.5 82.5q-28 -112 -139 -112l-16 10v114l16 26q92 0 92 61v134h94v-134q0 -61 92 -61z" />
    <glyph glyph-name="uni066E.fina" unicode="&#x66e;" horiz-adv-x="739" 
d="M738 150l17 -10v-129l-17 -11q-99 0 -138 77q-57 -85 -267 -85q-151 0 -224 52t-73 163q0 79 37 194l83 -22q-22 -69 -22 -118q0 -67 47.5 -92.5t159.5 -25.5q120 0 165.5 13t45.5 50v137h94v-129q0 -64 92 -64z" />
    <glyph glyph-name="uni066F.fina" unicode="&#x66f;" horiz-adv-x="644" 
d="M644 150l16 -9v-131l-16 -10h-43q-10 -114 -75.5 -159t-217.5 -45q-128 0 -199.5 67t-71.5 188q0 115 65 243l86 -29q-39 -97 -39 -172q0 -154 165 -154q95 1 127 11t48 50h-43q-88 0 -135.5 46.5t-47.5 138.5q0 85 46.5 143t115.5 58q80 0 122 -57t52 -179h45zM446 150
h53q-8 116 -76 116q-29 0 -48 -19t-19 -46q0 -51 90 -51z" />
    <glyph glyph-name="uni06A1.init" unicode="&#x6a1;" horiz-adv-x="388" 
d="M355 243q0 -106 -28 -156q-29 -49 -102 -69q-73 -18 -225 -18l-16 11v128l16 11q119 0 172 8q49 7 65 34q16 25 16 90q0 30 -1 37q-14 -113 -106 -113q-61 0 -99 45t-38 118q0 82 46.5 138t115.5 56q97 0 140.5 -76t43.5 -244zM248 354q-13 90 -79 90q-31 0 -49.5 -18.5
t-18.5 -47.5q0 -28 18.5 -44t51.5 -16q55 0 77 36z" />
    <glyph glyph-name="uni06A1.medi" unicode="&#x6a1;" horiz-adv-x="421" 
d="M421 150l16 -11v-128l-16 -11q-117 0 -209 42q-92 -42 -212 -42l-16 11v128l16 11q15 0 81 2q-32 50 -32 110q0 77 45.5 125.5t116.5 48.5t116 -51q45 -49 45 -131q0 -55 -29 -102q64 -2 78 -2zM211 173q73 22 73 71q0 32 -20 52t-53 20q-34 0 -54 -20t-20 -52
q0 -48 74 -71z" />
    <glyph glyph-name="uni06A1.fina" unicode="&#x6a1;" horiz-adv-x="769" 
d="M767 150l18 -11v-128l-18 -11q-113 0 -207 42q-106 -50 -229 -50q-153 0 -224 47.5t-71 151.5q0 75 42 206l88 -23q-24 -86 -24 -126q0 -60 44 -82.5t153 -22.5q51 0 91 3q-34 55 -34 116q0 74 44 124t117 50q74 0 117 -52q44 -52 44 -130q0 -55 -29 -102q64 -2 78 -2z
M561 171q70 24 70 70q0 34 -19.5 54.5t-54.5 20.5t-54.5 -20.5t-19.5 -54.5q0 -49 78 -70z" />
    <glyph glyph-name="uniFB51" unicode="&#x671;" horiz-adv-x="244" arabic-form="final" 
d="M53 178v502h101v-465q0 -65 89 -65l17 -11v-129l-17 -10q-104 0 -147 40t-43 138zM223 831q0 -89 -135 -89q-32 0 -77 5l-6 58l41 -4q51 107 109 107q29 0 48.5 -21.5t19.5 -55.5zM173 829q0 19 -18 19q-29 0 -57 -49q75 0 75 30z" />
    <glyph glyph-name="uniFB57" unicode="&#x67e;" horiz-adv-x="739" arabic-form="final" 
d="M738 150l17 -10v-129l-17 -11q-99 0 -138 77q-57 -85 -267 -85q-151 0 -224 52t-73 163q0 79 37 194l83 -22q-22 -69 -22 -118q0 -67 47.5 -92.5t159.5 -25.5q120 0 165.5 13t45.5 50v137h94v-129q0 -64 92 -64zM335 -164l-59 -58l-74 74l74 76l59 -60l58 60l74 -76
l-74 -74zM260 -290l75 75l73 -75l-74 -75z" />
    <glyph glyph-name="uniFB58" unicode="&#x67e;" horiz-adv-x="237" arabic-form="initial" 
d="M0 0l-16 10v129l12 11q50 0 72 22t22 69q0 53 -27 148l93 21q37 -117 37 -206q0 -99 -48 -151.5t-145 -52.5zM137 -164l-59 -58l-74 74l74 76l59 -60l58 60l74 -76l-74 -74zM62 -290l75 75l73 -75l-74 -75z" />
    <glyph glyph-name="uniFB59" unicode="&#x67e;" horiz-adv-x="278" arabic-form="medial" 
d="M278 150l16 -11v-129l-16 -10q-56 0 -91.5 29.5t-47.5 82.5q-28 -112 -139 -112l-16 10v114l16 26q92 0 92 61v134h94v-134q0 -61 92 -61zM138 -164l-59 -58l-74 74l74 76l59 -60l58 60l74 -76l-74 -74zM63 -290l75 75l73 -75l-74 -75z" />
    <glyph glyph-name="uniFB6B" unicode="&#x6a4;" horiz-adv-x="769" arabic-form="final" 
d="M767 150l18 -11v-128l-18 -11q-113 0 -207 42q-106 -50 -229 -50q-153 0 -224 47.5t-71 151.5q0 75 42 206l88 -23q-24 -86 -24 -126q0 -60 44 -82.5t153 -22.5q51 0 91 3q-34 55 -34 116q0 74 44 124t117 50q74 0 117 -52q44 -52 44 -130q0 -55 -29 -102q64 -2 78 -2z
M561 171q70 24 70 70q0 34 -19.5 54.5t-54.5 20.5t-54.5 -20.5t-19.5 -54.5q0 -49 78 -70zM632 720l-73 -74l-75 74l74 76zM691 578l-74 -75l-58 59l-59 -59l-74 75l74 75l59 -59l58 59z" />
    <glyph glyph-name="uniFB6C" unicode="&#x6a4;" horiz-adv-x="388" arabic-form="initial" 
d="M355 243q0 -106 -28 -156q-29 -49 -102 -69q-73 -18 -225 -18l-16 11v128l16 11q119 0 172 8q49 7 65 34q16 25 16 90q0 30 -1 37q-14 -113 -106 -113q-61 0 -99 45t-38 118q0 82 46.5 138t115.5 56q97 0 140.5 -76t43.5 -244zM248 354q-13 90 -79 90q-31 0 -49.5 -18.5
t-18.5 -47.5q0 -28 18.5 -44t51.5 -16q55 0 77 36zM245 835l-73 -74l-75 74l74 76zM304 693l-74 -75l-58 59l-59 -59l-74 75l74 75l59 -59l58 59z" />
    <glyph glyph-name="uniFB6D" unicode="&#x6a4;" horiz-adv-x="421" arabic-form="medial" 
d="M421 150l16 -11v-128l-16 -11q-117 0 -209 42q-92 -42 -212 -42l-16 11v128l16 11q15 0 81 2q-32 50 -32 110q0 77 45.5 125.5t116.5 48.5t116 -51q45 -49 45 -131q0 -55 -29 -102q64 -2 78 -2zM211 173q73 22 73 71q0 32 -20 52t-53 20q-34 0 -54 -20t-20 -52
q0 -48 74 -71zM286 712l-73 -74l-75 74l74 76zM345 570l-74 -75l-58 59l-59 -59l-74 75l74 75l59 -59l58 59z" />
    <glyph glyph-name="uniFB7B" unicode="&#x686;" horiz-adv-x="586" arabic-form="final" 
d="M586 150l16 -11v-129l-16 -10q-170 0 -186 201q-227 -89 -227 -208q0 -46 41.5 -71.5t116.5 -25.5q116 0 161 51l84 -69q-30 -60 -97.5 -94t-157.5 -34q-116 0 -187 59t-71 156q0 101 87.5 190.5t228.5 133.5q-53 13 -94 19q-53 8 -74 8q-43 0 -43 -31q0 -15 7 -32
l-104 -30q-12 43 -12 81q0 64 32 101t89 37q101 0 326 -63l25 -7v-128l-50 -15q6 -79 105 -79zM326 68l-40 -40l-50 50l50 49l40 -40l40 40l49 -49l-49 -50zM277 -17l49 50l49 -50l-50 -49z" />
    <glyph glyph-name="uniFB7C" unicode="&#x686;" horiz-adv-x="555" arabic-form="initial" 
d="M488 342l27 -11v-130q-66 -17 -183 -86q-65 -39 -109 -60q-106 -55 -223 -55l-16 10v129l16 11q84 0 138 16q59 17 131 48q68 31 110 42q-150 57 -193 57q-40 0 -40 -31q0 -14 8 -32l-106 -30q-13 45 -13 84q0 64 34 100t87 36q61 0 155 -32q95 -32 177 -66zM262 -123
l-59 -58l-74 74l74 76l59 -60l58 60l74 -76l-74 -74zM187 -249l75 75l73 -75l-74 -75z" />
    <glyph glyph-name="uniFB7D" unicode="&#x686;" horiz-adv-x="568" arabic-form="medial" 
d="M568 150l16 -11v-129l-16 -10q-158 0 -172 152l-65 -38q-61 -36 -110 -60q-110 -54 -221 -54l-16 10v129l16 11q84 0 138 16q59 17 131 48q68 31 110 42q-150 57 -193 57q-40 0 -40 -31q0 -14 8 -32l-106 -30q-13 45 -13 84q0 64 34 100t87 36q61 0 155 -32
q95 -32 177 -66l27 -11v-130q-39 -11 -81 -30q26 -21 134 -21zM283 -122l-59 -58l-74 74l74 76l59 -60l58 60l74 -76l-74 -74zM208 -248l75 75l73 -75l-74 -75z" />
    <glyph glyph-name="uniFB8B" unicode="&#x698;" horiz-adv-x="391" arabic-form="final" 
d="M391 150l16 -10v-130l-16 -10q-59 0 -86 56q-3 -109 -63.5 -184t-153.5 -75q-67 0 -130 33l27 132q45 -15 83 -15q62 0 94.5 35t32.5 96q0 70 -45 183l101 38l30 -75q23 -53 37 -62.5t73 -11.5zM266 559l-73 -74l-75 74l74 76zM325 417l-74 -75l-58 59l-59 -59l-74 75
l74 75l59 -59l58 59z" />
    <glyph glyph-name="uniFB8F" unicode="&#x6a9;" horiz-adv-x="730" arabic-form="final" 
d="M730 150l16 -10v-130l-16 -10q-48 0 -94 31q-47 32 -68 76q-13 -64 -72 -90t-188 -26q-138 0 -205 53t-67 164q0 76 38 199l84 -23q-23 -77 -23 -119q0 -65 42 -93.5t139 -28.5q158 0 205 29l-177 236v83l357 174l48 -104l-285 -137l125 -166q51 -67 77 -87
q28 -21 64 -21z" />
    <glyph glyph-name="uniFB90" unicode="&#x6a9;" horiz-adv-x="404" arabic-form="initial" 
d="M128 426l79 -87q84 -93 84 -171t-53 -123t-149 -45h-89l-16 10v130l16 10h81q93 0 93 44q0 26 -39 69l-131 145v83l356 174l48 -104z" />
    <glyph glyph-name="uniFB91" unicode="&#x6a9;" horiz-adv-x="395" arabic-form="medial" 
d="M395 150l16 -10v-130l-16 -10q-49 0 -98 32q-48 34 -68 79q-11 -54 -51 -82.5t-106 -28.5h-72l-16 10v130l16 10h89q65 0 90 30l-172 228v83l356 174l48 -104l-285 -137l126 -166q54 -68 80 -88t63 -20z" />
    <glyph glyph-name="uniFB93" unicode="&#x6af;" horiz-adv-x="730" arabic-form="final" 
d="M730 150l16 -10v-130l-16 -10q-48 0 -94 31q-47 32 -68 76q-13 -64 -72 -90t-188 -26q-138 0 -205 53t-67 164q0 76 38 199l84 -23q-23 -77 -23 -119q0 -65 42 -93.5t139 -28.5q158 0 205 29l-177 236v83l357 174l48 -104l-285 -137l125 -166q51 -67 77 -87
q28 -21 64 -21zM371 600l-19 46l266 126l19 -45z" />
    <glyph glyph-name="uniFB94" unicode="&#x6af;" horiz-adv-x="404" arabic-form="initial" 
d="M128 426l79 -87q84 -93 84 -171t-53 -123t-149 -45h-89l-16 10v130l16 10h81q93 0 93 44q0 26 -39 69l-131 145v83l356 174l48 -104zM64 600l-19 46l266 126l19 -45z" />
    <glyph glyph-name="uniFB95" unicode="&#x6af;" horiz-adv-x="395" arabic-form="medial" 
d="M395 150l16 -10v-130l-16 -10q-49 0 -98 32q-48 34 -68 79q-11 -54 -51 -82.5t-106 -28.5h-72l-16 10v130l16 10h89q65 0 90 30l-172 228v83l356 174l48 -104l-285 -137l126 -166q54 -68 80 -88t63 -20zM38 600l-19 46l266 126l19 -45z" />
    <glyph glyph-name="uniFB9F" unicode="&#x6ba;" horiz-adv-x="653" arabic-form="final" 
d="M653 150l16 -10v-130l-16 -10q-37 0 -70 30q-6 -114 -75.5 -175t-199.5 -61t-200.5 68t-70.5 187q0 110 65 243l86 -29q-39 -99 -39 -172q0 -147 165 -147q82 0 118.5 32.5t36.5 102.5q0 76 -50 211l105 28q26 -66 42 -130q18 -38 87 -38z" />
    <glyph glyph-name="uniFBFD" unicode="&#x6cc;" horiz-adv-x="652" arabic-form="final" 
d="M652 150l16 -10v-130l-16 -10q-32 0 -55 13q3 -80 -89.5 -149t-199.5 -67q-128 0 -199.5 67t-71.5 188q0 115 65 243l86 -29q-39 -98 -39 -172q0 -147 165 -147q76 0 132 27t56 63q0 29 -41 76l-55 61l84 72l59 -63q19 -22 38 -28q22 -5 65 -5z" />
    <glyph glyph-name="uniFBFE" unicode="&#x6cc;" horiz-adv-x="237" arabic-form="initial" 
d="M0 0l-16 10v129l12 11q50 0 72 22t22 69q0 53 -27 148l93 21q37 -117 37 -206q0 -99 -48 -151.5t-145 -52.5zM270 -147l-75 -76l-59 60l-60 -60l-75 76l76 76l59 -60l60 60z" />
    <glyph glyph-name="uniFBFF" unicode="&#x6cc;" horiz-adv-x="278" arabic-form="medial" 
d="M278 150l16 -11v-129l-16 -10q-56 0 -91.5 29.5t-47.5 82.5q-28 -112 -139 -112l-16 10v114l16 26q92 0 92 61v134h94v-134q0 -61 92 -61zM271 -147l-75 -76l-59 60l-60 -60l-75 76l76 76l59 -60l60 60z" />
    <glyph glyph-name="uniFE82" unicode="&#x622;" horiz-adv-x="244" arabic-form="final" 
d="M53 178v502h101v-465q0 -65 89 -65l17 -11v-129l-17 -10q-104 0 -147 40t-43 138zM25 738l-44 18q20 83 74 83q12 0 42 -13q30 -15 47 -15q13 0 20 7t16 28l45 -17q-20 -83 -75 -83q-13 0 -44 14q-30 14 -44 14q-22 0 -37 -36z" />
    <glyph glyph-name="uniFE84" unicode="&#x623;" horiz-adv-x="244" arabic-form="final" 
d="M53 178v502h101v-465q0 -65 89 -65l17 -11v-129l-17 -10q-104 0 -147 40t-43 138zM126 813q31 0 61 6v-58l-151 -27l-18 51l38 6q-26 18 -26 53q0 32 23.5 54t54.5 22q54 0 69 -57l-33 -22q-6 24 -32 24q-15 0 -25.5 -7.5t-10.5 -19.5q0 -25 50 -25z" />
    <glyph glyph-name="uniFE86" unicode="&#x624;" horiz-adv-x="405" arabic-form="final" 
d="M405 150l16 -11v-129l-16 -10h-47q-25 -96 -86.5 -150t-145.5 -54q-66 0 -135 34l27 119q60 -23 112 -23q87 0 130 74h-44q-92 0 -134 44.5t-42 139.5q0 83 44 137.5t112 54.5q80 0 126.5 -59t51.5 -167h31zM204 150h78q-12 111 -86 111q-30 0 -49.5 -18t-19.5 -46
q0 -47 77 -47zM218 510q31 0 61 6v-58l-151 -27l-18 51l38 6q-26 18 -26 53q0 32 23.5 54t54.5 22q54 0 69 -57l-33 -22q-6 24 -32 24q-15 0 -25.5 -7.5t-10.5 -19.5q0 -25 50 -25z" />
    <glyph glyph-name="uniFE88" unicode="&#x625;" horiz-adv-x="244" arabic-form="final" 
d="M53 178v502h101v-465q0 -65 89 -65l17 -11v-129l-17 -10q-104 0 -147 40t-43 138zM133 -159q31 0 61 6v-58l-151 -27l-18 51l38 6q-26 18 -26 53q0 32 23.5 54t54.5 22q54 0 69 -57l-33 -22q-6 24 -32 24q-15 0 -25.5 -7.5t-10.5 -19.5q0 -25 50 -25z" />
    <glyph glyph-name="uniFE8A" unicode="&#x626;" horiz-adv-x="652" arabic-form="final" 
d="M652 150l16 -10v-130l-16 -10q-32 0 -55 13q3 -80 -89.5 -149t-199.5 -67q-128 0 -199.5 67t-71.5 188q0 115 65 243l86 -29q-39 -98 -39 -172q0 -147 165 -147q76 0 132 27t56 63q0 29 -41 76l-55 61l84 72l59 -63q19 -22 38 -28q22 -5 65 -5zM194 419q31 0 61 6v-58
l-151 -27l-18 51l38 6q-26 18 -26 53q0 32 23.5 54t54.5 22q54 0 69 -57l-33 -22q-6 24 -32 24q-15 0 -25.5 -7.5t-10.5 -19.5q0 -25 50 -25z" />
    <glyph glyph-name="uniFE8B" unicode="&#x626;" horiz-adv-x="237" arabic-form="initial" 
d="M0 0l-16 10v129l12 11q50 0 72 22t22 69q0 53 -27 148l93 21q37 -117 37 -206q0 -99 -48 -151.5t-145 -52.5zM128 564q31 0 61 6v-58l-151 -27l-18 51l38 6q-26 18 -26 53q0 32 23.5 54t54.5 22q54 0 69 -57l-33 -22q-6 24 -32 24q-15 0 -25.5 -7.5t-10.5 -19.5
q0 -25 50 -25z" />
    <glyph glyph-name="uniFE8C" unicode="&#x626;" horiz-adv-x="278" arabic-form="medial" 
d="M278 150l16 -11v-129l-16 -10q-56 0 -91.5 29.5t-47.5 82.5q-28 -112 -139 -112l-16 10v114l16 26q92 0 92 61v134h94v-134q0 -61 92 -61zM159 483q31 0 61 6v-58l-151 -27l-18 51l38 6q-26 18 -26 53q0 32 23.5 54t54.5 22q54 0 69 -57l-33 -22q-6 24 -32 24
q-15 0 -25.5 -7.5t-10.5 -19.5q0 -25 50 -25z" />
    <glyph glyph-name="uniFE8E" unicode="&#x627;" horiz-adv-x="244" arabic-form="final" 
d="M53 178v502h101v-465q0 -65 89 -65l17 -11v-129l-17 -10q-104 0 -147 40t-43 138z" />
    <glyph glyph-name="uniFE90" unicode="&#x628;" horiz-adv-x="739" arabic-form="final" 
d="M738 150l17 -10v-129l-17 -11q-99 0 -138 77q-57 -85 -267 -85q-151 0 -224 52t-73 163q0 79 37 194l83 -22q-22 -69 -22 -118q0 -67 47.5 -92.5t159.5 -25.5q120 0 165.5 13t45.5 50v137h94v-129q0 -64 92 -64zM334 -224l-74 74l74 75l74 -75z" />
    <glyph glyph-name="uniFE91" unicode="&#x628;" horiz-adv-x="237" arabic-form="initial" 
d="M0 0l-16 10v129l12 11q50 0 72 22t22 69q0 53 -27 148l93 21q37 -117 37 -206q0 -99 -48 -151.5t-145 -52.5zM136 -224l-74 74l74 75l74 -75z" />
    <glyph glyph-name="uniFE92" unicode="&#x628;" horiz-adv-x="278" arabic-form="medial" 
d="M278 150l16 -11v-129l-16 -10q-56 0 -91.5 29.5t-47.5 82.5q-28 -112 -139 -112l-16 10v114l16 26q92 0 92 61v134h94v-134q0 -61 92 -61zM137 -224l-74 74l74 75l74 -75z" />
    <glyph glyph-name="uniFE94" unicode="&#x629;" horiz-adv-x="488" arabic-form="final" 
d="M488 150l16 -10v-130l-16 -10q-184 0 -184 154v34q-35 -120 -140 -120q-54 0 -92 43t-38 104q0 81 61 142q63 63 209 119v43h95v-295q0 -44 18.5 -59t70.5 -15zM304 242v126q-63 -11 -115.5 -45t-52.5 -66q0 -18 21.5 -28.5t56.5 -10.5q53 0 90 24zM383 640l-74 -74
l-58 59l-59 -59l-74 74l74 75l59 -59l58 59z" />
    <glyph glyph-name="uniFE96" unicode="&#x62a;" horiz-adv-x="739" arabic-form="final" 
d="M738 150l17 -10v-129l-17 -11q-99 0 -138 77q-57 -85 -267 -85q-151 0 -224 52t-73 163q0 79 37 194l83 -22q-22 -69 -22 -118q0 -67 47.5 -92.5t159.5 -25.5q120 0 165.5 13t45.5 50v137h94v-129q0 -64 92 -64zM482 489l-74 -74l-58 59l-59 -59l-74 74l74 75l59 -59
l58 59z" />
    <glyph glyph-name="uniFE97" unicode="&#x62a;" horiz-adv-x="237" arabic-form="initial" 
d="M0 0l-16 10v129l12 11q50 0 72 22t22 69q0 53 -27 148l93 21q37 -117 37 -206q0 -99 -48 -151.5t-145 -52.5zM240 567l-74 -74l-58 59l-59 -59l-74 74l74 75l59 -59l58 59z" />
    <glyph glyph-name="uniFE98" unicode="&#x62a;" horiz-adv-x="278" arabic-form="medial" 
d="M278 150l16 -11v-129l-16 -10q-56 0 -91.5 29.5t-47.5 82.5q-28 -112 -139 -112l-16 10v114l16 26q92 0 92 61v134h94v-134q0 -61 92 -61zM271 486l-74 -74l-58 59l-59 -59l-74 74l74 75l59 -59l58 59z" />
    <glyph glyph-name="uniFE9A" unicode="&#x62b;" horiz-adv-x="739" arabic-form="final" 
d="M738 150l17 -10v-129l-17 -11q-99 0 -138 77q-57 -85 -267 -85q-151 0 -224 52t-73 163q0 79 37 194l83 -22q-22 -69 -22 -118q0 -67 47.5 -92.5t159.5 -25.5q120 0 165.5 13t45.5 50v137h94v-129q0 -64 92 -64zM423 624l-73 -74l-75 74l74 76zM482 482l-74 -75l-58 59
l-59 -59l-74 75l74 75l59 -59l58 59z" />
    <glyph glyph-name="uniFE9B" unicode="&#x62b;" horiz-adv-x="237" arabic-form="initial" 
d="M0 0l-16 10v129l12 11q50 0 72 22t22 69q0 53 -27 148l93 21q37 -117 37 -206q0 -99 -48 -151.5t-145 -52.5zM181 702l-73 -74l-75 74l74 76zM240 560l-74 -75l-58 59l-59 -59l-74 75l74 75l59 -59l58 59z" />
    <glyph glyph-name="uniFE9C" unicode="&#x62b;" horiz-adv-x="278" arabic-form="medial" 
d="M278 150l16 -11v-129l-16 -10q-56 0 -91.5 29.5t-47.5 82.5q-28 -112 -139 -112l-16 10v114l16 26q92 0 92 61v134h94v-134q0 -61 92 -61zM212 621l-73 -74l-75 74l74 76zM271 479l-74 -75l-58 59l-59 -59l-74 75l74 75l59 -59l58 59z" />
    <glyph glyph-name="uniFE9E" unicode="&#x62c;" horiz-adv-x="586" arabic-form="final" 
d="M586 150l16 -11v-129l-16 -10q-170 0 -186 201q-227 -89 -227 -208q0 -46 41.5 -71.5t116.5 -25.5q116 0 161 51l84 -69q-30 -60 -97.5 -94t-157.5 -34q-116 0 -187 59t-71 156q0 101 87.5 190.5t228.5 133.5q-53 13 -94 19q-53 8 -74 8q-43 0 -43 -31q0 -15 7 -32
l-104 -30q-12 43 -12 81q0 64 32 101t89 37q101 0 326 -63l25 -7v-128l-50 -15q6 -79 105 -79zM326 -36l-74 74l74 75l74 -75z" />
    <glyph glyph-name="uniFE9F" unicode="&#x62c;" horiz-adv-x="555" arabic-form="initial" 
d="M488 342l27 -11v-130q-66 -17 -183 -86q-65 -39 -109 -60q-106 -55 -223 -55l-16 10v129l16 11q84 0 138 16q59 17 131 48q68 31 110 42q-150 57 -193 57q-40 0 -40 -31q0 -14 8 -32l-106 -30q-13 45 -13 84q0 64 34 100t87 36q61 0 155 -32q95 -32 177 -66zM261 -183
l-74 74l74 75l74 -75z" />
    <glyph glyph-name="uniFEA0" unicode="&#x62c;" horiz-adv-x="568" arabic-form="medial" 
d="M568 150l16 -11v-129l-16 -10q-158 0 -172 152l-65 -38q-61 -36 -110 -60q-110 -54 -221 -54l-16 10v129l16 11q84 0 138 16q59 17 131 48q68 31 110 42q-150 57 -193 57q-40 0 -40 -31q0 -14 8 -32l-106 -30q-13 45 -13 84q0 64 34 100t87 36q61 0 155 -32
q95 -32 177 -66l27 -11v-130q-39 -11 -81 -30q26 -21 134 -21zM282 -182l-74 74l74 75l74 -75z" />
    <glyph glyph-name="uniFEA2" unicode="&#x62d;" horiz-adv-x="586" arabic-form="final" 
d="M586 150l16 -11v-129l-16 -10q-170 0 -186 201q-227 -89 -227 -208q0 -46 41.5 -71.5t116.5 -25.5q116 0 161 51l84 -69q-30 -60 -97.5 -94t-157.5 -34q-116 0 -187 59t-71 156q0 101 87.5 190.5t228.5 133.5q-53 13 -94 19q-53 8 -74 8q-43 0 -43 -31q0 -15 7 -32
l-104 -30q-12 43 -12 81q0 64 32 101t89 37q101 0 326 -63l25 -7v-128l-50 -15q6 -79 105 -79z" />
    <glyph glyph-name="uniFEA3" unicode="&#x62d;" horiz-adv-x="555" arabic-form="initial" 
d="M488 342l27 -11v-130q-66 -17 -183 -86q-65 -39 -109 -60q-106 -55 -223 -55l-16 10v129l16 11q84 0 138 16q59 17 131 48q68 31 110 42q-150 57 -193 57q-40 0 -40 -31q0 -14 8 -32l-106 -30q-13 45 -13 84q0 64 34 100t87 36q61 0 155 -32q95 -32 177 -66z" />
    <glyph glyph-name="uniFEA4" unicode="&#x62d;" horiz-adv-x="568" arabic-form="medial" 
d="M568 150l16 -11v-129l-16 -10q-158 0 -172 152l-65 -38q-61 -36 -110 -60q-110 -54 -221 -54l-16 10v129l16 11q84 0 138 16q59 17 131 48q68 31 110 42q-150 57 -193 57q-40 0 -40 -31q0 -14 8 -32l-106 -30q-13 45 -13 84q0 64 34 100t87 36q61 0 155 -32
q95 -32 177 -66l27 -11v-130q-39 -11 -81 -30q26 -21 134 -21z" />
    <glyph glyph-name="uniFEA6" unicode="&#x62e;" horiz-adv-x="586" arabic-form="final" 
d="M586 150l16 -11v-129l-16 -10q-170 0 -186 201q-227 -89 -227 -208q0 -46 41.5 -71.5t116.5 -25.5q116 0 161 51l84 -69q-30 -60 -97.5 -94t-157.5 -34q-116 0 -187 59t-71 156q0 101 87.5 190.5t228.5 133.5q-53 13 -94 19q-53 8 -74 8q-43 0 -43 -31q0 -15 7 -32
l-104 -30q-12 43 -12 81q0 64 32 101t89 37q101 0 326 -63l25 -7v-128l-50 -15q6 -79 105 -79zM318 502l-74 75l74 74l74 -74z" />
    <glyph glyph-name="uniFEA7" unicode="&#x62e;" horiz-adv-x="555" arabic-form="initial" 
d="M488 342l27 -11v-130q-66 -17 -183 -86q-65 -39 -109 -60q-106 -55 -223 -55l-16 10v129l16 11q84 0 138 16q59 17 131 48q68 31 110 42q-150 57 -193 57q-40 0 -40 -31q0 -14 8 -32l-106 -30q-13 45 -13 84q0 64 34 100t87 36q61 0 155 -32q95 -32 177 -66zM234 506
l-74 75l74 74l74 -74z" />
    <glyph glyph-name="uniFEA8" unicode="&#x62e;" horiz-adv-x="568" arabic-form="medial" 
d="M568 150l16 -11v-129l-16 -10q-158 0 -172 152l-65 -38q-61 -36 -110 -60q-110 -54 -221 -54l-16 10v129l16 11q84 0 138 16q59 17 131 48q68 31 110 42q-150 57 -193 57q-40 0 -40 -31q0 -14 8 -32l-106 -30q-13 45 -13 84q0 64 34 100t87 36q61 0 155 -32
q95 -32 177 -66l27 -11v-130q-39 -11 -81 -30q26 -21 134 -21zM254 502l-74 75l74 74l74 -74z" />
    <glyph glyph-name="uniFEAA" unicode="&#x62f;" horiz-adv-x="465" arabic-form="final" 
d="M465 150l16 -10v-130l-16 -10q-53 0 -84.5 21t-57.5 72q-34 -102 -156 -102q-39 0 -119 9l-10 149q57 -6 121 -6q78 0 133 16l-106 249l93 35l99 -220q23 -50 35 -60.5t52 -12.5z" />
    <glyph glyph-name="uniFEAC" unicode="&#x630;" horiz-adv-x="465" arabic-form="final" 
d="M465 150l16 -10v-130l-16 -10q-53 0 -84.5 21t-57.5 72q-34 -102 -156 -102q-39 0 -119 9l-10 149q57 -6 121 -6q78 0 133 16l-106 249l93 35l99 -220q23 -50 35 -60.5t52 -12.5zM243 510l-74 75l74 74l74 -74z" />
    <glyph glyph-name="uniFEAE" unicode="&#x631;" horiz-adv-x="391" arabic-form="final" 
d="M391 150l16 -10v-130l-16 -10q-59 0 -86 56q-3 -109 -63.5 -184t-153.5 -75q-67 0 -130 33l27 132q45 -15 83 -15q62 0 94.5 35t32.5 96q0 70 -45 183l101 38l30 -75q23 -53 37 -62.5t73 -11.5z" />
    <glyph glyph-name="uniFEB0" unicode="&#x632;" horiz-adv-x="391" arabic-form="final" 
d="M391 150l16 -10v-130l-16 -10q-59 0 -86 56q-3 -109 -63.5 -184t-153.5 -75q-67 0 -130 33l27 132q45 -15 83 -15q62 0 94.5 35t32.5 96q0 70 -45 183l101 38l30 -75q23 -53 37 -62.5t73 -11.5zM191 347l-74 75l74 74l74 -74z" />
    <glyph glyph-name="uniFEB2" unicode="&#x633;" horiz-adv-x="1124" arabic-form="final" 
d="M1124 150l16 -11v-129l-16 -10q-86 0 -128 67q-37 -76 -116 -76q-44 0 -78.5 31t-46.5 84q-10 -55 -39 -85t-73 -30q-25 0 -45 11q-15 -103 -86 -157.5t-195 -54.5q-134 0 -207 70.5t-73 193.5q0 116 67 251l89 -30q-40 -99 -40 -178q0 -152 170 -152q85 0 122.5 34
t37.5 106q0 81 -51 218l108 29q31 -76 44 -135q14 -47 63 -47q32 0 46 19.5t14 61.5v119h95v-119q0 -81 67 -81q58 0 58 86v142h96v-155q2 -42 24.5 -57.5t76.5 -15.5z" />
    <glyph glyph-name="uniFEB3" unicode="&#x633;" horiz-adv-x="692" arabic-form="initial" 
d="M648 204q0 -100 -42 -155.5t-116 -55.5q-93 0 -122 104q-25 -104 -106 -104q-42 0 -74 32t-43 84q-14 -51 -52.5 -79.5t-92.5 -29.5l-16 10v129l16 11q56 0 77.5 18t21.5 66v73h93v-71q0 -86 64 -86q63 0 63 75v127h94v-121q0 -81 64 -81q69 0 69 89q0 53 -26 146l92 21
q36 -107 36 -202z" />
    <glyph glyph-name="uniFEB4" unicode="&#x633;" horiz-adv-x="737" arabic-form="medial" 
d="M737 150l16 -11v-129l-16 -10q-85 0 -127 67q-39 -76 -120 -76q-47 0 -79.5 30t-43.5 85q-11 -54 -41.5 -84.5t-72.5 -30.5q-40 0 -69.5 30.5t-39.5 84.5q-14 -50 -54 -78t-90 -28l-16 10v129l16 11q54 2 76.5 18.5t22.5 57.5v81h93v-78q0 -79 61 -79q67 0 67 74v126h95
v-127q0 -73 61 -73q34 0 49 17.5t15 61.5v149h96v-155q2 -42 24.5 -57.5t76.5 -15.5z" />
    <glyph glyph-name="uniFEB6" unicode="&#x634;" horiz-adv-x="1124" arabic-form="final" 
d="M1124 150l16 -11v-129l-16 -10q-86 0 -128 67q-37 -76 -116 -76q-44 0 -78.5 31t-46.5 84q-10 -55 -39 -85t-73 -30q-25 0 -45 11q-15 -103 -86 -157.5t-195 -54.5q-134 0 -207 70.5t-73 193.5q0 116 67 251l89 -30q-40 -99 -40 -178q0 -152 170 -152q85 0 122.5 34
t37.5 106q0 81 -51 218l108 29q31 -76 44 -135q14 -47 63 -47q32 0 46 19.5t14 61.5v119h95v-119q0 -81 67 -81q58 0 58 86v142h96v-155q2 -42 24.5 -57.5t76.5 -15.5zM810 654l-73 -74l-75 74l74 76zM869 512l-74 -75l-58 59l-59 -59l-74 75l74 75l59 -59l58 59z" />
    <glyph glyph-name="uniFEB7" unicode="&#x634;" horiz-adv-x="692" arabic-form="initial" 
d="M648 204q0 -100 -42 -155.5t-116 -55.5q-93 0 -122 104q-25 -104 -106 -104q-42 0 -74 32t-43 84q-14 -51 -52.5 -79.5t-92.5 -29.5l-16 10v129l16 11q56 0 77.5 18t21.5 66v73h93v-71q0 -86 64 -86q63 0 63 75v127h94v-121q0 -81 64 -81q69 0 69 89q0 53 -26 146l92 21
q36 -107 36 -202zM399 653l-73 -74l-75 74l74 76zM458 511l-74 -75l-58 59l-59 -59l-74 75l74 75l59 -59l58 59z" />
    <glyph glyph-name="uniFEB8" unicode="&#x634;" horiz-adv-x="737" arabic-form="medial" 
d="M737 150l16 -11v-129l-16 -10q-85 0 -127 67q-39 -76 -120 -76q-47 0 -79.5 30t-43.5 85q-11 -54 -41.5 -84.5t-72.5 -30.5q-40 0 -69.5 30.5t-39.5 84.5q-14 -50 -54 -78t-90 -28l-16 10v129l16 11q54 2 76.5 18.5t22.5 57.5v81h93v-78q0 -79 61 -79q67 0 67 74v126h95
v-127q0 -73 61 -73q34 0 49 17.5t15 61.5v149h96v-155q2 -42 24.5 -57.5t76.5 -15.5zM437 657l-73 -74l-75 74l74 76zM496 515l-74 -75l-58 59l-59 -59l-74 75l74 75l59 -59l58 59z" />
    <glyph glyph-name="uniFEBA" unicode="&#x635;" horiz-adv-x="1176" arabic-form="final" 
d="M1176 150l16 -10v-130l-16 -10q-76 0 -122 59q-67 -61 -241 -61q-137 0 -229 50q-2 -120 -71.5 -185.5t-204.5 -65.5q-130 0 -200.5 68t-70.5 187q0 110 65 243l86 -29q-39 -99 -39 -172q0 -147 165 -147q82 0 118.5 32.5t36.5 102.5q0 76 -50 211l105 28q29 -73 41 -124
q16 -29 59 -35q62 131 134.5 199t148.5 68q86 0 142.5 -67t56.5 -166q0 -5 -2 -31q22 -15 72 -15zM1011 209q0 27 -24 52.5t-67 25.5q-98 0 -205 -135q34 -3 115 -3q97 0 139 14t42 46z" />
    <glyph glyph-name="uniFEBB" unicode="&#x635;" horiz-adv-x="777" arabic-form="initial" 
d="M744 190q0 -105 -71.5 -152t-239.5 -47q-123 0 -187 24q-63 24 -95 84q-17 -46 -57.5 -72.5t-92.5 -26.5l-17 10v129l17 11q100 0 100 74v66h94v-66q0 -36 16 -52.5t53 -18.5q61 132 133 201t148 69q85 0 142 -66t57 -167zM649 201q0 31 -26 55.5t-65 24.5
q-94 0 -198 -131h92q116 0 156.5 11t40.5 40z" />
    <glyph glyph-name="uniFEBC" unicode="&#x635;" horiz-adv-x="818" arabic-form="medial" 
d="M818 150l16 -10v-130l-16 -10q-75 0 -121 57q-69 -66 -264 -66q-123 0 -187 24q-63 24 -95 84q-17 -46 -57.5 -72.5t-92.5 -26.5l-17 10v129l17 11q100 0 100 74v66h94v-66q0 -36 16 -52.5t53 -18.5q61 132 133 201t148 69q85 0 142 -66t57 -167q0 -18 -1 -23
q23 -17 75 -17zM649 201q0 31 -26 55.5t-65 24.5q-94 0 -198 -131h92q116 0 156.5 11t40.5 40z" />
    <glyph glyph-name="uniFEBE" unicode="&#x636;" horiz-adv-x="1176" arabic-form="final" 
d="M1176 150l16 -10v-130l-16 -10q-76 0 -122 59q-67 -61 -241 -61q-137 0 -229 50q-2 -120 -71.5 -185.5t-204.5 -65.5q-130 0 -200.5 68t-70.5 187q0 110 65 243l86 -29q-39 -99 -39 -172q0 -147 165 -147q82 0 118.5 32.5t36.5 102.5q0 76 -50 211l105 28q29 -73 41 -124
q16 -29 59 -35q62 131 134.5 199t148.5 68q86 0 142.5 -67t56.5 -166q0 -5 -2 -31q22 -15 72 -15zM1011 209q0 27 -24 52.5t-67 25.5q-98 0 -205 -135q34 -3 115 -3q97 0 139 14t42 46zM882 494l-74 75l74 74l74 -74z" />
    <glyph glyph-name="uniFEBF" unicode="&#x636;" horiz-adv-x="777" arabic-form="initial" 
d="M744 190q0 -105 -71.5 -152t-239.5 -47q-123 0 -187 24q-63 24 -95 84q-17 -46 -57.5 -72.5t-92.5 -26.5l-17 10v129l17 11q100 0 100 74v66h94v-66q0 -36 16 -52.5t53 -18.5q61 132 133 201t148 69q85 0 142 -66t57 -167zM649 201q0 31 -26 55.5t-65 24.5
q-94 0 -198 -131h92q116 0 156.5 11t40.5 40zM521 493l-74 75l74 74l74 -74z" />
    <glyph glyph-name="uniFEC0" unicode="&#x636;" horiz-adv-x="818" arabic-form="medial" 
d="M818 150l16 -10v-130l-16 -10q-75 0 -121 57q-69 -66 -264 -66q-123 0 -187 24q-63 24 -95 84q-17 -46 -57.5 -72.5t-92.5 -26.5l-17 10v129l17 11q100 0 100 74v66h94v-66q0 -36 16 -52.5t53 -18.5q61 132 133 201t148 69q85 0 142 -66t57 -167q0 -18 -1 -23
q23 -17 75 -17zM649 201q0 31 -26 55.5t-65 24.5q-94 0 -198 -131h92q116 0 156.5 11t40.5 40zM522 494l-74 75l74 74l74 -74z" />
    <glyph glyph-name="uniFEC2" unicode="&#x637;" horiz-adv-x="684" arabic-form="final" 
d="M684 150l16 -10v-130l-16 -10q-75 0 -123 55q-68 -55 -249 -55h-248l-26 152l96 -2v530h102v-441q28 83 81 135q53 54 115 54q77 0 132.5 -67t55.5 -164q0 -3 -2 -33q20 -13 66 -14zM525 209q0 29 -25 51.5t-63 22.5q-96 0 -199 -133h91q106 0 151 14t45 45z" />
    <glyph glyph-name="uniFEC3" unicode="&#x637;" horiz-adv-x="585" arabic-form="initial" 
d="M552 197q0 -106 -72.5 -151.5t-235.5 -45.5h-243l-17 10v129l17 11h65v530h101v-442q29 84 80 135q53 54 116 54q78 0 133.5 -66.5t55.5 -163.5zM457 208q0 29 -25 52t-64 23q-95 0 -198 -132h92q104 0 149.5 13.5t45.5 43.5z" />
    <glyph glyph-name="uniFEC4" unicode="&#x637;" horiz-adv-x="618" arabic-form="medial" 
d="M618 150l16 -10v-130l-16 -10q-76 0 -124 56q-69 -56 -250 -56h-243l-17 10v129l17 11h65v530h101v-442q29 84 80 135q53 54 116 54q78 0 133.5 -66.5t55.5 -163.5q0 -6 -2 -32q20 -14 68 -15zM457 208q0 29 -25 52t-64 23q-95 0 -198 -132h92q104 0 149.5 13.5
t45.5 43.5z" />
    <glyph glyph-name="uniFEC6" unicode="&#x638;" horiz-adv-x="684" arabic-form="final" 
d="M684 150l16 -10v-130l-16 -10q-75 0 -123 55q-68 -55 -249 -55h-248l-26 152l96 -2v530h102v-441q28 83 81 135q53 54 115 54q77 0 132.5 -67t55.5 -164q0 -3 -2 -33q20 -13 66 -14zM525 209q0 29 -25 51.5t-63 22.5q-96 0 -199 -133h91q106 0 151 14t45 45zM432 480
l-74 75l74 74l74 -74z" />
    <glyph glyph-name="uniFEC7" unicode="&#x638;" horiz-adv-x="585" arabic-form="initial" 
d="M552 197q0 -106 -72.5 -151.5t-235.5 -45.5h-243l-17 10v129l17 11h65v530h101v-442q29 84 80 135q53 54 116 54q78 0 133.5 -66.5t55.5 -163.5zM457 208q0 29 -25 52t-64 23q-95 0 -198 -132h92q104 0 149.5 13.5t45.5 43.5zM363 480l-74 75l74 74l74 -74z" />
    <glyph glyph-name="uniFEC8" unicode="&#x638;" horiz-adv-x="618" arabic-form="medial" 
d="M618 150l16 -10v-130l-16 -10q-76 0 -124 56q-69 -56 -250 -56h-243l-17 10v129l17 11h65v530h101v-442q29 84 80 135q53 54 116 54q78 0 133.5 -66.5t55.5 -163.5q0 -6 -2 -32q20 -14 68 -15zM457 208q0 29 -25 52t-64 23q-95 0 -198 -132h92q104 0 149.5 13.5
t45.5 43.5zM363 480l-74 75l74 74l74 -74z" />
    <glyph glyph-name="uniFECA" unicode="&#x639;" horiz-adv-x="524" arabic-form="final" 
d="M141 -19q0 -39 41 -62t107 -23q127 0 160 51l85 -69q-30 -60 -97.5 -94t-157.5 -34q-111 0 -179.5 55.5t-68.5 147.5q0 116 170 212q-80 85 -133 113v107q40 32 99 51t120 19q86 0 139 -31.5t53 -89.5q0 -80 -108 -163q66 -21 153 -21l16 -10v-130l-16 -10
q-84 0 -144 23.5t-114 73.5q-69 -31 -97 -57t-28 -59zM218 266l16 -15q31 -27 46 -36q95 43 95 80q0 19 -24.5 30t-63.5 11q-70 0 -122 -27q22 -16 53 -43z" />
    <glyph glyph-name="uniFECB" unicode="&#x639;" horiz-adv-x="428" arabic-form="initial" 
d="M403 199l18 -141q-174 -58 -421 -58l-16 10v130l16 10q8 0 82 2q-30 42 -30 99q0 85 53 139t127 54q65 0 111.5 -41.5t57.5 -116.5l-79 -25q-12 62 -84 62q-34 0 -59 -21.5t-25 -53.5q0 -31 32 -48.5t91 -17.5q52 0 105 13q2 0 21 4z" />
    <glyph glyph-name="uniFECC" unicode="&#x639;" horiz-adv-x="476" arabic-form="medial" 
d="M476 150l16 -10v-130l-16 -10q-133 0 -227 85q-109 -85 -249 -85l-16 10v130l16 10q89 0 164 23q-69 74 -125 105v107q39 33 98.5 51.5t120.5 18.5q86 0 139 -31.5t53 -88.5q0 -81 -111 -167q59 -18 137 -18zM205 251q20 -20 44 -38q97 46 97 83q0 18 -24.5 29t-63.5 11
q-71 0 -122 -27q19 -12 41 -32q15 -13 28 -26z" />
    <glyph glyph-name="uniFECE" unicode="&#x63a;" horiz-adv-x="524" arabic-form="final" 
d="M141 -19q0 -39 41 -62t107 -23q127 0 160 51l85 -69q-30 -60 -97.5 -94t-157.5 -34q-111 0 -179.5 55.5t-68.5 147.5q0 116 170 212q-80 85 -133 113v107q40 32 99 51t120 19q86 0 139 -31.5t53 -89.5q0 -80 -108 -163q66 -21 153 -21l16 -10v-130l-16 -10
q-84 0 -144 23.5t-114 73.5q-69 -31 -97 -57t-28 -59zM218 266l16 -15q31 -27 46 -36q95 43 95 80q0 19 -24.5 30t-63.5 11q-70 0 -122 -27q22 -16 53 -43zM287 516l-74 75l74 74l74 -74z" />
    <glyph glyph-name="uniFECF" unicode="&#x63a;" horiz-adv-x="428" arabic-form="initial" 
d="M403 199l18 -141q-174 -58 -421 -58l-16 10v130l16 10q8 0 82 2q-30 42 -30 99q0 85 53 139t127 54q65 0 111.5 -41.5t57.5 -116.5l-79 -25q-12 62 -84 62q-34 0 -59 -21.5t-25 -53.5q0 -31 32 -48.5t91 -17.5q52 0 105 13q2 0 21 4zM225 517l-74 75l74 74l74 -74z" />
    <glyph glyph-name="uniFED0" unicode="&#x63a;" horiz-adv-x="476" arabic-form="medial" 
d="M476 150l16 -10v-130l-16 -10q-133 0 -227 85q-109 -85 -249 -85l-16 10v130l16 10q89 0 164 23q-69 74 -125 105v107q39 33 98.5 51.5t120.5 18.5q86 0 139 -31.5t53 -88.5q0 -81 -111 -167q59 -18 137 -18zM205 251q20 -20 44 -38q97 46 97 83q0 18 -24.5 29t-63.5 11
q-71 0 -122 -27q19 -12 41 -32q15 -13 28 -26zM258 516l-74 75l74 74l74 -74z" />
    <glyph glyph-name="uniFED2" unicode="&#x641;" horiz-adv-x="769" arabic-form="final" 
d="M767 150l18 -11v-128l-18 -11q-113 0 -207 42q-106 -50 -229 -50q-153 0 -224 47.5t-71 151.5q0 75 42 206l88 -23q-24 -86 -24 -126q0 -60 44 -82.5t153 -22.5q51 0 91 3q-34 55 -34 116q0 74 44 124t117 50q74 0 117 -52q44 -52 44 -130q0 -55 -29 -102q64 -2 78 -2z
M561 171q70 24 70 70q0 34 -19.5 54.5t-54.5 20.5t-54.5 -20.5t-19.5 -54.5q0 -49 78 -70zM557 508l-74 75l74 74l74 -74z" />
    <glyph glyph-name="uniFED3" unicode="&#x641;" horiz-adv-x="388" arabic-form="initial" 
d="M355 243q0 -106 -28 -156q-29 -49 -102 -69q-73 -18 -225 -18l-16 11v128l16 11q119 0 172 8q49 7 65 34q16 25 16 90q0 30 -1 37q-14 -113 -106 -113q-61 0 -99 45t-38 118q0 82 46.5 138t115.5 56q97 0 140.5 -76t43.5 -244zM248 354q-13 90 -79 90q-31 0 -49.5 -18.5
t-18.5 -47.5q0 -28 18.5 -44t51.5 -16q55 0 77 36zM170 623l-74 75l74 74l74 -74z" />
    <glyph glyph-name="uniFED4" unicode="&#x641;" horiz-adv-x="421" arabic-form="medial" 
d="M421 150l16 -11v-128l-16 -11q-117 0 -209 42q-92 -42 -212 -42l-16 11v128l16 11q15 0 81 2q-32 50 -32 110q0 77 45.5 125.5t116.5 48.5t116 -51q45 -49 45 -131q0 -55 -29 -102q64 -2 78 -2zM211 173q73 22 73 71q0 32 -20 52t-53 20q-34 0 -54 -20t-20 -52
q0 -48 74 -71zM211 500l-74 75l74 74l74 -74z" />
    <glyph glyph-name="uniFED6" unicode="&#x642;" horiz-adv-x="644" arabic-form="final" 
d="M644 150l16 -9v-131l-16 -10h-43q-10 -114 -75.5 -159t-217.5 -45q-128 0 -199.5 67t-71.5 188q0 115 65 243l86 -29q-39 -97 -39 -172q0 -154 165 -154q95 1 127 11t48 50h-43q-88 0 -135.5 46.5t-47.5 138.5q0 85 46.5 143t115.5 58q80 0 122 -57t52 -179h45zM446 150
h53q-8 116 -76 116q-29 0 -48 -19t-19 -46q0 -51 90 -51zM560 540l-74 -74l-58 59l-59 -59l-74 74l74 75l59 -59l58 59z" />
    <glyph glyph-name="uniFED7" unicode="&#x642;" horiz-adv-x="388" arabic-form="initial" 
d="M355 243q0 -106 -28 -156q-29 -49 -102 -69q-73 -18 -225 -18l-16 11v128l16 11q119 0 172 8q49 7 65 34q16 25 16 90q0 30 -1 37q-14 -113 -106 -113q-61 0 -99 45t-38 118q0 82 46.5 138t115.5 56q97 0 140.5 -76t43.5 -244zM248 354q-13 90 -79 90q-31 0 -49.5 -18.5
t-18.5 -47.5q0 -28 18.5 -44t51.5 -16q55 0 77 36zM304 700l-74 -74l-58 59l-59 -59l-74 74l74 75l59 -59l58 59z" />
    <glyph glyph-name="uniFED8" unicode="&#x642;" horiz-adv-x="421" arabic-form="medial" 
d="M421 150l16 -11v-128l-16 -11q-117 0 -209 42q-92 -42 -212 -42l-16 11v128l16 11q15 0 81 2q-32 50 -32 110q0 77 45.5 125.5t116.5 48.5t116 -51q45 -49 45 -131q0 -55 -29 -102q64 -2 78 -2zM211 173q73 22 73 71q0 32 -20 52t-53 20q-34 0 -54 -20t-20 -52
q0 -48 74 -71zM345 577l-74 -74l-58 59l-59 -59l-74 74l74 75l59 -59l58 59z" />
    <glyph glyph-name="uniFEDA" unicode="&#x643;" horiz-adv-x="719" arabic-form="final" 
d="M719 150l16 -10v-130l-16 -10q-89 0 -135 64q-68 -72 -251 -72q-153 0 -225 53t-72 163q0 80 38 199l83 -23q-22 -72 -22 -119q0 -66 47.5 -93.5t158.5 -27.5q104 0 145 17t41 65v454h101v-471q0 -30 21.5 -43.5t69.5 -15.5zM331 327q-34 0 -71 5l3 49q38 -5 66 -5
q46 0 46 10q0 6 -27 10l-22 5q-29 5 -41.5 17.5t-12.5 35.5q0 28 21.5 47.5t52.5 19.5q47 0 69 -37l-29 -28q-14 17 -38 17q-13 0 -22 -4.5t-9 -10.5q0 -12 27 -16l25 -4q54 -10 54 -54q0 -27 -24.5 -42t-67.5 -15z" />
    <glyph glyph-name="uniFEDB" unicode="&#x643;" horiz-adv-x="404" arabic-form="initial" 
d="M128 426l79 -87q84 -93 84 -171t-53 -123t-149 -45h-89l-16 10v130l16 10h81q93 0 93 44q0 26 -39 69l-131 145v83l356 174l48 -104z" />
    <glyph glyph-name="uniFEDC" unicode="&#x643;" horiz-adv-x="395" arabic-form="medial" 
d="M395 150l16 -10v-130l-16 -10q-49 0 -98 32q-48 34 -68 79q-11 -54 -51 -82.5t-106 -28.5h-72l-16 10v130l16 10h89q65 0 90 30l-172 228v83l356 174l48 -104l-285 -137l126 -166q54 -68 80 -88t63 -20z" />
    <glyph glyph-name="uniFEDE" unicode="&#x644;" horiz-adv-x="664" arabic-form="final" 
d="M664 150l16 -10v-130l-16 -10q-54 0 -94 27q-14 -106 -83.5 -167.5t-178.5 -61.5q-128 0 -199.5 67.5t-71.5 183.5q0 119 70 247l86 -31q-43 -95 -43 -172q0 -70 42.5 -107t123.5 -37q155 0 155 130v601h102v-471q0 -59 91 -59z" />
    <glyph glyph-name="uniFEDF" unicode="&#x644;" horiz-adv-x="247" arabic-form="initial" 
d="M0 0l-16 10v130l16 10q92 0 92 60v470h102v-490q0 -190 -194 -190z" />
    <glyph glyph-name="uniFEE0" unicode="&#x644;" horiz-adv-x="284" arabic-form="medial" 
d="M284 150l16 -10v-130l-16 -10q-80 0 -130 57q-48 -57 -154 -57l-16 10v130l16 10q92 0 92 60v470h102v-471q0 -32 21.5 -45.5t68.5 -13.5z" />
    <glyph glyph-name="uniFEE2" unicode="&#x645;" horiz-adv-x="624" arabic-form="final" 
d="M624 150l16 -10v-129l-16 -11q-62 0 -97 25.5t-54 83.5q-31 -118 -113 -118q-48 0 -89.5 34t-62.5 89h-20q-18 0 -25 -7.5t-7 -25.5v-381h-103v438q0 59 30.5 89t87.5 30h29q15 65 63 105t104 40q117 0 164 -154l16 -54q12 -44 77 -44zM450 180l-8 26q-23 69 -80 69
q-32 0 -55.5 -21.5t-23.5 -54.5q0 -26 23.5 -42.5t57.5 -16.5q62 0 86 40z" />
    <glyph glyph-name="uniFEE3" unicode="&#x645;" horiz-adv-x="474" arabic-form="initial" 
d="M441 171q0 -75 -44 -127.5t-111 -52.5q-45 0 -81.5 36t-56.5 100q-31 -69 -64.5 -98t-83.5 -29l-16 11v129l16 10q30 0 43 13q15 14 41 59l21 42q37 72 76 103.5t93 31.5q73 0 120 -66t47 -162zM343 198q0 31 -19 53t-48 22q-58 0 -94 -74q45 -58 98 -58q29 0 46 16
t17 41z" />
    <glyph glyph-name="uniFEE4" unicode="&#x645;" horiz-adv-x="520" arabic-form="medial" 
d="M520 150l16 -10v-129l-16 -11q-59 0 -94 23.5t-53 74.5q-32 -107 -109 -107q-41 0 -77 29t-57 77q-27 -51 -57.5 -74t-72.5 -23l-16 11v129l16 10q30 0 43 13q15 15 37 59l19 36q39 76 78 108.5t90 32.5q58 0 97 -36.5t63 -117.5l16 -51q8 -24 25.5 -34t51.5 -10z
M348 178q-17 54 -33.5 74.5t-44.5 20.5q-56 0 -96 -82q42 -50 95 -50q54 0 79 37z" />
    <glyph glyph-name="uniFEE6" unicode="&#x646;" horiz-adv-x="653" arabic-form="final" 
d="M653 150l16 -10v-130l-16 -10q-37 0 -70 30q-6 -114 -75.5 -175t-199.5 -61t-200.5 68t-70.5 187q0 110 65 243l86 -29q-39 -99 -39 -172q0 -147 165 -147q82 0 118.5 32.5t36.5 102.5q0 76 -50 211l105 28q26 -66 42 -130q18 -38 87 -38zM311 344l-74 75l74 74l74 -74z
" />
    <glyph glyph-name="uniFEE7" unicode="&#x646;" horiz-adv-x="237" arabic-form="initial" 
d="M0 0l-16 10v129l12 11q50 0 72 22t22 69q0 53 -27 148l93 21q37 -117 37 -206q0 -99 -48 -151.5t-145 -52.5zM106 490l-74 75l74 74l74 -74z" />
    <glyph glyph-name="uniFEE8" unicode="&#x646;" horiz-adv-x="278" arabic-form="medial" 
d="M278 150l16 -11v-129l-16 -10q-56 0 -91.5 29.5t-47.5 82.5q-28 -112 -139 -112l-16 10v114l16 26q92 0 92 61v134h94v-134q0 -61 92 -61zM137 409l-74 75l74 74l74 -74z" />
    <glyph glyph-name="uniFEEA" unicode="&#x647;" horiz-adv-x="488" arabic-form="final" 
d="M488 150l16 -10v-130l-16 -10q-184 0 -184 154v34q-35 -120 -140 -120q-54 0 -92 43t-38 104q0 81 61 142q63 63 209 119v43h95v-295q0 -44 18.5 -59t70.5 -15zM304 242v126q-63 -11 -115.5 -45t-52.5 -66q0 -18 21.5 -28.5t56.5 -10.5q53 0 90 24z" />
    <glyph glyph-name="uniFEEB" unicode="&#x647;" horiz-adv-x="570" arabic-form="initial" 
d="M537 171q0 -82 -54.5 -131t-147.5 -49q-92 0 -160 38q-79 -29 -175 -29l-16 9v131l14 10q52 0 65 1q-13 36 -13 74q0 63 33 110q35 48 90 55q-11 3 -51 10l36 113q169 -48 274 -140t105 -202zM435 196q0 38 -35.5 77t-96.5 70q40 -46 40 -114q0 -47 -22 -87q7 -1 31 -1
q83 0 83 55zM196 171q65 22 65 76q0 27 -19 46.5t-45 19.5q-27 0 -46 -20t-19 -45q0 -47 64 -77z" />
    <glyph glyph-name="uniFEEC" unicode="&#x647;" horiz-adv-x="450" arabic-form="medial" 
d="M450 150l16 -11v-128l-16 -11h-55q28 -32 28 -83q0 -50 -38.5 -80t-102.5 -30q-82 0 -149 56t-84 138q-11 -1 -49 -1l-16 11v128l16 11q44 0 55 1q23 108 85 191.5t123 80.5q45 0 80.5 -55t35.5 -125q0 -50 -17 -93h88zM141 155q85 7 123 26t38 55q0 25 -12.5 40
t-32.5 15q-35 0 -67.5 -38.5t-48.5 -97.5zM335 -26q0 22 -18 45.5t-43 34.5q-53 -30 -131 -43q19 -36 56.5 -58t79.5 -22q26 0 41 11.5t15 31.5z" />
    <glyph glyph-name="uniFEEE" unicode="&#x648;" horiz-adv-x="405" arabic-form="final" 
d="M405 150l16 -11v-129l-16 -10h-47q-25 -96 -86.5 -150t-145.5 -54q-66 0 -135 34l27 119q60 -23 112 -23q87 0 130 74h-44q-92 0 -134 44.5t-42 139.5q0 83 44 137.5t112 54.5q80 0 126.5 -59t51.5 -167h31zM204 150h78q-12 111 -86 111q-30 0 -49.5 -18t-19.5 -46
q0 -47 77 -47z" />
    <glyph glyph-name="uniFEF0" unicode="&#x649;" horiz-adv-x="652" arabic-form="final" 
d="M652 150l16 -10v-130l-16 -10q-32 0 -55 13q3 -80 -89.5 -149t-199.5 -67q-128 0 -199.5 67t-71.5 188q0 115 65 243l86 -29q-39 -98 -39 -172q0 -147 165 -147q76 0 132 27t56 63q0 29 -41 76l-55 61l84 72l59 -63q19 -22 38 -28q22 -5 65 -5z" />
    <glyph glyph-name="uniFEF2" unicode="&#x64a;" horiz-adv-x="652" arabic-form="final" 
d="M652 150l16 -10v-130l-16 -10q-32 0 -55 13q3 -80 -89.5 -149t-199.5 -67q-128 0 -199.5 67t-71.5 188q0 115 65 243l86 -29q-39 -98 -39 -172q0 -147 165 -147q76 0 132 27t56 63q0 29 -41 76l-55 61l84 72l59 -63q19 -22 38 -28q22 -5 65 -5zM442 -332l-75 -76l-59 60
l-60 -60l-75 76l76 76l59 -60l60 60z" />
    <glyph glyph-name="uniFEF3" unicode="&#x64a;" horiz-adv-x="237" arabic-form="initial" 
d="M0 0l-16 10v129l12 11q50 0 72 22t22 69q0 53 -27 148l93 21q37 -117 37 -206q0 -99 -48 -151.5t-145 -52.5zM270 -147l-75 -76l-59 60l-60 -60l-75 76l76 76l59 -60l60 60z" />
    <glyph glyph-name="uniFEF4" unicode="&#x64a;" horiz-adv-x="278" arabic-form="medial" 
d="M278 150l16 -11v-129l-16 -10q-56 0 -91.5 29.5t-47.5 82.5q-28 -112 -139 -112l-16 10v114l16 26q92 0 92 61v134h94v-134q0 -61 92 -61zM271 -147l-75 -76l-59 60l-60 -60l-75 76l76 76l59 -60l60 60z" />
    <glyph glyph-name=".notdef" horiz-adv-x="586" 
d="M60 0v700h466v-700h-466zM293 384l171 280h-342zM96 62l176 288l-176 288v-576zM490 62v576l-176 -288zM122 36h342l-171 280z" />
    <glyph glyph-name=".null" 
 />
    <glyph glyph-name="nonmarkingreturn" horiz-adv-x="333" 
 />
    <glyph glyph-name="CR" unicode="&#xd;" horiz-adv-x="289" 
 />
    <glyph glyph-name="space" unicode=" " horiz-adv-x="276" 
 />
    <glyph glyph-name="exclam" unicode="!" horiz-adv-x="278" 
d="M89 208l-16 249v243h132v-243l-16 -249h-100zM73 0v138h132v-138h-132z" />
    <glyph glyph-name="quotedbl" unicode="&#x22;" horiz-adv-x="394" 
d="M64 454l-13 167v79h120v-79l-13 -167h-94zM236 454l-13 167v79h120v-79l-13 -167h-94z" />
    <glyph glyph-name="numbersign" unicode="#" horiz-adv-x="666" 
d="M96 0l38 204h-89v94h106l19 104h-105v94h122l37 204h110l-37 -204h129l38 204h110l-38 -204h89v-94h-106l-19 -104h105v-94h-122l-37 -204h-110l37 204h-129l-38 -204h-110zM261 298h129l19 104h-129z" />
    <glyph glyph-name="dollar" unicode="$" horiz-adv-x="652" 
d="M280 -100v90q-97 14 -157.5 71.5t-78.5 148.5l116 59q24 -131 120 -160v206q-98 21 -152 74t-54 133q0 78 56 129t150 61v88h104v-92q148 -26 203 -174l-104 -60q-29 88 -99 116v-177q109 -25 162 -76.5t53 -135.5q0 -80 -59 -140t-156 -72v-89h-104zM280 440v159
q-80 -13 -80 -74q0 -54 80 -85zM467 196q0 62 -83 92v-181q39 9 61 32.5t22 56.5z" />
    <glyph glyph-name="percent" unicode="%" horiz-adv-x="874" 
d="M40 539q0 75 49.5 125t124.5 50t124.5 -50t49.5 -125t-49.5 -125t-124.5 -50t-124.5 50t-49.5 125zM255 -7l-72 49l436 665l72 -49zM296 539q0 39 -23.5 64t-58.5 25t-58.5 -25t-23.5 -64t23.5 -64t58.5 -25t58.5 25t23.5 64zM486 161q0 75 49.5 125t124.5 50t124.5 -50
t49.5 -125t-49.5 -125t-124.5 -50t-124.5 50t-49.5 125zM742 161q0 39 -23.5 64t-58.5 25t-58.5 -25t-23.5 -64t23.5 -64t58.5 -25t58.5 25t23.5 64z" />
    <glyph glyph-name="ampersand" unicode="&#x26;" horiz-adv-x="662" 
d="M50 204q0 125 131 205q-44 73 -44 134q0 75 50.5 123t125.5 48q76 0 123.5 -39.5t47.5 -105.5q0 -108 -149 -185l129 -168q29 59 42 140l98 -56q-24 -102 -71 -175l95 -125h-144l-31 41q-73 -55 -178 -55q-98 0 -161.5 61t-63.5 157zM378 558q0 27 -18.5 43.5t-46.5 16.5
q-29 0 -47.5 -19t-18.5 -52q0 -40 32 -89q54 27 76.5 49.5t22.5 50.5zM391 125l-152 203q-63 -50 -63 -118q0 -51 33.5 -82.5t84.5 -31.5q53 0 97 29z" />
    <glyph glyph-name="quotesingle" unicode="'" horiz-adv-x="222" 
d="M64 454l-13 167v79h120v-79l-13 -167h-94z" />
    <glyph glyph-name="parenleft" unicode="(" horiz-adv-x="360" 
d="M62 276q0 231 109 424h113q-41 -75 -68 -197q-26 -124 -26 -227t26 -228q27 -122 68 -196h-113q-109 193 -109 424z" />
    <glyph glyph-name="parenright" unicode=")" horiz-adv-x="360" 
d="M170 276q0 106 -27 227q-25 121 -67 197h113q109 -193 109 -424t-109 -424h-113q42 76 67 196q27 123 27 228z" />
    <glyph glyph-name="asterisk" unicode="*" horiz-adv-x="438" 
d="M165 364l20 110l-85 -73l-54 94l106 37l-106 37l54 94l85 -73l-20 110h108l-20 -110l85 73l54 -94l-106 -37l106 -37l-54 -94l-85 73l20 -110h-108z" />
    <glyph glyph-name="plus" unicode="+" horiz-adv-x="564" 
d="M231 123v191h-191v102h191v191h102v-191h191v-102h-191v-191h-102z" />
    <glyph glyph-name="comma" unicode="," horiz-adv-x="214" 
d="M76 -151l-29 11l38 140h-45v134h134v-134z" />
    <glyph glyph-name="hyphen" unicode="-" horiz-adv-x="468" 
d="M40 260v102h388v-102h-388z" />
    <glyph glyph-name="period" unicode="." horiz-adv-x="214" 
d="M40 0v134h134v-134h-134z" />
    <glyph glyph-name="slash" unicode="/" horiz-adv-x="536" 
d="M4 -30l400 760h128l-400 -760h-128z" />
    <glyph glyph-name="zero" unicode="0" horiz-adv-x="722" 
d="M45 350q-2 161 88.5 263.5t227.5 100.5q137 2 227.5 -100.5t88.5 -263.5q2 -161 -88.5 -263.5t-227.5 -100.5q-137 -2 -227.5 100.5t-88.5 263.5zM545 350q0 112 -51 177t-133 65t-133 -65t-51 -177t51 -177t133 -65t133 65t51 177z" />
    <glyph glyph-name="one" unicode="1" horiz-adv-x="394" 
d="M193 0v537q-48 -47 -147 -47v122q58 0 94.5 21t60.5 67h124v-700h-132z" />
    <glyph glyph-name="two" unicode="2" horiz-adv-x="586" 
d="M47 0v94l266 261q46 45 64 76t18 67q0 45 -29 72.5t-78 27.5t-79 -27t-30 -72q0 -25 9 -48l-128 -24q-13 32 -13 79q0 86 67 147t174 61q111 0 173 -56t62 -145q0 -69 -27 -121q-25 -50 -95 -117l-157 -153h279v-122h-476z" />
    <glyph glyph-name="three" unicode="3" horiz-adv-x="602" 
d="M50 200q0 37 11 62l125 -30q-4 -11 -4 -29q0 -48 32.5 -76.5t86.5 -28.5q57 0 90 29t33 82q0 58 -47 87t-132 29v98q72 0 111 26.5t39 74.5q0 37 -26.5 59.5t-71.5 22.5t-73.5 -22.5t-28.5 -58.5q0 -21 6 -34l-122 -27q-10 29 -10 55q0 81 64 138t165 57
q108 0 166.5 -46.5t58.5 -125.5q0 -53 -28.5 -94.5t-74.5 -62.5q62 -21 99 -66t37 -110q0 -100 -71 -161.5t-184 -61.5q-116 0 -183.5 61.5t-67.5 152.5z" />
    <glyph glyph-name="four" unicode="4" horiz-adv-x="614" 
d="M382 0v116h-341v122l341 462h132v-462h71v-122h-71v-116h-132zM181 238h201v276z" />
    <glyph glyph-name="five" unicode="5" horiz-adv-x="610" 
d="M49 186q0 28 10 55l126 -30q-4 -12 -4 -26q0 -41 32 -64t86 -23q61 0 98 38t37 104q0 63 -37 99.5t-98 36.5q-88 0 -141 -85l-103 27l33 382h434v-122h-342l-17 -161q27 29 69.5 45t86.5 16q117 0 182 -64t65 -174q0 -109 -75 -181.5t-193 -72.5q-113 0 -181 58t-68 142z
" />
    <glyph glyph-name="six" unicode="6" horiz-adv-x="619" 
d="M45 309q0 128 41 230q36 84 99 129.5t147 45.5q99 0 158.5 -48.5t59.5 -125.5q0 -29 -11 -56l-122 26q7 17 7 33q0 33 -25 51t-67 18q-70 0 -112 -65q-43 -65 -50 -162q70 73 169 73q104 0 171.5 -66t67.5 -167t-75 -170t-185 -69q-126 0 -199.5 85.5t-73.5 237.5z
M450 222q0 58 -38 93t-96 35t-95.5 -35t-37.5 -93t37.5 -93t95.5 -35t96 35t38 93z" />
    <glyph glyph-name="seven" unicode="7" horiz-adv-x="545" 
d="M114 0l260 578h-338v122h472v-116l-262 -584h-132z" />
    <glyph glyph-name="eight" unicode="8" horiz-adv-x="594" 
d="M46 194q0 62 31.5 109.5t88.5 71.5q-99 49 -99 155q0 80 64.5 132t165.5 52t165.5 -52t64.5 -132q0 -106 -99 -155q57 -24 88.5 -71.5t31.5 -109.5q0 -94 -68.5 -151t-182.5 -57t-182.5 57t-68.5 151zM401 521q0 44 -30 69.5t-74 25.5t-74 -25.5t-30 -69.5t30 -70.5
t74 -26.5t74 26.5t30 70.5zM420 205q0 48 -35 79.5t-88 31.5t-88 -31.5t-35 -79.5t35 -79.5t88 -31.5t88 31.5t35 79.5z" />
    <glyph glyph-name="nine" unicode="9" horiz-adv-x="619" 
d="M67 163q0 27 9 53l124 -27q-7 -17 -7 -32q0 -32 27.5 -50.5t70.5 -18.5q66 0 108 60t50 167q-54 -73 -161 -73q-108 0 -177.5 66t-69.5 167q0 103 73.5 171t186.5 68q132 0 202.5 -84t70.5 -239q0 -129 -42 -235q-32 -82 -95.5 -126t-149.5 -44q-103 0 -161.5 49.5
t-58.5 127.5zM436 478q0 58 -38 93t-94 35q-54 0 -95 -35q-40 -34 -40 -93t40 -93q41 -35 95 -35q56 0 94 35t38 93z" />
    <glyph glyph-name="colon" unicode=":" horiz-adv-x="214" 
d="M40 350v134h134v-134h-134zM40 0v134h134v-134h-134z" />
    <glyph glyph-name="semicolon" unicode=";" horiz-adv-x="214" 
d="M40 350v134h134v-134h-134zM73 -162l-29 11l41 151h-45v134h134v-134z" />
    <glyph glyph-name="less" unicode="&#x3c;" horiz-adv-x="518" 
d="M478 46l-438 215v98l438 214v-124l-300 -139l300 -139v-125z" />
    <glyph glyph-name="equal" unicode="=" horiz-adv-x="564" 
d="M40 394v102h484v-102h-484zM40 194v102h484v-102h-484z" />
    <glyph glyph-name="greater" unicode="&#x3e;" horiz-adv-x="518" 
d="M40 46v125l300 139l-300 139v124l438 -214v-98z" />
    <glyph glyph-name="question" unicode="?" horiz-adv-x="549" 
d="M202 208v16q0 46 19 79.5t67 72.5q51 42 71.5 72t20.5 67q0 39 -29 62t-75 23q-49 0 -81 -27.5t-32 -71.5q0 -20 7 -37l-115 -24q-14 31 -14 72q0 80 66 141t166 61q107 0 169 -51.5t62 -138.5q0 -59 -27 -106q-26 -44 -102 -109q-27 -23 -37 -45.5t-10 -55.5h-126z
M199 0v138h132v-138h-132z" />
    <glyph glyph-name="at" unicode="@" horiz-adv-x="958" 
d="M45 269q-2 120 57.5 223t166 163.5t233.5 58.5q82 1 155 -23.5t129.5 -70t89.5 -118t32 -161.5q2 -132 -72 -224t-176 -90q-44 0 -71 21t-27 55l1 12q-24 -40 -64 -64t-89 -24q-83 0 -133 59q-49 58 -49 155q-2 86 37 157t96 107t115 35q91 0 126 -65l8 49h96l-56 -362
l-1 -16q0 -34 31 -34q46 0 84 63t38 165q0 128 -79 205t-228 77q-141 3 -243.5 -102.5t-100.5 -257.5q-1 -149 88.5 -236.5t222.5 -85.5q110 0 190 55l48 -81q-104 -66 -242 -66q-83 -1 -157.5 25.5t-132 77.5t-91 133.5t-32.5 184.5zM578 336q0 117 -89 117q-61 0 -108 -64
t-47 -154q0 -58 25 -90.5t66 -32.5q62 0 107.5 63.5t45.5 160.5z" />
    <glyph glyph-name="A" unicode="A" horiz-adv-x="702" 
d="M5 0l283 700h126l283 -700h-141l-70 183h-270l-70 -183h-141zM261 301h180l-64 168q-17 44 -26 76q-9 -32 -26 -76z" />
    <glyph glyph-name="B" unicode="B" horiz-adv-x="661" 
d="M74 0v700h288q107 0 165.5 -45t58.5 -126q0 -49 -26.5 -88t-70.5 -61q126 -50 126 -170q0 -94 -71.5 -152t-176.5 -58h-293zM206 428h146q106 0 106 78t-106 78h-146v-156zM206 118h153q124 0 124 97t-124 97h-153v-194z" />
    <glyph glyph-name="C" unicode="C" horiz-adv-x="768" 
d="M46 350q-3 158 103 262t260 102q107 0 189 -51q82 -49 118 -132l-107 -77q-65 138 -204 138q-96 0 -160.5 -67.5t-64.5 -174.5q0 -105 65 -173.5t160 -68.5q137 0 212 140l103 -74q-67 -102 -136.5 -145t-179.5 -43q-154 -2 -257 101.5t-101 262.5z" />
    <glyph glyph-name="D" unicode="D" horiz-adv-x="712" 
d="M74 0v700h211q173 0 277 -90.5t104 -259.5t-104 -259.5t-277 -90.5h-211zM206 122h88q112 0 175 59t63 169t-63 169t-175 59h-88v-456z" />
    <glyph glyph-name="E" unicode="E" horiz-adv-x="616" 
d="M74 0v700h483v-118h-351v-161h323v-118h-323v-185h354v-118h-486z" />
    <glyph glyph-name="F" unicode="F" horiz-adv-x="618" 
d="M74 0v700h494v-118h-362v-181h332v-118h-332v-283h-132z" />
    <glyph glyph-name="G" unicode="G" horiz-adv-x="780" 
d="M46 350q-2 101 47.5 186t134 132t181.5 46q102 0 184 -46t122 -125l-99 -72q-66 127 -209 127q-96 0 -161.5 -69t-65.5 -179q0 -106 61.5 -174t155.5 -68q82 0 131 43t61 115h-226v108h358v-374h-87l-28 96q-71 -110 -213 -110q-145 -3 -247 103t-100 261z" />
    <glyph glyph-name="H" unicode="H" horiz-adv-x="718" 
d="M74 0v700h132v-282h306v282h132v-700h-132v296h-306v-296h-132z" />
    <glyph glyph-name="I" unicode="I" horiz-adv-x="280" 
d="M74 0v700h132v-700h-132z" />
    <glyph glyph-name="J" unicode="J" horiz-adv-x="555" 
d="M42 224l132 -14q2 -102 97 -102q46 0 71.5 29t25.5 79v484h132v-486q0 -102 -61 -165t-168 -63q-108 0 -168.5 62.5t-60.5 175.5z" />
    <glyph glyph-name="K" unicode="K" horiz-adv-x="658" 
d="M74 0v700h132v-270l55 62l196 208h167l-248 -260l264 -440h-154l-205 342l-75 -79v-263h-132z" />
    <glyph glyph-name="L" unicode="L" horiz-adv-x="598" 
d="M74 0v700h132v-578h352v-122h-484z" />
    <glyph glyph-name="M" unicode="M" horiz-adv-x="872" 
d="M74 0v700h139l223 -556l223 556h139v-700h-128v428q-19 -73 -34 -107l-137 -321h-126l-137 321q-15 34 -34 107v-428h-128z" />
    <glyph glyph-name="N" unicode="N" horiz-adv-x="732" 
d="M74 0v700h134l292 -445q22 -38 30 -55v500h128v-700h-134l-292 448q-22 38 -30 55v-503h-128z" />
    <glyph glyph-name="O" unicode="O" horiz-adv-x="812" 
d="M46 350q-2 154 103 260t257 104q152 2 257 -104t103 -260q2 -154 -103 -260t-257 -104q-152 -2 -257 104t-103 260zM632 350q0 109 -64 175.5t-162 66.5t-162 -66.5t-64 -175.5t64 -175.5t162 -66.5t162 66.5t64 175.5z" />
    <glyph glyph-name="P" unicode="P" horiz-adv-x="695" 
d="M74 0v700h318q122 0 192 -60t70 -168t-70 -168t-192 -60h-186v-244h-132zM206 362h182q66 0 100 29t34 81t-34 81t-100 29h-182v-220z" />
    <glyph glyph-name="Q" unicode="Q" horiz-adv-x="812" 
d="M421 -14h-15q-152 -2 -257 104t-103 260q-2 154 103 260t257 104q152 2 257 -104t103 -260q0 -116 -60 -207q-58 -89 -158 -130q22 -37 86 -95l-95 -85q-72 72 -118 153zM632 350q0 109 -64 175.5t-162 66.5t-162 -66.5t-64 -175.5t64 -175.5t162 -66.5t162 66.5
t64 175.5z" />
    <glyph glyph-name="R" unicode="R" horiz-adv-x="662" 
d="M74 0v700h299q115 0 182 -53.5t67 -144.5q0 -149 -160 -206l169 -296h-151l-162 284h-112v-284h-132zM206 400h167q58 0 87.5 24t29.5 68t-29.5 68t-87.5 24h-167v-184z" />
    <glyph glyph-name="S" unicode="S" horiz-adv-x="652" 
d="M44 210l116 59q31 -167 177 -167q59 0 94.5 26t35.5 68q0 46 -40.5 72t-132.5 44q-104 21 -161.5 74t-57.5 136q0 85 68.5 138.5t177.5 53.5q200 0 266 -180l-104 -60q-42 124 -165 124q-52 0 -84.5 -19t-32.5 -54q0 -40 40 -65.5t129 -43.5q117 -24 173 -76t56 -139
q0 -90 -72.5 -152.5t-188.5 -62.5q-122 0 -197 59.5t-97 164.5z" />
    <glyph glyph-name="T" unicode="T" horiz-adv-x="592" 
d="M230 0v578h-214v122h560v-122h-214v-578h-132z" />
    <glyph glyph-name="U" unicode="U" horiz-adv-x="702" 
d="M64 265v435h132v-422q0 -81 41.5 -125.5t113.5 -44.5t113.5 44.5t41.5 125.5v422h132v-435q0 -129 -80 -204t-207 -75t-207 75t-80 204z" />
    <glyph glyph-name="V" unicode="V" horiz-adv-x="658" 
d="M262 0l-260 700h143l158 -447l26 -89l26 89l158 447h143l-260 -700h-134z" />
    <glyph glyph-name="W" unicode="W" horiz-adv-x="942" 
d="M198 0l-193 700h139l111 -442l17 -76l17 77l114 441h136l114 -441l17 -77l17 76l111 442h139l-193 -700h-142l-131 508l-131 -508h-142z" />
    <glyph glyph-name="X" unicode="X" horiz-adv-x="617" 
d="M3 0l234 376l-203 324h141l133 -222l140 222h134l-200 -319l231 -381h-141l-164 270l-163 -270h-142z" />
    <glyph glyph-name="Y" unicode="Y" horiz-adv-x="602" 
d="M235 0v274l-231 426h145l130 -249q10 -20 22 -51q12 31 22 51l130 249h145l-231 -426v-274h-132z" />
    <glyph glyph-name="Z" unicode="Z" horiz-adv-x="614" 
d="M35 0v120l368 458h-355v122h512v-122l-366 -456h383v-122h-542z" />
    <glyph glyph-name="bracketleft" unicode="[" horiz-adv-x="348" 
d="M74 -150v850h230v-118h-104v-614h104v-118h-230z" />
    <glyph glyph-name="backslash" unicode="\" horiz-adv-x="536" 
d="M404 -30l-400 760h128l400 -760h-128z" />
    <glyph glyph-name="bracketright" unicode="]" horiz-adv-x="348" 
d="M44 -150v118h104v614h-104v118h230v-850h-230z" />
    <glyph glyph-name="asciicircum" unicode="^" horiz-adv-x="498" 
d="M18 430l176 270h110l176 -270h-120l-111 172l-111 -172h-120z" />
    <glyph glyph-name="underscore" unicode="_" horiz-adv-x="512" 
d="M7 -109v102h498v-102h-498z" />
    <glyph glyph-name="grave" unicode="`" horiz-adv-x="325" 
d="M176 550l-124 158h153l68 -158h-97z" />
    <glyph glyph-name="a" unicode="a" horiz-adv-x="567" 
d="M43 141q0 69 47.5 110t129.5 54l149 23v19q0 75 -91 75q-41 0 -65 -15.5t-24 -40.5q0 -4 2 -12l-113 -38q-9 20 -9 42q0 61 58 106.5t151 45.5q217 0 217 -180v-207q0 -73 33 -123h-128q-24 30 -24 79q-53 -93 -166 -93q-74 0 -120.5 42.5t-46.5 112.5zM369 232v9
l-120 -20q-83 -14 -83 -73q0 -29 20 -44.5t54 -15.5q58 0 93.5 38t35.5 106z" />
    <glyph glyph-name="b" unicode="b" horiz-adv-x="624" 
d="M189 61v-61h-126v700h126v-265q59 75 163 75q103 0 170 -71.5t67 -190.5t-68.5 -190.5t-170.5 -71.5q-106 0 -161 75zM461 248q0 63 -39.5 103.5t-100.5 40.5t-100.5 -40.5t-39.5 -103.5t39.5 -103.5t100.5 -40.5t100.5 40.5t39.5 103.5z" />
    <glyph glyph-name="c" unicode="c" horiz-adv-x="553" 
d="M35 248q0 114 76 188t185 74q167 0 222 -124l-107 -65q-38 71 -116 71q-58 0 -95 -39.5t-37 -104.5t37 -104.5t95 -39.5q45 0 74 18t50 60l104 -63q-79 -133 -227 -133q-112 0 -186.5 73t-74.5 189z" />
    <glyph glyph-name="d" unicode="d" horiz-adv-x="624" 
d="M35 248q0 115 73 188.5t171 73.5q111 0 156 -75v265h126v-700h-126v70q-22 -38 -63 -61t-93 -23q-105 0 -174.5 71.5t-69.5 190.5zM443 248q0 63 -40 103.5t-100 40.5t-100 -40.5t-40 -103.5t40 -103.5t100 -40.5t100 40.5t40 103.5z" />
    <glyph glyph-name="e" unicode="e" horiz-adv-x="575" 
d="M35 248q0 114 75.5 188t185.5 74q106 0 174 -69.5t68 -178.5v-44h-382q6 -57 43 -90.5t93 -33.5q91 0 137 91l94 -54q-71 -145 -233 -145q-105 -2 -181 74t-74 188zM158 314h263q-9 47 -43 73.5t-86 26.5q-47 0 -83.5 -27.5t-50.5 -72.5z" />
    <glyph glyph-name="f" unicode="f" horiz-adv-x="342" 
d="M91 0v394h-72v102h72v70q0 88 48 136t128 48q33 0 63 -11l-22 -111q-18 6 -35 6q-56 0 -56 -65v-73h108v-102h-108v-394h-126z" />
    <glyph glyph-name="g" unicode="g" horiz-adv-x="597" 
d="M55 -48q0 31 14 57l120 -37q-6 -17 -6 -34q0 -25 29.5 -40.5t80.5 -15.5q122 0 122 136v64q-45 -74 -141 -74q-98 -2 -169.5 71t-69.5 180q-2 106 70.5 179.5t169.5 71.5q95 0 140 -68v54h126v-462q0 -121 -66 -186.5t-182 -65.5q-111 0 -174.5 45.5t-63.5 124.5z
M422 259q0 64 -38 102.5t-96 38.5q-56 0 -93.5 -38.5t-37.5 -102.5t37.5 -102.5t93.5 -38.5q58 0 96 38.5t38 102.5z" />
    <glyph glyph-name="h" unicode="h" horiz-adv-x="600" 
d="M63 0v700h126v-282q58 92 172 92q81 0 128.5 -47.5t47.5 -127.5v-335h-126v286q0 51 -26 78.5t-74 27.5q-53 0 -87.5 -39t-34.5 -101v-252h-126z" />
    <glyph glyph-name="i" unicode="i" horiz-adv-x="252" 
d="M63 0v496h126v-496h-126zM57 568v132h138v-132h-138z" />
    <glyph glyph-name="j" unicode="j" horiz-adv-x="252" 
d="M-48 -201l16 114q21 -8 39 -8q56 0 56 71v520h126v-534q0 -173 -162 -173q-41 0 -75 10zM57 568v132h138v-132h-138z" />
    <glyph glyph-name="k" unicode="k" horiz-adv-x="541" 
d="M63 0v700h126v-354l151 150h156l-181 -177l205 -319h-145l-148 232l-38 -37v-195h-126z" />
    <glyph glyph-name="l" unicode="l" horiz-adv-x="252" 
d="M63 0v700h126v-700h-126z" />
    <glyph glyph-name="m" unicode="m" horiz-adv-x="852" 
d="M63 0v496h126v-66q51 80 144 80q104 0 138 -85q53 85 158 85q75 0 117.5 -43.5t42.5 -119.5v-347h-126v307q0 93 -78 93q-44 0 -70 -32.5t-26 -91.5v-276h-126v305q0 95 -80 95q-40 0 -67 -33t-27 -89v-278h-126z" />
    <glyph glyph-name="n" unicode="n" horiz-adv-x="594" 
d="M63 0v496h126v-80q62 94 168 94q79 0 126.5 -47t47.5 -125v-338h-126v286q0 106 -101 106q-50 0 -82.5 -39t-32.5 -101v-252h-126z" />
    <glyph glyph-name="o" unicode="o" horiz-adv-x="612" 
d="M35 248q0 121 79.5 191.5t191.5 70.5t191.5 -70.5t79.5 -191.5t-79.5 -191.5t-191.5 -70.5t-191.5 70.5t-79.5 191.5zM449 248q0 64 -42 104t-101 40t-101 -40t-42 -104t42 -104t101 -40t101 40t42 104z" />
    <glyph glyph-name="p" unicode="p" horiz-adv-x="624" 
d="M63 -204v700h126v-71q27 39 73 62t99 23q97 0 162.5 -71.5t65.5 -190.5q0 -116 -69 -189t-170 -73q-102 0 -161 75v-265h-126zM461 248q0 62 -40 102q-40 42 -100 42q-59 0 -100 -42q-40 -40 -40 -102t40 -103q41 -41 100 -41t100 41q40 41 40 103z" />
    <glyph glyph-name="q" unicode="q" horiz-adv-x="624" 
d="M435 -204v270q-49 -80 -160 -80q-97 -2 -169.5 74t-70.5 188q0 115 72 188.5t168 73.5q56 0 98 -22.5t62 -62.5v71h126v-700h-126zM443 248q0 62 -40 102q-41 42 -100 42t-100 -42q-40 -40 -40 -102t40 -103q41 -41 100 -41t100 41q40 41 40 103z" />
    <glyph glyph-name="r" unicode="r" horiz-adv-x="384" 
d="M63 0v496h126v-79q46 93 138 93q23 0 43 -6l-20 -119q-18 7 -41 7q-54 0 -87 -41t-33 -106v-245h-126z" />
    <glyph glyph-name="s" unicode="s" horiz-adv-x="489" 
d="M40 135l101 64q38 -107 128 -107q32 0 55 15t23 40q0 24 -24.5 38.5t-81.5 25.5q-173 33 -173 155q0 66 53.5 105t131.5 39t126 -29.5t79 -95.5l-91 -54q-33 87 -112 87q-34 0 -54.5 -11.5t-20.5 -32.5q0 -46 117 -70q87 -18 126.5 -54.5t39.5 -98.5q0 -72 -53.5 -118.5
t-142.5 -46.5q-83 0 -140.5 40t-86.5 109z" />
    <glyph glyph-name="t" unicode="t" horiz-adv-x="368" 
d="M101 144v250h-77v102h77v134h126v-134h108v-102h-108v-226q0 -70 63 -70q22 0 42 6l12 -104q-39 -14 -84 -14q-159 0 -159 158z" />
    <glyph glyph-name="u" unicode="u" horiz-adv-x="594" 
d="M63 188v308h126v-279q0 -113 101 -113q52 0 83.5 38t31.5 98v256h126v-496h-126v78q-50 -92 -158 -92q-83 0 -133.5 54t-50.5 148z" />
    <glyph glyph-name="v" unicode="v" horiz-adv-x="534" 
d="M208 0l-201 496h134l126 -336l126 336h134l-201 -496h-118z" />
    <glyph glyph-name="w" unicode="w" horiz-adv-x="714" 
d="M144 0l-138 496h122l80 -332l89 332h120l89 -332l80 332h122l-138 -496h-122l-91 341l-91 -341h-122z" />
    <glyph glyph-name="x" unicode="x" horiz-adv-x="502" 
d="M2 0l182 262l-161 234h144l84 -133l84 133h146l-155 -231l174 -265h-147l-102 163l-104 -163h-145z" />
    <glyph glyph-name="y" unicode="y" horiz-adv-x="546" 
d="M72 -200l20 117q22 -12 45 -12q39 0 56 47l16 44l-204 500h143l128 -322l122 322h143l-236 -586q-26 -64 -65.5 -92.5t-98.5 -28.5q-39 0 -69 11z" />
    <glyph glyph-name="z" unicode="z" horiz-adv-x="496" 
d="M36 0v102l261 292h-250v102h396v-102l-262 -292h279v-102h-424z" />
    <glyph glyph-name="braceleft" unicode="{" horiz-adv-x="395" 
d="M123 37v108q0 44 -18 61.5t-57 17.5v102q39 0 57 17.5t18 61.5v108q0 98 44 142.5t135 44.5h48v-118h-25q-76 0 -76 -87v-107q0 -47 -16.5 -72.5t-52.5 -40.5q36 -15 52.5 -40.5t16.5 -72.5v-107q0 -87 76 -87h25v-118h-48q-91 0 -135 44.5t-44 142.5z" />
    <glyph glyph-name="bar" unicode="|" horiz-adv-x="268" 
d="M73 -110v850h122v-850h-122z" />
    <glyph glyph-name="braceright" unicode="}" horiz-adv-x="395" 
d="M45 -150v118h25q76 0 76 87v107q0 47 16.5 72.5t52.5 40.5q-36 15 -52.5 40.5t-16.5 72.5v107q0 87 -76 87h-25v118h48q91 0 135 -44.5t44 -142.5v-108q0 -44 18 -61.5t57 -17.5v-102q-39 0 -57 -17.5t-18 -61.5v-108q0 -98 -44 -142.5t-135 -44.5h-48z" />
    <glyph glyph-name="asciitilde" unicode="~" horiz-adv-x="462" 
d="M40 306q0 47 29.5 75.5t76.5 28.5q35 0 58 -9.5t52 -31.5q27 -22 43 -22q27 0 27 25q0 12 -7 23l88 16q15 -23 15 -55q0 -46 -29.5 -74t-76.5 -28q-35 0 -58 9.5t-52 31.5q-28 22 -43 22q-27 0 -27 -25q0 -12 7 -23l-88 -16q-15 23 -15 53z" />
    <glyph glyph-name="uni00A0" unicode="&#xa0;" horiz-adv-x="276" 
 />
    <glyph glyph-name="exclamdown" unicode="&#xa1;" horiz-adv-x="278" 
d="M73 358v138h132v-138h-132zM73 -204v243l16 249h100l16 -249v-243h-132z" />
    <glyph glyph-name="cent" unicode="&#xa2;" horiz-adv-x="553" 
d="M343 -11v-99h-100v101q-92 16 -151 86q-57 69 -57 171q0 100 58 169.5t150 87.5v115h100v-113q128 -17 175 -121l-107 -65q-25 47 -68 64v-274q47 14 76 71l104 -63q-64 -112 -180 -130zM243 114v268q-37 -15 -58.5 -51t-21.5 -83q0 -48 21.5 -83.5t58.5 -50.5z" />
    <glyph glyph-name="sterling" unicode="&#xa3;" horiz-adv-x="575" 
d="M60 0v94q34 36 47.5 68.5t13.5 80.5q0 27 -6 56h-87v98h63q-15 64 -15 104q0 97 67 155t171 58q105 0 164 -52t59 -131q0 -37 -15 -71l-116 20q9 24 9 48q0 36 -28 58t-76 22q-50 0 -79.5 -28.5t-29.5 -80.5q0 -42 15 -102h189v-98h-169q3 -24 3 -51q0 -77 -40 -138h330
v-110h-470z" />
    <glyph glyph-name="currency" unicode="&#xa4;" horiz-adv-x="652" 
d="M130 82l-72 72l78 77q-32 53 -32 119t32 119l-78 77l72 72l78 -78q54 33 118 33t118 -33l78 78l72 -72l-78 -77q32 -53 32 -119t-32 -119l78 -77l-72 -72l-78 78q-54 -33 -118 -33t-118 33zM446 350q0 56 -33.5 91t-86.5 35t-86.5 -35t-33.5 -91t33.5 -91t86.5 -35
t86.5 35t33.5 91z" />
    <glyph glyph-name="yen" unicode="&#xa5;" horiz-adv-x="606" 
d="M237 0v112h-146v102h146v60h-146v102h93l-170 324h142l123 -249q15 -31 24 -54q9 23 24 54l123 249h142l-170 -324h93v-102h-146v-60h146v-102h-146v-112h-132z" />
    <glyph glyph-name="brokenbar" unicode="&#xa6;" horiz-adv-x="268" 
d="M73 386v354h122v-354h-122zM73 -110v354h122v-354h-122z" />
    <glyph glyph-name="section" unicode="&#xa7;" horiz-adv-x="528" 
d="M48 46l85 62q43 -105 137 -105q40 0 65.5 19t25.5 52q0 70 -136 98q-79 16 -123 58t-44 105q0 58 46 98q-42 42 -42 110q0 77 56.5 124t141.5 47q76 0 132.5 -37t87.5 -102l-85 -62q-43 105 -136 105q-40 0 -65.5 -19t-25.5 -52q0 -69 136 -98q88 -19 127.5 -55t39.5 -99
t-45 -105q41 -43 41 -112q0 -77 -56.5 -124t-141.5 -47q-157 0 -221 139zM371 277q0 30 -29.5 50.5t-97.5 37.5q-36 9 -66 21q-20 -18 -20 -42q0 -30 29.5 -50.5t97.5 -37.5q37 -9 66 -21q20 18 20 42z" />
    <glyph glyph-name="dieresis" unicode="&#xa8;" horiz-adv-x="414" 
d="M58 576v124h118v-124h-118zM238 576v124h118v-124h-118z" />
    <glyph glyph-name="copyright" unicode="&#xa9;" horiz-adv-x="828" 
d="M50 350q-3 147 107 257t257 107q147 3 257 -107t107 -257q3 -147 -107 -257t-257 -107q-147 -3 -257 107t-107 257zM690 350q0 114 -81 196t-195 82q-113 2 -195.5 -81.5t-80.5 -196.5q-2 -113 80.5 -196.5t195.5 -81.5q114 0 195 82t81 196zM212 350q0 89 59.5 146.5
t144.5 57.5q64 0 110 -27.5t66 -77.5l-80 -53q-30 66 -97 66q-45 0 -74 -31t-29 -81q0 -51 29 -81.5t74 -30.5q68 0 102 71l79 -52q-55 -111 -180 -111q-87 0 -145.5 57t-58.5 147z" />
    <glyph glyph-name="ordfeminine" unicode="&#xaa;" horiz-adv-x="396" 
d="M41 401q0 48 37 78t99 39l92 15v9q0 52 -64 52q-29 0 -47 -10.5t-18 -26.5q0 -6 1 -9l-80 -29q-6 13 -6 29q0 44 41 76.5t109 32.5q151 0 151 -125v-144q0 -57 22 -88h-90q-15 17 -15 55q-39 -62 -115 -62q-51 0 -84 30t-33 78zM269 461v9l-84 -13q-58 -8 -58 -49
q0 -20 14.5 -31.5t38.5 -11.5q40 0 64.5 26t24.5 70z" />
    <glyph glyph-name="guillemotleft" unicode="&#xab;" horiz-adv-x="594" 
d="M207 62l-167 213l167 213h141l-166 -213l166 -213h-141zM423 62l-167 213l167 213h141l-166 -213l166 -213h-141z" />
    <glyph glyph-name="logicalnot" unicode="&#xac;" horiz-adv-x="548" 
d="M368 174v140h-328v102h446v-242h-118z" />
    <glyph glyph-name="uni00AD" unicode="&#xad;" horiz-adv-x="468" 
d="M40 260v102h388v-102h-388z" />
    <glyph glyph-name="registered" unicode="&#xae;" horiz-adv-x="828" 
d="M50 350q-3 147 107 257t257 107q147 3 257 -107t107 -257q3 -147 -107 -257t-257 -107q-147 -3 -257 107t-107 257zM690 350q0 114 -81 196t-195 82q-113 2 -195.5 -81.5t-80.5 -196.5q-2 -113 80.5 -196.5t195.5 -81.5q114 0 195 82t81 196zM267 151v398h163
q70 0 107 -33t37 -90q0 -44 -27 -76t-72 -43l95 -156h-97l-91 153h-27v-153h-88zM355 376h72q62 0 62 50q0 49 -62 49h-72v-99z" />
    <glyph glyph-name="overscore" unicode="&#xaf;" horiz-adv-x="328" 
d="M40 588v94h248v-94h-248z" />
    <glyph glyph-name="degree" unicode="&#xb0;" horiz-adv-x="354" 
d="M37 575q0 58 41 98.5t99 40.5t99 -40.5t41 -98.5t-41 -98.5t-99 -40.5t-99 40.5t-41 98.5zM237 575q0 27 -16.5 44t-43.5 17t-43.5 -17t-16.5 -44t16.5 -44t43.5 -17t43.5 17t16.5 44z" />
    <glyph glyph-name="plusminus" unicode="&#xb1;" horiz-adv-x="564" 
d="M231 183v191h-191v102h191v191h102v-191h191v-102h-191v-191h-102zM40 0v102h484v-102h-484z" />
    <glyph glyph-name="uni00B2" unicode="&#xb2;" horiz-adv-x="339" 
d="M45 430v53l132 127q35 35 35 65q0 41 -43 41q-21 0 -34 -11t-13 -31q0 -12 4 -24l-76 -11q-7 15 -7 40q0 42 36 75t90 33q58 0 91.5 -27.5t33.5 -75.5q0 -36 -13.5 -63t-47.5 -59l-65 -63h129v-69h-252z" />
    <glyph glyph-name="uni00B3" unicode="&#xb3;" horiz-adv-x="348" 
d="M43 528q0 23 7 36l79 -17q-2 -8 -2 -15q0 -19 13.5 -29.5t34.5 -10.5q23 0 37.5 12t14.5 32q0 49 -83 49v60q32 0 51 11t19 30q0 35 -42 35q-19 0 -31.5 -9t-12.5 -24q0 -11 3 -17l-73 -10q-5 13 -5 27q0 41 33 70t86 29q58 0 89.5 -23.5t31.5 -63.5q0 -45 -45 -75
q63 -26 63 -91q0 -51 -37.5 -81t-100.5 -30q-59 0 -94.5 29.5t-35.5 75.5z" />
    <glyph glyph-name="acute" unicode="&#xb4;" horiz-adv-x="325" 
d="M52 550l68 158h153l-124 -158h-97z" />
    <glyph glyph-name="uni00B5" unicode="&#xb5;" horiz-adv-x="594" 
d="M63 -204v700h126v-279q0 -113 101 -113q52 0 83.5 38t31.5 98v256h126v-496h-126v78q-50 -92 -158 -92q-33 0 -61 9q3 -57 3 -68v-131h-126z" />
    <glyph glyph-name="paragraph" unicode="&#xb6;" horiz-adv-x="655" 
d="M263 -120v432h-9q-94 0 -155.5 53.5t-61.5 140.5t61.5 140.5t155.5 53.5h370v-102h-65v-718h-112v718h-72v-718h-112z" />
    <glyph glyph-name="middot" unicode="&#xb7;" horiz-adv-x="214" 
d="M40 290v134h134v-134h-134z" />
    <glyph glyph-name="cedilla" unicode="&#xb8;" horiz-adv-x="295" 
d="M53 -143l66 17q4 -22 28 -22q25 0 25 25q0 29 -28 29q-22 0 -45 -18l-37 33l33 95h70l-41 -69q16 9 40 9q35 0 56.5 -22t21.5 -56q0 -37 -27 -59.5t-68 -22.5q-80 0 -94 61z" />
    <glyph glyph-name="uni00B9" unicode="&#xb9;" horiz-adv-x="254" 
d="M112 430v254q-20 -24 -74 -24v77q56 0 78 43h80v-350h-84z" />
    <glyph glyph-name="ordmasculine" unicode="&#xba;" horiz-adv-x="458" 
d="M41 475q0 84 55 133t133 49t133 -49t55 -133t-55 -133t-133 -49t-133 49t-55 133zM322 475q0 43 -26 69t-67 26t-67.5 -26t-26.5 -69t26.5 -69t67.5 -26q40 0 66.5 26.5t26.5 68.5z" />
    <glyph glyph-name="guillemotright" unicode="&#xbb;" horiz-adv-x="594" 
d="M30 62l166 213l-166 213h141l167 -213l-167 -213h-141zM246 62l166 213l-166 213h141l167 -213l-167 -213h-141z" />
    <glyph glyph-name="onequarter" unicode="&#xbc;" horiz-adv-x="746" 
d="M112 350v254q-20 -24 -74 -24v77q56 0 78 43h80v-350h-84zM176 -7l-72 49l436 665l72 -49zM581 0v58h-162v66l162 226h84v-226h36v-66h-36v-58h-84zM498 124h83v116z" />
    <glyph glyph-name="onehalf" unicode="&#xbd;" horiz-adv-x="801" 
d="M112 350v254q-20 -24 -74 -24v77q56 0 78 43h80v-350h-84zM176 -7l-72 49l436 665l72 -49zM507 0v53l132 127q35 35 35 65q0 41 -43 41q-21 0 -34 -11t-13 -31q0 -12 4 -24l-76 -11q-7 15 -7 40q0 42 36 75t90 33q58 0 91.5 -27.5t33.5 -75.5q0 -36 -13.5 -63t-47.5 -59
l-65 -63h129v-69h-252z" />
    <glyph glyph-name="threequarters" unicode="&#xbe;" horiz-adv-x="810" 
d="M43 448q0 23 7 36l79 -17q-2 -8 -2 -15q0 -19 13.5 -29.5t34.5 -10.5q23 0 37.5 12t14.5 32q0 49 -83 49v60q32 0 51 11t19 30q0 35 -42 35q-19 0 -31.5 -9t-12.5 -24q0 -11 3 -17l-73 -10q-5 13 -5 27q0 41 33 70t86 29q58 0 89.5 -23.5t31.5 -63.5q0 -45 -45 -75
q63 -26 63 -91q0 -51 -37.5 -81t-100.5 -30q-59 0 -94.5 29.5t-35.5 75.5zM240 -7l-72 49l436 665l72 -49zM645 0v58h-162v66l162 226h84v-226h36v-66h-36v-58h-84zM562 124h83v116z" />
    <glyph glyph-name="questiondown" unicode="&#xbf;" horiz-adv-x="549" 
d="M350 496v-138h-132v138h132zM347 288v-16q0 -46 -19 -79.5t-67 -72.5q-51 -42 -71.5 -72.5t-20.5 -66.5q0 -39 29 -62t75 -23q49 0 81 27.5t32 71.5q0 22 -7 37l115 24q14 -31 14 -72q0 -80 -66 -141t-166 -61q-107 0 -169 51.5t-62 138.5q0 60 27 105q26 45 102 110
q27 23 37 45.5t10 55.5h126z" />
    <glyph glyph-name="Agrave" unicode="&#xc0;" horiz-adv-x="702" 
d="M5 0l283 700h126l283 -700h-141l-70 183h-270l-70 -183h-141zM261 301h180l-64 168q-17 44 -26 76q-9 -32 -26 -76zM314 754l-124 158h153l68 -158h-97z" />
    <glyph glyph-name="Aacute" unicode="&#xc1;" horiz-adv-x="702" 
d="M5 0l283 700h126l283 -700h-141l-70 183h-270l-70 -183h-141zM261 301h180l-64 168q-17 44 -26 76q-9 -32 -26 -76zM291 754l68 158h153l-124 -158h-97z" />
    <glyph glyph-name="Acircumflex" unicode="&#xc2;" horiz-adv-x="702" 
d="M5 0l283 700h126l283 -700h-141l-70 183h-270l-70 -183h-141zM261 301h180l-64 168q-17 44 -26 76q-9 -32 -26 -76zM193 754l113 157h90l113 -157h-99l-59 60l-59 -60h-99z" />
    <glyph glyph-name="Atilde" unicode="&#xc3;" horiz-adv-x="702" 
d="M5 0l283 700h126l283 -700h-141l-70 183h-270l-70 -183h-141zM261 301h180l-64 168q-17 44 -26 76q-9 -32 -26 -76zM325 796q-28 24 -47 24q-10 0 -16.5 -6t-6.5 -16q0 -13 7 -26l-74 -15q-14 21 -14 53q0 41 29 66t69 25q34 0 55.5 -9.5t49.5 -32.5q28 -24 47 -24
q10 0 16.5 6t6.5 16q0 13 -7 26l74 15q14 -21 14 -53q0 -41 -29 -66t-69 -25q-34 0 -55.5 9.5t-49.5 32.5z" />
    <glyph glyph-name="Adieresis" unicode="&#xc4;" horiz-adv-x="702" 
d="M5 0l283 700h126l283 -700h-141l-70 183h-270l-70 -183h-141zM261 301h180l-64 168q-17 44 -26 76q-9 -32 -26 -76zM202 780v124h118v-124h-118zM382 780v124h118v-124h-118z" />
    <glyph glyph-name="Aring" unicode="&#xc5;" horiz-adv-x="702" 
d="M5 0l283 700h126l283 -700h-141l-70 183h-270l-70 -183h-141zM261 301h180l-64 168q-17 44 -26 76q-9 -32 -26 -76zM256 839q0 40 28 67.5t68 27.5t68 -27.5t28 -67.5t-28 -67.5t-68 -27.5t-68 27.5t-28 67.5zM385 839q0 16 -9 25t-24 9t-24 -9t-9 -25t9 -25t24 -9t24 9
t9 25z" />
    <glyph glyph-name="AE" unicode="&#xc6;" horiz-adv-x="986" 
d="M5 0l320 700h602v-118h-351v-161h323v-118h-323v-185h354v-118h-486v183h-220l-81 -183h-138zM276 301h168v281h-43z" />
    <glyph glyph-name="Ccedilla" unicode="&#xc7;" horiz-adv-x="768" 
d="M404 -14h-1l-23 -39q16 9 40 9q35 0 56.5 -22t21.5 -56q0 -37 -27 -59.5t-68 -22.5q-80 0 -94 61l66 17q4 -22 28 -22q25 0 25 25q0 29 -28 29q-22 0 -45 -18l-37 33l24 70q-132 20 -214 117.5t-82 241.5q-3 158 103 262t260 102q107 0 189 -51q82 -49 118 -132l-107 -77
q-65 138 -204 138q-96 0 -160.5 -67.5t-64.5 -174.5q0 -105 65 -173.5t160 -68.5q137 0 212 140l103 -74q-67 -102 -136.5 -145t-179.5 -43z" />
    <glyph glyph-name="Egrave" unicode="&#xc8;" horiz-adv-x="616" 
d="M74 0v700h483v-118h-351v-161h323v-118h-323v-185h354v-118h-486zM287 754l-124 158h153l68 -158h-97z" />
    <glyph glyph-name="Eacute" unicode="&#xc9;" horiz-adv-x="616" 
d="M74 0v700h483v-118h-351v-161h323v-118h-323v-185h354v-118h-486zM264 754l68 158h153l-124 -158h-97z" />
    <glyph glyph-name="Ecircumflex" unicode="&#xca;" horiz-adv-x="616" 
d="M74 0v700h483v-118h-351v-161h323v-118h-323v-185h354v-118h-486zM166 754l113 157h90l113 -157h-99l-59 60l-59 -60h-99z" />
    <glyph glyph-name="Edieresis" unicode="&#xcb;" horiz-adv-x="616" 
d="M74 0v700h483v-118h-351v-161h323v-118h-323v-185h354v-118h-486zM175 780v124h118v-124h-118zM355 780v124h118v-124h-118z" />
    <glyph glyph-name="Igrave" unicode="&#xcc;" horiz-adv-x="280" 
d="M74 0v700h132v-700h-132zM103 754l-124 158h153l68 -158h-97z" />
    <glyph glyph-name="Iacute" unicode="&#xcd;" horiz-adv-x="280" 
d="M74 0v700h132v-700h-132zM80 754l68 158h153l-124 -158h-97z" />
    <glyph glyph-name="Icircumflex" unicode="&#xce;" horiz-adv-x="280" 
d="M74 0v700h132v-700h-132zM-18 754l113 157h90l113 -157h-99l-59 60l-59 -60h-99z" />
    <glyph glyph-name="Idieresis" unicode="&#xcf;" horiz-adv-x="280" 
d="M74 0v700h132v-700h-132zM-9 780v124h118v-124h-118zM171 780v124h118v-124h-118z" />
    <glyph glyph-name="Eth" unicode="&#xd0;" horiz-adv-x="749" 
d="M111 0v295h-78v110h78v295h211q173 0 277 -90.5t104 -259.5t-104 -259.5t-277 -90.5h-211zM243 122h88q112 0 175 59t63 169t-63 169t-175 59h-88v-173h155v-110h-155v-173z" />
    <glyph glyph-name="Ntilde" unicode="&#xd1;" horiz-adv-x="732" 
d="M74 0v700h134l292 -445q22 -38 30 -55v500h128v-700h-134l-292 448q-22 38 -30 55v-503h-128zM340 796q-29 24 -47 24q-10 0 -16.5 -6t-6.5 -16q0 -13 7 -26l-74 -15q-14 21 -14 53q0 41 29 66t69 25q34 0 55.5 -9.5t49.5 -32.5q29 -24 47 -24q10 0 16.5 6t6.5 16
q0 13 -7 26l74 15q14 -21 14 -53q0 -41 -29 -66t-69 -25q-34 0 -55.5 9.5t-49.5 32.5z" />
    <glyph glyph-name="Ograve" unicode="&#xd2;" horiz-adv-x="812" 
d="M46 350q-2 154 103 260t257 104q152 2 257 -104t103 -260q2 -154 -103 -260t-257 -104q-152 -2 -257 104t-103 260zM632 350q0 109 -64 175.5t-162 66.5t-162 -66.5t-64 -175.5t64 -175.5t162 -66.5t162 66.5t64 175.5zM369 754l-124 158h153l68 -158h-97z" />
    <glyph glyph-name="Oacute" unicode="&#xd3;" horiz-adv-x="812" 
d="M46 350q-2 154 103 260t257 104q152 2 257 -104t103 -260q2 -154 -103 -260t-257 -104q-152 -2 -257 104t-103 260zM632 350q0 109 -64 175.5t-162 66.5t-162 -66.5t-64 -175.5t64 -175.5t162 -66.5t162 66.5t64 175.5zM346 754l68 158h153l-124 -158h-97z" />
    <glyph glyph-name="Ocircumflex" unicode="&#xd4;" horiz-adv-x="812" 
d="M46 350q-2 154 103 260t257 104q152 2 257 -104t103 -260q2 -154 -103 -260t-257 -104q-152 -2 -257 104t-103 260zM632 350q0 109 -64 175.5t-162 66.5t-162 -66.5t-64 -175.5t64 -175.5t162 -66.5t162 66.5t64 175.5zM248 754l113 157h90l113 -157h-99l-59 60l-59 -60
h-99z" />
    <glyph glyph-name="Otilde" unicode="&#xd5;" horiz-adv-x="812" 
d="M46 350q-2 154 103 260t257 104q152 2 257 -104t103 -260q2 -154 -103 -260t-257 -104q-152 -2 -257 104t-103 260zM632 350q0 109 -64 175.5t-162 66.5t-162 -66.5t-64 -175.5t64 -175.5t162 -66.5t162 66.5t64 175.5zM380 796q-28 24 -47 24q-10 0 -16.5 -6t-6.5 -16
q0 -13 7 -26l-74 -15q-14 21 -14 53q0 41 29 66t69 25q34 0 55.5 -9.5t49.5 -32.5q28 -24 47 -24q10 0 16.5 6t6.5 16q0 13 -7 26l74 15q14 -21 14 -53q0 -41 -29 -66t-69 -25q-34 0 -55.5 9.5t-49.5 32.5z" />
    <glyph glyph-name="Odieresis" unicode="&#xd6;" horiz-adv-x="812" 
d="M46 350q-2 154 103 260t257 104q152 2 257 -104t103 -260q2 -154 -103 -260t-257 -104q-152 -2 -257 104t-103 260zM632 350q0 109 -64 175.5t-162 66.5t-162 -66.5t-64 -175.5t64 -175.5t162 -66.5t162 66.5t64 175.5zM257 780v124h118v-124h-118zM437 780v124h118v-124
h-118z" />
    <glyph glyph-name="multiply" unicode="&#xd7;" horiz-adv-x="556" 
d="M143 158l-72 72l135 135l-135 135l72 72l135 -135l135 135l72 -72l-135 -135l135 -135l-72 -72l-135 135z" />
    <glyph glyph-name="Oslash" unicode="&#xd8;" horiz-adv-x="812" 
d="M766 350q2 -154 -103 -260t-257 -104q-62 0 -118 18l-35 -66l-98 56l33 62q-67 49 -104.5 125.5t-37.5 168.5q-2 154 103 260t257 104q63 0 118 -18l35 66l98 -56l-33 -62q67 -49 104.5 -125.5t37.5 -168.5zM248 170l218 415q-25 7 -60 7q-98 0 -162 -66.5t-64 -175.5
q0 -112 68 -180zM632 350q0 112 -68 180l-218 -415q25 -7 60 -7q98 0 162 66.5t64 175.5z" />
    <glyph glyph-name="Ugrave" unicode="&#xd9;" horiz-adv-x="702" 
d="M64 265v435h132v-422q0 -81 41.5 -125.5t113.5 -44.5t113.5 44.5t41.5 125.5v422h132v-435q0 -129 -80 -204t-207 -75t-207 75t-80 204zM314 754l-124 158h153l68 -158h-97z" />
    <glyph glyph-name="Uacute" unicode="&#xda;" horiz-adv-x="702" 
d="M64 265v435h132v-422q0 -81 41.5 -125.5t113.5 -44.5t113.5 44.5t41.5 125.5v422h132v-435q0 -129 -80 -204t-207 -75t-207 75t-80 204zM291 754l68 158h153l-124 -158h-97z" />
    <glyph glyph-name="Ucircumflex" unicode="&#xdb;" horiz-adv-x="702" 
d="M64 265v435h132v-422q0 -81 41.5 -125.5t113.5 -44.5t113.5 44.5t41.5 125.5v422h132v-435q0 -129 -80 -204t-207 -75t-207 75t-80 204zM193 754l113 157h90l113 -157h-99l-59 60l-59 -60h-99z" />
    <glyph glyph-name="Udieresis" unicode="&#xdc;" horiz-adv-x="702" 
d="M64 265v435h132v-422q0 -81 41.5 -125.5t113.5 -44.5t113.5 44.5t41.5 125.5v422h132v-435q0 -129 -80 -204t-207 -75t-207 75t-80 204zM202 780v124h118v-124h-118zM382 780v124h118v-124h-118z" />
    <glyph glyph-name="Yacute" unicode="&#xdd;" horiz-adv-x="602" 
d="M235 0v274l-231 426h145l130 -249q10 -20 22 -51q12 31 22 51l130 249h145l-231 -426v-274h-132zM241 754l68 158h153l-124 -158h-97z" />
    <glyph glyph-name="Thorn" unicode="&#xde;" horiz-adv-x="695" 
d="M74 0v700h132v-122h186q122 0 192 -60t70 -168t-70 -168t-192 -60h-186v-122h-132zM206 240h182q66 0 100 29t34 81t-34 81t-100 29h-182v-220z" />
    <glyph glyph-name="germandbls" unicode="&#xdf;" horiz-adv-x="602" 
d="M221 31l55 98q33 -33 77 -33q35 0 58.5 25t23.5 69q0 62 -46 99q-44 37 -112 37h-31v110h35q48 0 76.5 25t28.5 67q0 35 -23.5 55.5t-64.5 20.5t-68 -28.5t-27 -78.5v-497h-126v394h-56v102h56v7q0 99 64.5 155t159.5 56t151.5 -46t56.5 -120q0 -107 -101 -156
q153 -57 153 -209q0 -88 -54.5 -142.5t-140.5 -54.5q-88 0 -145 45z" />
    <glyph glyph-name="agrave" unicode="&#xe0;" horiz-adv-x="567" 
d="M43 141q0 69 47.5 110t129.5 54l149 23v19q0 75 -91 75q-41 0 -65 -15.5t-24 -40.5q0 -4 2 -12l-113 -38q-9 20 -9 42q0 61 58 106.5t151 45.5q217 0 217 -180v-207q0 -73 33 -123h-128q-24 30 -24 79q-53 -93 -166 -93q-74 0 -120.5 42.5t-46.5 112.5zM369 232v9
l-120 -20q-83 -14 -83 -73q0 -29 20 -44.5t54 -15.5q58 0 93.5 38t35.5 106zM248 550l-124 158h153l68 -158h-97z" />
    <glyph glyph-name="aacute" unicode="&#xe1;" horiz-adv-x="567" 
d="M43 141q0 69 47.5 110t129.5 54l149 23v19q0 75 -91 75q-41 0 -65 -15.5t-24 -40.5q0 -4 2 -12l-113 -38q-9 20 -9 42q0 61 58 106.5t151 45.5q217 0 217 -180v-207q0 -73 33 -123h-128q-24 30 -24 79q-53 -93 -166 -93q-74 0 -120.5 42.5t-46.5 112.5zM369 232v9
l-120 -20q-83 -14 -83 -73q0 -29 20 -44.5t54 -15.5q58 0 93.5 38t35.5 106zM217 550l69 158h153l-125 -158h-97z" />
    <glyph glyph-name="acircumflex" unicode="&#xe2;" horiz-adv-x="567" 
d="M43 141q0 69 47.5 110t129.5 54l149 23v19q0 75 -91 75q-41 0 -65 -15.5t-24 -40.5q0 -4 2 -12l-113 -38q-9 20 -9 42q0 61 58 106.5t151 45.5q217 0 217 -180v-207q0 -73 33 -123h-128q-24 30 -24 79q-53 -93 -166 -93q-74 0 -120.5 42.5t-46.5 112.5zM369 232v9
l-120 -20q-83 -14 -83 -73q0 -29 20 -44.5t54 -15.5q58 0 93.5 38t35.5 106zM120 550l113 157h90l113 -157h-99l-59 60l-59 -60h-99z" />
    <glyph glyph-name="atilde" unicode="&#xe3;" horiz-adv-x="567" 
d="M43 141q0 69 47.5 110t129.5 54l149 23v19q0 75 -91 75q-41 0 -65 -15.5t-24 -40.5q0 -4 2 -12l-113 -38q-9 20 -9 42q0 61 58 106.5t151 45.5q217 0 217 -180v-207q0 -73 33 -123h-128q-24 30 -24 79q-53 -93 -166 -93q-74 0 -120.5 42.5t-46.5 112.5zM369 232v9
l-120 -20q-83 -14 -83 -73q0 -29 20 -44.5t54 -15.5q58 0 93.5 38t35.5 106zM252 592q-28 24 -47 24q-10 0 -16.5 -6t-6.5 -16q0 -13 7 -26l-74 -15q-14 21 -14 53q0 41 29 66t69 25q34 0 55.5 -9.5t49.5 -32.5q28 -24 47 -24q10 0 16.5 6t6.5 16q0 13 -7 26l74 15
q14 -21 14 -53q0 -41 -29 -66t-69 -25q-34 0 -55.5 9.5t-49.5 32.5z" />
    <glyph glyph-name="adieresis" unicode="&#xe4;" horiz-adv-x="567" 
d="M43 141q0 69 47.5 110t129.5 54l149 23v19q0 75 -91 75q-41 0 -65 -15.5t-24 -40.5q0 -4 2 -12l-113 -38q-9 20 -9 42q0 61 58 106.5t151 45.5q217 0 217 -180v-207q0 -73 33 -123h-128q-24 30 -24 79q-53 -93 -166 -93q-74 0 -120.5 42.5t-46.5 112.5zM369 232v9
l-120 -20q-83 -14 -83 -73q0 -29 20 -44.5t54 -15.5q58 0 93.5 38t35.5 106zM129 576v124h118v-124h-118zM309 576v124h118v-124h-118z" />
    <glyph glyph-name="aring" unicode="&#xe5;" horiz-adv-x="567" 
d="M43 141q0 69 47.5 110t129.5 54l149 23v19q0 75 -91 75q-41 0 -65 -15.5t-24 -40.5q0 -4 2 -12l-113 -38q-9 20 -9 42q0 61 58 106.5t151 45.5q217 0 217 -180v-207q0 -73 33 -123h-128q-24 30 -24 79q-53 -93 -166 -93q-74 0 -120.5 42.5t-46.5 112.5zM369 232v9
l-120 -20q-83 -14 -83 -73q0 -29 20 -44.5t54 -15.5q58 0 93.5 38t35.5 106zM183 635q0 40 28 67.5t68 27.5t68 -27.5t28 -67.5t-28 -67.5t-68 -27.5t-68 27.5t-28 67.5zM312 635q0 16 -9 25t-24 9t-24 -9t-9 -25t9 -25t24 -9t24 9t9 25z" />
    <glyph glyph-name="ae" unicode="&#xe6;" horiz-adv-x="915" 
d="M43 141q0 78 61.5 123.5t168.5 45.5h97v13q0 53 -19.5 76t-71.5 23q-42 0 -65.5 -15.5t-23.5 -40.5q0 -4 2 -12l-113 -38q-9 20 -9 42q0 61 55.5 106.5t142.5 45.5q131 0 185 -71q76 71 183 71q106 0 174 -69.5t68 -178.5v-44h-382q6 -57 43 -90.5t93 -33.5q93 0 137 91
l94 -54q-72 -145 -233 -145q-65 0 -120.5 30t-90.5 83q-27 -55 -78.5 -84t-113.5 -29q-82 0 -133 42.5t-51 112.5zM496 310h266q-9 49 -43 76.5t-87 27.5q-48 0 -84.5 -29t-51.5 -75zM370 213v5h-105q-46 0 -72.5 -20t-26.5 -52q0 -27 20 -42.5t53 -15.5q56 0 93.5 35
t37.5 90z" />
    <glyph glyph-name="ccedilla" unicode="&#xe7;" horiz-adv-x="553" 
d="M296 -14h-6l-23 -39q17 9 40 9q35 0 56.5 -22t21.5 -56q0 -37 -27 -59.5t-68 -22.5q-80 0 -94 61l66 17q4 -22 28 -22q25 0 25 25q0 29 -28 29q-23 0 -45 -18l-37 33l25 72q-87 21 -141 89t-54 166q0 114 76 188t185 74q167 0 222 -124l-107 -65q-38 71 -116 71
q-58 0 -95 -39.5t-37 -104.5t37 -104.5t95 -39.5q45 0 74 18t50 60l104 -63q-79 -133 -227 -133z" />
    <glyph glyph-name="egrave" unicode="&#xe8;" horiz-adv-x="575" 
d="M35 248q0 114 75.5 188t185.5 74q106 0 174 -69.5t68 -178.5v-44h-382q6 -57 43 -90.5t93 -33.5q91 0 137 91l94 -54q-71 -145 -233 -145q-105 -2 -181 74t-74 188zM158 314h263q-9 47 -43 73.5t-86 26.5q-47 0 -83.5 -27.5t-50.5 -72.5zM266 550l-124 158h153l68 -158
h-97z" />
    <glyph glyph-name="eacute" unicode="&#xe9;" horiz-adv-x="575" 
d="M35 248q0 114 75.5 188t185.5 74q106 0 174 -69.5t68 -178.5v-44h-382q6 -57 43 -90.5t93 -33.5q91 0 137 91l94 -54q-71 -145 -233 -145q-105 -2 -181 74t-74 188zM158 314h263q-9 47 -43 73.5t-86 26.5q-47 0 -83.5 -27.5t-50.5 -72.5zM235 550l69 158h153l-125 -158
h-97z" />
    <glyph glyph-name="ecircumflex" unicode="&#xea;" horiz-adv-x="575" 
d="M35 248q0 114 75.5 188t185.5 74q106 0 174 -69.5t68 -178.5v-44h-382q6 -57 43 -90.5t93 -33.5q91 0 137 91l94 -54q-71 -145 -233 -145q-105 -2 -181 74t-74 188zM158 314h263q-9 47 -43 73.5t-86 26.5q-47 0 -83.5 -27.5t-50.5 -72.5zM138 550l113 157h90l113 -157
h-99l-59 60l-59 -60h-99z" />
    <glyph glyph-name="edieresis" unicode="&#xeb;" horiz-adv-x="575" 
d="M35 248q0 114 75.5 188t185.5 74q106 0 174 -69.5t68 -178.5v-44h-382q6 -57 43 -90.5t93 -33.5q91 0 137 91l94 -54q-71 -145 -233 -145q-105 -2 -181 74t-74 188zM158 314h263q-9 47 -43 73.5t-86 26.5q-47 0 -83.5 -27.5t-50.5 -72.5zM147 576v124h118v-124h-118z
M327 576v124h118v-124h-118z" />
    <glyph glyph-name="igrave" unicode="&#xec;" horiz-adv-x="252" 
d="M63 0v496h126v-496h-126zM96 550l-124 158h153l68 -158h-97z" />
    <glyph glyph-name="iacute" unicode="&#xed;" horiz-adv-x="252" 
d="M63 0v496h126v-496h-126zM65 550l69 158h153l-125 -158h-97z" />
    <glyph glyph-name="icircumflex" unicode="&#xee;" horiz-adv-x="252" 
d="M63 0v496h126v-496h-126zM-32 550l113 157h90l113 -157h-99l-59 60l-59 -60h-99z" />
    <glyph glyph-name="idieresis" unicode="&#xef;" horiz-adv-x="252" 
d="M63 0v496h126v-496h-126zM-23 576v124h118v-124h-118zM157 576v124h118v-124h-118z" />
    <glyph glyph-name="eth" unicode="&#xf0;" horiz-adv-x="590" 
d="M41 227q0 101 69.5 168t169.5 67q92 0 139 -53q-29 73 -88 127l-104 -40l-31 83l53 20q-54 36 -107 57l58 94q95 -42 171 -103l106 41l32 -83l-67 -26q107 -128 107 -296q0 -137 -68 -217t-188 -80q-112 0 -182 67.5t-70 173.5zM427 224q0 59 -38.5 95.5t-92.5 36.5
t-92.5 -36.5t-38.5 -95.5t38.5 -95.5t92.5 -36.5t92.5 36.5t38.5 95.5z" />
    <glyph glyph-name="ntilde" unicode="&#xf1;" horiz-adv-x="594" 
d="M63 0v496h126v-80q62 94 168 94q79 0 126.5 -47t47.5 -125v-338h-126v286q0 106 -101 106q-50 0 -82.5 -39t-32.5 -101v-252h-126zM271 592q-28 24 -47 24q-10 0 -16.5 -6t-6.5 -16q0 -13 7 -26l-74 -15q-14 21 -14 53q0 41 29 66t69 25q34 0 55.5 -9.5t49.5 -32.5
q29 -24 47 -24q10 0 16.5 6t6.5 16q0 13 -7 26l74 15q14 -21 14 -53q0 -41 -29 -66t-69 -25q-34 0 -55.5 9.5t-49.5 32.5z" />
    <glyph glyph-name="ograve" unicode="&#xf2;" horiz-adv-x="612" 
d="M35 248q0 121 79.5 191.5t191.5 70.5t191.5 -70.5t79.5 -191.5t-79.5 -191.5t-191.5 -70.5t-191.5 70.5t-79.5 191.5zM449 248q0 64 -42 104t-101 40t-101 -40t-42 -104t42 -104t101 -40t101 40t42 104zM276 550l-124 158h153l68 -158h-97z" />
    <glyph glyph-name="oacute" unicode="&#xf3;" horiz-adv-x="612" 
d="M35 248q0 121 79.5 191.5t191.5 70.5t191.5 -70.5t79.5 -191.5t-79.5 -191.5t-191.5 -70.5t-191.5 70.5t-79.5 191.5zM449 248q0 64 -42 104t-101 40t-101 -40t-42 -104t42 -104t101 -40t101 40t42 104zM245 550l69 158h153l-125 -158h-97z" />
    <glyph glyph-name="ocircumflex" unicode="&#xf4;" horiz-adv-x="612" 
d="M35 248q0 121 79.5 191.5t191.5 70.5t191.5 -70.5t79.5 -191.5t-79.5 -191.5t-191.5 -70.5t-191.5 70.5t-79.5 191.5zM449 248q0 64 -42 104t-101 40t-101 -40t-42 -104t42 -104t101 -40t101 40t42 104zM148 550l113 157h90l113 -157h-99l-59 60l-59 -60h-99z" />
    <glyph glyph-name="otilde" unicode="&#xf5;" horiz-adv-x="612" 
d="M35 248q0 121 79.5 191.5t191.5 70.5t191.5 -70.5t79.5 -191.5t-79.5 -191.5t-191.5 -70.5t-191.5 70.5t-79.5 191.5zM449 248q0 64 -42 104t-101 40t-101 -40t-42 -104t42 -104t101 -40t101 40t42 104zM280 592q-28 24 -47 24q-10 0 -16.5 -6t-6.5 -16q0 -13 7 -26
l-74 -15q-14 21 -14 53q0 41 29 66t69 25q34 0 55.5 -9.5t49.5 -32.5q28 -24 47 -24q10 0 16.5 6t6.5 16q0 13 -7 26l74 15q14 -21 14 -53q0 -41 -29 -66t-69 -25q-34 0 -55.5 9.5t-49.5 32.5z" />
    <glyph glyph-name="odieresis" unicode="&#xf6;" horiz-adv-x="612" 
d="M35 248q0 121 79.5 191.5t191.5 70.5t191.5 -70.5t79.5 -191.5t-79.5 -191.5t-191.5 -70.5t-191.5 70.5t-79.5 191.5zM449 248q0 64 -42 104t-101 40t-101 -40t-42 -104t42 -104t101 -40t101 40t42 104zM157 576v124h118v-124h-118zM337 576v124h118v-124h-118z" />
    <glyph glyph-name="divide" unicode="&#xf7;" horiz-adv-x="564" 
d="M215 350v134h134v-134h-134zM215 0v134h134v-134h-134zM40 191v102h484v-102h-484z" />
    <glyph glyph-name="oslash" unicode="&#xf8;" horiz-adv-x="612" 
d="M577 248q0 -121 -79.5 -191.5t-191.5 -70.5q-50 0 -90 13l-24 -41l-83 51l20 35q-94 72 -94 204q0 121 79.5 191.5t191.5 70.5q50 0 90 -13l24 41l83 -51l-20 -35q94 -72 94 -204zM195 155l138 235q-24 2 -27 2q-59 0 -101 -40t-42 -104q0 -55 32 -93zM449 248
q0 55 -32 93l-138 -235q24 -2 27 -2q59 0 101 40t42 104z" />
    <glyph glyph-name="ugrave" unicode="&#xf9;" horiz-adv-x="594" 
d="M63 188v308h126v-279q0 -113 101 -113q52 0 83.5 38t31.5 98v256h126v-496h-126v78q-50 -92 -158 -92q-83 0 -133.5 54t-50.5 148zM267 550l-124 158h153l68 -158h-97z" />
    <glyph glyph-name="uacute" unicode="&#xfa;" horiz-adv-x="594" 
d="M63 188v308h126v-279q0 -113 101 -113q52 0 83.5 38t31.5 98v256h126v-496h-126v78q-50 -92 -158 -92q-83 0 -133.5 54t-50.5 148zM236 550l69 158h153l-125 -158h-97z" />
    <glyph glyph-name="ucircumflex" unicode="&#xfb;" horiz-adv-x="594" 
d="M63 188v308h126v-279q0 -113 101 -113q52 0 83.5 38t31.5 98v256h126v-496h-126v78q-50 -92 -158 -92q-83 0 -133.5 54t-50.5 148zM139 550l113 157h90l113 -157h-99l-59 60l-59 -60h-99z" />
    <glyph glyph-name="udieresis" unicode="&#xfc;" horiz-adv-x="594" 
d="M63 188v308h126v-279q0 -113 101 -113q52 0 83.5 38t31.5 98v256h126v-496h-126v78q-50 -92 -158 -92q-83 0 -133.5 54t-50.5 148zM148 576v124h118v-124h-118zM328 576v124h118v-124h-118z" />
    <glyph glyph-name="yacute" unicode="&#xfd;" horiz-adv-x="546" 
d="M72 -200l20 117q22 -12 45 -12q39 0 56 47l16 44l-204 500h143l128 -322l122 322h143l-236 -586q-26 -64 -65.5 -92.5t-98.5 -28.5q-39 0 -69 11zM212 550l69 158h153l-125 -158h-97z" />
    <glyph glyph-name="thorn" unicode="&#xfe;" horiz-adv-x="624" 
d="M63 -204v904h126v-275q27 38 74 61.5t101 23.5q95 0 160 -72t65 -190q0 -116 -68 -189t-169 -73q-104 0 -163 75v-265h-126zM461 248q0 62 -40 102q-40 42 -100 42q-59 0 -100 -42q-40 -40 -40 -102t40 -103q41 -41 100 -41t100 41q40 41 40 103z" />
    <glyph glyph-name="ydieresis" unicode="&#xff;" horiz-adv-x="546" 
d="M72 -200l20 117q22 -12 45 -12q39 0 56 47l16 44l-204 500h143l128 -322l122 322h143l-236 -586q-26 -64 -65.5 -92.5t-98.5 -28.5q-39 0 -69 11zM124 576v124h118v-124h-118zM304 576v124h118v-124h-118z" />
    <glyph glyph-name="Amacron" unicode="&#x100;" horiz-adv-x="702" 
d="M5 0l283 700h126l283 -700h-141l-70 183h-270l-70 -183h-141zM261 301h180l-64 168q-17 44 -26 76q-9 -32 -26 -76zM227 792v94h248v-94h-248z" />
    <glyph glyph-name="amacron" unicode="&#x101;" horiz-adv-x="567" 
d="M43 141q0 69 47.5 110t129.5 54l149 23v19q0 75 -91 75q-41 0 -65 -15.5t-24 -40.5q0 -4 2 -12l-113 -38q-9 20 -9 42q0 61 58 106.5t151 45.5q217 0 217 -180v-207q0 -73 33 -123h-128q-24 30 -24 79q-53 -93 -166 -93q-74 0 -120.5 42.5t-46.5 112.5zM369 232v9
l-120 -20q-83 -14 -83 -73q0 -29 20 -44.5t54 -15.5q58 0 93.5 38t35.5 106zM154 588v94h248v-94h-248z" />
    <glyph glyph-name="Abreve" unicode="&#x102;" horiz-adv-x="702" 
d="M5 0l283 700h126l283 -700h-141l-70 183h-270l-70 -183h-141zM261 301h180l-64 168q-17 44 -26 76q-9 -32 -26 -76zM237 881h76q0 -19 10 -31t28 -12t28 12t10 31h76q0 -49 -31.5 -81t-82.5 -32t-82.5 32t-31.5 81z" />
    <glyph glyph-name="abreve" unicode="&#x103;" horiz-adv-x="567" 
d="M43 141q0 69 47.5 110t129.5 54l149 23v19q0 75 -91 75q-41 0 -65 -15.5t-24 -40.5q0 -4 2 -12l-113 -38q-9 20 -9 42q0 61 58 106.5t151 45.5q217 0 217 -180v-207q0 -73 33 -123h-128q-24 30 -24 79q-53 -93 -166 -93q-74 0 -120.5 42.5t-46.5 112.5zM369 232v9
l-120 -20q-83 -14 -83 -73q0 -29 20 -44.5t54 -15.5q58 0 93.5 38t35.5 106zM164 677h76q0 -19 10 -31t28 -12t28 12t10 31h76q0 -49 -31.5 -81t-82.5 -32t-82.5 32t-31.5 81z" />
    <glyph glyph-name="Aogonek" unicode="&#x104;" horiz-adv-x="702" 
d="M688 -114l11 -77q-24 -7 -60 -7q-47 0 -80.5 25.5t-33.5 68.5q0 60 59 104h-28l-70 183h-270l-70 -183h-141l283 700h126l283 -700q-72 -40 -72 -78q0 -18 11.5 -28t29.5 -10q4 0 22 2zM261 301h180l-64 168q-17 44 -26 76q-9 -32 -26 -76z" />
    <glyph glyph-name="aogonek" unicode="&#x105;" horiz-adv-x="567" 
d="M519 -114l11 -77q-24 -7 -60 -7q-47 0 -80.5 25.5t-33.5 68.5q0 60 59 104h-15q-24 30 -24 79q-53 -93 -166 -93q-74 0 -120.5 42.5t-46.5 112.5q0 69 47.5 110t129.5 54l149 23v19q0 75 -91 75q-41 0 -65 -15.5t-24 -40.5q0 -4 2 -12l-113 -38q-9 20 -9 42
q0 61 58 106.5t151 45.5q217 0 217 -180v-207q0 -73 33 -123q-72 -40 -72 -78q0 -18 11.5 -28t29.5 -10q4 0 22 2zM369 232v9l-120 -20q-83 -14 -83 -73q0 -29 20 -44.5t54 -15.5q58 0 93.5 38t35.5 106z" />
    <glyph glyph-name="Cacute" unicode="&#x106;" horiz-adv-x="768" 
d="M46 350q-3 158 103 262t260 102q107 0 189 -51q82 -49 118 -132l-107 -77q-65 138 -204 138q-96 0 -160.5 -67.5t-64.5 -174.5q0 -105 65 -173.5t160 -68.5q137 0 212 140l103 -74q-67 -102 -136.5 -145t-179.5 -43q-154 -2 -257 101.5t-101 262.5zM343 754l68 158h153
l-124 -158h-97z" />
    <glyph glyph-name="cacute" unicode="&#x107;" horiz-adv-x="553" 
d="M35 248q0 114 76 188t185 74q167 0 222 -124l-107 -65q-38 71 -116 71q-58 0 -95 -39.5t-37 -104.5t37 -104.5t95 -39.5q45 0 74 18t50 60l104 -63q-79 -133 -227 -133q-112 0 -186.5 73t-74.5 189zM235 550l69 158h153l-125 -158h-97z" />
    <glyph glyph-name="Ccircumflex" unicode="&#x108;" horiz-adv-x="768" 
d="M46 350q-3 158 103 262t260 102q107 0 189 -51q82 -49 118 -132l-107 -77q-65 138 -204 138q-96 0 -160.5 -67.5t-64.5 -174.5q0 -105 65 -173.5t160 -68.5q137 0 212 140l103 -74q-67 -102 -136.5 -145t-179.5 -43q-154 -2 -257 101.5t-101 262.5zM245 754l113 157h90
l113 -157h-99l-59 60l-59 -60h-99z" />
    <glyph glyph-name="ccircumflex" unicode="&#x109;" horiz-adv-x="553" 
d="M35 248q0 114 76 188t185 74q167 0 222 -124l-107 -65q-38 71 -116 71q-58 0 -95 -39.5t-37 -104.5t37 -104.5t95 -39.5q45 0 74 18t50 60l104 -63q-79 -133 -227 -133q-112 0 -186.5 73t-74.5 189zM138 550l113 157h90l113 -157h-99l-59 60l-59 -60h-99z" />
    <glyph glyph-name="Cdotaccent" unicode="&#x10a;" horiz-adv-x="768" 
d="M46 350q-3 158 103 262t260 102q107 0 189 -51q82 -49 118 -132l-107 -77q-65 138 -204 138q-96 0 -160.5 -67.5t-64.5 -174.5q0 -105 65 -173.5t160 -68.5q137 0 212 140l103 -74q-67 -102 -136.5 -145t-179.5 -43q-154 -2 -257 101.5t-101 262.5zM334 772v132h138v-132
h-138z" />
    <glyph glyph-name="cdotaccent" unicode="&#x10b;" horiz-adv-x="553" 
d="M35 248q0 114 76 188t185 74q167 0 222 -124l-107 -65q-38 71 -116 71q-58 0 -95 -39.5t-37 -104.5t37 -104.5t95 -39.5q45 0 74 18t50 60l104 -63q-79 -133 -227 -133q-112 0 -186.5 73t-74.5 189zM227 568v132h138v-132h-138z" />
    <glyph glyph-name="Ccaron" unicode="&#x10c;" horiz-adv-x="768" 
d="M46 350q-3 158 103 262t260 102q107 0 189 -51q82 -49 118 -132l-107 -77q-65 138 -204 138q-96 0 -160.5 -67.5t-64.5 -174.5q0 -105 65 -173.5t160 -68.5q137 0 212 140l103 -74q-67 -102 -136.5 -145t-179.5 -43q-154 -2 -257 101.5t-101 262.5zM358 754l-113 157h99
l59 -60l59 60h99l-113 -157h-90z" />
    <glyph glyph-name="ccaron" unicode="&#x10d;" horiz-adv-x="553" 
d="M35 248q0 114 76 188t185 74q167 0 222 -124l-107 -65q-38 71 -116 71q-58 0 -95 -39.5t-37 -104.5t37 -104.5t95 -39.5q45 0 74 18t50 60l104 -63q-79 -133 -227 -133q-112 0 -186.5 73t-74.5 189zM251 550l-113 157h99l59 -60l59 60h99l-113 -157h-90z" />
    <glyph glyph-name="Dcaron" unicode="&#x10e;" horiz-adv-x="712" 
d="M74 0v700h211q173 0 277 -90.5t104 -259.5t-104 -259.5t-277 -90.5h-211zM206 122h88q112 0 175 59t63 169t-63 169t-175 59h-88v-456zM222 754l-113 157h99l59 -60l59 60h99l-113 -157h-90z" />
    <glyph glyph-name="dcaron" unicode="&#x10f;" horiz-adv-x="730" 
d="M35 248q0 115 73 188.5t171 73.5q111 0 156 -75v265h126v-700h-126v70q-22 -38 -63 -61t-93 -23q-105 0 -174.5 71.5t-69.5 190.5zM443 248q0 63 -40 103.5t-100 40.5t-100 -40.5t-40 -103.5t40 -103.5t100 -40.5t100 40.5t40 103.5zM656 484l-26 15l39 95h-45v106h106
v-108z" />
    <glyph glyph-name="Dcroat" unicode="&#x110;" horiz-adv-x="749" 
d="M111 0v295h-78v110h78v295h211q173 0 277 -90.5t104 -259.5t-104 -259.5t-277 -90.5h-211zM243 122h88q112 0 175 59t63 169t-63 169t-175 59h-88v-173h155v-110h-155v-173z" />
    <glyph glyph-name="dslash" unicode="&#x111;" horiz-adv-x="624" 
d="M615 648v-96h-54v-552h-126v70q-22 -38 -63 -61t-93 -23q-105 0 -174.5 71.5t-69.5 190.5q0 115 73 188.5t171 73.5q111 0 156 -75v117h-168v96h168v52h126v-52h54zM443 248q0 63 -40 103.5t-100 40.5t-100 -40.5t-40 -103.5t40 -103.5t100 -40.5t100 40.5t40 103.5z" />
    <glyph glyph-name="Emacron" unicode="&#x112;" horiz-adv-x="616" 
d="M74 0v700h483v-118h-351v-161h323v-118h-323v-185h354v-118h-486zM200 792v94h248v-94h-248z" />
    <glyph glyph-name="emacron" unicode="&#x113;" horiz-adv-x="575" 
d="M35 248q0 114 75.5 188t185.5 74q106 0 174 -69.5t68 -178.5v-44h-382q6 -57 43 -90.5t93 -33.5q91 0 137 91l94 -54q-71 -145 -233 -145q-105 -2 -181 74t-74 188zM158 314h263q-9 47 -43 73.5t-86 26.5q-47 0 -83.5 -27.5t-50.5 -72.5zM172 588v94h248v-94h-248z" />
    <glyph glyph-name="Ebreve" unicode="&#x114;" horiz-adv-x="616" 
d="M74 0v700h483v-118h-351v-161h323v-118h-323v-185h354v-118h-486zM210 881h76q0 -19 10 -31t28 -12t28 12t10 31h76q0 -49 -31.5 -81t-82.5 -32t-82.5 32t-31.5 81z" />
    <glyph glyph-name="ebreve" unicode="&#x115;" horiz-adv-x="575" 
d="M35 248q0 114 75.5 188t185.5 74q106 0 174 -69.5t68 -178.5v-44h-382q6 -57 43 -90.5t93 -33.5q91 0 137 91l94 -54q-71 -145 -233 -145q-105 -2 -181 74t-74 188zM158 314h263q-9 47 -43 73.5t-86 26.5q-47 0 -83.5 -27.5t-50.5 -72.5zM182 677h76q0 -19 10 -31t28 -12
t28 12t10 31h76q0 -49 -31.5 -81t-82.5 -32t-82.5 32t-31.5 81z" />
    <glyph glyph-name="Edotaccent" unicode="&#x116;" horiz-adv-x="616" 
d="M74 0v700h483v-118h-351v-161h323v-118h-323v-185h354v-118h-486zM255 772v132h138v-132h-138z" />
    <glyph glyph-name="edotaccent" unicode="&#x117;" horiz-adv-x="575" 
d="M35 248q0 114 75.5 188t185.5 74q106 0 174 -69.5t68 -178.5v-44h-382q6 -57 43 -90.5t93 -33.5q91 0 137 91l94 -54q-71 -145 -233 -145q-105 -2 -181 74t-74 188zM158 314h263q-9 47 -43 73.5t-86 26.5q-47 0 -83.5 -27.5t-50.5 -72.5zM227 568v132h138v-132h-138z" />
    <glyph glyph-name="Eogonek" unicode="&#x118;" horiz-adv-x="616" 
d="M551 -114l11 -77q-24 -7 -60 -7q-47 0 -80.5 25.5t-33.5 68.5q0 60 59 104h-373v700h483v-118h-351v-161h323v-118h-323v-185h354v-118q-72 -40 -72 -78q0 -18 11.5 -28t29.5 -10q4 0 22 2z" />
    <glyph glyph-name="eogonek" unicode="&#x119;" horiz-adv-x="575" 
d="M538 262v-44h-382q6 -57 43 -90.5t93 -33.5q91 0 137 91l94 -54q-50 -101 -139 -131q-72 -40 -72 -78q0 -18 11.5 -28t29.5 -10q4 0 22 2l11 -77q-24 -7 -60 -7q-47 0 -80.5 25.5t-33.5 68.5q0 52 45 92q-95 12 -158.5 84t-63.5 176q0 114 75.5 188t185.5 74
q106 0 174 -69.5t68 -178.5zM158 314h263q-9 47 -43 73.5t-86 26.5q-47 0 -83.5 -27.5t-50.5 -72.5z" />
    <glyph glyph-name="Ecaron" unicode="&#x11a;" horiz-adv-x="616" 
d="M74 0v700h483v-118h-351v-161h323v-118h-323v-185h354v-118h-486zM279 754l-113 157h99l59 -60l59 60h99l-113 -157h-90z" />
    <glyph glyph-name="ecaron" unicode="&#x11b;" horiz-adv-x="575" 
d="M35 248q0 114 75.5 188t185.5 74q106 0 174 -69.5t68 -178.5v-44h-382q6 -57 43 -90.5t93 -33.5q91 0 137 91l94 -54q-71 -145 -233 -145q-105 -2 -181 74t-74 188zM158 314h263q-9 47 -43 73.5t-86 26.5q-47 0 -83.5 -27.5t-50.5 -72.5zM251 550l-113 157h99l59 -60
l59 60h99l-113 -157h-90z" />
    <glyph glyph-name="Gcircumflex" unicode="&#x11c;" horiz-adv-x="780" 
d="M46 350q-2 101 47.5 186t134 132t181.5 46q102 0 184 -46t122 -125l-99 -72q-66 127 -209 127q-96 0 -161.5 -69t-65.5 -179q0 -106 61.5 -174t155.5 -68q82 0 131 43t61 115h-226v108h358v-374h-87l-28 96q-71 -110 -213 -110q-145 -3 -247 103t-100 261zM251 754
l113 157h90l113 -157h-99l-59 60l-59 -60h-99z" />
    <glyph glyph-name="gcircumflex" unicode="&#x11d;" horiz-adv-x="597" 
d="M55 -48q0 31 14 57l120 -37q-6 -17 -6 -34q0 -25 29.5 -40.5t80.5 -15.5q122 0 122 136v64q-45 -74 -141 -74q-98 -2 -169.5 71t-69.5 180q-2 106 70.5 179.5t169.5 71.5q95 0 140 -68v54h126v-462q0 -121 -66 -186.5t-182 -65.5q-111 0 -174.5 45.5t-63.5 124.5z
M422 259q0 64 -38 102.5t-96 38.5q-56 0 -93.5 -38.5t-37.5 -102.5t37.5 -102.5t93.5 -38.5q58 0 96 38.5t38 102.5zM128 550l113 157h90l113 -157h-99l-59 60l-59 -60h-99z" />
    <glyph glyph-name="Gbreve" unicode="&#x11e;" horiz-adv-x="780" 
d="M46 350q-2 101 47.5 186t134 132t181.5 46q102 0 184 -46t122 -125l-99 -72q-66 127 -209 127q-96 0 -161.5 -69t-65.5 -179q0 -106 61.5 -174t155.5 -68q82 0 131 43t61 115h-226v108h358v-374h-87l-28 96q-71 -110 -213 -110q-145 -3 -247 103t-100 261zM295 881h76
q0 -19 10 -31t28 -12t28 12t10 31h76q0 -49 -31.5 -81t-82.5 -32t-82.5 32t-31.5 81z" />
    <glyph glyph-name="gbreve" unicode="&#x11f;" horiz-adv-x="597" 
d="M55 -48q0 31 14 57l120 -37q-6 -17 -6 -34q0 -25 29.5 -40.5t80.5 -15.5q122 0 122 136v64q-45 -74 -141 -74q-98 -2 -169.5 71t-69.5 180q-2 106 70.5 179.5t169.5 71.5q95 0 140 -68v54h126v-462q0 -121 -66 -186.5t-182 -65.5q-111 0 -174.5 45.5t-63.5 124.5z
M422 259q0 64 -38 102.5t-96 38.5q-56 0 -93.5 -38.5t-37.5 -102.5t37.5 -102.5t93.5 -38.5q58 0 96 38.5t38 102.5zM172 677h76q0 -19 10 -31t28 -12t28 12t10 31h76q0 -49 -31.5 -81t-82.5 -32t-82.5 32t-31.5 81z" />
    <glyph glyph-name="Gdotaccent" unicode="&#x120;" horiz-adv-x="780" 
d="M46 350q-2 101 47.5 186t134 132t181.5 46q102 0 184 -46t122 -125l-99 -72q-66 127 -209 127q-96 0 -161.5 -69t-65.5 -179q0 -106 61.5 -174t155.5 -68q82 0 131 43t61 115h-226v108h358v-374h-87l-28 96q-71 -110 -213 -110q-145 -3 -247 103t-100 261zM340 772v132
h138v-132h-138z" />
    <glyph glyph-name="gdotaccent" unicode="&#x121;" horiz-adv-x="597" 
d="M55 -48q0 31 14 57l120 -37q-6 -17 -6 -34q0 -25 29.5 -40.5t80.5 -15.5q122 0 122 136v64q-45 -74 -141 -74q-98 -2 -169.5 71t-69.5 180q-2 106 70.5 179.5t169.5 71.5q95 0 140 -68v54h126v-462q0 -121 -66 -186.5t-182 -65.5q-111 0 -174.5 45.5t-63.5 124.5z
M422 259q0 64 -38 102.5t-96 38.5q-56 0 -93.5 -38.5t-37.5 -102.5t37.5 -102.5t93.5 -38.5q58 0 96 38.5t38 102.5zM217 568v132h138v-132h-138z" />
    <glyph glyph-name="uni0122" unicode="&#x122;" horiz-adv-x="780" 
d="M46 350q-2 101 47.5 186t134 132t181.5 46q102 0 184 -46t122 -125l-99 -72q-66 127 -209 127q-96 0 -161.5 -69t-65.5 -179q0 -106 61.5 -174t155.5 -68q82 0 131 43t61 115h-226v108h358v-374h-87l-28 96q-71 -110 -213 -110q-145 -3 -247 103t-100 261zM366 -314
l-29 11l37 121h-44v122h126v-122z" />
    <glyph glyph-name="uni0123" unicode="&#x123;" horiz-adv-x="597" 
d="M55 -48q0 31 14 57l120 -37q-6 -17 -6 -34q0 -25 29.5 -40.5t80.5 -15.5q122 0 122 136v64q-45 -74 -141 -74q-98 -2 -169.5 71t-69.5 180q-2 106 70.5 179.5t169.5 71.5q95 0 140 -68v54h126v-462q0 -121 -66 -186.5t-182 -65.5q-111 0 -174.5 45.5t-63.5 124.5z
M422 259q0 64 -38 102.5t-96 38.5q-56 0 -93.5 -38.5t-37.5 -102.5t37.5 -102.5t93.5 -38.5q58 0 96 38.5t38 102.5zM218 563v123l111 136l25 -18l-61 -118h51v-123h-126z" />
    <glyph glyph-name="Hcircumflex" unicode="&#x124;" horiz-adv-x="718" 
d="M74 0v700h132v-282h306v282h132v-700h-132v296h-306v-296h-132zM201 754l113 157h90l113 -157h-99l-59 60l-59 -60h-99z" />
    <glyph glyph-name="hcircumflex" unicode="&#x125;" horiz-adv-x="600" 
d="M63 0v700h126v-282q58 92 172 92q81 0 128.5 -47.5t47.5 -127.5v-335h-126v286q0 51 -26 78.5t-74 27.5q-53 0 -87.5 -39t-34.5 -101v-252h-126zM41 754l113 157h90l113 -157h-99l-59 60l-59 -60h-99z" />
    <glyph glyph-name="Hbar" unicode="&#x126;" horiz-adv-x="718" 
d="M730 578v-94h-86v-484h-132v296h-306v-296h-132v484h-86v94h86v122h132v-122h306v122h132v-122h86zM512 418v66h-306v-66h306z" />
    <glyph glyph-name="hbar" unicode="&#x127;" horiz-adv-x="600" 
d="M537 335v-335h-126v286q0 51 -26 78.5t-74 27.5q-53 0 -87.5 -39t-34.5 -101v-252h-126v552h-54v96h54v52h126v-52h168v-96h-168v-134q58 92 172 92q81 0 128.5 -47.5t47.5 -127.5z" />
    <glyph glyph-name="Itilde" unicode="&#x128;" horiz-adv-x="280" 
d="M74 0v700h132v-700h-132zM114 796q-28 24 -47 24q-10 0 -16.5 -6t-6.5 -16q0 -13 7 -26l-74 -15q-14 21 -14 53q0 41 29 66t69 25q34 0 55.5 -9.5t49.5 -32.5q28 -24 47 -24q10 0 16.5 6t6.5 16q0 13 -7 26l74 15q14 -21 14 -53q0 -41 -29 -66t-69 -25q-34 0 -55.5 9.5
t-49.5 32.5z" />
    <glyph glyph-name="itilde" unicode="&#x129;" horiz-adv-x="252" 
d="M63 0v496h126v-496h-126zM100 592q-28 24 -47 24q-10 0 -16.5 -6t-6.5 -16q0 -13 7 -26l-74 -15q-14 21 -14 53q0 41 29 66t69 25q34 0 55.5 -9.5t49.5 -32.5q28 -24 47 -24q10 0 16.5 6t6.5 16q0 13 -7 26l74 15q14 -21 14 -53q0 -41 -29 -66t-69 -25q-34 0 -55.5 9.5
t-49.5 32.5z" />
    <glyph glyph-name="Imacron" unicode="&#x12a;" horiz-adv-x="280" 
d="M74 0v700h132v-700h-132zM16 792v94h248v-94h-248z" />
    <glyph glyph-name="imacron" unicode="&#x12b;" horiz-adv-x="252" 
d="M63 0v496h126v-496h-126zM2 588v94h248v-94h-248z" />
    <glyph glyph-name="Ibreve" unicode="&#x12c;" horiz-adv-x="280" 
d="M74 0v700h132v-700h-132zM26 881h76q0 -19 10 -31t28 -12t28 12t10 31h76q0 -49 -31.5 -81t-82.5 -32t-82.5 32t-31.5 81z" />
    <glyph glyph-name="ibreve" unicode="&#x12d;" horiz-adv-x="252" 
d="M63 0v496h126v-496h-126zM12 677h76q0 -19 10 -31t28 -12t28 12t10 31h76q0 -49 -31.5 -81t-82.5 -32t-82.5 32t-31.5 81z" />
    <glyph glyph-name="Iogonek" unicode="&#x12e;" horiz-adv-x="280" 
d="M197 -114l11 -77q-24 -7 -60 -7q-47 0 -80.5 25.5t-33.5 68.5q0 60 59 104h-19v700h132v-700q-72 -40 -72 -78q0 -18 11.5 -28t29.5 -10q4 0 22 2z" />
    <glyph glyph-name="iogonek" unicode="&#x12f;" horiz-adv-x="252" 
d="M57 700h138v-132h-138v132zM180 -114l11 -77q-24 -7 -60 -7q-47 0 -80.5 25.5t-33.5 68.5q0 60 59 104h-13v496h126v-496q-72 -40 -72 -78q0 -18 11.5 -28t29.5 -10q4 0 22 2z" />
    <glyph glyph-name="Idot" unicode="&#x130;" horiz-adv-x="280" 
d="M74 0v700h132v-700h-132zM71 772v132h138v-132h-138z" />
    <glyph glyph-name="dotlessi" unicode="&#x131;" horiz-adv-x="252" 
d="M63 0v496h126v-496h-126z" />
    <glyph glyph-name="IJ" unicode="&#x132;" horiz-adv-x="816" 
d="M74 0v700h132v-700h-132zM303 224l132 -14q1 -102 97 -102q46 0 71.5 29t25.5 79v484h132v-486q0 -102 -61 -165t-168 -63q-108 0 -168.5 62.5t-60.5 175.5z" />
    <glyph glyph-name="ij" unicode="&#x133;" horiz-adv-x="504" 
d="M63 0v496h126v-496h-126zM57 568v132h138v-132h-138zM204 -201l16 114q21 -8 39 -8q56 0 56 71v520h126v-534q0 -173 -162 -173q-41 0 -75 10zM309 568v132h138v-132h-138z" />
    <glyph glyph-name="Jcircumflex" unicode="&#x134;" horiz-adv-x="555" 
d="M42 224l132 -14q2 -102 97 -102q46 0 71.5 29t25.5 79v484h132v-486q0 -102 -61 -165t-168 -63q-108 0 -168.5 62.5t-60.5 175.5zM277 754l113 157h90l113 -157h-99l-59 60l-59 -60h-99z" />
    <glyph glyph-name="jcircumflex" unicode="&#x135;" horiz-adv-x="252" 
d="M-48 -201l16 114q21 -8 39 -8q56 0 56 71v520h126v-534q0 -173 -162 -173q-41 0 -75 10zM-32 550l113 157h90l113 -157h-99l-59 60l-59 -60h-99z" />
    <glyph glyph-name="uni0136" unicode="&#x136;" horiz-adv-x="658" 
d="M74 0v700h132v-270l55 62l196 208h167l-248 -260l264 -440h-154l-205 342l-75 -79v-263h-132zM313 -314l-29 11l37 121h-44v122h126v-122z" />
    <glyph glyph-name="uni0137" unicode="&#x137;" horiz-adv-x="541" 
d="M63 0v700h126v-354l151 150h156l-181 -177l205 -319h-145l-148 232l-38 -37v-195h-126zM248 -314l-29 11l37 121h-44v122h126v-122z" />
    <glyph glyph-name="kgreenlandic" unicode="&#x138;" horiz-adv-x="541" 
d="M63 0v496h126v-158l151 158h156l-186 -190l210 -306h-145l-152 217l-34 -35v-182h-126z" />
    <glyph glyph-name="Lacute" unicode="&#x139;" horiz-adv-x="598" 
d="M74 0v700h132v-578h352v-122h-484zM86 754l68 158h153l-124 -158h-97z" />
    <glyph glyph-name="lacute" unicode="&#x13a;" horiz-adv-x="252" 
d="M63 0v700h126v-700h-126zM65 754l69 158h153l-125 -158h-97z" />
    <glyph glyph-name="uni013B" unicode="&#x13b;" horiz-adv-x="598" 
d="M74 0v700h132v-578h352v-122h-484zM288 -314l-29 11l37 121h-44v122h126v-122z" />
    <glyph glyph-name="uni013C" unicode="&#x13c;" horiz-adv-x="252" 
d="M63 0v700h126v-700h-126zM99 -314l-29 11l37 121h-44v122h126v-122z" />
    <glyph glyph-name="Lcaron" unicode="&#x13d;" horiz-adv-x="598" 
d="M74 0v700h132v-578h352v-122h-484zM484 484l-26 15l39 95h-45v106h106v-108z" />
    <glyph glyph-name="lcaron" unicode="&#x13e;" horiz-adv-x="358" 
d="M63 0v700h126v-700h-126zM284 484l-26 15l39 95h-45v106h106v-108z" />
    <glyph glyph-name="Ldot" unicode="&#x13f;" horiz-adv-x="598" 
d="M74 0v700h132v-578h352v-122h-484zM361 283v134h134v-134h-134z" />
    <glyph glyph-name="ldot" unicode="&#x140;" horiz-adv-x="386" 
d="M63 0v700h126v-700h-126zM252 283v134h134v-134h-134z" />
    <glyph glyph-name="Lslash" unicode="&#x141;" horiz-adv-x="598" 
d="M206 122h352v-122h-484v174l-73 -46v122l73 46v404h132v-320l158 101v-122l-158 -101v-136z" />
    <glyph glyph-name="lslash" unicode="&#x142;" horiz-adv-x="252" 
d="M254 486v-110l-65 -41v-335h-126v254l-65 -41v110l65 41v336h126v-255z" />
    <glyph glyph-name="Nacute" unicode="&#x143;" horiz-adv-x="732" 
d="M74 0v700h134l292 -445q22 -38 30 -55v500h128v-700h-134l-292 448q-22 38 -30 55v-503h-128zM306 754l68 158h153l-124 -158h-97z" />
    <glyph glyph-name="nacute" unicode="&#x144;" horiz-adv-x="594" 
d="M63 0v496h126v-80q62 94 168 94q79 0 126.5 -47t47.5 -125v-338h-126v286q0 106 -101 106q-50 0 -82.5 -39t-32.5 -101v-252h-126zM236 550l69 158h153l-125 -158h-97z" />
    <glyph glyph-name="uni0145" unicode="&#x145;" horiz-adv-x="732" 
d="M74 0v700h134l292 -445q22 -38 30 -55v500h128v-700h-134l-292 448q-22 38 -30 55v-503h-128zM339 -314l-29 11l37 121h-44v122h126v-122z" />
    <glyph glyph-name="uni0146" unicode="&#x146;" horiz-adv-x="594" 
d="M63 0v496h126v-80q62 94 168 94q79 0 126.5 -47t47.5 -125v-338h-126v286q0 106 -101 106q-50 0 -82.5 -39t-32.5 -101v-252h-126zM270 -314l-29 11l37 121h-44v122h126v-122z" />
    <glyph glyph-name="Ncaron" unicode="&#x147;" horiz-adv-x="732" 
d="M74 0v700h134l292 -445q22 -38 30 -55v500h128v-700h-134l-292 448q-22 38 -30 55v-503h-128zM321 754l-113 157h99l59 -60l59 60h99l-113 -157h-90z" />
    <glyph glyph-name="ncaron" unicode="&#x148;" horiz-adv-x="594" 
d="M63 0v496h126v-80q62 94 168 94q79 0 126.5 -47t47.5 -125v-338h-126v286q0 106 -101 106q-50 0 -82.5 -39t-32.5 -101v-252h-126zM252 550l-113 157h99l59 -60l59 60h99l-113 -157h-90z" />
    <glyph glyph-name="Eng" unicode="&#x14a;" horiz-adv-x="732" 
d="M351 -199l47 116q20 -13 49 -13q41 0 59 22.5t18 73.5l-292 448q-22 38 -30 55v-503h-128v700h134l292 -445q22 -38 30 -55v500h128v-690q0 -111 -50.5 -169.5t-151.5 -58.5q-58 0 -105 19z" />
    <glyph glyph-name="eng" unicode="&#x14b;" horiz-adv-x="594" 
d="M294 -201l16 114q21 -8 39 -8q56 0 56 71v310q0 106 -101 106q-50 0 -82.5 -39t-32.5 -101v-252h-126v496h126v-80q63 94 167 94q79 0 127 -47.5t48 -124.5v-376q0 -173 -162 -173q-41 0 -75 10z" />
    <glyph glyph-name="Omacron" unicode="&#x14c;" horiz-adv-x="812" 
d="M46 350q-2 154 103 260t257 104q152 2 257 -104t103 -260q2 -154 -103 -260t-257 -104q-152 -2 -257 104t-103 260zM632 350q0 109 -64 175.5t-162 66.5t-162 -66.5t-64 -175.5t64 -175.5t162 -66.5t162 66.5t64 175.5zM282 792v94h248v-94h-248z" />
    <glyph glyph-name="omacron" unicode="&#x14d;" horiz-adv-x="612" 
d="M35 248q0 121 79.5 191.5t191.5 70.5t191.5 -70.5t79.5 -191.5t-79.5 -191.5t-191.5 -70.5t-191.5 70.5t-79.5 191.5zM449 248q0 64 -42 104t-101 40t-101 -40t-42 -104t42 -104t101 -40t101 40t42 104zM182 588v94h248v-94h-248z" />
    <glyph glyph-name="Obreve" unicode="&#x14e;" horiz-adv-x="812" 
d="M46 350q-2 154 103 260t257 104q152 2 257 -104t103 -260q2 -154 -103 -260t-257 -104q-152 -2 -257 104t-103 260zM632 350q0 109 -64 175.5t-162 66.5t-162 -66.5t-64 -175.5t64 -175.5t162 -66.5t162 66.5t64 175.5zM292 881h76q0 -19 10 -31t28 -12t28 12t10 31h76
q0 -49 -31.5 -81t-82.5 -32t-82.5 32t-31.5 81z" />
    <glyph glyph-name="obreve" unicode="&#x14f;" horiz-adv-x="612" 
d="M35 248q0 121 79.5 191.5t191.5 70.5t191.5 -70.5t79.5 -191.5t-79.5 -191.5t-191.5 -70.5t-191.5 70.5t-79.5 191.5zM449 248q0 64 -42 104t-101 40t-101 -40t-42 -104t42 -104t101 -40t101 40t42 104zM192 677h76q0 -19 10 -31t28 -12t28 12t10 31h76q0 -49 -31.5 -81
t-82.5 -32t-82.5 32t-31.5 81z" />
    <glyph glyph-name="Ohungarumlaut" unicode="&#x150;" horiz-adv-x="812" 
d="M46 350q-2 154 103 260t257 104q152 2 257 -104t103 -260q2 -154 -103 -260t-257 -104q-152 -2 -257 104t-103 260zM632 350q0 109 -64 175.5t-162 66.5t-162 -66.5t-64 -175.5t64 -175.5t162 -66.5t162 66.5t64 175.5zM244 754l68 158h153l-124 -158h-97zM433 754
l68 158h153l-124 -158h-97z" />
    <glyph glyph-name="ohungarumlaut" unicode="&#x151;" horiz-adv-x="612" 
d="M35 248q0 121 79.5 191.5t191.5 70.5t191.5 -70.5t79.5 -191.5t-79.5 -191.5t-191.5 -70.5t-191.5 70.5t-79.5 191.5zM449 248q0 64 -42 104t-101 40t-101 -40t-42 -104t42 -104t101 -40t101 40t42 104zM144 550l68 158h153l-124 -158h-97zM333 550l68 158h153l-124 -158
h-97z" />
    <glyph glyph-name="OE" unicode="&#x152;" horiz-adv-x="1174" 
d="M46 350q-2 154 103 260t257 104q145 0 226 -93v79h483v-118h-351v-161h323v-118h-323v-185h354v-118h-486v87q-89 -101 -226 -101q-152 -2 -257 104t-103 260zM632 350q0 109 -64 175.5t-162 66.5t-162 -66.5t-64 -175.5t64 -175.5t162 -66.5q97 0 161.5 67.5t64.5 174.5
z" />
    <glyph glyph-name="oe" unicode="&#x153;" horiz-adv-x="996" 
d="M35 248q0 121 79.5 191.5t191.5 70.5q60 0 115.5 -24t94.5 -68q79 92 201 92q106 0 174 -69.5t68 -178.5v-44h-382q6 -57 43 -90.5t93 -33.5q93 0 137 91l94 -54q-72 -145 -233 -145q-118 0 -195 90q-38 -42 -94 -66t-116 -24q-112 0 -191.5 70.5t-79.5 191.5zM577 310
h266q-9 49 -43 76.5t-87 27.5q-48 0 -84.5 -29t-51.5 -75zM449 248q0 64 -42 104t-101 40t-101 -40t-42 -104t42 -104t101 -40t101 40t42 104z" />
    <glyph glyph-name="Racute" unicode="&#x154;" horiz-adv-x="662" 
d="M74 0v700h299q115 0 182 -53.5t67 -144.5q0 -149 -160 -206l169 -296h-151l-162 284h-112v-284h-132zM206 400h167q58 0 87.5 24t29.5 68t-29.5 68t-87.5 24h-167v-184zM275 754l68 158h153l-124 -158h-97z" />
    <glyph glyph-name="racute" unicode="&#x155;" horiz-adv-x="384" 
d="M63 0v496h126v-79q46 93 138 93q23 0 43 -6l-20 -119q-18 7 -41 7q-54 0 -87 -41t-33 -106v-245h-126zM163 550l69 158h153l-125 -158h-97z" />
    <glyph glyph-name="uni0156" unicode="&#x156;" horiz-adv-x="662" 
d="M74 0v700h299q115 0 182 -53.5t67 -144.5q0 -149 -160 -206l169 -296h-151l-162 284h-112v-284h-132zM206 400h167q58 0 87.5 24t29.5 68t-29.5 68t-87.5 24h-167v-184zM308 -314l-29 11l37 121h-44v122h126v-122z" />
    <glyph glyph-name="uni0157" unicode="&#x157;" horiz-adv-x="384" 
d="M63 0v496h126v-79q46 93 138 93q23 0 43 -6l-20 -119q-18 7 -41 7q-54 0 -87 -41t-33 -106v-245h-126zM99 -314l-29 11l37 121h-44v122h126v-122z" />
    <glyph glyph-name="Rcaron" unicode="&#x158;" horiz-adv-x="662" 
d="M74 0v700h299q115 0 182 -53.5t67 -144.5q0 -149 -160 -206l169 -296h-151l-162 284h-112v-284h-132zM206 400h167q58 0 87.5 24t29.5 68t-29.5 68t-87.5 24h-167v-184zM290 754l-113 157h99l59 -60l59 60h99l-113 -157h-90z" />
    <glyph glyph-name="rcaron" unicode="&#x159;" horiz-adv-x="384" 
d="M63 0v496h126v-79q46 93 138 93q23 0 43 -6l-20 -119q-18 7 -41 7q-54 0 -87 -41t-33 -106v-245h-126zM179 550l-113 157h99l59 -60l59 60h99l-113 -157h-90z" />
    <glyph glyph-name="Sacute" unicode="&#x15a;" horiz-adv-x="652" 
d="M44 210l116 59q31 -167 177 -167q59 0 94.5 26t35.5 68q0 46 -40.5 72t-132.5 44q-104 21 -161.5 74t-57.5 136q0 85 68.5 138.5t177.5 53.5q200 0 266 -180l-104 -60q-42 124 -165 124q-52 0 -84.5 -19t-32.5 -54q0 -40 40 -65.5t129 -43.5q117 -24 173 -76t56 -139
q0 -90 -72.5 -152.5t-188.5 -62.5q-122 0 -197 59.5t-97 164.5zM262 754l68 158h153l-124 -158h-97z" />
    <glyph glyph-name="sacute" unicode="&#x15b;" horiz-adv-x="489" 
d="M40 135l101 64q38 -107 128 -107q32 0 55 15t23 40q0 24 -24.5 38.5t-81.5 25.5q-173 33 -173 155q0 66 53.5 105t131.5 39t126 -29.5t79 -95.5l-91 -54q-33 87 -112 87q-34 0 -54.5 -11.5t-20.5 -32.5q0 -46 117 -70q87 -18 126.5 -54.5t39.5 -98.5q0 -72 -53.5 -118.5
t-142.5 -46.5q-83 0 -140.5 40t-86.5 109zM186 550l69 158h153l-125 -158h-97z" />
    <glyph glyph-name="Scircumflex" unicode="&#x15c;" horiz-adv-x="652" 
d="M44 210l116 59q31 -167 177 -167q59 0 94.5 26t35.5 68q0 46 -40.5 72t-132.5 44q-104 21 -161.5 74t-57.5 136q0 85 68.5 138.5t177.5 53.5q200 0 266 -180l-104 -60q-42 124 -165 124q-52 0 -84.5 -19t-32.5 -54q0 -40 40 -65.5t129 -43.5q117 -24 173 -76t56 -139
q0 -90 -72.5 -152.5t-188.5 -62.5q-122 0 -197 59.5t-97 164.5zM164 754l113 157h90l113 -157h-99l-59 60l-59 -60h-99z" />
    <glyph glyph-name="scircumflex" unicode="&#x15d;" horiz-adv-x="489" 
d="M40 135l101 64q38 -107 128 -107q32 0 55 15t23 40q0 24 -24.5 38.5t-81.5 25.5q-173 33 -173 155q0 66 53.5 105t131.5 39t126 -29.5t79 -95.5l-91 -54q-33 87 -112 87q-34 0 -54.5 -11.5t-20.5 -32.5q0 -46 117 -70q87 -18 126.5 -54.5t39.5 -98.5q0 -72 -53.5 -118.5
t-142.5 -46.5q-83 0 -140.5 40t-86.5 109zM89 550l113 157h90l113 -157h-99l-59 60l-59 -60h-99z" />
    <glyph glyph-name="Scedilla" unicode="&#x15e;" horiz-adv-x="652" 
d="M338 -14h-2l-23 -39q17 9 40 9q35 0 56.5 -22t21.5 -56q0 -37 -27 -59.5t-68 -22.5q-80 0 -94 61l66 17q4 -22 28 -22q25 0 25 25q0 29 -28 29q-23 0 -45 -18l-37 33l24 70q-95 14 -154 71.5t-77 147.5l116 59q31 -167 177 -167q59 0 94.5 26t35.5 68q0 46 -40.5 72
t-132.5 44q-104 21 -161.5 74t-57.5 136q0 85 68.5 138.5t177.5 53.5q200 0 266 -180l-104 -60q-42 124 -165 124q-52 0 -84.5 -19t-32.5 -54q0 -40 40 -65.5t129 -43.5q117 -24 173 -76t56 -139q0 -90 -72.5 -152.5t-188.5 -62.5z" />
    <glyph glyph-name="scedilla" unicode="&#x15f;" horiz-adv-x="489" 
d="M267 -14h-12l-23 -39q16 9 40 9q35 0 56.5 -22t21.5 -56q0 -37 -27 -59.5t-68 -22.5q-80 0 -94 61l66 17q4 -22 28 -22q25 0 25 25q0 29 -28 29q-22 0 -45 -18l-37 33l26 74q-110 30 -156 140l101 64q38 -107 128 -107q32 0 55 15t23 40q0 24 -24.5 38.5t-81.5 25.5
q-173 33 -173 155q0 66 53.5 105t131.5 39t126 -29.5t79 -95.5l-91 -54q-33 87 -112 87q-34 0 -54.5 -11.5t-20.5 -32.5q0 -46 117 -70q87 -18 126.5 -54.5t39.5 -98.5q0 -72 -53.5 -118.5t-142.5 -46.5z" />
    <glyph glyph-name="Scaron" unicode="&#x160;" horiz-adv-x="652" 
d="M44 210l116 59q31 -167 177 -167q59 0 94.5 26t35.5 68q0 46 -40.5 72t-132.5 44q-104 21 -161.5 74t-57.5 136q0 85 68.5 138.5t177.5 53.5q200 0 266 -180l-104 -60q-42 124 -165 124q-52 0 -84.5 -19t-32.5 -54q0 -40 40 -65.5t129 -43.5q117 -24 173 -76t56 -139
q0 -90 -72.5 -152.5t-188.5 -62.5q-122 0 -197 59.5t-97 164.5zM277 754l-113 157h99l59 -60l59 60h99l-113 -157h-90z" />
    <glyph glyph-name="scaron" unicode="&#x161;" horiz-adv-x="489" 
d="M40 135l101 64q38 -107 128 -107q32 0 55 15t23 40q0 24 -24.5 38.5t-81.5 25.5q-173 33 -173 155q0 66 53.5 105t131.5 39t126 -29.5t79 -95.5l-91 -54q-33 87 -112 87q-34 0 -54.5 -11.5t-20.5 -32.5q0 -46 117 -70q87 -18 126.5 -54.5t39.5 -98.5q0 -72 -53.5 -118.5
t-142.5 -46.5q-83 0 -140.5 40t-86.5 109zM202 550l-113 157h99l59 -60l59 60h99l-113 -157h-90z" />
    <glyph glyph-name="uni0162" unicode="&#x162;" horiz-adv-x="592" 
d="M362 0h-33l-31 -53q16 9 40 9q35 0 56.5 -22t21.5 -56q0 -37 -27 -59.5t-68 -22.5q-80 0 -94 61l66 17q4 -22 28 -22q25 0 25 25q0 29 -28 29q-22 0 -45 -18l-37 33l27 79h-33v578h-214v122h560v-122h-214v-578z" />
    <glyph glyph-name="uni0163" unicode="&#x163;" horiz-adv-x="368" 
d="M330 -122q0 -37 -27 -59.5t-68 -22.5q-80 0 -94 61l66 17q4 -22 28 -22q25 0 25 25q0 29 -28 29q-23 0 -45 -18l-37 33l28 80q-77 33 -77 143v250h-77v102h77v134h126v-134h108v-102h-108v-226q0 -70 63 -70q22 0 42 6l12 -104q-39 -14 -84 -14q-19 0 -24 1l-24 -40
q16 9 40 9q35 0 56.5 -22t21.5 -56z" />
    <glyph glyph-name="Tcaron" unicode="&#x164;" horiz-adv-x="592" 
d="M230 0v578h-214v122h560v-122h-214v-578h-132zM251 754l-113 157h99l59 -60l59 60h99l-113 -157h-90z" />
    <glyph glyph-name="tcaron" unicode="&#x165;" horiz-adv-x="368" 
d="M101 144v250h-77v102h77v134h126v-134h108v-102h-108v-226q0 -70 63 -70q22 0 42 6l12 -104q-39 -14 -84 -14q-159 0 -159 158zM300 547l-26 15l39 95h-45v106h106v-108z" />
    <glyph glyph-name="Tbar" unicode="&#x166;" horiz-adv-x="592" 
d="M230 0v344h-138v94h138v140h-214v122h560v-122h-214v-140h138v-94h-138v-344h-132z" />
    <glyph glyph-name="tbar" unicode="&#x167;" horiz-adv-x="368" 
d="M101 144v68h-65v96h65v86h-77v102h77v134h126v-134h108v-102h-108v-86h95v-96h-95v-44q0 -70 63 -70q22 0 42 6l12 -104q-39 -14 -84 -14q-159 0 -159 158z" />
    <glyph glyph-name="Utilde" unicode="&#x168;" horiz-adv-x="702" 
d="M64 265v435h132v-422q0 -81 41.5 -125.5t113.5 -44.5t113.5 44.5t41.5 125.5v422h132v-435q0 -129 -80 -204t-207 -75t-207 75t-80 204zM325 796q-28 24 -47 24q-10 0 -16.5 -6t-6.5 -16q0 -13 7 -26l-74 -15q-14 21 -14 53q0 41 29 66t69 25q34 0 55.5 -9.5t49.5 -32.5
q28 -24 47 -24q10 0 16.5 6t6.5 16q0 13 -7 26l74 15q14 -21 14 -53q0 -41 -29 -66t-69 -25q-34 0 -55.5 9.5t-49.5 32.5z" />
    <glyph glyph-name="utilde" unicode="&#x169;" horiz-adv-x="594" 
d="M63 188v308h126v-279q0 -113 101 -113q52 0 83.5 38t31.5 98v256h126v-496h-126v78q-50 -92 -158 -92q-83 0 -133.5 54t-50.5 148zM271 592q-28 24 -47 24q-10 0 -16.5 -6t-6.5 -16q0 -13 7 -26l-74 -15q-14 21 -14 53q0 41 29 66t69 25q34 0 55.5 -9.5t49.5 -32.5
q29 -24 47 -24q10 0 16.5 6t6.5 16q0 13 -7 26l74 15q14 -21 14 -53q0 -41 -29 -66t-69 -25q-34 0 -55.5 9.5t-49.5 32.5z" />
    <glyph glyph-name="Umacron" unicode="&#x16a;" horiz-adv-x="702" 
d="M64 265v435h132v-422q0 -81 41.5 -125.5t113.5 -44.5t113.5 44.5t41.5 125.5v422h132v-435q0 -129 -80 -204t-207 -75t-207 75t-80 204zM227 792v94h248v-94h-248z" />
    <glyph glyph-name="umacron" unicode="&#x16b;" horiz-adv-x="594" 
d="M63 188v308h126v-279q0 -113 101 -113q52 0 83.5 38t31.5 98v256h126v-496h-126v78q-50 -92 -158 -92q-83 0 -133.5 54t-50.5 148zM173 588v94h248v-94h-248z" />
    <glyph glyph-name="Ubreve" unicode="&#x16c;" horiz-adv-x="702" 
d="M64 265v435h132v-422q0 -81 41.5 -125.5t113.5 -44.5t113.5 44.5t41.5 125.5v422h132v-435q0 -129 -80 -204t-207 -75t-207 75t-80 204zM237 881h76q0 -19 10 -31t28 -12t28 12t10 31h76q0 -49 -31.5 -81t-82.5 -32t-82.5 32t-31.5 81z" />
    <glyph glyph-name="ubreve" unicode="&#x16d;" horiz-adv-x="594" 
d="M63 188v308h126v-279q0 -113 101 -113q52 0 83.5 38t31.5 98v256h126v-496h-126v78q-50 -92 -158 -92q-83 0 -133.5 54t-50.5 148zM183 677h76q0 -19 10 -31t28 -12t28 12t10 31h76q0 -49 -31.5 -81t-82.5 -32t-82.5 32t-31.5 81z" />
    <glyph glyph-name="Uring" unicode="&#x16e;" horiz-adv-x="702" 
d="M64 265v435h132v-422q0 -81 41.5 -125.5t113.5 -44.5t113.5 44.5t41.5 125.5v422h132v-435q0 -129 -80 -204t-207 -75t-207 75t-80 204zM256 839q0 40 28 67.5t68 27.5t68 -27.5t28 -67.5t-28 -67.5t-68 -27.5t-68 27.5t-28 67.5zM385 839q0 16 -9 25t-24 9t-24 -9
t-9 -25t9 -25t24 -9t24 9t9 25z" />
    <glyph glyph-name="uring" unicode="&#x16f;" horiz-adv-x="594" 
d="M63 188v308h126v-279q0 -113 101 -113q52 0 83.5 38t31.5 98v256h126v-496h-126v78q-50 -92 -158 -92q-83 0 -133.5 54t-50.5 148zM202 635q0 40 28 67.5t68 27.5t68 -27.5t28 -67.5t-28 -67.5t-68 -27.5t-68 27.5t-28 67.5zM331 635q0 16 -9 25t-24 9t-24 -9t-9 -25
t9 -25t24 -9t24 9t9 25z" />
    <glyph glyph-name="Uhungarumlaut" unicode="&#x170;" horiz-adv-x="702" 
d="M64 265v435h132v-422q0 -81 41.5 -125.5t113.5 -44.5t113.5 44.5t41.5 125.5v422h132v-435q0 -129 -80 -204t-207 -75t-207 75t-80 204zM189 754l68 158h153l-124 -158h-97zM378 754l68 158h153l-124 -158h-97z" />
    <glyph glyph-name="uhungarumlaut" unicode="&#x171;" horiz-adv-x="594" 
d="M63 188v308h126v-279q0 -113 101 -113q52 0 83.5 38t31.5 98v256h126v-496h-126v78q-50 -92 -158 -92q-83 0 -133.5 54t-50.5 148zM135 550l68 158h153l-124 -158h-97zM324 550l68 158h153l-124 -158h-97z" />
    <glyph glyph-name="Uogonek" unicode="&#x172;" horiz-adv-x="702" 
d="M506 700h132v-435q0 -101 -50 -169.5t-138 -95.5q-71 -40 -71 -78q0 -18 11.5 -28t29.5 -10q4 0 22 2l11 -77q-24 -7 -60 -7q-47 0 -80.5 25.5t-33.5 68.5q0 51 43 91q-116 9 -187 82.5t-71 195.5v435h132v-422q0 -81 41.5 -125.5t113.5 -44.5t113.5 44.5t41.5 125.5v422
z" />
    <glyph glyph-name="uogonek" unicode="&#x173;" horiz-adv-x="594" 
d="M522 -114l11 -77q-24 -7 -60 -7q-47 0 -80.5 25.5t-33.5 68.5q0 60 59 104h-13v78q-50 -92 -158 -92q-83 0 -133.5 54t-50.5 148v308h126v-279q0 -113 101 -113q52 0 83.5 38t31.5 98v256h126v-496q-72 -40 -72 -78q0 -18 11.5 -28t29.5 -10q4 0 22 2z" />
    <glyph glyph-name="Wcircumflex" unicode="&#x174;" horiz-adv-x="942" 
d="M198 0l-193 700h139l111 -442l17 -76l17 77l114 441h136l114 -441l17 -77l17 76l111 442h139l-193 -700h-142l-131 508l-131 -508h-142zM313 754l113 157h90l113 -157h-99l-59 60l-59 -60h-99z" />
    <glyph glyph-name="wcircumflex" unicode="&#x175;" horiz-adv-x="714" 
d="M144 0l-138 496h122l80 -332l89 332h120l89 -332l80 332h122l-138 -496h-122l-91 341l-91 -341h-122zM199 550l113 157h90l113 -157h-99l-59 60l-59 -60h-99z" />
    <glyph glyph-name="Ycircumflex" unicode="&#x176;" horiz-adv-x="602" 
d="M235 0v274l-231 426h145l130 -249q10 -20 22 -51q12 31 22 51l130 249h145l-231 -426v-274h-132zM143 754l113 157h90l113 -157h-99l-59 60l-59 -60h-99z" />
    <glyph glyph-name="ycircumflex" unicode="&#x177;" horiz-adv-x="546" 
d="M72 -200l20 117q22 -12 45 -12q39 0 56 47l16 44l-204 500h143l128 -322l122 322h143l-236 -586q-26 -64 -65.5 -92.5t-98.5 -28.5q-39 0 -69 11zM115 550l113 157h90l113 -157h-99l-59 60l-59 -60h-99z" />
    <glyph glyph-name="Ydieresis" unicode="&#x178;" horiz-adv-x="602" 
d="M235 0v274l-231 426h145l130 -249q10 -20 22 -51q12 31 22 51l130 249h145l-231 -426v-274h-132zM152 780v124h118v-124h-118zM332 780v124h118v-124h-118z" />
    <glyph glyph-name="Zacute" unicode="&#x179;" horiz-adv-x="614" 
d="M35 0v120l368 458h-355v122h512v-122l-366 -456h383v-122h-542zM249 754l68 158h153l-124 -158h-97z" />
    <glyph glyph-name="zacute" unicode="&#x17a;" horiz-adv-x="496" 
d="M36 0v102l261 292h-250v102h396v-102l-262 -292h279v-102h-424zM186 550l69 158h153l-125 -158h-97z" />
    <glyph glyph-name="Zdotaccent" unicode="&#x17b;" horiz-adv-x="614" 
d="M35 0v120l368 458h-355v122h512v-122l-366 -456h383v-122h-542zM240 772v132h138v-132h-138z" />
    <glyph glyph-name="zdotaccent" unicode="&#x17c;" horiz-adv-x="496" 
d="M36 0v102l261 292h-250v102h396v-102l-262 -292h279v-102h-424zM178 568v132h138v-132h-138z" />
    <glyph glyph-name="Zcaron" unicode="&#x17d;" horiz-adv-x="614" 
d="M35 0v120l368 458h-355v122h512v-122l-366 -456h383v-122h-542zM264 754l-113 157h99l59 -60l59 60h99l-113 -157h-90z" />
    <glyph glyph-name="zcaron" unicode="&#x17e;" horiz-adv-x="496" 
d="M36 0v102l261 292h-250v102h396v-102l-262 -292h279v-102h-424zM202 550l-113 157h99l59 -60l59 60h99l-113 -157h-90z" />
    <glyph glyph-name="florin" unicode="&#x192;" horiz-adv-x="354" 
d="M-4 -207l22 113q18 -8 35 -8q27 0 38.5 14.5t11.5 47.5v434h-72v102h72v70q0 88 48 136t128 48q33 0 63 -11l-22 -111q-18 6 -35 6q-56 0 -56 -65v-73h108v-102h-108v-428q0 -89 -44 -136.5t-126 -47.5q-33 0 -63 11z" />
    <glyph glyph-name="uni01B5" unicode="&#x1b5;" horiz-adv-x="614" 
d="M35 0v120l150 187h-122v94h198l142 177h-355v122h512v-122l-142 -177h127v-94h-203l-148 -185h383v-122h-542z" />
    <glyph glyph-name="uni01B6" unicode="&#x1b6;" horiz-adv-x="496" 
d="M36 0v102l96 108h-68v96h154l79 88h-250v102h396v-102l-79 -88h68v-96h-154l-97 -108h279v-102h-424z" />
    <glyph glyph-name="AEacute" unicode="&#x1fc;" horiz-adv-x="986" 
d="M5 0l320 700h602v-118h-351v-161h323v-118h-323v-185h354v-118h-486v183h-220l-81 -183h-138zM276 301h168v281h-43zM541 754l68 158h153l-124 -158h-97z" />
    <glyph glyph-name="aeacute" unicode="&#x1fd;" horiz-adv-x="915" 
d="M43 141q0 78 61.5 123.5t168.5 45.5h97v13q0 53 -19.5 76t-71.5 23q-42 0 -65.5 -15.5t-23.5 -40.5q0 -4 2 -12l-113 -38q-9 20 -9 42q0 61 55.5 106.5t142.5 45.5q131 0 185 -71q76 71 183 71q106 0 174 -69.5t68 -178.5v-44h-382q6 -57 43 -90.5t93 -33.5q93 0 137 91
l94 -54q-72 -145 -233 -145q-65 0 -120.5 30t-90.5 83q-27 -55 -78.5 -84t-113.5 -29q-82 0 -133 42.5t-51 112.5zM496 310h266q-9 49 -43 76.5t-87 27.5q-48 0 -84.5 -29t-51.5 -75zM370 213v5h-105q-46 0 -72.5 -20t-26.5 -52q0 -27 20 -42.5t53 -15.5q56 0 93.5 35
t37.5 90zM397 550l69 158h153l-125 -158h-97z" />
    <glyph glyph-name="uni0218" unicode="&#x218;" horiz-adv-x="652" 
d="M44 210l116 59q31 -167 177 -167q59 0 94.5 26t35.5 68q0 46 -40.5 72t-132.5 44q-104 21 -161.5 74t-57.5 136q0 85 68.5 138.5t177.5 53.5q200 0 266 -180l-104 -60q-42 124 -165 124q-52 0 -84.5 -19t-32.5 -54q0 -40 40 -65.5t129 -43.5q117 -24 173 -76t56 -139
q0 -90 -72.5 -152.5t-188.5 -62.5q-122 0 -197 59.5t-97 164.5zM310 -314l-29 11l37 121h-44v122h126v-122z" />
    <glyph glyph-name="uni0219" unicode="&#x219;" horiz-adv-x="489" 
d="M40 135l101 64q38 -107 128 -107q32 0 55 15t23 40q0 24 -24.5 38.5t-81.5 25.5q-173 33 -173 155q0 66 53.5 105t131.5 39t126 -29.5t79 -95.5l-91 -54q-33 87 -112 87q-34 0 -54.5 -11.5t-20.5 -32.5q0 -46 117 -70q87 -18 126.5 -54.5t39.5 -98.5q0 -72 -53.5 -118.5
t-142.5 -46.5q-83 0 -140.5 40t-86.5 109zM233 -314l-29 11l37 121h-44v122h126v-122z" />
    <glyph glyph-name="uni021A" unicode="&#x21a;" horiz-adv-x="592" 
d="M230 0v578h-214v122h560v-122h-214v-578h-132zM269 -314l-29 11l37 121h-44v122h126v-122z" />
    <glyph glyph-name="uni021B" unicode="&#x21b;" horiz-adv-x="368" 
d="M101 144v250h-77v102h77v134h126v-134h108v-102h-108v-226q0 -70 63 -70q22 0 42 6l12 -104q-39 -14 -84 -14q-159 0 -159 158zM213 -314l-29 11l37 121h-44v122h126v-122z" />
    <glyph glyph-name="uni0237" unicode="&#x237;" horiz-adv-x="252" 
d="M-48 -201l16 114q21 -8 39 -8q56 0 56 71v520h126v-534q0 -173 -162 -173q-41 0 -75 10z" />
    <glyph glyph-name="uni02BC" unicode="&#x2bc;" horiz-adv-x="214" 
d="M54 412l-26 18l68 136h-53v134h134v-134z" />
    <glyph glyph-name="circumflex" unicode="&#x2c6;" horiz-adv-x="408" 
d="M46 550l113 157h90l113 -157h-99l-59 60l-59 -60h-99z" />
    <glyph glyph-name="caron" unicode="&#x2c7;" horiz-adv-x="408" 
d="M159 550l-113 157h99l59 -60l59 60h99l-113 -157h-90z" />
    <glyph glyph-name="uni02C9" unicode="&#x2c9;" horiz-adv-x="328" 
d="M40 588v94h248v-94h-248z" />
    <glyph glyph-name="breve" unicode="&#x2d8;" horiz-adv-x="294" 
d="M33 677h76q0 -19 10 -31t28 -12t28 12t10 31h76q0 -49 -31.5 -81t-82.5 -32t-82.5 32t-31.5 81z" />
    <glyph glyph-name="dotaccent" unicode="&#x2d9;" horiz-adv-x="250" 
d="M56 568v132h138v-132h-138z" />
    <glyph glyph-name="ring" unicode="&#x2da;" horiz-adv-x="274" 
d="M41 635q0 40 28 67.5t68 27.5t68 -27.5t28 -67.5t-28 -67.5t-68 -27.5t-68 27.5t-28 67.5zM170 635q0 16 -9 25t-24 9t-24 -9t-9 -25t9 -25t24 -9t24 9t9 25z" />
    <glyph glyph-name="ogonek" unicode="&#x2db;" horiz-adv-x="224" 
d="M28 -104q0 70 77 116l95 -12q-72 -40 -72 -78q0 -18 11.5 -28t29.5 -10q4 0 22 2l11 -77q-24 -7 -60 -7q-47 0 -80.5 25.5t-33.5 68.5z" />
    <glyph glyph-name="tilde" unicode="&#x2dc;" horiz-adv-x="470" 
d="M209 592q-29 24 -47 24q-10 0 -16.5 -6t-6.5 -16q0 -13 7 -26l-74 -15q-14 21 -14 53q0 41 29 66t69 25q34 0 55.5 -9.5t49.5 -32.5q29 -24 47 -24q10 0 16.5 6t6.5 16q0 13 -7 26l74 15q14 -21 14 -53q0 -41 -29 -66t-69 -25q-34 0 -55.5 9.5t-49.5 32.5z" />
    <glyph glyph-name="hungarumlaut" unicode="&#x2dd;" horiz-adv-x="516" 
d="M53 550l68 158h153l-124 -158h-97zM242 550l68 158h153l-124 -158h-97z" />
    <glyph glyph-name="gravecomb" unicode="&#x300;" 
d="M-97 550l-124 158h153l68 -158h-97z" />
    <glyph glyph-name="acutecomb" unicode="&#x301;" 
d="M-222 550l69 158h153l-125 -158h-97z" />
    <glyph glyph-name="uni0302" unicode="&#x302;" 
d="M-316 550l113 157h90l113 -157h-99l-59 60l-59 -60h-99z" />
    <glyph glyph-name="tildecomb" unicode="&#x303;" 
d="M-203 592q-28 24 -47 24q-10 0 -16.5 -6t-6.5 -16q0 -13 7 -26l-74 -15q-14 21 -14 53q0 41 29 66t69 25q34 0 55.5 -9.5t49.5 -32.5q29 -24 47 -24q10 0 16.5 6t6.5 16q0 13 -7 26l74 15q14 -21 14 -53q0 -41 -29 -66t-69 -25q-34 0 -55.5 9.5t-49.5 32.5z" />
    <glyph glyph-name="uni0304" unicode="&#x304;" 
d="M-248 588v94h248v-94h-248z" />
    <glyph glyph-name="uni0306" unicode="&#x306;" 
d="M-228 677h76q0 -19 10 -31t28 -12t28 12t10 31h76q0 -49 -31.5 -81t-82.5 -32t-82.5 32t-31.5 81z" />
    <glyph glyph-name="uni0307" unicode="&#x307;" 
d="M-138 568v132h138v-132h-138z" />
    <glyph glyph-name="uni0308" unicode="&#x308;" 
d="M-298 576v124h118v-124h-118zM-118 576v124h118v-124h-118z" />
    <glyph glyph-name="uni030A" unicode="&#x30a;" 
d="M-192 635q0 40 28 67.5t68 27.5t68 -27.5t28 -67.5t-28 -67.5t-68 -27.5t-68 27.5t-28 67.5zM-63 635q0 16 -9 25t-24 9t-24 -9t-9 -25t9 -25t24 -9t24 9t9 25z" />
    <glyph glyph-name="uni030B" unicode="&#x30b;" 
d="M-410 550l68 158h153l-124 -158h-97zM-221 550l68 158h153l-124 -158h-97z" />
    <glyph glyph-name="uni030C" unicode="&#x30c;" 
d="M-203 550l-113 157h99l59 -60l59 60h99l-113 -157h-90z" />
    <glyph glyph-name="uni0312" unicode="&#x312;" 
d="M-136 563v123l111 136l25 -18l-61 -118h51v-123h-126z" />
    <glyph glyph-name="uni0326" unicode="&#x326;" 
d="M-90 -314l-29 11l37 121h-44v122h126v-122z" />
    <glyph glyph-name="uni0327" unicode="&#x327;" 
d="M-189 -143l66 17q4 -22 28 -22q25 0 25 25q0 29 -28 29q-22 0 -45 -18l-37 33l33 95h70l-41 -69q16 9 40 9q34 0 56 -22t22 -56q0 -37 -27 -59.5t-68 -22.5q-80 0 -94 61z" />
    <glyph glyph-name="uni0328" unicode="&#x328;" 
d="M-174 -104q0 70 77 116l95 -12q-72 -40 -72 -78q0 -18 11.5 -28t29.5 -10q4 0 22 2l11 -77q-24 -7 -60 -7q-47 0 -80.5 25.5t-33.5 68.5z" />
    <glyph glyph-name="uni0335" unicode="&#x335;" 
d="M-348 304v96h348v-96h-348z" />
    <glyph glyph-name="uni0336" unicode="&#x336;" 
d="M-742 484v94h742v-94h-742z" />
    <glyph glyph-name="uni0337" unicode="&#x337;" 
d="M-256 138v110l256 163v-110z" />
    <glyph glyph-name="uni0338" unicode="&#x338;" 
d="M-311 -42l-83 51l311 529l83 -51z" />
    <glyph glyph-name="uni0374" unicode="&#x374;" horiz-adv-x="309" 
d="M50 420l63 288h146l-119 -288h-90z" />
    <glyph glyph-name="uni0375" unicode="&#x375;" horiz-adv-x="309" 
d="M50 -158l119 288h90l-63 -288h-146z" />
    <glyph glyph-name="uni037A" unicode="&#x37a;" horiz-adv-x="235" 
d="M36 -73v53h106v-30q0 -53 45 -53q17 0 27 3v-89q-22 -9 -58 -9q-56 0 -88 31t-32 94z" />
    <glyph glyph-name="uni037E" unicode="&#x37e;" horiz-adv-x="214" 
d="M40 350v134h134v-134h-134zM73 -162l-29 11l41 151h-45v134h134v-134z" />
    <glyph glyph-name="tonos" unicode="&#x384;" horiz-adv-x="300" 
d="M55 542l46 158h144l-102 -158h-88z" />
    <glyph glyph-name="dieresistonos" unicode="&#x385;" horiz-adv-x="494" 
d="M151 550l46 158h144l-102 -158h-88zM17 576v124h118v-124h-118zM359 576v124h118v-124h-118z" />
    <glyph glyph-name="Alphatonos" unicode="&#x386;" horiz-adv-x="702" 
d="M5 0l283 700h126l283 -700h-141l-70 183h-270l-70 -183h-141zM261 301h180l-64 168q-17 44 -26 76q-9 -32 -26 -76zM37 542l46 158h144l-102 -158h-88z" />
    <glyph glyph-name="anoteleia" unicode="&#x387;" horiz-adv-x="214" 
d="M40 300v134h134v-134h-134z" />
    <glyph glyph-name="Epsilontonos" unicode="&#x388;" horiz-adv-x="616" 
d="M74 0v700h483v-118h-351v-161h323v-118h-323v-185h354v-118h-486zM-136 542l46 158h144l-102 -158h-88z" />
    <glyph glyph-name="Etatonos" unicode="&#x389;" horiz-adv-x="718" 
d="M74 0v700h132v-282h306v282h132v-700h-132v296h-306v-296h-132zM-136 542l46 158h144l-102 -158h-88z" />
    <glyph glyph-name="Iotatonos" unicode="&#x38a;" horiz-adv-x="280" 
d="M74 0v700h132v-700h-132zM-136 542l46 158h144l-102 -158h-88z" />
    <glyph glyph-name="Omicrontonos" unicode="&#x38c;" horiz-adv-x="812" 
d="M46 350q-2 154 103 260t257 104q152 2 257 -104t103 -260q2 -154 -103 -260t-257 -104q-152 -2 -257 104t-103 260zM632 350q0 109 -64 175.5t-162 66.5t-162 -66.5t-64 -175.5t64 -175.5t162 -66.5t162 66.5t64 175.5zM-38 542l46 158h144l-102 -158h-88z" />
    <glyph glyph-name="Upsilontonos" unicode="&#x38e;" horiz-adv-x="602" 
d="M235 0v274l-231 426h145l130 -249q10 -20 22 -51q12 31 22 51l130 249h145l-231 -426v-274h-132zM-212 542l46 158h144l-102 -158h-88z" />
    <glyph glyph-name="Omegatonos" unicode="&#x38f;" horiz-adv-x="784" 
d="M58 0v96h138q-68 52 -109 128t-41 167q-2 137 99.5 231t246.5 92q145 2 246.5 -92t99.5 -231q0 -91 -41 -167t-109 -128h138v-96h-288v110q75 45 121.5 117t46.5 157q0 91 -60 149.5t-154 58.5t-154 -58.5t-60 -149.5q0 -85 46.5 -157t121.5 -117v-110h-288zM-59 542
l46 158h144l-102 -158h-88z" />
    <glyph glyph-name="iotadieresistonos" unicode="&#x390;" horiz-adv-x="323" 
d="M63 144v352h126v-330q0 -68 60 -68q19 0 38 6l12 -104q-45 -14 -80 -14q-156 0 -156 158zM30 550l46 158h144l-102 -158h-88zM-104 576v124h118v-124h-118zM238 576v124h118v-124h-118z" />
    <glyph glyph-name="Alpha" unicode="&#x391;" horiz-adv-x="702" 
d="M5 0l283 700h126l283 -700h-141l-70 183h-270l-70 -183h-141zM261 301h180l-64 168q-17 44 -26 76q-9 -32 -26 -76z" />
    <glyph glyph-name="Beta" unicode="&#x392;" horiz-adv-x="661" 
d="M74 0v700h288q107 0 165.5 -45t58.5 -126q0 -49 -26.5 -88t-70.5 -61q126 -50 126 -170q0 -94 -71.5 -152t-176.5 -58h-293zM206 428h146q106 0 106 78t-106 78h-146v-156zM206 118h153q124 0 124 97t-124 97h-153v-194z" />
    <glyph glyph-name="Gamma" unicode="&#x393;" horiz-adv-x="573" 
d="M74 0v700h483v-118h-351v-582h-132z" />
    <glyph glyph-name="uni0394" unicode="&#x394;" horiz-adv-x="702" 
d="M5 0l283 700h126l283 -700h-692zM191 118h320l-134 351q-18 50 -26 76q-8 -26 -26 -76z" />
    <glyph glyph-name="Epsilon" unicode="&#x395;" horiz-adv-x="616" 
d="M74 0v700h483v-118h-351v-161h323v-118h-323v-185h354v-118h-486z" />
    <glyph glyph-name="Zeta" unicode="&#x396;" horiz-adv-x="614" 
d="M35 0v120l368 458h-355v122h512v-122l-366 -456h383v-122h-542z" />
    <glyph glyph-name="Eta" unicode="&#x397;" horiz-adv-x="718" 
d="M74 0v700h132v-282h306v282h132v-700h-132v296h-306v-296h-132z" />
    <glyph glyph-name="Theta" unicode="&#x398;" horiz-adv-x="704" 
d="M46 350q0 159 82.5 261.5t223.5 102.5t223.5 -102.5t82.5 -261.5t-82.5 -261.5t-223.5 -102.5t-223.5 102.5t-82.5 261.5zM183 408h338q-11 89 -54.5 136.5t-114.5 47.5q-72 0 -115 -47.5t-54 -136.5zM521 292h-338q11 -89 54 -136.5t115 -47.5q71 0 114.5 47.5
t54.5 136.5z" />
    <glyph glyph-name="Iota" unicode="&#x399;" horiz-adv-x="280" 
d="M74 0v700h132v-700h-132z" />
    <glyph glyph-name="Kappa" unicode="&#x39a;" horiz-adv-x="658" 
d="M74 0v700h132v-270l55 62l196 208h167l-248 -260l264 -440h-154l-205 342l-75 -79v-263h-132z" />
    <glyph glyph-name="Lambda" unicode="&#x39b;" horiz-adv-x="666" 
d="M5 0l261 700h134l261 -700h-147l-155 448l-26 89l-26 -89l-155 -448h-147z" />
    <glyph glyph-name="Mu" unicode="&#x39c;" horiz-adv-x="872" 
d="M74 0v700h139l223 -556l223 556h139v-700h-128v428q-19 -73 -34 -107l-137 -321h-126l-137 321q-15 34 -34 107v-428h-128z" />
    <glyph glyph-name="Nu" unicode="&#x39d;" horiz-adv-x="732" 
d="M74 0v700h134l292 -445q22 -38 30 -55v500h128v-700h-134l-292 448q-22 38 -30 55v-503h-128z" />
    <glyph glyph-name="Xi" unicode="&#x39e;" horiz-adv-x="610" 
d="M58 582v118h494v-118h-494zM86 303v118h438v-118h-438zM55 0v118h500v-118h-500z" />
    <glyph glyph-name="Omicron" unicode="&#x39f;" horiz-adv-x="812" 
d="M46 350q-2 154 103 260t257 104q152 2 257 -104t103 -260q2 -154 -103 -260t-257 -104q-152 -2 -257 104t-103 260zM632 350q0 109 -64 175.5t-162 66.5t-162 -66.5t-64 -175.5t64 -175.5t162 -66.5t162 66.5t64 175.5z" />
    <glyph glyph-name="Pi" unicode="&#x3a0;" horiz-adv-x="702" 
d="M74 0v700h554v-700h-132v578h-290v-578h-132z" />
    <glyph glyph-name="Rho" unicode="&#x3a1;" horiz-adv-x="695" 
d="M74 0v700h318q122 0 192 -60t70 -168t-70 -168t-192 -60h-186v-244h-132zM206 362h182q66 0 100 29t34 81t-34 81t-100 29h-182v-220z" />
    <glyph glyph-name="Sigma" unicode="&#x3a3;" horiz-adv-x="596" 
d="M40 0v122l193 228l-185 228v122h501v-122h-345l181 -228l-189 -228h364v-122h-520z" />
    <glyph glyph-name="Tau" unicode="&#x3a4;" horiz-adv-x="592" 
d="M230 0v578h-214v122h560v-122h-214v-578h-132z" />
    <glyph glyph-name="Upsilon" unicode="&#x3a5;" horiz-adv-x="602" 
d="M235 0v274l-231 426h145l130 -249q10 -20 22 -51q12 31 22 51l130 249h145l-231 -426v-274h-132z" />
    <glyph glyph-name="Phi" unicode="&#x3a6;" horiz-adv-x="842" 
d="M353 -14v72h-4q-79 -1 -149 33t-115.5 102.5t-43.5 156.5q-2 88 43.5 156.5t115.5 102.5t149 33h4v72h136v-72h4q79 1 149 -33t115.5 -102.5t43.5 -156.5q2 -88 -43.5 -156.5t-115.5 -102.5t-149 -33h-4v-72h-136zM344 170h9v360h-9q-75 0 -126 -48.5t-51 -131.5
t51 -131.5t126 -48.5zM489 170h9q75 0 126 48.5t51 131.5t-51 131.5t-126 48.5h-9v-360z" />
    <glyph glyph-name="Chi" unicode="&#x3a7;" horiz-adv-x="617" 
d="M3 0l234 376l-203 324h141l133 -222l140 222h134l-200 -319l231 -381h-141l-164 270l-163 -270h-142z" />
    <glyph glyph-name="Psi" unicode="&#x3a8;" horiz-adv-x="792" 
d="M330 0v160q-132 0 -201 72.5t-69 213.5v254h132v-250q0 -84 36 -129t102 -45v424h132v-424q66 0 102 45t36 129v250h132v-254q0 -141 -69 -213.5t-201 -72.5v-160h-132z" />
    <glyph glyph-name="uni03A9" unicode="&#x3a9;" horiz-adv-x="784" 
d="M58 0v96h138q-68 52 -109 128t-41 167q-2 137 99.5 231t246.5 92q145 2 246.5 -92t99.5 -231q0 -91 -41 -167t-109 -128h138v-96h-288v110q75 45 121.5 117t46.5 157q0 91 -60 149.5t-154 58.5t-154 -58.5t-60 -149.5q0 -85 46.5 -157t121.5 -117v-110h-288z" />
    <glyph glyph-name="Iotadieresis" unicode="&#x3aa;" horiz-adv-x="280" 
d="M74 0v700h132v-700h-132zM-9 780v124h118v-124h-118zM171 780v124h118v-124h-118z" />
    <glyph glyph-name="Upsilondieresis" unicode="&#x3ab;" horiz-adv-x="602" 
d="M235 0v274l-231 426h145l130 -249q10 -20 22 -51q12 31 22 51l130 249h145l-231 -426v-274h-132zM152 780v124h118v-124h-118zM332 780v124h118v-124h-118z" />
    <glyph glyph-name="alphatonos" unicode="&#x3ac;" horiz-adv-x="687" 
d="M35 248q0 115 72 188.5t168 73.5q119 0 185 -84l13 70h128l-55 -287q6 -57 19 -85t39 -28q19 0 38 13l26 -109q-42 -14 -75 -14q-97 0 -133 88q-57 -88 -168 -88q-110 0 -183.5 73t-73.5 189zM435 248q0 63 -38 103.5t-98 40.5t-98 -40.5t-38 -103.5t38 -103.5t98 -40.5
t98 40.5t38 103.5zM283 542l46 158h144l-102 -158h-88z" />
    <glyph glyph-name="epsilontonos" unicode="&#x3ad;" horiz-adv-x="487" 
d="M41 146q0 87 95 122q-73 36 -73 112q0 58 52 94t137 36t131.5 -37t46.5 -99q0 -32 -15 -58l-99 36q3 8 3 18q0 23 -20.5 36.5t-48.5 13.5q-33 0 -54 -14t-21 -38q0 -60 101 -60v-87q-52 0 -82.5 -18.5t-30.5 -51.5q0 -30 24 -48.5t61 -18.5t58.5 16t21.5 45q0 12 -5 27
l108 36q16 -27 16 -61q0 -79 -52 -120t-150 -41q-95 0 -149.5 44.5t-54.5 115.5zM200 542l46 158h144l-102 -158h-88z" />
    <glyph glyph-name="etatonos" unicode="&#x3ae;" horiz-adv-x="594" 
d="M405 -204v490q0 106 -101 106q-50 0 -82.5 -39t-32.5 -101v-252h-126v496h126v-80q62 94 168 94q79 0 126.5 -47t47.5 -125v-542h-126zM253 542l46 158h144l-102 -158h-88z" />
    <glyph glyph-name="iotatonos" unicode="&#x3af;" horiz-adv-x="323" 
d="M63 144v352h126v-330q0 -68 60 -68q19 0 38 6l12 -104q-45 -14 -80 -14q-156 0 -156 158zM82 542l46 158h144l-102 -158h-88z" />
    <glyph glyph-name="upsilondieresistonos" unicode="&#x3b0;" horiz-adv-x="582" 
d="M63 215v281h126v-279q0 -54 26.5 -83.5t75.5 -29.5t75.5 29.5t26.5 83.5v279h126v-281q0 -110 -61 -169.5t-167 -59.5t-167 59.5t-61 169.5zM195 550l46 158h144l-102 -158h-88zM61 576v124h118v-124h-118zM403 576v124h118v-124h-118z" />
    <glyph glyph-name="alpha" unicode="&#x3b1;" horiz-adv-x="687" 
d="M35 248q0 115 72 188.5t168 73.5q119 0 185 -84l13 70h128l-55 -287q6 -57 19 -85t39 -28q19 0 38 13l26 -109q-42 -14 -75 -14q-97 0 -133 88q-57 -88 -168 -88q-110 0 -183.5 73t-73.5 189zM435 248q0 63 -38 103.5t-98 40.5t-98 -40.5t-38 -103.5t38 -103.5t98 -40.5
t98 40.5t38 103.5z" />
    <glyph glyph-name="beta" unicode="&#x3b2;" horiz-adv-x="590" 
d="M64 -204v700q0 103 62.5 160.5t155.5 57.5q96 0 154 -47.5t58 -125.5q0 -101 -99 -149q71 -25 112 -74t41 -120q0 -92 -59.5 -152t-150.5 -60q-98 0 -148 67v-257h-126zM422 204q0 60 -43.5 91t-114.5 31h-31v110h30q52 0 80 23t28 67q0 35 -23.5 56.5t-63.5 21.5
q-42 0 -68 -28t-26 -79v-266q0 -62 35 -98.5t88 -36.5q49 0 79 28.5t30 79.5z" />
    <glyph glyph-name="gamma" unicode="&#x3b3;" horiz-adv-x="548" 
d="M211 -204v214l-197 486h137l123 -336l123 336h137l-197 -486v-214h-126z" />
    <glyph glyph-name="delta" unicode="&#x3b4;" horiz-adv-x="578" 
d="M41 224q0 93 64 159t161 73l-191 168v76h370v-98h-190l165 -146q62 -55 88 -104q29 -52 29 -128q0 -103 -73.5 -170.5t-175.5 -67.5q-105 0 -176 64t-71 174zM417 224q0 57 -37 93.5t-92 36.5t-92 -36.5t-37 -93.5q0 -59 36 -94.5t93 -35.5t93 35.5t36 94.5z" />
    <glyph glyph-name="epsilon" unicode="&#x3b5;" horiz-adv-x="487" 
d="M41 146q0 87 95 122q-73 36 -73 112q0 58 52 94t137 36t131.5 -37t46.5 -99q0 -32 -15 -58l-99 36q3 8 3 18q0 23 -20.5 36.5t-48.5 13.5q-33 0 -54 -14t-21 -38q0 -60 101 -60v-87q-52 0 -82.5 -18.5t-30.5 -51.5q0 -30 24 -48.5t61 -18.5t58.5 16t21.5 45q0 12 -5 27
l108 36q16 -27 16 -61q0 -79 -52 -120t-150 -41q-95 0 -149.5 44.5t-54.5 115.5z" />
    <glyph glyph-name="zeta" unicode="&#x3b6;" horiz-adv-x="511" 
d="M437 -144l-89 71q16 19 16 36q0 37 -53 37q-270 0 -270 239q0 113 72 207q75 96 176 152h-236v102h368v-102q-110 -56 -182 -148.5t-72 -180.5q0 -152 169 -153q75 -1 115.5 -37.5t40.5 -102.5q0 -59 -55 -120z" />
    <glyph glyph-name="eta" unicode="&#x3b7;" horiz-adv-x="594" 
d="M405 -204v490q0 106 -101 106q-50 0 -82.5 -39t-32.5 -101v-252h-126v496h126v-80q62 94 168 94q79 0 126.5 -47t47.5 -125v-542h-126z" />
    <glyph glyph-name="theta" unicode="&#x3b8;" horiz-adv-x="640" 
d="M41 350q0 170 77.5 267t201.5 97t201.5 -97t77.5 -267q0 -171 -75.5 -267.5t-203.5 -96.5t-203.5 96.5t-75.5 267.5zM173 408h294q-17 188 -147 188t-147 -188zM467 292h-294q17 -188 147 -188t147 188z" />
    <glyph glyph-name="iota" unicode="&#x3b9;" horiz-adv-x="323" 
d="M63 144v352h126v-330q0 -68 60 -68q19 0 38 6l12 -104q-45 -14 -80 -14q-156 0 -156 158z" />
    <glyph glyph-name="kappa" unicode="&#x3ba;" horiz-adv-x="541" 
d="M63 0v496h126v-158l151 158h156l-186 -190l210 -306h-145l-152 217l-34 -35v-182h-126z" />
    <glyph glyph-name="lambda" unicode="&#x3bb;" horiz-adv-x="546" 
d="M5 0l204 500l-16 44q-17 48 -56 48q-23 0 -45 -12l-20 115q32 12 69 12q59 0 98.5 -28.5t65.5 -92.5l236 -586h-143l-122 322l-128 -322h-143z" />
    <glyph glyph-name="uni03BC" unicode="&#x3bc;" horiz-adv-x="594" 
d="M63 -204v700h126v-279q0 -113 101 -113q52 0 83.5 38t31.5 98v256h126v-496h-126v78q-50 -92 -158 -92q-33 0 -61 9q3 -57 3 -68v-131h-126z" />
    <glyph glyph-name="nu" unicode="&#x3bd;" horiz-adv-x="534" 
d="M208 0l-201 496h134l126 -336l126 336h134l-201 -496h-118z" />
    <glyph glyph-name="xi" unicode="&#x3be;" horiz-adv-x="548" 
d="M423 -157l-76 69q18 20 18 37q0 20 -14 28.5t-46 8.5q-117 0 -190 58.5t-73 150.5q0 134 136 189q-45 23 -74 63.5t-29 91.5q0 78 61 126.5t163 48.5q108 0 163 -45.5t55 -125.5q0 -35 -13 -64l-119 26q6 17 6 34q0 67 -93 67q-43 0 -69 -22.5t-26 -61.5
q0 -46 39.5 -72.5t110.5 -26.5v-98q-82 0 -130.5 -30t-48.5 -85q0 -54 44 -83t127 -29q70 0 111 -32t41 -86q0 -43 -17.5 -72.5t-56.5 -64.5z" />
    <glyph glyph-name="omicron" unicode="&#x3bf;" horiz-adv-x="612" 
d="M35 248q0 121 79.5 191.5t191.5 70.5t191.5 -70.5t79.5 -191.5t-79.5 -191.5t-191.5 -70.5t-191.5 70.5t-79.5 191.5zM449 248q0 64 -42 104t-101 40t-101 -40t-42 -104t42 -104t101 -40t101 40t42 104z" />
    <glyph glyph-name="pi" unicode="&#x3c0;" horiz-adv-x="682" 
d="M422 144v250h-167v-394h-126v394h-104v102h627v-102h-104v-230q0 -66 54 -66q19 0 37 6l12 -104q-39 -14 -85 -14q-67 0 -105.5 41t-38.5 117z" />
    <glyph glyph-name="rho" unicode="&#x3c1;" horiz-adv-x="624" 
d="M63 -204v452q0 121 72.5 191.5t189.5 70.5q118 0 191 -70.5t73 -191.5q0 -117 -69 -189.5t-174 -72.5q-47 0 -89.5 19.5t-67.5 52.5v-262h-126zM461 248q0 63 -38 103.5t-98 40.5t-98 -40.5t-38 -103.5t38 -103.5t98 -40.5t98 40.5t38 103.5z" />
    <glyph glyph-name="uni03C2" unicode="&#x3c2;" horiz-adv-x="555" 
d="M383 -172l-79 79q24 21 24 44q0 13 -10.5 23t-28.5 13q-109 14 -181.5 84t-72.5 184q0 110 76.5 182.5t184.5 72.5q85 0 143 -37t84 -101l-103 -68q-40 88 -129 88q-55 0 -91.5 -38t-36.5 -97q0 -64 42.5 -105t119.5 -56q78 -15 112 -44.5t34 -87.5q0 -75 -88 -136z" />
    <glyph glyph-name="sigma" unicode="&#x3c3;" horiz-adv-x="639" 
d="M35 248q0 122 81.5 192t199.5 70h298v-94h-110q32 -29 52.5 -73.5t20.5 -94.5q0 -121 -79.5 -191.5t-191.5 -70.5t-191.5 70.5t-79.5 191.5zM449 248q0 63 -42 103.5t-101 40.5t-101 -40t-42 -104t42 -104t101 -40t101 40.5t42 103.5z" />
    <glyph glyph-name="tau" unicode="&#x3c4;" horiz-adv-x="458" 
d="M161 144v250h-143v102h412v-102h-143v-226q0 -70 67 -70q26 0 47 7l13 -105q-40 -14 -85 -14q-77 0 -122.5 38.5t-45.5 119.5z" />
    <glyph glyph-name="upsilon" unicode="&#x3c5;" horiz-adv-x="582" 
d="M63 215v281h126v-279q0 -54 26.5 -83.5t75.5 -29.5t75.5 29.5t26.5 83.5v279h126v-281q0 -110 -61 -169.5t-167 -59.5t-167 59.5t-61 169.5z" />
    <glyph glyph-name="phi" unicode="&#x3c6;" horiz-adv-x="736" 
d="M305 -204v204h-11q-107 0 -183 69t-76 179q0 115 73.5 181.5t196.5 66.5h126q123 0 196.5 -66.5t73.5 -181.5q0 -110 -76 -179t-183 -69h-11v-204h-126zM305 106v284q-63 0 -103.5 -37.5t-40.5 -104.5t40.5 -104.5t103.5 -37.5zM575 248q0 67 -40.5 104.5t-103.5 37.5
v-284q63 0 103.5 37.5t40.5 104.5z" />
    <glyph glyph-name="chi" unicode="&#x3c7;" horiz-adv-x="567" 
d="M352 -109l-60 139l-114 -234h-137l191 370l-91 195q-15 32 -38 32q-21 0 -41 -15l-40 86q42 39 102 39q86 0 121 -77l54 -121l90 191h132l-161 -328l103 -221q12 -25 23 -35t29 -10q19 0 38 13l28 -103q-35 -23 -86 -23q-54 0 -86.5 23t-56.5 79z" />
    <glyph glyph-name="psi" unicode="&#x3c8;" horiz-adv-x="702" 
d="M288 -204v190q-106 0 -165.5 57.5t-59.5 164.5v288h126v-288q0 -109 99 -109v397h126v-397q99 0 99 109v288h126v-288q0 -107 -59.5 -164.5t-165.5 -57.5v-190h-126z" />
    <glyph glyph-name="omega" unicode="&#x3c9;" horiz-adv-x="818" 
d="M56 228q0 167 79 282l112 -53q-33 -61 -50 -116q-15 -53 -15 -117t21.5 -96t59.5 -32q39 0 61 29t22 82v153h126v-153q0 -53 22 -82t61 -29q38 0 59.5 32t21.5 96q0 66 -16 117q-15 52 -49 116l112 53q79 -115 79 -282q0 -111 -52.5 -176.5t-144.5 -65.5q-115 0 -156 104
q-41 -104 -156 -104q-92 0 -144.5 65.5t-52.5 176.5z" />
    <glyph glyph-name="iotadieresis" unicode="&#x3ca;" horiz-adv-x="323" 
d="M63 144v352h126v-330q0 -68 60 -68q19 0 38 6l12 -104q-45 -14 -80 -14q-156 0 -156 158zM-23 576v124h118v-124h-118zM157 576v124h118v-124h-118z" />
    <glyph glyph-name="upsilondieresis" unicode="&#x3cb;" horiz-adv-x="582" 
d="M63 215v281h126v-279q0 -54 26.5 -83.5t75.5 -29.5t75.5 29.5t26.5 83.5v279h126v-281q0 -110 -61 -169.5t-167 -59.5t-167 59.5t-61 169.5zM142 576v124h118v-124h-118zM322 576v124h118v-124h-118z" />
    <glyph glyph-name="omicrontonos" unicode="&#x3cc;" horiz-adv-x="612" 
d="M35 248q0 121 79.5 191.5t191.5 70.5t191.5 -70.5t79.5 -191.5t-79.5 -191.5t-191.5 -70.5t-191.5 70.5t-79.5 191.5zM449 248q0 64 -42 104t-101 40t-101 -40t-42 -104t42 -104t101 -40t101 40t42 104zM245 550l69 158h153l-125 -158h-97z" />
    <glyph glyph-name="upsilontonos" unicode="&#x3cd;" horiz-adv-x="582" 
d="M63 215v281h126v-279q0 -54 26.5 -83.5t75.5 -29.5t75.5 29.5t26.5 83.5v279h126v-281q0 -110 -61 -169.5t-167 -59.5t-167 59.5t-61 169.5zM247 542l46 158h144l-102 -158h-88z" />
    <glyph glyph-name="omegatonos" unicode="&#x3ce;" horiz-adv-x="818" 
d="M56 228q0 167 79 282l112 -53q-33 -61 -50 -116q-15 -53 -15 -117t21.5 -96t59.5 -32q39 0 61 29t22 82v153h126v-153q0 -53 22 -82t61 -29q38 0 59.5 32t21.5 96q0 66 -16 117q-15 52 -49 116l112 53q79 -115 79 -282q0 -111 -52.5 -176.5t-144.5 -65.5q-115 0 -156 104
q-41 -104 -156 -104q-92 0 -144.5 65.5t-52.5 176.5zM365 542l46 158h144l-102 -158h-88z" />
    <glyph glyph-name="uni0400" unicode="&#x400;" horiz-adv-x="616" 
d="M74 0v700h483v-118h-351v-161h323v-118h-323v-185h354v-118h-486zM287 754l-124 158h153l68 -158h-97z" />
    <glyph glyph-name="uni0401" unicode="&#x401;" horiz-adv-x="616" 
d="M74 0v700h483v-118h-351v-161h323v-118h-323v-185h354v-118h-486zM175 780v124h118v-124h-118zM355 780v124h118v-124h-118z" />
    <glyph glyph-name="uni0402" unicode="&#x402;" horiz-adv-x="777" 
d="M742 210q0 -102 -63 -160q-63 -57 -166 -57q-30 0 -61 7v115q26 -6 57 -6q46 0 73.5 25t27.5 70q0 44 -31 70t-82 26q-70 0 -145 -30v-270h-132v578h-204v122h560v-122h-224v-188q84 28 151 28q109 0 174 -56t65 -152z" />
    <glyph glyph-name="uni0403" unicode="&#x403;" horiz-adv-x="573" 
d="M74 0v700h483v-118h-351v-582h-132zM267 754l68 158h153l-124 -158h-97z" />
    <glyph glyph-name="uni0404" unicode="&#x404;" horiz-adv-x="768" 
d="M46 350q-3 158 103 262t260 102q102 0 181.5 -47t120.5 -124l-111 -67q-69 116 -195 116q-80 0 -139 -47t-78 -127h298v-122h-301q16 -85 77 -137q62 -51 143 -51q126 0 204 112l111 -63q-62 -90 -134 -131q-70 -40 -182 -40q-154 -2 -257 101.5t-101 262.5z" />
    <glyph glyph-name="uni0405" unicode="&#x405;" horiz-adv-x="652" 
d="M44 210l116 59q31 -167 177 -167q59 0 94.5 26t35.5 68q0 46 -40.5 72t-132.5 44q-104 21 -161.5 74t-57.5 136q0 85 68.5 138.5t177.5 53.5q200 0 266 -180l-104 -60q-42 124 -165 124q-52 0 -84.5 -19t-32.5 -54q0 -40 40 -65.5t129 -43.5q117 -24 173 -76t56 -139
q0 -90 -72.5 -152.5t-188.5 -62.5q-122 0 -197 59.5t-97 164.5z" />
    <glyph glyph-name="uni0406" unicode="&#x406;" horiz-adv-x="280" 
d="M74 0v700h132v-700h-132z" />
    <glyph glyph-name="uni0407" unicode="&#x407;" horiz-adv-x="280" 
d="M74 0v700h132v-700h-132zM-9 780v124h118v-124h-118zM171 780v124h118v-124h-118z" />
    <glyph glyph-name="uni0408" unicode="&#x408;" horiz-adv-x="555" 
d="M42 224l132 -14q2 -102 97 -102q46 0 71.5 29t25.5 79v484h132v-486q0 -102 -61 -165t-168 -63q-108 0 -168.5 62.5t-60.5 175.5z" />
    <glyph glyph-name="uni0409" unicode="&#x409;" horiz-adv-x="1106" 
d="M30 0v123q18 -6 44 -6q33 0 49 26t21 96q6 79 8 155l7 138l9 168h478v-252h163q120 0 188 -58t68 -165t-68.5 -166t-187.5 -59h-295v582h-229l-3 -56l-7 -128l-10 -183q-9 -117 -51 -169.5t-118 -52.5q-41 0 -66 7zM646 118h153q134 0 134 107t-134 107h-153v-214z" />
    <glyph glyph-name="uni040A" unicode="&#x40a;" horiz-adv-x="1064" 
d="M74 0v700h132v-262h286v262h132v-262h153q110 0 178 -59t68 -162t-66.5 -160t-179.5 -57h-285v316h-286v-316h-132zM624 118h143q124 0 124 99t-124 99h-143v-198z" />
    <glyph glyph-name="uni040B" unicode="&#x40b;" horiz-adv-x="800" 
d="M737 201v-201h-132v183q0 56 -30 86.5t-87 30.5q-74 0 -136 -37v-263h-132v578h-204v122h560v-122h-224v-192q69 32 157 32q109 0 168.5 -55.5t59.5 -161.5z" />
    <glyph glyph-name="uni040C" unicode="&#x40c;" horiz-adv-x="654" 
d="M322 371l314 -371h-164l-214 254l-25 29l-27 32v-315h-132v700h132v-285q24 33 55 67l191 218h170zM270 754l68 158h153l-124 -158h-97z" />
    <glyph glyph-name="uni040D" unicode="&#x40d;" horiz-adv-x="723" 
d="M74 0v700h128v-514q9 20 30 55l283 459h134v-700h-128v517q-21 -39 -30 -55l-283 -462h-134zM325 754l-124 158h153l68 -158h-97z" />
    <glyph glyph-name="uni040E" unicode="&#x40e;" horiz-adv-x="636" 
d="M484 700h144l-257 -568q-36 -80 -78.5 -113t-106.5 -33q-62 0 -106 18v144q54 -26 102 -26q47 0 69 49l13 29l-254 500h149l173 -345zM213 881h76q0 -19 10 -31t28 -12t28 12t10 31h76q0 -49 -31.5 -81t-82.5 -32t-82.5 32t-31.5 81z" />
    <glyph glyph-name="uni040F" unicode="&#x40f;" horiz-adv-x="704" 
d="M290 -126v126h-216v700h132v-578h292v578h132v-700h-216v-126h-124z" />
    <glyph glyph-name="uni0410" unicode="&#x410;" horiz-adv-x="702" 
d="M5 0l283 700h126l283 -700h-141l-70 183h-270l-70 -183h-141zM261 301h180l-64 168q-17 44 -26 76q-9 -32 -26 -76z" />
    <glyph glyph-name="uni0411" unicode="&#x411;" horiz-adv-x="660" 
d="M74 0v700h490v-116h-358v-150h162q110 0 178 -58t68 -158t-68 -159t-178 -59h-294zM206 118h152q124 0 124 100t-124 100h-152v-200z" />
    <glyph glyph-name="uni0412" unicode="&#x412;" horiz-adv-x="661" 
d="M74 0v700h288q107 0 165.5 -45t58.5 -126q0 -49 -26.5 -88t-70.5 -61q126 -50 126 -170q0 -94 -71.5 -152t-176.5 -58h-293zM206 428h146q106 0 106 78t-106 78h-146v-156zM206 118h153q124 0 124 97t-124 97h-153v-194z" />
    <glyph glyph-name="uni0413" unicode="&#x413;" horiz-adv-x="573" 
d="M74 0v700h483v-118h-351v-582h-132z" />
    <glyph glyph-name="uni0414" unicode="&#x414;" horiz-adv-x="744" 
d="M14 -126v248h60q31 63 46 130q16 63 22 167l16 281h467v-578h97v-248h-123v126h-462v-126h-123zM213 122h280v460h-213l-9 -160q-6 -108 -19 -169q-12 -63 -39 -131z" />
    <glyph glyph-name="uni0415" unicode="&#x415;" horiz-adv-x="616" 
d="M74 0v700h483v-118h-351v-161h323v-118h-323v-185h354v-118h-486z" />
    <glyph glyph-name="uni0416" unicode="&#x416;" horiz-adv-x="1030" 
d="M697 371l314 -371h-164l-214 254l-26 29l-26 30v-313h-132v314l-52 -60l-214 -254h-164l314 371l-300 329h170l191 -218q31 -34 55 -67v285h132v-285q24 33 55 67l191 218h170z" />
    <glyph glyph-name="uni0417" unicode="&#x417;" horiz-adv-x="633" 
d="M585 209q0 -101 -74 -162t-192 -61q-123 0 -196.5 61t-73.5 161q0 41 14 74l119 -18q-7 -18 -7 -40q0 -54 39 -86t105 -32q61 0 97.5 27.5t36.5 77.5q0 41 -35 65.5t-92 24.5h-77v116h77q46 0 74 24.5t28 66.5q0 40 -32 63t-86 23t-86.5 -24.5t-32.5 -61.5q0 -14 5 -39
l-116 -10q-12 25 -12 61q0 80 65.5 137t177.5 57q116 0 180.5 -53.5t64.5 -139.5q0 -97 -84 -149q53 -21 83 -64t30 -99z" />
    <glyph glyph-name="uni0418" unicode="&#x418;" horiz-adv-x="723" 
d="M74 0v700h128v-514q9 20 30 55l283 459h134v-700h-128v517q-21 -39 -30 -55l-283 -462h-134z" />
    <glyph glyph-name="uni0419" unicode="&#x419;" horiz-adv-x="723" 
d="M74 0v700h128v-514q9 20 30 55l283 459h134v-700h-128v517q-21 -39 -30 -55l-283 -462h-134zM248 881h76q0 -19 10 -31t28 -12t28 12t10 31h76q0 -49 -31.5 -81t-82.5 -32t-82.5 32t-31.5 81z" />
    <glyph glyph-name="uni041A" unicode="&#x41a;" horiz-adv-x="654" 
d="M322 371l314 -371h-164l-214 254l-25 29l-27 32v-315h-132v700h132v-285q24 33 55 67l191 218h170z" />
    <glyph glyph-name="uni041B" unicode="&#x41b;" horiz-adv-x="734" 
d="M30 0v123q18 -6 44 -6q33 0 49 26t21 96q1 20 8 156l7 137l9 168h492v-700h-132v582h-243l-3 -56l-7 -126q-3 -98 -10 -185q-9 -117 -51 -169.5t-118 -52.5q-37 0 -66 7z" />
    <glyph glyph-name="uni041C" unicode="&#x41c;" horiz-adv-x="872" 
d="M74 0v700h139l223 -556l223 556h139v-700h-128v428q-19 -73 -34 -107l-137 -321h-126l-137 321q-15 34 -34 107v-428h-128z" />
    <glyph glyph-name="uni041D" unicode="&#x41d;" horiz-adv-x="718" 
d="M74 0v700h132v-282h306v282h132v-700h-132v296h-306v-296h-132z" />
    <glyph glyph-name="uni041E" unicode="&#x41e;" horiz-adv-x="812" 
d="M46 350q-2 154 103 260t257 104q152 2 257 -104t103 -260q2 -154 -103 -260t-257 -104q-152 -2 -257 104t-103 260zM632 350q0 109 -64 175.5t-162 66.5t-162 -66.5t-64 -175.5t64 -175.5t162 -66.5t162 66.5t64 175.5z" />
    <glyph glyph-name="uni041F" unicode="&#x41f;" horiz-adv-x="702" 
d="M74 0v700h554v-700h-132v578h-290v-578h-132z" />
    <glyph glyph-name="uni0420" unicode="&#x420;" horiz-adv-x="695" 
d="M74 0v700h318q122 0 192 -60t70 -168t-70 -168t-192 -60h-186v-244h-132zM206 362h182q66 0 100 29t34 81t-34 81t-100 29h-182v-220z" />
    <glyph glyph-name="uni0421" unicode="&#x421;" horiz-adv-x="768" 
d="M46 350q-3 158 103 262t260 102q107 0 189 -51q82 -49 118 -132l-107 -77q-65 138 -204 138q-96 0 -160.5 -67.5t-64.5 -174.5q0 -105 65 -173.5t160 -68.5q137 0 212 140l103 -74q-67 -102 -136.5 -145t-179.5 -43q-154 -2 -257 101.5t-101 262.5z" />
    <glyph glyph-name="uni0422" unicode="&#x422;" horiz-adv-x="592" 
d="M230 0v578h-214v122h560v-122h-214v-578h-132z" />
    <glyph glyph-name="uni0423" unicode="&#x423;" horiz-adv-x="636" 
d="M484 700h144l-257 -568q-36 -80 -78.5 -113t-106.5 -33q-62 0 -106 18v144q54 -26 102 -26q47 0 69 49l13 29l-254 500h149l173 -345z" />
    <glyph glyph-name="uni0424" unicode="&#x424;" horiz-adv-x="842" 
d="M353 -14v72h-4q-79 -1 -149 33t-115.5 102.5t-43.5 156.5q-2 88 43.5 156.5t115.5 102.5t149 33h4v72h136v-72h4q79 1 149 -33t115.5 -102.5t43.5 -156.5q2 -88 -43.5 -156.5t-115.5 -102.5t-149 -33h-4v-72h-136zM344 170h9v360h-9q-75 0 -126 -48.5t-51 -131.5
t51 -131.5t126 -48.5zM489 170h9q75 0 126 48.5t51 131.5t-51 131.5t-126 48.5h-9v-360z" />
    <glyph glyph-name="uni0425" unicode="&#x425;" horiz-adv-x="617" 
d="M3 0l234 376l-203 324h141l133 -222l140 222h134l-200 -319l231 -381h-141l-164 270l-163 -270h-142z" />
    <glyph glyph-name="uni0426" unicode="&#x426;" horiz-adv-x="756" 
d="M603 -126v126h-529v700h132v-578h291v578h132v-578h97v-248h-123z" />
    <glyph glyph-name="uni0427" unicode="&#x427;" horiz-adv-x="688" 
d="M482 0v268q-59 -32 -164 -32q-115 0 -186.5 64t-71.5 184v216h132v-204q0 -142 128 -142q109 0 162 35v311h132v-700h-132z" />
    <glyph glyph-name="uni0428" unicode="&#x428;" horiz-adv-x="958" 
d="M74 0v700h132v-578h207v578h132v-578h207v578h132v-700h-810z" />
    <glyph glyph-name="uni0429" unicode="&#x429;" horiz-adv-x="1012" 
d="M859 -126v126h-785v700h132v-578h207v578h132v-578h207v578h132v-578h98v-248h-123z" />
    <glyph glyph-name="uni042A" unicode="&#x42a;" horiz-adv-x="748" 
d="M156 0v584h-140v116h272v-252h163q120 0 188 -58t68 -165t-68.5 -166t-187.5 -59h-295zM288 118h153q134 0 134 107t-134 107h-153v-214z" />
    <glyph glyph-name="uni042B" unicode="&#x42b;" horiz-adv-x="910" 
d="M74 0v700h132v-252h163q120 0 188 -58t68 -165t-68.5 -166t-187.5 -59h-295zM206 118h153q134 0 134 107t-134 107h-153v-214zM704 0v700h132v-700h-132z" />
    <glyph glyph-name="uni042C" unicode="&#x42c;" horiz-adv-x="666" 
d="M74 0v700h132v-252h163q120 0 188 -58t68 -165t-68.5 -166t-187.5 -59h-295zM206 118h153q134 0 134 107t-134 107h-153v-214z" />
    <glyph glyph-name="uni042D" unicode="&#x42d;" horiz-adv-x="768" 
d="M48 157l111 63q78 -112 204 -112q81 0 143 51q61 52 77 137h-301v122h298q-19 80 -78 127t-139 47q-126 0 -195 -116l-111 67q41 77 120.5 124t181.5 47q154 2 259.5 -102t103.5 -262q2 -159 -101 -262.5t-257 -101.5q-112 0 -183 40q-72 41 -133 131z" />
    <glyph glyph-name="uni042E" unicode="&#x42e;" horiz-adv-x="1020" 
d="M286 289h-80v-289h-132v700h132v-289h80q17 132 114 218t228 85q146 2 247 -104t99 -260q2 -154 -99 -260t-247 -104q-131 -2 -228 84.5t-114 218.5zM840 350q0 108 -60 175t-152 67t-152 -67t-60 -175t60 -175t152 -67q91 0 151.5 67.5t60.5 174.5z" />
    <glyph glyph-name="uni042F" unicode="&#x42f;" horiz-adv-x="660" 
d="M288 700h298v-700h-132v264h-119l-160 -264h-145l171 280q-162 44 -162 212q0 96 67 152t182 56zM454 380v204h-166q-117 0 -117 -102t117 -102h166z" />
    <glyph glyph-name="uni0430" unicode="&#x430;" horiz-adv-x="567" 
d="M43 141q0 69 47.5 110t129.5 54l149 23v19q0 75 -91 75q-41 0 -65 -15.5t-24 -40.5q0 -4 2 -12l-113 -38q-9 20 -9 42q0 61 58 106.5t151 45.5q217 0 217 -180v-207q0 -73 33 -123h-128q-24 30 -24 79q-53 -93 -166 -93q-74 0 -120.5 42.5t-46.5 112.5zM369 232v9
l-120 -20q-83 -14 -83 -73q0 -29 20 -44.5t54 -15.5q58 0 93.5 38t35.5 106z" />
    <glyph glyph-name="uni0431" unicode="&#x431;" horiz-adv-x="588" 
d="M35 321q0 123 50 221q34 66 99.5 100.5t166.5 47.5q63 7 94 37l71 -79q-27 -31 -64 -46t-102 -24q-56 -8 -95 -21q-92 -34 -115 -168q62 89 185 89q96 0 162 -67.5t66 -175.5q0 -110 -72 -179.5t-179 -69.5q-128 0 -197.5 89t-69.5 246zM437 232q0 61 -38 98.5t-97 37.5
t-96.5 -37.5t-37.5 -98.5t37.5 -98.5t96.5 -37.5t97 37.5t38 98.5z" />
    <glyph glyph-name="uni0432" unicode="&#x432;" horiz-adv-x="530" 
d="M63 0v496h231q80 0 126.5 -34t46.5 -89q0 -74 -74 -111q43 -12 67.5 -42t24.5 -75q0 -64 -51 -104.5t-129 -40.5h-242zM187 306h96q65 0 65 47t-65 47h-96v-94zM187 96h101q72 0 72 58q0 56 -72 56h-101v-114z" />
    <glyph glyph-name="uni0433" unicode="&#x433;" horiz-adv-x="434" 
d="M63 0v496h339v-114h-213v-382h-126z" />
    <glyph glyph-name="uni0434" unicode="&#x434;" horiz-adv-x="593" 
d="M10 -116v230h55q37 63 42 173l12 209h389v-382h75v-230h-114v116h-345v-116h-114zM184 114h198v268h-158l-6 -99q-4 -70 -12 -106t-22 -63z" />
    <glyph glyph-name="uni0435" unicode="&#x435;" horiz-adv-x="575" 
d="M35 248q0 114 75.5 188t185.5 74q106 0 174 -69.5t68 -178.5v-44h-382q6 -57 43 -90.5t93 -33.5q91 0 137 91l94 -54q-71 -145 -233 -145q-105 -2 -181 74t-74 188zM158 314h263q-9 47 -43 73.5t-86 26.5q-47 0 -83.5 -27.5t-50.5 -72.5z" />
    <glyph glyph-name="uni0436" unicode="&#x436;" horiz-adv-x="766" 
d="M745 496l-196 -233l196 -263h-152l-147 205v-205h-126v205l-147 -205h-152l196 263l-196 233h161l138 -179v179h126v-179l138 179h161z" />
    <glyph glyph-name="uni0437" unicode="&#x437;" horiz-adv-x="506" 
d="M459 144q0 -73 -57.5 -115.5t-159.5 -42.5q-92 0 -144.5 44t-52.5 116q0 34 12 60l106 -34q-5 -13 -5 -25q0 -28 24.5 -45.5t59.5 -17.5q44 0 69.5 17.5t25.5 47.5q0 28 -23.5 43.5t-65.5 15.5h-41v100h38q77 0 77 54q0 50 -69 50q-36 0 -59 -12.5t-23 -30.5q0 -11 3 -18
l-107 -36q-10 26 -10 50q0 62 53.5 103.5t143.5 41.5q91 0 138 -35.5t47 -97.5q0 -82 -84 -115q104 -28 104 -118z" />
    <glyph glyph-name="uni0438" unicode="&#x438;" horiz-adv-x="592" 
d="M63 0v496h120v-327l216 327h130v-496h-120v327l-216 -327h-130z" />
    <glyph glyph-name="uni0439" unicode="&#x439;" horiz-adv-x="592" 
d="M63 0v496h120v-327l216 327h130v-496h-120v327l-216 -327h-130zM182 677h76q0 -19 10 -31t28 -12t28 12t10 31h76q0 -49 -31.5 -81t-82.5 -32t-82.5 32t-31.5 81z" />
    <glyph glyph-name="uni043A" unicode="&#x43a;" horiz-adv-x="524" 
d="M503 496l-214 -234l214 -262h-149l-165 207v-207h-126v496h126v-180l161 180h153z" />
    <glyph glyph-name="uni043B" unicode="&#x43b;" horiz-adv-x="575" 
d="M20 0v111q13 -6 35 -6q24 0 35.5 23.5t15.5 86.5l16 281h390v-496h-126v382h-154l-9 -172q-5 -113 -42 -165t-117 -52q-26 0 -44 7z" />
    <glyph glyph-name="uni043C" unicode="&#x43c;" horiz-adv-x="730" 
d="M63 0v496h165l137 -348l137 348h165v-496h-120v314l-133 -314h-98l-133 314v-314h-120z" />
    <glyph glyph-name="uni043D" unicode="&#x43d;" horiz-adv-x="584" 
d="M63 0v496h126v-185h206v185h126v-496h-126v201h-206v-201h-126z" />
    <glyph glyph-name="uni043E" unicode="&#x43e;" horiz-adv-x="612" 
d="M35 248q0 121 79.5 191.5t191.5 70.5t191.5 -70.5t79.5 -191.5t-79.5 -191.5t-191.5 -70.5t-191.5 70.5t-79.5 191.5zM449 248q0 64 -42 104t-101 40t-101 -40t-42 -104t42 -104t101 -40t101 40t42 104z" />
    <glyph glyph-name="uni043F" unicode="&#x43f;" horiz-adv-x="574" 
d="M63 0v496h448v-496h-126v382h-196v-382h-126z" />
    <glyph glyph-name="uni0440" unicode="&#x440;" horiz-adv-x="624" 
d="M63 -204v700h126v-71q27 39 73 62t99 23q97 0 162.5 -71.5t65.5 -190.5q0 -116 -69 -189t-170 -73q-102 0 -161 75v-265h-126zM461 248q0 62 -40 102q-40 42 -100 42q-59 0 -100 -42q-40 -40 -40 -102t40 -103q41 -41 100 -41t100 41q40 41 40 103z" />
    <glyph glyph-name="uni0441" unicode="&#x441;" horiz-adv-x="553" 
d="M35 248q0 114 76 188t185 74q167 0 222 -124l-107 -65q-38 71 -116 71q-58 0 -95 -39.5t-37 -104.5t37 -104.5t95 -39.5q45 0 74 18t50 60l104 -63q-79 -133 -227 -133q-112 0 -186.5 73t-74.5 189z" />
    <glyph glyph-name="uni0442" unicode="&#x442;" horiz-adv-x="474" 
d="M174 0v382h-148v114h422v-114h-148v-382h-126z" />
    <glyph glyph-name="uni0443" unicode="&#x443;" horiz-adv-x="546" 
d="M42 -197v125q51 -23 95 -23q39 0 56 47l16 44l-204 500h143l128 -322l122 322h143l-236 -586q-26 -64 -65.5 -92.5t-101.5 -28.5q-63 0 -96 14z" />
    <glyph glyph-name="uni0444" unicode="&#x444;" horiz-adv-x="712" 
d="M417 -10v-194h-122v194q-118 15 -189 83t-71 175t71 175t189 83v194h122v-194q118 -15 189 -83t71 -175t-71 -175t-189 -83zM295 109v278q-132 -20 -132 -139t132 -139zM549 248q0 119 -132 139v-278q132 20 132 139z" />
    <glyph glyph-name="uni0445" unicode="&#x445;" horiz-adv-x="502" 
d="M2 0l182 262l-161 234h144l84 -133l84 133h146l-155 -231l174 -265h-147l-102 163l-104 -163h-145z" />
    <glyph glyph-name="uni0446" unicode="&#x446;" horiz-adv-x="595" 
d="M471 -116v116h-408v496h126v-382h196v382h126v-382h74v-230h-114z" />
    <glyph glyph-name="uni0447" unicode="&#x447;" horiz-adv-x="547" 
d="M366 0v184q-65 -22 -124 -22q-85 0 -134.5 52.5t-49.5 144.5v137h118v-122q0 -102 91 -102q42 0 99 18v206h118v-496h-118z" />
    <glyph glyph-name="uni0448" unicode="&#x448;" horiz-adv-x="806" 
d="M64 0v496h126v-382h150v382h126v-382h150v382h126v-496h-678z" />
    <glyph glyph-name="uni0449" unicode="&#x449;" horiz-adv-x="825" 
d="M703 -116v116h-640v496h126v-382h150v382h126v-382h150v382h126v-382h74v-230h-112z" />
    <glyph glyph-name="uni044A" unicode="&#x44a;" horiz-adv-x="589" 
d="M131 0v402h-116v94h242v-162h101q92 0 144.5 -43.5t52.5 -123.5t-52.5 -123.5t-144.5 -43.5h-227zM257 96h92q42 0 63 19t21 52t-21 52t-63 19h-92v-142z" />
    <glyph glyph-name="uni044B" unicode="&#x44b;" horiz-adv-x="725" 
d="M63 0v496h126v-162h101q92 0 144.5 -43.5t52.5 -123.5t-52.5 -123.5t-144.5 -43.5h-227zM189 96h92q42 0 63 19t21 52t-21 52t-63 19h-92v-142zM536 0v496h126v-496h-126z" />
    <glyph glyph-name="uni044C" unicode="&#x44c;" horiz-adv-x="521" 
d="M63 0v496h126v-162h101q92 0 144.5 -43.5t52.5 -123.5t-52.5 -123.5t-144.5 -43.5h-227zM189 96h92q42 0 63 19t21 52t-21 52t-63 19h-92v-142z" />
    <glyph glyph-name="uni044D" unicode="&#x44d;" horiz-adv-x="551" 
d="M30 120l98 60q38 -84 138 -84q101 0 124 103h-191v98h191q-13 50 -47 76.5t-83 26.5q-81 0 -121 -69l-96 57q63 122 217 122q114 0 185 -71t71 -191t-70 -191t-182 -71q-154 0 -234 134z" />
    <glyph glyph-name="uni044E" unicode="&#x44e;" horiz-adv-x="776" 
d="M239 194h-56v-194h-120v496h120v-194h56q16 97 86.5 152.5t162.5 55.5q106 0 179.5 -70.5t73.5 -191.5t-73.5 -191.5t-179.5 -70.5q-92 0 -162.5 55.5t-86.5 152.5zM613 248q0 65 -35.5 104.5t-89.5 39.5t-89.5 -39.5t-35.5 -104.5t35.5 -104.5t89.5 -39.5t89.5 39.5
t35.5 104.5z" />
    <glyph glyph-name="uni044F" unicode="&#x44f;" horiz-adv-x="536" 
d="M244 496h229v-496h-122v180h-64l-110 -180h-132l120 195q-102 32 -102 144q0 72 48.5 114.5t132.5 42.5zM351 280v116h-95q-34 0 -52.5 -15t-18.5 -43t18.5 -43t52.5 -15h95z" />
    <glyph glyph-name="uni0450" unicode="&#x450;" horiz-adv-x="575" 
d="M35 248q0 114 75.5 188t185.5 74q106 0 174 -69.5t68 -178.5v-44h-382q6 -57 43 -90.5t93 -33.5q91 0 137 91l94 -54q-71 -145 -233 -145q-105 -2 -181 74t-74 188zM158 314h263q-9 47 -43 73.5t-86 26.5q-47 0 -83.5 -27.5t-50.5 -72.5zM266 550l-124 158h153l68 -158
h-97z" />
    <glyph glyph-name="uni0451" unicode="&#x451;" horiz-adv-x="575" 
d="M35 248q0 114 75.5 188t185.5 74q106 0 174 -69.5t68 -178.5v-44h-382q6 -57 43 -90.5t93 -33.5q91 0 137 91l94 -54q-71 -145 -233 -145q-105 -2 -181 74t-74 188zM158 314h263q-9 47 -43 73.5t-86 26.5q-47 0 -83.5 -27.5t-50.5 -72.5zM147 576v124h118v-124h-118z
M327 576v124h118v-124h-118z" />
    <glyph glyph-name="uni0452" unicode="&#x452;" horiz-adv-x="608" 
d="M313 -201v114q29 -8 50 -8q56 0 56 71v310q0 51 -26 78.5t-74 27.5q-53 0 -87.5 -39t-34.5 -101v-252h-126v552h-62v96h62v52h126v-52h160v-96h-160v-134q58 92 172 92q81 0 128.5 -47.5t47.5 -127.5v-373q0 -173 -162 -173q-40 0 -70 10z" />
    <glyph glyph-name="uni0453" unicode="&#x453;" horiz-adv-x="434" 
d="M63 0v496h339v-114h-213v-382h-126zM189 550l69 158h153l-125 -158h-97z" />
    <glyph glyph-name="uni0454" unicode="&#x454;" horiz-adv-x="545" 
d="M35 248q0 119 72 190.5t184 71.5q159 0 217 -117l-94 -59q-37 66 -123 66q-49 0 -84.5 -27.5t-45.5 -75.5h192v-98h-192q9 -48 44 -75.5t88 -27.5q86 0 125 76l97 -60q-40 -64 -94.5 -95t-133.5 -31q-112 0 -182 71t-70 191z" />
    <glyph glyph-name="uni0455" unicode="&#x455;" horiz-adv-x="489" 
d="M40 135l101 64q38 -107 128 -107q32 0 55 15t23 40q0 24 -24.5 38.5t-81.5 25.5q-173 33 -173 155q0 66 53.5 105t131.5 39t126 -29.5t79 -95.5l-91 -54q-33 87 -112 87q-34 0 -54.5 -11.5t-20.5 -32.5q0 -46 117 -70q87 -18 126.5 -54.5t39.5 -98.5q0 -72 -53.5 -118.5
t-142.5 -46.5q-83 0 -140.5 40t-86.5 109z" />
    <glyph glyph-name="uni0456" unicode="&#x456;" horiz-adv-x="252" 
d="M63 0v496h126v-496h-126zM57 568v132h138v-132h-138z" />
    <glyph glyph-name="uni0457" unicode="&#x457;" horiz-adv-x="252" 
d="M63 0v496h126v-496h-126zM4 568v132h108v-132h-108zM140 568v132h108v-132h-108z" />
    <glyph glyph-name="uni0458" unicode="&#x458;" horiz-adv-x="252" 
d="M-48 -201l16 114q21 -8 39 -8q56 0 56 71v520h126v-534q0 -173 -162 -173q-41 0 -75 10zM57 568v132h138v-132h-138z" />
    <glyph glyph-name="uni0459" unicode="&#x459;" horiz-adv-x="844" 
d="M20 0v111q13 -6 35 -6q24 0 35.5 23.5t15.5 86.5l16 281h390v-162h101q92 0 144.5 -43.5t52.5 -123.5t-52.5 -123.5t-144.5 -43.5h-227v382h-154l-9 -172q-5 -113 -42 -165t-117 -52q-24 0 -44 7zM512 96h92q42 0 63 19t21 52t-21 52t-63 19h-92v-142z" />
    <glyph glyph-name="uni045A" unicode="&#x45a;" horiz-adv-x="839" 
d="M63 0v496h120v-174h196v174h120v-174h129q80 0 128.5 -43.5t48.5 -117.5q0 -75 -48 -118t-129 -43h-249v212h-196v-212h-120zM499 96h112q72 0 72 62q0 61 -72 61h-112v-123z" />
    <glyph glyph-name="uni045B" unicode="&#x45b;" horiz-adv-x="600" 
d="M537 335v-335h-126v286q0 51 -26 78.5t-74 27.5q-53 0 -87.5 -39t-34.5 -101v-252h-126v552h-54v96h54v52h126v-52h168v-96h-168v-134q58 92 172 92q81 0 128.5 -47.5t47.5 -127.5z" />
    <glyph glyph-name="uni045C" unicode="&#x45c;" horiz-adv-x="524" 
d="M503 496l-214 -234l214 -262h-149l-165 207v-207h-126v496h126v-180l161 180h153zM210 550l69 158h153l-125 -158h-97z" />
    <glyph glyph-name="uni045D" unicode="&#x45d;" horiz-adv-x="592" 
d="M63 0v496h120v-327l216 327h130v-496h-120v327l-216 -327h-130zM266 550l-124 158h153l68 -158h-97z" />
    <glyph glyph-name="uni045E" unicode="&#x45e;" horiz-adv-x="546" 
d="M42 -197v125q51 -23 95 -23q39 0 56 47l16 44l-204 500h143l128 -322l122 322h143l-236 -586q-26 -64 -65.5 -92.5t-101.5 -28.5q-63 0 -96 14zM159 677h76q0 -19 10 -31t28 -12t28 12t10 31h76q0 -49 -31.5 -81t-82.5 -32t-82.5 32t-31.5 81z" />
    <glyph glyph-name="uni045F" unicode="&#x45f;" horiz-adv-x="574" 
d="M230 -116v116h-167v496h126v-382h196v382h126v-496h-167v-116h-114z" />
    <glyph glyph-name="uni0462" unicode="&#x462;" horiz-adv-x="732" 
d="M691 215q0 -106 -67 -160.5t-189 -54.5h-295v517h-120v112h120v71h132v-71h231v-112h-231v-89h163q122 0 189 -53.5t67 -159.5zM559 215q0 50 -32.5 73.5t-101.5 23.5h-153v-194h153q69 0 101.5 23.5t32.5 73.5z" />
    <glyph glyph-name="uni0463" unicode="&#x463;" horiz-adv-x="552" 
d="M518 162q0 -78 -53 -120t-144 -42h-222v396h-77v100h77v204h122v-204h153v-100h-153v-71h100q91 0 144 -42.5t53 -120.5zM396 162q0 67 -84 67h-91v-133h91q84 0 84 66z" />
    <glyph glyph-name="uni0472" unicode="&#x472;" horiz-adv-x="812" 
d="M766 350q2 -154 -103 -260t-257 -104q-152 -2 -257 104t-103 260q-2 154 103 260t257 104q152 2 257 -104t103 -260zM185 404q49 33 106 33q63 0 148 -36q54 -24 82 -24q55 0 105 36q-18 83 -77.5 131t-142.5 48q-85 0 -145.5 -51t-75.5 -137zM627 294q-46 -31 -106 -31
q-62 0 -148 36q-54 24 -82 24q-55 0 -105 -37q18 -83 77.5 -130.5t142.5 -47.5q85 0 145 50t76 136z" />
    <glyph glyph-name="uni0473" unicode="&#x473;" horiz-adv-x="612" 
d="M577 248q0 -121 -79.5 -191.5t-191.5 -70.5t-191.5 70.5t-79.5 191.5t79.5 191.5t191.5 70.5t191.5 -70.5t79.5 -191.5zM172 301q35 23 73 23q30 0 72 -24q31 -20 53 -20q38 0 70 21q-15 42 -52 66.5t-82 24.5t-82 -24.5t-52 -66.5zM440 195q-35 -23 -73 -23
q-30 0 -72 24q-31 20 -53 20q-38 0 -70 -21q15 -42 52 -66.5t82 -24.5t82 24.5t52 66.5z" />
    <glyph glyph-name="uni0474" unicode="&#x474;" horiz-adv-x="788" 
d="M262 0l-260 700h143l158 -447q10 -27 26 -89q16 62 26 89l118 335q24 66 62 96t98 30q107 0 145 -81l-90 -78q-16 33 -45 33q-30 0 -43 -39l-204 -549h-134z" />
    <glyph glyph-name="uni0475" unicode="&#x475;" horiz-adv-x="644" 
d="M208 0l-201 496h134l126 -336l92 246q39 104 147 104q96 0 134 -74l-86 -71q-13 37 -43 37q-21 0 -38 -39l-147 -363h-118z" />
    <glyph glyph-name="uni0490" unicode="&#x490;" horiz-adv-x="573" 
d="M556 700h1v-118h-351v-582h-132v700h360v125h122v-125z" />
    <glyph glyph-name="uni0491" unicode="&#x491;" horiz-adv-x="434" 
d="M63 0v496h225v116h114v-230h-213v-382h-126z" />
    <glyph glyph-name="uni060C" unicode="&#x60c;" horiz-adv-x="235" 
d="M110 -15l-46 44q-34 31 -34 76t35 90.5t98 81.5l30 -44q-53 -30 -53 -64q0 -21 21 -42l45 -45z" />
    <glyph glyph-name="uni061B" unicode="&#x61b;" horiz-adv-x="251" 
d="M125 -16l-95 96l96 96l96 -96zM125 259l-46 44q-34 31 -34 76t35 90.5t98 81.5l30 -44q-53 -30 -53 -64q0 -21 21 -42l45 -45z" />
    <glyph glyph-name="uni061F" unicode="&#x61f;" horiz-adv-x="513" 
d="M133 338q-34 26 -50 43t-29 48t-14 77q0 84 62 140.5t156 56.5q97 0 154.5 -54.5t57.5 -139.5q0 -47 -18 -96l-89 26q8 22 8 39q0 39 -28 63t-75 24q-48 0 -77.5 -22.5t-29.5 -60.5q0 -25 14 -42t49 -40q34 -24 51 -40q49 -42 49 -123v-23h-114q0 42 -17 67t-60 57z
M250 -17l-88 89l89 89l88 -89z" />
    <glyph glyph-name="uni0621" unicode="&#x621;" horiz-adv-x="414" 
d="M250 153q47 0 129 17v-124l-319 -56l-38 107l85 15q-59 41 -59 110q0 75 47.5 123t111.5 48q52 0 91.5 -34t52.5 -94l-65 -46q-10 57 -70 57q-31 0 -51.5 -16t-20.5 -42q0 -65 106 -65z" />
    <glyph glyph-name="uni0622" unicode="&#x622;" horiz-adv-x="207" 
d="M53 0v680h101v-680h-101zM25 738l-44 18q20 83 74 83q12 0 42 -13q30 -15 47 -15q13 0 20 7t16 28l45 -17q-20 -83 -75 -83q-13 0 -44 14q-30 14 -44 14q-22 0 -37 -36z" />
    <glyph glyph-name="uni0623" unicode="&#x623;" horiz-adv-x="207" 
d="M53 0v680h101v-680h-101zM126 813q31 0 61 6v-58l-151 -27l-18 51l38 6q-26 18 -26 53q0 32 23.5 54t54.5 22q54 0 69 -57l-33 -22q-6 24 -32 24q-15 0 -25.5 -7.5t-10.5 -19.5q0 -25 50 -25z" />
    <glyph glyph-name="uni0624" unicode="&#x624;" horiz-adv-x="407" 
d="M374 121q0 -148 -65.5 -236.5t-174.5 -88.5q-68 0 -143 34l27 119q62 -24 112 -24q64 0 109 48t46 123l2 35q-12 -54 -40 -87t-71 -33q-63 0 -100 46.5t-37 125.5q0 85 45.5 139t115.5 54q82 0 128 -66.5t46 -188.5zM281 171q-16 90 -84 90q-32 0 -52 -19.5t-20 -47.5
t21 -47t55 -19q56 0 80 43zM290 206l-1 -6q1 1 1 6zM218 510q31 0 61 6v-58l-151 -27l-18 51l38 6q-26 18 -26 53q0 32 23.5 54t54.5 22q54 0 69 -57l-33 -22q-6 24 -32 24q-15 0 -25.5 -7.5t-10.5 -19.5q0 -25 50 -25z" />
    <glyph glyph-name="uni0625" unicode="&#x625;" horiz-adv-x="207" 
d="M53 0v680h101v-680h-101zM128 -159q31 0 61 6v-58l-151 -27l-18 51l38 6q-26 18 -26 53q0 32 23.5 54t54.5 22q54 0 69 -57l-33 -22q-6 24 -32 24q-15 0 -25.5 -7.5t-10.5 -19.5q0 -25 50 -25z" />
    <glyph glyph-name="uni0626" unicode="&#x626;" horiz-adv-x="669" 
d="M37 52q0 115 65 243l86 -29q-39 -96 -39 -169q0 -150 167 -150q80 0 147.5 26t67.5 56q0 12 -12 17.5t-54 14.5l-63 13q-59 12 -90.5 47.5t-31.5 89.5q-2 82 58.5 147.5t136.5 63.5q60 0 103.5 -42.5t57.5 -114.5l-74 -24q-9 29 -33.5 46t-56.5 17q-38 0 -67 -21.5
t-29 -48.5q0 -17 14.5 -26t48.5 -15l63 -11q68 -11 96.5 -44t28.5 -87q3 -99 -96 -177.5t-222 -76.5q-128 0 -200 67t-72 188zM198 419q31 0 61 6v-58l-151 -27l-18 51l38 6q-26 18 -26 53q0 32 23.5 54t54.5 22q54 0 69 -57l-33 -22q-6 24 -32 24q-15 0 -25.5 -7.5
t-10.5 -19.5q0 -25 50 -25z" />
    <glyph glyph-name="uni0627" unicode="&#x627;" horiz-adv-x="207" 
d="M53 0v680h101v-680h-101z" />
    <glyph glyph-name="uni0628" unicode="&#x628;" horiz-adv-x="681" 
d="M36 207q0 78 38 195l82 -22q-23 -80 -23 -117q0 -65 49 -92t164 -27q108 0 148 21t40 77q0 40 -26 141l92 21q37 -123 37 -205q0 -108 -70.5 -157t-227.5 -49q-158 0 -230.5 51t-72.5 163zM336 -224l-74 74l74 75l74 -75z" />
    <glyph glyph-name="uni0629" unicode="&#x629;" horiz-adv-x="460" 
d="M34 188q0 108 57.5 184.5t138.5 76.5q81 2 140 -76.5t57 -184.5q0 -98 -50 -147.5t-147 -49.5q-96 0 -146 49.5t-50 147.5zM332 206q0 40 -29.5 69t-72.5 29q-42 0 -71.5 -29t-29.5 -69q0 -33 27 -52.5t74 -19.5q48 0 75 19.5t27 52.5zM364 607l-74 -74l-58 59l-59 -59
l-74 74l74 75l59 -59l58 59z" />
    <glyph glyph-name="uni062A" unicode="&#x62a;" horiz-adv-x="681" 
d="M36 207q0 78 38 195l82 -22q-23 -80 -23 -117q0 -65 49 -92t164 -27q108 0 148 21t40 77q0 40 -26 141l92 21q37 -123 37 -205q0 -108 -70.5 -157t-227.5 -49q-158 0 -230.5 51t-72.5 163zM468 489l-74 -74l-58 59l-59 -59l-74 74l74 75l59 -59l58 59z" />
    <glyph glyph-name="uni062B" unicode="&#x62b;" horiz-adv-x="681" 
d="M36 207q0 78 38 195l82 -22q-23 -80 -23 -117q0 -65 49 -92t164 -27q108 0 148 21t40 77q0 40 -26 141l92 21q37 -123 37 -205q0 -108 -70.5 -157t-227.5 -49q-158 0 -230.5 51t-72.5 163zM409 624l-73 -74l-75 74l74 76zM468 482l-74 -75l-58 59l-59 -59l-74 75l74 75
l59 -59l58 59z" />
    <glyph glyph-name="uni062C" unicode="&#x62c;" horiz-adv-x="571" 
d="M492 -53l84 -69q-30 -60 -97.5 -94t-157.5 -34q-116 0 -187 59t-71 156q0 101 87.5 190.5t228.5 133.5q-53 13 -94 19q-53 8 -74 8q-43 0 -43 -31q0 -15 7 -32l-104 -30q-12 43 -12 81q0 64 32 101t89 37q101 0 326 -63l25 -7v-128q-358 -100 -358 -251q0 -46 41.5 -71.5
t116.5 -25.5q116 0 161 51zM358 -32l-74 74l74 75l74 -75z" />
    <glyph glyph-name="uni062D" unicode="&#x62d;" horiz-adv-x="571" 
d="M492 -53l84 -69q-30 -60 -97.5 -94t-157.5 -34q-116 0 -187 59t-71 156q0 101 87.5 190.5t228.5 133.5q-53 13 -94 19q-53 8 -74 8q-43 0 -43 -31q0 -15 7 -32l-104 -30q-12 43 -12 81q0 64 32 101t89 37q101 0 326 -63l25 -7v-128q-358 -100 -358 -251q0 -46 41.5 -71.5
t116.5 -25.5q116 0 161 51z" />
    <glyph glyph-name="uni062E" unicode="&#x62e;" horiz-adv-x="571" 
d="M492 -53l84 -69q-30 -60 -97.5 -94t-157.5 -34q-116 0 -187 59t-71 156q0 101 87.5 190.5t228.5 133.5q-53 13 -94 19q-53 8 -74 8q-43 0 -43 -31q0 -15 7 -32l-104 -30q-12 43 -12 81q0 64 32 101t89 37q101 0 326 -63l25 -7v-128q-358 -100 -358 -251q0 -46 41.5 -71.5
t116.5 -25.5q116 0 161 51zM318 502l-74 75l74 74l74 -74z" />
    <glyph glyph-name="uni062F" unicode="&#x62f;" horiz-adv-x="432" 
d="M53 0l-15 147q63 -6 114 -6q125 0 125 50q0 36 -37 84.5t-101 96.5l73 87q78 -57 133 -146q54 -87 54 -162q0 -160 -220 -160q-32 0 -64 2q-29 2 -62 7z" />
    <glyph glyph-name="uni0630" unicode="&#x630;" horiz-adv-x="432" 
d="M53 0l-15 147q63 -6 114 -6q125 0 125 50q0 36 -37 84.5t-101 96.5l73 87q78 -57 133 -146q54 -87 54 -162q0 -160 -220 -160q-32 0 -64 2q-29 2 -62 7zM215 513l-74 75l74 74l74 -74z" />
    <glyph glyph-name="uni0631" unicode="&#x631;" horiz-adv-x="339" 
d="M-42 -169l27 131q48 -15 86 -15q125 0 125 144q0 54 -20 110t-55 98l90 55q95 -119 95 -269q0 -127 -60 -207.5t-158 -80.5q-63 0 -130 34z" />
    <glyph glyph-name="uni0632" unicode="&#x632;" horiz-adv-x="339" 
d="M-42 -169l27 131q48 -15 86 -15q125 0 125 144q0 54 -20 110t-55 98l90 55q95 -119 95 -269q0 -127 -60 -207.5t-158 -80.5q-63 0 -130 34zM168 428l-74 75l74 74l74 -74z" />
    <glyph glyph-name="uni0633" unicode="&#x633;" horiz-adv-x="1060" 
d="M1016 202q0 -100 -42 -155.5t-116 -55.5q-93 0 -122 104q-25 -104 -106 -104q-28 0 -49 12q-14 -100 -83 -153t-190 -53q-130 0 -200.5 68t-70.5 187q0 110 65 243l86 -29q-39 -99 -39 -172q0 -147 165 -147q82 0 118.5 32.5t36.5 102.5q0 76 -50 211l105 28
q25 -61 39 -116q11 -32 24.5 -44.5t36.5 -12.5q63 0 63 75v127h94v-121q0 -81 65 -81q68 0 68 89q0 53 -26 146l92 21q36 -107 36 -202z" />
    <glyph glyph-name="uni0634" unicode="&#x634;" horiz-adv-x="1060" 
d="M1016 202q0 -100 -42 -155.5t-116 -55.5q-93 0 -122 104q-25 -104 -106 -104q-28 0 -49 12q-14 -100 -83 -153t-190 -53q-130 0 -200.5 68t-70.5 187q0 110 65 243l86 -29q-39 -99 -39 -172q0 -147 165 -147q82 0 118.5 32.5t36.5 102.5q0 76 -50 211l105 28
q25 -61 39 -116q11 -32 24.5 -44.5t36.5 -12.5q63 0 63 75v127h94v-121q0 -81 65 -81q68 0 68 89q0 53 -26 146l92 21q36 -107 36 -202zM804 649l-73 -74l-75 74l74 76zM863 507l-74 -75l-58 59l-59 -59l-74 75l74 75l59 -59l58 59z" />
    <glyph glyph-name="uni0635" unicode="&#x635;" horiz-adv-x="1139" 
d="M1106 196q0 -104 -70 -151t-223 -47q-137 0 -229 50q-2 -120 -71.5 -185.5t-204.5 -65.5q-130 0 -200.5 68t-70.5 187q0 110 65 243l86 -29q-39 -99 -39 -172q0 -147 165 -147q82 0 118.5 32.5t36.5 102.5q0 76 -50 211l105 28q29 -73 41 -124q16 -29 59 -35
q62 131 134.5 199t148.5 68q86 0 142.5 -67t56.5 -166zM1011 209q0 27 -24 52.5t-67 25.5q-98 0 -205 -135q34 -3 115 -3q97 0 139 14t42 46z" />
    <glyph glyph-name="uni0636" unicode="&#x636;" horiz-adv-x="1139" 
d="M1106 196q0 -104 -70 -151t-223 -47q-137 0 -229 50q-2 -120 -71.5 -185.5t-204.5 -65.5q-130 0 -200.5 68t-70.5 187q0 110 65 243l86 -29q-39 -99 -39 -172q0 -147 165 -147q82 0 118.5 32.5t36.5 102.5q0 76 -50 211l105 28q29 -73 41 -124q16 -29 59 -35
q62 131 134.5 199t148.5 68q86 0 142.5 -67t56.5 -166zM1011 209q0 27 -24 52.5t-67 25.5q-98 0 -205 -135q34 -3 115 -3q97 0 139 14t42 46zM889 493l-74 75l74 74l74 -74z" />
    <glyph glyph-name="uni0637" unicode="&#x637;" horiz-adv-x="653" 
d="M620 197q0 -106 -72.5 -151.5t-235.5 -45.5h-248l-26 152l96 -2v530h102v-441q28 83 81 135q53 54 115 54q77 0 132.5 -67t55.5 -164zM525 209q0 29 -25 51.5t-63 22.5q-96 0 -199 -133h91q106 0 151 14t45 45z" />
    <glyph glyph-name="uni0638" unicode="&#x638;" horiz-adv-x="653" 
d="M620 197q0 -106 -72.5 -151.5t-235.5 -45.5h-248l-26 152l96 -2v530h102v-441q28 83 81 135q53 54 115 54q77 0 132.5 -67t55.5 -164zM525 209q0 29 -25 51.5t-63 22.5q-96 0 -199 -133h91q106 0 151 14t45 45zM432 480l-74 75l74 74l74 -74z" />
    <glyph glyph-name="uni0639" unicode="&#x639;" horiz-adv-x="487" 
d="M423 -53l84 -69q-30 -60 -97.5 -94t-157.5 -34q-108 0 -174 51t-66 135q0 76 40 131t121 95q-98 50 -98 151q0 86 53 139t127 53q65 0 111.5 -41.5t57.5 -116.5l-79 -24q-6 30 -28.5 46t-55.5 16q-34 0 -59 -21.5t-25 -53.5q0 -66 123 -66q46 0 122 17v-127
q-141 -21 -219 -63.5t-78 -99.5q0 -35 37 -55t100 -20q128 0 161 51z" />
    <glyph glyph-name="uni063A" unicode="&#x63a;" horiz-adv-x="487" 
d="M423 -53l84 -69q-30 -60 -97.5 -94t-157.5 -34q-108 0 -174 51t-66 135q0 76 40 131t121 95q-98 50 -98 151q0 86 53 139t127 53q65 0 111.5 -41.5t57.5 -116.5l-79 -24q-6 30 -28.5 46t-55.5 16q-34 0 -59 -21.5t-25 -53.5q0 -66 123 -66q46 0 122 17v-127
q-141 -21 -219 -63.5t-78 -99.5q0 -35 37 -55t100 -20q128 0 161 51zM255 565l-74 75l74 74l74 -74z" />
    <glyph glyph-name="uni0640" unicode="&#x640;" horiz-adv-x="200" 
d="M1 0l-17 10v130l17 10h199l16 -10v-130l-16 -10h-199z" />
    <glyph glyph-name="uni0641" unicode="&#x641;" horiz-adv-x="702" 
d="M669 251q-2 -79 -15.5 -125.5t-51.5 -77.5t-100 -42.5t-166 -13.5q-156 0 -228 48t-72 151q0 74 42 206l90 -23q-26 -84 -26 -126q0 -58 44.5 -81.5t157.5 -23.5q114 0 153 7q42 7 56 34q13 25 13 93q-32 -71 -99 -71q-61 0 -99 45t-38 118q0 79 46 131.5t116 52.5
q177 0 177 -302zM563 350q-12 94 -73 94q-31 0 -49.5 -18.5t-18.5 -47.5q0 -60 69 -60q48 0 72 32zM493 616l-74 75l74 74l74 -74z" />
    <glyph glyph-name="uni0642" unicode="&#x642;" horiz-adv-x="636" 
d="M603 66q-2 -84 -18.5 -136.5t-55 -81.5t-89 -39.5t-132.5 -11.5q-130 0 -200.5 68t-70.5 187q0 110 65 243l86 -29q-39 -99 -39 -172q0 -147 165 -147q92 0 128 13q38 12 48 43q10 30 10 109v10q-15 -40 -43 -63t-63 -23q-58 0 -94 45t-36 118q0 82 46 137t116 55
q92 0 134.5 -77t42.5 -248zM497 180q-12 94 -73 94q-31 0 -49 -18t-18 -48q0 -60 69 -60q48 0 71 32zM559 534l-74 -74l-58 59l-59 -59l-74 74l74 75l59 -59l58 59z" />
    <glyph glyph-name="uni0643" unicode="&#x643;" horiz-adv-x="681" 
d="M36 208q0 80 38 199l83 -23q-22 -72 -22 -119q0 -66 47.5 -93.5t158.5 -27.5q104 0 145 17t41 65v454h101v-490q0 -103 -73.5 -150.5t-221.5 -47.5q-153 0 -225 53t-72 163zM260 332l3 49q38 -5 66 -5q46 0 46 10q0 6 -27 10l-22 5q-29 5 -41.5 17.5t-12.5 35.5
q0 28 21.5 47.5t52.5 19.5q47 0 69 -37l-29 -28q-14 17 -38 17q-13 0 -22 -4.5t-9 -10.5q0 -12 27 -16l25 -4q54 -10 54 -54q0 -27 -24.5 -42t-67.5 -15q-34 0 -71 5z" />
    <glyph glyph-name="uni0644" unicode="&#x644;" horiz-adv-x="626" 
d="M37 49q0 119 70 247l86 -31q-43 -95 -43 -172q0 -70 42.5 -107t123.5 -37q155 0 155 130v601h102v-604q0 -125 -71.5 -201.5t-193.5 -76.5q-128 0 -199.5 67.5t-71.5 183.5z" />
    <glyph glyph-name="uni0645" unicode="&#x645;" horiz-adv-x="535" 
d="M502 202q0 -202 -248 -202h-48q-29 0 -40 -10t-11 -36v-254h-102v283q0 89 29.5 127t102.5 40q-40 36 -40 93q0 68 51 116t125 48q76 0 128.5 -59.5t52.5 -145.5zM407 204q0 33 -22 54t-60 21t-61 -20.5t-23 -51.5q0 -30 24 -52t59 -22q36 0 59.5 21t23.5 50z" />
    <glyph glyph-name="uni0646" unicode="&#x646;" horiz-adv-x="617" 
d="M37 52q0 110 65 243l86 -29q-39 -99 -39 -172q0 -147 165 -147q82 0 118.5 32.5t36.5 102.5q0 76 -50 211l105 28q60 -148 60 -265q0 -124 -69.5 -191.5t-206.5 -67.5q-130 0 -200.5 68t-70.5 187zM307 351l-74 75l74 74l74 -74z" />
    <glyph glyph-name="uni0647" unicode="&#x647;" horiz-adv-x="460" 
d="M34 188q0 108 57.5 184.5t138.5 76.5q81 2 140 -76.5t57 -184.5q0 -98 -50 -147.5t-147 -49.5q-96 0 -146 49.5t-50 147.5zM332 206q0 40 -29.5 69t-72.5 29q-42 0 -71.5 -29t-29.5 -69q0 -33 27 -52.5t74 -19.5q48 0 75 19.5t27 52.5z" />
    <glyph glyph-name="uni0648" unicode="&#x648;" horiz-adv-x="407" 
d="M374 121q0 -148 -65.5 -236.5t-174.5 -88.5q-68 0 -143 34l27 119q62 -24 112 -24q64 0 109 48t46 123l2 35q-12 -54 -40 -87t-71 -33q-63 0 -100 46.5t-37 125.5q0 85 45.5 139t115.5 54q82 0 128 -66.5t46 -188.5zM281 171q-16 90 -84 90q-32 0 -52 -19.5t-20 -47.5
t21 -47t55 -19q56 0 80 43zM290 206l-1 -6q1 1 1 6z" />
    <glyph glyph-name="uni0649" unicode="&#x649;" horiz-adv-x="669" 
d="M37 52q0 115 65 243l86 -29q-39 -96 -39 -169q0 -150 167 -150q80 0 147.5 26t67.5 56q0 12 -12 17.5t-54 14.5l-63 13q-59 12 -90.5 47.5t-31.5 89.5q-2 82 58.5 147.5t136.5 63.5q60 0 103.5 -42.5t57.5 -114.5l-74 -24q-9 29 -33.5 46t-56.5 17q-38 0 -67 -21.5
t-29 -48.5q0 -17 14.5 -26t48.5 -15l63 -11q68 -11 96.5 -44t28.5 -87q3 -99 -96 -177.5t-222 -76.5q-128 0 -200 67t-72 188z" />
    <glyph glyph-name="uni064A" unicode="&#x64a;" horiz-adv-x="669" 
d="M37 52q0 115 65 243l86 -29q-39 -96 -39 -169q0 -150 167 -150q80 0 147.5 26t67.5 56q0 12 -12 17.5t-54 14.5l-63 13q-59 12 -90.5 47.5t-31.5 89.5q-2 82 58.5 147.5t136.5 63.5q60 0 103.5 -42.5t57.5 -114.5l-74 -24q-9 29 -33.5 46t-56.5 17q-38 0 -67 -21.5
t-29 -48.5q0 -17 14.5 -26t48.5 -15l63 -11q68 -11 96.5 -44t28.5 -87q3 -99 -96 -177.5t-222 -76.5q-128 0 -200 67t-72 188zM441 -333l-75 -76l-59 60l-60 -60l-75 76l76 76l59 -60l60 60z" />
    <glyph glyph-name="uni064B" unicode="&#x64b;" 
d="M34 523l-18 49l189 67l17 -49zM6 601l-18 49l189 67l17 -49z" />
    <glyph glyph-name="uni064C" unicode="&#x64c;" 
d="M263 651q0 -50 -36 -79.5t-94 -29.5q-13 0 -35 2l-19 43q14 12 14 25q0 17 -17 17t-36 -16l-20 30q29 29 60 29q23 0 36.5 -14t13.5 -36q0 -18 -8 -32q2 -1 11 -1q34 0 59 14q-52 13 -52 59q0 28 17.5 46t43.5 18q27 0 44.5 -21t17.5 -54zM219 639q2 10 2 13q0 31 -21 31
q-7 0 -12.5 -5.5t-5.5 -13.5q0 -22 37 -25z" />
    <glyph glyph-name="uni064D" unicode="&#x64d;" 
d="M62 -253l-18 49l189 67l17 -49zM34 -175l-18 49l189 67l17 -49z" />
    <glyph glyph-name="uni064E" unicode="&#x64e;" 
d="M34 523l-18 49l189 67l17 -49z" />
    <glyph glyph-name="uni064F" unicode="&#x64f;" 
d="M189 651q0 -49 -37 -79t-90 -30q-17 0 -42 5l5 46q21 -4 37 -4q34 0 57 14q-52 13 -52 59q0 27 17.5 45.5t41.5 18.5q28 0 45.5 -20t17.5 -55zM146 639q1 3 1 13q0 31 -22 31q-7 0 -12 -5.5t-5 -13.5q0 -22 38 -25z" />
    <glyph glyph-name="uni0650" unicode="&#x650;" 
d="M38 -169l-18 49l200 69l17 -49z" />
    <glyph glyph-name="uni0651" unicode="&#x651;" 
d="M253 615q0 -31 -20 -52t-48 -21q-31 0 -50 26q-15 -26 -50 -26q-29 0 -47 18.5t-18 46.5q0 44 30 80l37 -20q-18 -23 -18 -48q0 -10 6 -17t15 -7q21 0 24 28l5 41l43 -5l-4 -33q-2 -31 24 -31q23 0 23 24t-22 52l41 22q29 -37 29 -78z" />
    <glyph glyph-name="uni0652" unicode="&#x652;" 
d="M20 620q0 33 21.5 55t54.5 22q32 0 53.5 -22t21.5 -55q0 -32 -22 -54.5t-53 -22.5q-33 0 -54.5 22t-21.5 55zM125 620q0 13 -8.5 22t-20.5 9t-21 -9t-9 -22q0 -12 9 -20.5t21 -8.5t20.5 8t8.5 21z" />
    <glyph glyph-name="uni0653" unicode="&#x653;" 
d="M64 531l-44 18q20 83 74 83q12 0 42 -13q30 -15 47 -15q13 0 20 7t16 28l45 -17q-20 -83 -75 -83q-13 0 -44 14q-30 14 -44 14q-22 0 -37 -36z" />
    </font>
</defs>
</svg>
