<?xml version="1.0" standalone="no"?>
<!DOCTYPE svg PUBLIC "-//W3C//DTD SVG 1.1//EN" "http://www.w3.org/Graphics/SVG/1.1/DTD/svg11.dtd" >
<svg xmlns="http://www.w3.org/2000/svg" xmlns:xlink="http://www.w3.org/1999/xlink" version="1.1">
<metadata>
Created by FontForge 20201107 at Tue Mar 19 00:42:45 2019
 By 
Copyright (c) 2015 by Colophon Foundry. All rights reserved.
</metadata>
<defs>
<font id="BasisGrotesqueArabicPro-Light" horiz-adv-x="0" >
  <font-face 
    font-family="Basis Grotesque Arabic Pro Lt"
    font-weight="300"
    font-stretch="normal"
    units-per-em="1000"
    panose-1="2 11 3 3 3 6 4 4 1 3"
    ascent="782"
    descent="-218"
    x-height="496"
    cap-height="700"
    bbox="-698 -445 1173 934"
    underline-thickness="50"
    underline-position="-200"
    unicode-range="U+000D-FEFC"
  />
<missing-glyph horiz-adv-x="586" 
d="M60 0v700h466v-700h-466zM293 384l171 280h-342zM96 62l176 288l-176 288v-576zM490 62v576l-176 -288zM122 36h342l-171 280z" />
    <glyph glyph-name="uniFC03" unicode="&#xfe8b;&#xfef0;" horiz-adv-x="658" arabic-form="isolated" 
d="M600 -6q2 -71 -89.5 -135t-209.5 -62q-122 0 -188.5 65.5t-66.5 186.5q0 93 54 221l41 -17q-44 -108 -44 -195q0 -95 52 -147t147 -52q96 -1 175.5 42.5t77.5 95.5q0 46 -56 84t-148 38h-18v60q98 0 141 26.5t43 87.5q0 49 -25 127l46 12q25 -72 25 -135
q0 -118 -101 -150q66 -20 105 -65t39 -88zM528 585q27 0 48 4v-39l-139 -27l-13 38l39 7q-30 20 -30 54q0 29 19 47.5t49 18.5q24 0 40.5 -13.5t19.5 -34.5l-25 -14q-5 25 -34 25q-17 0 -27 -8.5t-10 -21.5q0 -36 63 -36z" />
    <glyph glyph-name="uniFC04" unicode="&#xfe8b;&#xfef2;" horiz-adv-x="658" arabic-form="isolated" 
d="M600 -6q2 -71 -89.5 -135t-209.5 -62q-122 0 -188.5 65.5t-66.5 186.5q0 93 54 221l41 -17q-44 -108 -44 -195q0 -95 52 -147t147 -52q96 -1 175.5 42.5t77.5 95.5q0 46 -56 84t-148 38h-18v60q98 0 141 26.5t43 87.5q0 49 -25 127l46 12q25 -72 25 -135
q0 -118 -101 -150q66 -20 105 -65t39 -88zM528 585q27 0 48 4v-39l-139 -27l-13 38l39 7q-30 20 -30 54q0 29 19 47.5t49 18.5q24 0 40.5 -13.5t19.5 -34.5l-25 -14q-5 25 -34 25q-17 0 -27 -8.5t-10 -21.5q0 -36 63 -36zM245 -369l-53 54l53 55l53 -55zM352 -369l-53 54
l53 55l53 -55z" />
    <glyph glyph-name="uniFC09" unicode="&#xfe91;&#xfef0;" horiz-adv-x="658" arabic-form="isolated" 
d="M600 -6q2 -71 -89.5 -135t-209.5 -62q-122 0 -188.5 65.5t-66.5 186.5q0 93 54 221l41 -17q-44 -108 -44 -195q0 -95 52 -147t147 -52q96 -1 175.5 42.5t77.5 95.5q0 46 -56 84t-148 38h-18v60q98 0 141 26.5t43 87.5q0 49 -25 127l46 12q25 -72 25 -135
q0 -118 -101 -150q66 -20 105 -65t39 -88zM633 97l-48 49l48 50l48 -50z" />
    <glyph glyph-name="uniFC0A" unicode="&#xfe91;&#xfef2;" horiz-adv-x="658" arabic-form="isolated" 
d="M600 -6q2 -71 -89.5 -135t-209.5 -62q-122 0 -188.5 65.5t-66.5 186.5q0 93 54 221l41 -17q-44 -108 -44 -195q0 -95 52 -147t147 -52q96 -1 175.5 42.5t77.5 95.5q0 46 -56 84t-148 38h-18v60q98 0 141 26.5t43 87.5q0 49 -25 127l46 12q25 -72 25 -135
q0 -118 -101 -150q66 -20 105 -65t39 -88zM633 97l-48 49l48 50l48 -50zM245 -369l-53 54l53 55l53 -55zM352 -369l-53 54l53 55l53 -55z" />
    <glyph glyph-name="uniFC0F" unicode="&#xfe97;&#xfef0;" horiz-adv-x="658" arabic-form="isolated" 
d="M600 -6q2 -71 -89.5 -135t-209.5 -62q-122 0 -188.5 65.5t-66.5 186.5q0 93 54 221l41 -17q-44 -108 -44 -195q0 -95 52 -147t147 -52q96 -1 175.5 42.5t77.5 95.5q0 46 -56 84t-148 38h-18v60q98 0 141 26.5t43 87.5q0 49 -25 127l46 12q25 -72 25 -135
q0 -118 -101 -150q66 -20 105 -65t39 -88zM452 535l-48 49l48 50l48 -50zM551 535l-48 49l48 50l48 -50z" />
    <glyph glyph-name="uniFC10" unicode="&#xfe97;&#xfef2;" horiz-adv-x="658" arabic-form="isolated" 
d="M600 -6q2 -71 -89.5 -135t-209.5 -62q-122 0 -188.5 65.5t-66.5 186.5q0 93 54 221l41 -17q-44 -108 -44 -195q0 -95 52 -147t147 -52q96 -1 175.5 42.5t77.5 95.5q0 46 -56 84t-148 38h-18v60q98 0 141 26.5t43 87.5q0 49 -25 127l46 12q25 -72 25 -135
q0 -118 -101 -150q66 -20 105 -65t39 -88zM452 535l-48 49l48 50l48 -50zM551 535l-48 49l48 50l48 -50zM245 -369l-53 54l53 55l53 -55zM352 -369l-53 54l53 55l53 -55z" />
    <glyph glyph-name="uniFC13" unicode="&#xfe9b;&#xfef0;" horiz-adv-x="658" arabic-form="isolated" 
d="M600 -6q2 -71 -89.5 -135t-209.5 -62q-122 0 -188.5 65.5t-66.5 186.5q0 93 54 221l41 -17q-44 -108 -44 -195q0 -95 52 -147t147 -52q96 -1 175.5 42.5t77.5 95.5q0 46 -56 84t-148 38h-18v60q98 0 141 26.5t43 87.5q0 49 -25 127l46 12q25 -72 25 -135
q0 -118 -101 -150q66 -20 105 -65t39 -88zM502 629l-48 49l48 50l48 -50zM452 535l-48 49l48 50l48 -50zM551 535l-48 49l48 50l48 -50z" />
    <glyph glyph-name="uniFC14" unicode="&#xfe9b;&#xfef2;" horiz-adv-x="658" arabic-form="isolated" 
d="M600 -6q2 -71 -89.5 -135t-209.5 -62q-122 0 -188.5 65.5t-66.5 186.5q0 93 54 221l41 -17q-44 -108 -44 -195q0 -95 52 -147t147 -52q96 -1 175.5 42.5t77.5 95.5q0 46 -56 84t-148 38h-18v60q98 0 141 26.5t43 87.5q0 49 -25 127l46 12q25 -72 25 -135
q0 -118 -101 -150q66 -20 105 -65t39 -88zM502 629l-48 49l48 50l48 -50zM452 535l-48 49l48 50l48 -50zM551 535l-48 49l48 50l48 -50zM245 -369l-53 54l53 55l53 -55zM352 -369l-53 54l53 55l53 -55z" />
    <glyph glyph-name="uniFC31" unicode="&#xfed3;&#xfef0;" horiz-adv-x="644" arabic-form="isolated" 
d="M600 -6q2 -71 -89.5 -135t-209.5 -62q-122 0 -188.5 65.5t-66.5 186.5q0 93 54 221l41 -17q-44 -108 -44 -195q0 -95 52 -147t147 -52q96 -1 175.5 42.5t77.5 95.5q0 50 -56 91t-148 41h-18v60q120 3 153.5 32t35.5 130q0 32 -1 41q-15 -40 -46.5 -65.5t-69.5 -25.5
q-63 0 -102.5 42.5t-39.5 111.5q0 71 43 118t106 47q76 0 118 -68.5t42 -194.5q0 -90 -22.5 -135t-93.5 -64q67 -20 108.5 -69t41.5 -95zM508 448q-23 114 -103 114q-45 0 -72.5 -27.5t-27.5 -74.5t27 -74t74 -27q41 0 68 24.5t34 64.5zM408 686l-48 49l48 50l48 -50z" />
    <glyph glyph-name="uniFC32" unicode="&#xfed3;&#xfef2;" horiz-adv-x="644" arabic-form="isolated" 
d="M600 -6q2 -71 -89.5 -135t-209.5 -62q-122 0 -188.5 65.5t-66.5 186.5q0 93 54 221l41 -17q-44 -108 -44 -195q0 -95 52 -147t147 -52q96 -1 175.5 42.5t77.5 95.5q0 50 -56 91t-148 41h-18v60q120 3 153.5 32t35.5 130q0 32 -1 41q-15 -40 -46.5 -65.5t-69.5 -25.5
q-63 0 -102.5 42.5t-39.5 111.5q0 71 43 118t106 47q76 0 118 -68.5t42 -194.5q0 -90 -22.5 -135t-93.5 -64q67 -20 108.5 -69t41.5 -95zM508 448q-23 114 -103 114q-45 0 -72.5 -27.5t-27.5 -74.5t27 -74t74 -27q41 0 68 24.5t34 64.5zM408 686l-48 49l48 50l48 -50z
M245 -369l-53 54l53 55l53 -55zM352 -369l-53 54l53 55l53 -55z" />
    <glyph glyph-name="uniFC35" unicode="&#xfed7;&#xfef0;" horiz-adv-x="644" arabic-form="isolated" 
d="M600 -6q2 -71 -89.5 -135t-209.5 -62q-122 0 -188.5 65.5t-66.5 186.5q0 93 54 221l41 -17q-44 -108 -44 -195q0 -95 52 -147t147 -52q96 -1 175.5 42.5t77.5 95.5q0 50 -56 91t-148 41h-18v60q120 3 153.5 32t35.5 130q0 32 -1 41q-15 -40 -46.5 -65.5t-69.5 -25.5
q-63 0 -102.5 42.5t-39.5 111.5q0 71 43 118t106 47q76 0 118 -68.5t42 -194.5q0 -90 -22.5 -135t-93.5 -64q67 -20 108.5 -69t41.5 -95zM508 448q-23 114 -103 114q-45 0 -72.5 -27.5t-27.5 -74.5t27 -74t74 -27q41 0 68 24.5t34 64.5zM359 696l-48 49l48 50l48 -50z
M458 696l-48 49l48 50l48 -50z" />
    <glyph glyph-name="uniFC36" unicode="&#xfed7;&#xfef2;" horiz-adv-x="644" arabic-form="isolated" 
d="M600 -6q2 -71 -89.5 -135t-209.5 -62q-122 0 -188.5 65.5t-66.5 186.5q0 93 54 221l41 -17q-44 -108 -44 -195q0 -95 52 -147t147 -52q96 -1 175.5 42.5t77.5 95.5q0 50 -56 91t-148 41h-18v60q120 3 153.5 32t35.5 130q0 32 -1 41q-15 -40 -46.5 -65.5t-69.5 -25.5
q-63 0 -102.5 42.5t-39.5 111.5q0 71 43 118t106 47q76 0 118 -68.5t42 -194.5q0 -90 -22.5 -135t-93.5 -64q67 -20 108.5 -69t41.5 -95zM508 448q-23 114 -103 114q-45 0 -72.5 -27.5t-27.5 -74.5t27 -74t74 -27q41 0 68 24.5t34 64.5zM245 -369l-53 54l53 55l53 -55z
M352 -369l-53 54l53 55l53 -55zM359 696l-48 49l48 50l48 -50zM458 696l-48 49l48 50l48 -50z" />
    <glyph glyph-name="uniFC4F" unicode="&#xfee7;&#xfef0;" horiz-adv-x="658" arabic-form="isolated" 
d="M600 -6q2 -71 -89.5 -135t-209.5 -62q-122 0 -188.5 65.5t-66.5 186.5q0 93 54 221l41 -17q-44 -108 -44 -195q0 -95 52 -147t147 -52q96 -1 175.5 42.5t77.5 95.5q0 46 -56 84t-148 38h-18v60q98 0 141 26.5t43 87.5q0 49 -25 127l46 12q25 -72 25 -135
q0 -118 -101 -150q66 -20 105 -65t39 -88zM501 525l-48 49l48 50l48 -50z" />
    <glyph glyph-name="uniFC50" unicode="&#xfee7;&#xfef2;" horiz-adv-x="658" arabic-form="isolated" 
d="M600 -6q2 -71 -89.5 -135t-209.5 -62q-122 0 -188.5 65.5t-66.5 186.5q0 93 54 221l41 -17q-44 -108 -44 -195q0 -95 52 -147t147 -52q96 -1 175.5 42.5t77.5 95.5q0 46 -56 84t-148 38h-18v60q98 0 141 26.5t43 87.5q0 49 -25 127l46 12q25 -72 25 -135
q0 -118 -101 -150q66 -20 105 -65t39 -88zM501 525l-48 49l48 50l48 -50zM245 -369l-53 54l53 55l53 -55zM352 -369l-53 54l53 55l53 -55z" />
    <glyph glyph-name="uniFEF5" unicode="&#xfedf;&#xfe82;" horiz-adv-x="487" arabic-form="isolated" 
d="M365 682h48v-542q0 -69 -55.5 -104.5t-152.5 -35.5h-141l-4 60h126l-65 445l48 7l63 -451q133 4 133 89v532zM53 596l-30 12q9 30 26.5 47t38.5 17q6 0 16 -3.5t18.5 -7.5t9.5 -4q31 -14 41 -14q14 0 20.5 5.5t16.5 24.5l30 -13q-19 -63 -66 -63q-8 0 -18.5 3.5t-19 7.5
t-9.5 4q-30 14 -41 14q-17 0 -33 -30z" />
    <glyph glyph-name="uniFEF6" unicode="&#xfee0;&#xfe82;" horiz-adv-x="539" arabic-form="final" 
d="M539 60l16 -10v-40l-16 -10q-107 0 -145 71q-47 -71 -189 -71h-141l-4 60h126l-65 445l48 7l63 -451q133 4 133 89v532h48v-536q0 -86 126 -86zM53 596l-30 12q9 30 26.5 47t38.5 17q6 0 16 -3.5t18.5 -7.5t9.5 -4q31 -14 41 -14q14 0 20.5 5.5t16.5 24.5l30 -13
q-19 -63 -66 -63q-8 0 -18.5 3.5t-19 7.5t-9.5 4q-30 14 -41 14q-17 0 -33 -30z" />
    <glyph glyph-name="uniFEF7" unicode="&#xfedf;&#xfe84;" horiz-adv-x="487" arabic-form="isolated" 
d="M365 682h48v-542q0 -69 -55.5 -104.5t-152.5 -35.5h-141l-4 60h126l-65 445l48 7l63 -451q133 4 133 89v532zM166 651q27 0 48 4v-39l-139 -27l-13 38l39 7q-30 20 -30 54q0 29 19 47.5t49 18.5q24 0 40.5 -13.5t19.5 -34.5l-25 -14q-5 25 -34 25q-17 0 -27 -8.5
t-10 -21.5q0 -36 63 -36z" />
    <glyph glyph-name="uniFEF8" unicode="&#xfee0;&#xfe84;" horiz-adv-x="539" arabic-form="final" 
d="M539 60l16 -10v-40l-16 -10q-107 0 -145 71q-47 -71 -189 -71h-141l-4 60h126l-65 445l48 7l63 -451q133 4 133 89v532h48v-536q0 -86 126 -86zM166 651q27 0 48 4v-39l-139 -27l-13 38l39 7q-30 20 -30 54q0 29 19 47.5t49 18.5q24 0 40.5 -13.5t19.5 -34.5l-25 -14
q-5 25 -34 25q-17 0 -27 -8.5t-10 -21.5q0 -36 63 -36z" />
    <glyph glyph-name="uniFEF9" unicode="&#xfedf;&#xfe88;" horiz-adv-x="487" arabic-form="isolated" 
d="M365 682h48v-542q0 -69 -55.5 -104.5t-152.5 -35.5h-141l-4 60h126l-65 445l48 7l63 -451q133 4 133 89v532zM254 -198q27 0 48 4v-39l-139 -27l-13 38l39 7q-30 19 -30 54q0 29 19 47.5t49 18.5q24 0 40.5 -13.5t19.5 -34.5l-25 -14q-5 25 -34 25q-17 0 -27 -8.5
t-10 -21.5q0 -36 63 -36z" />
    <glyph glyph-name="uniFEFA" unicode="&#xfee0;&#xfe88;" horiz-adv-x="539" arabic-form="final" 
d="M539 60l16 -10v-40l-16 -10q-107 0 -145 71q-47 -71 -189 -71h-141l-4 60h126l-65 445l48 7l63 -451q133 4 133 89v532h48v-536q0 -86 126 -86zM264 -198q27 0 48 4v-39l-139 -27l-13 38l39 7q-30 19 -30 54q0 29 19 47.5t49 18.5q24 0 40.5 -13.5t19.5 -34.5l-25 -14
q-5 25 -34 25q-17 0 -27 -8.5t-10 -21.5q0 -36 63 -36z" />
    <glyph glyph-name="uniFEFB" unicode="&#xfedf;&#xfe8e;" horiz-adv-x="487" arabic-form="isolated" 
d="M365 682h48v-542q0 -69 -55.5 -104.5t-152.5 -35.5h-141l-4 60h126l-65 445l48 7l63 -451q133 4 133 89v532z" />
    <glyph glyph-name="uniFEFC" unicode="&#xfee0;&#xfe8e;" horiz-adv-x="539" arabic-form="final" 
d="M539 60l16 -10v-40l-16 -10q-107 0 -145 71q-47 -71 -189 -71h-141l-4 60h126l-65 445l48 7l63 -451q133 4 133 89v532h48v-536q0 -86 126 -86z" />
    <glyph glyph-name="f_f" unicode="ff" horiz-adv-x="562" 
d="M102 0v452h-79v44h79v103q0 71 36 111t106 40q28 0 47 -9l-9 -49q-21 8 -41 8q-37 0 -59 -24.5t-22 -71.5v-108h198v103q0 71 36 111t106 40q28 0 47 -9l-9 -49q-21 8 -41 8q-37 0 -59 -24.5t-22 -71.5v-108h121v-44h-121v-452h-58v452h-198v-452h-58z" />
    <glyph glyph-name="f_f_i" unicode="ffi" horiz-adv-x="788" 
d="M103 0v452h-79v44h79v103q0 71 36 111t106 40q27 0 47 -9l-9 -49q-21 8 -41 8q-37 0 -59 -24.5t-22 -71.5v-108h218v103q0 71 36 111t106 40q27 0 47 -9l-9 -49q-21 8 -41 8q-37 0 -59 -24.5t-22 -71.5v-108h275v-496h-58v452h-217v-452h-58v452h-218v-452h-58zM646 590
v80h74v-80h-74z" />
    <glyph glyph-name="f_f_l" unicode="ffl" horiz-adv-x="788" 
d="M103 0v452h-79v44h79v103q0 71 36 111t106 40q27 0 47 -9l-9 -49q-21 8 -41 8q-37 0 -59 -24.5t-22 -71.5v-108h218v103q0 71 36 111t106 40q27 0 47 -9l-9 -49q-21 8 -41 8q-37 0 -59 -24.5t-22 -71.5v-108h121v-44h-121v-452h-58v452h-218v-452h-58zM654 0v700h58v-700
h-58z" />
    <glyph glyph-name="f_i" unicode="fi" horiz-adv-x="515" 
d="M103 0v452h-79v44h79v103q0 71 36 111t106 40q27 0 47 -9l-9 -49q-21 8 -41 8q-37 0 -59 -24.5t-22 -71.5v-108h278v-496h-58v452h-220v-452h-58zM373 590v80h74v-80h-74z" />
    <glyph glyph-name="f_l" unicode="fl" horiz-adv-x="517" 
d="M103 0v452h-79v44h79v103q0 71 36 111t106 40q27 0 47 -9l-9 -49q-21 8 -41 8q-37 0 -59 -24.5t-22 -71.5v-108h121v-44h-121v-452h-58zM383 0v700h58v-700h-58z" />
    <glyph glyph-name="uni06440671" unicode="&#xfedf;&#xfb51;" horiz-adv-x="487" 
d="M365 682h48v-542q0 -69 -55.5 -104.5t-152.5 -35.5h-141l-4 60h126l-65 445l48 7l63 -451q133 4 133 89v532zM249 674q0 -80 -117 -80q-51 0 -83 5l-6 41l40 -3q28 58 51.5 83t52.5 25q26 0 44 -21t18 -50zM208 674q0 25 -21 25q-31 0 -63 -63h6q78 0 78 38z" />
    <glyph glyph-name="uni06440671.fina" unicode="&#xfee0;&#xfb51;" horiz-adv-x="539" 
d="M539 60l16 -10v-40l-16 -10q-107 0 -145 71q-47 -71 -189 -71h-141l-4 60h126l-65 445l48 7l63 -451q133 4 133 89v532h48v-536q0 -86 126 -86zM249 674q0 -80 -117 -80q-51 0 -83 5l-6 41l40 -3q28 58 51.5 83t52.5 25q26 0 44 -21t18 -50zM208 674q0 25 -21 25
q-31 0 -63 -63h6q78 0 78 38z" />
    <glyph glyph-name="uni06410626" unicode="&#xfed3;&#xfe8a;" horiz-adv-x="644" 
d="M600 -6q2 -71 -89.5 -135t-209.5 -62q-122 0 -188.5 65.5t-66.5 186.5q0 93 54 221l41 -17q-44 -108 -44 -195q0 -95 52 -147t147 -52q96 -1 175.5 42.5t77.5 95.5q0 50 -56 91t-148 41h-18v60q120 3 153.5 32t35.5 130q0 32 -1 41q-15 -40 -46.5 -65.5t-69.5 -25.5
q-63 0 -102.5 42.5t-39.5 111.5q0 71 43 118t106 47q76 0 118 -68.5t42 -194.5q0 -90 -22.5 -135t-93.5 -64q67 -20 108.5 -69t41.5 -95zM508 448q-23 114 -103 114q-45 0 -72.5 -27.5t-27.5 -74.5t27 -74t74 -27q41 0 68 24.5t34 64.5zM408 686l-48 49l48 50l48 -50z
M158 409q27 0 48 4v-39l-139 -27l-13 38l39 7q-30 20 -30 54q0 29 19 47.5t49 18.5q24 0 40.5 -13.5t19.5 -34.5l-25 -14q-5 25 -34 25q-17 0 -27 -8.5t-10 -21.5q0 -36 63 -36z" />
    <glyph glyph-name="uni06420626" unicode="&#xfed7;&#xfe8a;" horiz-adv-x="644" 
d="M600 -6q2 -71 -89.5 -135t-209.5 -62q-122 0 -188.5 65.5t-66.5 186.5q0 93 54 221l41 -17q-44 -108 -44 -195q0 -95 52 -147t147 -52q96 -1 175.5 42.5t77.5 95.5q0 50 -56 91t-148 41h-18v60q120 3 153.5 32t35.5 130q0 32 -1 41q-15 -40 -46.5 -65.5t-69.5 -25.5
q-63 0 -102.5 42.5t-39.5 111.5q0 71 43 118t106 47q76 0 118 -68.5t42 -194.5q0 -90 -22.5 -135t-93.5 -64q67 -20 108.5 -69t41.5 -95zM508 448q-23 114 -103 114q-45 0 -72.5 -27.5t-27.5 -74.5t27 -74t74 -27q41 0 68 24.5t34 64.5zM158 409q27 0 48 4v-39l-139 -27
l-13 38l39 7q-30 20 -30 54q0 29 19 47.5t49 18.5q24 0 40.5 -13.5t19.5 -34.5l-25 -14q-5 25 -34 25q-17 0 -27 -8.5t-10 -21.5q0 -36 63 -36zM359 696l-48 49l48 50l48 -50zM458 696l-48 49l48 50l48 -50z" />
    <glyph glyph-name="uni066E.init" unicode="&#x66e;" horiz-adv-x="231" 
d="M0 0l-16 10v40l16 10q65 0 94.5 29t29.5 90t-33 178l46 12q36 -121 36 -198q0 -171 -173 -171z" />
    <glyph glyph-name="uni066E.medi" unicode="&#x66e;" horiz-adv-x="300" 
d="M300 60l16 -10v-40l-16 -10q-115 0 -150 83q-17 -40 -56.5 -61.5t-93.5 -21.5l-16 10v40l16 10q126 0 126 86v154h48v-154q0 -86 126 -86z" />
    <glyph glyph-name="uni066E.fina" unicode="&#x66e;" horiz-adv-x="776" 
d="M776 60l16 -11v-38l-16 -11q-54 0 -95 22.5t-55 59.5q-17 -39 -54 -59q-36 -19 -87 -24q-55 -5 -139 -5q-140 0 -210 39.5t-70 148.5q0 70 35 180l44 -10q-31 -96 -31 -159q0 -82 54 -110.5t178 -28.5q139 0 197.5 23t58.5 79v144h48v-154q0 -40 33 -63t93 -23z" />
    <glyph glyph-name="uni066F.fina" unicode="&#x66f;" horiz-adv-x="633" 
d="M633 60l16 -8v-42l-16 -10h-57q-9 -115 -71 -161.5t-204 -46.5q-122 0 -188.5 65.5t-66.5 186.5q0 96 54 221l41 -17q-44 -108 -44 -195q0 -95 52 -147t147 -52q128 0 175 29.5t54 116.5h-57q-98 0 -149.5 42t-51.5 123q0 67 41.5 113.5t102.5 46.5q160 0 166 -265h56z
M468 60h59q-5 204 -114 204q-46 0 -71 -26t-25 -73q0 -105 151 -105z" />
    <glyph glyph-name="uni06A1.init" unicode="&#x6a1;" horiz-adv-x="382" 
d="M338 222q0 -94 -27 -140t-97 -64t-214 -18l-16 10v40l16 10q125 0 186 11q59 12 80.5 43.5t21.5 101.5q0 31 -1 40q-14 -40 -46 -65t-70 -25q-63 0 -102.5 42.5t-39.5 111.5q0 70 43 117.5t106 47.5q77 0 118.5 -68.5t41.5 -194.5zM280 313q-22 114 -103 114
q-46 0 -73 -27.5t-27 -74.5q0 -46 27.5 -73.5t73.5 -27.5q40 0 67 24t35 65z" />
    <glyph glyph-name="uni06A1.medi" unicode="&#x6a1;" horiz-adv-x="436" 
d="M436 60l16 -10v-40l-16 -10q-123 0 -216 30q-93 -30 -220 -30l-16 10v40l16 10q70 0 139 8q-80 54 -80 135q0 75 46 126t113 51t113 -51t46 -126q0 -83 -78 -135q69 -8 137 -8zM218 86q109 34 109 117q0 52 -30 84.5t-79 32.5t-79 -32.5t-30 -84.5q0 -83 109 -117z" />
    <glyph glyph-name="uni06A1.fina" unicode="&#x6a1;" horiz-adv-x="804" 
d="M804 60l16 -11v-38l-16 -11q-126 0 -218 30q-104 -36 -240 -36q-143 0 -210.5 38.5t-69.5 147.5q0 71 35 182l42 -11q-30 -93 -30 -156q0 -83 54 -112t179 -29q86 0 163 11q-82 52 -82 138q0 73 44 125t115 52q70 0 114.5 -52t44.5 -125q0 -81 -79 -135q70 -8 138 -8z
M589 85q106 37 106 118q0 52 -29.5 84.5t-79.5 32.5q-51 0 -80 -32.5t-29 -84.5q0 -84 112 -118z" />
    <glyph glyph-name="uniFB51" unicode="&#x671;" horiz-adv-x="239" arabic-form="final" 
d="M74 152v520h48v-507q0 -105 116 -105l17 -10v-40l-17 -10q-164 0 -164 152zM210 822q0 -80 -117 -80q-51 0 -83 5l-6 41l40 -3q28 58 51.5 83t52.5 25q26 0 44 -21t18 -50zM169 822q0 25 -21 25q-32 0 -63 -63h6q78 0 78 38z" />
    <glyph glyph-name="uniFB57" unicode="&#x67e;" horiz-adv-x="776" arabic-form="final" 
d="M776 60l16 -11v-38l-16 -11q-54 0 -95 22.5t-55 59.5q-17 -39 -54 -59q-36 -19 -87 -24q-55 -5 -139 -5q-140 0 -210 39.5t-70 148.5q0 70 35 180l44 -10q-31 -96 -31 -159q0 -82 54 -110.5t178 -28.5q139 0 197.5 23t58.5 79v144h48v-154q0 -40 33 -63t93 -23zM297 -185
l-48 50l48 49l48 -49zM396 -185l-48 50l48 49l48 -49zM347 -279l-48 50l48 49l48 -49z" />
    <glyph glyph-name="uniFB58" unicode="&#x67e;" horiz-adv-x="231" arabic-form="initial" 
d="M0 0l-16 10v40l16 10q65 0 94.5 29t29.5 90t-33 178l46 12q36 -121 36 -198q0 -171 -173 -171zM45 -185l-48 50l48 49l48 -49zM144 -185l-48 50l48 49l48 -49zM95 -279l-48 50l48 49l48 -49z" />
    <glyph glyph-name="uniFB59" unicode="&#x67e;" horiz-adv-x="300" arabic-form="medial" 
d="M300 60l16 -10v-40l-16 -10q-115 0 -150 83q-17 -40 -56.5 -61.5t-93.5 -21.5l-16 10v40l16 10q126 0 126 86v154h48v-154q0 -86 126 -86zM99 -185l-48 50l48 49l48 -49zM198 -185l-48 50l48 49l48 -49zM149 -279l-48 50l48 49l48 -49z" />
    <glyph glyph-name="uniFB6B" unicode="&#x6a4;" horiz-adv-x="804" arabic-form="final" 
d="M804 60l16 -11v-38l-16 -11q-126 0 -218 30q-104 -36 -240 -36q-143 0 -210.5 38.5t-69.5 147.5q0 71 35 182l42 -11q-30 -93 -30 -156q0 -83 54 -112t179 -29q86 0 163 11q-82 52 -82 138q0 73 44 125t115 52q70 0 114.5 -52t44.5 -125q0 -81 -79 -135q70 -8 138 -8z
M589 85q106 37 106 118q0 52 -29.5 84.5t-79.5 32.5q-51 0 -80 -32.5t-29 -84.5q0 -84 112 -118zM589 566l-48 49l48 50l48 -50zM539 472l-48 49l48 50l48 -50zM638 472l-48 49l48 50l48 -50z" />
    <glyph glyph-name="uniFB6C" unicode="&#x6a4;" horiz-adv-x="382" arabic-form="initial" 
d="M338 222q0 -94 -27 -140t-97 -64t-214 -18l-16 10v40l16 10q125 0 186 11q59 12 80.5 43.5t21.5 101.5q0 31 -1 40q-14 -40 -46 -65t-70 -25q-63 0 -102.5 42.5t-39.5 111.5q0 70 43 117.5t106 47.5q77 0 118.5 -68.5t41.5 -194.5zM280 313q-22 114 -103 114
q-46 0 -73 -27.5t-27 -74.5q0 -46 27.5 -73.5t73.5 -27.5q40 0 67 24t35 65zM176 664l-48 49l48 50l48 -50zM126 570l-48 49l48 50l48 -50zM225 570l-48 49l48 50l48 -50z" />
    <glyph glyph-name="uniFB6D" unicode="&#x6a4;" horiz-adv-x="436" arabic-form="medial" 
d="M436 60l16 -10v-40l-16 -10q-123 0 -216 30q-93 -30 -220 -30l-16 10v40l16 10q70 0 139 8q-80 54 -80 135q0 75 46 126t113 51t113 -51t46 -126q0 -83 -78 -135q69 -8 137 -8zM218 86q109 34 109 117q0 52 -30 84.5t-79 32.5t-79 -32.5t-30 -84.5q0 -83 109 -117z
M221 566l-48 49l48 50l48 -50zM171 472l-48 49l48 50l48 -50zM270 472l-48 49l48 50l48 -50z" />
    <glyph glyph-name="uniFB7B" unicode="&#x686;" horiz-adv-x="557" arabic-form="final" 
d="M557 60l16 -10v-40l-16 -10q-82 0 -128 55t-41 153q-277 -89 -277 -245q0 -67 56.5 -110t145.5 -43q121 0 195 74l37 -33q-82 -101 -244 -101q-107 0 -172.5 58t-65.5 153q0 97 87 175.5t252 129.5q-156 48 -232 48q-54 0 -54 -49q0 -18 11 -49l-49 -16q-12 34 -12 64
q0 47 25.5 76.5t68.5 29.5q80 0 310 -71l28 -9l5 -50q-23 -5 -72 -19q-1 -5 -1 -24q0 -137 127 -137zM248 -18l-48 50l48 49l48 -49zM347 -18l-48 50l48 49l48 -49zM298 -112l-48 50l48 49l48 -49z" />
    <glyph glyph-name="uniFB7C" unicode="&#x686;" horiz-adv-x="531" arabic-form="initial" 
d="M452 261l24 -10v-56q-55 -10 -171 -81q-90 -55 -160 -85q-69 -29 -145 -29l-16 10v40l16 10q75 0 140 28q69 29 154 79l43 24q41 23 61 31q-188 82 -262 82q-22 0 -35.5 -12.5t-13.5 -35.5q0 -17 11 -50l-49 -16q-13 35 -13 66q0 47 27.5 75.5t67.5 28.5q50 0 122.5 -24
t198.5 -75zM200 -144l-48 50l48 49l48 -49zM299 -144l-48 50l48 49l48 -49zM250 -238l-48 50l48 49l48 -49z" />
    <glyph glyph-name="uniFB7D" unicode="&#x686;" horiz-adv-x="557" arabic-form="medial" 
d="M557 60l16 -10v-40l-16 -10q-89 0 -139.5 39.5t-53.5 109.5q-31 -16 -61 -36q-91 -55 -159 -84q-69 -29 -144 -29l-16 10v40l16 10q75 0 140 28q69 29 154 79l43 24q41 23 61 31q-188 82 -262 82q-22 0 -35.5 -12.5t-13.5 -35.5q0 -17 11 -50l-49 -16q-13 35 -13 66
q0 47 27.5 75.5t67.5 28.5q50 0 122.5 -24t198.5 -75l24 -10v-56q-29 -4 -72 -25q6 -61 40 -85.5t113 -24.5zM226 -143l-48 50l48 49l48 -49zM325 -143l-48 50l48 49l48 -49zM276 -237l-48 50l48 49l48 -49z" />
    <glyph glyph-name="uniFB8B" unicode="&#x698;" horiz-adv-x="397" arabic-form="final" 
d="M397 60l16 -10v-40l-16 -10q-81 0 -103 52v-4q0 -108 -59.5 -179.5t-163.5 -71.5q-58 0 -119 29l19 54q47 -22 100 -22q85 0 128 57q45 57 45 143q0 52 -57 194l47 17l36 -97q30 -79 48 -94t79 -18zM198 442l-48 49l48 50l48 -50zM148 348l-48 49l48 50l48 -50zM247 348
l-48 49l48 50l48 -50z" />
    <glyph glyph-name="uniFB8F" unicode="&#x6a9;" horiz-adv-x="765" arabic-form="final" 
d="M765 60l16 -11v-38l-16 -11q-110 0 -161 63q-57 -69 -268 -69q-139 0 -204.5 46.5t-65.5 147.5q0 74 39 196l45 -12q-29 -105 -29 -160q0 -79 51.5 -115.5t163.5 -36.5q108 0 164 12t74 39l-169 306v66l364 178l23 -51l-337 -165l147 -269q39 -70 70.5 -93t92.5 -23z
M583 141v3v-3z" />
    <glyph glyph-name="uniFB90" unicode="&#x6a9;" horiz-adv-x="402" arabic-form="initial" 
d="M69 447l116 -123q105 -111 105 -192q0 -132 -218 -132h-72l-16 10v40l16 10h76q158 0 158 72q0 52 -92 150l-127 135v66l364 177l23 -51z" />
    <glyph glyph-name="uniFB91" unicode="&#x6a9;" horiz-adv-x="398" arabic-form="medial" 
d="M398 60l16 -10v-40l-16 -10q-63 0 -104 16t-72 53q-16 -30 -48 -49.5t-71 -19.5h-103l-16 10v40l16 10h110q26 0 48.5 17t32.5 43l-164 297v66l364 177l23 -51l-338 -165l148 -268q38 -69 71.5 -92.5t102.5 -23.5z" />
    <glyph glyph-name="uniFB93" unicode="&#x6af;" horiz-adv-x="765" arabic-form="final" 
d="M765 60l16 -11v-38l-16 -11q-110 0 -161 63q-57 -69 -268 -69q-139 0 -204.5 46.5t-65.5 147.5q0 74 39 196l45 -12q-29 -105 -29 -160q0 -79 51.5 -115.5t163.5 -36.5q108 0 164 12t74 39l-169 306v66l364 178l23 -51l-337 -165l147 -269q39 -70 70.5 -93t92.5 -23z
M583 141v3v-3zM438 631l-13 32l253 121l13 -32z" />
    <glyph glyph-name="uniFB94" unicode="&#x6af;" horiz-adv-x="402" arabic-form="initial" 
d="M69 447l116 -123q105 -111 105 -192q0 -132 -218 -132h-72l-16 10v40l16 10h76q158 0 158 72q0 52 -92 150l-127 135v66l364 177l23 -51zM58 631l-13 32l253 121l13 -32z" />
    <glyph glyph-name="uniFB95" unicode="&#x6af;" horiz-adv-x="398" arabic-form="medial" 
d="M398 60l16 -10v-40l-16 -10q-63 0 -104 16t-72 53q-16 -30 -48 -49.5t-71 -19.5h-103l-16 10v40l16 10h110q26 0 48.5 17t32.5 43l-164 297v66l364 177l23 -51l-338 -165l148 -268q38 -69 71.5 -92.5t102.5 -23.5zM71 631l-13 32l253 121l13 -32z" />
    <glyph glyph-name="uniFB9F" unicode="&#x6ba;" horiz-adv-x="651" arabic-form="final" 
d="M651 60l16 -10v-40l-16 -10q-64 0 -99 29q-4 -116 -69.5 -179t-181.5 -63q-122 0 -188.5 65.5t-66.5 186.5q0 93 54 221l41 -17q-44 -108 -44 -195q0 -95 52 -147t147 -52q107 0 155.5 47.5t48.5 152.5q0 89 -47 213l48 17q32 -80 46 -163q15 -56 104 -56z" />
    <glyph glyph-name="uniFBFD" unicode="&#x6cc;" horiz-adv-x="653" arabic-form="final" 
d="M653 60l16 -10v-40l-16 -10q-38 4 -57 18q3 -11 3 -32q2 -43 -42.5 -88t-115.5 -73.5t-140 -27.5q-122 0 -188.5 65.5t-66.5 186.5q0 93 54 221l41 -17q-44 -108 -44 -195q0 -95 52 -147t147 -52q96 -1 176.5 43.5t78.5 96.5q0 31 -29 66l-78 89l42 38l86 -95
q30 -32 81 -37z" />
    <glyph glyph-name="uniFBFE" unicode="&#x6cc;" horiz-adv-x="231" arabic-form="initial" 
d="M0 0l-16 10v40l16 10q65 0 94.5 29t29.5 90t-33 178l46 12q36 -121 36 -198q0 -171 -173 -171zM41 -191l-53 54l53 55l53 -55zM148 -191l-53 54l53 55l53 -55z" />
    <glyph glyph-name="uniFBFF" unicode="&#x6cc;" horiz-adv-x="300" arabic-form="medial" 
d="M300 60l16 -10v-40l-16 -10q-115 0 -150 83q-17 -40 -56.5 -61.5t-93.5 -21.5l-16 10v40l16 10q126 0 126 86v154h48v-154q0 -86 126 -86zM95 -191l-53 54l53 55l53 -55zM202 -191l-53 54l53 55l53 -55z" />
    <glyph glyph-name="uniFE82" unicode="&#x622;" horiz-adv-x="239" arabic-form="final" 
d="M74 152v520h48v-507q0 -105 116 -105l17 -10v-40l-17 -10q-164 0 -164 152zM14 744l-30 12q9 30 26.5 47t38.5 17q6 0 16 -3.5t18.5 -7.5t9.5 -4q31 -14 41 -14q14 0 20.5 5.5t16.5 24.5l30 -13q-19 -63 -66 -63q-8 0 -18.5 3.5t-19 7.5t-9.5 4q-30 14 -41 14
q-17 0 -33 -30z" />
    <glyph glyph-name="uniFE84" unicode="&#x623;" horiz-adv-x="239" arabic-form="final" 
d="M74 152v520h48v-507q0 -105 116 -105l17 -10v-40l-17 -10q-164 0 -164 152zM127 799q27 0 48 4v-39l-139 -27l-13 38l39 7q-30 20 -30 54q0 29 19 47.5t49 18.5q24 0 40.5 -13.5t19.5 -34.5l-25 -14q-5 25 -34 25q-17 0 -27 -8.5t-10 -21.5q0 -36 63 -36z" />
    <glyph glyph-name="uniFE86" unicode="&#x624;" horiz-adv-x="370" arabic-form="final" 
d="M371 60l15 -11v-39l-15 -10h-43q-19 -95 -75 -149t-135 -54q-61 0 -124 29l19 54q55 -24 105 -24q62 0 105 38.5t59 105.5h-80q-82 0 -124 40.5t-42 113.5q0 71 41.5 118t104.5 47q74 0 114 -60.5t40 -171.5q0 -21 -1 -27h36zM202 60h89v19q0 186 -109 186q-44 0 -73 -30
t-29 -76q0 -52 27.5 -75.5t94.5 -23.5zM210 445q27 0 48 4v-39l-139 -27l-13 38l39 7q-30 20 -30 54q0 29 19 47.5t49 18.5q24 0 40.5 -13.5t19.5 -34.5l-25 -14q-5 25 -34 25q-17 0 -27 -8.5t-10 -21.5q0 -36 63 -36z" />
    <glyph glyph-name="uniFE88" unicode="&#x625;" horiz-adv-x="239" arabic-form="final" 
d="M74 152v520h48v-507q0 -105 116 -105l17 -10v-40l-17 -10q-164 0 -164 152zM133 -178q27 0 48 4v-39l-139 -27l-13 38l39 7q-30 19 -30 54q0 29 19 47.5t49 18.5q24 0 40.5 -13.5t19.5 -34.5l-25 -14q-5 25 -34 25q-17 0 -27 -8.5t-10 -21.5q0 -36 63 -36z" />
    <glyph glyph-name="uniFE8A" unicode="&#x626;" horiz-adv-x="653" arabic-form="final" 
d="M653 60l16 -10v-40l-16 -10q-38 4 -57 18q3 -11 3 -32q2 -43 -42.5 -88t-115.5 -73.5t-140 -27.5q-122 0 -188.5 65.5t-66.5 186.5q0 93 54 221l41 -17q-44 -108 -44 -195q0 -95 52 -147t147 -52q96 -1 176.5 43.5t78.5 96.5q0 31 -29 66l-78 89l42 38l86 -95
q30 -32 81 -37zM180 409q27 0 48 4v-39l-139 -27l-13 38l39 7q-30 20 -30 54q0 29 19 47.5t49 18.5q24 0 40.5 -13.5t19.5 -34.5l-25 -14q-5 25 -34 25q-17 0 -27 -8.5t-10 -21.5q0 -36 63 -36z" />
    <glyph glyph-name="uniFE8B" unicode="&#x626;" horiz-adv-x="231" arabic-form="initial" 
d="M0 0l-16 10v40l16 10q65 0 94.5 29t29.5 90t-33 178l46 12q36 -121 36 -198q0 -171 -173 -171zM133 532q27 0 48 4v-39l-139 -27l-13 38l39 7q-30 19 -30 54q0 29 19 47.5t49 18.5q24 0 40.5 -13.5t19.5 -34.5l-25 -14q-5 25 -34 25q-17 0 -27 -8.5t-10 -21.5
q0 -36 63 -36z" />
    <glyph glyph-name="uniFE8C" unicode="&#x626;" horiz-adv-x="300" arabic-form="medial" 
d="M300 60l16 -10v-40l-16 -10q-115 0 -150 83q-17 -40 -56.5 -61.5t-93.5 -21.5l-16 10v40l16 10q126 0 126 86v154h48v-154q0 -86 126 -86zM178 455q27 0 48 4v-39l-139 -27l-13 38l39 7q-30 20 -30 54q0 29 19 47.5t49 18.5q24 0 40.5 -13.5t19.5 -34.5l-25 -14
q-5 25 -34 25q-17 0 -27 -8.5t-10 -21.5q0 -36 63 -36z" />
    <glyph glyph-name="uniFE8E" unicode="&#x627;" horiz-adv-x="239" arabic-form="final" 
d="M74 152v520h48v-507q0 -105 116 -105l17 -10v-40l-17 -10q-164 0 -164 152z" />
    <glyph glyph-name="uniFE90" unicode="&#x628;" horiz-adv-x="776" arabic-form="final" 
d="M776 60l16 -11v-38l-16 -11q-54 0 -95 22.5t-55 59.5q-17 -39 -54 -59q-36 -19 -87 -24q-55 -5 -139 -5q-140 0 -210 39.5t-70 148.5q0 70 35 180l44 -10q-31 -96 -31 -159q0 -82 54 -110.5t178 -28.5q139 0 197.5 23t58.5 79v144h48v-154q0 -40 33 -63t93 -23zM347 -181
l-48 49l48 50l48 -50z" />
    <glyph glyph-name="uniFE91" unicode="&#x628;" horiz-adv-x="231" arabic-form="initial" 
d="M0 0l-16 10v40l16 10q65 0 94.5 29t29.5 90t-33 178l46 12q36 -121 36 -198q0 -171 -173 -171zM95 -181l-48 49l48 50l48 -50z" />
    <glyph glyph-name="uniFE92" unicode="&#x628;" horiz-adv-x="300" arabic-form="medial" 
d="M300 60l16 -10v-40l-16 -10q-115 0 -150 83q-17 -40 -56.5 -61.5t-93.5 -21.5l-16 10v40l16 10q126 0 126 86v154h48v-154q0 -86 126 -86zM149 -181l-48 49l48 50l48 -50z" />
    <glyph glyph-name="uniFE94" unicode="&#x629;" horiz-adv-x="509" arabic-form="final" 
d="M509 60l16 -10v-40l-16 -10q-89 0 -129 28.5t-40 97.5v33q-21 -38 -64.5 -59.5t-93.5 -21.5q-60 0 -99 29.5t-39 81.5q0 82 78 144.5t218 99.5v49h50v-346q0 -47 24 -61.5t95 -14.5zM340 204v171q-103 -19 -174.5 -67t-71.5 -106q0 -30 28.5 -47t74.5 -17q47 0 87.5 18
t55.5 48zM346 223l-1 -3q1 1 1 3zM229 559l-48 49l48 50l48 -50zM328 559l-48 49l48 50l48 -50z" />
    <glyph glyph-name="uniFE96" unicode="&#x62a;" horiz-adv-x="776" arabic-form="final" 
d="M776 60l16 -11v-38l-16 -11q-54 0 -95 22.5t-55 59.5q-17 -39 -54 -59q-36 -19 -87 -24q-55 -5 -139 -5q-140 0 -210 39.5t-70 148.5q0 70 35 180l44 -10q-31 -96 -31 -159q0 -82 54 -110.5t178 -28.5q139 0 197.5 23t58.5 79v144h48v-154q0 -40 33 -63t93 -23zM312 435
l-48 49l48 50l48 -50zM411 435l-48 49l48 50l48 -50z" />
    <glyph glyph-name="uniFE97" unicode="&#x62a;" horiz-adv-x="231" arabic-form="initial" 
d="M0 0l-16 10v40l16 10q65 0 94.5 29t29.5 90t-33 178l46 12q36 -121 36 -198q0 -171 -173 -171zM57 482l-48 49l48 50l48 -50zM156 482l-48 49l48 50l48 -50z" />
    <glyph glyph-name="uniFE98" unicode="&#x62a;" horiz-adv-x="300" arabic-form="medial" 
d="M300 60l16 -10v-40l-16 -10q-115 0 -150 83q-17 -40 -56.5 -61.5t-93.5 -21.5l-16 10v40l16 10q126 0 126 86v154h48v-154q0 -86 126 -86zM102 405l-48 49l48 50l48 -50zM201 405l-48 49l48 50l48 -50z" />
    <glyph glyph-name="uniFE9A" unicode="&#x62b;" horiz-adv-x="776" arabic-form="final" 
d="M776 60l16 -11v-38l-16 -11q-54 0 -95 22.5t-55 59.5q-17 -39 -54 -59q-36 -19 -87 -24q-55 -5 -139 -5q-140 0 -210 39.5t-70 148.5q0 70 35 180l44 -10q-31 -96 -31 -159q0 -82 54 -110.5t178 -28.5q139 0 197.5 23t58.5 79v144h48v-154q0 -40 33 -63t93 -23zM362 529
l-48 49l48 50l48 -50zM312 435l-48 49l48 50l48 -50zM411 435l-48 49l48 50l48 -50z" />
    <glyph glyph-name="uniFE9B" unicode="&#x62b;" horiz-adv-x="231" arabic-form="initial" 
d="M0 0l-16 10v40l16 10q65 0 94.5 29t29.5 90t-33 178l46 12q36 -121 36 -198q0 -171 -173 -171zM107 576l-48 49l48 50l48 -50zM57 482l-48 49l48 50l48 -50zM156 482l-48 49l48 50l48 -50z" />
    <glyph glyph-name="uniFE9C" unicode="&#x62b;" horiz-adv-x="300" arabic-form="medial" 
d="M300 60l16 -10v-40l-16 -10q-115 0 -150 83q-17 -40 -56.5 -61.5t-93.5 -21.5l-16 10v40l16 10q126 0 126 86v154h48v-154q0 -86 126 -86zM152 499l-48 49l48 50l48 -50zM102 405l-48 49l48 50l48 -50zM201 405l-48 49l48 50l48 -50z" />
    <glyph glyph-name="uniFE9E" unicode="&#x62c;" horiz-adv-x="557" arabic-form="final" 
d="M557 60l16 -10v-40l-16 -10q-82 0 -128 55t-41 153q-277 -89 -277 -245q0 -67 56.5 -110t145.5 -43q121 0 195 74l37 -33q-82 -101 -244 -101q-107 0 -172.5 58t-65.5 153q0 97 87 175.5t252 129.5q-156 48 -232 48q-54 0 -54 -49q0 -18 11 -49l-49 -16q-12 34 -12 64
q0 47 25.5 76.5t68.5 29.5q80 0 310 -71l28 -9l5 -50q-23 -5 -72 -19q-1 -5 -1 -24q0 -137 127 -137zM297 -49l-48 49l48 50l48 -50z" />
    <glyph glyph-name="uniFE9F" unicode="&#x62c;" horiz-adv-x="531" arabic-form="initial" 
d="M452 261l24 -10v-56q-55 -10 -171 -81q-90 -55 -160 -85q-69 -29 -145 -29l-16 10v40l16 10q75 0 140 28q69 29 154 79l43 24q41 23 61 31q-188 82 -262 82q-22 0 -35.5 -12.5t-13.5 -35.5q0 -17 11 -50l-49 -16q-13 35 -13 66q0 47 27.5 75.5t67.5 28.5q50 0 122.5 -24
t198.5 -75zM250 -140l-48 49l48 50l48 -50z" />
    <glyph glyph-name="uniFEA0" unicode="&#x62c;" horiz-adv-x="557" arabic-form="medial" 
d="M557 60l16 -10v-40l-16 -10q-89 0 -139.5 39.5t-53.5 109.5q-31 -16 -61 -36q-91 -55 -159 -84q-69 -29 -144 -29l-16 10v40l16 10q75 0 140 28q69 29 154 79l43 24q41 23 61 31q-188 82 -262 82q-22 0 -35.5 -12.5t-13.5 -35.5q0 -17 11 -50l-49 -16q-13 35 -13 66
q0 47 27.5 75.5t67.5 28.5q50 0 122.5 -24t198.5 -75l24 -10v-56q-29 -4 -72 -25q6 -61 40 -85.5t113 -24.5zM276 -139l-48 49l48 50l48 -50z" />
    <glyph glyph-name="uniFEA2" unicode="&#x62d;" horiz-adv-x="557" arabic-form="final" 
d="M557 60l16 -10v-40l-16 -10q-82 0 -128 55t-41 153q-277 -89 -277 -245q0 -67 56.5 -110t145.5 -43q121 0 195 74l37 -33q-82 -101 -244 -101q-107 0 -172.5 58t-65.5 153q0 97 87 175.5t252 129.5q-156 48 -232 48q-54 0 -54 -49q0 -18 11 -49l-49 -16q-12 34 -12 64
q0 47 25.5 76.5t68.5 29.5q80 0 310 -71l28 -9l5 -50q-23 -5 -72 -19q-1 -5 -1 -24q0 -137 127 -137z" />
    <glyph glyph-name="uniFEA3" unicode="&#x62d;" horiz-adv-x="531" arabic-form="initial" 
d="M452 261l24 -10v-56q-55 -10 -171 -81q-90 -55 -160 -85q-69 -29 -145 -29l-16 10v40l16 10q75 0 140 28q69 29 154 79l43 24q41 23 61 31q-188 82 -262 82q-22 0 -35.5 -12.5t-13.5 -35.5q0 -17 11 -50l-49 -16q-13 35 -13 66q0 47 27.5 75.5t67.5 28.5q50 0 122.5 -24
t198.5 -75z" />
    <glyph glyph-name="uniFEA4" unicode="&#x62d;" horiz-adv-x="557" arabic-form="medial" 
d="M557 60l16 -10v-40l-16 -10q-89 0 -139.5 39.5t-53.5 109.5q-31 -16 -61 -36q-91 -55 -159 -84q-69 -29 -144 -29l-16 10v40l16 10q75 0 140 28q69 29 154 79l43 24q41 23 61 31q-188 82 -262 82q-22 0 -35.5 -12.5t-13.5 -35.5q0 -17 11 -50l-49 -16q-13 35 -13 66
q0 47 27.5 75.5t67.5 28.5q50 0 122.5 -24t198.5 -75l24 -10v-56q-29 -4 -72 -25q6 -61 40 -85.5t113 -24.5z" />
    <glyph glyph-name="uniFEA6" unicode="&#x62e;" horiz-adv-x="557" arabic-form="final" 
d="M557 60l16 -10v-40l-16 -10q-82 0 -128 55t-41 153q-277 -89 -277 -245q0 -67 56.5 -110t145.5 -43q121 0 195 74l37 -33q-82 -101 -244 -101q-107 0 -172.5 58t-65.5 153q0 97 87 175.5t252 129.5q-156 48 -232 48q-54 0 -54 -49q0 -18 11 -49l-49 -16q-12 34 -12 64
q0 47 25.5 76.5t68.5 29.5q80 0 310 -71l28 -9l5 -50q-23 -5 -72 -19q-1 -5 -1 -24q0 -137 127 -137zM306 436l-48 49l48 50l48 -50z" />
    <glyph glyph-name="uniFEA7" unicode="&#x62e;" horiz-adv-x="531" arabic-form="initial" 
d="M452 261l24 -10v-56q-55 -10 -171 -81q-90 -55 -160 -85q-69 -29 -145 -29l-16 10v40l16 10q75 0 140 28q69 29 154 79l43 24q41 23 61 31q-188 82 -262 82q-22 0 -35.5 -12.5t-13.5 -35.5q0 -17 11 -50l-49 -16q-13 35 -13 66q0 47 27.5 75.5t67.5 28.5q50 0 122.5 -24
t198.5 -75zM225 452l-48 49l48 50l48 -50z" />
    <glyph glyph-name="uniFEA8" unicode="&#x62e;" horiz-adv-x="557" arabic-form="medial" 
d="M557 60l16 -10v-40l-16 -10q-89 0 -139.5 39.5t-53.5 109.5q-31 -16 -61 -36q-91 -55 -159 -84q-69 -29 -144 -29l-16 10v40l16 10q75 0 140 28q69 29 154 79l43 24q41 23 61 31q-188 82 -262 82q-22 0 -35.5 -12.5t-13.5 -35.5q0 -17 11 -50l-49 -16q-13 35 -13 66
q0 47 27.5 75.5t67.5 28.5q50 0 122.5 -24t198.5 -75l24 -10v-56q-29 -4 -72 -25q6 -61 40 -85.5t113 -24.5zM246 436l-48 49l48 50l48 -50z" />
    <glyph glyph-name="uniFEAA" unicode="&#x62f;" horiz-adv-x="463" arabic-form="final" 
d="M463 60l16 -11v-38l-16 -11q-48 0 -73 12t-46 43q-43 -61 -188 -61q-46 0 -116 7l4 61q70 -8 114 -8q106 0 170 33l-127 298l44 18l116 -263q23 -51 40 -65.5t62 -14.5z" />
    <glyph glyph-name="uniFEAC" unicode="&#x630;" horiz-adv-x="463" arabic-form="final" 
d="M463 60l16 -11v-38l-16 -11q-48 0 -73 12t-46 43q-43 -61 -188 -61q-46 0 -116 7l4 61q70 -8 114 -8q106 0 170 33l-127 298l44 18l116 -263q23 -51 40 -65.5t62 -14.5zM232 495l-48 49l48 50l48 -50z" />
    <glyph glyph-name="uniFEAE" unicode="&#x631;" horiz-adv-x="397" arabic-form="final" 
d="M397 60l16 -10v-40l-16 -10q-81 0 -103 52v-4q0 -108 -59.5 -179.5t-163.5 -71.5q-58 0 -119 29l19 54q47 -22 100 -22q85 0 128 57q45 57 45 143q0 52 -57 194l47 17l36 -97q30 -79 48 -94t79 -18z" />
    <glyph glyph-name="uniFEB0" unicode="&#x632;" horiz-adv-x="397" arabic-form="final" 
d="M397 60l16 -10v-40l-16 -10q-81 0 -103 52v-4q0 -108 -59.5 -179.5t-163.5 -71.5q-58 0 -119 29l19 54q47 -22 100 -22q85 0 128 57q45 57 45 143q0 52 -57 194l47 17l36 -97q30 -79 48 -94t79 -18zM197 338l-48 49l48 50l48 -50z" />
    <glyph glyph-name="uniFEB2" unicode="&#x633;" horiz-adv-x="1126" arabic-form="final" 
d="M1126 60l16 -10v-40l-16 -10q-109 0 -143 67q-36 -71 -120 -71q-34 0 -67 20t-48 53q-15 -34 -44 -53.5t-63 -19.5q-63 0 -89 45q-4 -117 -69 -180.5t-182 -63.5q-122 0 -188.5 65.5t-66.5 186.5q0 93 54 221l41 -17q-44 -108 -44 -195q0 -95 52 -147t147 -52
q107 0 155.5 47.5t48.5 152.5q0 89 -47 213l48 17q33 -84 44 -154q10 -40 31.5 -58.5t62.5 -18.5t63.5 22t22.5 61v179h48v-181q0 -35 25 -58t63 -23q46 0 68.5 25t22.5 79v178h48v-194q0 -86 126 -86z" />
    <glyph glyph-name="uniFEB3" unicode="&#x633;" horiz-adv-x="681" arabic-form="initial" 
d="M623 176q0 -84 -34 -132t-101 -48q-35 0 -67.5 20t-47.5 54q-17 -35 -48.5 -54.5t-68.5 -19.5q-39 0 -71 20.5t-46 55.5q-34 -72 -139 -72l-16 10v40l16 10q52 2 84 25t32 66v115h47v-105q0 -103 91 -103q45 0 70.5 22t25.5 61v179h48v-181q0 -35 25 -58t63 -23
q88 0 88 122q0 75 -32 177l46 12q35 -107 35 -193z" />
    <glyph glyph-name="uniFEB4" unicode="&#x633;" horiz-adv-x="751" arabic-form="medial" 
d="M751 60l16 -10v-40l-16 -10q-109 0 -143 67q-36 -71 -120 -71q-35 0 -67.5 20t-47.5 54q-17 -35 -48.5 -54.5t-68.5 -19.5q-39 0 -71 20.5t-46 55.5q-34 -72 -139 -72l-16 10v40l16 10q52 2 84 25t32 66v115h47v-105q0 -103 91 -103q45 0 70.5 22t25.5 61v179h48v-181
q0 -35 25 -58t63 -23q46 0 68.5 25t22.5 79v178h48v-194q0 -86 126 -86z" />
    <glyph glyph-name="uniFEB6" unicode="&#x634;" horiz-adv-x="1126" arabic-form="final" 
d="M1126 60l16 -10v-40l-16 -10q-109 0 -143 67q-36 -71 -120 -71q-34 0 -67 20t-48 53q-15 -34 -44 -53.5t-63 -19.5q-63 0 -89 45q-4 -117 -69 -180.5t-182 -63.5q-122 0 -188.5 65.5t-66.5 186.5q0 93 54 221l41 -17q-44 -108 -44 -195q0 -95 52 -147t147 -52
q107 0 155.5 47.5t48.5 152.5q0 89 -47 213l48 17q33 -84 44 -154q10 -40 31.5 -58.5t62.5 -18.5t63.5 22t22.5 61v179h48v-181q0 -35 25 -58t63 -23q46 0 68.5 25t22.5 79v178h48v-194q0 -86 126 -86zM751 550l-48 49l48 50l48 -50zM701 456l-48 49l48 50l48 -50zM800 456
l-48 49l48 50l48 -50z" />
    <glyph glyph-name="uniFEB7" unicode="&#x634;" horiz-adv-x="681" arabic-form="initial" 
d="M623 176q0 -84 -34 -132t-101 -48q-35 0 -67.5 20t-47.5 54q-17 -35 -48.5 -54.5t-68.5 -19.5q-39 0 -71 20.5t-46 55.5q-34 -72 -139 -72l-16 10v40l16 10q52 2 84 25t32 66v115h47v-105q0 -103 91 -103q45 0 70.5 22t25.5 61v179h48v-181q0 -35 25 -58t63 -23
q88 0 88 122q0 75 -32 177l46 12q35 -107 35 -193zM345 546l-48 49l48 50l48 -50zM295 452l-48 49l48 50l48 -50zM394 452l-48 49l48 50l48 -50z" />
    <glyph glyph-name="uniFEB8" unicode="&#x634;" horiz-adv-x="751" arabic-form="medial" 
d="M751 60l16 -10v-40l-16 -10q-109 0 -143 67q-36 -71 -120 -71q-35 0 -67.5 20t-47.5 54q-17 -35 -48.5 -54.5t-68.5 -19.5q-39 0 -71 20.5t-46 55.5q-34 -72 -139 -72l-16 10v40l16 10q52 2 84 25t32 66v115h47v-105q0 -103 91 -103q45 0 70.5 22t25.5 61v179h48v-181
q0 -35 25 -58t63 -23q46 0 68.5 25t22.5 79v178h48v-194q0 -86 126 -86zM366 567l-48 49l48 50l48 -50zM316 473l-48 49l48 50l48 -50zM415 473l-48 49l48 50l48 -50z" />
    <glyph glyph-name="uniFEBA" unicode="&#x635;" horiz-adv-x="1157" arabic-form="final" 
d="M1157 60l16 -10v-40l-16 -10q-87 0 -127 54q-66 -54 -206 -54q-116 0 -180 11q-61 12 -92 43v-1q0 -122 -65.5 -189t-185.5 -67q-122 0 -188.5 65.5t-66.5 186.5q0 93 54 221l41 -17q-44 -108 -44 -195q0 -95 52 -147t147 -52q107 0 155.5 47.5t48.5 152.5q0 89 -47 213
l48 17q31 -76 44 -150q19 -43 63 -59q78 146 150 215t149 69q76 0 124.5 -60t48.5 -141q0 -38 -16 -69q19 -34 93 -34zM1032 165q0 51 -33.5 95t-94.5 44q-122 0 -249 -235q60 -9 169 -9q98 0 153 27t55 78z" />
    <glyph glyph-name="uniFEBB" unicode="&#x635;" horiz-adv-x="744" arabic-form="initial" 
d="M700 161q0 -85 -73 -125t-254 -40q-121 2 -163.5 14t-68.5 56q-35 -66 -141 -66l-16 10v40l16 10q117 0 117 86v84h48v-84q0 -74 74 -76q74 153 141.5 223.5t144.5 70.5q73 0 124 -58.5t51 -144.5zM652 157q0 61 -38.5 104t-88.5 43q-119 0 -243 -246h98q139 0 205.5 24
t66.5 75z" />
    <glyph glyph-name="uniFEBC" unicode="&#x635;" horiz-adv-x="777" arabic-form="medial" 
d="M777 60l16 -10v-40l-16 -10q-87 0 -125 52q-74 -56 -279 -56q-121 2 -163.5 14t-68.5 56q-35 -66 -141 -66l-16 10v40l16 10q117 0 117 86v84h48v-84q0 -74 74 -76q74 153 141.5 223.5t144.5 70.5q73 0 124 -58.5t51 -144.5q0 -42 -15 -69q19 -31 92 -32zM652 157
q0 61 -38.5 104t-88.5 43q-119 0 -243 -246h98q139 0 205.5 24t66.5 75z" />
    <glyph glyph-name="uniFEBE" unicode="&#x636;" horiz-adv-x="1157" arabic-form="final" 
d="M1157 60l16 -10v-40l-16 -10q-87 0 -127 54q-66 -54 -206 -54q-116 0 -180 11q-61 12 -92 43v-1q0 -122 -65.5 -189t-185.5 -67q-122 0 -188.5 65.5t-66.5 186.5q0 93 54 221l41 -17q-44 -108 -44 -195q0 -95 52 -147t147 -52q107 0 155.5 47.5t48.5 152.5q0 89 -47 213
l48 17q31 -76 44 -150q19 -43 63 -59q78 146 150 215t149 69q76 0 124.5 -60t48.5 -141q0 -38 -16 -69q19 -34 93 -34zM1032 165q0 51 -33.5 95t-94.5 44q-122 0 -249 -235q60 -9 169 -9q98 0 153 27t55 78zM881 442l-48 49l48 50l48 -50z" />
    <glyph glyph-name="uniFEBF" unicode="&#x636;" horiz-adv-x="744" arabic-form="initial" 
d="M700 161q0 -85 -73 -125t-254 -40q-121 2 -163.5 14t-68.5 56q-35 -66 -141 -66l-16 10v40l16 10q117 0 117 86v84h48v-84q0 -74 74 -76q74 153 141.5 223.5t144.5 70.5q73 0 124 -58.5t51 -144.5zM652 157q0 61 -38.5 104t-88.5 43q-119 0 -243 -246h98q139 0 205.5 24
t66.5 75zM500 459l-48 49l48 50l48 -50z" />
    <glyph glyph-name="uniFEC0" unicode="&#x636;" horiz-adv-x="777" arabic-form="medial" 
d="M777 60l16 -10v-40l-16 -10q-87 0 -125 52q-74 -56 -279 -56q-121 2 -163.5 14t-68.5 56q-35 -66 -141 -66l-16 10v40l16 10q117 0 117 86v84h48v-84q0 -74 74 -76q74 153 141.5 223.5t144.5 70.5q73 0 124 -58.5t51 -144.5q0 -42 -15 -69q19 -31 92 -32zM652 157
q0 61 -38.5 104t-88.5 43q-119 0 -243 -246h98q139 0 205.5 24t66.5 75zM516 442l-48 49l48 50l48 -50z" />
    <glyph glyph-name="uniFEC2" unicode="&#x637;" horiz-adv-x="662" arabic-form="final" 
d="M662 60l16 -10v-40l-16 -10q-93 0 -133 62q-80 -62 -256 -62h-218l-15 67l98 -6v611h48v-497q122 206 238 206q70 0 118.5 -55t48.5 -134q0 -51 -25 -91q13 -41 96 -41zM541 192q0 49 -35 85.5t-82 36.5q-119 0 -241 -254h88q270 0 270 132z" />
    <glyph glyph-name="uniFEC3" unicode="&#x637;" horiz-adv-x="592" arabic-form="initial" 
d="M548 191q0 -93 -82 -142t-236 -49h-230l-16 10v40l16 10l95 1v611h48v-496q115 204 238 204q70 0 118.5 -55t48.5 -134zM498 187q0 54 -34.5 90.5t-82.5 36.5q-120 0 -241 -252h96q126 0 194 32.5t68 92.5z" />
    <glyph glyph-name="uniFEC4" unicode="&#x637;" horiz-adv-x="614" arabic-form="medial" 
d="M614 60l16 -10v-40l-16 -10q-94 0 -131 60q-81 -60 -253 -60h-230l-16 10v40l16 10l95 1v611h48v-496q115 204 238 204q70 0 118.5 -55t48.5 -134q0 -53 -29 -94q18 -37 95 -37zM140 62h96q126 0 194 32.5t68 92.5q0 54 -34.5 90.5t-82.5 36.5q-120 0 -241 -252z" />
    <glyph glyph-name="uniFEC6" unicode="&#x638;" horiz-adv-x="662" arabic-form="final" 
d="M662 60l16 -10v-40l-16 -10q-93 0 -133 62q-80 -62 -256 -62h-218l-15 67l98 -6v611h48v-497q122 206 238 206q70 0 118.5 -55t48.5 -134q0 -51 -25 -91q13 -41 96 -41zM541 192q0 49 -35 85.5t-82 36.5q-119 0 -241 -254h88q270 0 270 132zM426 458l-48 49l48 50l48 -50
z" />
    <glyph glyph-name="uniFEC7" unicode="&#x638;" horiz-adv-x="592" arabic-form="initial" 
d="M548 191q0 -93 -82 -142t-236 -49h-230l-16 10v40l16 10l95 1v611h48v-496q115 204 238 204q70 0 118.5 -55t48.5 -134zM498 187q0 54 -34.5 90.5t-82.5 36.5q-120 0 -241 -252h96q126 0 194 32.5t68 92.5zM383 458l-48 49l48 50l48 -50z" />
    <glyph glyph-name="uniFEC8" unicode="&#x638;" horiz-adv-x="614" arabic-form="medial" 
d="M614 60l16 -10v-40l-16 -10q-94 0 -131 60q-81 -60 -253 -60h-230l-16 10v40l16 10l95 1v611h48v-496q115 204 238 204q70 0 118.5 -55t48.5 -134q0 -53 -29 -94q18 -37 95 -37zM140 62h96q126 0 194 32.5t68 92.5q0 54 -34.5 90.5t-82.5 36.5q-120 0 -241 -252zM383 458
l-48 49l48 50l48 -50z" />
    <glyph glyph-name="uniFECA" unicode="&#x639;" horiz-adv-x="459" arabic-form="final" 
d="M441 -116l37 -33q-82 -101 -244 -101q-100 0 -163 45.5t-63 116.5q0 62 40 103t138 85l-16 17q-86 88 -128 111v57q34 37 90 59.5t114 22.5q77 0 121 -32.5t44 -89.5q0 -72 -140 -153q52 -32 188 -32l16 -10v-40l-16 -10q-94 0 -142 13q-49 14 -93 52
q-104 -46 -133.5 -72.5t-32.5 -75.5q0 -48 51.5 -77.5t136.5 -29.5q121 0 195 74zM216 142l17 -17q58 31 93 63.5t35 56.5q0 26 -33 44t-80 18q-45 0 -87.5 -15.5t-69.5 -40.5q44 -28 125 -109z" />
    <glyph glyph-name="uniFECB" unicode="&#x639;" horiz-adv-x="430" arabic-form="initial" 
d="M410 116l5 -56q-191 -60 -415 -60l-16 10v40l16 10q81 0 165 9q-76 39 -76 125q0 75 49 127t114 52q113 0 144 -125l-45 -13q-16 82 -100 82q-45 0 -79.5 -33.5t-34.5 -84.5q0 -48 38.5 -74t108.5 -26q50 0 126 17z" />
    <glyph glyph-name="uniFECC" unicode="&#x639;" horiz-adv-x="469" arabic-form="medial" 
d="M469 60l16 -10v-40l-16 -10q-91 0 -139 13q-49 13 -92 49q-97 -62 -238 -62l-16 10v40l16 10q122 0 199 39l-23 24q-42 42 -67 64q-27 24 -57 41v57q35 37 91.5 59.5t112.5 22.5q78 0 121.5 -31t43.5 -87q0 -38 -31.5 -74.5t-106.5 -83.5q53 -31 186 -31zM208 159l34 -34
q129 70 129 124q0 25 -33 41.5t-82 16.5q-43 0 -86.5 -15.5t-68.5 -40.5q43 -27 107 -92z" />
    <glyph glyph-name="uniFECE" unicode="&#x63a;" horiz-adv-x="459" arabic-form="final" 
d="M441 -116l37 -33q-82 -101 -244 -101q-100 0 -163 45.5t-63 116.5q0 62 40 103t138 85l-16 17q-86 88 -128 111v57q34 37 90 59.5t114 22.5q77 0 121 -32.5t44 -89.5q0 -72 -140 -153q52 -32 188 -32l16 -10v-40l-16 -10q-94 0 -142 13q-49 14 -93 52
q-104 -46 -133.5 -72.5t-32.5 -75.5q0 -48 51.5 -77.5t136.5 -29.5q121 0 195 74zM216 142l17 -17q58 31 93 63.5t35 56.5q0 26 -33 44t-80 18q-45 0 -87.5 -15.5t-69.5 -40.5q44 -28 125 -109zM248 461l-48 49l48 50l48 -50z" />
    <glyph glyph-name="uniFECF" unicode="&#x63a;" horiz-adv-x="430" arabic-form="initial" 
d="M410 116l5 -56q-191 -60 -415 -60l-16 10v40l16 10q81 0 165 9q-76 39 -76 125q0 75 49 127t114 52q113 0 144 -125l-45 -13q-16 82 -100 82q-45 0 -79.5 -33.5t-34.5 -84.5q0 -48 38.5 -74t108.5 -26q50 0 126 17zM253 456l-48 49l48 50l48 -50z" />
    <glyph glyph-name="uniFED0" unicode="&#x63a;" horiz-adv-x="469" arabic-form="medial" 
d="M469 60l16 -10v-40l-16 -10q-91 0 -139 13q-49 13 -92 49q-97 -62 -238 -62l-16 10v40l16 10q122 0 199 39l-23 24q-42 42 -67 64q-27 24 -57 41v57q35 37 91.5 59.5t112.5 22.5q78 0 121.5 -31t43.5 -87q0 -38 -31.5 -74.5t-106.5 -83.5q53 -31 186 -31zM208 159l34 -34
q129 70 129 124q0 25 -33 41.5t-82 16.5q-43 0 -86.5 -15.5t-68.5 -40.5q43 -27 107 -92zM258 449l-48 49l48 50l48 -50z" />
    <glyph glyph-name="uniFED2" unicode="&#x641;" horiz-adv-x="804" arabic-form="final" 
d="M804 60l16 -11v-38l-16 -11q-126 0 -218 30q-104 -36 -240 -36q-143 0 -210.5 38.5t-69.5 147.5q0 71 35 182l42 -11q-30 -93 -30 -156q0 -83 54 -112t179 -29q86 0 163 11q-82 52 -82 138q0 73 44 125t115 52q70 0 114.5 -52t44.5 -125q0 -81 -79 -135q70 -8 138 -8z
M589 85q106 37 106 118q0 52 -29.5 84.5t-79.5 32.5q-51 0 -80 -32.5t-29 -84.5q0 -84 112 -118zM588 462l-48 49l48 50l48 -50z" />
    <glyph glyph-name="uniFED3" unicode="&#x641;" horiz-adv-x="382" arabic-form="initial" 
d="M338 222q0 -94 -27 -140t-97 -64t-214 -18l-16 10v40l16 10q125 0 186 11q59 12 80.5 43.5t21.5 101.5q0 31 -1 40q-14 -40 -46 -65t-70 -25q-63 0 -102.5 42.5t-39.5 111.5q0 70 43 117.5t106 47.5q77 0 118.5 -68.5t41.5 -194.5zM280 313q-22 114 -103 114
q-46 0 -73 -27.5t-27 -74.5q0 -46 27.5 -73.5t73.5 -27.5q40 0 67 24t35 65zM175 560l-48 49l48 50l48 -50z" />
    <glyph glyph-name="uniFED4" unicode="&#x641;" horiz-adv-x="436" arabic-form="medial" 
d="M436 60l16 -10v-40l-16 -10q-123 0 -216 30q-93 -30 -220 -30l-16 10v40l16 10q70 0 139 8q-80 54 -80 135q0 75 46 126t113 51t113 -51t46 -126q0 -83 -78 -135q69 -8 137 -8zM218 86q109 34 109 117q0 52 -30 84.5t-79 32.5t-79 -32.5t-30 -84.5q0 -83 109 -117z
M220 462l-48 49l48 50l48 -50z" />
    <glyph glyph-name="uniFED6" unicode="&#x642;" horiz-adv-x="633" arabic-form="final" 
d="M633 60l16 -8v-42l-16 -10h-57q-9 -115 -71 -161.5t-204 -46.5q-122 0 -188.5 65.5t-66.5 186.5q0 96 54 221l41 -17q-44 -108 -44 -195q0 -95 52 -147t147 -52q128 0 175 29.5t54 116.5h-57q-98 0 -149.5 42t-51.5 123q0 67 41.5 113.5t102.5 46.5q160 0 166 -265h56z
M468 60h59q-5 204 -114 204q-46 0 -71 -26t-25 -73q0 -105 151 -105zM366 456l-48 49l48 50l48 -50zM465 456l-48 49l48 50l48 -50z" />
    <glyph glyph-name="uniFED7" unicode="&#x642;" horiz-adv-x="382" arabic-form="initial" 
d="M338 222q0 -94 -27 -140t-97 -64t-214 -18l-16 10v40l16 10q125 0 186 11q59 12 80.5 43.5t21.5 101.5q0 31 -1 40q-14 -40 -46 -65t-70 -25q-63 0 -102.5 42.5t-39.5 111.5q0 70 43 117.5t106 47.5q77 0 118.5 -68.5t41.5 -194.5zM280 313q-22 114 -103 114
q-46 0 -73 -27.5t-27 -74.5q0 -46 27.5 -73.5t73.5 -27.5q40 0 67 24t35 65zM126 570l-48 49l48 50l48 -50zM225 570l-48 49l48 50l48 -50z" />
    <glyph glyph-name="uniFED8" unicode="&#x642;" horiz-adv-x="436" arabic-form="medial" 
d="M436 60l16 -10v-40l-16 -10q-123 0 -216 30q-93 -30 -220 -30l-16 10v40l16 10q70 0 139 8q-80 54 -80 135q0 75 46 126t113 51t113 -51t46 -126q0 -83 -78 -135q69 -8 137 -8zM218 86q109 34 109 117q0 52 -30 84.5t-79 32.5t-79 -32.5t-30 -84.5q0 -83 109 -117z
M171 472l-48 49l48 50l48 -50zM270 472l-48 49l48 50l48 -50z" />
    <glyph glyph-name="uniFEDA" unicode="&#x643;" horiz-adv-x="754" arabic-form="final" 
d="M754 60l16 -10v-40l-16 -10q-114 0 -151 64q-54 -70 -257 -70q-146 0 -213 47t-67 147q0 77 38 196l45 -12q-28 -99 -28 -160q0 -81 52 -116.5t173 -35.5q124 0 178.5 18t54.5 62v532h48v-532q0 -39 33 -59.5t94 -20.5zM350 328q-23 0 -68 5l4 40q33 -5 61 -5q49 0 49 10
q0 5 -33 13l-20 5q-48 13 -48 50q0 27 19.5 44t48.5 17q42 0 62 -36l-26 -18q-10 16 -33 16q-13 0 -24 -5.5t-11 -13.5q0 -12 29 -18l22 -5q28 -7 39.5 -18t11.5 -33q0 -48 -83 -48z" />
    <glyph glyph-name="uniFEDB" unicode="&#x643;" horiz-adv-x="402" arabic-form="initial" 
d="M69 447l116 -123q105 -111 105 -192q0 -132 -218 -132h-72l-16 10v40l16 10h76q158 0 158 72q0 52 -92 150l-127 135v66l364 177l23 -51z" />
    <glyph glyph-name="uniFEDC" unicode="&#x643;" horiz-adv-x="398" arabic-form="medial" 
d="M398 60l16 -10v-40l-16 -10q-63 0 -104 16t-72 53q-16 -30 -48 -49.5t-71 -19.5h-103l-16 10v40l16 10h110q26 0 48.5 17t32.5 43l-164 297v66l364 177l23 -51l-338 -165l148 -268q38 -69 71.5 -92.5t102.5 -23.5z" />
    <glyph glyph-name="uniFEDE" unicode="&#x644;" horiz-adv-x="679" arabic-form="final" 
d="M679 60l16 -10v-40l-16 -10q-88 0 -127 43q-2 -115 -66 -179t-183 -64q-115 0 -186 65.5t-71 172.5q0 121 75 237l43 -26q-61 -97 -61 -195q0 -86 54.5 -136.5t145.5 -50.5q201 0 201 182v623h48v-532q0 -39 33 -59.5t94 -20.5z" />
    <glyph glyph-name="uniFEDF" unicode="&#x644;" horiz-adv-x="248" arabic-form="initial" 
d="M0 0l-16 10v40l16 10q126 0 126 85v527h48v-526q0 -68 -47.5 -107t-126.5 -39z" />
    <glyph glyph-name="uniFEE0" unicode="&#x644;" horiz-adv-x="301" arabic-form="medial" 
d="M301 60l16 -10v-40l-16 -10q-113 0 -151 65q-44 -65 -150 -65l-16 10v40l16 10q126 0 126 85v527h48v-526v-2q0 -84 127 -84z" />
    <glyph glyph-name="uniFEE2" unicode="&#x645;" horiz-adv-x="603" arabic-form="final" 
d="M603 60l16 -10v-40l-16 -10q-91 0 -125 76q-19 -39 -55 -61t-80 -22q-58 0 -100 34.5t-54 91.5h-36q-25 0 -25 -31v-388h-54v411q0 70 62 70h50q6 72 50 121q44 48 108 48q113 0 152 -143l23 -84q9 -33 29 -48t55 -15zM459 140l-13 46q-14 54 -37.5 78t-62.5 24
q-48 0 -77.5 -35t-29.5 -89q0 -47 30.5 -78.5t77.5 -31.5q40 0 70 23.5t42 62.5z" />
    <glyph glyph-name="uniFEE3" unicode="&#x645;" horiz-adv-x="492" arabic-form="initial" 
d="M448 145q0 -63 -40.5 -107t-112.5 -44q-91 0 -154 99q-28 -49 -60.5 -71t-80.5 -22l-16 11v38l16 11q50 3 67.5 19t54.5 86l41 79q49 96 136 96q69 0 109 -57t40 -138zM398 153q0 49 -26 87t-71 38q-36 0 -58.5 -16t-42.5 -55l-31 -61q51 -92 133 -92q44 0 70 28t26 71z
" />
    <glyph glyph-name="uniFEE4" unicode="&#x645;" horiz-adv-x="532" arabic-form="medial" 
d="M532 60l16 -11v-38l-16 -11q-94 0 -124 77q-37 -83 -122 -83q-45 0 -87.5 27t-70.5 73q-29 -50 -59.5 -72t-68.5 -22l-16 11v38l16 11q34 0 53.5 19.5t54.5 86.5l29 56q63 118 140 118q114 0 151 -142l20 -78q14 -60 84 -60zM393 128l-16 58q-25 92 -100 92
q-56 0 -101 -92l-20 -39q23 -42 59.5 -67.5t73.5 -25.5q74 0 104 74z" />
    <glyph glyph-name="uniFEE6" unicode="&#x646;" horiz-adv-x="651" arabic-form="final" 
d="M651 60l16 -10v-40l-16 -10q-64 0 -99 29q-4 -116 -69.5 -179t-181.5 -63q-122 0 -188.5 65.5t-66.5 186.5q0 93 54 221l41 -17q-44 -108 -44 -195q0 -95 52 -147t147 -52q107 0 155.5 47.5t48.5 152.5q0 89 -47 213l48 17q32 -80 46 -163q15 -56 104 -56zM299 309
l-48 49l48 50l48 -50z" />
    <glyph glyph-name="uniFEE7" unicode="&#x646;" horiz-adv-x="231" arabic-form="initial" 
d="M0 0l-16 10v40l16 10q65 0 94.5 29t29.5 90t-33 178l46 12q36 -121 36 -198q0 -171 -173 -171zM106 472l-48 49l48 50l48 -50z" />
    <glyph glyph-name="uniFEE8" unicode="&#x646;" horiz-adv-x="300" arabic-form="medial" 
d="M300 60l16 -10v-40l-16 -10q-115 0 -150 83q-17 -40 -56.5 -61.5t-93.5 -21.5l-16 10v40l16 10q126 0 126 86v154h48v-154q0 -86 126 -86zM151 395l-48 49l48 50l48 -50z" />
    <glyph glyph-name="uniFEEA" unicode="&#x647;" horiz-adv-x="509" arabic-form="final" 
d="M509 60l16 -10v-40l-16 -10q-89 0 -129 28.5t-40 97.5v33q-21 -38 -64.5 -59.5t-93.5 -21.5q-60 0 -99 29.5t-39 81.5q0 82 78 144.5t218 99.5v49h50v-346q0 -47 24 -61.5t95 -14.5zM340 204v171q-103 -19 -174.5 -67t-71.5 -106q0 -30 28.5 -47t74.5 -17q47 0 87.5 18
t55.5 48zM346 223l-1 -3q1 1 1 3z" />
    <glyph glyph-name="uniFEEB" unicode="&#x647;" horiz-adv-x="531" arabic-form="initial" 
d="M487 122q0 -128 -148 -128q-83 0 -148 31q-72 -25 -191 -25l-16 9v41l16 10q78 0 124 7q-58 49 -58 123q0 59 36.5 105.5t93.5 46.5q9 0 12 -1q-32 12 -71 17l16 55q142 -32 239 -121.5t95 -169.5zM441 122q0 48 -49 103t-125 92q59 -46 59 -128q0 -83 -65 -130
q41 -7 86 -7q94 0 94 70zM191 81q89 28 89 109q0 40 -24.5 70t-59.5 30q-40 0 -62 -30q-22 -29 -22 -65q0 -74 79 -114z" />
    <glyph glyph-name="uniFEEC" unicode="&#x647;" horiz-adv-x="434" arabic-form="medial" 
d="M434 60l16 -11v-37l-16 -12h-89q37 -37 37 -87q0 -46 -34.5 -76t-87.5 -30q-82 0 -137 55t-64 139q-13 -1 -59 -1l-16 12v37l16 11q46 0 58 1q5 105 62.5 196.5t116.5 88.5q46 0 81 -53t35 -122q0 -70 -52 -110zM108 63q109 6 153.5 31t44.5 79q0 47 -20.5 80t-48.5 33
q-41 2 -83 -69.5t-46 -153.5zM335 -77q0 35 -22 68t-54 46q-57 -24 -150 -33q9 -62 48.5 -99.5t99.5 -37.5q78 0 78 56z" />
    <glyph glyph-name="uniFEEE" unicode="&#x648;" horiz-adv-x="370" arabic-form="final" 
d="M371 60l15 -11v-39l-15 -10h-43q-19 -95 -75 -149t-135 -54q-61 0 -124 29l19 54q55 -24 105 -24q62 0 105 38.5t59 105.5h-80q-82 0 -124 40.5t-42 113.5q0 71 41.5 118t104.5 47q74 0 114 -60.5t40 -171.5q0 -21 -1 -27h36zM202 60h89v19q0 186 -109 186q-44 0 -73 -30
t-29 -76q0 -52 27.5 -75.5t94.5 -23.5z" />
    <glyph glyph-name="uniFEF0" unicode="&#x649;" horiz-adv-x="653" arabic-form="final" 
d="M653 60l16 -10v-40l-16 -10q-38 4 -57 18q3 -11 3 -32q2 -43 -42.5 -88t-115.5 -73.5t-140 -27.5q-122 0 -188.5 65.5t-66.5 186.5q0 93 54 221l41 -17q-44 -108 -44 -195q0 -95 52 -147t147 -52q96 -1 176.5 43.5t78.5 96.5q0 31 -29 66l-78 89l42 38l86 -95
q30 -32 81 -37z" />
    <glyph glyph-name="uniFEF2" unicode="&#x64a;" horiz-adv-x="653" arabic-form="final" 
d="M653 60l16 -10v-40l-16 -10q-38 4 -57 18q3 -11 3 -32q2 -43 -42.5 -88t-115.5 -73.5t-140 -27.5q-122 0 -188.5 65.5t-66.5 186.5q0 93 54 221l41 -17q-44 -108 -44 -195q0 -95 52 -147t147 -52q96 -1 176.5 43.5t78.5 96.5q0 31 -29 66l-78 89l42 38l86 -95
q30 -32 81 -37zM247 -369l-53 54l53 55l53 -55zM354 -369l-53 54l53 55l53 -55z" />
    <glyph glyph-name="uniFEF3" unicode="&#x64a;" horiz-adv-x="231" arabic-form="initial" 
d="M0 0l-16 10v40l16 10q65 0 94.5 29t29.5 90t-33 178l46 12q36 -121 36 -198q0 -171 -173 -171zM41 -191l-53 54l53 55l53 -55zM148 -191l-53 54l53 55l53 -55z" />
    <glyph glyph-name="uniFEF4" unicode="&#x64a;" horiz-adv-x="300" arabic-form="medial" 
d="M300 60l16 -10v-40l-16 -10q-115 0 -150 83q-17 -40 -56.5 -61.5t-93.5 -21.5l-16 10v40l16 10q126 0 126 86v154h48v-154q0 -86 126 -86zM95 -191l-53 54l53 55l53 -55zM202 -191l-53 54l53 55l53 -55z" />
    <glyph glyph-name=".notdef" horiz-adv-x="586" 
d="M60 0v700h466v-700h-466zM293 384l171 280h-342zM96 62l176 288l-176 288v-576zM490 62v576l-176 -288zM122 36h342l-171 280z" />
    <glyph glyph-name=".null" 
 />
    <glyph glyph-name="nonmarkingreturn" horiz-adv-x="333" 
 />
    <glyph glyph-name="CR" unicode="&#xd;" horiz-adv-x="289" 
 />
    <glyph glyph-name="space" unicode=" " horiz-adv-x="276" 
 />
    <glyph glyph-name="exclam" unicode="!" horiz-adv-x="258" 
d="M110 172l-11 315v213h60v-213l-11 -315h-38zM88 0v84h82v-84h-82z" />
    <glyph glyph-name="quotedbl" unicode="&#x22;" horiz-adv-x="322" 
d="M75 503l-13 149v48h64v-48l-13 -149h-38zM209 503l-13 149v48h64v-48l-13 -149h-38z" />
    <glyph glyph-name="numbersign" unicode="#" horiz-adv-x="659" 
d="M122 0l43 232h-111v42h119l28 152h-127v42h135l43 232h56l-43 -232h178l43 232h56l-43 -232h111v-42h-119l-28 -152h127v-42h-135l-43 -232h-56l43 232h-178l-43 -232h-56zM229 274h178l28 152h-178z" />
    <glyph glyph-name="dollar" unicode="$" horiz-adv-x="640" 
d="M294 -100v88q-95 9 -159 66t-82 145l55 30q36 -172 186 -189v303q-207 45 -207 193q0 73 58.5 122.5t148.5 54.5v87h60v-89q76 -10 131 -53.5t77 -109.5l-48 -29q-43 121 -160 140v-275q222 -44 222 -190q0 -83 -62 -141t-160 -65v-88h-60zM294 397v264q-67 -5 -108 -40
t-41 -88q0 -97 149 -136zM516 187q0 56 -39.5 90t-122.5 53v-290q74 7 118 48.5t44 98.5z" />
    <glyph glyph-name="percent" unicode="%" horiz-adv-x="884" 
d="M52 539q0 73 48 124t121 51t121 -51t48 -124t-48 -124t-121 -51t-121 51t-48 124zM245 3l-41 28l435 666l41 -28zM336 539q0 56 -31.5 90.5t-83.5 34.5t-83.5 -34.5t-31.5 -90.5t31.5 -90.5t83.5 -34.5t83.5 34.5t31.5 90.5zM494 161q0 73 48 124t121 51t121 -51t48 -124
t-48 -124t-121 -51t-121 51t-48 124zM778 161q0 56 -31.5 90.5t-83.5 34.5t-83.5 -34.5t-31.5 -90.5t31.5 -90.5t83.5 -34.5t83.5 34.5t31.5 90.5z" />
    <glyph glyph-name="ampersand" unicode="&#x26;" horiz-adv-x="630" 
d="M61 191q0 135 142 217q-55 73 -55 149q0 67 46 112t112 45t108.5 -37.5t42.5 -97.5q0 -58 -37 -97.5t-136 -88.5l183 -236q37 65 56 160l47 -26q-24 -104 -71 -177l89 -114h-70l-54 69q-77 -83 -190 -83q-92 0 -152.5 59t-60.5 146zM403 578q0 36 -27.5 61t-69.5 25
q-43 0 -73.5 -29.5t-30.5 -78.5q0 -56 51 -122q87 38 117 68q33 32 33 76zM433 109l-198 258q-59 -35 -87.5 -77t-28.5 -100q0 -69 45 -111.5t110 -42.5q96 0 159 73z" />
    <glyph glyph-name="quotesingle" unicode="'" horiz-adv-x="188" 
d="M75 503l-13 149v48h64v-48l-13 -149h-38z" />
    <glyph glyph-name="parenleft" unicode="(" horiz-adv-x="324" 
d="M75 276q0 238 106 424h52q-98 -201 -98 -424t98 -424h-52q-106 186 -106 424z" />
    <glyph glyph-name="parenright" unicode=")" horiz-adv-x="324" 
d="M189 276q0 223 -98 424h52q106 -186 106 -424t-106 -424h-52q98 201 98 424z" />
    <glyph glyph-name="asterisk" unicode="*" horiz-adv-x="394" 
d="M163 412l15 110l-88 -67l-34 58l103 43l-103 43l34 58l88 -67l-15 110h68l-15 -110l88 67l34 -58l-103 -43l103 -43l-34 -58l-88 67l15 -110h-68z" />
    <glyph glyph-name="plus" unicode="+" horiz-adv-x="492" 
d="M222 169v173h-172v46h172v173h46v-173h174v-46h-174v-173h-46z" />
    <glyph glyph-name="comma" unicode="," horiz-adv-x="176" 
d="M65 -114l-16 6l29 108h-30v82h80v-82z" />
    <glyph glyph-name="hyphen" unicode="-" horiz-adv-x="446" 
d="M48 288v46h350v-46h-350z" />
    <glyph glyph-name="period" unicode="." horiz-adv-x="176" 
d="M48 0v82h80v-82h-80z" />
    <glyph glyph-name="slash" unicode="/" horiz-adv-x="474" 
d="M6 -30l400 760h62l-400 -760h-62z" />
    <glyph glyph-name="zero" unicode="0" horiz-adv-x="706" 
d="M54 350q0 161 83.5 262.5t215.5 101.5q130 2 215 -101t84 -263q1 -160 -84 -263t-215 -101q-132 0 -215.5 101.5t-83.5 262.5zM594 350q0 142 -67.5 227t-173.5 85t-173.5 -85t-67.5 -227t67.5 -227t173.5 -85t173.5 85t67.5 227z" />
    <glyph glyph-name="one" unicode="1" horiz-adv-x="344" 
d="M202 0v616q-46 -56 -147 -56v52q59 0 95.5 21t59.5 67h50v-700h-58z" />
    <glyph glyph-name="two" unicode="2" horiz-adv-x="574" 
d="M57 0v42l271 268q58 58 82.5 105t24.5 101q0 67 -43.5 106.5t-117.5 39.5q-68 0 -112 -43q-44 -42 -44 -113q0 -23 8 -45l-54 -9q-12 32 -12 62q0 82 60.5 141t155.5 59q100 0 158.5 -54t58.5 -140q0 -64 -28 -119q-30 -58 -100 -128l-213 -213h346v-60h-441z" />
    <glyph glyph-name="three" unicode="3" horiz-adv-x="575" 
d="M60 181q0 36 10 57l55 -15q-5 -22 -5 -40q0 -62 47.5 -103.5t123.5 -41.5q74 0 121 42.5t47 115.5q0 74 -56 113t-149 39v56q84 0 127.5 39.5t43.5 95.5q0 59 -38.5 91t-105.5 32q-61 0 -102 -38q-40 -37 -40 -96q0 -19 5 -27l-55 -9q-8 21 -8 45q0 75 57.5 126t143.5 51
q92 0 146.5 -47.5t54.5 -121.5q0 -54 -31 -98t-91 -64q71 -18 114.5 -65.5t43.5 -115.5q0 -97 -64 -156.5t-164 -59.5q-100 -2 -166.5 58.5t-64.5 136.5z" />
    <glyph glyph-name="four" unicode="4" horiz-adv-x="564" 
d="M390 0v150h-340v52l340 498h60v-498h80v-52h-80v-150h-60zM112 202h278v406z" />
    <glyph glyph-name="five" unicode="5" horiz-adv-x="584" 
d="M59 178q0 27 8 49l54 -13q-4 -15 -4 -31q0 -67 45.5 -106t122.5 -39q82 0 133.5 54t51.5 142q0 91 -46.5 140.5t-130.5 49.5q-57 0 -105 -36q-47 -34 -73 -81l-52 15l36 378h389v-52h-340l-30 -272q72 102 188 102q105 0 164.5 -67.5t59.5 -176.5t-68.5 -178.5
t-176.5 -69.5q-101 0 -163.5 57t-62.5 135z" />
    <glyph glyph-name="six" unicode="6" horiz-adv-x="596" 
d="M54 309q0 123 42 230q33 82 93 128.5t131 46.5q89 0 143 -45t54 -117q0 -26 -9 -52l-56 13q7 18 7 40q0 51 -35 80t-103 29q-90 0 -146 -90t-61 -236q27 56 83 89t118 33q98 0 164.5 -66t66.5 -167q2 -98 -68 -169.5t-172 -69.5q-118 0 -185 85.5t-67 237.5zM486 222
q0 83 -52 133.5t-128 50.5t-130 -50.5t-54 -133.5t54 -133.5t130 -50.5t128 50.5t52 133.5z" />
    <glyph glyph-name="seven" unicode="7" horiz-adv-x="531" 
d="M140 0l289 648h-386v52h444v-46l-289 -654h-58z" />
    <glyph glyph-name="eight" unicode="8" horiz-adv-x="564" 
d="M56 194q0 58 32 105.5t85 75.5q-43 24 -69 67t-26 91q0 78 59 129.5t145 51.5t145 -51.5t59 -129.5q0 -48 -26 -91t-69 -67q53 -28 85 -75.5t32 -105.5q0 -92 -64 -150t-162 -58t-162 58t-64 150zM428 530q0 60 -42 97q-41 37 -104 37t-104 -37q-42 -37 -42 -97
q0 -61 40 -97.5t106 -36.5t106 36.5t40 97.5zM448 193q0 67 -48.5 111t-117.5 44t-117.5 -44t-48.5 -111q0 -70 46 -112.5t120 -42.5t120 42.5t46 112.5z" />
    <glyph glyph-name="nine" unicode="9" horiz-adv-x="596" 
d="M79 148q0 26 9 52l56 -13q-7 -18 -7 -40q0 -51 35 -80t103 -29q95 0 147 87q54 87 60 236q-24 -58 -76.5 -88.5t-119.5 -30.5q-99 0 -167.5 66.5t-68.5 166.5q-2 98 68 169.5t172 69.5q121 0 186.5 -84.5t65.5 -238.5q0 -123 -42 -230q-33 -82 -93 -128.5t-131 -46.5
q-89 0 -143 45t-54 117zM474 478q0 83 -54 133.5t-130 50.5t-128 -50.5t-52 -133.5t52 -133.5t128 -50.5t130 50.5t54 133.5z" />
    <glyph glyph-name="colon" unicode=":" horiz-adv-x="176" 
d="M48 390v82h80v-82h-80zM48 0v82h80v-82h-80z" />
    <glyph glyph-name="semicolon" unicode=";" horiz-adv-x="176" 
d="M48 390v82h80v-82h-80zM65 -114l-16 6l29 108h-30v82h80v-82z" />
    <glyph glyph-name="less" unicode="&#x3c;" horiz-adv-x="492" 
d="M442 84l-392 194v64l392 194v-58l-344 -168l344 -168v-58z" />
    <glyph glyph-name="equal" unicode="=" horiz-adv-x="492" 
d="M50 422v46h392v-46h-392zM50 232v46h392v-46h-392z" />
    <glyph glyph-name="greater" unicode="&#x3e;" horiz-adv-x="492" 
d="M50 84v58l344 168l-344 168v58l392 -194v-64z" />
    <glyph glyph-name="question" unicode="?" horiz-adv-x="525" 
d="M222 175v13q0 57 17 94q18 35 69 79q62 54 82 85q23 35 23 86q0 60 -43 96t-112 36q-65 0 -107.5 -40t-42.5 -109q0 -20 8 -44l-54 -10q-12 25 -12 60q0 78 58 135.5t150 57.5q98 0 155.5 -50t57.5 -127q0 -62 -26 -106q-24 -42 -97 -105q-37 -31 -52 -62
q-14 -31 -14 -89h-60zM212 0v84h82v-84h-82z" />
    <glyph glyph-name="at" unicode="@" horiz-adv-x="938" 
d="M54 269q-2 120 54.5 223t158 163.5t223.5 58.5q165 2 277.5 -97.5t110.5 -275.5q2 -133 -68.5 -224.5t-158.5 -89.5q-41 0 -64.5 22.5t-23.5 60.5q0 15 4 35q-22 -52 -70 -85t-97 -33q-70 0 -118 55.5t-48 149.5q-2 139 74.5 224.5t171.5 83.5q46 0 83 -26t48 -69l13 79
h56l-56 -384q-1 -5 -1 -17q0 -44 41 -44q59 0 108.5 70.5t49.5 186.5q0 146 -89.5 235t-249.5 89q-94 2 -180.5 -50.5t-139.5 -144.5t-51 -196q-2 -175 98 -273t248 -96q100 0 180 57l27 -44q-90 -65 -222 -65q-74 -1 -143 25.5t-125 77t-89 133t-32 185.5zM597 348
q0 63 -30.5 100.5t-81.5 37.5q-75 0 -134 -68.5t-59 -179.5q0 -78 32 -118.5t83 -40.5q49 -2 94.5 38.5t71 104t24.5 126.5z" />
    <glyph glyph-name="A" unicode="A" horiz-adv-x="636" 
d="M6 0l279 700h66l279 -700h-63l-86 217h-326l-86 -217h-63zM174 267h288l-129 329q-11 24 -15 42l-15 -42z" />
    <glyph glyph-name="B" unicode="B" horiz-adv-x="625" 
d="M88 0v700h239q97 0 157 -47.5t60 -116.5q0 -60 -35.5 -103t-89.5 -60q150 -42 150 -175q0 -87 -69.5 -142.5t-169.5 -55.5h-242zM148 398h177q73 0 116 31.5t43 93.5t-43 93.5t-116 31.5h-177v-250zM148 52h169q87 0 139.5 37.5t52.5 109.5t-52 109.5t-140 37.5h-169
v-294z" />
    <glyph glyph-name="C" unicode="C" horiz-adv-x="736" 
d="M56 350q-3 148 100 257.5t236 106.5q96 0 171.5 -47t114.5 -131l-45 -32q-46 85 -104 121.5t-138 36.5q-110 2 -193.5 -91.5t-81.5 -220.5q-2 -133 76.5 -223.5t197.5 -88.5q84 0 142 38t101 119l44 -31q-51 -90 -119.5 -134t-170.5 -44q-139 -3 -236 104.5t-95 259.5z
" />
    <glyph glyph-name="D" unicode="D" horiz-adv-x="671" 
d="M88 0v700h183q153 0 248.5 -96t95.5 -254t-95.5 -254t-248.5 -96h-183zM148 52h114q134 0 213 75q80 77 80 223q0 147 -80 222q-79 76 -213 76h-114v-596z" />
    <glyph glyph-name="E" unicode="E" horiz-adv-x="572" 
d="M88 0v700h413v-52h-353v-260h325v-52h-325v-284h356v-52h-416z" />
    <glyph glyph-name="F" unicode="F" horiz-adv-x="576" 
d="M88 0v700h428v-52h-368v-280h338v-52h-338v-316h-60z" />
    <glyph glyph-name="G" unicode="G" horiz-adv-x="751" 
d="M56 350q-3 148 99 257.5t237 106.5q94 0 167.5 -44.5t116.5 -126.5l-46 -33q-81 152 -239 152q-109 2 -193.5 -90.5t-81.5 -221.5q0 -136 75.5 -224t194.5 -88q96 0 160.5 71t73.5 178h-255v52h315v-339h-41l-23 134q-75 -148 -231 -148q-142 -2 -236.5 104.5
t-92.5 259.5z" />
    <glyph glyph-name="H" unicode="H" horiz-adv-x="676" 
d="M88 0v700h60v-317h380v317h60v-700h-60v331h-380v-331h-60z" />
    <glyph glyph-name="I" unicode="I" horiz-adv-x="236" 
d="M88 0v700h60v-700h-60z" />
    <glyph glyph-name="J" unicode="J" horiz-adv-x="520" 
d="M50 190l60 -7q0 -67 40.5 -106t101.5 -39q66 0 104 40.5t38 115.5v506h60v-505q0 -95 -56 -152t-146 -57q-91 0 -146.5 55t-55.5 149z" />
    <glyph glyph-name="K" unicode="K" horiz-adv-x="593" 
d="M88 0v700h60v-343l70 75l256 268h74l-241 -256l264 -444h-70l-238 397l-115 -120v-277h-60z" />
    <glyph glyph-name="L" unicode="L" horiz-adv-x="554" 
d="M88 0v700h60v-648h358v-52h-418z" />
    <glyph glyph-name="M" unicode="M" horiz-adv-x="844" 
d="M88 0v700h68l266 -654l266 654h68v-700h-58v595l-36 -96l-206 -499h-68l-206 498l-36 97v-595h-58z" />
    <glyph glyph-name="N" unicode="N" horiz-adv-x="688" 
d="M88 0v700h64l360 -562q22 -37 30 -55v617h58v-700h-64l-360 562q-22 37 -30 55v-617h-58z" />
    <glyph glyph-name="O" unicode="O" horiz-adv-x="770" 
d="M56 350q-2 159 94 262.5t235 101.5q139 2 235 -101.5t94 -262.5q2 -159 -94 -262.5t-235 -101.5q-139 -2 -235 101.5t-94 262.5zM654 350q0 138 -76 225t-193 87t-193 -87t-76 -225q-2 -137 75.5 -225.5t193.5 -86.5q116 -2 193.5 86.5t75.5 225.5z" />
    <glyph glyph-name="P" unicode="P" horiz-adv-x="660" 
d="M88 0v700h280q109 0 173.5 -58t64.5 -157t-64.5 -157t-173.5 -58h-220v-270h-60zM148 322h218q88 0 134 42t46 121t-46 121t-134 42h-218v-326z" />
    <glyph glyph-name="Q" unicode="Q" horiz-adv-x="770" 
d="M434 -11q-24 -3 -49 -3q-139 -2 -235 101.5t-94 262.5q-2 159 94 262.5t235 101.5q139 2 235 -101.5t94 -262.5q0 -128 -60 -219q-58 -91 -158 -126q37 -54 82 -99l-45 -40q-60 60 -99 123zM654 350q0 138 -76 225t-193 87t-193 -87t-76 -225q-2 -137 75.5 -225.5
t193.5 -86.5q116 -2 193.5 86.5t75.5 225.5z" />
    <glyph glyph-name="R" unicode="R" horiz-adv-x="617" 
d="M88 0v700h268q98 0 155.5 -54.5t57.5 -139.5q0 -76 -44.5 -126t-127.5 -64l176 -316h-64l-177 312h-184v-312h-60zM148 364h193q168 0 168 142t-168 142h-193v-284z" />
    <glyph glyph-name="S" unicode="S" horiz-adv-x="640" 
d="M53 199l55 30q18 -92 73.5 -141.5t142.5 -49.5q86 0 139 44t53 105q0 62 -48.5 98.5t-146.5 54.5q-117 21 -175.5 68t-58.5 128q0 77 64 127.5t162 50.5q90 0 157.5 -45.5t91.5 -120.5l-48 -29q-25 69 -76.5 106t-123.5 37q-75 0 -122 -34.5t-47 -91.5q0 -58 51 -93.5
t155 -54.5q225 -44 225 -194q0 -90 -71 -149t-181 -59t-181 60t-90 153z" />
    <glyph glyph-name="T" unicode="T" horiz-adv-x="530" 
d="M235 0v648h-217v52h494v-52h-217v-648h-60z" />
    <glyph glyph-name="U" unicode="U" horiz-adv-x="654" 
d="M76 235v465h60v-464q0 -90 53.5 -144t137.5 -54t137.5 54t53.5 144v464h60v-465q0 -117 -67 -183t-184 -66t-184 66t-67 183z" />
    <glyph glyph-name="V" unicode="V" horiz-adv-x="592" 
d="M261 0l-259 700h60l208 -571q11 -29 26 -77q15 48 26 77l208 571h60l-259 -700h-70z" />
    <glyph glyph-name="W" unicode="W" horiz-adv-x="870" 
d="M204 0l-199 700h58l154 -561q17 -66 19 -77q4 24 18 78l147 560h68l147 -560q14 -54 18 -78q2 11 19 77l154 561h58l-199 -700h-64l-167 635l-167 -635h-64z" />
    <glyph glyph-name="X" unicode="X" horiz-adv-x="549" 
d="M3 0l237 376l-203 324h69l168 -278l172 278h66l-203 -319l236 -381h-68l-203 332l-203 -332h-68z" />
    <glyph glyph-name="Y" unicode="Y" horiz-adv-x="524" 
d="M232 0v292l-228 408h64l172 -318q12 -23 22 -46q10 23 22 46l172 318h64l-228 -408v-292h-60z" />
    <glyph glyph-name="Z" unicode="Z" horiz-adv-x="582" 
d="M42 0v52l415 594h-402v54h465v-54l-410 -592h427v-54h-495z" />
    <glyph glyph-name="bracketleft" unicode="[" horiz-adv-x="312" 
d="M88 -150v850h172v-50h-114v-750h114v-50h-172z" />
    <glyph glyph-name="backslash" unicode="\" horiz-adv-x="474" 
d="M406 -30l-400 760h62l400 -760h-62z" />
    <glyph glyph-name="bracketright" unicode="]" horiz-adv-x="312" 
d="M52 -150v50h114v750h-114v50h172v-850h-172z" />
    <glyph glyph-name="asciicircum" unicode="^" horiz-adv-x="412" 
d="M20 457l155 243h62l155 -243h-52l-134 205l-134 -205h-52z" />
    <glyph glyph-name="underscore" unicode="_" horiz-adv-x="422" 
d="M8 -53v46h406v-46h-406z" />
    <glyph glyph-name="grave" unicode="`" horiz-adv-x="276" 
d="M163 562l-100 138h84l66 -138h-50z" />
    <glyph glyph-name="a" unicode="a" horiz-adv-x="529" 
d="M52 137q0 65 45 105.5t120 52.5l177 29v24q0 53 -34 81.5t-95 28.5t-97 -26.5t-36 -66.5q0 -5 2 -15l-47 -16q-7 17 -7 38q0 57 53.5 97.5t131.5 40.5q89 0 138 -41.5t49 -114.5v-230q0 -43 6 -68.5t24 -55.5h-58q-32 40 -32 107q-17 -51 -68 -86q-50 -35 -107 -35
q-74 0 -119.5 42t-45.5 109zM394 249v25l-167 -28q-55 -9 -86 -37.5t-31 -70.5q0 -43 31 -70.5t81 -27.5q77 0 124.5 63.5t47.5 145.5z" />
    <glyph glyph-name="b" unicode="b" horiz-adv-x="594" 
d="M134 96v-96h-58v700h58v-298q30 50 80 79t112 29q96 0 161 -75.5t65 -186.5q2 -110 -67.5 -187t-170.5 -75q-59 0 -109 32q-50 33 -71 78zM492 248q0 93 -51.5 152.5t-130.5 59.5t-130.5 -60.5t-51.5 -151.5q0 -92 51 -152t131 -60t131 59.5t51 152.5z" />
    <glyph glyph-name="c" unicode="c" horiz-adv-x="542" 
d="M42 248q-2 109 73.5 186.5t177.5 75.5q150 0 211 -126l-43 -27q-56 101 -166 101q-83 0 -138 -58t-55 -152t54.5 -152t138.5 -58q57 0 96.5 24t70.5 73l40 -27q-70 -122 -209 -122q-108 0 -179.5 74.5t-71.5 187.5z" />
    <glyph glyph-name="d" unicode="d" horiz-adv-x="594" 
d="M42 248q0 111 67.5 186.5t166.5 75.5q61 0 109.5 -28.5t74.5 -80.5v299h58v-700h-58v97q-24 -49 -72.5 -80t-107.5 -31q-101 -2 -170.5 75t-67.5 187zM466 248q0 92 -51 152t-131 60t-131 -59.5t-51 -152.5t51 -152.5t131 -59.5t131 60t51 152z" />
    <glyph glyph-name="e" unicode="e" horiz-adv-x="567" 
d="M42 248q0 112 71 187t174 75q108 0 172 -68.5t64 -179.5v-19h-423q3 -88 54.5 -147.5t132.5 -59.5q125 0 180 120l42 -25q-69 -145 -225 -145q-101 -2 -172.5 74.5t-69.5 187.5zM100 293h360q0 77 -50.5 122t-122.5 45q-71 0 -124 -48q-52 -46 -63 -119z" />
    <glyph glyph-name="f" unicode="f" horiz-adv-x="306" 
d="M102 0v452h-79v44h79v103q0 71 36 111t106 40q28 0 47 -9l-9 -49q-21 8 -41 8q-37 0 -59 -24.5t-22 -71.5v-108h121v-44h-121v-452h-58z" />
    <glyph glyph-name="g" unicode="g" horiz-adv-x="577" 
d="M71 -82q0 29 13 52l53 -15q-8 -21 -8 -37q0 -40 40.5 -63t110.5 -23q171 0 171 200v76q-61 -100 -180 -100q-100 0 -164.5 68t-64.5 183q0 116 65.5 183.5t163.5 67.5q61 0 107.5 -25.5t72.5 -68.5v80h58v-464q0 -118 -59 -184t-170 -66q-98 0 -153.5 38.5t-55.5 97.5z
M457 259q0 92 -48 146.5t-130 54.5t-129.5 -54.5t-47.5 -146.5t47.5 -146.5t129.5 -54.5t130 54.5t48 146.5z" />
    <glyph glyph-name="h" unicode="h" horiz-adv-x="565" 
d="M76 0v700h58v-301q27 51 76 81t106 30q81 0 127 -45.5t46 -127.5v-337h-58v331q0 61 -35.5 95t-95.5 34q-64 0 -115 -54t-51 -131v-275h-58z" />
    <glyph glyph-name="i" unicode="i" horiz-adv-x="210" 
d="M76 0v496h58v-496h-58zM68 590v80h74v-80h-74z" />
    <glyph glyph-name="j" unicode="j" horiz-adv-x="210" 
d="M-30 -203l8 52q21 -8 40 -8q28 0 43 18.5t15 50.5v586h58v-573q0 -62 -27 -98t-82 -36q-29 0 -55 8zM68 590v80h74v-80h-74z" />
    <glyph glyph-name="k" unicode="k" horiz-adv-x="482" 
d="M76 0v700h58v-410l215 206h75l-176 -170l209 -326h-65l-185 286l-73 -71v-215h-58z" />
    <glyph glyph-name="l" unicode="l" horiz-adv-x="210" 
d="M76 0v700h58v-700h-58z" />
    <glyph glyph-name="m" unicode="m" horiz-adv-x="803" 
d="M76 0v496h58v-83q19 42 60.5 69.5t90.5 27.5q48 0 84.5 -26.5t51.5 -73.5q24 45 66 72.5t91 27.5q67 0 108 -38t41 -103v-369h-58v355q0 105 -105 105q-56 0 -95.5 -52.5t-39.5 -146.5v-261h-58v351q0 50 -26.5 79.5t-73.5 29.5q-58 0 -97.5 -53.5t-39.5 -140.5v-266h-58
z" />
    <glyph glyph-name="n" unicode="n" horiz-adv-x="558" 
d="M76 0v496h58v-92q27 49 74 77.5t100 28.5q75 0 124 -43q50 -42 50 -130v-337h-58v331q0 61 -36 95t-94 34q-63 0 -111.5 -52.5t-48.5 -126.5v-281h-58z" />
    <glyph glyph-name="o" unicode="o" horiz-adv-x="592" 
d="M42 248q0 118 73.5 190t180.5 72t180.5 -72t73.5 -190t-73.5 -190t-180.5 -72t-180.5 72t-73.5 190zM492 248q0 91 -56 151.5t-140 60.5t-140 -60.5t-56 -151.5t56 -151.5t140 -60.5t140 60.5t56 151.5z" />
    <glyph glyph-name="p" unicode="p" horiz-adv-x="594" 
d="M76 -204v700h58v-100q24 50 73.5 82t110.5 32q99 0 166.5 -75.5t67.5 -186.5q0 -112 -66.5 -187t-168.5 -75q-61 0 -109.5 27t-73.5 76v-293h-58zM492 248q0 93 -51 152.5t-131 59.5t-131 -60t-51 -152t51 -152t131 -60t131 59.5t51 152.5z" />
    <glyph glyph-name="q" unicode="q" horiz-adv-x="594" 
d="M460 -204v294q-54 -104 -180 -104q-101 -2 -170.5 75t-67.5 187q-2 110 67.5 187t170.5 75q62 0 110.5 -29t69.5 -77v92h58v-700h-58zM466 248q0 92 -51 152t-131 60t-131 -59.5t-51 -152.5t51 -152.5t131 -59.5t131 60t51 152z" />
    <glyph glyph-name="r" unicode="r" horiz-adv-x="334" 
d="M76 0v496h58v-94q18 47 57 77.5t86 30.5q23 0 41 -5l-10 -50q-18 5 -37 5q-54 0 -95.5 -57t-41.5 -132v-271h-58z" />
    <glyph glyph-name="s" unicode="s" horiz-adv-x="478" 
d="M48 128l50 30q18 -58 58 -90t97 -32q56 0 89.5 28t33.5 73q0 42 -32 66t-102 36q-78 13 -122 49.5t-44 94.5q0 57 47 92q49 35 118 35q138 0 188 -119l-47 -27q-38 96 -140 96q-49 0 -80.5 -21.5t-31.5 -57.5q0 -38 34.5 -61t105.5 -36q164 -32 164 -144
q0 -62 -49.5 -108t-131.5 -46q-73 0 -126.5 38.5t-78.5 103.5z" />
    <glyph glyph-name="t" unicode="t" horiz-adv-x="333" 
d="M116 119v333h-87v44h87v134h58v-134h123v-44h-123v-336q0 -80 71 -80q17 0 37 6l5 -48q-26 -8 -54 -8q-53 0 -85 34.5t-32 98.5z" />
    <glyph glyph-name="u" unicode="u" horiz-adv-x="556" 
d="M76 164v332h58v-331q0 -61 35 -95t93 -34q66 0 113 55t47 137v268h58v-496h-58v91q-24 -47 -70.5 -76t-99.5 -29q-79 0 -127.5 45.5t-48.5 132.5z" />
    <glyph glyph-name="v" unicode="v" horiz-adv-x="474" 
d="M206 0l-198 496h63l166 -432l166 432h63l-198 -496h-62z" />
    <glyph glyph-name="w" unicode="w" horiz-adv-x="676" 
d="M151 0l-144 496h58l120 -436l120 436h66l120 -436l120 436h58l-144 -496h-67l-120 436l-120 -436h-67z" />
    <glyph glyph-name="x" unicode="x" horiz-adv-x="422" 
d="M0 0l181 265l-149 231h65l117 -186l118 186h63l-148 -227l175 -269h-62l-146 223l-145 -223h-69z" />
    <glyph glyph-name="y" unicode="y" horiz-adv-x="477" 
d="M56 -201l10 53q21 -8 36 -8q43 0 64 53l42 103l-203 496h65l168 -421l170 421h63l-254 -616q-19 -47 -45.5 -68.5t-67.5 -21.5q-26 0 -48 9z" />
    <glyph glyph-name="z" unicode="z" horiz-adv-x="474" 
d="M43 0v50l311 396h-303v50h366v-50l-311 -396h325v-50h-388z" />
    <glyph glyph-name="braceleft" unicode="{" horiz-adv-x="360" 
d="M134 11v137q0 56 -17 78t-59 22v54q42 0 59 22t17 78v137q0 85 33 123t108 38h31v-50h-31q-40 0 -61.5 -23.5t-21.5 -68.5v-157q0 -56 -14 -82t-51 -44q37 -18 51 -44t14 -82v-157q0 -45 21.5 -68.5t61.5 -23.5h31v-50h-31q-75 0 -108 38t-33 123z" />
    <glyph glyph-name="bar" unicode="|" horiz-adv-x="236" 
d="M88 -110v850h60v-850h-60z" />
    <glyph glyph-name="braceright" unicode="}" horiz-adv-x="360" 
d="M54 -150v50h31q40 0 61.5 23.5t21.5 68.5v157q0 56 14 82t51 44q-37 18 -51 44t-14 82v157q0 45 -21.5 68.5t-61.5 23.5h-31v50h31q75 0 108 -38t33 -123v-137q0 -56 17 -78t59 -22v-54q-42 0 -59 -22t-17 -78v-137q0 -85 -33 -123t-108 -38h-31z" />
    <glyph glyph-name="asciitilde" unicode="~" horiz-adv-x="426" 
d="M48 316q0 35 24.5 55.5t62.5 20.5q45 0 94 -38q35 -28 59 -28q15 0 24 9t9 23q0 12 -6 22l53 11q10 -13 10 -40q0 -35 -24.5 -55.5t-62.5 -20.5q-45 0 -94 38q-35 28 -59 28q-15 0 -24 -9t-9 -23q0 -11 6 -22l-53 -11q-10 13 -10 40z" />
    <glyph glyph-name="uni00A0" unicode="&#xa0;" horiz-adv-x="276" 
 />
    <glyph glyph-name="exclamdown" unicode="&#xa1;" horiz-adv-x="258" 
d="M88 412v84h82v-84h-82zM99 -204v213l11 315h38l11 -315v-213h-60z" />
    <glyph glyph-name="cent" unicode="&#xa2;" horiz-adv-x="542" 
d="M462 135l40 -27q-60 -109 -182 -121v-97h-60v98q-96 10 -157 83t-61 177q0 101 63 174.5t155 85.5v112h60v-111q128 -12 184 -125l-43 -27q-48 88 -141 99v-417q86 9 142 96zM260 41v414q-71 -12 -114.5 -68t-43.5 -139t43 -139t115 -68z" />
    <glyph glyph-name="sterling" unicode="&#xa3;" horiz-adv-x="556" 
d="M72 0v38q35 54 51 97t16 96q0 49 -12 93h-94v48h81q-26 73 -26 130q0 96 61.5 154t154.5 58q94 0 150 -46.5t56 -120.5q0 -38 -13 -71l-56 10q11 31 11 59q0 48 -40.5 82.5t-108.5 34.5q-70 0 -112.5 -43.5t-42.5 -120.5q0 -42 24 -126h204v-48h-191q12 -50 12 -90
q0 -89 -56 -180h357v-54h-426z" />
    <glyph glyph-name="currency" unicode="&#xa4;" horiz-adv-x="620" 
d="M113 110l-43 43l61 62q-43 55 -43 135t43 135l-61 62l43 43l62 -61q62 44 135 44t135 -44l62 61l43 -43l-61 -62q43 -55 43 -135t-43 -135l61 -62l-43 -43l-62 61q-62 -44 -135 -44t-135 44zM472 350q0 76 -46 122q-45 48 -116 48q-70 0 -117 -48q-45 -46 -45 -122
q0 -75 45 -123q47 -47 117 -47q71 0 116 47q46 47 46 123z" />
    <glyph glyph-name="yen" unicode="&#xa5;" horiz-adv-x="534" 
d="M237 0v158h-149v46h149v88h-149v46h123l-195 362h65l165 -315q11 -22 21 -47q10 25 21 47l165 315h65l-195 -362h124v-46h-150v-88h150v-46h-150v-158h-60z" />
    <glyph glyph-name="brokenbar" unicode="&#xa6;" horiz-adv-x="236" 
d="M88 380v360h60v-360h-60zM88 -110v360h60v-360h-60z" />
    <glyph glyph-name="section" unicode="&#xa7;" horiz-adv-x="512" 
d="M58 36l48 34q45 -111 157 -111q54 0 89.5 27.5t35.5 74.5q0 49 -34.5 78t-131.5 52q-77 18 -118 55.5t-41 88.5q0 67 58 107q-54 47 -54 115q0 72 54 114.5t131 42.5q143 0 202 -129l-48 -34q-44 111 -156 111q-53 0 -89 -28t-36 -76q0 -45 37 -76.5t129 -52.5
q85 -20 122 -52.5t37 -83.5q0 -68 -58 -111q54 -44 54 -118q0 -72 -54 -114.5t-131 -42.5q-73 0 -125 34.5t-78 94.5zM390 287q0 34 -31.5 56.5t-101.5 36.5q-54 10 -97 34q-37 -29 -37 -70q0 -39 30 -62.5t101 -40.5q56 -14 94 -32q42 31 42 78z" />
    <glyph glyph-name="dieresis" unicode="&#xa8;" horiz-adv-x="368" 
d="M70 594v76h80v-76h-80zM218 594v76h80v-76h-80z" />
    <glyph glyph-name="copyright" unicode="&#xa9;" horiz-adv-x="848" 
d="M60 350q-3 147 107 257t257 107q147 3 257 -107t107 -257q3 -147 -107 -257t-257 -107q-147 -3 -257 107t-107 257zM740 350q2 130 -92 225t-224 93q-130 2 -224 -93t-92 -225q-2 -130 92.5 -225.5t223.5 -92.5q129 -3 223.5 92.5t92.5 225.5zM230 350q0 87 56.5 145.5
t138.5 58.5q60 0 104.5 -28t65.5 -78l-32 -21q-42 86 -138 86q-61 0 -104.5 -45.5t-43.5 -117.5t43 -117t107 -45q89 0 137 90l32 -21q-25 -52 -69.5 -81.5t-98.5 -29.5q-87 0 -142.5 58t-55.5 146z" />
    <glyph glyph-name="ordfeminine" unicode="&#xaa;" horiz-adv-x="374" 
d="M49 398q0 91 112 110l120 19v12q0 76 -81 76q-38 0 -59.5 -15t-21.5 -40q0 -7 1 -10l-47 -16q-5 12 -5 27q0 40 37.5 68t94.5 28q63 0 98 -30t35 -82v-156q0 -54 21 -89h-51q-22 25 -22 72q-15 -36 -46.5 -57.5t-70.5 -21.5q-51 0 -83 29.5t-32 75.5zM281 471v14
l-109 -17q-33 -5 -52 -22.5t-19 -44.5t19 -44.5t47 -17.5q55 0 84 39q30 40 30 93z" />
    <glyph glyph-name="guillemotleft" unicode="&#xab;" horiz-adv-x="471" 
d="M200 81l-152 194l152 194h70l-151 -194l151 -194h-70zM365 81l-152 194l152 194h70l-151 -194l151 -194h-70z" />
    <glyph glyph-name="logicalnot" unicode="&#xac;" horiz-adv-x="518" 
d="M380 208v132h-332v50h394v-182h-62z" />
    <glyph glyph-name="uni00AD" unicode="&#xad;" horiz-adv-x="446" 
d="M48 288v46h350v-46h-350z" />
    <glyph glyph-name="registered" unicode="&#xae;" horiz-adv-x="848" 
d="M60 350q-3 147 107 257t257 107q147 3 257 -107t107 -257q3 -147 -107 -257t-257 -107q-147 -3 -257 107t-107 257zM740 350q2 130 -92 225t-224 93q-130 2 -224 -93t-92 -225q-2 -130 92.5 -225.5t223.5 -92.5q129 -3 223.5 92.5t92.5 225.5zM289 151v398h159
q57 0 90.5 -31t33.5 -82q0 -43 -27 -71.5t-74 -37.5l99 -176h-50l-98 173h-87v-173h-46zM335 363h111q38 0 59.5 20t21.5 53t-21.5 52.5t-59.5 19.5h-111v-145z" />
    <glyph glyph-name="overscore" unicode="&#xaf;" horiz-adv-x="302" 
d="M48 608v54h206v-54h-206z" />
    <glyph glyph-name="degree" unicode="&#xb0;" horiz-adv-x="360" 
d="M44 579q0 56 39.5 95.5t96.5 39.5t96.5 -39.5t39.5 -95.5t-39.5 -95.5t-96.5 -39.5t-96.5 39.5t-39.5 95.5zM268 579q0 39 -24.5 64t-63.5 25t-63.5 -25t-24.5 -64t24.5 -64t63.5 -25t63.5 25t24.5 64z" />
    <glyph glyph-name="plusminus" unicode="&#xb1;" horiz-adv-x="492" 
d="M222 146v173h-172v46h172v173h46v-173h174v-46h-174v-173h-46zM50 0v46h392v-46h-392z" />
    <glyph glyph-name="uni00B2" unicode="&#xb2;" horiz-adv-x="334" 
d="M54 430v36l130 126q29 27 39 47.5t10 48.5q0 25 -18 41t-48 16t-48 -17.5t-18 -45.5q0 -15 4 -23l-43 -6q-6 13 -6 33q0 42 31 71.5t80 29.5q52 0 83 -27.5t31 -70.5q0 -33 -15 -60.5t-51 -63.5l-91 -89h161v-46h-231z" />
    <glyph glyph-name="uni00B3" unicode="&#xb3;" horiz-adv-x="334" 
d="M52 523q0 15 6 31l42 -10q-3 -9 -3 -19q0 -26 21.5 -42t54.5 -16q73 0 73 68q0 29 -27.5 46.5t-71.5 17.5v39q81 0 81 61q0 21 -17 33.5t-44 12.5t-44.5 -14.5t-17.5 -38.5q0 -2 2 -16l-42 -5q-4 11 -4 28q0 37 30.5 62.5t75.5 25.5q48 0 78.5 -24.5t30.5 -60.5
q0 -56 -55 -80q31 -9 51 -32.5t20 -55.5q0 -50 -33.5 -80.5t-85.5 -30.5q-54 0 -87.5 30t-33.5 70z" />
    <glyph glyph-name="acute" unicode="&#xb4;" horiz-adv-x="276" 
d="M63 562l66 138h84l-100 -138h-50z" />
    <glyph glyph-name="uni00B5" unicode="&#xb5;" horiz-adv-x="556" 
d="M76 -204v700h58v-331q0 -61 35 -95t93 -34q66 0 113 55t47 137v268h58v-496h-58v91q-24 -47 -70.5 -76t-99.5 -29q-71 0 -120 38q2 -48 2 -61v-167h-58z" />
    <glyph glyph-name="paragraph" unicode="&#xb6;" horiz-adv-x="595" 
d="M300 -120v450h-49q-89 0 -148 51.5t-59 133.5t59 133.5t148 51.5h307v-52h-60v-768h-60v768h-78v-768h-60z" />
    <glyph glyph-name="middot" unicode="&#xb7;" horiz-adv-x="176" 
d="M48 318v82h80v-82h-80z" />
    <glyph glyph-name="cedilla" unicode="&#xb8;" horiz-adv-x="299" 
d="M64 -144l40 10q9 -30 44 -30q18 0 29.5 11.5t11.5 29.5q0 19 -12 30.5t-31 11.5q-24 0 -49 -20l-28 27l34 90h47l-38 -75q21 15 50 15q31 0 52 -21t21 -56q0 -38 -25 -60.5t-64 -22.5q-32 0 -54 16t-28 44z" />
    <glyph glyph-name="uni00B9" unicode="&#xb9;" horiz-adv-x="240" 
d="M122 430v282q-23 -23 -76 -23v48q33 0 51 10t29 33h44v-350h-48z" />
    <glyph glyph-name="ordmasculine" unicode="&#xba;" horiz-adv-x="454" 
d="M49 475q0 82 54 132t124 50t124 -50t54 -132t-54 -132t-124 -50t-124 50t-54 132zM357 475q0 60 -37 100t-93 40t-93 -40t-37 -100t37 -100t93 -40t93 40t37 100z" />
    <glyph glyph-name="guillemotright" unicode="&#xbb;" horiz-adv-x="471" 
d="M36 81l151 194l-151 194h70l152 -194l-152 -194h-70zM201 81l151 194l-151 194h70l152 -194l-152 -194h-70z" />
    <glyph glyph-name="onequarter" unicode="&#xbc;" horiz-adv-x="696" 
d="M122 350v282q-23 -23 -76 -23v48q33 0 51 10t29 33h44v-350h-48zM131 3l-41 28l435 666l41 -28zM552 0v70h-170v44l170 236h50v-236h40v-44h-40v-70h-50zM432 114h120v162z" />
    <glyph glyph-name="onehalf" unicode="&#xbd;" horiz-adv-x="750" 
d="M122 350v282q-23 -23 -76 -23v48q33 0 51 10t29 33h44v-350h-48zM131 3l-41 28l435 666l41 -28zM470 0v36l130 126q29 27 39 47.5t10 48.5q0 25 -18 41t-48 16t-48 -17.5t-18 -45.5q0 -15 4 -23l-43 -6q-6 13 -6 33q0 42 31 71.5t80 29.5q52 0 83 -27.5t31 -70.5
q0 -33 -15 -60.5t-51 -63.5l-91 -89h161v-46h-231z" />
    <glyph glyph-name="threequarters" unicode="&#xbe;" horiz-adv-x="760" 
d="M52 443q0 15 6 31l42 -10q-3 -9 -3 -19q0 -26 21.5 -42t54.5 -16q73 0 73 68q0 29 -27.5 46.5t-71.5 17.5v39q81 0 81 61q0 21 -17 33.5t-44 12.5t-44.5 -14.5t-17.5 -38.5q0 -2 2 -16l-42 -5q-4 11 -4 28q0 37 30.5 62.5t75.5 25.5q48 0 78.5 -24.5t30.5 -60.5
q0 -56 -55 -80q31 -9 51 -32.5t20 -55.5q0 -50 -33.5 -80.5t-85.5 -30.5q-54 0 -87.5 30t-33.5 70zM195 3l-41 28l435 666l41 -28zM616 0v70h-170v44l170 236h50v-236h40v-44h-40v-70h-50zM496 114h120v162z" />
    <glyph glyph-name="questiondown" unicode="&#xbf;" horiz-adv-x="525" 
d="M313 496v-84h-82v84h82zM303 321v-13q0 -58 -18 -94q-16 -34 -68 -79q-60 -52 -82 -86q-23 -35 -23 -85q0 -60 43 -96t112 -36q65 0 107.5 40t42.5 109q0 20 -8 44l54 10q12 -25 12 -60q0 -78 -58 -135.5t-150 -57.5q-98 0 -155.5 50t-57.5 127q0 62 26 106q24 42 97 105
q38 32 51 61q15 31 15 90h60z" />
    <glyph glyph-name="Agrave" unicode="&#xc0;" horiz-adv-x="636" 
d="M6 0l279 700h66l279 -700h-63l-86 217h-326l-86 -217h-63zM174 267h288l-129 329q-11 24 -15 42l-15 -42zM315 766l-100 138h84l66 -138h-50z" />
    <glyph glyph-name="Aacute" unicode="&#xc1;" horiz-adv-x="636" 
d="M6 0l279 700h66l279 -700h-63l-86 217h-326l-86 -217h-63zM174 267h288l-129 329q-11 24 -15 42l-15 -42zM291 766l66 138h84l-100 -138h-50z" />
    <glyph glyph-name="Acircumflex" unicode="&#xc2;" horiz-adv-x="636" 
d="M6 0l279 700h66l279 -700h-63l-86 217h-326l-86 -217h-63zM174 267h288l-129 329q-11 24 -15 42l-15 -42zM196 766l97 138h50l97 -138h-50l-72 78l-72 -78h-50z" />
    <glyph glyph-name="Atilde" unicode="&#xc3;" horiz-adv-x="636" 
d="M6 0l279 700h66l279 -700h-63l-86 217h-326l-86 -217h-63zM174 267h288l-129 329q-11 24 -15 42l-15 -42zM299 810q-29 28 -57 28q-15 0 -23.5 -9t-8.5 -22q0 -11 5 -23l-49 -10q-10 16 -10 40q0 35 24 54.5t59 19.5q33 0 53 -9.5t44 -30.5q29 -28 57 -28q15 0 23.5 9
t8.5 22q0 11 -5 23l49 10q10 -17 10 -40q0 -35 -24 -54.5t-59 -19.5q-33 0 -53 9.5t-44 30.5z" />
    <glyph glyph-name="Adieresis" unicode="&#xc4;" horiz-adv-x="636" 
d="M6 0l279 700h66l279 -700h-63l-86 217h-326l-86 -217h-63zM174 267h288l-129 329q-11 24 -15 42l-15 -42zM204 798v76h80v-76h-80zM352 798v76h80v-76h-80z" />
    <glyph glyph-name="Aring" unicode="&#xc5;" horiz-adv-x="636" 
d="M6 0l279 700h66l279 -700h-63l-86 217h-326l-86 -217h-63zM174 267h288l-129 329q-11 24 -15 42l-15 -42zM222 839q0 40 28 67.5t68 27.5t68 -27.5t28 -67.5t-28 -67.5t-68 -27.5t-68 27.5t-28 67.5zM370 839q0 22 -15 37.5t-37 15.5t-37 -15.5t-15 -37.5t15 -37.5
t37 -15.5t37 15.5t15 37.5z" />
    <glyph glyph-name="AE" unicode="&#xc6;" horiz-adv-x="906" 
d="M6 0l310 700h519v-52h-353v-260h325v-52h-325v-284h356v-52h-416v217h-257l-96 -217h-63zM187 267h235v381h-66z" />
    <glyph glyph-name="Ccedilla" unicode="&#xc7;" horiz-adv-x="736" 
d="M633 195l44 -31q-51 -90 -119.5 -134t-170.5 -44h-6l-23 -45q21 15 50 15q31 0 52 -21t21 -56q0 -38 -25 -60.5t-64 -22.5q-32 0 -54 16t-28 44l40 10q9 -30 44 -30q18 0 29.5 11.5t11.5 29.5q0 19 -12 30.5t-31 11.5q-24 0 -49 -20l-28 27l24 63q-124 18 -203.5 120
t-79.5 241q-3 148 100 257.5t236 106.5q96 0 171.5 -47t114.5 -131l-45 -32q-46 85 -104 121.5t-138 36.5q-110 2 -193.5 -91.5t-81.5 -220.5q-2 -133 76.5 -223.5t197.5 -88.5q84 0 142 38t101 119z" />
    <glyph glyph-name="Egrave" unicode="&#xc8;" horiz-adv-x="572" 
d="M88 0v700h413v-52h-353v-260h325v-52h-325v-284h356v-52h-416zM293 766l-100 138h84l66 -138h-50z" />
    <glyph glyph-name="Eacute" unicode="&#xc9;" horiz-adv-x="572" 
d="M88 0v700h413v-52h-353v-260h325v-52h-325v-284h356v-52h-416zM269 766l66 138h84l-100 -138h-50z" />
    <glyph glyph-name="Ecircumflex" unicode="&#xca;" horiz-adv-x="572" 
d="M88 0v700h413v-52h-353v-260h325v-52h-325v-284h356v-52h-416zM174 766l97 138h50l97 -138h-50l-72 78l-72 -78h-50z" />
    <glyph glyph-name="Edieresis" unicode="&#xcb;" horiz-adv-x="572" 
d="M88 0v700h413v-52h-353v-260h325v-52h-325v-284h356v-52h-416zM182 798v76h80v-76h-80zM330 798v76h80v-76h-80z" />
    <glyph glyph-name="Igrave" unicode="&#xcc;" horiz-adv-x="236" 
d="M88 0v700h60v-700h-60zM115 766l-100 138h84l66 -138h-50z" />
    <glyph glyph-name="Iacute" unicode="&#xcd;" horiz-adv-x="236" 
d="M88 0v700h60v-700h-60zM91 766l66 138h84l-100 -138h-50z" />
    <glyph glyph-name="Icircumflex" unicode="&#xce;" horiz-adv-x="236" 
d="M88 0v700h60v-700h-60zM-4 766l97 138h50l97 -138h-50l-72 78l-72 -78h-50z" />
    <glyph glyph-name="Idieresis" unicode="&#xcf;" horiz-adv-x="236" 
d="M88 0v700h60v-700h-60zM4 798v76h80v-76h-80zM152 798v76h80v-76h-80z" />
    <glyph glyph-name="Eth" unicode="&#xd0;" horiz-adv-x="696" 
d="M113 0v324h-73v52h73v324h183q153 0 248.5 -96t95.5 -254t-95.5 -254t-248.5 -96h-183zM173 52h114q133 0 213 75q80 77 80 223q0 147 -80 222q-79 76 -213 76h-114v-272h153v-52h-153v-272z" />
    <glyph glyph-name="Ntilde" unicode="&#xd1;" horiz-adv-x="688" 
d="M88 0v700h64l360 -562q22 -37 30 -55v617h58v-700h-64l-360 562q-22 37 -30 55v-617h-58zM330 810q-29 28 -57 28q-15 0 -23.5 -9t-8.5 -22q0 -11 5 -23l-49 -10q-10 16 -10 40q0 35 24 54.5t59 19.5q33 0 53 -9.5t44 -30.5q29 -28 57 -28q15 0 23.5 9t8.5 22q0 11 -5 23
l49 10q10 -17 10 -40q0 -35 -24 -54.5t-59 -19.5q-33 0 -53 9.5t-44 30.5z" />
    <glyph glyph-name="Ograve" unicode="&#xd2;" horiz-adv-x="770" 
d="M56 350q-2 159 94 262.5t235 101.5q139 2 235 -101.5t94 -262.5q2 -159 -94 -262.5t-235 -101.5q-139 -2 -235 101.5t-94 262.5zM654 350q0 138 -76 225t-193 87t-193 -87t-76 -225q-2 -137 75.5 -225.5t193.5 -86.5q116 -2 193.5 86.5t75.5 225.5zM382 766l-100 138h84
l66 -138h-50z" />
    <glyph glyph-name="Oacute" unicode="&#xd3;" horiz-adv-x="770" 
d="M56 350q-2 159 94 262.5t235 101.5q139 2 235 -101.5t94 -262.5q2 -159 -94 -262.5t-235 -101.5q-139 -2 -235 101.5t-94 262.5zM654 350q0 138 -76 225t-193 87t-193 -87t-76 -225q-2 -137 75.5 -225.5t193.5 -86.5q116 -2 193.5 86.5t75.5 225.5zM358 766l66 138h84
l-100 -138h-50z" />
    <glyph glyph-name="Ocircumflex" unicode="&#xd4;" horiz-adv-x="770" 
d="M56 350q-2 159 94 262.5t235 101.5q139 2 235 -101.5t94 -262.5q2 -159 -94 -262.5t-235 -101.5q-139 -2 -235 101.5t-94 262.5zM654 350q0 138 -76 225t-193 87t-193 -87t-76 -225q-2 -137 75.5 -225.5t193.5 -86.5q116 -2 193.5 86.5t75.5 225.5zM263 766l97 138h50
l97 -138h-50l-72 78l-72 -78h-50z" />
    <glyph glyph-name="Otilde" unicode="&#xd5;" horiz-adv-x="770" 
d="M56 350q-2 159 94 262.5t235 101.5q139 2 235 -101.5t94 -262.5q2 -159 -94 -262.5t-235 -101.5q-139 -2 -235 101.5t-94 262.5zM654 350q0 138 -76 225t-193 87t-193 -87t-76 -225q-2 -137 75.5 -225.5t193.5 -86.5q116 -2 193.5 86.5t75.5 225.5zM366 810
q-29 28 -57 28q-15 0 -23.5 -9t-8.5 -22q0 -11 5 -23l-49 -10q-10 16 -10 40q0 35 24 54.5t59 19.5q33 0 53 -9.5t44 -30.5q29 -28 57 -28q15 0 23.5 9t8.5 22q0 11 -5 23l49 10q10 -17 10 -40q0 -35 -24 -54.5t-59 -19.5q-33 0 -53 9.5t-44 30.5z" />
    <glyph glyph-name="Odieresis" unicode="&#xd6;" horiz-adv-x="770" 
d="M56 350q-2 159 94 262.5t235 101.5q139 2 235 -101.5t94 -262.5q2 -159 -94 -262.5t-235 -101.5q-139 -2 -235 101.5t-94 262.5zM654 350q0 138 -76 225t-193 87t-193 -87t-76 -225q-2 -137 75.5 -225.5t193.5 -86.5q116 -2 193.5 86.5t75.5 225.5zM271 798v76h80v-76
h-80zM419 798v76h80v-76h-80z" />
    <glyph glyph-name="multiply" unicode="&#xd7;" horiz-adv-x="482" 
d="M118 209l-32 33l122 122l-122 122l32 33l123 -122l122 122l33 -32l-123 -123l123 -123l-33 -32l-122 123z" />
    <glyph glyph-name="Oslash" unicode="&#xd8;" horiz-adv-x="770" 
d="M714 350q2 -159 -94 -262.5t-235 -101.5q-76 0 -143 32l-22 -42l-48 26l23 44q-66 49 -102.5 127.5t-36.5 176.5q-2 159 94 262.5t235 101.5q76 0 143 -32l22 42l48 -26l-23 -44q66 -49 102.5 -127.5t36.5 -176.5zM221 96l282 539q-55 27 -118 27q-117 0 -193 -87
t-76 -225q0 -168 105 -254zM654 350q0 168 -105 254l-282 -539q55 -27 118 -27q116 -2 193.5 86.5t75.5 225.5z" />
    <glyph glyph-name="Ugrave" unicode="&#xd9;" horiz-adv-x="654" 
d="M76 235v465h60v-464q0 -90 53.5 -144t137.5 -54t137.5 54t53.5 144v464h60v-465q0 -117 -67 -183t-184 -66t-184 66t-67 183zM324 766l-100 138h84l66 -138h-50z" />
    <glyph glyph-name="Uacute" unicode="&#xda;" horiz-adv-x="654" 
d="M76 235v465h60v-464q0 -90 53.5 -144t137.5 -54t137.5 54t53.5 144v464h60v-465q0 -117 -67 -183t-184 -66t-184 66t-67 183zM300 766l66 138h84l-100 -138h-50z" />
    <glyph glyph-name="Ucircumflex" unicode="&#xdb;" horiz-adv-x="654" 
d="M76 235v465h60v-464q0 -90 53.5 -144t137.5 -54t137.5 54t53.5 144v464h60v-465q0 -117 -67 -183t-184 -66t-184 66t-67 183zM205 766l97 138h50l97 -138h-50l-72 78l-72 -78h-50z" />
    <glyph glyph-name="Udieresis" unicode="&#xdc;" horiz-adv-x="654" 
d="M76 235v465h60v-464q0 -90 53.5 -144t137.5 -54t137.5 54t53.5 144v464h60v-465q0 -117 -67 -183t-184 -66t-184 66t-67 183zM213 798v76h80v-76h-80zM361 798v76h80v-76h-80z" />
    <glyph glyph-name="Yacute" unicode="&#xdd;" horiz-adv-x="524" 
d="M232 0v292l-228 408h64l172 -318q12 -23 22 -46q10 23 22 46l172 318h64l-228 -408v-292h-60zM235 766l66 138h84l-100 -138h-50z" />
    <glyph glyph-name="Thorn" unicode="&#xde;" horiz-adv-x="660" 
d="M88 0v700h60v-135h220q109 0 173.5 -58t64.5 -157t-64.5 -157t-173.5 -58h-220v-135h-60zM148 187h218q88 0 134 42t46 121t-46 121t-134 42h-218v-326z" />
    <glyph glyph-name="germandbls" unicode="&#xdf;" horiz-adv-x="584" 
d="M199 39l30 48q53 -51 117 -51q59 0 94.5 40t35.5 104q0 85 -59 130q-58 46 -147 46h-21v52h20q75 0 119.5 37.5t44.5 102.5q0 53 -37 84.5t-96 31.5q-61 0 -96.5 -38t-35.5 -109v-517h-58v452h-85v44h85v18q0 96 55.5 148t134.5 52q85 0 137 -46q52 -45 52 -119
q0 -60 -35.5 -102.5t-92.5 -58.5q173 -48 173 -205q0 -83 -50.5 -140t-135.5 -57q-82 0 -149 53z" />
    <glyph glyph-name="agrave" unicode="&#xe0;" horiz-adv-x="529" 
d="M52 137q0 65 45 105.5t120 52.5l177 29v24q0 53 -34 81.5t-95 28.5t-97 -26.5t-36 -66.5q0 -5 2 -15l-47 -16q-7 17 -7 38q0 57 53.5 97.5t131.5 40.5q89 0 138 -41.5t49 -114.5v-230q0 -43 6 -68.5t24 -55.5h-58q-32 40 -32 107q-17 -51 -68 -86q-50 -35 -107 -35
q-74 0 -119.5 42t-45.5 109zM394 249v25l-167 -28q-55 -9 -86 -37.5t-31 -70.5q0 -43 31 -70.5t81 -27.5q77 0 124.5 63.5t47.5 145.5zM249 562l-100 138h84l66 -138h-50z" />
    <glyph glyph-name="aacute" unicode="&#xe1;" horiz-adv-x="529" 
d="M52 137q0 65 45 105.5t120 52.5l177 29v24q0 53 -34 81.5t-95 28.5t-97 -26.5t-36 -66.5q0 -5 2 -15l-47 -16q-7 17 -7 38q0 57 53.5 97.5t131.5 40.5q89 0 138 -41.5t49 -114.5v-230q0 -43 6 -68.5t24 -55.5h-58q-32 40 -32 107q-17 -51 -68 -86q-50 -35 -107 -35
q-74 0 -119.5 42t-45.5 109zM394 249v25l-167 -28q-55 -9 -86 -37.5t-31 -70.5q0 -43 31 -70.5t81 -27.5q77 0 124.5 63.5t47.5 145.5zM218 562l66 138h84l-100 -138h-50z" />
    <glyph glyph-name="acircumflex" unicode="&#xe2;" horiz-adv-x="529" 
d="M52 137q0 65 45 105.5t120 52.5l177 29v24q0 53 -34 81.5t-95 28.5t-97 -26.5t-36 -66.5q0 -5 2 -15l-47 -16q-7 17 -7 38q0 57 53.5 97.5t131.5 40.5q89 0 138 -41.5t49 -114.5v-230q0 -43 6 -68.5t24 -55.5h-58q-32 40 -32 107q-17 -51 -68 -86q-50 -35 -107 -35
q-74 0 -119.5 42t-45.5 109zM394 249v25l-167 -28q-55 -9 -86 -37.5t-31 -70.5q0 -43 31 -70.5t81 -27.5q77 0 124.5 63.5t47.5 145.5zM143 562l97 138h50l97 -138h-50l-72 78l-72 -78h-50z" />
    <glyph glyph-name="atilde" unicode="&#xe3;" horiz-adv-x="529" 
d="M52 137q0 65 45 105.5t120 52.5l177 29v24q0 53 -34 81.5t-95 28.5t-97 -26.5t-36 -66.5q0 -5 2 -15l-47 -16q-7 17 -7 38q0 57 53.5 97.5t131.5 40.5q89 0 138 -41.5t49 -114.5v-230q0 -43 6 -68.5t24 -55.5h-58q-32 40 -32 107q-17 -51 -68 -86q-50 -35 -107 -35
q-74 0 -119.5 42t-45.5 109zM394 249v25l-167 -28q-55 -9 -86 -37.5t-31 -70.5q0 -43 31 -70.5t81 -27.5q77 0 124.5 63.5t47.5 145.5zM246 606q-29 28 -57 28q-15 0 -23.5 -9t-8.5 -22q0 -11 5 -23l-49 -10q-10 16 -10 40q0 35 24 54.5t59 19.5q33 0 53 -9.5t44 -30.5
q29 -28 57 -28q15 0 23.5 9t8.5 22q0 11 -5 23l49 10q10 -17 10 -40q0 -35 -24 -54.5t-59 -19.5q-33 0 -53 9.5t-44 30.5z" />
    <glyph glyph-name="adieresis" unicode="&#xe4;" horiz-adv-x="529" 
d="M52 137q0 65 45 105.5t120 52.5l177 29v24q0 53 -34 81.5t-95 28.5t-97 -26.5t-36 -66.5q0 -5 2 -15l-47 -16q-7 17 -7 38q0 57 53.5 97.5t131.5 40.5q89 0 138 -41.5t49 -114.5v-230q0 -43 6 -68.5t24 -55.5h-58q-32 40 -32 107q-17 -51 -68 -86q-50 -35 -107 -35
q-74 0 -119.5 42t-45.5 109zM394 249v25l-167 -28q-55 -9 -86 -37.5t-31 -70.5q0 -43 31 -70.5t81 -27.5q77 0 124.5 63.5t47.5 145.5zM151 594v76h80v-76h-80zM299 594v76h80v-76h-80z" />
    <glyph glyph-name="aring" unicode="&#xe5;" horiz-adv-x="529" 
d="M52 137q0 65 45 105.5t120 52.5l177 29v24q0 53 -34 81.5t-95 28.5t-97 -26.5t-36 -66.5q0 -5 2 -15l-47 -16q-7 17 -7 38q0 57 53.5 97.5t131.5 40.5q89 0 138 -41.5t49 -114.5v-230q0 -43 6 -68.5t24 -55.5h-58q-32 40 -32 107q-17 -51 -68 -86q-50 -35 -107 -35
q-74 0 -119.5 42t-45.5 109zM394 249v25l-167 -28q-55 -9 -86 -37.5t-31 -70.5q0 -43 31 -70.5t81 -27.5q77 0 124.5 63.5t47.5 145.5zM169 635q0 40 28 67.5t68 27.5t68 -27.5t28 -67.5t-28 -67.5t-68 -27.5t-68 27.5t-28 67.5zM317 635q0 22 -15 37.5t-37 15.5t-37 -15.5
t-15 -37.5t15 -37.5t37 -15.5t37 15.5t15 37.5z" />
    <glyph glyph-name="ae" unicode="&#xe6;" horiz-adv-x="921" 
d="M52 134q0 72 55 115.5t143 43.5h144v55q0 54 -33 82t-94 28q-62 0 -97 -25.5t-35 -65.5q0 -5 2 -15l-47 -16q-7 15 -7 38q0 57 53.5 96.5t130.5 39.5q69 0 115 -27t62 -76q33 49 84.5 76t112.5 27q108 0 172 -68.5t64 -179.5v-19h-423q3 -88 54.5 -147.5t132.5 -59.5
q125 0 180 120l42 -25q-70 -145 -225 -145q-70 0 -127 39.5t-88 104.5q-22 -64 -82 -105q-59 -39 -122 -39q-74 0 -120.5 42t-46.5 106zM454 293h360q0 77 -50.5 122t-122.5 45q-71 0 -124 -48q-52 -46 -63 -119zM394 240v3h-133q-75 0 -113 -29t-38 -80q0 -40 32 -67
t82 -27q77 0 123.5 60.5t46.5 139.5z" />
    <glyph glyph-name="ccedilla" unicode="&#xe7;" horiz-adv-x="542" 
d="M462 135l40 -27q-70 -122 -209 -122h-12l-23 -45q21 15 50 15q31 0 52 -21t21 -56q0 -38 -25 -60.5t-64 -22.5q-32 0 -54 16t-28 44l40 10q9 -30 44 -30q18 0 29.5 11.5t11.5 29.5q0 19 -12 30.5t-31 11.5q-24 0 -49 -20l-28 27l25 65q-89 18 -144 88q-54 71 -54 169
q-2 109 73.5 186.5t177.5 75.5q150 0 211 -126l-43 -27q-56 101 -166 101q-83 0 -138 -58t-55 -152t54.5 -152t138.5 -58q57 0 96.5 24t70.5 73z" />
    <glyph glyph-name="egrave" unicode="&#xe8;" horiz-adv-x="567" 
d="M42 248q0 112 71 187t174 75q108 0 172 -68.5t64 -179.5v-19h-423q3 -88 54.5 -147.5t132.5 -59.5q125 0 180 120l42 -25q-69 -145 -225 -145q-101 -2 -172.5 74.5t-69.5 187.5zM100 293h360q0 77 -50.5 122t-122.5 45q-71 0 -124 -48q-52 -46 -63 -119zM268 562
l-100 138h84l66 -138h-50z" />
    <glyph glyph-name="eacute" unicode="&#xe9;" horiz-adv-x="567" 
d="M42 248q0 112 71 187t174 75q108 0 172 -68.5t64 -179.5v-19h-423q3 -88 54.5 -147.5t132.5 -59.5q125 0 180 120l42 -25q-69 -145 -225 -145q-101 -2 -172.5 74.5t-69.5 187.5zM100 293h360q0 77 -50.5 122t-122.5 45q-71 0 -124 -48q-52 -46 -63 -119zM237 562l66 138
h84l-100 -138h-50z" />
    <glyph glyph-name="ecircumflex" unicode="&#xea;" horiz-adv-x="567" 
d="M42 248q0 112 71 187t174 75q108 0 172 -68.5t64 -179.5v-19h-423q3 -88 54.5 -147.5t132.5 -59.5q125 0 180 120l42 -25q-69 -145 -225 -145q-101 -2 -172.5 74.5t-69.5 187.5zM100 293h360q0 77 -50.5 122t-122.5 45q-71 0 -124 -48q-52 -46 -63 -119zM162 562l97 138
h50l97 -138h-50l-72 78l-72 -78h-50z" />
    <glyph glyph-name="edieresis" unicode="&#xeb;" horiz-adv-x="567" 
d="M42 248q0 112 71 187t174 75q108 0 172 -68.5t64 -179.5v-19h-423q3 -88 54.5 -147.5t132.5 -59.5q125 0 180 120l42 -25q-69 -145 -225 -145q-101 -2 -172.5 74.5t-69.5 187.5zM100 293h360q0 77 -50.5 122t-122.5 45q-71 0 -124 -48q-52 -46 -63 -119zM170 594v76h80
v-76h-80zM318 594v76h80v-76h-80z" />
    <glyph glyph-name="igrave" unicode="&#xec;" horiz-adv-x="210" 
d="M76 0v496h58v-496h-58zM89 562l-100 138h84l66 -138h-50z" />
    <glyph glyph-name="iacute" unicode="&#xed;" horiz-adv-x="210" 
d="M76 0v496h58v-496h-58zM58 562l66 138h84l-100 -138h-50z" />
    <glyph glyph-name="icircumflex" unicode="&#xee;" horiz-adv-x="210" 
d="M76 0v496h58v-496h-58zM-17 562l97 138h50l97 -138h-50l-72 78l-72 -78h-50z" />
    <glyph glyph-name="idieresis" unicode="&#xef;" horiz-adv-x="210" 
d="M76 0v496h58v-496h-58zM-9 594v76h80v-76h-80zM139 594v76h80v-76h-80z" />
    <glyph glyph-name="eth" unicode="&#xf0;" horiz-adv-x="574" 
d="M49 224q0 110 70 174t162 64q64 0 113.5 -27.5t72.5 -71.5q-20 112 -113 207l-137 -53l-17 47l113 44q-72 59 -148 92l26 42q108 -53 177 -113l96 37l18 -47l-75 -29q118 -125 118 -316q0 -142 -70 -215t-169 -73q-97 0 -167 63.5t-70 174.5zM465 224q0 85 -53 136.5
t-126 51.5t-126 -51.5t-53 -136.5t53 -136.5t126 -51.5t126 51.5t53 136.5z" />
    <glyph glyph-name="ntilde" unicode="&#xf1;" horiz-adv-x="558" 
d="M76 0v496h58v-92q27 49 74 77.5t100 28.5q75 0 124 -43q50 -42 50 -130v-337h-58v331q0 61 -36 95t-94 34q-63 0 -111.5 -52.5t-48.5 -126.5v-281h-58zM270 606q-29 28 -57 28q-15 0 -23.5 -9t-8.5 -22q0 -11 5 -23l-49 -10q-10 16 -10 40q0 35 24 54.5t59 19.5
q33 0 53 -9.5t44 -30.5q29 -28 57 -28q15 0 23.5 9t8.5 22q0 11 -5 23l49 10q10 -17 10 -40q0 -35 -24 -54.5t-59 -19.5q-33 0 -53 9.5t-44 30.5z" />
    <glyph glyph-name="ograve" unicode="&#xf2;" horiz-adv-x="592" 
d="M42 248q0 118 73.5 190t180.5 72t180.5 -72t73.5 -190t-73.5 -190t-180.5 -72t-180.5 72t-73.5 190zM492 248q0 91 -56 151.5t-140 60.5t-140 -60.5t-56 -151.5t56 -151.5t140 -60.5t140 60.5t56 151.5zM280 562l-100 138h84l66 -138h-50z" />
    <glyph glyph-name="oacute" unicode="&#xf3;" horiz-adv-x="592" 
d="M42 248q0 118 73.5 190t180.5 72t180.5 -72t73.5 -190t-73.5 -190t-180.5 -72t-180.5 72t-73.5 190zM492 248q0 91 -56 151.5t-140 60.5t-140 -60.5t-56 -151.5t56 -151.5t140 -60.5t140 60.5t56 151.5zM249 562l66 138h84l-100 -138h-50z" />
    <glyph glyph-name="ocircumflex" unicode="&#xf4;" horiz-adv-x="592" 
d="M42 248q0 118 73.5 190t180.5 72t180.5 -72t73.5 -190t-73.5 -190t-180.5 -72t-180.5 72t-73.5 190zM492 248q0 91 -56 151.5t-140 60.5t-140 -60.5t-56 -151.5t56 -151.5t140 -60.5t140 60.5t56 151.5zM174 562l97 138h50l97 -138h-50l-72 78l-72 -78h-50z" />
    <glyph glyph-name="otilde" unicode="&#xf5;" horiz-adv-x="592" 
d="M42 248q0 118 73.5 190t180.5 72t180.5 -72t73.5 -190t-73.5 -190t-180.5 -72t-180.5 72t-73.5 190zM492 248q0 91 -56 151.5t-140 60.5t-140 -60.5t-56 -151.5t56 -151.5t140 -60.5t140 60.5t56 151.5zM277 606q-29 28 -57 28q-15 0 -23.5 -9t-8.5 -22q0 -11 5 -23
l-49 -10q-10 16 -10 40q0 35 24 54.5t59 19.5q33 0 53 -9.5t44 -30.5q29 -28 57 -28q15 0 23.5 9t8.5 22q0 11 -5 23l49 10q10 -17 10 -40q0 -35 -24 -54.5t-59 -19.5q-33 0 -53 9.5t-44 30.5z" />
    <glyph glyph-name="odieresis" unicode="&#xf6;" horiz-adv-x="592" 
d="M42 248q0 118 73.5 190t180.5 72t180.5 -72t73.5 -190t-73.5 -190t-180.5 -72t-180.5 72t-73.5 190zM492 248q0 91 -56 151.5t-140 60.5t-140 -60.5t-56 -151.5t56 -151.5t140 -60.5t140 60.5t56 151.5zM182 594v76h80v-76h-80zM330 594v76h80v-76h-80z" />
    <glyph glyph-name="divide" unicode="&#xf7;" horiz-adv-x="492" 
d="M206 390v82h80v-82h-80zM206 0v82h80v-82h-80zM50 215v46h392v-46h-392z" />
    <glyph glyph-name="oslash" unicode="&#xf8;" horiz-adv-x="592" 
d="M550 248q0 -118 -73.5 -190t-180.5 -72q-56 0 -110 23l-22 -38l-47 26l23 39q-98 76 -98 212q0 118 73.5 190t180.5 72q56 0 110 -23l22 38l47 -26l-23 -39q98 -76 98 -212zM168 84l211 358q-38 18 -83 18q-84 0 -140 -60.5t-56 -151.5q0 -102 68 -164zM492 248
q0 102 -68 164l-211 -358q38 -18 83 -18q84 0 140 60.5t56 151.5z" />
    <glyph glyph-name="ugrave" unicode="&#xf9;" horiz-adv-x="556" 
d="M76 164v332h58v-331q0 -61 35 -95t93 -34q66 0 113 55t47 137v268h58v-496h-58v91q-24 -47 -70.5 -76t-99.5 -29q-79 0 -127.5 45.5t-48.5 132.5zM262 562l-100 138h84l66 -138h-50z" />
    <glyph glyph-name="uacute" unicode="&#xfa;" horiz-adv-x="556" 
d="M76 164v332h58v-331q0 -61 35 -95t93 -34q66 0 113 55t47 137v268h58v-496h-58v91q-24 -47 -70.5 -76t-99.5 -29q-79 0 -127.5 45.5t-48.5 132.5zM231 562l66 138h84l-100 -138h-50z" />
    <glyph glyph-name="ucircumflex" unicode="&#xfb;" horiz-adv-x="556" 
d="M76 164v332h58v-331q0 -61 35 -95t93 -34q66 0 113 55t47 137v268h58v-496h-58v91q-24 -47 -70.5 -76t-99.5 -29q-79 0 -127.5 45.5t-48.5 132.5zM156 562l97 138h50l97 -138h-50l-72 78l-72 -78h-50z" />
    <glyph glyph-name="udieresis" unicode="&#xfc;" horiz-adv-x="556" 
d="M76 164v332h58v-331q0 -61 35 -95t93 -34q66 0 113 55t47 137v268h58v-496h-58v91q-24 -47 -70.5 -76t-99.5 -29q-79 0 -127.5 45.5t-48.5 132.5zM164 594v76h80v-76h-80zM312 594v76h80v-76h-80z" />
    <glyph glyph-name="yacute" unicode="&#xfd;" horiz-adv-x="477" 
d="M56 -201l10 53q21 -8 36 -8q43 0 64 53l42 103l-203 496h65l168 -421l170 421h63l-254 -616q-19 -47 -45.5 -68.5t-67.5 -21.5q-26 0 -48 9zM192 562l66 138h84l-100 -138h-50z" />
    <glyph glyph-name="thorn" unicode="&#xfe;" horiz-adv-x="594" 
d="M76 -204v904h58v-304q24 50 73.5 82t110.5 32q99 0 166.5 -75.5t67.5 -186.5q0 -112 -66.5 -187t-168.5 -75q-61 0 -109.5 27t-73.5 76v-293h-58zM492 248q0 93 -51 152.5t-131 59.5t-131 -60t-51 -152t51 -152t131 -60t131 59.5t51 152.5z" />
    <glyph glyph-name="ydieresis" unicode="&#xff;" horiz-adv-x="477" 
d="M56 -201l10 53q21 -8 36 -8q43 0 64 53l42 103l-203 496h65l168 -421l170 421h63l-254 -616q-19 -47 -45.5 -68.5t-67.5 -21.5q-26 0 -48 9zM125 594v76h80v-76h-80zM273 594v76h80v-76h-80z" />
    <glyph glyph-name="Amacron" unicode="&#x100;" horiz-adv-x="636" 
d="M6 0l279 700h66l279 -700h-63l-86 217h-326l-86 -217h-63zM174 267h288l-129 329q-11 24 -15 42l-15 -42zM215 812v54h206v-54h-206z" />
    <glyph glyph-name="amacron" unicode="&#x101;" horiz-adv-x="529" 
d="M52 137q0 65 45 105.5t120 52.5l177 29v24q0 53 -34 81.5t-95 28.5t-97 -26.5t-36 -66.5q0 -5 2 -15l-47 -16q-7 17 -7 38q0 57 53.5 97.5t131.5 40.5q89 0 138 -41.5t49 -114.5v-230q0 -43 6 -68.5t24 -55.5h-58q-32 40 -32 107q-17 -51 -68 -86q-50 -35 -107 -35
q-74 0 -119.5 42t-45.5 109zM394 249v25l-167 -28q-55 -9 -86 -37.5t-31 -70.5q0 -43 31 -70.5t81 -27.5q77 0 124.5 63.5t47.5 145.5zM162 608v54h206v-54h-206z" />
    <glyph glyph-name="Abreve" unicode="&#x102;" horiz-adv-x="636" 
d="M6 0l279 700h66l279 -700h-63l-86 217h-326l-86 -217h-63zM174 267h288l-129 329q-11 24 -15 42l-15 -42zM221 873h57q0 -20 10.5 -32.5t29.5 -12.5t29.5 12.5t10.5 32.5h57q0 -44 -26.5 -71.5t-70.5 -27.5t-70.5 27.5t-26.5 71.5z" />
    <glyph glyph-name="abreve" unicode="&#x103;" horiz-adv-x="529" 
d="M52 137q0 65 45 105.5t120 52.5l177 29v24q0 53 -34 81.5t-95 28.5t-97 -26.5t-36 -66.5q0 -5 2 -15l-47 -16q-7 17 -7 38q0 57 53.5 97.5t131.5 40.5q89 0 138 -41.5t49 -114.5v-230q0 -43 6 -68.5t24 -55.5h-58q-32 40 -32 107q-17 -51 -68 -86q-50 -35 -107 -35
q-74 0 -119.5 42t-45.5 109zM394 249v25l-167 -28q-55 -9 -86 -37.5t-31 -70.5q0 -43 31 -70.5t81 -27.5q77 0 124.5 63.5t47.5 145.5zM168 669h57q0 -20 10.5 -32.5t29.5 -12.5t29.5 12.5t10.5 32.5h57q0 -44 -26.5 -71.5t-70.5 -27.5t-70.5 27.5t-26.5 71.5z" />
    <glyph glyph-name="Aogonek" unicode="&#x104;" horiz-adv-x="636" 
d="M630 -134l9 -58q-18 -6 -39 -6q-43 0 -71 25t-28 68q0 61 66 106l-86 216h-326l-86 -217h-63l279 700h66l279 -700q-71 -38 -71 -88q0 -21 15 -34.5t38 -13.5q2 0 18 2zM174 267h288l-129 329q-11 24 -15 42l-15 -42z" />
    <glyph glyph-name="aogonek" unicode="&#x105;" horiz-adv-x="529" 
d="M482 -134l9 -58q-18 -6 -39 -6q-43 0 -71 25t-28 68q0 63 69 108q-30 37 -30 104q-17 -51 -68 -86q-50 -35 -107 -35q-74 0 -119.5 42t-45.5 109q0 65 45 105.5t120 52.5l177 29v24q0 53 -34 81.5t-95 28.5t-97 -26.5t-36 -66.5q0 -5 2 -15l-47 -16q-7 17 -7 38
q0 57 53.5 97.5t131.5 40.5q89 0 138 -41.5t49 -114.5v-230q0 -43 6 -68.5t24 -55.5q-71 -38 -71 -88q0 -21 15 -34.5t38 -13.5q2 0 18 2zM394 249v25l-167 -28q-55 -9 -86 -37.5t-31 -70.5q0 -43 31 -70.5t81 -27.5q77 0 124.5 63.5t47.5 145.5z" />
    <glyph glyph-name="Cacute" unicode="&#x106;" horiz-adv-x="736" 
d="M56 350q-3 148 100 257.5t236 106.5q96 0 171.5 -47t114.5 -131l-45 -32q-46 85 -104 121.5t-138 36.5q-110 2 -193.5 -91.5t-81.5 -220.5q-2 -133 76.5 -223.5t197.5 -88.5q84 0 142 38t101 119l44 -31q-51 -90 -119.5 -134t-170.5 -44q-139 -3 -236 104.5t-95 259.5z
M365 766l66 138h84l-100 -138h-50z" />
    <glyph glyph-name="cacute" unicode="&#x107;" horiz-adv-x="542" 
d="M42 248q-2 109 73.5 186.5t177.5 75.5q150 0 211 -126l-43 -27q-56 101 -166 101q-83 0 -138 -58t-55 -152t54.5 -152t138.5 -58q57 0 96.5 24t70.5 73l40 -27q-70 -122 -209 -122q-108 0 -179.5 74.5t-71.5 187.5zM243 562l66 138h84l-100 -138h-50z" />
    <glyph glyph-name="Ccircumflex" unicode="&#x108;" horiz-adv-x="736" 
d="M56 350q-3 148 100 257.5t236 106.5q96 0 171.5 -47t114.5 -131l-45 -32q-46 85 -104 121.5t-138 36.5q-110 2 -193.5 -91.5t-81.5 -220.5q-2 -133 76.5 -223.5t197.5 -88.5q84 0 142 38t101 119l44 -31q-51 -90 -119.5 -134t-170.5 -44q-139 -3 -236 104.5t-95 259.5z
M270 766l97 138h50l97 -138h-50l-72 78l-72 -78h-50z" />
    <glyph glyph-name="ccircumflex" unicode="&#x109;" horiz-adv-x="542" 
d="M42 248q-2 109 73.5 186.5t177.5 75.5q150 0 211 -126l-43 -27q-56 101 -166 101q-83 0 -138 -58t-55 -152t54.5 -152t138.5 -58q57 0 96.5 24t70.5 73l40 -27q-70 -122 -209 -122q-108 0 -179.5 74.5t-71.5 187.5zM168 562l97 138h50l97 -138h-50l-72 78l-72 -78h-50z
" />
    <glyph glyph-name="Cdotaccent" unicode="&#x10a;" horiz-adv-x="736" 
d="M56 350q-3 148 100 257.5t236 106.5q96 0 171.5 -47t114.5 -131l-45 -32q-46 85 -104 121.5t-138 36.5q-110 2 -193.5 -91.5t-81.5 -220.5q-2 -133 76.5 -223.5t197.5 -88.5q84 0 142 38t101 119l44 -31q-51 -90 -119.5 -134t-170.5 -44q-139 -3 -236 104.5t-95 259.5z
M355 794v80h74v-80h-74z" />
    <glyph glyph-name="cdotaccent" unicode="&#x10b;" horiz-adv-x="542" 
d="M42 248q-2 109 73.5 186.5t177.5 75.5q150 0 211 -126l-43 -27q-56 101 -166 101q-83 0 -138 -58t-55 -152t54.5 -152t138.5 -58q57 0 96.5 24t70.5 73l40 -27q-70 -122 -209 -122q-108 0 -179.5 74.5t-71.5 187.5zM253 590v80h74v-80h-74z" />
    <glyph glyph-name="Ccaron" unicode="&#x10c;" horiz-adv-x="736" 
d="M56 350q-3 148 100 257.5t236 106.5q96 0 171.5 -47t114.5 -131l-45 -32q-46 85 -104 121.5t-138 36.5q-110 2 -193.5 -91.5t-81.5 -220.5q-2 -133 76.5 -223.5t197.5 -88.5q84 0 142 38t101 119l44 -31q-51 -90 -119.5 -134t-170.5 -44q-139 -3 -236 104.5t-95 259.5z
M367 766l-97 138h50l72 -78l72 78h50l-97 -138h-50z" />
    <glyph glyph-name="ccaron" unicode="&#x10d;" horiz-adv-x="542" 
d="M42 248q-2 109 73.5 186.5t177.5 75.5q150 0 211 -126l-43 -27q-56 101 -166 101q-83 0 -138 -58t-55 -152t54.5 -152t138.5 -58q57 0 96.5 24t70.5 73l40 -27q-70 -122 -209 -122q-108 0 -179.5 74.5t-71.5 187.5zM265 562l-97 138h50l72 -78l72 78h50l-97 -138h-50z
" />
    <glyph glyph-name="Dcaron" unicode="&#x10e;" horiz-adv-x="671" 
d="M88 0v700h183q153 0 248.5 -96t95.5 -254t-95.5 -254t-248.5 -96h-183zM148 52h114q134 0 213 75q80 77 80 223q0 147 -80 222q-79 76 -213 76h-114v-596zM220 766l-97 138h50l72 -78l72 78h50l-97 -138h-50z" />
    <glyph glyph-name="dcaron" unicode="&#x10f;" horiz-adv-x="668" 
d="M42 248q0 111 67.5 186.5t166.5 75.5q61 0 109.5 -28.5t74.5 -80.5v299h58v-700h-58v97q-24 -49 -72.5 -80t-107.5 -31q-101 -2 -170.5 75t-67.5 187zM466 248q0 92 -51 152t-131 60t-131 -59.5t-51 -152.5t51 -152.5t131 -59.5t131 60t51 152zM610 526l-16 8l33 90h-33
v76h74v-76z" />
    <glyph glyph-name="Dcroat" unicode="&#x110;" horiz-adv-x="696" 
d="M113 0v324h-73v52h73v324h183q153 0 248.5 -96t95.5 -254t-95.5 -254t-248.5 -96h-183zM173 52h114q133 0 213 75q80 77 80 223q0 147 -80 222q-79 76 -213 76h-114v-272h153v-52h-153v-272z" />
    <glyph glyph-name="dslash" unicode="&#x111;" horiz-adv-x="594" 
d="M583 628v-48h-65v-580h-58v97q-24 -49 -72.5 -80t-107.5 -31q-101 -2 -170.5 75t-67.5 187q0 111 67.5 186.5t166.5 75.5q61 0 109.5 -28.5t74.5 -80.5v179h-162v48h162v72h58v-72h65zM466 248q0 92 -51 152t-131 60t-131 -59.5t-51 -152.5t51 -152.5t131 -59.5t131 60
t51 152z" />
    <glyph glyph-name="Emacron" unicode="&#x112;" horiz-adv-x="572" 
d="M88 0v700h413v-52h-353v-260h325v-52h-325v-284h356v-52h-416zM193 812v54h206v-54h-206z" />
    <glyph glyph-name="emacron" unicode="&#x113;" horiz-adv-x="567" 
d="M42 248q0 112 71 187t174 75q108 0 172 -68.5t64 -179.5v-19h-423q3 -88 54.5 -147.5t132.5 -59.5q125 0 180 120l42 -25q-69 -145 -225 -145q-101 -2 -172.5 74.5t-69.5 187.5zM100 293h360q0 77 -50.5 122t-122.5 45q-71 0 -124 -48q-52 -46 -63 -119zM181 608v54h206
v-54h-206z" />
    <glyph glyph-name="Ebreve" unicode="&#x114;" horiz-adv-x="572" 
d="M88 0v700h413v-52h-353v-260h325v-52h-325v-284h356v-52h-416zM199 873h57q0 -20 10.5 -32.5t29.5 -12.5t29.5 12.5t10.5 32.5h57q0 -44 -26.5 -71.5t-70.5 -27.5t-70.5 27.5t-26.5 71.5z" />
    <glyph glyph-name="ebreve" unicode="&#x115;" horiz-adv-x="567" 
d="M42 248q0 112 71 187t174 75q108 0 172 -68.5t64 -179.5v-19h-423q3 -88 54.5 -147.5t132.5 -59.5q125 0 180 120l42 -25q-69 -145 -225 -145q-101 -2 -172.5 74.5t-69.5 187.5zM100 293h360q0 77 -50.5 122t-122.5 45q-71 0 -124 -48q-52 -46 -63 -119zM187 669h57
q0 -20 10.5 -32.5t29.5 -12.5t29.5 12.5t10.5 32.5h57q0 -44 -26.5 -71.5t-70.5 -27.5t-70.5 27.5t-26.5 71.5z" />
    <glyph glyph-name="Edotaccent" unicode="&#x116;" horiz-adv-x="572" 
d="M88 0v700h413v-52h-353v-260h325v-52h-325v-284h356v-52h-416zM259 794v80h74v-80h-74z" />
    <glyph glyph-name="edotaccent" unicode="&#x117;" horiz-adv-x="567" 
d="M42 248q0 112 71 187t174 75q108 0 172 -68.5t64 -179.5v-19h-423q3 -88 54.5 -147.5t132.5 -59.5q125 0 180 120l42 -25q-69 -145 -225 -145q-101 -2 -172.5 74.5t-69.5 187.5zM100 293h360q0 77 -50.5 122t-122.5 45q-71 0 -124 -48q-52 -46 -63 -119zM247 590v80h74
v-80h-74z" />
    <glyph glyph-name="Eogonek" unicode="&#x118;" horiz-adv-x="572" 
d="M504 -134l9 -58q-18 -6 -39 -6q-43 0 -71 25t-28 68q0 61 65 105h-352v700h413v-52h-353v-260h325v-52h-325v-284h356v-52q-71 -38 -71 -88q0 -21 15 -34.5t38 -13.5q2 0 18 2z" />
    <glyph glyph-name="eogonek" unicode="&#x119;" horiz-adv-x="567" 
d="M523 262v-19h-423q3 -88 54.5 -147.5t132.5 -59.5q125 0 180 120l42 -25q-50 -101 -139 -132q-69 -37 -69 -87q0 -21 15 -34.5t38 -13.5q2 0 18 2l9 -58q-18 -6 -39 -6q-43 0 -71 25t-28 68q0 50 47 91h-6q-101 -2 -172.5 74.5t-69.5 187.5q0 112 71 187t174 75
q108 0 172 -68.5t64 -179.5zM100 293h360q0 77 -50.5 122t-122.5 45q-71 0 -124 -48q-52 -46 -63 -119z" />
    <glyph glyph-name="Ecaron" unicode="&#x11a;" horiz-adv-x="572" 
d="M88 0v700h413v-52h-353v-260h325v-52h-325v-284h356v-52h-416zM271 766l-97 138h50l72 -78l72 78h50l-97 -138h-50z" />
    <glyph glyph-name="ecaron" unicode="&#x11b;" horiz-adv-x="567" 
d="M42 248q0 112 71 187t174 75q108 0 172 -68.5t64 -179.5v-19h-423q3 -88 54.5 -147.5t132.5 -59.5q125 0 180 120l42 -25q-69 -145 -225 -145q-101 -2 -172.5 74.5t-69.5 187.5zM100 293h360q0 77 -50.5 122t-122.5 45q-71 0 -124 -48q-52 -46 -63 -119zM259 562l-97 138
h50l72 -78l72 78h50l-97 -138h-50z" />
    <glyph glyph-name="Gcircumflex" unicode="&#x11c;" horiz-adv-x="751" 
d="M56 350q-3 148 99 257.5t237 106.5q94 0 167.5 -44.5t116.5 -126.5l-46 -33q-81 152 -239 152q-109 2 -193.5 -90.5t-81.5 -221.5q0 -136 75.5 -224t194.5 -88q96 0 160.5 71t73.5 178h-255v52h315v-339h-41l-23 134q-75 -148 -231 -148q-142 -2 -236.5 104.5
t-92.5 259.5zM270 766l97 138h50l97 -138h-50l-72 78l-72 -78h-50z" />
    <glyph glyph-name="gcircumflex" unicode="&#x11d;" horiz-adv-x="577" 
d="M71 -82q0 29 13 52l53 -15q-8 -21 -8 -37q0 -40 40.5 -63t110.5 -23q171 0 171 200v76q-61 -100 -180 -100q-100 0 -164.5 68t-64.5 183q0 116 65.5 183.5t163.5 67.5q61 0 107.5 -25.5t72.5 -68.5v80h58v-464q0 -118 -59 -184t-170 -66q-98 0 -153.5 38.5t-55.5 97.5z
M457 259q0 92 -48 146.5t-130 54.5t-129.5 -54.5t-47.5 -146.5t47.5 -146.5t129.5 -54.5t130 54.5t48 146.5zM157 562l97 138h50l97 -138h-50l-72 78l-72 -78h-50z" />
    <glyph glyph-name="Gbreve" unicode="&#x11e;" horiz-adv-x="751" 
d="M56 350q-3 148 99 257.5t237 106.5q94 0 167.5 -44.5t116.5 -126.5l-46 -33q-81 152 -239 152q-109 2 -193.5 -90.5t-81.5 -221.5q0 -136 75.5 -224t194.5 -88q96 0 160.5 71t73.5 178h-255v52h315v-339h-41l-23 134q-75 -148 -231 -148q-142 -2 -236.5 104.5
t-92.5 259.5zM295 873h57q0 -20 10.5 -32.5t29.5 -12.5t29.5 12.5t10.5 32.5h57q0 -44 -26.5 -71.5t-70.5 -27.5t-70.5 27.5t-26.5 71.5z" />
    <glyph glyph-name="gbreve" unicode="&#x11f;" horiz-adv-x="577" 
d="M71 -82q0 29 13 52l53 -15q-8 -21 -8 -37q0 -40 40.5 -63t110.5 -23q171 0 171 200v76q-61 -100 -180 -100q-100 0 -164.5 68t-64.5 183q0 116 65.5 183.5t163.5 67.5q61 0 107.5 -25.5t72.5 -68.5v80h58v-464q0 -118 -59 -184t-170 -66q-98 0 -153.5 38.5t-55.5 97.5z
M457 259q0 92 -48 146.5t-130 54.5t-129.5 -54.5t-47.5 -146.5t47.5 -146.5t129.5 -54.5t130 54.5t48 146.5zM182 669h57q0 -20 10.5 -32.5t29.5 -12.5t29.5 12.5t10.5 32.5h57q0 -44 -26.5 -71.5t-70.5 -27.5t-70.5 27.5t-26.5 71.5z" />
    <glyph glyph-name="Gdotaccent" unicode="&#x120;" horiz-adv-x="751" 
d="M56 350q-3 148 99 257.5t237 106.5q94 0 167.5 -44.5t116.5 -126.5l-46 -33q-81 152 -239 152q-109 2 -193.5 -90.5t-81.5 -221.5q0 -136 75.5 -224t194.5 -88q96 0 160.5 71t73.5 178h-255v52h315v-339h-41l-23 134q-75 -148 -231 -148q-142 -2 -236.5 104.5
t-92.5 259.5zM355 794v80h74v-80h-74z" />
    <glyph glyph-name="gdotaccent" unicode="&#x121;" horiz-adv-x="577" 
d="M71 -82q0 29 13 52l53 -15q-8 -21 -8 -37q0 -40 40.5 -63t110.5 -23q171 0 171 200v76q-61 -100 -180 -100q-100 0 -164.5 68t-64.5 183q0 116 65.5 183.5t163.5 67.5q61 0 107.5 -25.5t72.5 -68.5v80h58v-464q0 -118 -59 -184t-170 -66q-98 0 -153.5 38.5t-55.5 97.5z
M457 259q0 92 -48 146.5t-130 54.5t-129.5 -54.5t-47.5 -146.5t47.5 -146.5t129.5 -54.5t130 54.5t48 146.5zM242 590v80h74v-80h-74z" />
    <glyph glyph-name="uni0122" unicode="&#x122;" horiz-adv-x="751" 
d="M56 350q-3 148 99 257.5t237 106.5q94 0 167.5 -44.5t116.5 -126.5l-46 -33q-81 152 -239 152q-109 2 -193.5 -90.5t-81.5 -221.5q0 -136 75.5 -224t194.5 -88q96 0 160.5 71t73.5 178h-255v52h315v-339h-41l-23 134q-75 -148 -231 -148q-142 -2 -236.5 104.5
t-92.5 259.5zM362 -256l-16 6l29 108h-30v82h80v-82z" />
    <glyph glyph-name="uni0123" unicode="&#x123;" horiz-adv-x="577" 
d="M71 -82q0 29 13 52l53 -15q-8 -21 -8 -37q0 -40 40.5 -63t110.5 -23q171 0 171 200v76q-61 -100 -180 -100q-100 0 -164.5 68t-64.5 183q0 116 65.5 183.5t163.5 67.5q61 0 107.5 -25.5t72.5 -68.5v80h58v-464q0 -118 -59 -184t-170 -66q-98 0 -153.5 38.5t-55.5 97.5z
M457 259q0 92 -48 146.5t-130 54.5t-129.5 -54.5t-47.5 -146.5t47.5 -146.5t129.5 -54.5t130 54.5t48 146.5zM227 563v82l87 115l17 -13l-57 -102h33v-82h-80z" />
    <glyph glyph-name="Hcircumflex" unicode="&#x124;" horiz-adv-x="676" 
d="M88 0v700h60v-317h380v317h60v-700h-60v331h-380v-331h-60zM216 766l97 138h50l97 -138h-50l-72 78l-72 -78h-50z" />
    <glyph glyph-name="hcircumflex" unicode="&#x125;" horiz-adv-x="565" 
d="M76 0v700h58v-301q27 51 76 81t106 30q81 0 127 -45.5t46 -127.5v-337h-58v331q0 61 -35.5 95t-95.5 34q-64 0 -115 -54t-51 -131v-275h-58zM62 766l97 138h50l97 -138h-50l-72 78l-72 -78h-50z" />
    <glyph glyph-name="Hbar" unicode="&#x126;" horiz-adv-x="676" 
d="M687 557v-52h-99v-505h-60v331h-380v-331h-60v505h-99v52h99v143h60v-143h380v143h60v-143h99zM528 383v122h-380v-122h380z" />
    <glyph glyph-name="hbar" unicode="&#x127;" horiz-adv-x="565" 
d="M489 337v-337h-58v331q0 61 -35.5 95t-95.5 34q-64 0 -115 -54t-51 -131v-275h-58v580h-66v48h66v72h58v-72h161v-48h-161v-181q27 51 76 81t106 30q81 0 127 -45.5t46 -127.5z" />
    <glyph glyph-name="Itilde" unicode="&#x128;" horiz-adv-x="236" 
d="M88 0v700h60v-700h-60zM99 810q-29 28 -57 28q-15 0 -23.5 -9t-8.5 -22q0 -11 5 -23l-49 -10q-10 16 -10 40q0 35 24 54.5t59 19.5q33 0 53 -9.5t44 -30.5q29 -28 57 -28q15 0 23.5 9t8.5 22q0 11 -5 23l49 10q10 -17 10 -40q0 -35 -24 -54.5t-59 -19.5q-33 0 -53 9.5
t-44 30.5z" />
    <glyph glyph-name="itilde" unicode="&#x129;" horiz-adv-x="210" 
d="M76 0v496h58v-496h-58zM86 606q-29 28 -57 28q-15 0 -23.5 -9t-8.5 -22q0 -11 5 -23l-49 -10q-10 16 -10 40q0 35 24 54.5t59 19.5q33 0 53 -9.5t44 -30.5q29 -28 57 -28q15 0 23.5 9t8.5 22q0 11 -5 23l49 10q10 -17 10 -40q0 -35 -24 -54.5t-59 -19.5q-33 0 -53 9.5
t-44 30.5z" />
    <glyph glyph-name="Imacron" unicode="&#x12a;" horiz-adv-x="236" 
d="M88 0v700h60v-700h-60zM15 812v54h206v-54h-206z" />
    <glyph glyph-name="imacron" unicode="&#x12b;" horiz-adv-x="210" 
d="M76 0v496h58v-496h-58zM2 608v54h206v-54h-206z" />
    <glyph glyph-name="Ibreve" unicode="&#x12c;" horiz-adv-x="236" 
d="M88 0v700h60v-700h-60zM21 873h57q0 -20 10.5 -32.5t29.5 -12.5t29.5 12.5t10.5 32.5h57q0 -44 -26.5 -71.5t-70.5 -27.5t-70.5 27.5t-26.5 71.5z" />
    <glyph glyph-name="ibreve" unicode="&#x12d;" horiz-adv-x="210" 
d="M76 0v496h58v-496h-58zM8 669h57q0 -20 10.5 -32.5t29.5 -12.5t29.5 12.5t10.5 32.5h57q0 -44 -26.5 -71.5t-70.5 -27.5t-70.5 27.5t-26.5 71.5z" />
    <glyph glyph-name="Iogonek" unicode="&#x12e;" horiz-adv-x="236" 
d="M148 -134l9 -58q-18 -6 -39 -6q-43 0 -71 25t-28 68q0 63 69 108v697h60v-700q-71 -38 -71 -88q0 -21 15 -34.5t38 -13.5q2 0 18 2z" />
    <glyph glyph-name="iogonek" unicode="&#x12f;" horiz-adv-x="210" 
d="M142 670v-80h-74v80h74zM134 -134l9 -58q-18 -6 -39 -6q-43 0 -71 25t-28 68q0 64 71 109v492h58v-496q-71 -38 -71 -88q0 -21 15 -34.5t38 -13.5q2 0 18 2z" />
    <glyph glyph-name="Idot" unicode="&#x130;" horiz-adv-x="236" 
d="M88 0v700h60v-700h-60zM81 794v80h74v-80h-74z" />
    <glyph glyph-name="dotlessi" unicode="&#x131;" horiz-adv-x="210" 
d="M76 0v496h58v-496h-58z" />
    <glyph glyph-name="IJ" unicode="&#x132;" horiz-adv-x="736" 
d="M88 0v700h60v-700h-60zM266 190l60 -7q0 -67 40.5 -106t101.5 -39q66 0 104 40.5t38 115.5v506h60v-505q0 -95 -56 -152t-146 -57q-91 0 -146.5 55t-55.5 149z" />
    <glyph glyph-name="ij" unicode="&#x133;" horiz-adv-x="421" 
d="M76 0v496h58v-496h-58zM68 590v80h74v-80h-74zM181 -203l8 52q21 -8 40 -8q28 0 43 18.5t15 50.5v586h58v-573q0 -62 -27 -98t-82 -36q-29 0 -55 8zM279 590v80h74v-80h-74z" />
    <glyph glyph-name="Jcircumflex" unicode="&#x134;" horiz-adv-x="520" 
d="M50 190l60 -7q0 -67 40.5 -106t101.5 -39q66 0 104 40.5t38 115.5v506h60v-505q0 -95 -56 -152t-146 -57q-91 0 -146.5 55t-55.5 149zM303 766l97 138h50l97 -138h-50l-72 78l-72 -78h-50z" />
    <glyph glyph-name="jcircumflex" unicode="&#x135;" horiz-adv-x="210" 
d="M-30 -203l8 52q21 -8 40 -8q28 0 43 18.5t15 50.5v586h58v-573q0 -62 -27 -98t-82 -36q-29 0 -55 8zM-17 562l97 138h50l97 -138h-50l-72 78l-72 -78h-50z" />
    <glyph glyph-name="uni0136" unicode="&#x136;" horiz-adv-x="593" 
d="M88 0v700h60v-343l70 75l256 268h74l-241 -256l264 -444h-70l-238 397l-115 -120v-277h-60zM288 -256l-16 6l29 108h-30v82h80v-82z" />
    <glyph glyph-name="uni0137" unicode="&#x137;" horiz-adv-x="482" 
d="M76 0v700h58v-410l215 206h75l-176 -170l209 -326h-65l-185 286l-73 -71v-215h-58zM222 -256l-16 6l29 108h-30v82h80v-82z" />
    <glyph glyph-name="kgreenlandic" unicode="&#x138;" horiz-adv-x="474" 
d="M76 0v496h58v-241l211 241h71l-173 -196l206 -300h-67l-179 254l-69 -79v-175h-58z" />
    <glyph glyph-name="Lacute" unicode="&#x139;" horiz-adv-x="554" 
d="M88 0v700h60v-648h358v-52h-418zM113 766l66 138h84l-100 -138h-50z" />
    <glyph glyph-name="lacute" unicode="&#x13a;" horiz-adv-x="210" 
d="M76 0v700h58v-700h-58zM58 766l66 138h84l-100 -138h-50z" />
    <glyph glyph-name="uni013B" unicode="&#x13b;" horiz-adv-x="554" 
d="M88 0v700h60v-648h358v-52h-418zM273 -256l-16 6l29 108h-30v82h80v-82z" />
    <glyph glyph-name="uni013C" unicode="&#x13c;" horiz-adv-x="210" 
d="M76 0v700h58v-700h-58zM82 -256l-16 6l29 108h-30v82h80v-82z" />
    <glyph glyph-name="Lcaron" unicode="&#x13d;" horiz-adv-x="554" 
d="M88 0v700h60v-648h358v-52h-418zM448 526l-16 8l33 90h-33v76h74v-76z" />
    <glyph glyph-name="lcaron" unicode="&#x13e;" horiz-adv-x="284" 
d="M76 0v700h58v-700h-58zM226 526l-16 8l33 90h-33v76h74v-76z" />
    <glyph glyph-name="Ldot" unicode="&#x13f;" horiz-adv-x="554" 
d="M88 0v700h60v-648h358v-52h-418zM367 309v82h80v-82h-80z" />
    <glyph glyph-name="ldot" unicode="&#x140;" horiz-adv-x="294" 
d="M76 0v700h58v-700h-58zM214 310v82h80v-82h-80z" />
    <glyph glyph-name="Lslash" unicode="&#x141;" horiz-adv-x="554" 
d="M148 52h358v-52h-418v230l-87 -55v64l87 55v406h60v-367l162 103v-64l-162 -103v-217z" />
    <glyph glyph-name="lslash" unicode="&#x142;" horiz-adv-x="210" 
d="M208 444v-60l-74 -46v-338h-58v302l-74 -46v60l74 46v338h58v-302z" />
    <glyph glyph-name="Nacute" unicode="&#x143;" horiz-adv-x="688" 
d="M88 0v700h64l360 -562q22 -37 30 -55v617h58v-700h-64l-360 562q-22 37 -30 55v-617h-58zM322 766l66 138h84l-100 -138h-50z" />
    <glyph glyph-name="nacute" unicode="&#x144;" horiz-adv-x="558" 
d="M76 0v496h58v-92q27 49 74 77.5t100 28.5q75 0 124 -43q50 -42 50 -130v-337h-58v331q0 61 -36 95t-94 34q-63 0 -111.5 -52.5t-48.5 -126.5v-281h-58zM242 562l66 138h84l-100 -138h-50z" />
    <glyph glyph-name="uni0145" unicode="&#x145;" horiz-adv-x="688" 
d="M88 0v700h64l360 -562q22 -37 30 -55v617h58v-700h-64l-360 562q-22 37 -30 55v-617h-58zM326 -256l-16 6l29 108h-30v82h80v-82z" />
    <glyph glyph-name="uni0146" unicode="&#x146;" horiz-adv-x="558" 
d="M76 0v496h58v-92q27 49 74 77.5t100 28.5q75 0 124 -43q50 -42 50 -130v-337h-58v331q0 61 -36 95t-94 34q-63 0 -111.5 -52.5t-48.5 -126.5v-281h-58zM256 -256l-16 6l29 108h-30v82h80v-82z" />
    <glyph glyph-name="Ncaron" unicode="&#x147;" horiz-adv-x="688" 
d="M88 0v700h64l360 -562q22 -37 30 -55v617h58v-700h-64l-360 562q-22 37 -30 55v-617h-58zM324 766l-97 138h50l72 -78l72 78h50l-97 -138h-50z" />
    <glyph glyph-name="ncaron" unicode="&#x148;" horiz-adv-x="558" 
d="M76 0v496h58v-92q27 49 74 77.5t100 28.5q75 0 124 -43q50 -42 50 -130v-337h-58v331q0 61 -36 95t-94 34q-63 0 -111.5 -52.5t-48.5 -126.5v-281h-58zM264 562l-97 138h50l72 -78l72 78h50l-97 -138h-50z" />
    <glyph glyph-name="Eng" unicode="&#x14a;" horiz-adv-x="684" 
d="M355 -204l21 52q26 -14 56 -14q51 0 78.5 34.5t27.5 97.5v34l-362 562q-22 37 -30 55v-617h-58v700h64l356 -552q22 -38 30 -55v607h58v-734q0 -84 -43.5 -134t-117.5 -50q-43 0 -80 14z" />
    <glyph glyph-name="eng" unicode="&#x14b;" horiz-adv-x="558" 
d="M318 -203l8 52q21 -8 41 -8q27 0 42 18t15 51v421q0 61 -36 95t-94 34q-63 0 -111.5 -52.5t-48.5 -126.5v-281h-58v496h58v-92q27 49 74 77.5t100 28.5q75 0 124 -43q50 -42 50 -130v-414q0 -134 -108 -134q-30 0 -56 8z" />
    <glyph glyph-name="Omacron" unicode="&#x14c;" horiz-adv-x="770" 
d="M56 350q-2 159 94 262.5t235 101.5q139 2 235 -101.5t94 -262.5q2 -159 -94 -262.5t-235 -101.5q-139 -2 -235 101.5t-94 262.5zM654 350q0 138 -76 225t-193 87t-193 -87t-76 -225q-2 -137 75.5 -225.5t193.5 -86.5q116 -2 193.5 86.5t75.5 225.5zM282 812v54h206v-54
h-206z" />
    <glyph glyph-name="omacron" unicode="&#x14d;" horiz-adv-x="592" 
d="M42 248q0 118 73.5 190t180.5 72t180.5 -72t73.5 -190t-73.5 -190t-180.5 -72t-180.5 72t-73.5 190zM492 248q0 91 -56 151.5t-140 60.5t-140 -60.5t-56 -151.5t56 -151.5t140 -60.5t140 60.5t56 151.5zM193 608v54h206v-54h-206z" />
    <glyph glyph-name="Obreve" unicode="&#x14e;" horiz-adv-x="770" 
d="M56 350q-2 159 94 262.5t235 101.5q139 2 235 -101.5t94 -262.5q2 -159 -94 -262.5t-235 -101.5q-139 -2 -235 101.5t-94 262.5zM654 350q0 138 -76 225t-193 87t-193 -87t-76 -225q-2 -137 75.5 -225.5t193.5 -86.5q116 -2 193.5 86.5t75.5 225.5zM288 873h57
q0 -20 10.5 -32.5t29.5 -12.5t29.5 12.5t10.5 32.5h57q0 -44 -26.5 -71.5t-70.5 -27.5t-70.5 27.5t-26.5 71.5z" />
    <glyph glyph-name="obreve" unicode="&#x14f;" horiz-adv-x="592" 
d="M42 248q0 118 73.5 190t180.5 72t180.5 -72t73.5 -190t-73.5 -190t-180.5 -72t-180.5 72t-73.5 190zM492 248q0 91 -56 151.5t-140 60.5t-140 -60.5t-56 -151.5t56 -151.5t140 -60.5t140 60.5t56 151.5zM199 669h57q0 -20 10.5 -32.5t29.5 -12.5t29.5 12.5t10.5 32.5h57
q0 -44 -26.5 -71.5t-70.5 -27.5t-70.5 27.5t-26.5 71.5z" />
    <glyph glyph-name="Ohungarumlaut" unicode="&#x150;" horiz-adv-x="770" 
d="M56 350q-2 159 94 262.5t235 101.5q139 2 235 -101.5t94 -262.5q2 -159 -94 -262.5t-235 -101.5q-139 -2 -235 101.5t-94 262.5zM654 350q0 138 -76 225t-193 87t-193 -87t-76 -225q-2 -137 75.5 -225.5t193.5 -86.5q116 -2 193.5 86.5t75.5 225.5zM266 766l66 138h84
l-100 -138h-50zM414 766l66 138h84l-100 -138h-50z" />
    <glyph glyph-name="ohungarumlaut" unicode="&#x151;" horiz-adv-x="592" 
d="M42 248q0 118 73.5 190t180.5 72t180.5 -72t73.5 -190t-73.5 -190t-180.5 -72t-180.5 72t-73.5 190zM492 248q0 91 -56 151.5t-140 60.5t-140 -60.5t-56 -151.5t56 -151.5t140 -60.5t140 60.5t56 151.5zM177 562l66 138h84l-100 -138h-50zM325 562l66 138h84l-100 -138
h-50z" />
    <glyph glyph-name="OE" unicode="&#x152;" horiz-adv-x="1139" 
d="M56 350q-2 159 94 262.5t235 101.5q93 0 162.5 -40.5t106.5 -114.5v141h414v-52h-354v-260h326v-52h-326v-284h357v-52h-417v150q-90 -164 -269 -164q-139 -2 -235 101.5t-94 262.5zM654 350q0 138 -76 225t-193 87t-193 -87t-76 -225q-2 -137 75.5 -225.5t193.5 -86.5
q116 -2 193.5 86.5t75.5 225.5z" />
    <glyph glyph-name="oe" unicode="&#x153;" horiz-adv-x="1014" 
d="M42 248q0 118 73.5 190t180.5 72q72 0 131 -34t92 -96q32 60 89 95t126 35q108 0 172 -68.5t64 -179.5v-19h-424q3 -88 55 -147.5t133 -59.5q124 0 180 120l42 -25q-70 -145 -225 -145q-68 0 -124 34.5t-87 95.5q-32 -62 -91.5 -96t-132.5 -34q-107 0 -180.5 72
t-73.5 190zM492 248q0 91 -56 151.5t-140 60.5t-140 -60.5t-56 -151.5t56 -151.5t140 -60.5t140 60.5t56 151.5zM546 293h361q0 77 -50.5 122t-122.5 45t-124 -48q-54 -47 -64 -119z" />
    <glyph glyph-name="Racute" unicode="&#x154;" horiz-adv-x="617" 
d="M88 0v700h268q98 0 155.5 -54.5t57.5 -139.5q0 -76 -44.5 -126t-127.5 -64l176 -316h-64l-177 312h-184v-312h-60zM148 364h193q168 0 168 142t-168 142h-193v-284zM271 766l66 138h84l-100 -138h-50z" />
    <glyph glyph-name="racute" unicode="&#x155;" horiz-adv-x="334" 
d="M76 0v496h58v-94q18 47 57 77.5t86 30.5q23 0 41 -5l-10 -50q-18 5 -37 5q-54 0 -95.5 -57t-41.5 -132v-271h-58zM146 562l66 138h84l-100 -138h-50z" />
    <glyph glyph-name="uni0156" unicode="&#x156;" horiz-adv-x="617" 
d="M88 0v700h268q98 0 155.5 -54.5t57.5 -139.5q0 -76 -44.5 -126t-127.5 -64l176 -316h-64l-177 312h-184v-312h-60zM148 364h193q168 0 168 142t-168 142h-193v-284zM291 -256l-16 6l29 108h-30v82h80v-82z" />
    <glyph glyph-name="uni0157" unicode="&#x157;" horiz-adv-x="334" 
d="M76 0v496h58v-94q18 47 57 77.5t86 30.5q23 0 41 -5l-10 -50q-18 5 -37 5q-54 0 -95.5 -57t-41.5 -132v-271h-58zM82 -256l-16 6l29 108h-30v82h80v-82z" />
    <glyph glyph-name="Rcaron" unicode="&#x158;" horiz-adv-x="617" 
d="M88 0v700h268q98 0 155.5 -54.5t57.5 -139.5q0 -76 -44.5 -126t-127.5 -64l176 -316h-64l-177 312h-184v-312h-60zM148 364h193q168 0 168 142t-168 142h-193v-284zM273 766l-97 138h50l72 -78l72 78h50l-97 -138h-50z" />
    <glyph glyph-name="rcaron" unicode="&#x159;" horiz-adv-x="334" 
d="M76 0v496h58v-94q18 47 57 77.5t86 30.5q23 0 41 -5l-10 -50q-18 5 -37 5q-54 0 -95.5 -57t-41.5 -132v-271h-58zM168 562l-97 138h50l72 -78l72 78h50l-97 -138h-50z" />
    <glyph glyph-name="Sacute" unicode="&#x15a;" horiz-adv-x="640" 
d="M53 199l55 30q18 -92 73.5 -141.5t142.5 -49.5q86 0 139 44t53 105q0 62 -48.5 98.5t-146.5 54.5q-117 21 -175.5 68t-58.5 128q0 77 64 127.5t162 50.5q90 0 157.5 -45.5t91.5 -120.5l-48 -29q-25 69 -76.5 106t-123.5 37q-75 0 -122 -34.5t-47 -91.5q0 -58 51 -93.5
t155 -54.5q225 -44 225 -194q0 -90 -71 -149t-181 -59t-181 60t-90 153zM287 766l66 138h84l-100 -138h-50z" />
    <glyph glyph-name="sacute" unicode="&#x15b;" horiz-adv-x="478" 
d="M48 128l50 30q18 -58 58 -90t97 -32q56 0 89.5 28t33.5 73q0 42 -32 66t-102 36q-78 13 -122 49.5t-44 94.5q0 57 47 92q49 35 118 35q138 0 188 -119l-47 -27q-38 96 -140 96q-49 0 -80.5 -21.5t-31.5 -57.5q0 -38 34.5 -61t105.5 -36q164 -32 164 -144
q0 -62 -49.5 -108t-131.5 -46q-73 0 -126.5 38.5t-78.5 103.5zM195 562l66 138h84l-100 -138h-50z" />
    <glyph glyph-name="Scircumflex" unicode="&#x15c;" horiz-adv-x="640" 
d="M53 199l55 30q18 -92 73.5 -141.5t142.5 -49.5q86 0 139 44t53 105q0 62 -48.5 98.5t-146.5 54.5q-117 21 -175.5 68t-58.5 128q0 77 64 127.5t162 50.5q90 0 157.5 -45.5t91.5 -120.5l-48 -29q-25 69 -76.5 106t-123.5 37q-75 0 -122 -34.5t-47 -91.5q0 -58 51 -93.5
t155 -54.5q225 -44 225 -194q0 -90 -71 -149t-181 -59t-181 60t-90 153zM192 766l97 138h50l97 -138h-50l-72 78l-72 -78h-50z" />
    <glyph glyph-name="scircumflex" unicode="&#x15d;" horiz-adv-x="478" 
d="M48 128l50 30q18 -58 58 -90t97 -32q56 0 89.5 28t33.5 73q0 42 -32 66t-102 36q-78 13 -122 49.5t-44 94.5q0 57 47 92q49 35 118 35q138 0 188 -119l-47 -27q-38 96 -140 96q-49 0 -80.5 -21.5t-31.5 -57.5q0 -38 34.5 -61t105.5 -36q164 -32 164 -144
q0 -62 -49.5 -108t-131.5 -46q-73 0 -126.5 38.5t-78.5 103.5zM120 562l97 138h50l97 -138h-50l-72 78l-72 -78h-50z" />
    <glyph glyph-name="Scedilla" unicode="&#x15e;" horiz-adv-x="640" 
d="M324 -14h-16l-23 -45q21 15 50 15q31 0 52 -21t21 -56q0 -38 -25 -60.5t-64 -22.5q-32 0 -54 16t-28 44l40 10q9 -30 44 -30q18 0 29.5 11.5t11.5 29.5q0 19 -12 30.5t-31 11.5q-24 0 -49 -20l-28 27l25 65q-85 15 -140.5 70.5t-73.5 137.5l55 30q18 -92 73.5 -141.5
t142.5 -49.5q86 0 139 44t53 105q0 62 -48.5 98.5t-146.5 54.5q-117 21 -175.5 68t-58.5 128q0 77 64 127.5t162 50.5q90 0 157.5 -45.5t91.5 -120.5l-48 -29q-25 69 -76.5 106t-123.5 37q-75 0 -122 -34.5t-47 -91.5q0 -58 51 -93.5t155 -54.5q225 -44 225 -194
q0 -90 -71 -149t-181 -59z" />
    <glyph glyph-name="scedilla" unicode="&#x15f;" horiz-adv-x="478" 
d="M253 -14h-12l-23 -45q21 15 50 15q31 0 52 -21t21 -56q0 -38 -25 -60.5t-64 -22.5q-32 0 -54 16t-28 44l40 10q9 -30 44 -30q18 0 29.5 11.5t11.5 29.5q0 19 -12 30.5t-31 11.5q-24 0 -49 -20l-28 27l25 66q-107 24 -152 136l50 30q18 -58 58 -90t97 -32q56 0 89.5 28
t33.5 73q0 42 -32 66t-102 36q-78 13 -122 49.5t-44 94.5q0 57 47 92q49 35 118 35q138 0 188 -119l-47 -27q-38 96 -140 96q-49 0 -80.5 -21.5t-31.5 -57.5q0 -38 34.5 -61t105.5 -36q164 -32 164 -144q0 -62 -49.5 -108t-131.5 -46z" />
    <glyph glyph-name="Scaron" unicode="&#x160;" horiz-adv-x="640" 
d="M53 199l55 30q18 -92 73.5 -141.5t142.5 -49.5q86 0 139 44t53 105q0 62 -48.5 98.5t-146.5 54.5q-117 21 -175.5 68t-58.5 128q0 77 64 127.5t162 50.5q90 0 157.5 -45.5t91.5 -120.5l-48 -29q-25 69 -76.5 106t-123.5 37q-75 0 -122 -34.5t-47 -91.5q0 -58 51 -93.5
t155 -54.5q225 -44 225 -194q0 -90 -71 -149t-181 -59t-181 60t-90 153zM289 766l-97 138h50l72 -78l72 78h50l-97 -138h-50z" />
    <glyph glyph-name="scaron" unicode="&#x161;" horiz-adv-x="478" 
d="M48 128l50 30q18 -58 58 -90t97 -32q56 0 89.5 28t33.5 73q0 42 -32 66t-102 36q-78 13 -122 49.5t-44 94.5q0 57 47 92q49 35 118 35q138 0 188 -119l-47 -27q-38 96 -140 96q-49 0 -80.5 -21.5t-31.5 -57.5q0 -38 34.5 -61t105.5 -36q164 -32 164 -144
q0 -62 -49.5 -108t-131.5 -46q-73 0 -126.5 38.5t-78.5 103.5zM217 562l-97 138h50l72 -78l72 78h50l-97 -138h-50z" />
    <glyph glyph-name="uni0162" unicode="&#x162;" horiz-adv-x="530" 
d="M295 0h-9l-30 -59q21 15 50 15q31 0 52 -21t21 -56q0 -38 -25 -60.5t-64 -22.5q-32 0 -54 16t-28 44l40 10q9 -30 44 -30q18 0 29.5 11.5t11.5 29.5q0 19 -12 30.5t-31 11.5q-24 0 -49 -20l-28 27l28 74h-6v648h-217v52h494v-52h-217v-648z" />
    <glyph glyph-name="uni0163" unicode="&#x163;" horiz-adv-x="333" 
d="M297 452h-123v-336q0 -80 71 -80q17 0 37 6l5 -48q-26 -8 -54 -8q-22 0 -35 4l-25 -49q21 15 50 15q31 0 52 -21t21 -56q0 -38 -25 -60.5t-64 -22.5q-32 0 -54 16t-28 44l40 10q9 -30 44 -30q18 0 29.5 11.5t11.5 29.5q0 19 -12 30.5t-31 11.5q-24 0 -49 -20l-28 27
l31 83q-45 35 -45 110v333h-87v44h87v134h58v-134h123v-44z" />
    <glyph glyph-name="Tcaron" unicode="&#x164;" horiz-adv-x="530" 
d="M235 0v648h-217v52h494v-52h-217v-648h-60zM240 766l-97 138h50l72 -78l72 78h50l-97 -138h-50z" />
    <glyph glyph-name="tcaron" unicode="&#x165;" horiz-adv-x="333" 
d="M116 119v333h-87v44h87v134h58v-134h123v-44h-123v-336q0 -80 71 -80q17 0 37 6l5 -48q-26 -8 -54 -8q-53 0 -85 34.5t-32 98.5zM276 559l-16 8l33 90h-33v76h74v-76z" />
    <glyph glyph-name="Tbar" unicode="&#x166;" horiz-adv-x="530" 
d="M235 0v365h-152v52h152v231h-217v52h494v-52h-217v-231h152v-52h-152v-365h-60z" />
    <glyph glyph-name="tbar" unicode="&#x167;" horiz-adv-x="333" 
d="M116 119v122h-70v42h70v169h-87v44h87v134h58v-134h123v-44h-123v-169h110v-42h-110v-125q0 -80 71 -80q17 0 37 6l5 -48q-26 -8 -54 -8q-53 0 -85 34.5t-32 98.5z" />
    <glyph glyph-name="Utilde" unicode="&#x168;" horiz-adv-x="654" 
d="M76 235v465h60v-464q0 -90 53.5 -144t137.5 -54t137.5 54t53.5 144v464h60v-465q0 -117 -67 -183t-184 -66t-184 66t-67 183zM308 810q-29 28 -57 28q-15 0 -23.5 -9t-8.5 -22q0 -11 5 -23l-49 -10q-10 16 -10 40q0 35 24 54.5t59 19.5q33 0 53 -9.5t44 -30.5
q29 -28 57 -28q15 0 23.5 9t8.5 22q0 11 -5 23l49 10q10 -17 10 -40q0 -35 -24 -54.5t-59 -19.5q-33 0 -53 9.5t-44 30.5z" />
    <glyph glyph-name="utilde" unicode="&#x169;" horiz-adv-x="556" 
d="M76 164v332h58v-331q0 -61 35 -95t93 -34q66 0 113 55t47 137v268h58v-496h-58v91q-24 -47 -70.5 -76t-99.5 -29q-79 0 -127.5 45.5t-48.5 132.5zM259 606q-29 28 -57 28q-15 0 -23.5 -9t-8.5 -22q0 -11 5 -23l-49 -10q-10 16 -10 40q0 35 24 54.5t59 19.5q33 0 53 -9.5
t44 -30.5q29 -28 57 -28q15 0 23.5 9t8.5 22q0 11 -5 23l49 10q10 -17 10 -40q0 -35 -24 -54.5t-59 -19.5q-33 0 -53 9.5t-44 30.5z" />
    <glyph glyph-name="Umacron" unicode="&#x16a;" horiz-adv-x="654" 
d="M76 235v465h60v-464q0 -90 53.5 -144t137.5 -54t137.5 54t53.5 144v464h60v-465q0 -117 -67 -183t-184 -66t-184 66t-67 183zM224 812v54h206v-54h-206z" />
    <glyph glyph-name="umacron" unicode="&#x16b;" horiz-adv-x="556" 
d="M76 164v332h58v-331q0 -61 35 -95t93 -34q66 0 113 55t47 137v268h58v-496h-58v91q-24 -47 -70.5 -76t-99.5 -29q-79 0 -127.5 45.5t-48.5 132.5zM175 608v54h206v-54h-206z" />
    <glyph glyph-name="Ubreve" unicode="&#x16c;" horiz-adv-x="654" 
d="M76 235v465h60v-464q0 -90 53.5 -144t137.5 -54t137.5 54t53.5 144v464h60v-465q0 -117 -67 -183t-184 -66t-184 66t-67 183zM230 873h57q0 -20 10.5 -32.5t29.5 -12.5t29.5 12.5t10.5 32.5h57q0 -44 -26.5 -71.5t-70.5 -27.5t-70.5 27.5t-26.5 71.5z" />
    <glyph glyph-name="ubreve" unicode="&#x16d;" horiz-adv-x="556" 
d="M76 164v332h58v-331q0 -61 35 -95t93 -34q66 0 113 55t47 137v268h58v-496h-58v91q-24 -47 -70.5 -76t-99.5 -29q-79 0 -127.5 45.5t-48.5 132.5zM181 669h57q0 -20 10.5 -32.5t29.5 -12.5t29.5 12.5t10.5 32.5h57q0 -44 -26.5 -71.5t-70.5 -27.5t-70.5 27.5t-26.5 71.5z
" />
    <glyph glyph-name="Uring" unicode="&#x16e;" horiz-adv-x="654" 
d="M76 235v465h60v-464q0 -90 53.5 -144t137.5 -54t137.5 54t53.5 144v464h60v-465q0 -117 -67 -183t-184 -66t-184 66t-67 183zM231 839q0 40 28 67.5t68 27.5t68 -27.5t28 -67.5t-28 -67.5t-68 -27.5t-68 27.5t-28 67.5zM379 839q0 22 -15 37.5t-37 15.5t-37 -15.5
t-15 -37.5t15 -37.5t37 -15.5t37 15.5t15 37.5z" />
    <glyph glyph-name="uring" unicode="&#x16f;" horiz-adv-x="556" 
d="M76 164v332h58v-331q0 -61 35 -95t93 -34q66 0 113 55t47 137v268h58v-496h-58v91q-24 -47 -70.5 -76t-99.5 -29q-79 0 -127.5 45.5t-48.5 132.5zM182 635q0 40 28 67.5t68 27.5t68 -27.5t28 -67.5t-28 -67.5t-68 -27.5t-68 27.5t-28 67.5zM330 635q0 22 -15 37.5
t-37 15.5t-37 -15.5t-15 -37.5t15 -37.5t37 -15.5t37 15.5t15 37.5z" />
    <glyph glyph-name="Uhungarumlaut" unicode="&#x170;" horiz-adv-x="654" 
d="M76 235v465h60v-464q0 -90 53.5 -144t137.5 -54t137.5 54t53.5 144v464h60v-465q0 -117 -67 -183t-184 -66t-184 66t-67 183zM208 766l66 138h84l-100 -138h-50zM356 766l66 138h84l-100 -138h-50z" />
    <glyph glyph-name="uhungarumlaut" unicode="&#x171;" horiz-adv-x="556" 
d="M76 164v332h58v-331q0 -61 35 -95t93 -34q66 0 113 55t47 137v268h58v-496h-58v91q-24 -47 -70.5 -76t-99.5 -29q-79 0 -127.5 45.5t-48.5 132.5zM159 562l66 138h84l-100 -138h-50zM307 562l66 138h84l-100 -138h-50z" />
    <glyph glyph-name="Uogonek" unicode="&#x172;" horiz-adv-x="654" 
d="M518 700h60v-465q0 -89 -40.5 -150t-114.5 -85q-71 -38 -71 -88q0 -21 15 -34.5t38 -13.5q2 0 18 2l9 -58q-18 -6 -39 -6q-43 0 -71 25t-28 68q0 50 47 91h-14q-117 0 -184 66t-67 183v465h60v-464q0 -90 53.5 -144t137.5 -54t137.5 54t53.5 144v464z" />
    <glyph glyph-name="uogonek" unicode="&#x173;" horiz-adv-x="556" 
d="M480 -134l9 -58q-18 -6 -39 -6q-43 0 -71 25t-28 68q0 64 71 109v87q-24 -47 -70.5 -76t-99.5 -29q-79 0 -127.5 45.5t-48.5 132.5v332h58v-331q0 -61 35 -95t93 -34q66 0 113 55t47 137v268h58v-496q-71 -38 -71 -88q0 -21 15 -34.5t38 -13.5q2 0 18 2z" />
    <glyph glyph-name="Wcircumflex" unicode="&#x174;" horiz-adv-x="870" 
d="M204 0l-199 700h58l154 -561q17 -66 19 -77q4 24 18 78l147 560h68l147 -560q14 -54 18 -78q2 11 19 77l154 561h58l-199 -700h-64l-167 635l-167 -635h-64zM313 766l97 138h50l97 -138h-50l-72 78l-72 -78h-50z" />
    <glyph glyph-name="wcircumflex" unicode="&#x175;" horiz-adv-x="676" 
d="M151 0l-144 496h58l120 -436l120 436h66l120 -436l120 436h58l-144 -496h-67l-120 436l-120 -436h-67zM216 562l97 138h50l97 -138h-50l-72 78l-72 -78h-50z" />
    <glyph glyph-name="Ycircumflex" unicode="&#x176;" horiz-adv-x="524" 
d="M232 0v292l-228 408h64l172 -318q12 -23 22 -46q10 23 22 46l172 318h64l-228 -408v-292h-60zM140 766l97 138h50l97 -138h-50l-72 78l-72 -78h-50z" />
    <glyph glyph-name="ycircumflex" unicode="&#x177;" horiz-adv-x="477" 
d="M56 -201l10 53q21 -8 36 -8q43 0 64 53l42 103l-203 496h65l168 -421l170 421h63l-254 -616q-19 -47 -45.5 -68.5t-67.5 -21.5q-26 0 -48 9zM117 562l97 138h50l97 -138h-50l-72 78l-72 -78h-50z" />
    <glyph glyph-name="Ydieresis" unicode="&#x178;" horiz-adv-x="524" 
d="M232 0v292l-228 408h64l172 -318q12 -23 22 -46q10 23 22 46l172 318h64l-228 -408v-292h-60zM148 798v76h80v-76h-80zM296 798v76h80v-76h-80z" />
    <glyph glyph-name="Zacute" unicode="&#x179;" horiz-adv-x="582" 
d="M42 0v52l415 594h-402v54h465v-54l-410 -592h427v-54h-495zM264 766l66 138h84l-100 -138h-50z" />
    <glyph glyph-name="zacute" unicode="&#x17a;" horiz-adv-x="474" 
d="M43 0v50l311 396h-303v50h366v-50l-311 -396h325v-50h-388zM182 562l66 138h84l-100 -138h-50z" />
    <glyph glyph-name="Zdotaccent" unicode="&#x17b;" horiz-adv-x="582" 
d="M42 0v52l415 594h-402v54h465v-54l-410 -592h427v-54h-495zM254 794v80h74v-80h-74z" />
    <glyph glyph-name="zdotaccent" unicode="&#x17c;" horiz-adv-x="474" 
d="M43 0v50l311 396h-303v50h366v-50l-311 -396h325v-50h-388zM192 590v80h74v-80h-74z" />
    <glyph glyph-name="Zcaron" unicode="&#x17d;" horiz-adv-x="582" 
d="M42 0v52l415 594h-402v54h465v-54l-410 -592h427v-54h-495zM266 766l-97 138h50l72 -78l72 78h50l-97 -138h-50z" />
    <glyph glyph-name="zcaron" unicode="&#x17e;" horiz-adv-x="474" 
d="M43 0v50l311 396h-303v50h366v-50l-311 -396h325v-50h-388zM204 562l-97 138h50l72 -78l72 78h50l-97 -138h-50z" />
    <glyph glyph-name="florin" unicode="&#x192;" horiz-adv-x="304" 
d="M-6 -211l11 51q18 -8 33 -8q63 0 63 75v547h-79v42h79v103q0 71 36 111t106 40q25 0 47 -9l-9 -49q-19 8 -41 8q-37 0 -59 -24.5t-22 -71.5v-108h121v-42h-121v-540q0 -132 -117 -132q-33 0 -48 7z" />
    <glyph glyph-name="uni01B5" unicode="&#x1b5;" horiz-adv-x="582" 
d="M42 0v52l193 276h-167v52h203l186 266h-402v54h465v-54l-184 -266h169v-52h-205l-190 -274h427v-54h-495z" />
    <glyph glyph-name="uni01B6" unicode="&#x1b6;" horiz-adv-x="474" 
d="M43 0v50l145 185h-111v48h149l128 163h-303v50h366v-50l-128 -163h107v-48h-145l-145 -185h325v-50h-388z" />
    <glyph glyph-name="AEacute" unicode="&#x1fc;" horiz-adv-x="906" 
d="M6 0l310 700h519v-52h-353v-260h325v-52h-325v-284h356v-52h-416v217h-257l-96 -217h-63zM187 267h235v381h-66zM535 766l66 138h84l-100 -138h-50z" />
    <glyph glyph-name="aeacute" unicode="&#x1fd;" horiz-adv-x="921" 
d="M52 134q0 72 55 115.5t143 43.5h144v55q0 54 -33 82t-94 28q-62 0 -97 -25.5t-35 -65.5q0 -5 2 -15l-47 -16q-7 15 -7 38q0 57 53.5 96.5t130.5 39.5q69 0 115 -27t62 -76q33 49 84.5 76t112.5 27q108 0 172 -68.5t64 -179.5v-19h-423q3 -88 54.5 -147.5t132.5 -59.5
q125 0 180 120l42 -25q-70 -145 -225 -145q-70 0 -127 39.5t-88 104.5q-22 -64 -82 -105q-59 -39 -122 -39q-74 0 -120.5 42t-46.5 106zM454 293h360q0 77 -50.5 122t-122.5 45q-71 0 -124 -48q-52 -46 -63 -119zM394 240v3h-133q-75 0 -113 -29t-38 -80q0 -40 32 -67
t82 -27q77 0 123.5 60.5t46.5 139.5zM414 562l66 138h84l-100 -138h-50z" />
    <glyph glyph-name="uni0218" unicode="&#x218;" horiz-adv-x="640" 
d="M53 199l55 30q18 -92 73.5 -141.5t142.5 -49.5q86 0 139 44t53 105q0 62 -48.5 98.5t-146.5 54.5q-117 21 -175.5 68t-58.5 128q0 77 64 127.5t162 50.5q90 0 157.5 -45.5t91.5 -120.5l-48 -29q-25 69 -76.5 106t-123.5 37q-75 0 -122 -34.5t-47 -91.5q0 -58 51 -93.5
t155 -54.5q225 -44 225 -194q0 -90 -71 -149t-181 -59t-181 60t-90 153zM301 -256l-16 6l29 108h-30v82h80v-82z" />
    <glyph glyph-name="uni0219" unicode="&#x219;" horiz-adv-x="478" 
d="M48 128l50 30q18 -58 58 -90t97 -32q56 0 89.5 28t33.5 73q0 42 -32 66t-102 36q-78 13 -122 49.5t-44 94.5q0 57 47 92q49 35 118 35q138 0 188 -119l-47 -27q-38 96 -140 96q-49 0 -80.5 -21.5t-31.5 -57.5q0 -38 34.5 -61t105.5 -36q164 -32 164 -144
q0 -62 -49.5 -108t-131.5 -46q-73 0 -126.5 38.5t-78.5 103.5zM232 -256l-16 6l29 108h-30v82h80v-82z" />
    <glyph glyph-name="uni021A" unicode="&#x21a;" horiz-adv-x="530" 
d="M235 0v648h-217v52h494v-52h-217v-648h-60zM242 -256l-16 6l29 108h-30v82h80v-82z" />
    <glyph glyph-name="uni021B" unicode="&#x21b;" horiz-adv-x="333" 
d="M116 119v333h-87v44h87v134h58v-134h123v-44h-123v-336q0 -80 71 -80q17 0 37 6l5 -48q-26 -8 -54 -8q-53 0 -85 34.5t-32 98.5zM187 -256l-16 6l29 108h-30v82h80v-82z" />
    <glyph glyph-name="uni0237" unicode="&#x237;" horiz-adv-x="210" 
d="M-30 -203l8 52q21 -8 40 -8q28 0 43 18.5t15 50.5v586h58v-573q0 -62 -27 -98t-82 -36q-29 0 -55 8z" />
    <glyph glyph-name="uni02BC" unicode="&#x2bc;" horiz-adv-x="183" 
d="M51 503l-17 13l57 102h-33v82h80v-82z" />
    <glyph glyph-name="circumflex" unicode="&#x2c6;" horiz-adv-x="354" 
d="M55 562l97 138h50l97 -138h-50l-72 78l-72 -78h-50z" />
    <glyph glyph-name="caron" unicode="&#x2c7;" horiz-adv-x="354" 
d="M152 562l-97 138h50l72 -78l72 78h50l-97 -138h-50z" />
    <glyph glyph-name="uni02C9" unicode="&#x2c9;" horiz-adv-x="302" 
d="M48 608v54h206v-54h-206z" />
    <glyph glyph-name="breve" unicode="&#x2d8;" horiz-adv-x="274" 
d="M40 669h57q0 -20 10.5 -32.5t29.5 -12.5t29.5 12.5t10.5 32.5h57q0 -44 -26.5 -71.5t-70.5 -27.5t-70.5 27.5t-26.5 71.5z" />
    <glyph glyph-name="dotaccent" unicode="&#x2d9;" horiz-adv-x="210" 
d="M68 590v80h74v-80h-74z" />
    <glyph glyph-name="ring" unicode="&#x2da;" horiz-adv-x="292" 
d="M50 635q0 40 28 67.5t68 27.5t68 -27.5t28 -67.5t-28 -67.5t-68 -27.5t-68 27.5t-28 67.5zM198 635q0 22 -15 37.5t-37 15.5t-37 -15.5t-15 -37.5t15 -37.5t37 -15.5t37 15.5t15 37.5z" />
    <glyph glyph-name="ogonek" unicode="&#x2db;" horiz-adv-x="198" 
d="M34 -105q0 67 77 113l52 -8q-71 -38 -71 -88q0 -21 15 -34.5t38 -13.5q2 0 18 2l9 -58q-18 -6 -39 -6q-43 0 -71 25t-28 68z" />
    <glyph glyph-name="tilde" unicode="&#x2dc;" horiz-adv-x="463" 
d="M213 606q-29 28 -57 28q-15 0 -23.5 -9t-8.5 -22q0 -11 5 -23l-49 -10q-10 16 -10 40q0 35 24 54.5t59 19.5q33 0 53 -9.5t44 -30.5q29 -28 57 -28q15 0 23.5 9t8.5 22q0 11 -5 23l49 10q10 -17 10 -40q0 -35 -24 -54.5t-59 -19.5q-33 0 -53 9.5t-44 30.5z" />
    <glyph glyph-name="hungarumlaut" unicode="&#x2dd;" horiz-adv-x="426" 
d="M64 562l66 138h84l-100 -138h-50zM212 562l66 138h84l-100 -138h-50z" />
    <glyph glyph-name="gravecomb" unicode="&#x300;" 
d="M-50 562l-100 138h84l66 -138h-50z" />
    <glyph glyph-name="acutecomb" unicode="&#x301;" 
d="M-150 562l66 138h84l-100 -138h-50z" />
    <glyph glyph-name="uni0302" unicode="&#x302;" 
d="M-244 562l97 138h50l97 -138h-50l-72 78l-72 -78h-50z" />
    <glyph glyph-name="tildecomb" unicode="&#x303;" 
d="M-180 606q-29 28 -57 28q-15 0 -23.5 -9t-8.5 -22q0 -11 5 -23l-49 -10q-10 16 -10 40q0 35 24 54.5t59 19.5q33 0 53 -9.5t44 -30.5q29 -28 57 -28q15 0 23.5 9t8.5 22q0 11 -5 23l49 10q10 -17 10 -40q0 -35 -24 -54.5t-59 -19.5q-33 0 -53 9.5t-44 30.5z" />
    <glyph glyph-name="uni0304" unicode="&#x304;" 
d="M-206 608v54h206v-54h-206z" />
    <glyph glyph-name="uni0306" unicode="&#x306;" 
d="M-194 669h57q0 -20 10.5 -32.5t29.5 -12.5t29.5 12.5t10.5 32.5h57q0 -44 -26.5 -71.5t-70.5 -27.5t-70.5 27.5t-26.5 71.5z" />
    <glyph glyph-name="uni0307" unicode="&#x307;" 
d="M-74 590v80h74v-80h-74z" />
    <glyph glyph-name="uni0308" unicode="&#x308;" 
d="M-228 594v76h80v-76h-80zM-80 594v76h80v-76h-80z" />
    <glyph glyph-name="uni030A" unicode="&#x30a;" 
d="M-192 635q0 40 28 67.5t68 27.5t68 -27.5t28 -67.5t-28 -67.5t-68 -27.5t-68 27.5t-28 67.5zM-44 635q0 22 -15 37.5t-37 15.5t-37 -15.5t-15 -37.5t15 -37.5t37 -15.5t37 15.5t15 37.5z" />
    <glyph glyph-name="uni030B" unicode="&#x30b;" 
d="M-298 562l66 138h84l-100 -138h-50zM-150 562l66 138h84l-100 -138h-50z" />
    <glyph glyph-name="uni030C" unicode="&#x30c;" 
d="M-147 562l-97 138h50l72 -78l72 78h50l-97 -138h-50z" />
    <glyph glyph-name="uni0312" unicode="&#x312;" 
d="M-104 563v82l87 115l17 -13l-57 -102h33v-82h-80z" />
    <glyph glyph-name="uni0326" unicode="&#x326;" 
d="M-63 -256l-16 6l29 108h-30v82h80v-82z" />
    <glyph glyph-name="uni0327" unicode="&#x327;" 
d="M-171 -144l40 10q9 -30 44 -30q18 0 29.5 11.5t11.5 29.5q0 19 -12 30.5t-31 11.5q-24 0 -49 -20l-28 27l34 90h47l-38 -75q21 15 50 15q31 0 52 -21t21 -56q0 -38 -25 -60.5t-64 -22.5q-32 0 -54 16t-28 44z" />
    <glyph glyph-name="uni0328" unicode="&#x328;" 
d="M-138 -105q0 67 77 113l52 -8q-71 -38 -71 -88q0 -21 15 -34.5t38 -13.5q2 0 18 2l9 -58q-18 -6 -39 -6q-43 0 -71 25t-28 68z" />
    <glyph glyph-name="uni0335" unicode="&#x335;" 
d="M-285 330v48h285v-48h-285z" />
    <glyph glyph-name="uni0336" unicode="&#x336;" 
d="M-698 505v52h698v-52h-698z" />
    <glyph glyph-name="uni0337" unicode="&#x337;" 
d="M-206 181v60l206 128v-60z" />
    <glyph glyph-name="uni0338" unicode="&#x338;" 
d="M-311 -29l-47 26l311 528l47 -26z" />
    <glyph glyph-name="uni0374" unicode="&#x374;" horiz-adv-x="246" 
d="M60 474l54 226h72l-86 -226h-40z" />
    <glyph glyph-name="uni0375" unicode="&#x375;" horiz-adv-x="246" 
d="M60 -96l86 226h40l-54 -226h-72z" />
    <glyph glyph-name="uni037A" unicode="&#x37a;" horiz-adv-x="187" 
d="M43 -106v86h52v-78q0 -50 45 -50q12 0 22 3v-50q-15 -3 -30 -3q-89 0 -89 92z" />
    <glyph glyph-name="uni037E" unicode="&#x37e;" horiz-adv-x="176" 
d="M48 390v82h80v-82h-80zM65 -114l-16 6l29 108h-30v82h80v-82z" />
    <glyph glyph-name="tonos" unicode="&#x384;" horiz-adv-x="258" 
d="M66 562l42 138h84l-76 -138h-50z" />
    <glyph glyph-name="dieresistonos" unicode="&#x385;" horiz-adv-x="380" 
d="M129 562l42 138h84l-76 -138h-50zM20 594v76h80v-76h-80zM280 594v76h80v-76h-80z" />
    <glyph glyph-name="Alphatonos" unicode="&#x386;" horiz-adv-x="636" 
d="M6 0l279 700h66l279 -700h-63l-86 217h-326l-86 -217h-63zM174 267h288l-129 329q-11 24 -15 42l-15 -42zM61 562l42 138h84l-76 -138h-50z" />
    <glyph glyph-name="anoteleia" unicode="&#x387;" horiz-adv-x="176" 
d="M48 310v82h80v-82h-80z" />
    <glyph glyph-name="Epsilontonos" unicode="&#x388;" horiz-adv-x="572" 
d="M88 0v700h413v-52h-353v-260h325v-52h-325v-284h356v-52h-416zM-72 562l42 138h84l-76 -138h-50z" />
    <glyph glyph-name="Etatonos" unicode="&#x389;" horiz-adv-x="676" 
d="M88 0v700h60v-317h380v317h60v-700h-60v331h-380v-331h-60zM-72 562l42 138h84l-76 -138h-50z" />
    <glyph glyph-name="Iotatonos" unicode="&#x38a;" horiz-adv-x="236" 
d="M88 0v700h60v-700h-60zM-72 562l42 138h84l-76 -138h-50z" />
    <glyph glyph-name="Omicrontonos" unicode="&#x38c;" horiz-adv-x="770" 
d="M56 350q-2 159 94 262.5t235 101.5q139 2 235 -101.5t94 -262.5q2 -159 -94 -262.5t-235 -101.5q-139 -2 -235 101.5t-94 262.5zM654 350q0 138 -76 225t-193 87t-193 -87t-76 -225q-2 -137 75.5 -225.5t193.5 -86.5q116 -2 193.5 86.5t75.5 225.5zM-22 562l42 138h84
l-76 -138h-50z" />
    <glyph glyph-name="Upsilontonos" unicode="&#x38e;" horiz-adv-x="524" 
d="M232 0v292l-228 408h64l172 -318q12 -23 22 -46q10 23 22 46l172 318h64l-228 -408v-292h-60zM-144 562l42 138h84l-76 -138h-50z" />
    <glyph glyph-name="Omegatonos" unicode="&#x38f;" horiz-adv-x="780" 
d="M82 0v58h169q-84 50 -139 134q-56 85 -56 187q-2 143 95 240t239 95q142 2 239 -95t95 -240q0 -102 -56 -187q-55 -84 -139 -134h169v-58h-241v68q83 41 145.5 122t61.5 186q0 124 -76.5 205t-197.5 81t-197.5 -81t-76.5 -205q-1 -105 61.5 -186t145.5 -122v-68h-241z
M-12 562l42 138h84l-76 -138h-50z" />
    <glyph glyph-name="iotadieresistonos" unicode="&#x390;" horiz-adv-x="264" 
d="M76 113v383h58v-385q0 -39 15.5 -57t51.5 -18q15 0 30 5l5 -48q-20 -7 -43 -7q-117 0 -117 127zM44 562l42 138h84l-76 -138h-50zM-65 594v76h80v-76h-80zM195 594v76h80v-76h-80z" />
    <glyph glyph-name="Alpha" unicode="&#x391;" horiz-adv-x="636" 
d="M6 0l279 700h66l279 -700h-63l-86 217h-326l-86 -217h-63zM174 267h288l-129 329q-11 24 -15 42l-15 -42z" />
    <glyph glyph-name="Beta" unicode="&#x392;" horiz-adv-x="625" 
d="M88 0v700h239q97 0 157 -47.5t60 -116.5q0 -60 -35.5 -103t-89.5 -60q150 -42 150 -175q0 -87 -69.5 -142.5t-169.5 -55.5h-242zM148 398h177q73 0 116 31.5t43 93.5t-43 93.5t-116 31.5h-177v-250zM148 52h169q87 0 139.5 37.5t52.5 109.5t-52 109.5t-140 37.5h-169
v-294z" />
    <glyph glyph-name="Gamma" unicode="&#x393;" horiz-adv-x="537" 
d="M88 0v700h430v-52h-370v-648h-60z" />
    <glyph glyph-name="uni0394" unicode="&#x394;" horiz-adv-x="636" 
d="M6 0l279 700h66l279 -700h-624zM85 50h466l-233 590z" />
    <glyph glyph-name="Epsilon" unicode="&#x395;" horiz-adv-x="572" 
d="M88 0v700h413v-52h-353v-260h325v-52h-325v-284h356v-52h-416z" />
    <glyph glyph-name="Zeta" unicode="&#x396;" horiz-adv-x="582" 
d="M42 0v52l415 594h-402v54h465v-54l-410 -592h427v-54h-495z" />
    <glyph glyph-name="Eta" unicode="&#x397;" horiz-adv-x="676" 
d="M88 0v700h60v-317h380v317h60v-700h-60v331h-380v-331h-60z" />
    <glyph glyph-name="Theta" unicode="&#x398;" horiz-adv-x="674" 
d="M55 350q-2 157 79 261.5t203 102.5q122 2 203 -102.5t79 -261.5q2 -157 -79 -261.5t-203 -102.5q-122 -2 -203 102.5t-79 261.5zM113 375h448q-8 132 -67.5 210.5t-156.5 78.5t-156.5 -78.5t-67.5 -210.5zM561 325h-448q8 -132 67.5 -210.5t156.5 -78.5t156.5 78.5
t67.5 210.5z" />
    <glyph glyph-name="Iota" unicode="&#x399;" horiz-adv-x="236" 
d="M88 0v700h60v-700h-60z" />
    <glyph glyph-name="Kappa" unicode="&#x39a;" horiz-adv-x="593" 
d="M88 0v700h60v-343l70 75l256 268h74l-241 -256l264 -444h-70l-238 397l-115 -120v-277h-60z" />
    <glyph glyph-name="Lambda" unicode="&#x39b;" horiz-adv-x="600" 
d="M5 0l260 700h70l260 -700h-60l-209 567q-10 27 -26 80q-16 -53 -26 -80l-209 -567h-60z" />
    <glyph glyph-name="Mu" unicode="&#x39c;" horiz-adv-x="844" 
d="M88 0v700h68l266 -654l266 654h68v-700h-58v595l-36 -96l-206 -499h-68l-206 498l-36 97v-595h-58z" />
    <glyph glyph-name="Nu" unicode="&#x39d;" horiz-adv-x="688" 
d="M88 0v700h64l360 -562q22 -37 30 -55v617h58v-700h-64l-360 562q-22 37 -30 55v-617h-58z" />
    <glyph glyph-name="Xi" unicode="&#x39e;" horiz-adv-x="554" 
d="M71 648v52h412v-52h-412zM99 336v52h356v-52h-356zM68 0v52h418v-52h-418z" />
    <glyph glyph-name="Omicron" unicode="&#x39f;" horiz-adv-x="770" 
d="M56 350q-2 159 94 262.5t235 101.5q139 2 235 -101.5t94 -262.5q2 -159 -94 -262.5t-235 -101.5q-139 -2 -235 101.5t-94 262.5zM654 350q0 138 -76 225t-193 87t-193 -87t-76 -225q-2 -137 75.5 -225.5t193.5 -86.5q116 -2 193.5 86.5t75.5 225.5z" />
    <glyph glyph-name="Pi" unicode="&#x3a0;" horiz-adv-x="661" 
d="M88 0v700h485v-700h-60v648h-365v-648h-60z" />
    <glyph glyph-name="Rho" unicode="&#x3a1;" horiz-adv-x="660" 
d="M88 0v700h280q109 0 173.5 -58t64.5 -157t-64.5 -157t-173.5 -58h-220v-270h-60zM148 322h218q88 0 134 42t46 121t-46 121t-134 42h-218v-326z" />
    <glyph glyph-name="Sigma" unicode="&#x3a3;" horiz-adv-x="572" 
d="M48 0v52l236 298l-228 298v52h462v-52h-395l225 -298l-238 -298h420v-52h-482z" />
    <glyph glyph-name="Tau" unicode="&#x3a4;" horiz-adv-x="530" 
d="M235 0v648h-217v52h494v-52h-217v-648h-60z" />
    <glyph glyph-name="Upsilon" unicode="&#x3a5;" horiz-adv-x="524" 
d="M232 0v292l-228 408h64l172 -318q12 -23 22 -46q10 23 22 46l172 318h64l-228 -408v-292h-60z" />
    <glyph glyph-name="Phi" unicode="&#x3a6;" horiz-adv-x="780" 
d="M360 -12v96h-20q-125 0 -208 73.5t-83 192.5t83 192.5t208 73.5h20v96h60v-96h20q125 0 208 -73.5t83 -192.5t-83 -192.5t-208 -73.5h-20v-96h-60zM333 138h27v424h-27q-97 0 -160.5 -58t-63.5 -154t63.5 -154t160.5 -58zM420 138h27q97 0 160.5 58t63.5 154t-63.5 154
t-160.5 58h-27v-424z" />
    <glyph glyph-name="Chi" unicode="&#x3a7;" horiz-adv-x="549" 
d="M3 0l237 376l-203 324h69l168 -278l172 278h66l-203 -319l236 -381h-68l-203 332l-203 -332h-68z" />
    <glyph glyph-name="Psi" unicode="&#x3a8;" horiz-adv-x="706" 
d="M323 0v180q-121 0 -185 65t-64 181v274h60v-270q0 -92 48 -145t141 -53v468h60v-468q93 0 141 53t48 145v270h60v-274q0 -116 -64 -181t-185 -65v-180h-60z" />
    <glyph glyph-name="uni03A9" unicode="&#x3a9;" horiz-adv-x="780" 
d="M82 0v58h169q-84 50 -139 134q-56 85 -56 187q-2 143 95 240t239 95q142 2 239 -95t95 -240q0 -102 -56 -187q-55 -84 -139 -134h169v-58h-241v68q83 41 145.5 122t61.5 186q0 124 -76.5 205t-197.5 81t-197.5 -81t-76.5 -205q-1 -105 61.5 -186t145.5 -122v-68h-241z
" />
    <glyph glyph-name="Iotadieresis" unicode="&#x3aa;" horiz-adv-x="236" 
d="M88 0v700h60v-700h-60zM4 798v76h80v-76h-80zM152 798v76h80v-76h-80z" />
    <glyph glyph-name="Upsilondieresis" unicode="&#x3ab;" horiz-adv-x="524" 
d="M232 0v292l-228 408h64l172 -318q12 -23 22 -46q10 23 22 46l172 318h64l-228 -408v-292h-60zM149 798v76h80v-76h-80zM297 798v76h80v-76h-80z" />
    <glyph glyph-name="alphatonos" unicode="&#x3ac;" horiz-adv-x="631" 
d="M42 248q0 112 66 187t165 75q73 0 128 -42t73 -110l25 138h54l-59 -299q8 -161 81 -161q14 0 26 5l8 -47q-24 -8 -42 -8q-41 0 -70.5 30.5t-39.5 81.5q-60 -112 -186 -112q-98 0 -163.5 75t-65.5 187zM442 248q0 92 -48.5 152t-121.5 60t-121.5 -59t-48.5 -153
q0 -93 49.5 -152.5t122.5 -59.5q76 0 122 56.5t46 155.5zM280 562l42 138h84l-76 -138h-50z" />
    <glyph glyph-name="epsilontonos" unicode="&#x3ad;" horiz-adv-x="458" 
d="M50 138q0 50 32 84q31 34 69 43q-93 34 -93 113q0 55 45.5 93.5t121.5 38.5q78 0 124.5 -34.5t46.5 -91.5q0 -24 -11 -44l-46 18q4 9 4 22q0 34 -34 57t-84 23q-49 0 -79 -23t-30 -59q0 -43 31.5 -67t93.5 -24v-50q-61 0 -97 -24.5t-36 -70.5q0 -48 33 -77t91 -29
q52 0 87 25.5t35 67.5q0 17 -6 34l51 17q11 -24 11 -50q0 -60 -50 -102t-127 -42q-87 0 -135 45.5t-48 106.5zM203 562l42 138h84l-76 -138h-50z" />
    <glyph glyph-name="etatonos" unicode="&#x3ae;" horiz-adv-x="558" 
d="M424 -204v535q0 61 -36 95t-94 34q-63 0 -111.5 -52.5t-48.5 -126.5v-281h-58v496h58v-92q27 49 74 77.5t100 28.5q75 0 124 -43q50 -42 50 -130v-541h-58zM263 562l42 138h84l-76 -138h-50z" />
    <glyph glyph-name="iotatonos" unicode="&#x3af;" horiz-adv-x="264" 
d="M76 113v383h58v-385q0 -39 15.5 -57t51.5 -18q15 0 30 5l5 -48q-20 -7 -43 -7q-117 0 -117 127zM79 562l42 138h84l-76 -138h-50z" />
    <glyph glyph-name="upsilondieresistonos" unicode="&#x3b0;" horiz-adv-x="546" 
d="M76 177v319h58v-329q0 -59 37.5 -95t101.5 -36t101.5 36t37.5 95v329h58v-319q0 -92 -56 -142q-55 -49 -141 -49t-141 49q-56 50 -56 142zM212 562l42 138h84l-76 -138h-50zM103 594v76h80v-76h-80zM363 594v76h80v-76h-80z" />
    <glyph glyph-name="alpha" unicode="&#x3b1;" horiz-adv-x="631" 
d="M42 248q0 112 66 187t165 75q73 0 128 -42t73 -110l25 138h54l-59 -299q8 -161 81 -161q14 0 26 5l8 -47q-24 -8 -42 -8q-41 0 -70.5 30.5t-39.5 81.5q-60 -112 -186 -112q-98 0 -163.5 75t-65.5 187zM442 248q0 92 -48.5 152t-121.5 60t-121.5 -59t-48.5 -153
q0 -93 49.5 -152.5t122.5 -59.5q76 0 122 56.5t46 155.5z" />
    <glyph glyph-name="beta" unicode="&#x3b2;" horiz-adv-x="542" 
d="M76 -204v709q0 103 54.5 156t135.5 53q84 0 134 -47t50 -117q0 -111 -123 -163q74 -19 120.5 -69t46.5 -118q0 -96 -59.5 -155t-144.5 -59q-46 0 -94 23q-45 22 -62 57v-270h-58zM436 193q0 75 -58.5 120t-135.5 45h-21v48h20q63 0 108 40t45 96q0 55 -35.5 88.5
t-91.5 33.5q-54 0 -93.5 -39.5t-39.5 -106.5v-323q0 -72 43.5 -116.5t105.5 -44.5q66 0 109 43q44 44 44 116z" />
    <glyph glyph-name="gamma" unicode="&#x3b3;" horiz-adv-x="486" 
d="M211 -204v217l-195 483h65l162 -417l162 417h65l-195 -483v-217h-64z" />
    <glyph glyph-name="delta" unicode="&#x3b4;" horiz-adv-x="563" 
d="M49 224q0 93 64.5 162.5t159.5 69.5q23 0 47 -8l-221 192v60h318v-48h-258l244 -215q58 -51 84.5 -98t26.5 -115q0 -103 -68.5 -170.5t-163.5 -67.5q-99 0 -166 64t-67 174zM462 224q0 82 -52 136t-128 54t-128.5 -54t-52.5 -136q0 -83 51.5 -136.5t129.5 -53.5
q77 0 128.5 53.5t51.5 136.5z" />
    <glyph glyph-name="epsilon" unicode="&#x3b5;" horiz-adv-x="458" 
d="M50 138q0 50 32 84q31 34 69 43q-93 34 -93 113q0 55 45.5 93.5t121.5 38.5q78 0 124.5 -34.5t46.5 -91.5q0 -24 -11 -44l-46 18q4 9 4 22q0 34 -34 57t-84 23q-49 0 -79 -23t-30 -59q0 -43 31.5 -67t93.5 -24v-50q-61 0 -97 -24.5t-36 -70.5q0 -48 33 -77t91 -29
q52 0 87 25.5t35 67.5q0 17 -6 34l51 17q11 -24 11 -50q0 -60 -50 -102t-127 -42q-87 0 -135 45.5t-48 106.5z" />
    <glyph glyph-name="zeta" unicode="&#x3b6;" horiz-adv-x="455" 
d="M398 -97l-38 29q14 14 14 31q0 37 -55 37q-270 0 -270 239q0 217 253 413h-250v48h325v-48q-124 -76 -196 -186.5t-72 -214.5q0 -95 50 -146t148 -51q125 0 125 -81q0 -36 -34 -70z" />
    <glyph glyph-name="eta" unicode="&#x3b7;" horiz-adv-x="558" 
d="M424 -204v535q0 61 -36 95t-94 34q-63 0 -111.5 -52.5t-48.5 -126.5v-281h-58v496h58v-92q27 49 74 77.5t100 28.5q75 0 124 -43q50 -42 50 -130v-541h-58z" />
    <glyph glyph-name="theta" unicode="&#x3b8;" horiz-adv-x="610" 
d="M48 350q0 168 70.5 266t186.5 98t186.5 -98t70.5 -266t-70.5 -266t-186.5 -98t-186.5 98t-70.5 266zM106 375h398q-6 136 -60 212.5t-139 76.5t-139 -76.5t-60 -212.5zM504 325h-398q6 -136 60 -212.5t139 -76.5t139 76.5t60 212.5z" />
    <glyph glyph-name="iota" unicode="&#x3b9;" horiz-adv-x="264" 
d="M76 113v383h58v-385q0 -39 15.5 -57t51.5 -18q15 0 30 5l5 -48q-20 -7 -43 -7q-117 0 -117 127z" />
    <glyph glyph-name="kappa" unicode="&#x3ba;" horiz-adv-x="474" 
d="M76 0v496h58v-241l211 241h71l-173 -196l206 -300h-67l-179 254l-69 -79v-175h-58z" />
    <glyph glyph-name="lambda" unicode="&#x3bb;" horiz-adv-x="478" 
d="M6 0l202 498l-41 101q-23 54 -64 54q-15 0 -36 -8l-10 53q23 9 48 9q41 0 67.5 -21.5t45.5 -68.5l254 -617h-63l-171 423l-167 -423h-65z" />
    <glyph glyph-name="uni03BC" unicode="&#x3bc;" horiz-adv-x="556" 
d="M76 -204v700h58v-331q0 -61 35 -95t93 -34q66 0 113 55t47 137v268h58v-496h-58v91q-24 -47 -70.5 -76t-99.5 -29q-71 0 -120 38q2 -48 2 -61v-167h-58z" />
    <glyph glyph-name="nu" unicode="&#x3bd;" horiz-adv-x="474" 
d="M206 0l-198 496h63l166 -432l166 432h63l-198 -496h-62z" />
    <glyph glyph-name="xi" unicode="&#x3be;" horiz-adv-x="494" 
d="M402 -97l-45 32q12 15 12 33q0 32 -51 32q-126 0 -196.5 51.5t-70.5 153.5q0 65 41 112q43 48 99 67q-55 21 -85.5 62.5t-30.5 92.5q0 76 56 125.5t143 49.5q83 0 133.5 -39.5t50.5 -103.5q0 -25 -8 -51l-51 8q5 17 5 34q0 48 -34.5 74t-95.5 26q-65 0 -104 -34t-39 -89
q0 -56 45 -96.5t129 -40.5v-52q-89 0 -141.5 -37.5t-52.5 -108.5q0 -70 53.5 -110t154.5 -40q114 0 114 -76q0 -40 -31 -75z" />
    <glyph glyph-name="omicron" unicode="&#x3bf;" horiz-adv-x="592" 
d="M42 248q0 118 73.5 190t180.5 72t180.5 -72t73.5 -190t-73.5 -190t-180.5 -72t-180.5 72t-73.5 190zM492 248q0 91 -56 151.5t-140 60.5t-140 -60.5t-56 -151.5t56 -151.5t140 -60.5t140 60.5t56 151.5z" />
    <glyph glyph-name="pi" unicode="&#x3c0;" horiz-adv-x="628" 
d="M428 109v345h-234v-454h-58v454h-106v42h562v-42h-106v-344q0 -74 67 -74q14 0 32 5l5 -48q-22 -7 -51 -7q-53 0 -82 31.5t-29 91.5z" />
    <glyph glyph-name="rho" unicode="&#x3c1;" horiz-adv-x="594" 
d="M76 -204v451q0 117 68.5 190t167.5 73q109 0 174.5 -72t65.5 -190t-65.5 -190t-169.5 -72q-60 0 -109.5 27t-73.5 74v-291h-58zM492 248q0 93 -51 152.5t-131 59.5q-76 0 -126 -60.5t-50 -151.5t50 -151.5t126 -60.5q80 0 131 59.5t51 152.5z" />
    <glyph glyph-name="uni03C2" unicode="&#x3c2;" horiz-adv-x="540" 
d="M362 -135l-35 33q17 16 23 24.5t6 21.5q0 36 -65 42q-109 11 -179 82t-70 180q-2 109 73.5 186.5t177.5 75.5q153 0 209 -135l-42 -28q-48 111 -165 111q-83 0 -138 -58t-55 -152q0 -88 51.5 -142t141.5 -69q65 -11 92 -32.5t27 -58.5q0 -38 -52 -81z" />
    <glyph glyph-name="sigma" unicode="&#x3c3;" horiz-adv-x="616" 
d="M42 248q0 118 73.5 190t180.5 72h290v-50h-153q47 -25 82 -84t35 -128q0 -118 -73.5 -190t-180.5 -72t-180.5 72t-73.5 190zM492 248q0 91 -56 151.5t-140 60.5t-140 -60.5t-56 -151.5t56 -151.5t140 -60.5t140 60.5t56 151.5z" />
    <glyph glyph-name="tau" unicode="&#x3c4;" horiz-adv-x="408" 
d="M163 119v335h-141v42h350v-42h-151v-338q0 -80 70 -80q15 0 34 6l5 -48q-26 -8 -54 -8q-53 0 -83 34t-30 99z" />
    <glyph glyph-name="upsilon" unicode="&#x3c5;" horiz-adv-x="546" 
d="M76 177v319h58v-329q0 -59 37.5 -95t101.5 -36t101.5 36t37.5 95v329h58v-319q0 -92 -56 -142q-55 -49 -141 -49t-141 49q-56 50 -56 142z" />
    <glyph glyph-name="phi" unicode="&#x3c6;" horiz-adv-x="682" 
d="M312 -204v204h-20q-103 0 -176.5 68.5t-73.5 179.5q0 112 73 180t183 68h86q110 0 183 -68t73 -180q0 -111 -73.5 -179.5t-176.5 -68.5h-20v-204h-58zM294 54h18v388h-16q-83 0 -138.5 -51t-55.5 -143t54.5 -143t137.5 -51zM370 54h18q83 0 137.5 51t54.5 143t-55.5 143
t-138.5 51h-16v-388z" />
    <glyph glyph-name="chi" unicode="&#x3c7;" horiz-adv-x="510" 
d="M370 -132l-106 235l-154 -307h-63l190 370l-112 254q-12 27 -37 27q-20 0 -40 -17l-22 45q26 28 67 28q30 0 48 -13t32 -45l97 -212l128 263h62l-163 -327l125 -279q21 -47 56 -47q17 0 33 10l15 -48q-25 -16 -58 -16q-35 0 -57 18t-41 61z" />
    <glyph glyph-name="psi" unicode="&#x3c8;" horiz-adv-x="634" 
d="M290 -204v190q-91 0 -152.5 59.5t-61.5 151.5v299h54v-298q0 -71 44 -116.5t116 -45.5v460h54v-460q72 0 116 45.5t44 116.5v298h54v-299q0 -92 -61.5 -151.5t-152.5 -59.5v-190h-54z" />
    <glyph glyph-name="omega" unicode="&#x3c9;" horiz-adv-x="770" 
d="M68 228q0 158 78 282l50 -26q-33 -58 -52 -121q-18 -59 -18 -148q0 -83 30.5 -131t87.5 -48q52 0 83 42t31 110v148h54v-148q0 -68 31 -110t83 -42q57 0 87.5 48t30.5 131q0 89 -18 148q-19 63 -52 121l50 26q78 -124 78 -282q0 -112 -44 -177t-131 -65q-105 0 -142 121
q-37 -121 -142 -121q-87 0 -131 65t-44 177z" />
    <glyph glyph-name="iotadieresis" unicode="&#x3ca;" horiz-adv-x="264" 
d="M76 113v383h58v-385q0 -39 15.5 -57t51.5 -18q15 0 30 5l5 -48q-20 -7 -43 -7q-117 0 -117 127zM-9 594v76h80v-76h-80zM139 594v76h80v-76h-80z" />
    <glyph glyph-name="upsilondieresis" unicode="&#x3cb;" horiz-adv-x="546" 
d="M76 177v319h58v-329q0 -59 37.5 -95t101.5 -36t101.5 36t37.5 95v329h58v-319q0 -92 -56 -142q-55 -49 -141 -49t-141 49q-56 50 -56 142zM159 594v76h80v-76h-80zM307 594v76h80v-76h-80z" />
    <glyph glyph-name="omicrontonos" unicode="&#x3cc;" horiz-adv-x="592" 
d="M42 248q0 118 73.5 190t180.5 72t180.5 -72t73.5 -190t-73.5 -190t-180.5 -72t-180.5 72t-73.5 190zM492 248q0 91 -56 151.5t-140 60.5t-140 -60.5t-56 -151.5t56 -151.5t140 -60.5t140 60.5t56 151.5zM249 562l66 138h84l-100 -138h-50z" />
    <glyph glyph-name="upsilontonos" unicode="&#x3cd;" horiz-adv-x="546" 
d="M76 177v319h58v-329q0 -59 37.5 -95t101.5 -36t101.5 36t37.5 95v329h58v-319q0 -92 -56 -142q-55 -49 -141 -49t-141 49q-56 50 -56 142zM247 562l42 138h84l-76 -138h-50z" />
    <glyph glyph-name="omegatonos" unicode="&#x3ce;" horiz-adv-x="770" 
d="M68 228q0 158 78 282l50 -26q-33 -58 -52 -121q-18 -59 -18 -148q0 -83 30.5 -131t87.5 -48q52 0 83 42t31 110v148h54v-148q0 -68 31 -110t83 -42q57 0 87.5 48t30.5 131q0 89 -18 148q-19 63 -52 121l50 26q78 -124 78 -282q0 -112 -44 -177t-131 -65q-105 0 -142 121
q-37 -121 -142 -121q-87 0 -131 65t-44 177zM359 562l42 138h84l-76 -138h-50z" />
    <glyph glyph-name="uni0400" unicode="&#x400;" horiz-adv-x="572" 
d="M88 0v700h413v-52h-353v-260h325v-52h-325v-284h356v-52h-416zM293 766l-100 138h84l66 -138h-50z" />
    <glyph glyph-name="uni0401" unicode="&#x401;" horiz-adv-x="572" 
d="M88 0v700h413v-52h-353v-260h325v-52h-325v-284h356v-52h-416zM182 798v76h80v-76h-80zM330 798v76h80v-76h-80z" />
    <glyph glyph-name="uni0402" unicode="&#x402;" horiz-adv-x="730" 
d="M688 212q0 -99 -59.5 -159t-144.5 -60q-39 0 -63 7v52q24 -7 63 -7q63 0 103.5 43t40.5 121q0 77 -43.5 115.5t-116.5 38.5q-96 0 -182 -43v-320h-60v648h-208v52h496v-52h-228v-276q90 43 183 43q97 0 158 -54t61 -149z" />
    <glyph glyph-name="uni0403" unicode="&#x403;" horiz-adv-x="537" 
d="M88 0v700h430v-52h-370v-648h-60zM284 766l66 138h84l-100 -138h-50z" />
    <glyph glyph-name="uni0404" unicode="&#x404;" horiz-adv-x="735" 
d="M56 350q-3 148 100 257.5t236 106.5q195 0 284 -154l-43 -35q-46 74 -104 105.5t-138 31.5q-104 0 -183.5 -80t-89.5 -198h348v-54h-350q6 -126 82.5 -209t191.5 -83q81 0 139.5 33t103.5 105l44 -31q-51 -79 -119.5 -119t-170.5 -40q-139 -3 -236 104.5t-95 259.5z" />
    <glyph glyph-name="uni0405" unicode="&#x405;" horiz-adv-x="640" 
d="M53 199l55 30q18 -92 73.5 -141.5t142.5 -49.5q86 0 139 44t53 105q0 62 -48.5 98.5t-146.5 54.5q-117 21 -175.5 68t-58.5 128q0 77 64 127.5t162 50.5q90 0 157.5 -45.5t91.5 -120.5l-48 -29q-25 69 -76.5 106t-123.5 37q-75 0 -122 -34.5t-47 -91.5q0 -58 51 -93.5
t155 -54.5q225 -44 225 -194q0 -90 -71 -149t-181 -59t-181 60t-90 153z" />
    <glyph glyph-name="uni0406" unicode="&#x406;" horiz-adv-x="236" 
d="M88 0v700h60v-700h-60z" />
    <glyph glyph-name="uni0407" unicode="&#x407;" horiz-adv-x="236" 
d="M88 0v700h60v-700h-60zM4 798v76h80v-76h-80zM152 798v76h80v-76h-80z" />
    <glyph glyph-name="uni0408" unicode="&#x408;" horiz-adv-x="520" 
d="M50 190l60 -7q0 -67 40.5 -106t101.5 -39q66 0 104 40.5t38 115.5v506h60v-505q0 -95 -56 -152t-146 -57q-91 0 -146.5 55t-55.5 149z" />
    <glyph glyph-name="uni0409" unicode="&#x409;" horiz-adv-x="1059" 
d="M35 0v55q21 -8 39 -8q32 0 50 29q19 29 25 119q8 107 16 306l2 36l7 163h400v-270h192q109 0 174 -57t65 -159q0 -101 -64.5 -157.5t-174.5 -56.5h-252v648h-287l-5 -114q-8 -178 -17 -343q-7 -109 -37 -153.5t-93 -44.5q-22 0 -40 7zM574 52h180q191 0 191 163t-191 163
h-180v-326z" />
    <glyph glyph-name="uni040A" unicode="&#x40a;" horiz-adv-x="1049" 
d="M88 0v700h60v-296h370v296h60v-296h178q111 0 175 -52t64 -150t-64 -150t-175 -52h-238v352h-370v-352h-60zM578 52h166q191 0 191 150t-191 150h-166v-300z" />
    <glyph glyph-name="uni040B" unicode="&#x40b;" horiz-adv-x="768" 
d="M692 206v-206h-60v200q0 84 -49 123q-47 40 -115 40q-93 0 -182 -44v-319h-60v648h-208v52h496v-52h-228v-276q90 43 183 43q99 0 160 -55q63 -55 63 -154z" />
    <glyph glyph-name="uni040C" unicode="&#x40c;" horiz-adv-x="562" 
d="M210 354l330 -354h-80l-245 265l-22 24l-45 49v-338h-60v700h60v-332l70 76l231 256h79zM270 766l66 138h84l-100 -138h-50z" />
    <glyph glyph-name="uni040D" unicode="&#x40d;" horiz-adv-x="684" 
d="M88 0v700h58v-622q17 35 30 55l356 567h64v-700h-58v622q-17 -35 -30 -55l-356 -567h-64zM339 766l-100 138h84l66 -138h-50z" />
    <glyph glyph-name="uni040E" unicode="&#x40e;" horiz-adv-x="538" 
d="M463 700h63l-225 -559q-37 -92 -74.5 -123.5t-87.5 -31.5q-33 0 -58 13v55q31 -14 58 -14q35 0 56.5 21.5t52.5 96.5l9 22l-245 520h65l209 -447zM187 873h57q0 -20 10.5 -32.5t29.5 -12.5t29.5 12.5t10.5 32.5h57q0 -44 -26.5 -71.5t-70.5 -27.5t-70.5 27.5t-26.5 71.5z
" />
    <glyph glyph-name="uni040F" unicode="&#x40f;" horiz-adv-x="662" 
d="M302 -126v126h-214v700h60v-648h366v648h60v-700h-214v-126h-58z" />
    <glyph glyph-name="uni0410" unicode="&#x410;" horiz-adv-x="636" 
d="M6 0l279 700h66l279 -700h-63l-86 217h-326l-86 -217h-63zM174 267h288l-129 329q-11 24 -15 42l-15 -42z" />
    <glyph glyph-name="uni0411" unicode="&#x411;" horiz-adv-x="625" 
d="M88 0v700h423v-52h-363v-240h187q104 0 168 -55q65 -54 65 -150q0 -95 -65 -149t-168 -54h-247zM148 52h175q87 0 136 37.5t49 114.5t-49 114.5t-136 37.5h-175v-304z" />
    <glyph glyph-name="uni0412" unicode="&#x412;" horiz-adv-x="625" 
d="M88 0v700h239q97 0 157 -47.5t60 -116.5q0 -60 -35.5 -103t-89.5 -60q150 -42 150 -175q0 -87 -69.5 -142.5t-169.5 -55.5h-242zM148 398h177q73 0 116 31.5t43 93.5t-43 93.5t-116 31.5h-177v-250zM148 52h169q87 0 139.5 37.5t52.5 109.5t-52 109.5t-140 37.5h-169
v-294z" />
    <glyph glyph-name="uni0413" unicode="&#x413;" horiz-adv-x="537" 
d="M88 0v700h430v-52h-370v-648h-60z" />
    <glyph glyph-name="uni0414" unicode="&#x414;" horiz-adv-x="664" 
d="M18 -126v178h53q34 60 48 116q13 57 18 147l20 385h397v-648h80v-178h-57v126h-502v-126h-57zM133 52h361v596h-283l-18 -346q-4 -88 -18 -142q-12 -54 -42 -108z" />
    <glyph glyph-name="uni0415" unicode="&#x415;" horiz-adv-x="572" 
d="M88 0v700h413v-52h-353v-260h325v-52h-325v-284h356v-52h-416z" />
    <glyph glyph-name="uni0416" unicode="&#x416;" horiz-adv-x="908" 
d="M548 354l338 -354h-82l-253 265q-34 34 -67 73v-338h-60v338q-33 -39 -67 -73l-253 -265h-82l338 354l-326 346h79l241 -256l70 -76v332h60v-332l70 76l241 256h79z" />
    <glyph glyph-name="uni0417" unicode="&#x417;" horiz-adv-x="626" 
d="M570 200q0 -97 -69.5 -155.5t-184.5 -58.5q-114 0 -183.5 57t-69.5 137q0 35 14 74l49 -18q-8 -22 -8 -49q0 -66 55 -107.5t143 -41.5q90 0 142 42t52 116t-52.5 113t-144.5 39h-62v52h63q78 0 122 37t44 101q0 57 -45.5 90.5t-123.5 33.5q-77 0 -128 -43t-51 -111
q0 -25 6 -37l-48 -7q-8 22 -8 49q0 82 64.5 141.5t164.5 59.5q104 0 165.5 -48.5t61.5 -124.5q0 -121 -110 -162q142 -44 142 -179z" />
    <glyph glyph-name="uni0418" unicode="&#x418;" horiz-adv-x="684" 
d="M88 0v700h58v-622q17 35 30 55l356 567h64v-700h-58v622q-17 -35 -30 -55l-356 -567h-64z" />
    <glyph glyph-name="uni0419" unicode="&#x419;" horiz-adv-x="684" 
d="M88 0v700h58v-622q17 35 30 55l356 567h64v-700h-58v622q-17 -35 -30 -55l-356 -567h-64zM245 873h57q0 -20 10.5 -32.5t29.5 -12.5t29.5 12.5t10.5 32.5h57q0 -44 -26.5 -71.5t-70.5 -27.5t-70.5 27.5t-26.5 71.5z" />
    <glyph glyph-name="uni041A" unicode="&#x41a;" horiz-adv-x="562" 
d="M210 354l330 -354h-80l-245 265l-22 24l-45 49v-338h-60v700h60v-332l70 76l231 256h79z" />
    <glyph glyph-name="uni041B" unicode="&#x41b;" horiz-adv-x="686" 
d="M35 0v55q16 -8 39 -8q32 0 50 29q19 29 25 119q8 107 16 306l2 36l7 163h424v-700h-60v648h-311l-5 -114l-2 -49q-8 -189 -15 -294q-7 -110 -37 -154t-93 -44q-20 0 -40 7z" />
    <glyph glyph-name="uni041C" unicode="&#x41c;" horiz-adv-x="844" 
d="M88 0v700h68l266 -654l266 654h68v-700h-58v595l-36 -96l-206 -499h-68l-206 498l-36 97v-595h-58z" />
    <glyph glyph-name="uni041D" unicode="&#x41d;" horiz-adv-x="676" 
d="M88 0v700h60v-317h380v317h60v-700h-60v331h-380v-331h-60z" />
    <glyph glyph-name="uni041E" unicode="&#x41e;" horiz-adv-x="770" 
d="M56 350q-2 159 94 262.5t235 101.5q139 2 235 -101.5t94 -262.5q2 -159 -94 -262.5t-235 -101.5q-139 -2 -235 101.5t-94 262.5zM654 350q0 138 -76 225t-193 87t-193 -87t-76 -225q-2 -137 75.5 -225.5t193.5 -86.5q116 -2 193.5 86.5t75.5 225.5z" />
    <glyph glyph-name="uni041F" unicode="&#x41f;" horiz-adv-x="661" 
d="M88 0v700h485v-700h-60v648h-365v-648h-60z" />
    <glyph glyph-name="uni0420" unicode="&#x420;" horiz-adv-x="660" 
d="M88 0v700h280q109 0 173.5 -58t64.5 -157t-64.5 -157t-173.5 -58h-220v-270h-60zM148 322h218q88 0 134 42t46 121t-46 121t-134 42h-218v-326z" />
    <glyph glyph-name="uni0421" unicode="&#x421;" horiz-adv-x="736" 
d="M56 350q-3 148 100 257.5t236 106.5q96 0 171.5 -47t114.5 -131l-45 -32q-46 85 -104 121.5t-138 36.5q-110 2 -193.5 -91.5t-81.5 -220.5q-2 -133 76.5 -223.5t197.5 -88.5q84 0 142 38t101 119l44 -31q-51 -90 -119.5 -134t-170.5 -44q-139 -3 -236 104.5t-95 259.5z
" />
    <glyph glyph-name="uni0422" unicode="&#x422;" horiz-adv-x="530" 
d="M235 0v648h-217v52h494v-52h-217v-648h-60z" />
    <glyph glyph-name="uni0423" unicode="&#x423;" horiz-adv-x="538" 
d="M463 700h63l-225 -559q-37 -92 -74.5 -123.5t-87.5 -31.5q-33 0 -58 13v55q31 -14 58 -14q35 0 56.5 21.5t52.5 96.5l9 22l-245 520h65l209 -447z" />
    <glyph glyph-name="uni0424" unicode="&#x424;" horiz-adv-x="780" 
d="M360 -12v96h-20q-125 0 -208 73.5t-83 192.5t83 192.5t208 73.5h20v96h60v-96h20q125 0 208 -73.5t83 -192.5t-83 -192.5t-208 -73.5h-20v-96h-60zM333 138h27v424h-27q-97 0 -160.5 -58t-63.5 -154t63.5 -154t160.5 -58zM420 138h27q97 0 160.5 58t63.5 154t-63.5 154
t-160.5 58h-27v-424z" />
    <glyph glyph-name="uni0425" unicode="&#x425;" horiz-adv-x="549" 
d="M3 0l237 376l-203 324h69l168 -278l172 278h66l-203 -319l236 -381h-68l-203 332l-203 -332h-68z" />
    <glyph glyph-name="uni0426" unicode="&#x426;" horiz-adv-x="688" 
d="M596 -126v126h-508v700h60v-648h365v648h60v-648h80v-178h-57z" />
    <glyph glyph-name="uni0427" unicode="&#x427;" horiz-adv-x="644" 
d="M496 0v301q-78 -31 -174 -31q-113 0 -179.5 62t-66.5 169v199h60v-199q0 -81 50 -130t136 -49q96 0 174 32v346h60v-700h-60z" />
    <glyph glyph-name="uni0428" unicode="&#x428;" horiz-adv-x="904" 
d="M88 0v700h60v-648h274v648h60v-648h274v648h60v-700h-728z" />
    <glyph glyph-name="uni0429" unicode="&#x429;" horiz-adv-x="932" 
d="M839 -126v126h-751v700h58v-648h275v648h60v-648h275v648h60v-648h80v-178h-57z" />
    <glyph glyph-name="uni042A" unicode="&#x42a;" horiz-adv-x="737" 
d="M182 0v648h-163v52h223v-270h202q109 0 174 -57t65 -159q0 -101 -64.5 -157.5t-174.5 -56.5h-262zM242 52h190q191 0 191 163t-191 163h-190v-326z" />
    <glyph glyph-name="uni042B" unicode="&#x42b;" horiz-adv-x="851" 
d="M88 0v700h60v-270h202q109 0 174 -57t65 -159q0 -101 -64.5 -157.5t-174.5 -56.5h-262zM148 52h190q191 0 191 163t-191 163h-190v-326zM703 0v700h60v-700h-60z" />
    <glyph glyph-name="uni042C" unicode="&#x42c;" horiz-adv-x="643" 
d="M88 0v700h60v-270h202q109 0 174 -57t65 -159q0 -101 -64.5 -157.5t-174.5 -56.5h-262zM148 52h190q191 0 191 163t-191 163h-190v-326z" />
    <glyph glyph-name="uni042D" unicode="&#x42d;" horiz-adv-x="735" 
d="M58 145l44 31q45 -72 103.5 -105t139.5 -33q115 0 191.5 83t82.5 209h-350v54h348q-10 118 -89.5 198t-183.5 80q-80 0 -138 -31.5t-104 -105.5l-43 35q89 154 284 154q133 3 235.5 -106.5t100.5 -257.5q2 -152 -95 -259.5t-236 -104.5q-102 0 -170.5 40t-119.5 119z" />
    <glyph glyph-name="uni042E" unicode="&#x42e;" horiz-adv-x="940" 
d="M268 324h-120v-324h-60v700h60v-324h120q7 154 91.5 246t215.5 92q134 0 221.5 -101t87.5 -263t-87.5 -263t-221.5 -101q-131 0 -215.5 92t-91.5 246zM824 350q0 142 -69 227t-180 85t-180 -85t-69 -227t69 -227t180 -85t180 85t69 227z" />
    <glyph glyph-name="uni042F" unicode="&#x42f;" horiz-adv-x="624" 
d="M273 700h263v-700h-60v312h-184l-183 -312h-65l185 315q-81 15 -125 65t-44 126q0 83 58 138.5t155 55.5zM476 364v284h-188q-168 0 -168 -142t168 -142h188z" />
    <glyph glyph-name="uni0430" unicode="&#x430;" horiz-adv-x="529" 
d="M52 137q0 65 45 105.5t120 52.5l177 29v24q0 53 -34 81.5t-95 28.5t-97 -26.5t-36 -66.5q0 -5 2 -15l-47 -16q-7 17 -7 38q0 57 53.5 97.5t131.5 40.5q89 0 138 -41.5t49 -114.5v-230q0 -43 6 -68.5t24 -55.5h-58q-32 40 -32 107q-17 -51 -68 -86q-50 -35 -107 -35
q-74 0 -119.5 42t-45.5 109zM394 249v25l-167 -28q-55 -9 -86 -37.5t-31 -70.5q0 -43 31 -70.5t81 -27.5q77 0 124.5 63.5t47.5 145.5z" />
    <glyph glyph-name="uni0431" unicode="&#x431;" horiz-adv-x="570" 
d="M42 302q0 148 52 240q71 128 244 137q91 5 116 35l35 -32q-20 -27 -54 -38.5t-106 -16.5q-114 -8 -172.5 -78.5t-67.5 -207.5q27 66 81.5 102.5t129.5 36.5q101 0 164.5 -70t63.5 -177t-67 -177t-171 -70q-119 0 -183 85q-65 86 -65 231zM470 233q0 85 -51.5 141
t-128.5 56t-128.5 -56t-51.5 -141t51.5 -141t128.5 -56t128.5 56t51.5 141z" />
    <glyph glyph-name="uni0432" unicode="&#x432;" horiz-adv-x="512" 
d="M76 0v496h212q67 0 108 -35.5t41 -88.5q0 -38 -20.5 -67t-54.5 -44q42 -13 68 -45t26 -77q0 -61 -46.5 -100t-123.5 -39h-210zM134 282h156q41 0 66 22t25 60t-24.5 60t-62.5 22h-160v-164zM134 50h166q43 0 70.5 25t27.5 67t-27.5 67t-70.5 25h-166v-184z" />
    <glyph glyph-name="uni0433" unicode="&#x433;" horiz-adv-x="404" 
d="M76 0v496h290v-50h-232v-446h-58z" />
    <glyph glyph-name="uni0434" unicode="&#x434;" horiz-adv-x="545" 
d="M15 -116v166h43q36 67 43 209l13 237h341v-446h70v-166h-54v116h-402v-116h-54zM114 50h283v396h-233l-10 -188q-4 -80 -12 -123q-7 -39 -28 -85z" />
    <glyph glyph-name="uni0435" unicode="&#x435;" horiz-adv-x="567" 
d="M42 248q0 112 71 187t174 75q108 0 172 -68.5t64 -179.5v-19h-423q3 -88 54.5 -147.5t132.5 -59.5q125 0 180 120l42 -25q-69 -145 -225 -145q-101 -2 -172.5 74.5t-69.5 187.5zM100 293h360q0 77 -50.5 122t-122.5 45q-71 0 -124 -48q-52 -46 -63 -119z" />
    <glyph glyph-name="uni0436" unicode="&#x436;" horiz-adv-x="676" 
d="M651 0h-71l-213 242v-242h-58v242l-213 -242h-71l229 262l-219 234h76l198 -218v218h58v-218l198 218h76l-219 -234z" />
    <glyph glyph-name="uni0437" unicode="&#x437;" horiz-adv-x="490" 
d="M435 143q0 -64 -51.5 -110.5t-140.5 -46.5q-87 0 -139 40t-52 105q0 26 10 47l50 -17q-4 -12 -4 -30q0 -45 37.5 -70t97.5 -25q62 0 98 29.5t36 76.5q0 45 -33 69t-96 24h-43v50h43q53 0 81.5 25t28.5 66q0 39 -30.5 61.5t-86.5 22.5q-55 0 -86.5 -22t-31.5 -56
q0 -15 3 -27l-49 -17q-7 20 -7 44q0 57 46.5 92.5t124.5 35.5q82 0 128.5 -37.5t46.5 -96.5q0 -79 -82 -115q101 -27 101 -118z" />
    <glyph glyph-name="uni0438" unicode="&#x438;" horiz-adv-x="556" 
d="M76 0v496h58v-421l278 421h68v-496h-58v421l-278 -421h-68z" />
    <glyph glyph-name="uni0439" unicode="&#x439;" horiz-adv-x="556" 
d="M76 0v496h58v-421l278 421h68v-496h-58v421l-278 -421h-68zM181 669h57q0 -20 10.5 -32.5t29.5 -12.5t29.5 12.5t10.5 32.5h57q0 -44 -26.5 -71.5t-70.5 -27.5t-70.5 27.5t-26.5 71.5z" />
    <glyph glyph-name="uni043A" unicode="&#x43a;" horiz-adv-x="468" 
d="M443 0h-77l-232 242v-242h-58v496h58v-218l217 218h76l-235 -235z" />
    <glyph glyph-name="uni043B" unicode="&#x43b;" horiz-adv-x="531" 
d="M20 0v52q15 -7 34 -7q29 0 41 24.5t16 104.5l18 322h326v-496h-58v446h-218l-15 -276q-6 -104 -29 -140.5t-81 -36.5q-23 0 -34 7z" />
    <glyph glyph-name="uni043C" unicode="&#x43c;" horiz-adv-x="662" 
d="M76 0v496h91l164 -436l164 436h91v-496h-58v426l-165 -426h-64l-165 428v-428h-58z" />
    <glyph glyph-name="uni043D" unicode="&#x43d;" horiz-adv-x="548" 
d="M76 0v496h58v-209h280v209h58v-496h-58v237h-280v-237h-58z" />
    <glyph glyph-name="uni043E" unicode="&#x43e;" horiz-adv-x="592" 
d="M42 248q0 118 73.5 190t180.5 72t180.5 -72t73.5 -190t-73.5 -190t-180.5 -72t-180.5 72t-73.5 190zM492 248q0 91 -56 151.5t-140 60.5t-140 -60.5t-56 -151.5t56 -151.5t140 -60.5t140 60.5t56 151.5z" />
    <glyph glyph-name="uni043F" unicode="&#x43f;" horiz-adv-x="542" 
d="M76 0v496h390v-496h-58v446h-274v-446h-58z" />
    <glyph glyph-name="uni0440" unicode="&#x440;" horiz-adv-x="594" 
d="M76 -204v700h58v-100q24 50 73.5 82t110.5 32q99 0 166.5 -75.5t67.5 -186.5q0 -112 -66.5 -187t-168.5 -75q-61 0 -109.5 27t-73.5 76v-293h-58zM492 248q0 93 -51 152.5t-131 59.5t-131 -60t-51 -152t51 -152t131 -60t131 59.5t51 152.5z" />
    <glyph glyph-name="uni0441" unicode="&#x441;" horiz-adv-x="542" 
d="M42 248q-2 109 73.5 186.5t177.5 75.5q150 0 211 -126l-43 -27q-56 101 -166 101q-83 0 -138 -58t-55 -152t54.5 -152t138.5 -58q57 0 96.5 24t70.5 73l40 -27q-70 -122 -209 -122q-108 0 -179.5 74.5t-71.5 187.5z" />
    <glyph glyph-name="uni0442" unicode="&#x442;" horiz-adv-x="462" 
d="M202 0v446h-170v50h398v-50h-170v-446h-58z" />
    <glyph glyph-name="uni0443" unicode="&#x443;" horiz-adv-x="477" 
d="M35 -193v56q44 -19 67 -19q43 0 64 53l42 103l-203 496h65l168 -421l170 421h63l-254 -616q-19 -47 -45.5 -68.5t-67.5 -21.5q-40 0 -69 17z" />
    <glyph glyph-name="uni0444" unicode="&#x444;" horiz-adv-x="664" 
d="M361 -13v-191h-58v191q-115 9 -188 81.5t-73 179.5t73 179.5t188 81.5v191h58v-191q115 -9 188 -81.5t73 -179.5t-73 -179.5t-188 -81.5zM303 37v422q-93 -8 -148 -64.5t-55 -146.5t55 -146.5t148 -64.5zM564 248q0 90 -55 146.5t-148 64.5v-422q93 8 148 64.5t55 146.5z
" />
    <glyph glyph-name="uni0445" unicode="&#x445;" horiz-adv-x="422" 
d="M0 0l181 265l-149 231h65l117 -186l118 186h63l-148 -227l175 -269h-62l-146 223l-145 -223h-69z" />
    <glyph glyph-name="uni0446" unicode="&#x446;" horiz-adv-x="556" 
d="M482 -116v116h-406v496h58v-446h274v446h58v-446h70v-166h-54z" />
    <glyph glyph-name="uni0447" unicode="&#x447;" horiz-adv-x="532" 
d="M398 0v213q-88 -36 -152 -36q-82 0 -129 49.5t-47 147.5v122h58v-131q0 -138 126 -138q72 0 144 38v231h58v-496h-58z" />
    <glyph glyph-name="uni0448" unicode="&#x448;" horiz-adv-x="758" 
d="M76 0v496h58v-446h216v446h58v-446h216v446h58v-496h-606z" />
    <glyph glyph-name="uni0449" unicode="&#x449;" horiz-adv-x="772" 
d="M698 -116v116h-622v496h58v-446h216v446h58v-446h216v446h58v-446h70v-166h-54z" />
    <glyph glyph-name="uni044A" unicode="&#x44a;" horiz-adv-x="569" 
d="M159 0v446h-141v50h199v-186h142q80 0 125 -41.5t45 -112.5q0 -72 -45 -114t-125 -42h-200zM217 50h150q46 0 75 29t29 77t-29 77t-75 29h-150v-212z" />
    <glyph glyph-name="uni044B" unicode="&#x44b;" horiz-adv-x="662" 
d="M76 0v496h58v-186h142q80 0 125 -41.5t45 -112.5q0 -72 -45 -114t-125 -42h-200zM134 50h150q46 0 75 29t29 77t-29 77t-75 29h-150v-212zM528 0v496h58v-496h-58z" />
    <glyph glyph-name="uni044C" unicode="&#x44c;" horiz-adv-x="486" 
d="M76 0v496h58v-186h142q80 0 125 -41.5t45 -112.5q0 -72 -45 -114t-125 -42h-200zM134 50h150q46 0 75 29t29 77t-29 77t-75 29h-150v-212z" />
    <glyph glyph-name="uni044D" unicode="&#x44d;" horiz-adv-x="531" 
d="M38 118l44 30q32 -56 72 -83t102 -27q75 0 120 48.5t53 136.5h-238v52h238q-8 86 -55.5 134.5t-122.5 48.5q-111 0 -160 -96l-45 28q29 57 83 88.5t123 31.5q105 0 171 -74t66 -188q0 -113 -65.5 -187.5t-166.5 -74.5q-77 0 -134 35.5t-85 96.5z" />
    <glyph glyph-name="uni044E" unicode="&#x44e;" horiz-adv-x="740" 
d="M222 223h-88v-223h-58v496h58v-223h88q7 108 75 172.5t163 64.5q101 0 169.5 -72t68.5 -190t-68.5 -190t-169.5 -72q-95 0 -163 64.5t-75 172.5zM640 248q0 92 -50.5 152t-129.5 60t-129.5 -60t-50.5 -152t50.5 -152t129.5 -60t129.5 60t50.5 152z" />
    <glyph glyph-name="uni044F" unicode="&#x44f;" horiz-adv-x="488" 
d="M214 496h198v-496h-58v198h-114l-126 -198h-64l131 206q-123 24 -123 141q0 66 42.5 107.5t113.5 41.5zM354 248v198h-148q-41 0 -67.5 -26.5t-26.5 -72.5t28 -72.5t73 -26.5h141z" />
    <glyph glyph-name="uni0450" unicode="&#x450;" horiz-adv-x="567" 
d="M42 248q0 112 71 187t174 75q108 0 172 -68.5t64 -179.5v-19h-423q3 -88 54.5 -147.5t132.5 -59.5q125 0 180 120l42 -25q-69 -145 -225 -145q-101 -2 -172.5 74.5t-69.5 187.5zM100 293h360q0 77 -50.5 122t-122.5 45q-71 0 -124 -48q-52 -46 -63 -119zM268 562
l-100 138h84l66 -138h-50z" />
    <glyph glyph-name="uni0451" unicode="&#x451;" horiz-adv-x="567" 
d="M42 248q0 112 71 187t174 75q108 0 172 -68.5t64 -179.5v-19h-423q3 -88 54.5 -147.5t132.5 -59.5q125 0 180 120l42 -25q-69 -145 -225 -145q-101 -2 -172.5 74.5t-69.5 187.5zM100 293h360q0 77 -50.5 122t-122.5 45q-71 0 -124 -48q-52 -46 -63 -119zM170 594v76h80
v-76h-80zM318 594v76h80v-76h-80z" />
    <glyph glyph-name="uni0452" unicode="&#x452;" horiz-adv-x="563" 
d="M327 -203v53q24 -9 45 -9q27 0 42 18t15 51v421q0 61 -35.5 95t-95.5 34q-64 0 -115 -54t-51 -131v-275h-58v580h-64v48h64v72h58v-72h163v-48h-163v-181q27 51 76 81t106 30q81 0 127 -45.5t46 -127.5v-414q0 -134 -108 -134q-33 0 -52 8z" />
    <glyph glyph-name="uni0453" unicode="&#x453;" horiz-adv-x="404" 
d="M76 0v496h290v-50h-232v-446h-58zM194 562l66 138h84l-100 -138h-50z" />
    <glyph glyph-name="uni0454" unicode="&#x454;" horiz-adv-x="528" 
d="M42 248q0 113 68.5 187.5t172.5 74.5q74 0 127.5 -32t79.5 -90l-44 -28q-45 98 -162 98q-75 0 -124.5 -49.5t-57.5 -133.5h240v-52h-240q7 -87 53.5 -136t121.5 -49q61 0 98.5 23.5t67.5 76.5l44 -27q-60 -125 -210 -125q-102 0 -168.5 74.5t-66.5 187.5z" />
    <glyph glyph-name="uni0455" unicode="&#x455;" horiz-adv-x="478" 
d="M48 128l50 30q18 -58 58 -90t97 -32q56 0 89.5 28t33.5 73q0 42 -32 66t-102 36q-78 13 -122 49.5t-44 94.5q0 57 47 92q49 35 118 35q138 0 188 -119l-47 -27q-38 96 -140 96q-49 0 -80.5 -21.5t-31.5 -57.5q0 -38 34.5 -61t105.5 -36q164 -32 164 -144
q0 -62 -49.5 -108t-131.5 -46q-73 0 -126.5 38.5t-78.5 103.5z" />
    <glyph glyph-name="uni0456" unicode="&#x456;" horiz-adv-x="210" 
d="M76 0v496h58v-496h-58zM68 590v80h74v-80h-74z" />
    <glyph glyph-name="uni0457" unicode="&#x457;" horiz-adv-x="210" 
d="M76 0v496h58v-496h-58zM2 590v80h77v-80h-77zM131 590v80h77v-80h-77z" />
    <glyph glyph-name="uni0458" unicode="&#x458;" horiz-adv-x="210" 
d="M-30 -203l8 52q21 -8 40 -8q28 0 43 18.5t15 50.5v586h58v-573q0 -62 -27 -98t-82 -36q-29 0 -55 8zM68 590v80h74v-80h-74z" />
    <glyph glyph-name="uni0459" unicode="&#x459;" horiz-adv-x="782" 
d="M20 0v52q17 -7 34 -7q29 0 41 24.5t16 104.5l18 322h301v-186h142q80 0 125 -41.5t45 -112.5q0 -72 -45 -114t-125 -42h-200v446h-193l-15 -276q-6 -104 -29 -140.5t-81 -36.5q-21 0 -34 7zM430 50h150q46 0 75 29t29 77t-29 77t-75 29h-150v-212z" />
    <glyph glyph-name="uni045A" unicode="&#x45a;" horiz-adv-x="785" 
d="M76 0v496h58v-201h259v201h58v-201h130q77 0 120.5 -39.5t43.5 -107.5t-43.5 -108t-120.5 -40h-188v245h-259v-245h-58zM451 50h138q43 0 70.5 27t27.5 71t-27.5 70.5t-70.5 26.5h-138v-195z" />
    <glyph glyph-name="uni045B" unicode="&#x45b;" horiz-adv-x="565" 
d="M489 337v-337h-58v331q0 61 -35.5 95t-95.5 34q-64 0 -115 -54t-51 -131v-275h-58v580h-66v48h66v72h58v-72h161v-48h-161v-181q27 51 76 81t106 30q81 0 127 -45.5t46 -127.5z" />
    <glyph glyph-name="uni045C" unicode="&#x45c;" horiz-adv-x="468" 
d="M443 0h-77l-232 242v-242h-58v496h58v-218l217 218h76l-235 -235zM194 562l66 138h84l-100 -138h-50z" />
    <glyph glyph-name="uni045D" unicode="&#x45d;" horiz-adv-x="556" 
d="M76 0v496h58v-421l278 421h68v-496h-58v421l-278 -421h-68zM262 562l-100 138h84l66 -138h-50z" />
    <glyph glyph-name="uni045E" unicode="&#x45e;" horiz-adv-x="477" 
d="M35 -193v56q44 -19 67 -19q43 0 64 53l42 103l-203 496h65l168 -421l170 421h63l-254 -616q-19 -47 -45.5 -68.5t-67.5 -21.5q-40 0 -69 17zM142 669h57q0 -20 10.5 -32.5t29.5 -12.5t29.5 12.5t10.5 32.5h57q0 -44 -26.5 -71.5t-70.5 -27.5t-70.5 27.5t-26.5 71.5z" />
    <glyph glyph-name="uni045F" unicode="&#x45f;" horiz-adv-x="542" 
d="M244 -116v116h-168v496h58v-446h274v446h58v-496h-168v-116h-54z" />
    <glyph glyph-name="uni0462" unicode="&#x462;" horiz-adv-x="724" 
d="M670 204q0 -97 -64.5 -150.5t-174.5 -53.5h-262v536h-145v52h145v112h60v-112h232v-52h-232v-126h202q109 0 174 -54.5t65 -151.5zM610 205q0 153 -191 153h-190v-306h190q191 0 191 153z" />
    <glyph glyph-name="uni0463" unicode="&#x463;" horiz-adv-x="534" 
d="M494 156q0 -72 -45 -114t-125 -42h-200v448h-106v48h106v204h58v-204h161v-48h-161v-138h142q80 0 125 -41.5t45 -112.5zM436 156q0 48 -29 77t-75 29h-150v-212h150q46 0 75 29t29 77z" />
    <glyph glyph-name="uni0472" unicode="&#x472;" horiz-adv-x="770" 
d="M714 350q2 -159 -94 -262.5t-235 -101.5q-139 -2 -235 101.5t-94 262.5q-2 159 94 262.5t235 101.5q139 2 235 -101.5t94 -262.5zM118 387q61 29 124 29q64 0 155 -42q79 -38 131 -38q70 0 126 30q-4 132 -79 214t-190 82q-108 0 -182.5 -76t-84.5 -199zM652 313
q-61 -29 -124 -29q-64 0 -155 42q-79 38 -131 38q-70 0 -126 -30q4 -132 79 -214t190 -82q108 0 182.5 76t84.5 199z" />
    <glyph glyph-name="uni0473" unicode="&#x473;" horiz-adv-x="592" 
d="M550 248q0 -118 -73.5 -190t-180.5 -72t-180.5 72t-73.5 190t73.5 190t180.5 72t180.5 -72t73.5 -190zM101 268q58 29 102 29q32 0 103 -26q58 -24 87 -24q48 0 98 28q-9 82 -64 133q-53 52 -131 52t-133.5 -54t-61.5 -138zM491 228q-58 -29 -102 -29q-31 0 -103 26
q-58 24 -87 24q-48 0 -98 -28q9 -81 63 -134q56 -51 132 -51q78 0 133.5 54t61.5 138z" />
    <glyph glyph-name="uni0474" unicode="&#x474;" horiz-adv-x="708" 
d="M262 0l-260 700h60l209 -571q19 -49 26 -77q7 24 26 77l187 512q27 73 96 73q57 0 82 -43l-35 -38q-20 29 -46 29q-28 0 -44 -40l-231 -622h-70z" />
    <glyph glyph-name="uni0475" unicode="&#x475;" horiz-adv-x="573" 
d="M206 0l-198 496h63l166 -432l145 377q29 69 97 69q55 0 80 -45l-34 -36q-18 31 -46 31t-43 -39l-168 -421h-62z" />
    <glyph glyph-name="uni0490" unicode="&#x490;" horiz-adv-x="537" 
d="M461 826h57v-178h-370v-648h-60v700h373v126z" />
    <glyph glyph-name="uni0491" unicode="&#x491;" horiz-adv-x="404" 
d="M76 0v496h236v116h54v-166h-232v-446h-58z" />
    <glyph glyph-name="uni060C" unicode="&#x60c;" horiz-adv-x="189" 
d="M91 -10l-28 26q-23 23 -23 50q0 30 23.5 62t60.5 53l19 -29q-37 -20 -37 -46q0 -15 14 -29l29 -29z" />
    <glyph glyph-name="uni061B" unicode="&#x61b;" horiz-adv-x="199" 
d="M96 -16l-56 56l58 58l56 -56zM101 251l-28 26q-23 23 -23 50q0 30 23.5 62t60.5 53l19 -29q-37 -20 -37 -46q0 -15 14 -29l29 -29z" />
    <glyph glyph-name="uni061F" unicode="&#x61f;" horiz-adv-x="511" 
d="M144 332q-50 40 -70.5 71.5t-23.5 93.5q0 80 56.5 133.5t148.5 53.5t147 -51t55 -126q0 -39 -15 -76l-46 10q12 30 12 57q0 55 -42 89.5t-111 34.5q-70 0 -112.5 -35.5t-42.5 -94.5q0 -37 18 -62.5t63 -61.5q39 -32 56 -50t32 -51.5t16 -78.5v-13h-50q-1 41 -13.5 69.5
t-27.5 44t-50 43.5zM252 -16l-56 56l58 58l56 -56z" />
    <glyph glyph-name="uni0621" unicode="&#x621;" horiz-adv-x="377" 
d="M267 101q36 0 90 8v-56l-310 -61l-24 52l117 22q-49 23 -76.5 61.5t-27.5 83.5q0 66 44 111t108 45q50 0 85 -30.5t46 -81.5l-39 -27q-14 79 -89 79q-48 0 -76.5 -26.5t-28.5 -70.5q0 -51 48.5 -80t132.5 -29z" />
    <glyph glyph-name="uni0622" unicode="&#x622;" horiz-adv-x="196" 
d="M74 0v672h48v-672h-48zM14 743l-30 12q9 30 26.5 47t38.5 17q6 0 16 -3.5t18.5 -7.5t9.5 -4q31 -14 41 -14q14 0 20.5 5.5t16.5 24.5l30 -13q-19 -63 -66 -63q-8 0 -18.5 3.5t-19 7.5t-9.5 4q-30 14 -41 14q-17 0 -33 -30z" />
    <glyph glyph-name="uni0623" unicode="&#x623;" horiz-adv-x="196" 
d="M74 0v672h48v-672h-48zM127 798q27 0 48 4v-39l-139 -27l-13 38l39 7q-30 19 -30 54q0 29 19 47.5t49 18.5q24 0 40.5 -13.5t19.5 -34.5l-25 -14q-5 25 -34 25q-17 0 -27 -8.5t-10 -21.5q0 -36 63 -36z" />
    <glyph glyph-name="uni0624" unicode="&#x624;" horiz-adv-x="379" 
d="M335 87q0 -133 -60 -211.5t-156 -78.5q-59 0 -125 29l19 54q54 -25 106 -25q77 0 124 61.5t48 168.5q-30 -85 -117 -85q-62 0 -101 43t-39 111q0 71 41.5 118t105.5 47q74 0 114 -60.5t40 -171.5zM290 131q-11 134 -110 134q-44 0 -72.5 -30t-28.5 -76q0 -47 29.5 -76
t75.5 -29q38 0 67 21t39 56zM210 445q27 0 48 4v-39l-139 -27l-13 38l39 7q-30 20 -30 54q0 29 19 47.5t49 18.5q24 0 40.5 -13.5t19.5 -34.5l-25 -14q-5 25 -34 25q-17 0 -27 -8.5t-10 -21.5q0 -36 63 -36z" />
    <glyph glyph-name="uni0625" unicode="&#x625;" horiz-adv-x="196" 
d="M74 0v672h48v-672h-48zM131 -178q27 0 48 4v-39l-139 -27l-13 38l39 7q-30 19 -30 54q0 29 19 47.5t49 18.5q24 0 40.5 -13.5t19.5 -34.5l-25 -14q-5 25 -34 25q-17 0 -27 -8.5t-10 -21.5q0 -36 63 -36z" />
    <glyph glyph-name="uni0626" unicode="&#x626;" horiz-adv-x="672" 
d="M46 49q0 98 54 221l41 -17q-44 -102 -44 -185q0 -101 53.5 -155t154.5 -54q96 -2 183.5 51t84.5 112q0 25 -17.5 38.5t-59.5 21.5l-75 14q-131 26 -131 125q-2 72 60 133.5t135 59.5q53 0 91.5 -35t51.5 -94l-41 -16q-9 41 -37.5 65.5t-65.5 24.5q-55 0 -100.5 -40.5
t-45.5 -89.5q0 -32 23 -50t76 -28l75 -14q111 -19 111 -115q2 -52 -46 -105.5t-124 -87.5t-148 -32q-124 0 -191.5 65.5t-67.5 186.5zM194 409q27 0 48 4v-39l-139 -27l-13 38l39 7q-30 20 -30 54q0 29 19 47.5t49 18.5q24 0 40.5 -13.5t19.5 -34.5l-25 -14q-5 25 -34 25
q-17 0 -27 -8.5t-10 -21.5q0 -36 63 -36z" />
    <glyph glyph-name="uni0627" unicode="&#x627;" horiz-adv-x="196" 
d="M74 0v672h48v-672h-48z" />
    <glyph glyph-name="uni0628" unicode="&#x628;" horiz-adv-x="713" 
d="M66 180q0 68 36 182l42 -11q-31 -96 -31 -154q0 -81 58 -112t196 -31t189 26.5t51 101.5q0 55 -31 175l44 12q35 -132 35 -200q0 -96 -65 -135.5t-223 -39.5q-159 0 -230 43.5t-71 142.5zM367 -181l-48 49l48 50l48 -50z" />
    <glyph glyph-name="uni0629" unicode="&#x629;" horiz-adv-x="448" 
d="M44 172q0 88 52.5 154.5t127.5 66.5t127.5 -66.5t52.5 -154.5q0 -84 -47 -130t-133 -46t-133 46t-47 130zM354 174q0 65 -36 111.5t-94 46.5t-94 -46.5t-36 -111.5q0 -55 34 -86.5t96 -31.5t96 31.5t34 86.5zM177 491l-48 49l48 50l48 -50zM276 491l-48 49l48 50l48 -50z
" />
    <glyph glyph-name="uni062A" unicode="&#x62a;" horiz-adv-x="713" 
d="M66 180q0 68 36 182l42 -11q-31 -96 -31 -154q0 -81 58 -112t196 -31t189 26.5t51 101.5q0 55 -31 175l44 12q35 -132 35 -200q0 -96 -65 -135.5t-223 -39.5q-159 0 -230 43.5t-71 142.5zM310 435l-48 49l48 50l48 -50zM409 435l-48 49l48 50l48 -50z" />
    <glyph glyph-name="uni062B" unicode="&#x62b;" horiz-adv-x="713" 
d="M66 180q0 68 36 182l42 -11q-31 -96 -31 -154q0 -81 58 -112t196 -31t189 26.5t51 101.5q0 55 -31 175l44 12q35 -132 35 -200q0 -96 -65 -135.5t-223 -39.5q-159 0 -230 43.5t-71 142.5zM360 529l-48 49l48 50l48 -50zM310 435l-48 49l48 50l48 -50zM409 435l-48 49
l48 50l48 -50z" />
    <glyph glyph-name="uni062C" unicode="&#x62c;" horiz-adv-x="555" 
d="M508 -116l37 -33q-82 -101 -244 -101q-107 0 -172.5 58t-65.5 153q0 97 87 175.5t252 129.5q-156 48 -232 48q-54 0 -54 -49q0 -18 11 -49l-49 -16q-12 34 -12 64q0 47 25.5 76.5t68.5 29.5q80 0 310 -71l28 -9l5 -50q-392 -92 -392 -277q0 -67 56.5 -110t145.5 -43
q121 0 195 74zM332 -49l-48 49l48 50l48 -50z" />
    <glyph glyph-name="uni062D" unicode="&#x62d;" horiz-adv-x="555" 
d="M508 -116l37 -33q-82 -101 -244 -101q-107 0 -172.5 58t-65.5 153q0 97 87 175.5t252 129.5q-156 48 -232 48q-54 0 -54 -49q0 -18 11 -49l-49 -16q-12 34 -12 64q0 47 25.5 76.5t68.5 29.5q80 0 310 -71l28 -9l5 -50q-392 -92 -392 -277q0 -67 56.5 -110t145.5 -43
q121 0 195 74z" />
    <glyph glyph-name="uni062E" unicode="&#x62e;" horiz-adv-x="555" 
d="M508 -116l37 -33q-82 -101 -244 -101q-107 0 -172.5 58t-65.5 153q0 97 87 175.5t252 129.5q-156 48 -232 48q-54 0 -54 -49q0 -18 11 -49l-49 -16q-12 34 -12 64q0 47 25.5 76.5t68.5 29.5q80 0 310 -71l28 -9l5 -50q-392 -92 -392 -277q0 -67 56.5 -110t145.5 -43
q121 0 195 74zM306 436l-48 49l48 50l48 -50z" />
    <glyph glyph-name="uni062F" unicode="&#x62f;" horiz-adv-x="426" 
d="M55 0l-15 60q68 -6 116 -6q95 0 135.5 16t40.5 53q0 51 -49 121q-52 74 -118 127l39 40q74 -65 124 -146q54 -86 54 -152q0 -61 -53 -90t-170 -29q-48 0 -104 6z" />
    <glyph glyph-name="uni0630" unicode="&#x630;" horiz-adv-x="426" 
d="M55 0l-15 60q68 -6 116 -6q95 0 135.5 16t40.5 53q0 51 -49 121q-52 74 -118 127l39 40q74 -65 124 -146q54 -86 54 -152q0 -61 -53 -90t-170 -29q-48 0 -104 6zM194 505l-48 49l48 50l48 -50z" />
    <glyph glyph-name="uni0631" unicode="&#x631;" horiz-adv-x="338" 
d="M-48 -174l19 54q47 -22 100 -22q85 0 128 57q45 57 45 143q0 63 -24 125.5t-68 109.5l41 33q48 -54 74.5 -125.5t26.5 -144.5q0 -112 -59 -185.5t-164 -73.5q-58 0 -119 29z" />
    <glyph glyph-name="uni0632" unicode="&#x632;" horiz-adv-x="338" 
d="M-48 -174l19 54q47 -22 100 -22q85 0 128 57q45 57 45 143q0 63 -24 125.5t-68 109.5l41 33q48 -54 74.5 -125.5t26.5 -144.5q0 -112 -59 -185.5t-164 -73.5q-58 0 -119 29zM187 435l-48 49l48 50l48 -50z" />
    <glyph glyph-name="uni0633" unicode="&#x633;" horiz-adv-x="1056" 
d="M998 174q0 -86 -35 -132t-100 -46q-36 0 -68 20.5t-47 52.5q-15 -34 -43.5 -53.5t-63.5 -19.5q-63 0 -89 45q-3 -116 -68.5 -180t-182.5 -64q-122 0 -188.5 65.5t-66.5 186.5q0 93 54 221l41 -17q-44 -108 -44 -195q0 -95 52 -147t147 -52q107 0 155.5 47.5t48.5 152.5
q0 89 -47 213l48 17q28 -70 42 -140q12 -51 33.5 -71t62.5 -20q40 0 63 22t23 61v179h48v-181q0 -35 25.5 -58t62.5 -23q88 0 88 116q0 73 -32 183l46 12q35 -108 35 -195z" />
    <glyph glyph-name="uni0634" unicode="&#x634;" horiz-adv-x="1056" 
d="M998 174q0 -86 -35 -132t-100 -46q-36 0 -68 20.5t-47 52.5q-15 -34 -43.5 -53.5t-63.5 -19.5q-63 0 -89 45q-3 -116 -68.5 -180t-182.5 -64q-122 0 -188.5 65.5t-66.5 186.5q0 93 54 221l41 -17q-44 -108 -44 -195q0 -95 52 -147t147 -52q107 0 155.5 47.5t48.5 152.5
q0 89 -47 213l48 17q28 -70 42 -140q12 -51 33.5 -71t62.5 -20q40 0 63 22t23 61v179h48v-181q0 -35 25.5 -58t62.5 -23q88 0 88 116q0 73 -32 183l46 12q35 -108 35 -195zM723 530l-48 49l48 50l48 -50zM673 436l-48 49l48 50l48 -50zM772 436l-48 49l48 50l48 -50z" />
    <glyph glyph-name="uni0635" unicode="&#x635;" horiz-adv-x="1124" 
d="M1080 163q0 -80 -67 -121.5t-189 -41.5q-116 0 -180 11q-61 12 -92 43v-1q0 -122 -65.5 -189t-185.5 -67q-122 0 -188.5 65.5t-66.5 186.5q0 93 54 221l41 -17q-44 -108 -44 -195q0 -95 52 -147t147 -52q107 0 155.5 47.5t48.5 152.5q0 89 -47 213l48 17q31 -76 44 -150
q19 -43 63 -59q78 146 150 215t149 69q76 0 124.5 -60t48.5 -141zM1032 165q0 51 -33.5 95t-94.5 44q-122 0 -249 -235q60 -9 169 -9q98 0 153 27t55 78z" />
    <glyph glyph-name="uni0636" unicode="&#x636;" horiz-adv-x="1124" 
d="M1080 163q0 -80 -67 -121.5t-189 -41.5q-116 0 -180 11q-61 12 -92 43v-1q0 -122 -65.5 -189t-185.5 -67q-122 0 -188.5 65.5t-66.5 186.5q0 93 54 221l41 -17q-44 -108 -44 -195q0 -95 52 -147t147 -52q107 0 155.5 47.5t48.5 152.5q0 89 -47 213l48 17q31 -76 44 -150
q19 -43 63 -59q78 146 150 215t149 69q76 0 124.5 -60t48.5 -141zM1032 165q0 51 -33.5 95t-94.5 44q-122 0 -249 -235q60 -9 169 -9q98 0 153 27t55 78zM889 430l-48 49l48 50l48 -50z" />
    <glyph glyph-name="uni0637" unicode="&#x637;" horiz-adv-x="635" 
d="M591 192q0 -94 -81.5 -143t-236.5 -49h-218l-15 67l98 -6v611h48v-497q122 206 238 206q70 0 118.5 -55t48.5 -134zM541 192q0 49 -35 85.5t-82 36.5q-119 0 -241 -254h88q270 0 270 132z" />
    <glyph glyph-name="uni0638" unicode="&#x638;" horiz-adv-x="635" 
d="M591 192q0 -94 -81.5 -143t-236.5 -49h-218l-15 67l98 -6v611h48v-497q122 206 238 206q70 0 118.5 -55t48.5 -134zM541 192q0 49 -35 85.5t-82 36.5q-119 0 -241 -254h88q270 0 270 132zM426 458l-48 49l48 50l48 -50z" />
    <glyph glyph-name="uni0639" unicode="&#x639;" horiz-adv-x="480" 
d="M463 -116l37 -33q-82 -101 -244 -101q-97 0 -161.5 50t-64.5 132q0 146 178 237q-61 13 -95 50t-34 93q0 75 49 127t114 52q113 0 144 -125l-45 -13q-16 82 -100 82q-45 0 -79.5 -33.5t-34.5 -84.5q0 -48 38.5 -74t108.5 -26q46 0 111 15q2 0 10 2v-58q-130 -27 -223 -84
q-92 -56 -92 -155q0 -63 55 -94q55 -33 133 -33q121 0 195 74z" />
    <glyph glyph-name="uni063A" unicode="&#x63a;" horiz-adv-x="480" 
d="M463 -116l37 -33q-82 -101 -244 -101q-97 0 -161.5 50t-64.5 132q0 146 178 237q-61 13 -95 50t-34 93q0 75 49 127t114 52q113 0 144 -125l-45 -13q-16 82 -100 82q-45 0 -79.5 -33.5t-34.5 -84.5q0 -48 38.5 -74t108.5 -26q46 0 111 15q2 0 10 2v-58q-130 -27 -223 -84
q-92 -56 -92 -155q0 -63 55 -94q55 -33 133 -33q121 0 195 74zM244 557l-48 49l48 50l48 -50z" />
    <glyph glyph-name="uni0640" unicode="&#x640;" horiz-adv-x="178" 
d="M1 0l-17 10v40l17 10h176l17 -10v-40l-17 -10h-176z" />
    <glyph glyph-name="uni0641" unicode="&#x641;" horiz-adv-x="732" 
d="M688 222q-2 -132 -67 -179.5t-255 -48.5q-157 0 -228.5 44.5t-71.5 143.5q0 67 35 180l47 -10q-32 -101 -32 -158q0 -77 56.5 -108.5t193.5 -31.5q74 1 118.5 6t76.5 14t47 28.5t21.5 45t8.5 68.5v24q-17 -33 -49 -53.5t-68 -20.5q-63 0 -102.5 42.5t-39.5 111.5
q0 71 43 118t106 47q79 0 119.5 -67t40.5 -196zM634 286q-18 141 -107 141q-45 0 -71.5 -27.5t-26.5 -74.5t26.5 -74t72.5 -27q37 0 65.5 16.5t40.5 45.5zM532 560l-48 49l48 50l48 -50z" />
    <glyph glyph-name="uni0642" unicode="&#x642;" horiz-adv-x="622" 
d="M578 92q-1 -91 -18.5 -149.5t-55 -90t-84 -43t-119.5 -12.5q-122 0 -188.5 65.5t-66.5 186.5q0 93 54 221l41 -17q-44 -108 -44 -195q0 -95 52 -147t147 -52q76 2 121 13.5t69.5 41t32.5 68t9 104.5v24q-17 -33 -49 -53.5t-68 -20.5q-63 0 -102.5 42.5t-39.5 111.5
q0 71 43 118t106 47q76 0 118 -68.5t42 -194.5zM524 156q-18 141 -107 141q-45 0 -71.5 -27.5t-26.5 -74.5t26.5 -74t72.5 -27q37 0 65.5 16.5t40.5 45.5zM367 456l-48 49l48 50l48 -50zM466 456l-48 49l48 50l48 -50z" />
    <glyph glyph-name="uni0643" unicode="&#x643;" horiz-adv-x="701" 
d="M66 188q0 77 38 196l45 -12q-28 -99 -28 -160q0 -81 52 -116.5t173 -35.5q124 0 178.5 18t54.5 62v532h48v-532q0 -84 -75 -116q-75 -30 -206 -30q-146 0 -213 47t-67 147zM282 333l4 40q33 -5 61 -5q49 0 49 10q0 5 -33 13l-20 5q-48 13 -48 50q0 27 19.5 44t48.5 17
q42 0 62 -36l-26 -18q-10 16 -33 16q-13 0 -24 -5.5t-11 -13.5q0 -12 29 -18l22 -5q28 -7 39.5 -18t11.5 -33q0 -48 -83 -48q-23 0 -68 5z" />
    <glyph glyph-name="uni0644" unicode="&#x644;" horiz-adv-x="626" 
d="M46 38q0 121 75 237l43 -26q-61 -97 -61 -195q0 -86 54.5 -136.5t145.5 -50.5q201 0 201 182v623h48v-623q0 -118 -64 -183.5t-185 -65.5q-115 0 -186 65.5t-71 172.5z" />
    </font>
</defs>
</svg>
