<?xml version="1.0" encoding="UTF-8"?><svg id="Layer_2" xmlns="http://www.w3.org/2000/svg" viewBox="0 0 308.64 60.64"><defs><style>.cls-1{fill:#1b00b0;}.cls-2{fill:#30f;}</style></defs><g id="landrik"><path class="cls-1" d="M39.2,49.04v10.64H0V4.72h11.84v44.32h27.36Z"/><path class="cls-1" d="M83.12,34.96v24.72h-11.28v-4.16c-2.96,3.36-7.68,5.12-12.16,5.12-8.8,0-15.6-5.28-15.6-13.2s7.6-13.76,17.2-13.76c3.36,0,7.04.72,10.56,2.08v-.8c0-4.4-2.72-8.24-9.52-8.24-3.84,0-7.44,1.28-10.72,2.96l-3.92-7.76c5.84-2.96,11.52-4.56,17.28-4.56,10.8,0,18.16,6.8,18.16,17.6ZM71.84,46.64v-3.84c-2.64-.96-5.68-1.52-8.88-1.52-4.24,0-7.6,2.48-7.6,5.84s2.96,5.44,6.96,5.44c4.48,0,8.72-2.08,9.52-5.92Z"/><path class="cls-1" d="M132.24,33.36v26.32h-11.28v-23.84c0-5.12-3.2-8.64-7.84-8.64-4.88,0-8.64,3.52-8.64,8l-.08-.24v24.72h-11.68V18.32h11.68v5.2c2.48-3.76,7.12-6.16,12.48-6.16,8.96,0,15.36,6.64,15.36,16Z"/><path class="cls-1" d="M184.64,3.76v55.92h-11.68v-5.92c-3.28,4.32-8.08,6.88-13.92,6.88-11.04,0-19.04-8.96-19.04-21.68s8-21.6,19.04-21.6c5.84,0,10.64,2.56,13.92,6.88V3.76h11.68ZM172.96,38.96c0-6.88-4.4-11.76-10.56-11.76-6.48,0-11.04,4.88-11.04,11.76s4.56,11.84,11.04,11.84,10.56-4.88,10.56-11.84Z"/><path class="cls-1" d="M220.72,17.36v9.84c-8.64,0-14.16,4.96-14.16,12.72v19.76h-11.68V18.32h11.68v7.68c2.72-5.36,7.84-8.64,14.16-8.64Z"/><path class="cls-1" d="M226.88,6.24c0-3.28,2.8-6.24,6.4-6.24s6.24,2.96,6.24,6.24c0,3.52-2.8,6.4-6.24,6.4s-6.4-2.88-6.4-6.4ZM227.36,18.32h11.68v41.36h-11.68V18.32Z"/><path class="cls-1" d="M273.36,36.64l15.92,23.04h-13.44l-10.24-15.52-4.96,5.36v10.16h-11.68V3.76h11.68v32.4l15.36-17.84h13.44l-16.08,18.32Z"/></g><g id="dot"><path class="cls-2" d="M294.08,53.2c0-3.76,3.28-7.12,7.44-7.12,3.92,0,7.12,3.36,7.12,7.12,0,4.08-3.2,7.44-7.12,7.44-4.16,0-7.44-3.36-7.44-7.44Z"/></g></svg>